<svg width="28" height="28" viewBox="0 0 28 28" fill="none" xmlns="http://www.w3.org/2000/svg">
<path d="M4.33317 14H3.1665V15.1667H4.33317V14Z" fill="black"/>
<path d="M4.33317 22.1667H3.1665V21H4.33317V22.1667Z" fill="black"/>
<path d="M21.8333 14H23V15.1667H21.8333V14Z" fill="black"/>
<path d="M4.33317 12.8333H3.1665V14H4.33317V12.8333Z" fill="black"/>
<path d="M4.33317 23.3333H3.1665V22.1666H4.33317V23.3333Z" fill="black"/>
<path d="M21.8333 23.3333H23V21H21.8333V23.3333Z" fill="black"/>
<path d="M21.8333 12.8333H23V14H21.8333V12.8333Z" fill="black"/>
<path d="M5.50016 11.6667H4.3335V12.8334H5.50016V11.6667Z" fill="black"/>
<path d="M5.50016 24.5H4.3335V23.3333H5.50016V24.5Z" fill="black"/>
<path d="M20.6668 24.5H21.8335V23.3333H20.6668V24.5Z" fill="black"/>
<path d="M20.6668 11.6667H21.8335V12.8334H20.6668V11.6667Z" fill="black"/>
<path d="M6.66667 10.5H5.5V11.6667H6.66667V10.5Z" fill="black"/>
<path d="M6.66667 25.6667H5.5V24.5H6.66667V25.6667Z" fill="black"/>
<path d="M19.4998 25.6667H20.6665V24.5H19.4998V25.6667Z" fill="black"/>
<path d="M19.4998 10.5H20.6665V11.6667H19.4998V10.5Z" fill="black"/>
<path d="M8.99984 9.33331H6.6665V10.5H8.99984V9.33331Z" fill="black"/>
<path d="M8.99984 26.8333H6.6665V25.6666H8.99984V26.8333Z" fill="black"/>
<path d="M17.1667 26.8333H19.5V25.6666H17.1667V26.8333Z" fill="black"/>
<path d="M17.1667 9.33331H19.5V10.5H17.1667V9.33331Z" fill="black"/>
<path d="M3.16667 15.1667H2V21H3.16667V15.1667Z" fill="black"/>
<path d="M22.9998 15.1667H24.1665V21H22.9998V15.1667Z" fill="black"/>
<path d="M17.1667 8.16669H9V9.33335H17.1667V8.16669Z" fill="black"/>
<path d="M17.1667 26.8333H9V28H17.1667V26.8333Z" fill="black"/>
<rect width="1.16667" height="1.16667" transform="matrix(1 0 0 -1 12.5 5.83331)" fill="#58483D"/>
<rect x="21.8335" y="3.5" width="2.33333" height="2.33333" fill="#F7A923"/>
<path d="M17.1665 10.5V9.33331H8.99984V10.5H6.66651V11.6666H5.49984V12.8333H4.33317V15.1666H3.1665V21H4.33317V23.3333H5.49984V24.5H6.6665V25.6666H8.99984L8.99984 26.8333H17.1665V25.6666H19.4998V24.5H20.6665V23.3333H21.8332V21H22.9998V15.1666H21.8332V12.8333L20.6665 12.8333V11.6666H19.4998V10.5H17.1665Z" fill="#504F4D"/>
<rect x="10.1665" y="7" width="1.16667" height="1.16667" fill="black"/>
<rect x="11.3335" y="7" width="3.5" height="1.16667" fill="#504F4D"/>
<rect x="10.1665" y="5.83331" width="1.16667" height="1.16667" fill="black"/>
<rect x="13.6665" y="5.83331" width="1.16667" height="1.16667" fill="black"/>
<rect x="14.8335" y="5.83331" width="1.16667" height="1.16667" fill="black"/>
<rect x="13.6665" y="3.5" width="1.16667" height="1.16667" fill="#58483D"/>
<rect x="12.5" y="3.5" width="1.16667" height="1.16667" fill="#58483D"/>
<rect x="14.8335" y="2.33331" width="1.16667" height="1.16667" fill="#58483D"/>
<rect x="16" y="1.16669" width="1.16667" height="1.16667" fill="#58483D"/>
<rect x="17.1665" width="1.16667" height="1.16667" fill="#58483D"/>
<rect x="21.8335" y="1.16669" width="1.16667" height="1.16667" fill="#58483D"/>
<rect x="20.6665" width="1.16667" height="1.16667" fill="#58483D"/>
<rect x="19.5" width="1.16667" height="1.16667" fill="#58483D"/>
<rect x="18.3335" width="1.16667" height="1.16667" fill="#58483D"/>
<rect x="20.6665" y="2.33331" width="1.16667" height="1.16667" fill="#E51C24"/>
<rect x="20.6665" y="3.5" width="1.16667" height="1.16667" fill="#E51C24"/>
<rect x="21.8335" y="2.33331" width="1.16667" height="1.16667" fill="#E51C24"/>
<rect x="19.5" y="4.66669" width="1.16667" height="1.16667" fill="#E51C24"/>
<rect x="25.3335" y="4.66669" width="1.16667" height="1.16667" fill="#E51C24"/>
<rect x="25.3335" y="3.5" width="1.16667" height="1.16667" fill="#E51C24"/>
<rect x="19.5" y="3.5" width="1.16667" height="1.16667" fill="#E51C24"/>
<rect x="23" y="2.33331" width="1.16667" height="1.16667" fill="#E51C24"/>
<rect x="24.1665" y="3.5" width="1.16667" height="1.16667" fill="#E51C24"/>
<rect x="24.1665" y="4.66669" width="1.16667" height="1.16667" fill="#E51C24"/>
<rect x="24.1665" y="2.33331" width="1.16667" height="1.16667" fill="#E51C24"/>
<rect x="20.6665" y="4.66669" width="1.16667" height="1.16667" fill="#E51C24"/>
<rect x="21.8335" y="5.83331" width="1.16667" height="1.16667" fill="#E51C24"/>
<rect x="23" y="5.83331" width="1.16667" height="1.16667" fill="#E51C24"/>
<rect x="24.1665" y="5.83331" width="1.16667" height="1.16667" fill="#E51C24"/>
<rect x="20.6665" y="5.83331" width="1.16667" height="1.16667" fill="#E51C24"/>
<rect x="14.8335" y="7" width="1.16667" height="1.16667" fill="black"/>
<rect x="12.5" y="5.83331" width="1.16667" height="1.16667" fill="black"/>
<rect x="11.3335" y="5.83331" width="1.16667" height="1.16667" fill="black"/>
<rect x="16" y="12.8333" width="2.33333" height="2.33333" fill="white"/>
<rect x="17.1665" y="16.3333" width="1.16667" height="1.16667" fill="white"/>
<rect x="10.1665" y="9.33331" width="3.5" height="2.33333" fill="#4A4849"/>
<rect x="9" y="9.33331" width="1.16667" height="2.33333" fill="#363536"/>
<rect x="11.3335" y="25.6667" width="3.5" height="1.16667" fill="#4A4849"/>
<rect x="9" y="11.6667" width="3.5" height="1.16667" fill="#4A4849"/>
<rect x="7.8335" y="12.8333" width="3.5" height="1.16667" fill="#4A4849"/>
<rect x="5.5" y="11.6667" width="3.5" height="1.16667" fill="#363536"/>
<rect x="6.6665" y="10.5" width="2.33333" height="1.16667" fill="#363536"/>
<rect x="4.3335" y="12.8333" width="3.5" height="1.16667" fill="#363536"/>
<rect x="4.3335" y="14" width="2.33333" height="1.16667" fill="#363536"/>
<rect x="3.1665" y="15.1667" width="2.33333" height="2.33333" fill="#363536"/>
<rect x="3.1665" y="17.5" width="2.33333" height="1.16667" fill="#363536"/>
<rect x="3.1665" y="18.6667" width="2.33333" height="1.16667" fill="#363536"/>
<rect x="3.1665" y="19.8333" width="2.33333" height="1.16667" fill="#363536"/>
<rect x="4.3335" y="22.1667" width="2.33333" height="1.16667" fill="#363536"/>
<rect x="5.5" y="23.3333" width="2.33333" height="1.16667" fill="#363536"/>
<rect x="6.6665" y="24.5" width="2.33333" height="1.16667" fill="#363536"/>
<rect x="9" y="25.6667" width="1.16667" height="1.16667" fill="#363536"/>
<rect x="10.1665" y="25.6667" width="1.16667" height="1.16667" fill="#363536"/>
<rect x="4.3335" y="21" width="1.16667" height="1.16667" fill="#363536"/>
<rect x="6.6665" y="14" width="3.5" height="1.16667" fill="#4A4849"/>
<rect x="7.8335" y="23.3333" width="4.66667" height="1.16667" fill="#4A4849"/>
<rect x="9" y="24.5" width="4.66667" height="1.16667" fill="#4A4849"/>
<rect x="6.6665" y="22.1667" width="4.66667" height="1.16667" fill="#4A4849"/>
<rect x="5.5" y="21" width="4.66667" height="1.16667" fill="#4A4849"/>
<rect x="5.5" y="15.1667" width="3.5" height="1.16667" fill="#4A4849"/>
<rect x="5.5" y="16.3333" width="2.33333" height="1.16667" fill="#4A4849"/>
<rect x="5.5" y="18.6667" width="2.33333" height="1.16667" fill="#4A4849"/>
<rect x="5.5" y="19.8333" width="2.33333" height="1.16667" fill="#4A4849"/>
<rect x="5.5" y="17.5" width="2.33333" height="1.16667" fill="#4A4849"/>
</svg>
