<svg width="28" height="28" viewBox="0 0 28 28" fill="none" xmlns="http://www.w3.org/2000/svg">
<path d="M19.8332 25.6667H8.1665V26.8334H19.8332V25.6667Z" fill="black"/>
<path d="M26.8332 21H25.6665V25.6667H26.8332V21Z" fill="black"/>
<path d="M23.3332 23.3334H22.1665V11.6667H23.3332V18.6667H24.4998V19.8334H23.3332V23.3334Z" fill="black"/>
<path d="M25.6667 25.6667H21V26.8334H25.6667V25.6667Z" fill="black"/>
<path d="M21.0002 9.33331H19.8335V10.5H21.0002V9.33331Z" fill="black"/>
<path d="M22.1667 10.5H21V11.6667H22.1667V10.5Z" fill="black"/>
<path d="M25.6667 19.8333H24.5V21H25.6667V19.8333Z" fill="black"/>
<path d="M22.1667 23.3333H21V24.5H22.1667V23.3333Z" fill="black"/>
<path d="M21.0002 24.5H19.8335V25.6667H21.0002V24.5Z" fill="black"/>
<path d="M7.00016 23.3333H5.8335V24.5H7.00016V23.3333Z" fill="black"/>
<path d="M8.16667 24.5H7V25.6667H8.16667V24.5Z" fill="black"/>
<path d="M4.66667 19.8334H3.5V18.6667H4.66667V11.6667H5.83333V23.3334H4.66667V19.8334Z" fill="black"/>
<path d="M2.33317 21H1.1665V25.6667H2.33317V21Z" fill="black"/>
<path d="M7.00016 25.6667H2.3335V26.8334H7.00016V25.6667Z" fill="black"/>
<path d="M3.50016 19.8333H2.3335V21H3.50016V19.8333Z" fill="black"/>
<path d="M7.00016 10.5H5.8335V11.6667H7.00016V10.5Z" fill="black"/>
<path d="M8.16667 9.33331H7V10.5H8.16667V9.33331Z" fill="black"/>
<path d="M9.33317 8.16669H8.1665V9.33335H9.33317V8.16669Z" fill="black"/>
<path d="M19.8332 8.16669H18.6665V9.33335H19.8332V8.16669Z" fill="black"/>
<path d="M18.6667 5.83331H17.5V8.16665H18.6667V5.83331Z" fill="black"/>
<path d="M10.5002 5.83331H9.3335V8.16665H10.5002V5.83331Z" fill="black"/>
<path d="M10.5002 3.5H9.3335V4.66667H10.5002V3.5Z" fill="black"/>
<path d="M11.6667 4.66669H10.5V5.83335H11.6667V4.66669Z" fill="black"/>
<path d="M17.5002 4.66669H16.3335V5.83335H17.5002V4.66669Z" fill="black"/>
<path d="M18.6667 3.5H17.5V4.66667H18.6667V3.5Z" fill="black"/>
<path d="M19.8332 2.33331H18.6665V3.49998H19.8332V2.33331Z" fill="black"/>
<path d="M18.6668 1.16669H9.3335V2.33335H18.6668V1.16669Z" fill="black"/>
<path d="M9.33317 2.33331H8.1665V3.49998H9.33317V2.33331Z" fill="black"/>
<path d="M17.5 5.83335V8.16669H10.5V5.83335H11.6667V4.66669H16.3333V5.83335H17.5Z" fill="white"/>
<path d="M18.6665 15.1667V12.8334H16.3332V11.6667H11.6665V12.8334H9.33317V15.1667H8.1665V18.6667H9.33317V21H11.6665V22.1667H16.3332V21H18.6665V18.6667H19.8332V15.1667H18.6665ZM13.9998 19.8334V21H12.8332V19.8334H11.6665V18.6667H15.1665V17.5H11.6665V14H13.9998V12.8334H15.1665V14H16.3332V15.1667H12.8332V16.3334H16.3332V19.8334H13.9998Z" fill="white"/>
<path d="M15.1668 22.1667H12.8335V25.6667H15.1668V22.1667Z" fill="white"/>
<path d="M12.8332 2.33331H11.6665V4.66665H12.8332V2.33331Z" fill="white"/>
<path d="M16.3332 2.33331H15.1665V4.66665H16.3332V2.33331Z" fill="white"/>
<path d="M16.3332 8.16669V9.33335H15.1665V11.6667H12.8332V9.33335H11.6665V8.16669H16.3332Z" fill="white"/>
<path d="M18.6668 2.33331V3.49998H17.5002V4.66665H16.3335V2.33331H18.6668Z" fill="#00D1FF"/>
<path d="M15.1668 2.33331H12.8335V4.66665H15.1668V2.33331Z" fill="#00D1FF"/>
<path d="M11.6668 2.33331V4.66665H10.5002V3.49998H9.3335V2.33331H11.6668Z" fill="#00D1FF"/>
<path d="M12.8332 15.1666V16.3333H16.3332V19.8333H13.9998V21H12.8332V19.8333H11.6665V18.6666H15.1665V17.5H11.6665V14H13.9998V12.8333H15.1665V14H16.3332V15.1666H12.8332Z" fill="#00D1FF"/>
<path d="M8.16683 15.1667V18.6667H9.3335V21H11.6668V22.1667H12.8335V25.6667H8.16683V24.5H7.00016V23.3334H5.8335V11.6667H7.00016V10.5H8.16683V9.33335H9.3335V8.16669H11.6668V9.33335H12.8335V11.6667H11.6668V12.8334H9.3335V15.1667H8.16683Z" fill="#00D1FF"/>
<path d="M7.00016 24.5V25.6666H2.3335V21H3.50016V19.8333H4.66683V23.3333H5.8335V24.5H7.00016Z" fill="#00D1FF"/>
<path d="M25.6667 21V25.6666H21V24.5H22.1667V23.3333H23.3333V19.8333H24.5V21H25.6667Z" fill="#00D1FF"/>
<path d="M22.1665 11.6667V23.3334H20.9998V24.5H19.8332V25.6667H15.1665V22.1667H16.3332V21H18.6665V18.6667H19.8332V15.1667H18.6665V12.8334H16.3332V11.6667H15.1665V9.33335H16.3332V8.16669H18.6665V9.33335H19.8332V10.5H20.9998V11.6667H22.1665Z" fill="#00D1FF"/>
</svg>
