<svg width="28" height="28" viewBox="0 0 28 28" fill="none" xmlns="http://www.w3.org/2000/svg">
<path d="M25.6666 15.1667V18.6667H24.4999V21H23.3333V22.1667H22.1666V23.3334H20.9999V24.5H18.6666V25.6667H13.9999V24.5H12.8333V23.3334H11.6666V22.1667H10.4999V21H9.33325V19.8334H11.6666V21H16.3333V19.8334H19.8333V18.6667H22.1666V17.5H23.3333V16.3334H24.4999V15.1667H25.6666Z" fill="#2B6DA3"/>
<path d="M25.6666 9.33331V14H24.4999V12.8333H23.3333V11.6666H22.1666V10.5H19.8333V9.33331H16.3333V8.16665H11.6666V9.33331H8.16658V10.5H5.83325V11.6666H4.66659V12.8333H3.49992V14H2.33325V9.33331H3.49992V6.99998H4.66659V5.83331H5.83325V4.66665H6.99992V3.49998H9.33325V2.33331H18.6666V3.49998H20.9999V4.66665H22.1666V5.83331H23.3333V6.99998H24.4999V9.33331H25.6666Z" fill="#51AAF4"/>
<path d="M24.4999 15.1667H23.3333V16.3334H24.4999V15.1667Z" fill="black"/>
<path d="M24.4999 12.8333H23.3333V14H24.4999V12.8333Z" fill="black"/>
<path d="M23.3334 16.3333H22.1667V17.5H23.3334V16.3333Z" fill="black"/>
<path d="M23.3334 11.6667H22.1667V12.8334H23.3334V11.6667Z" fill="black"/>
<path d="M22.1666 10.5H19.8333V11.6667H22.1666V10.5Z" fill="black"/>
<path d="M22.1666 17.5H19.8333V18.6667H22.1666V17.5Z" fill="black"/>
<path d="M19.8333 9.33331H16.3333V10.5H19.8333V9.33331Z" fill="black"/>
<path d="M19.8333 18.6667H16.3333V19.8334H19.8333V18.6667Z" fill="black"/>
<path d="M24.4999 14V15.1667H23.3333V16.3333H22.1666V17.5H19.8333V18.6667H16.3333V17.5H17.4999V16.3333H18.6666V12.8333H17.4999V11.6667H16.3333V10.5H19.8333V11.6667H22.1666V12.8333H23.3333V14H24.4999Z" fill="#E5E5E5"/>
<path d="M16.3333 12.8333H14V16.3333H16.3333V12.8333Z" fill="#152040"/>
<path d="M16.3333 9.33331H14V10.5H16.3333V9.33331Z" fill="#E5E5E5"/>
<path d="M16.3334 8.16669H11.6667V9.33335H16.3334V8.16669Z" fill="black"/>
<path d="M16.3333 18.6667H14V19.8334H16.3333V18.6667Z" fill="#E5E5E5"/>
<path d="M18.6667 12.8333V16.3333H17.5V17.5H16.3333V18.6667H14V16.3333H16.3333V12.8333H14V10.5H16.3333V11.6667H17.5V12.8333H18.6667Z" fill="#33CCD8"/>
<path d="M16.3334 19.8333H11.6667V21H16.3334V19.8333Z" fill="black"/>
<path d="M14.0001 12.8333H11.6667V16.3333H14.0001V12.8333Z" fill="#283D7D"/>
<path d="M14.0001 18.6667H11.6667V19.8334H14.0001V18.6667Z" fill="white"/>
<path d="M11.6666 12.8333V16.3333H13.9999V18.6667H11.6666V17.5H10.4999V16.3333H9.33325V12.8333H10.4999V11.6667H11.6666V10.5H13.9999V12.8333H11.6666Z" fill="#38E4F1"/>
<path d="M14.0001 9.33331H11.6667V10.5H14.0001V9.33331Z" fill="white"/>
<path d="M11.6667 9.33331H8.16675V10.5H11.6667V9.33331Z" fill="black"/>
<path d="M9.33333 12.8333V16.3333H10.5V17.5H11.6667V18.6667H8.16667V17.5H5.83333V16.3333H4.66667V15.1667H3.5V14H4.66667V12.8333H5.83333V11.6667H8.16667V10.5H11.6667V11.6667H10.5V12.8333H9.33333Z" fill="white"/>
<path d="M11.6667 18.6667H8.16675V19.8334H11.6667V18.6667Z" fill="black"/>
<path d="M8.16659 10.5H5.83325V11.6667H8.16659V10.5Z" fill="black"/>
<path d="M8.16659 17.5H5.83325V18.6667H8.16659V17.5Z" fill="black"/>
<path d="M5.83342 16.3333H4.66675V17.5H5.83342V16.3333Z" fill="black"/>
<path d="M5.83342 11.6667H4.66675V12.8334H5.83342V11.6667Z" fill="black"/>
<path d="M13.9999 24.5V25.6667H9.33325V24.5H6.99992V23.3334H5.83325V22.1667H4.66659V21H3.49992V18.6667H2.33325V15.1667H3.49992V16.3334H4.66659V17.5H5.83325V18.6667H8.16659V19.8334H9.33325V21H10.4999V22.1667H11.6666V23.3334H12.8333V24.5H13.9999Z" fill="#51AAF4"/>
<path d="M4.66667 15.1667H3.5V16.3334H4.66667V15.1667Z" fill="black"/>
<path d="M4.66667 12.8333H3.5V14H4.66667V12.8333Z" fill="black"/>
<path d="M3.49992 7H2.33325V9.33333H3.49992V7Z" fill="black"/>
<path d="M6.99992 3.5H5.83325V4.66667H6.99992V3.5Z" fill="black"/>
<path d="M3.49992 18.6667H2.33325V21H3.49992V18.6667Z" fill="black"/>
<path d="M3.50008 14V15.1666H2.33341V18.6666H1.16675V9.33331H2.33341V14H3.50008Z" fill="black"/>
<path d="M4.66667 21H3.5V22.1667H4.66667V21Z" fill="black"/>
<path d="M4.66667 5.83331H3.5V6.99998H4.66667V5.83331Z" fill="black"/>
<path d="M5.83342 22.1667H4.66675V23.3334H5.83342V22.1667Z" fill="black"/>
<path d="M5.83342 4.66669H4.66675V5.83335H5.83342V4.66669Z" fill="black"/>
<path d="M6.99992 23.3333H5.83325V24.5H6.99992V23.3333Z" fill="black"/>
<path d="M9.33333 2.33331H7V3.49998H9.33333V2.33331Z" fill="black"/>
<path d="M18.6666 1.16669H9.33325V2.33335H18.6666V1.16669Z" fill="black"/>
<path d="M9.33333 24.5H7V25.6667H9.33333V24.5Z" fill="black"/>
<path d="M21.0001 24.5H18.6667V25.6667H21.0001V24.5Z" fill="black"/>
<path d="M18.6666 25.6667H9.33325V26.8334H18.6666V25.6667Z" fill="black"/>
<path d="M21.0001 2.33331H18.6667V3.49998H21.0001V2.33331Z" fill="black"/>
<path d="M25.6667 18.6667H24.5V21H25.6667V18.6667Z" fill="black"/>
<path d="M24.4999 21H23.3333V22.1667H24.4999V21Z" fill="black"/>
<path d="M26.8333 9.33331V18.6666H25.6667V15.1666H24.5V14H25.6667V9.33331H26.8333Z" fill="black"/>
<path d="M22.1667 23.3333H21V24.5H22.1667V23.3333Z" fill="black"/>
<path d="M24.4999 5.83331H23.3333V6.99998H24.4999V5.83331Z" fill="black"/>
<path d="M25.6667 7H24.5V9.33333H25.6667V7Z" fill="black"/>
<path d="M23.3334 4.66669H22.1667V5.83335H23.3334V4.66669Z" fill="black"/>
<path d="M22.1667 3.5H21V4.66667H22.1667V3.5Z" fill="black"/>
<path d="M23.3334 22.1667H22.1667V23.3334H23.3334V22.1667Z" fill="black"/>
</svg>
