<svg width="28" height="28" viewBox="0 0 28 28" fill="none" xmlns="http://www.w3.org/2000/svg">
<path d="M4.66667 21H3.5V22.1667H4.66667V21Z" fill="black"/>
<path d="M5.83342 22.1667H4.66675V23.3334H5.83342V22.1667Z" fill="black"/>
<path d="M6.99992 23.3333H5.83325V24.5H6.99992V23.3333Z" fill="black"/>
<path d="M5.83342 4.66669H4.66675V5.83335H5.83342V4.66669Z" fill="black"/>
<path d="M3.49992 18.6667H2.33325V21H3.49992V18.6667Z" fill="black"/>
<path d="M4.66667 5.83331H3.5V6.99998H4.66667V5.83331Z" fill="black"/>
<path d="M9.33333 24.5H7V25.6667H9.33333V24.5Z" fill="black"/>
<path d="M2.33341 9.33331H1.16675V18.6666H2.33341V9.33331Z" fill="black"/>
<path d="M18.6666 1.16669H9.33325V2.33335H18.6666V1.16669Z" fill="black"/>
<path d="M3.49992 7H2.33325V9.33333H3.49992V7Z" fill="black"/>
<path d="M18.6666 25.6667H9.33325V26.8334H18.6666V25.6667Z" fill="black"/>
<path d="M21.0001 24.5H18.6667V25.6667H21.0001V24.5Z" fill="black"/>
<path d="M21.0001 2.33331H18.6667V3.49998H21.0001V2.33331Z" fill="black"/>
<path d="M6.99992 3.5H5.83325V4.66667H6.99992V3.5Z" fill="black"/>
<path d="M9.33333 2.33331H7V3.49998H9.33333V2.33331Z" fill="black"/>
<path d="M22.1667 3.5H21V4.66667H22.1667V3.5Z" fill="black"/>
<path d="M22.1667 23.3333H21V24.5H22.1667V23.3333Z" fill="black"/>
<path d="M23.3334 4.66669H22.1667V5.83335H23.3334V4.66669Z" fill="black"/>
<path d="M23.3334 22.1667H22.1667V23.3334H23.3334V22.1667Z" fill="black"/>
<path d="M25.6667 18.6667H24.5V21H25.6667V18.6667Z" fill="black"/>
<path d="M24.4999 5.83331H23.3333V6.99998H24.4999V5.83331Z" fill="black"/>
<path d="M25.6667 7H24.5V9.33333H25.6667V7Z" fill="black"/>
<path d="M24.4999 21H23.3333V22.1667H24.4999V21Z" fill="black"/>
<path d="M26.8334 9.33331H25.6667V18.6666H26.8334V9.33331Z" fill="black"/>
<path d="M17.5 22.1667H10.5V23.3334H17.5V22.1667Z" fill="black"/>
<path d="M25.6667 9.33333V18.6667H24.5V21H23.3333V22.1667H22.1667V23.3333H21V24.5H18.6667V25.6667H9.33333V24.5H7V23.3333H9.33333V22.1667H10.5V23.3333H17.5V22.1667H19.8333V21H21V19.8333H22.1667V17.5H23.3333V10.5H22.1667V9.33333H23.3333V7H24.5V9.33333H25.6667Z" fill="#CBA600"/>
<path d="M23.3334 10.5H22.1667V17.5H23.3334V10.5Z" fill="black"/>
<path d="M23.3333 5.83331V9.33331H22.1666V8.16665H20.9999V6.99998H19.8333V5.83331H17.4999V4.66665H10.4999V5.83331H8.16658V6.99998H6.99992V8.16665H5.83325V10.5H4.66659V17.5H5.83325V19.8333H6.99992V21H8.16658V22.1666H9.33325V23.3333H5.83325V22.1666H4.66659V21H3.49992V18.6666H2.33325V9.33331H3.49992V6.99998H4.66659V5.83331H5.83325V4.66665H6.99992V3.49998H9.33325V2.33331H18.6666V3.49998H20.9999V4.66665H22.1666V5.83331H23.3333Z" fill="#FFD100"/>
<path d="M22.1667 17.5H21V19.8333H22.1667V17.5Z" fill="black"/>
<path d="M22.1667 8.16669H21V10.5H22.1667V8.16669Z" fill="black"/>
<path d="M20.9999 19.8333H19.8333V21H20.9999V19.8333Z" fill="black"/>
<path d="M20.9999 7H19.8333V8.16667H20.9999V7Z" fill="black"/>
<path d="M19.8333 5.83331H17.5V6.99998H19.8333V5.83331Z" fill="black"/>
<path d="M19.8333 21H17.5V22.1667H19.8333V21Z" fill="black"/>
<path d="M17.5 4.66669H10.5V5.83335H17.5V4.66669Z" fill="black"/>
<path d="M16.3333 14V16.3333H14V15.1667H15.1667V14H16.3333Z" fill="#CB7419"/>
<path d="M16.3334 11.6667H15.1667V12.8334H16.3334V11.6667Z" fill="#CB7419"/>
<path d="M15.1667 11.6667H11.6667V12.8334H15.1667V11.6667Z" fill="#FFA33E"/>
<path d="M22.1667 10.5V17.5H21.0001V19.8333H19.8334V21H17.5001V22.1667H10.5001V21H8.16675V19.8333H10.5001V18.6667H12.8334V17.5H14.0001V18.6667H15.1667V17.5H16.3334V16.3333H17.5001V14H16.3334V12.8333H17.5001V11.6667H16.3334V10.5H17.5001V8.16667H18.6667V7H19.8334V8.16667H21.0001V10.5H22.1667Z" fill="#CB7419"/>
<path d="M15.1667 14V15.1667H14.0001V16.3333H11.6667V14H15.1667Z" fill="#FFA33E"/>
<path d="M10.5001 5.83331H8.16675V6.99998H10.5001V5.83331Z" fill="black"/>
<path d="M10.5001 21H8.16675V22.1667H10.5001V21Z" fill="black"/>
<path d="M8.16667 19.8333H7V21H8.16667V19.8333Z" fill="black"/>
<path d="M8.16667 7H7V8.16667H8.16667V7Z" fill="black"/>
<path d="M6.99992 17.5H5.83325V19.8333H6.99992V17.5Z" fill="black"/>
<path d="M18.6666 6.99998V8.16665H17.4999V10.5H16.4999V11.5H17.9999V13H16.4999V14H17.9999V16.5H16.4999V17.5L15.7045 17.5V18.6666H13.9999V17.5L12.9999 17.5V18.6666H10.4999V19.8333H6.99992V17.5H5.83325V10.5H6.99992V8.16665H8.16658V6.99998H10.4999V5.83331H17.4999V6.99998H18.6666Z" fill="#FFAA4D"/>
<path d="M6.99992 8.16669H5.83325V10.5H6.99992V8.16669Z" fill="black"/>
<path d="M5.83342 10.5H4.66675V17.5H5.83342V10.5Z" fill="black"/>
</svg>
