<svg width="20" height="20" viewBox="0 0 20 20" fill="none" xmlns="http://www.w3.org/2000/svg">
<path fill-rule="evenodd" clip-rule="evenodd" d="M4 3.00012V4.00012H3V7.00012H4V8.00012H7V7.00012H8V4.00012H7V3.00012H4ZM4 4.00012H6V6.00012H4V4.00012Z" fill="white"/>
<path d="M9 14.0001H10V15.0001H11V17.0001H8V15.0001H9V14.0001Z" fill="white"/>
<path d="M15 3.00012V4.00012H13V6.00012H15V4.00012H16V7.00012H15V8.00012H12V7.00012H11V4.00012H12V3.00012H15Z" fill="white"/>
<path fill-rule="evenodd" clip-rule="evenodd" d="M11 5H8V7H7V8H3V9H2V11H3V12H6V13H5V14H4V16H3V15H2V17H5V16H6V17H7V16H8V15H9V14H10V15H11V16H12V17H13V16H14V17H17V15H16V16H15V14H14V13H13V12H16V11H17V9H16V8H12V7H11V5Z" fill="#C084FC"/>
<path d="M2.00049 16.9999H5.00049V17.9999H2.00049V16.9999Z" fill="black"/>
<path d="M8.00049 16.9999H11.0005V17.9999H8.00049V16.9999Z" fill="black"/>
<path d="M14.0005 16.9999H17.0005V17.9999H14.0005V16.9999Z" fill="black"/>
<path d="M12.0005 16.9999H13.0005V17.9999H12.0005V16.9999Z" fill="black"/>
<path d="M6.00049 16.9999H7.00049V17.9999H6.00049V16.9999Z" fill="black"/>
<path d="M5.00049 15.9999H6.00049V16.9999H5.00049V15.9999Z" fill="black"/>
<path d="M2.00049 13.9999H3.00049V14.9999H2.00049V13.9999Z" fill="black"/>
<path d="M4.00049 12.9999H5.00049V13.9999H4.00049V12.9999Z" fill="black"/>
<path d="M2.00049 10.9999H3.00049V11.9999H2.00049V10.9999Z" fill="black"/>
<path d="M2.00049 7.99988H3.00049V8.99988H2.00049V7.99988Z" fill="black"/>
<path d="M7.00049 2.99988H8.00049V3.99988H7.00049V2.99988Z" fill="black"/>
<path d="M11.0005 2.99988H12.0005V3.99988H11.0005V2.99988Z" fill="black"/>
<path d="M15.0005 2.99988H16.0005V3.99988H15.0005V2.99988Z" fill="black"/>
<path d="M15.0005 6.99988H16.0005V7.99988H15.0005V6.99988Z" fill="black"/>
<path d="M16.0005 7.99988H17.0005V8.99988H16.0005V7.99988Z" fill="black"/>
<path d="M16.0005 10.9999H17.0005V11.9999H16.0005V10.9999Z" fill="black"/>
<path d="M14.0005 12.9999H15.0005V13.9999H14.0005V12.9999Z" fill="black"/>
<path d="M13.0005 11.9999H16.0005V12.9999H13.0005V11.9999Z" fill="black"/>
<path d="M17.0005 8.99988H18.0005V10.9999H17.0005V8.99988Z" fill="black"/>
<path d="M16.0005 3.99988H17.0005V6.99988H16.0005V3.99988Z" fill="black"/>
<path d="M8.00049 3.99988H11.0005V4.99988H8.00049V3.99988Z" fill="black"/>
<path d="M12.0005 1.99988H15.0005V2.99988H12.0005V1.99988Z" fill="black"/>
<path d="M3.00049 2.99988H4.00049V3.99988H3.00049V2.99988Z" fill="black"/>
<path d="M4.00049 1.99988H7.00049V2.99988H4.00049V1.99988Z" fill="black"/>
<path d="M2.00049 3.99988H3.00049V6.99988H2.00049V3.99988Z" fill="black"/>
<path d="M1.00049 8.99988H2.00049V10.9999H1.00049V8.99988Z" fill="black"/>
<path d="M3.00049 11.9999H6.00049V12.9999H3.00049V11.9999Z" fill="black"/>
<path d="M1.00049 14.9999H2.00049V16.9999H1.00049V14.9999Z" fill="black"/>
<path d="M3.00049 13.9999H4.00049V15.9999H3.00049V13.9999Z" fill="black"/>
<path d="M7.00049 15.9999H8.00049V16.9999H7.00049V15.9999Z" fill="black"/>
<path d="M11.0005 15.9999H12.0005V16.9999H11.0005V15.9999Z" fill="black"/>
<path d="M13.0005 15.9999H14.0005V16.9999H13.0005V15.9999Z" fill="black"/>
<path d="M15.0005 14.9999H16.0005V15.9999H15.0005V14.9999Z" fill="black"/>
<path d="M15.0005 13.9999H17.0005V14.9999H15.0005V13.9999Z" fill="black"/>
<path d="M17.0005 14.9999H18.0005V16.9999H17.0005V14.9999Z" fill="black"/>
<path d="M3.00049 6.99988H4.00049V7.99988H3.00049V6.99988Z" fill="black"/>
<path d="M5.00049 8.99988H6.00049V9.99988H5.00049V8.99988Z" fill="black"/>
<path d="M13.0005 8.99988H14.0005V9.99988H13.0005V8.99988Z" fill="black"/>
<path d="M6.00049 9.99988H13.0005V10.9999H6.00049V9.99988Z" fill="black"/>
<path d="M4.00049 3.99988H6.00049V5.99988H4.00049V3.99988Z" fill="black"/>
<path d="M13.0005 3.99988H15.0005V5.99988H13.0005V3.99988Z" fill="black"/>
<path d="M2.85742 6.19047V4.7619H9.0479V6.66666H8.57171V7.14285H8.09552V7.61904H7.61933V8.09524H7.14314H4.28599H3.8098V7.61904V7.14285H3.33361V6.66666V6.19047H2.85742Z" fill="#2C3232"/>
<rect x="2.38086" y="4.7619" width="0.476191" height="1.90476" fill="#222625"/>
<rect x="1.90479" y="4.7619" width="0.476191" height="0.476191" fill="#222625"/>
<rect x="2.85742" y="6.19043" width="0.476191" height="0.952381" fill="#222625"/>
<rect x="2.85742" y="6.66663" width="0.476191" height="0.952381" fill="#222625"/>
<rect x="3.3335" y="7.14282" width="0.476191" height="0.952381" fill="#222625"/>
<rect x="3.80957" y="8.09521" width="0.476191" height="0.476191" fill="#222625"/>
<rect width="2.85714" height="0.476191" transform="matrix(1 0 0 -1 4.28564 8.57141)" fill="#222625"/>
<rect x="5.23828" y="7.14282" width="0.476191" height="0.476191" fill="white"/>
<rect x="6.66699" y="7.14282" width="0.476191" height="0.476191" fill="white"/>
<rect x="5.71436" y="6.66663" width="0.476191" height="0.476191" fill="white"/>
<rect x="7.14307" y="6.66663" width="0.476191" height="0.476191" fill="white"/>
<rect x="6.19043" y="6.19043" width="0.476191" height="0.476191" fill="white"/>
<rect x="7.61914" y="6.19043" width="0.476191" height="0.476191" fill="white"/>
<rect x="6.66699" y="5.71429" width="0.476191" height="0.476191" fill="white"/>
<rect x="8.09521" y="5.71429" width="0.476191" height="0.476191" fill="white"/>
<rect x="1.42871" y="3.80951" width="0.952381" height="0.952381" fill="#222625"/>
<path d="M10.9526 6.19047V4.7619H17.1431V6.66666H16.6669V7.14285H16.1907V7.61904H15.7145V8.09524H15.2384H12.3812H11.905V7.61904V7.14285H11.4288V6.66666V6.19047H10.9526Z" fill="#2C3232"/>
<rect x="10.4766" y="4.7619" width="0.476191" height="1.90476" fill="#222625"/>
<rect x="10" y="4.7619" width="0.476191" height="0.476191" fill="#222625"/>
<rect x="10.9526" y="6.19043" width="0.476191" height="0.952381" fill="#222625"/>
<rect x="10.9526" y="6.66669" width="0.476191" height="0.952381" fill="#222625"/>
<rect x="11.4287" y="7.14282" width="0.476191" height="0.952381" fill="#222625"/>
<rect x="11.9048" y="8.09521" width="0.476191" height="0.476191" fill="#222625"/>
<rect width="2.85714" height="0.476191" transform="matrix(1 0 0 -1 12.3809 8.57141)" fill="#222625"/>
<rect x="13.3335" y="7.14282" width="0.476191" height="0.476191" fill="white"/>
<rect x="14.7622" y="7.14282" width="0.476191" height="0.476191" fill="white"/>
<rect x="13.8096" y="6.66669" width="0.476191" height="0.476191" fill="white"/>
<rect x="15.2383" y="6.66669" width="0.476191" height="0.476191" fill="white"/>
<rect x="14.2856" y="6.19043" width="0.476191" height="0.476191" fill="white"/>
<rect x="15.7144" y="6.19043" width="0.476191" height="0.476191" fill="white"/>
<rect x="14.7622" y="5.71429" width="0.476191" height="0.476191" fill="white"/>
<rect x="16.1904" y="5.71429" width="0.476191" height="0.476191" fill="white"/>
<rect x="9.52393" y="3.80951" width="0.952381" height="0.952381" fill="#222625"/>
<rect x="2.38086" y="3.80951" width="15.7143" height="0.952381" fill="#222625"/>
</svg>
