<svg width="20" height="20" viewBox="0 0 20 20" fill="none" xmlns="http://www.w3.org/2000/svg">
<path fill-rule="evenodd" clip-rule="evenodd" d="M12 4H8V5H7V6H6V7H2V8H3V9H2V11H3V12H5V13H4V14H3V15H1V17H5V16H6V17H7V15H8.66667V14H10.6667V15H12V17H13V16H14V17H18.3333V15H17.3333V16H16.3333V13H15.3333V12H17V11H18V9H17V8H18V7H14V6H13V5H12V4Z" fill="#C084FC"/>
<path fill-rule="evenodd" clip-rule="evenodd" d="M18 3H16V4H15V7H19V4H18V3ZM16 6H18V5H16V6Z" fill="white"/>
<path d="M8.66667 14H10.6667V15H12V17H7V15H8.66667V14Z" fill="white"/>
<path fill-rule="evenodd" clip-rule="evenodd" d="M1 7V4H2V3H4V4H5V7H1ZM2 6H4V5H2V6Z" fill="white"/>
<path d="M6 6V7H5V4H6V5H7V6H6Z" fill="black"/>
<path d="M8 4H7V5H8V4Z" fill="black"/>
<path d="M12 4V3H8V4H12Z" fill="black"/>
<path d="M13 5V4H12V5H13Z" fill="black"/>
<path d="M15 4H14V5H13V6H14V7H15V4Z" fill="black"/>
<path d="M16 3H15V4H16V3Z" fill="black"/>
<path d="M18 3V2H16V3H18Z" fill="black"/>
<path d="M19 4V3H18V4H19Z" fill="black"/>
<path d="M19 7H20V4H19V7Z" fill="black"/>
<path d="M18 8H19V7H18V8Z" fill="black"/>
<path d="M18 9V8H17V9H18Z" fill="black"/>
<path d="M18 11H19V9H18V11Z" fill="black"/>
<path d="M18.3333 15V14H17.3333V13H18V11H17V12H15.3333V13H16.3333V16H17.3333V15H18.3333Z" fill="black"/>
<path d="M18.3333 17H19.3333V15H18.3333V17Z" fill="black"/>
<path d="M14 17V18H18.3333V17H14Z" fill="black"/>
<path d="M13 17H14V16H13V17Z" fill="black"/>
<path d="M12 17V18H13V17H12Z" fill="black"/>
<path d="M11 17H12V16H11V17Z" fill="black"/>
<path d="M8 17V18H11V17H8Z" fill="black"/>
<path d="M7 17H8V16H7V17Z" fill="black"/>
<path d="M6 17V18H7V17H6Z" fill="black"/>
<path d="M5 17H6V16H5V17Z" fill="black"/>
<path d="M1 17V18H5V17H1Z" fill="black"/>
<path d="M1 15H0V17H1V15Z" fill="black"/>
<path d="M3 14H1V15H2V16H3V14Z" fill="black"/>
<path d="M2 11V13H3V14H4V13H5V12H3V11H2Z" fill="black"/>
<path d="M2 9H1V11H2V9Z" fill="black"/>
<path d="M2 8V9H3V8H2Z" fill="black"/>
<path d="M1 7V8H2V7H1Z" fill="black"/>
<path d="M1 7V4H2V3H4V4H5V3H4V2H2V3H1V4H0V7H1Z" fill="black"/>
<path d="M4 5H2V6H4V5Z" fill="black"/>
<path d="M16 5H18V6H16V5Z" fill="black"/>
<path fill-rule="evenodd" clip-rule="evenodd" d="M7 10.6667H13V9.66667H14V8.66667H13V7.66667H7V8.66667H6V9.66667H7V10.6667ZM7 9.66667V8.66667H13V9.66667H7Z" fill="black"/>
<path d="M13 8.66669H7V9.66669H8H12H13V8.66669Z" fill="#A03A3A"/>
</svg>
