<svg width="28" height="28" viewBox="0 0 28 28" fill="none" xmlns="http://www.w3.org/2000/svg">
<g clip-path="url(#clip0_65_16530)">
<path d="M12.7271 20.3637L13.3635 21.0001L13.9998 20.3637L14.6362 21.0001L15.2726 20.3637L15.9089 21.0001L17.1817 19.7273L16.5453 19.091L17.1817 18.4546L16.5453 17.8182L17.1817 17.1819L16.5453 16.5455L17.1817 15.9091L16.5453 15.2728L17.1817 14.6364L16.5453 14L17.1817 13.3637L16.5453 12.7273L17.1817 12.0909L16.5453 11.4546L17.1817 10.8182L15.2726 8.90909L14.6362 9.54546L15.2726 10.1818L14.6362 10.8182L15.2726 11.4546L13.9998 12.7273L12.7271 11.4546L13.3635 10.8182L12.7271 10.1818L13.3635 9.54546L12.7271 8.90909L10.818 10.8182L11.4544 11.4546L10.818 12.0909L11.4544 12.7273L10.818 13.3637L11.4544 14L10.818 14.6364L11.4544 15.2728L10.818 15.9091L11.4544 16.5455L10.818 17.1819L11.4544 17.8182L10.818 18.4546L11.4544 19.091L10.818 19.7273L12.0907 21.0001L12.7271 20.3637ZM12.0907 18.4546L12.7271 17.8182L12.0907 17.1819L13.3635 15.9091L13.9998 16.5455L14.6362 15.9091L15.9089 17.1819L15.2726 17.8182L15.9089 18.4546L14.6362 19.7273L13.9998 19.091L13.3635 19.7273L12.0907 18.4546Z" fill="#D0EDF4"/>
<path d="M15.2728 8.90907L15.9092 8.27271L15.2728 7.63634L14.6364 8.27271L15.2728 8.90907Z" fill="#FFD100"/>
<path d="M12.7271 7.6364L11.4543 6.36366L12.7271 5.09093L12.0907 4.45456L13.9998 2.54546L15.9089 4.45456L15.2725 5.09093L16.5453 6.36366L15.2725 7.6364L14.6362 7.00003L15.2725 6.36366L13.9998 5.09093L12.7271 6.36366L13.3634 7.00003L12.7271 7.6364Z" fill="#FFD100"/>
<path d="M12.7274 8.90907L13.3638 8.27271L12.7274 7.63634L12.091 8.27271L12.7274 8.90907Z" fill="#FFD100"/>
<path d="M13.3636 19.7273L12.0908 18.4546L12.7272 17.8182L12.0908 17.1819L13.3636 15.9091L13.9999 16.5455L14.6363 15.9091L15.909 17.1819L15.2727 17.8182L15.909 18.4546L14.6363 19.7273L13.9999 19.091L13.3636 19.7273Z" fill="#1A6A8A"/>
<path d="M11.4543 10.1818L10.1815 8.9091L10.8179 8.27273L10.1815 7.63637L10.8179 7L10.1815 6.36363L11.4543 5.0909L10.8179 4.45453L13.9997 1.27269L17.1816 4.45453L16.5452 5.0909L17.8179 6.36363L17.1816 7L17.8179 7.63637L17.1816 8.27273L17.8179 8.9091L16.5452 10.1818L15.2725 8.9091L15.9088 8.27273L15.2725 7.63637L16.5452 6.36363L15.2725 5.0909L15.9088 4.45453L13.9997 2.54543L12.0906 4.45453L12.727 5.0909L11.4543 6.36363L12.727 7.63637L12.0906 8.27273L12.727 8.9091L11.4543 10.1818Z" fill="#EF9520"/>
<path d="M17.1817 13.3636L16.5453 12.7273L17.1817 12.0909L16.5453 11.4545L17.1817 10.8182L16.5453 10.1818L17.818 8.90906L17.1817 8.27269L19.0908 6.36359L20.3635 7.63632L19.7271 8.27269L20.3635 8.90906L19.7271 9.54543L20.3635 10.1818L17.1817 13.3636Z" fill="#BC131A"/>
<path d="M10.8183 13.3637L7.63646 10.1819L8.27283 9.5455L7.63646 8.90913L8.27283 8.27277L7.63646 7.6364L8.9092 6.36367L10.8183 8.27277L10.1819 8.90914L11.4547 10.1819L10.8183 10.8182L11.4547 11.4546L10.8183 12.091L11.4547 12.7273L10.8183 13.3637Z" fill="#BC131A"/>
<path d="M14.0002 12.7273L12.7274 11.4545L13.3638 10.8182L12.7274 10.1818L13.3638 9.54542L12.7274 8.90906L13.3638 8.27269L12.7274 7.63632L13.3638 6.99996L12.7274 6.36359L14.0002 5.09085L15.2729 6.36359L14.6365 6.99996L15.2729 7.63632L14.6365 8.27269L15.2729 8.90906L14.6365 9.54542L15.2729 10.1818L14.6365 10.8182L15.2729 11.4545L14.0002 12.7273Z" fill="#BC131A"/>
<path d="M14 26.7274L10.8182 23.5456L11.4545 22.9092L10.8182 22.2728L11.4545 21.6365L10.8182 21.0001L11.4545 20.3637L12.0909 21.0001L12.7273 20.3637L13.3637 21.0001L14 20.3637L14.6364 21.0001L15.2728 20.3637L15.9091 21.0001L16.5455 20.3637L17.1819 21.0001L16.5455 21.6365L17.1819 22.2728L16.5455 22.9092L17.1819 23.5456L14 26.7274Z" fill="#BC131A"/>
<path d="M17.182 17.1818L17.8184 16.5455L17.182 15.9091L16.5456 16.5455L17.182 17.1818Z" fill="black"/>
<path d="M17.1815 18.4546L17.8179 17.8182L17.1815 17.1819L16.5451 17.8182L17.1815 18.4546Z" fill="black"/>
<path d="M10.8182 23.5455L11.4546 22.9092L10.8182 22.2728L10.1819 22.9092L10.8182 23.5455Z" fill="black"/>
<path d="M10.8182 22.2728L11.4546 21.6364L10.8182 21L10.1819 21.6364L10.8182 22.2728Z" fill="black"/>
<path d="M10.8182 21.0001L11.4546 20.3637L10.8182 19.7273L10.1819 20.3637L10.8182 21.0001Z" fill="black"/>
<path d="M10.8182 19.7273L11.4546 19.0909L10.8182 18.4546L10.1819 19.0909L10.8182 19.7273Z" fill="black"/>
<path d="M10.8182 18.4546L11.4546 17.8182L10.8182 17.1819L10.1819 17.8182L10.8182 18.4546Z" fill="black"/>
<path d="M10.8182 17.1819L11.4546 16.5455L10.8182 15.9092L10.1819 16.5455L10.8182 17.1819Z" fill="black"/>
<path d="M10.8182 15.9091L11.4546 15.2728L10.8182 14.6364L10.1819 15.2728L10.8182 15.9091Z" fill="black"/>
<path d="M20.3636 8.90907L21 8.27271L20.3636 7.63634L19.7273 8.27271L20.3636 8.90907Z" fill="black"/>
<path d="M20.3636 10.1818L21 9.54547L20.3636 8.9091L19.7273 9.54547L20.3636 10.1818Z" fill="black"/>
<path d="M20.3636 7.63637L21 7L19.7273 5.72727L19.0909 6.36363L20.3636 7.63637Z" fill="black"/>
<path d="M17.8181 7.63632L17.1817 6.99995L17.8181 6.36359L16.5454 5.09085L17.1817 4.45448L19.0908 6.36359L17.8181 7.63632Z" fill="black"/>
<path d="M10.8178 4.45454L10.1815 3.81818L13.9997 -2.73803e-05L17.8179 3.81818L17.1815 4.45454L13.9997 1.27271L10.8178 4.45454Z" fill="black"/>
<path d="M17.1818 14.6364L21 10.8182L20.3636 10.1819L16.5454 14.0001L17.1818 14.6364Z" fill="black"/>
<path d="M7.63645 7.63638L8.90918 6.36365L8.27281 5.72728L7.00008 7.00001L7.63645 7.63638Z" fill="black"/>
<path d="M10.1817 7.6364L8.90898 6.36366L10.8181 4.45456L11.4545 5.09093L10.1817 6.36366L10.8181 7.00003L10.1817 7.6364Z" fill="black"/>
<path d="M17.1815 15.9091L17.8179 15.2728L17.1815 14.6364L16.5451 15.2728L17.1815 15.9091Z" fill="black"/>
<path d="M7.63609 8.90907L8.27246 8.27271L7.63609 7.63634L6.99973 8.27271L7.63609 8.90907Z" fill="black"/>
<path d="M17.1815 19.7273L17.8179 19.0909L17.1815 18.4546L16.5451 19.0909L17.1815 19.7273Z" fill="black"/>
<path d="M7.63609 10.1818L8.27246 9.54547L7.63609 8.9091L6.99973 9.54547L7.63609 10.1818Z" fill="black"/>
<path d="M17.1815 22.2728L17.8179 21.6365L17.1815 21.0001L16.5451 21.6365L17.1815 22.2728Z" fill="black"/>
<path d="M17.182 21.0001L17.8184 20.3637L17.182 19.7273L16.5456 20.3637L17.182 21.0001Z" fill="black"/>
<path d="M10.8182 14.6364L11.4546 14L7.63639 10.1818L7.00002 10.8182L10.8182 14.6364Z" fill="black"/>
<path d="M17.1815 23.5455L17.8179 22.9092L17.1815 22.2728L16.5451 22.9092L17.1815 23.5455Z" fill="black"/>
<path d="M14.0002 28.0001L10.182 24.1819L10.8183 23.5456L14.0002 26.7274L17.182 23.5456L17.8184 24.1819L14.0002 28.0001Z" fill="black"/>
</g>
<defs>
<clipPath id="clip0_65_16530">
<rect width="28" height="28" fill="white"/>
</clipPath>
</defs>
</svg>
