<svg width="60" height="40" viewBox="0 0 60 40" fill="none" xmlns="http://www.w3.org/2000/svg">
<rect x="0.5" y="0.5" width="59" height="39" rx="11.5" fill="#1A1C23"/>
<rect x="0.5" y="0.5" width="59" height="39" rx="11.5" stroke="#29313D"/>
<path d="M39 18.5C38.1716 18.5 37.5 17.8284 37.5 17C37.5 16.1716 38.1716 15.5 39 15.5C39.8284 15.5 40.5 16.1716 40.5 17C40.5 17.8284 39.8284 18.5 39 18.5Z" fill="#A4A9AD"/>
<path d="M33 18.5C32.1716 18.5 31.5 17.8284 31.5 17C31.5 16.1716 32.1716 15.5 33 15.5C33.8284 15.5 34.5 16.1716 34.5 17C34.5 17.8284 33.8284 18.5 33 18.5Z" fill="#A4A9AD"/>
<path d="M27 18.5C26.1716 18.5 25.5 17.8284 25.5 17C25.5 16.1716 26.1716 15.5 27 15.5C27.8284 15.5 28.5 16.1716 28.5 17C28.5 17.8284 27.8284 18.5 27 18.5Z" fill="#A4A9AD"/>
<path d="M21 18.5C20.1716 18.5 19.5 17.8284 19.5 17C19.5 16.1716 20.1716 15.5 21 15.5C21.8284 15.5 22.5 16.1716 22.5 17C22.5 17.8284 21.8284 18.5 21 18.5Z" fill="#A4A9AD"/>
<path d="M39 24.5C38.1716 24.5 37.5 23.8284 37.5 23C37.5 22.1716 38.1716 21.5 39 21.5C39.8284 21.5 40.5 22.1716 40.5 23C40.5 23.8284 39.8284 24.5 39 24.5Z" fill="#A4A9AD"/>
<path d="M33 24.5C32.1716 24.5 31.5 23.8284 31.5 23C31.5 22.1716 32.1716 21.5 33 21.5C33.8284 21.5 34.5 22.1716 34.5 23C34.5 23.8284 33.8284 24.5 33 24.5Z" fill="#A4A9AD"/>
<path d="M27 24.5C26.1716 24.5 25.5 23.8284 25.5 23C25.5 22.1716 26.1716 21.5 27 21.5C27.8284 21.5 28.5 22.1716 28.5 23C28.5 23.8284 27.8284 24.5 27 24.5Z" fill="#A4A9AD"/>
<path d="M21 24.5C20.1716 24.5 19.5 23.8284 19.5 23C19.5 22.1716 20.1716 21.5 21 21.5C21.8284 21.5 22.5 22.1716 22.5 23C22.5 23.8284 21.8284 24.5 21 24.5Z" fill="#A4A9AD"/>
<path d="M48.667 22.6667L51.3337 20L48.667 17.3334" stroke="#A4A9AD" stroke-linecap="round" stroke-linejoin="round"/>
<path d="M11.333 22.6667L8.66634 20L11.333 17.3334" stroke="#A4A9AD" stroke-linecap="round" stroke-linejoin="round"/>
</svg>
