<svg width="28" height="28" viewBox="0 0 28 28" fill="none" xmlns="http://www.w3.org/2000/svg">
<path d="M8.16667 12.8333H7V14H8.16667V12.8333Z" fill="#E1BF28"/>
<path d="M20.9999 12.8333H19.8333V14H20.9999V12.8333Z" fill="#E1BF28"/>
<path d="M23.3334 10.5H22.1667V11.6667H23.3334V10.5Z" fill="#FFFC00"/>
<path d="M20.9999 11.6667H19.8333V12.8334H20.9999V11.6667Z" fill="#FFFC00"/>
<path d="M19.8334 12.8333H18.6667V14H19.8334V12.8333Z" fill="#FFFC00"/>
<path d="M5.83341 10.5H4.66675V11.6667H5.83341V10.5Z" fill="#FFFC00"/>
<path d="M8.16667 11.6667H7V12.8334H8.16667V11.6667Z" fill="#FFFC00"/>
<path d="M9.33341 12.8333H8.16675V14H9.33341V12.8333Z" fill="#FFFC00"/>
<path d="M6.99992 11.6667H5.83325V14H6.99992V11.6667Z" fill="#A6A6A6"/>
<path d="M15.1666 14H12.8333V15.1667H15.1666V14Z" fill="#E1BF28"/>
<path d="M22.1667 11.6667H21V14H22.1667V11.6667Z" fill="#A6A6A6"/>
<path d="M19.8334 14V15.1666H17.5001V16.3333H10.5001V15.1666H8.16675V14H9.33341V12.8333H12.8334V15.1666H15.1667V12.8333H18.6667V14H19.8334Z" fill="#A6A6A6"/>
<path d="M15.1666 12.8333H12.8333V14H15.1666V12.8333Z" fill="#FFFC00"/>
<path d="M19.8334 24.5V25.6667H8.16675V24.5H9.33341V23.3334H10.5001V21H11.6667V19.8334H12.8334V18.6667H15.1667V19.8334H16.3334V21H17.5001V23.3334H18.6667V24.5H19.8334Z" fill="#FFFC00"/>
<path d="M22.1666 23.3333V25.6667H19.8333V24.5H18.6666V23.3333H17.4999V21H16.3333V19.8333H15.1666V18.6667H12.8333V19.8333H11.6666V21H10.4999V23.3333H9.33325V24.5H8.16659V25.6667H5.83325V23.3333H6.99992V21H8.16659V18.6667H9.33325V17.5H18.6666V18.6667H19.8333V21H20.9999V23.3333H22.1666Z" fill="#E1BF28"/>
<path d="M19.8334 11.6667H8.16675V12.8334H19.8334V11.6667Z" fill="#6D6D6D"/>
<path d="M22.1666 9.33331H19.8333V11.6666H22.1666V9.33331Z" fill="#6D6D6D"/>
<path d="M25.6666 11.6667V12.8333H24.4999V14H23.3333V15.1667H20.9999V16.3333H18.6666V17.5H9.33325V16.3333H6.99992V15.1667H4.66659V14H3.49992V12.8333H2.33325V11.6667H3.49992V10.5H4.66659V11.6667H5.83325V14H8.16659V15.1667H10.4999V16.3333H17.4999V15.1667H19.8333V14H22.1666V11.6667H23.3333V10.5H24.4999V11.6667H25.6666Z" fill="#6D6D6D"/>
<path d="M8.16659 9.33331H5.83325V11.6666H8.16659V9.33331Z" fill="#6D6D6D"/>
<path d="M14.0001 8.16665V10.5H12.8334V11.6666H8.16675V8.16665H9.33341V6.99998H10.5001V5.83331H11.6667V6.99998H12.8334V8.16665H14.0001Z" fill="#7DC2F9"/>
<path d="M17.5001 9.33331V10.5H15.1667V11.6666H12.8334V10.5H14.0001V8.16665H12.8334V6.99998H11.6667V5.83331H15.1667V6.99998H16.3334V9.33331H17.5001Z" fill="#3F9EEC"/>
<path d="M19.8334 8.16665V11.6666H15.1667V10.5H17.5001V9.33331H16.3334V6.99998H15.1667V5.83331H17.5001V6.99998H18.6667V8.16665H19.8334Z" fill="#2B6DA3"/>
</svg>
