<svg width="512" height="512" viewBox="0 0 512 512" fill="none" xmlns="http://www.w3.org/2000/svg">
<g clip-path="url(#clip0_1936_131081)">
<mask id="mask0_1936_131081" style="mask-type:luminance" maskUnits="userSpaceOnUse" x="0" y="0" width="512" height="512">
<path d="M512 0H0V512H512V0Z" fill="white"/>
</mask>
<g mask="url(#mask0_1936_131081)">
<path d="M246.358 103.356C246.358 103.356 239.423 88.5628 223.289 72.832C223.289 72.832 220.598 76.4256 215.011 82.6852C209.424 88.9448 203.885 90.7787 203.885 90.7787C203.885 90.7787 212.077 103.503 223.094 113.175C223.094 113.175 227.532 109.004 233.628 106.887C242.277 103.884 246.358 103.356 246.358 103.356Z" fill="url(#paint0_linear_1936_131081)"/>
<path d="M246.358 103.356C246.358 103.356 239.423 88.5628 223.289 72.832C223.289 72.832 220.598 76.4256 215.011 82.6852C209.424 88.9448 203.885 90.7787 203.885 90.7787C203.885 90.7787 212.077 103.503 223.094 113.175C223.094 113.175 227.532 109.004 233.628 106.887C242.277 103.884 246.358 103.356 246.358 103.356Z" stroke="#2D2D2D" stroke-width="8.128" stroke-linecap="round" stroke-linejoin="round"/>
<g opacity="0.4">
<path d="M246.358 103.356C246.358 103.356 239.423 88.5628 223.289 72.832C223.289 72.832 220.598 76.4256 215.011 82.6852C209.424 88.9448 203.885 90.7787 203.885 90.7787C203.885 90.7787 212.077 103.503 223.094 113.175C223.094 113.175 227.532 109.004 233.628 106.887C242.277 103.884 246.358 103.356 246.358 103.356Z" fill="#2D2D2D"/>
</g>
<path d="M248.483 114.702C248.483 114.702 247.139 102.683 237.92 101.265C227.704 99.692 223.043 110.884 223.043 110.884C221.239 117.08 221.951 127.106 222.955 130.974C225.351 140.202 237.781 142.957 244.332 134.886C247.814 130.597 248.483 114.702 248.483 114.702Z" fill="url(#paint1_linear_1936_131081)"/>
<path d="M248.483 114.702C248.483 114.702 247.139 102.683 237.92 101.265C227.704 99.692 223.043 110.884 223.043 110.884C221.239 117.08 221.951 127.106 222.955 130.974C225.351 140.202 237.781 142.957 244.332 134.886C247.814 130.597 248.483 114.702 248.483 114.702Z" stroke="#2D2D2D" stroke-width="8.128" stroke-linecap="round" stroke-linejoin="round"/>
<path d="M239.728 118.501C236.962 120.675 232.957 120.196 230.782 117.429C228.608 114.663 229.088 110.658 231.854 108.483C234.621 106.309 238.626 106.789 240.8 109.555C242.974 112.322 242.495 116.327 239.728 118.501Z" fill="#9B9B9B"/>
<path d="M237.437 115.585C236.282 116.493 234.608 116.293 233.7 115.138C232.792 113.983 232.992 112.31 234.147 111.401C235.302 110.493 236.976 110.693 237.884 111.848C238.792 113.004 238.592 114.677 237.437 115.585Z" fill="#4E4E4E"/>
<g opacity="0.4">
<path d="M248.483 114.702C248.483 114.702 247.139 102.683 237.92 101.265C227.704 99.692 223.043 110.884 223.043 110.884C221.239 117.08 221.951 127.106 222.955 130.974C225.351 140.202 237.781 142.957 244.332 134.886C247.814 130.597 248.483 114.702 248.483 114.702Z" fill="#2D2D2D"/>
</g>
<path d="M181.789 51.668C181.789 51.668 198.868 55.3154 218.352 68.7469C218.352 68.7469 226.709 75.9453 221.004 85.8157C215.476 95.3804 204.05 92.6351 204.05 92.6351C204.05 92.6351 191.053 87.7583 177.652 79.5277C177.652 79.5277 184.015 73.9549 184.788 65.8239C185.457 58.78 181.789 51.668 181.789 51.668Z" fill="url(#paint2_linear_1936_131081)"/>
<path d="M181.789 51.668C181.789 51.668 198.868 55.3154 218.352 68.7469C218.352 68.7469 226.709 75.9453 221.004 85.8157C215.476 95.3804 204.05 92.6351 204.05 92.6351C204.05 92.6351 191.053 87.7583 177.652 79.5277C177.652 79.5277 184.015 73.9549 184.788 65.8239C185.457 58.78 181.789 51.668 181.789 51.668Z" stroke="#2D2D2D" stroke-width="8.128" stroke-linecap="round" stroke-linejoin="round"/>
<path d="M214.957 82.8321C213.05 85.7896 209.108 86.641 206.15 84.734C203.192 82.827 202.341 78.8849 204.248 75.9273C206.155 72.9697 210.097 72.1183 213.055 74.0254C216.012 75.9324 216.864 79.8745 214.957 82.8321Z" fill="#9B9B9B"/>
<path d="M211.839 80.8237C211.042 82.0592 209.394 82.4148 208.159 81.6182C206.924 80.8217 206.568 79.1737 207.364 77.9383C208.161 76.7028 209.809 76.3472 211.044 77.1438C212.28 77.9403 212.635 79.5883 211.839 80.8237Z" fill="#4E4E4E"/>
<g opacity="0.4">
<path d="M181.789 51.668C181.789 51.668 198.868 55.3154 218.352 68.7469C218.352 68.7469 226.709 75.9453 221.004 85.8157C215.476 95.3804 204.05 92.6351 204.05 92.6351C204.05 92.6351 191.053 87.7583 177.652 79.5277C177.652 79.5277 184.015 73.9549 184.788 65.8239C185.457 58.78 181.789 51.668 181.789 51.668Z" fill="#2D2D2D"/>
</g>
<path d="M270.065 92.432C270.065 92.432 258.042 77.6137 235.329 64.3203C235.329 64.3203 233.289 69.1514 228.716 77.8189C224.143 86.4864 218.381 90.1226 218.381 90.1226C218.381 90.1226 231.245 102.241 246.456 110.107C246.456 110.107 250.315 104.129 256.629 100.015C265.588 94.1785 270.065 92.432 270.065 92.432Z" fill="url(#paint3_linear_1936_131081)"/>
<path d="M270.065 92.432C270.065 92.432 258.042 77.6137 235.329 64.3203C235.329 64.3203 233.289 69.1514 228.716 77.8189C224.143 86.4864 218.381 90.1226 218.381 90.1226C218.381 90.1226 231.245 102.241 246.456 110.107C246.456 110.107 250.315 104.129 256.629 100.015C265.588 94.1785 270.065 92.432 270.065 92.432Z" stroke="#2D2D2D" stroke-width="8.128" stroke-linecap="round" stroke-linejoin="round"/>
<g opacity="0.4">
<path d="M270.065 92.432C270.065 92.432 258.042 77.6137 235.329 64.3203C235.329 64.3203 233.289 69.1514 228.716 77.8189C224.143 86.4864 218.381 90.1226 218.381 90.1226C218.381 90.1226 231.245 102.241 246.456 110.107C246.456 110.107 250.315 104.129 256.629 100.015C265.588 94.1785 270.065 92.432 270.065 92.432Z" fill="#2D2D2D"/>
</g>
<path d="M275.666 104.696C275.666 104.696 270.759 91.4506 259.91 92.4351C247.887 93.5263 245.752 107.525 245.752 107.525C245.45 115.055 249.078 126.22 251.305 130.322C256.617 140.109 271.482 139.737 276.637 128.744C279.378 122.902 275.666 104.696 275.666 104.696Z" fill="url(#paint4_linear_1936_131081)"/>
<path d="M275.666 104.696C275.666 104.696 270.759 91.4506 259.91 92.4351C247.887 93.5263 245.752 107.525 245.752 107.525C245.45 115.055 249.078 126.22 251.305 130.322C256.617 140.109 271.482 139.737 276.637 128.744C279.378 122.902 275.666 104.696 275.666 104.696Z" stroke="#2D2D2D" stroke-width="8.128" stroke-linecap="round" stroke-linejoin="round"/>
<path d="M266.812 111.464C264.288 114.708 259.612 115.291 256.369 112.767C253.126 110.243 252.543 105.568 255.067 102.325C257.591 99.0814 262.266 98.4982 265.509 101.022C268.752 103.546 269.336 108.221 266.812 111.464Z" fill="#9B9B9B"/>
<path d="M263.393 108.803C262.338 110.157 260.385 110.402 259.03 109.348C257.675 108.293 257.431 106.34 258.486 104.985C259.54 103.631 261.494 103.386 262.848 104.44C264.204 105.495 264.447 107.448 263.393 108.803Z" fill="#4E4E4E"/>
<g opacity="0.4">
<path d="M275.666 104.696C275.666 104.696 270.759 91.4506 259.91 92.4351C247.887 93.5263 245.752 107.525 245.752 107.525C245.45 115.055 249.078 126.22 251.305 130.322C256.617 140.109 271.482 139.737 276.637 128.744C279.378 122.902 275.666 104.696 275.666 104.696Z" fill="#2D2D2D"/>
</g>
<path d="M182.33 52.002C182.33 52.002 202.715 51.3314 228.58 61.0759C228.58 61.0759 240.079 66.8844 236.388 79.6789C232.813 92.0761 219.089 92.1787 219.089 92.1787C219.089 92.1787 202.983 90.3062 185.478 84.7457C185.478 84.7457 191.122 76.639 189.71 67.2044C188.488 59.0317 182.33 52.002 182.33 52.002Z" fill="url(#paint5_linear_1936_131081)"/>
<path d="M182.33 52.002C182.33 52.002 202.715 51.3314 228.58 61.0759C228.58 61.0759 240.079 66.8844 236.388 79.6789C232.813 92.0761 219.089 92.1787 219.089 92.1787C219.089 92.1787 202.983 90.3062 185.478 84.7457C185.478 84.7457 191.122 76.639 189.71 67.2044C188.488 59.0317 182.33 52.002 182.33 52.002Z" stroke="#2D2D2D" stroke-width="8.128" stroke-linecap="round" stroke-linejoin="round"/>
<path d="M228.695 77.9996C227.365 81.8879 223.135 83.9625 219.246 82.6326C215.358 81.3026 213.283 77.072 214.613 73.1838C215.943 69.2956 220.174 67.2209 224.062 68.5508C227.95 69.8808 230.025 74.1114 228.695 77.9996Z" fill="#9B9B9B"/>
<path d="M224.594 76.5997C224.038 78.2243 222.271 79.091 220.647 78.5352C219.022 77.9794 218.155 76.2126 218.711 74.588C219.267 72.9635 221.034 72.0968 222.658 72.6526C224.283 73.2083 225.15 74.9751 224.594 76.5997Z" fill="#4E4E4E"/>
<g opacity="0.4">
<path d="M182.33 52.002C182.33 52.002 202.715 51.3314 228.58 61.0759C228.58 61.0759 240.079 66.8844 236.388 79.6789C232.813 92.0761 219.089 92.1787 219.089 92.1787C219.089 92.1787 202.983 90.3062 185.478 84.7457C185.478 84.7457 191.122 76.639 189.71 67.2044C188.488 59.0317 182.33 52.002 182.33 52.002Z" fill="#2D2D2D"/>
</g>
<path d="M282.344 76.8841C282.344 76.8841 266.247 64.4422 239.426 56.1953C239.426 56.1953 238.49 61.7071 235.861 71.8204C233.233 81.9336 228.141 87.1152 228.141 87.1152C228.141 87.1152 244.454 96.5498 262.161 100.997C262.161 100.997 264.704 93.8503 270.253 88.0378C278.125 79.7909 282.344 76.8841 282.344 76.8841Z" fill="url(#paint6_linear_1936_131081)"/>
<path d="M282.344 76.8841C282.344 76.8841 266.247 64.4422 239.426 56.1953C239.426 56.1953 238.49 61.7071 235.861 71.8204C233.233 81.9336 228.141 87.1152 228.141 87.1152C228.141 87.1152 244.454 96.5498 262.161 100.997C262.161 100.997 264.704 93.8503 270.253 88.0378C278.125 79.7909 282.344 76.8841 282.344 76.8841Z" stroke="#2D2D2D" stroke-width="8.128" stroke-linecap="round" stroke-linejoin="round"/>
<g opacity="0.4">
<path d="M282.346 76.8841C282.346 76.8841 266.249 64.4422 239.428 56.1953C239.428 56.1953 238.492 61.7071 235.863 71.8204C233.235 81.9336 228.143 87.1152 228.143 87.1152C228.143 87.1152 244.455 96.5498 262.162 100.997C262.162 100.997 264.706 93.8503 270.255 88.0378C278.127 79.7909 282.346 76.8841 282.346 76.8841Z" fill="#2D2D2D"/>
</g>
<path d="M290.475 86.3534C290.475 86.3534 280.731 74.8685 270.22 79.8083C258.57 85.2825 261.532 100.088 261.532 100.088C263.973 107.743 271.676 117.609 275.401 120.908C284.29 128.778 299.05 122.989 300.21 110.096C300.827 103.244 290.475 86.3534 290.475 86.3534Z" fill="url(#paint7_linear_1936_131081)"/>
<path d="M290.475 86.3534C290.475 86.3534 280.731 74.8685 270.22 79.8083C258.57 85.2825 261.532 100.088 261.532 100.088C263.973 107.743 271.676 117.609 275.401 120.908C284.29 128.778 299.05 122.989 300.21 110.096C300.827 103.244 290.475 86.3534 290.475 86.3534Z" stroke="#2D2D2D" stroke-width="8.128" stroke-linecap="round" stroke-linejoin="round"/>
<g opacity="0.4">
<path d="M290.475 86.3534C290.475 86.3534 280.731 74.8685 270.22 79.8083C258.57 85.2825 261.532 100.088 261.532 100.088C263.973 107.743 271.676 117.609 275.401 120.908C284.29 128.778 299.05 122.989 300.21 110.096C300.827 103.244 290.475 86.3534 290.475 86.3534Z" fill="#2D2D2D"/>
</g>
<path d="M284.069 96.3601C282.722 100.53 278.25 102.818 274.08 101.471C269.91 100.123 267.623 95.651 268.971 91.4813C270.318 87.3116 274.789 85.0236 278.959 86.3708C283.128 87.718 285.417 92.1905 284.069 96.3601Z" fill="#9B9B9B"/>
<path d="M279.672 94.9396C279.109 96.6811 277.241 97.6371 275.499 97.0742C273.758 96.5114 272.802 94.643 273.365 92.9015C273.927 91.1601 275.796 90.2041 277.537 90.7669C279.279 91.3298 280.235 93.1982 279.672 94.9396Z" fill="#4E4E4E"/>
<path d="M180.135 51.5034C180.135 51.5034 201.571 47.8499 230.303 54.4051C230.303 54.4051 243.287 58.8796 241.239 72.9278C239.254 86.5412 224.772 88.6332 224.772 88.6332C224.772 88.6332 206.471 88.9827 187.175 85.639C187.175 85.639 191.367 76.4147 189.112 66.4965C187.149 57.8626 180.135 51.5034 180.135 51.5034Z" fill="url(#paint8_linear_1936_131081)"/>
<path d="M180.135 51.5034C180.135 51.5034 201.571 47.8499 230.303 54.4051C230.303 54.4051 243.287 58.8796 241.239 72.9278C239.254 86.5412 224.772 88.6332 224.772 88.6332C224.772 88.6332 206.471 88.9827 187.175 85.639C187.175 85.639 191.367 76.4147 189.112 66.4965C187.149 57.8626 180.135 51.5034 180.135 51.5034Z" stroke="#2D2D2D" stroke-width="8.128" stroke-linecap="round" stroke-linejoin="round"/>
<path d="M232.869 72.2658C232.027 76.5655 227.857 79.3677 223.558 78.5254C219.258 77.6831 216.456 73.5135 217.298 69.2138C218.14 64.914 222.31 62.1119 226.61 62.9542C230.909 63.7964 233.711 67.9661 232.869 72.2658Z" fill="#9B9B9B"/>
<g opacity="0.4">
<path d="M180.135 51.5034C180.135 51.5034 201.571 47.8499 230.303 54.4051C230.303 54.4051 243.287 58.8796 241.239 72.9278C239.254 86.5412 224.772 88.6332 224.772 88.6332C224.772 88.6332 206.471 88.9827 187.175 85.639C187.175 85.639 191.367 76.4147 189.112 66.4965C187.149 57.8626 180.135 51.5034 180.135 51.5034Z" fill="#2D2D2D"/>
</g>
<path d="M228.336 71.3774C227.985 73.1737 226.243 74.3451 224.447 73.9926C222.651 73.641 221.48 71.8996 221.832 70.1033C222.183 68.307 223.925 67.1366 225.721 67.4881C227.517 67.8397 228.688 69.5811 228.336 71.3774Z" fill="#4E4E4E"/>
<path d="M277.881 54.5165C277.881 54.5165 259.986 46.041 231.785 42.4688C231.785 42.4688 231.925 48.0578 231.291 58.487C230.657 68.9162 226.656 74.9818 226.656 74.9818C226.656 74.9818 244.48 81.1022 262.712 82.0602C262.712 82.0602 263.833 74.5591 268.16 67.7875C274.299 58.1802 277.881 54.5165 277.881 54.5165Z" fill="url(#paint9_linear_1936_131081)"/>
<path d="M277.881 54.5165C277.881 54.5165 259.986 46.041 231.785 42.4688C231.785 42.4688 231.925 48.0578 231.291 58.487C230.657 68.9162 226.656 74.9818 226.656 74.9818C226.656 74.9818 244.48 81.1022 262.712 82.0602C262.712 82.0602 263.833 74.5591 268.16 67.7875C274.299 58.1802 277.881 54.5165 277.881 54.5165Z" stroke="#2D2D2D" stroke-width="8.128" stroke-linecap="round" stroke-linejoin="round"/>
<path d="M286.62 61.389C286.62 61.389 273.818 53.4561 265.334 61.389C255.932 70.1805 263.302 83.357 263.302 83.357C267.979 89.8909 278.342 96.9094 282.902 98.9028C293.78 103.66 306.044 93.6115 303.184 80.9867C301.664 74.277 286.62 61.389 286.62 61.389Z" fill="url(#paint10_linear_1936_131081)"/>
<path d="M286.62 61.389C286.62 61.389 273.818 53.4561 265.334 61.389C255.932 70.1805 263.302 83.357 263.302 83.357C267.979 89.8909 278.342 96.9094 282.902 98.9028C293.78 103.66 306.044 93.6115 303.184 80.9867C301.664 74.277 286.62 61.389 286.62 61.389Z" stroke="#2D2D2D" stroke-width="8.128" stroke-linecap="round" stroke-linejoin="round"/>
<path d="M283.6 72.8793C283.6 77.2613 280.048 80.8132 275.666 80.8132C271.284 80.8132 267.732 77.2613 267.732 72.8793C267.732 68.4972 271.284 64.9453 275.666 64.9453C280.048 64.9453 283.6 68.4972 283.6 72.8793Z" fill="#9B9B9B"/>
<path d="M278.982 72.8806C278.982 74.7114 277.499 76.1948 275.668 76.1948C273.837 76.1948 272.354 74.7114 272.354 72.8806C272.354 71.0498 273.837 69.5664 275.668 69.5664C277.499 69.5664 278.982 71.0498 278.982 72.8806Z" fill="#4E4E4E"/>
<path d="M172.697 46.2218C172.697 46.2218 193.03 41.5614 222.486 42.4687C222.486 42.4687 236.09 44.3615 236.781 58.5418C237.451 72.2822 223.642 77.1214 223.642 77.1214C223.642 77.1214 206.747 80.7882 187.168 81.2179C187.168 81.2179 190.066 71.0925 185.387 62.0613C181.334 54.2381 172.697 46.2218 172.697 46.2218Z" fill="url(#paint11_linear_1936_131081)"/>
<path d="M172.697 46.2218C172.697 46.2218 193.03 41.5614 222.486 42.4687C222.486 42.4687 236.09 44.3615 236.781 58.5418C237.451 72.2822 223.642 77.1214 223.642 77.1214C223.642 77.1214 206.747 80.7882 187.168 81.2179C187.168 81.2179 190.066 71.0925 185.387 62.0613C181.334 54.2381 172.697 46.2218 172.697 46.2218Z" stroke="#2D2D2D" stroke-width="8.128" stroke-linecap="round" stroke-linejoin="round"/>
<path d="M228.44 59.5043C228.44 63.8863 224.888 67.4382 220.506 67.4382C216.124 67.4382 212.572 63.8863 212.572 59.5043C212.572 55.1222 216.124 51.5703 220.506 51.5703C224.888 51.5703 228.44 55.1222 228.44 59.5043Z" fill="#9B9B9B"/>
<path d="M223.822 59.5017C223.822 61.3325 222.338 62.8159 220.508 62.8159C218.677 62.8159 217.193 61.3325 217.193 59.5017C217.193 57.6709 218.677 56.1875 220.508 56.1875C222.338 56.1875 223.822 57.6709 223.822 59.5017Z" fill="#4E4E4E"/>
<path d="M159.288 148.03C147.881 146.712 137.564 154.893 136.246 166.301L132.316 200.325L173.628 205.098L177.558 171.072C178.876 159.664 170.696 149.348 159.288 148.03Z" fill="#2D2D2D"/>
<path d="M159.288 148.03C147.881 146.712 137.564 154.893 136.246 166.301L132.316 200.325L173.628 205.098L177.558 171.072C178.876 159.664 170.696 149.348 159.288 148.03Z" stroke="#2D2D2D" stroke-width="8.128" stroke-linecap="round" stroke-linejoin="round"/>
<path d="M164.195 109.539C147.922 107.659 133.209 119.327 131.329 135.599L125.723 184.132C125.723 184.132 152.682 191.377 184.65 190.938L190.255 142.405C192.135 126.133 180.467 111.418 164.195 109.539Z" fill="#505050"/>
<path d="M164.195 109.539C147.922 107.659 133.209 119.327 131.329 135.599L125.723 184.132C125.723 184.132 152.682 191.377 184.65 190.938L190.255 142.405C192.135 126.133 180.467 111.418 164.195 109.539Z" stroke="#2D2D2D" stroke-width="8.128" stroke-linecap="round" stroke-linejoin="round"/>
<path d="M181.675 154.03C181.496 166.432 171.295 176.34 158.894 176.16C146.492 175.98 136.584 165.779 136.764 153.378C136.944 140.977 147.145 131.069 159.546 131.249C171.947 131.428 181.855 141.629 181.675 154.03Z" fill="#BFBFBF"/>
<path d="M181.675 154.03C181.496 166.432 171.295 176.34 158.894 176.16C146.492 175.98 136.584 165.779 136.764 153.378C136.944 140.977 147.145 131.069 159.546 131.249C171.947 131.428 181.855 141.629 181.675 154.03Z" stroke="#777777" stroke-width="5.08" stroke-linecap="round" stroke-linejoin="round"/>
<g opacity="0.5">
<path d="M172.904 153.905C172.794 161.463 166.578 167.5 159.02 167.39C151.462 167.28 145.425 161.064 145.535 153.506C145.644 145.948 151.86 139.911 159.418 140.021C166.976 140.131 173.013 146.347 172.904 153.905Z" fill="#BFBFBF"/>
<path d="M172.904 153.905C172.794 161.463 166.578 167.5 159.02 167.39C151.462 167.28 145.425 161.064 145.535 153.506C145.644 145.948 151.86 139.911 159.418 140.021C166.976 140.131 173.013 146.347 172.904 153.905Z" stroke="#777777" stroke-width="5.08" stroke-linecap="round" stroke-linejoin="round"/>
</g>
<g opacity="0.5">
<path d="M164.191 153.775C164.152 156.522 161.893 158.715 159.147 158.676C156.401 158.636 154.207 156.377 154.247 153.631C154.286 150.885 156.545 148.691 159.291 148.731C162.037 148.771 164.231 151.029 164.191 153.775Z" fill="#CECECE"/>
<path d="M164.191 153.775C164.152 156.522 161.893 158.715 159.147 158.676C156.401 158.636 154.207 156.377 154.247 153.631C154.286 150.885 156.545 148.691 159.291 148.731C162.037 148.771 164.231 151.029 164.191 153.775Z" stroke="#777777" stroke-width="5.08" stroke-linecap="round" stroke-linejoin="round"/>
</g>
<g opacity="0.4">
<path d="M164.195 109.539C147.922 107.659 133.209 119.327 131.329 135.599L125.723 184.132C125.723 184.132 152.682 191.377 184.65 190.938L190.255 142.405C192.135 126.133 180.467 111.418 164.195 109.539Z" fill="#2D2D2D"/>
</g>
<path d="M178.643 202.887C155.96 201.787 134.548 197.941 126.728 196.412C124.992 196.072 123.319 197.203 122.976 198.937L103.073 328.127C102.785 329.587 103.532 331.06 104.891 331.668C110.949 334.376 129.132 340.907 160.882 339.309C162.49 339.228 163.798 337.979 163.934 336.374L181.666 206.356C181.817 204.554 180.45 202.974 178.643 202.887Z" fill="#D8D8D8"/>
<path d="M178.643 202.887C155.96 201.787 134.548 197.941 126.728 196.412C124.992 196.072 123.319 197.203 122.976 198.937L103.073 328.127C102.785 329.587 103.532 331.06 104.891 331.668C110.949 334.376 129.132 340.907 160.882 339.309C162.49 339.228 163.798 337.979 163.934 336.374L181.666 206.356C181.817 204.554 180.45 202.974 178.643 202.887Z" stroke="#777777" stroke-width="5.08" stroke-linecap="round" stroke-linejoin="round"/>
<g opacity="0.4">
<path d="M134.672 197.868L114.925 333.33L103.012 331.159L124.382 196.867L134.672 197.868Z" fill="#777777"/>
</g>
<g opacity="0.3">
<path d="M181.016 204.202L163.636 339.195L137.484 338.66L156.524 201.445L181.016 204.202Z" fill="#777777"/>
</g>
<g opacity="0.4">
<path d="M164.442 202.109L146.189 337.853L162.362 338.387L180.227 203.466L164.442 202.109Z" fill="#777777"/>
</g>
<path d="M137.053 198.469C139.491 199.041 154.41 200.84 154.959 200.891" stroke="#EEEEEE" stroke-width="5.08" stroke-linecap="round"/>
<path d="M140.575 83.1789L136.955 93.9698C136.245 96.0882 137.195 98.4169 139.201 99.3983C143.437 101.47 150.087 105.76 151.315 112.675C152.932 121.779 150.301 140.364 149.002 160.093C148.708 164.554 151.744 168.552 156.127 169.438C167.165 171.669 189.633 175.44 200.831 175.205C216.683 174.873 223.389 159.499 219.241 148.06C214.889 136.059 199.926 135.197 193.632 123.41C189.314 115.323 190.47 105.953 191.62 100.868C192.116 98.679 190.878 96.4682 188.767 95.7062L146.338 80.392C143.975 79.5396 141.373 80.7974 140.575 83.1789Z" fill="#505050"/>
<path d="M140.575 83.1789L136.955 93.9698C136.245 96.0882 137.195 98.4169 139.201 99.3983C143.437 101.47 150.087 105.76 151.315 112.675C152.932 121.779 150.301 140.364 149.002 160.093C148.708 164.554 151.744 168.552 156.127 169.438C167.165 171.669 189.633 175.44 200.831 175.205C216.683 174.873 223.389 159.499 219.241 148.06C214.889 136.059 199.926 135.197 193.632 123.41C189.314 115.323 190.47 105.953 191.62 100.868C192.116 98.679 190.878 96.4682 188.767 95.7062L146.338 80.392C143.975 79.5396 141.373 80.7974 140.575 83.1789Z" stroke="#2D2D2D" stroke-width="8.128" stroke-linecap="round" stroke-linejoin="round"/>
<path d="M140.575 83.1789L136.955 93.9698C136.245 96.0882 137.195 98.4169 139.201 99.3983C143.437 101.47 150.087 105.76 151.315 112.675C152.932 121.779 150.301 140.364 149.002 160.093C148.708 164.554 151.744 168.552 156.127 169.438C167.165 171.669 189.633 175.44 200.831 175.205C216.683 174.873 223.389 159.499 219.241 148.06C214.889 136.059 199.926 135.197 193.632 123.41C189.314 115.323 190.47 105.953 191.62 100.868C192.116 98.679 190.878 96.4682 188.767 95.7062L146.338 80.392C143.975 79.5396 141.373 80.7974 140.575 83.1789Z" fill="url(#paint12_linear_1936_131081)"/>
<g opacity="0.4">
<path d="M220.434 154.503C211.981 155.488 204.038 151.811 197.818 148.092C171.494 132.355 189.781 95.707 189.781 95.707C191.894 96.469 192.118 98.6839 191.62 100.868C190.472 105.958 189.314 115.326 193.632 123.413C199.921 135.199 214.886 136.063 219.245 148.062C219.987 150.114 220.383 152.298 220.434 154.503Z" fill="#2D2D2D"/>
</g>
<path d="M190.643 78.6535C195.342 65.9118 188.061 51.6776 174.498 48.3086C164.083 45.7219 153.066 50.8791 148.366 60.527C145.892 65.605 145.443 71.0446 146.636 76.0241C147.42 79.2976 147.342 82.7175 146.178 85.8762L144.641 90.0449L175.02 101.249L176.513 97.2036C177.68 94.0387 179.789 91.322 182.525 89.3499C186.114 86.7632 188.997 83.1167 190.643 78.6535Z" fill="#BFBFBF"/>
<path d="M190.643 78.6535C195.342 65.9118 188.061 51.6776 174.498 48.3086C164.083 45.7219 153.066 50.8791 148.366 60.527C145.892 65.605 145.443 71.0446 146.636 76.0241C147.42 79.2976 147.342 82.7175 146.178 85.8762L144.641 90.0449L175.02 101.249L176.513 97.2036C177.68 94.0387 179.789 91.322 182.525 89.3499C186.114 86.7632 188.997 83.1167 190.643 78.6535Z" stroke="#777777" stroke-width="5.08" stroke-linecap="round" stroke-linejoin="round"/>
<g opacity="0.5">
<path d="M183.616 69.8621C183.768 77.8661 177.405 84.4782 169.401 84.6317C161.397 84.7841 154.785 78.4209 154.632 70.4168C154.479 62.4128 160.842 55.8006 168.846 55.6472C176.85 55.4948 183.463 61.858 183.616 69.8621Z" fill="#BFBFBF"/>
<path d="M183.616 69.8621C183.768 77.8661 177.405 84.4782 169.401 84.6317C161.397 84.7841 154.785 78.4209 154.632 70.4168C154.479 62.4128 160.842 55.8006 168.846 55.6472C176.85 55.4948 183.463 61.858 183.616 69.8621Z" stroke="#777777" stroke-width="5.08" stroke-linecap="round" stroke-linejoin="round"/>
</g>
<g opacity="0.5">
<path d="M174.587 70.0352C174.645 73.0527 172.246 75.545 169.229 75.6029C166.211 75.6608 163.719 73.262 163.661 70.2445C163.603 67.227 166.002 64.7347 169.02 64.6768C172.037 64.6189 174.529 67.0177 174.587 70.0352Z" fill="#BFBFBF"/>
<path d="M174.587 70.0352C174.645 73.0527 172.246 75.545 169.229 75.6029C166.211 75.6608 163.719 73.262 163.661 70.2445C163.603 67.227 166.002 64.7347 169.02 64.6768C172.037 64.6189 174.529 67.0177 174.587 70.0352Z" stroke="#777777" stroke-width="5.08" stroke-linecap="round" stroke-linejoin="round"/>
</g>
<path d="M193.316 160.194C193.316 160.194 194.509 153.124 205.453 142.098L213.555 156.132C213.555 156.132 198.305 161.917 193.316 160.194Z" fill="#BFBFBF"/>
<path d="M193.316 160.194C193.316 160.194 194.509 153.124 205.453 142.098L213.555 156.132C213.555 156.132 198.305 161.917 193.316 160.194Z" stroke="#777777" stroke-width="5.08" stroke-linecap="round" stroke-linejoin="round"/>
<path d="M222.411 157.751L216.581 148.418C216.581 148.418 206.028 157.624 193.316 160.192C193.316 160.192 194.946 165.863 198.437 169.132C198.437 169.132 211.212 169.345 222.411 157.751Z" fill="#BFBFBF"/>
<path d="M222.411 157.751L216.581 148.418C216.581 148.418 206.028 157.624 193.316 160.192C193.316 160.192 194.946 165.863 198.437 169.132C198.437 169.132 211.212 169.345 222.411 157.751Z" stroke="#777777" stroke-width="5.08" stroke-linecap="round" stroke-linejoin="round"/>
<g opacity="0.4">
<path d="M193.316 160.194C193.316 160.194 194.509 153.124 205.453 142.098L213.555 156.132C213.555 156.132 198.305 161.917 193.316 160.194Z" fill="#777777"/>
</g>
<g opacity="0.4">
<path d="M222.411 157.751L216.581 148.418C216.581 148.418 206.028 157.624 193.316 160.192C193.316 160.192 194.946 165.863 198.437 169.132C198.437 169.132 211.212 169.345 222.411 157.751Z" fill="#777777"/>
</g>
<path d="M213.62 125.965C205.78 132.297 201.606 149.724 210.297 158.937C218.988 168.15 232.023 165.301 238.709 160.709C243.021 157.747 252.209 147.943 259.888 139.466C264.114 134.802 267.881 130.54 270.127 128.041C277.719 119.594 276.848 109.86 270.127 103.975C263.638 98.2921 251.41 96.6207 238.374 105.98C232.864 109.936 228.751 113.18 225.348 116.003C220.702 119.858 217.378 122.929 213.62 125.965Z" fill="#505050"/>
<path d="M213.62 125.965C205.78 132.297 201.606 149.724 210.297 158.937C218.988 168.15 232.023 165.301 238.709 160.709C243.021 157.747 252.209 147.943 259.888 139.466C264.114 134.802 267.881 130.54 270.127 128.041C277.719 119.594 276.848 109.86 270.127 103.975C263.638 98.2921 251.41 96.6207 238.374 105.98C232.864 109.936 228.751 113.18 225.348 116.003C220.702 119.858 217.378 122.929 213.62 125.965Z" fill="url(#paint13_radial_1936_131081)"/>
<path d="M213.62 125.965C205.78 132.297 201.606 149.724 210.297 158.937C218.988 168.15 232.023 165.301 238.709 160.709C241.228 158.979 245.413 154.912 249.988 150.139C252.311 147.716 254.733 145.112 257.09 142.539C258.579 140.913 260.041 139.301 261.435 137.755C265.023 133.773 268.159 130.23 270.127 128.041C277.719 119.594 276.848 109.86 270.127 103.975C263.638 98.2921 251.41 96.6207 238.374 105.98C233.98 109.135 230.475 111.835 227.51 114.232C221.679 118.945 217.937 122.479 213.62 125.965Z" stroke="#2D2D2D" stroke-width="8.128" stroke-linecap="round" stroke-linejoin="round"/>
<path d="M226.932 115.652C219.474 129.147 232.944 146.504 249.271 150.286C247.002 149.228 244.555 147.154 244.555 147.154C244.555 147.154 247.046 150.767 249.202 149.99C230.856 147.773 221.459 127.007 226.932 115.652Z" fill="#3B3B3B"/>
<path d="M226.162 115.332C226.162 115.332 222.45 125.756 228.98 136.414C236.944 149.412 249.031 151.132 249.031 151.132" stroke="#2D2D2D" stroke-width="5.08" stroke-linecap="round" stroke-linejoin="round"/>
<path d="M226.162 115.332C226.162 115.332 222.45 125.756 228.98 136.414C236.944 149.412 249.031 151.132 249.031 151.132" stroke="#2D2D2D" stroke-width="5.08" stroke-linecap="round" stroke-linejoin="round"/>
<path d="M247.426 133.387C245.012 135.668 242.599 137.891 240.691 139.663" stroke="#2D2D2D" stroke-width="9.144" stroke-linecap="round"/>
<path d="M253.106 135.264L245.537 127.789C245.537 127.789 234.736 139.387 226.514 145.016C226.514 145.016 229.1 149.571 234.511 153.008C234.511 153.008 244.609 147.069 253.106 135.264Z" fill="#BFBFBF"/>
<path d="M253.106 135.264L245.537 127.789C245.537 127.789 234.736 139.387 226.514 145.016C226.514 145.016 229.1 149.571 234.511 153.008C234.511 153.008 244.609 147.069 253.106 135.264Z" stroke="#777777" stroke-width="5.08" stroke-linecap="round" stroke-linejoin="round"/>
<path d="M113.531 213.836C113.531 213.836 142.538 222.291 186.308 223.541C186.308 223.541 189.852 262.517 186.308 317.159C182.765 371.802 166.546 381.45 145.978 402.742C125.41 424.034 115.493 462.141 86.3309 456.474C61.0817 451.567 70.6825 419.262 72.1516 381.45C73.6207 343.637 73.6069 318.637 84.4432 282.049C93.2576 252.287 104.621 231.962 113.531 213.836Z" fill="url(#paint14_radial_1936_131081)"/>
<path d="M113.735 213.836C113.735 213.836 142.726 222.291 186.474 223.541C186.474 223.541 190.016 262.517 186.474 317.159C182.933 371.802 166.722 381.45 146.165 402.742C125.607 424.034 115.697 462.141 86.5487 456.474C61.3123 451.567 70.9084 419.262 72.3765 381.45C73.8446 343.637 73.8304 318.637 84.661 282.049C93.4707 252.287 104.83 231.962 113.735 213.836Z" stroke="#2D2D2D" stroke-width="8.128" stroke-linecap="round" stroke-linejoin="round"/>
<path d="M351.056 286.853C351.056 286.853 297.877 280.105 258.618 301.043C219.359 321.98 208.328 373.74 170.208 382.836C164.042 384.307 150.642 384.644 127.601 385.105C104.559 385.567 86.2615 394.784 82.5745 417.826C78.8874 440.868 95.2643 456.687 122.118 459.244C148.972 461.801 171.733 460.976 211.021 463.429C276.951 467.545 330.094 466.778 374.12 444.322C425.097 418.32 437.92 396.163 437.92 363.118C437.92 330.073 401.454 293.963 351.056 286.853Z" fill="url(#paint15_linear_1936_131081)"/>
<path d="M351.056 286.853C351.056 286.853 297.877 280.105 258.618 301.043C219.359 321.98 208.328 373.74 170.208 382.836C164.042 384.307 150.642 384.644 127.601 385.105C104.559 385.567 86.2615 394.784 82.5745 417.826C78.8874 440.868 95.2643 456.687 122.118 459.244C148.972 461.801 171.733 460.976 211.021 463.429C276.951 467.545 330.094 466.778 374.12 444.322C425.097 418.32 437.92 396.163 437.92 363.118C437.92 330.073 401.454 293.963 351.056 286.853Z" fill="url(#paint16_linear_1936_131081)"/>
<path d="M437.921 363.117C437.921 396.168 425.099 418.317 374.116 444.326C347.293 458.012 317.088 463.63 282.676 465.012V291.693C316.6 282.488 351.053 286.856 351.053 286.856C401.456 293.968 437.921 330.077 437.921 363.117Z" fill="url(#paint17_linear_1936_131081)"/>
<mask id="mask1_1936_131081" style="mask-type:luminance" maskUnits="userSpaceOnUse" x="282" y="285" width="156" height="181">
<path d="M437.921 363.117C437.921 396.168 425.099 418.317 374.116 444.326C347.293 458.012 317.088 463.63 282.676 465.012V291.693C316.6 282.488 351.053 286.856 351.053 286.856C401.456 293.968 437.921 330.077 437.921 363.117Z" fill="url(#paint18_linear_1936_131081)"/>
</mask>
<g mask="url(#mask1_1936_131081)">
<path d="M437.921 363.117C437.921 396.168 425.099 418.317 374.116 444.326C347.293 458.012 317.088 463.63 282.676 465.012V291.693C316.6 282.488 351.053 286.856 351.053 286.856C401.456 293.968 437.921 330.077 437.921 363.117Z" fill="url(#paint19_linear_1936_131081)"/>
</g>
<g opacity="0.4">
<path d="M437.921 363.117C437.921 396.167 425.099 418.316 374.116 444.325C330.093 466.779 276.956 467.541 211.017 463.426C171.729 460.978 148.97 461.801 122.117 459.24C95.2645 456.69 78.8866 440.871 82.5747 417.828C83.672 410.991 86.0494 405.362 89.4632 400.831L90.0118 400.119L90.1642 399.947C89.7375 400.871 80.9521 417.616 127.619 419.726C173.43 421.798 286.739 375.414 303.917 358.755C335.725 327.908 382.386 301.699 360.298 288.512C405.856 298.448 437.921 332.129 437.921 363.117Z" fill="url(#paint20_linear_1936_131081)"/>
</g>
<g opacity="0.05">
<path d="M281.193 357.189C272.249 358.499 261.436 362.769 246.503 372.286C215.374 392.125 192.146 392.752 161.208 392.752C130.281 392.752 100.625 393.7 90.2326 407.854C89.5123 408.836 95.0698 395.505 94.0233 395.901C102.283 388.637 114.13 385.375 127.602 385.101C150.645 384.644 163.664 387.559 169.821 386.086C207.941 376.992 219.357 321.977 258.615 301.037C265.98 297.111 273.834 294.159 281.735 291.953C281.249 302 281.925 343.417 281.193 357.189Z" fill="url(#paint21_linear_1936_131081)"/>
<path d="M281.193 357.189C272.249 358.499 261.436 362.769 246.503 372.286C215.374 392.125 192.146 392.752 161.208 392.752C130.281 392.752 100.625 393.7 90.2326 407.854C89.5123 408.836 95.0698 395.505 94.0233 395.901C102.283 388.637 114.13 385.375 127.602 385.101C150.645 384.644 163.664 387.559 169.821 386.086C207.941 376.992 219.357 321.977 258.615 301.037C265.98 297.111 273.834 294.159 281.735 291.953C281.249 302 281.925 343.417 281.193 357.189Z" fill="white"/>
</g>
<g opacity="0.05">
<path d="M281.177 352.129C272.42 354.251 261.212 358.467 246.743 368.676C216.874 389.751 192.146 392.753 161.208 392.753C130.281 392.753 100.625 393.702 90.2326 407.856C89.5123 408.837 95.0698 395.506 94.0233 395.902C102.283 388.638 114.13 385.377 127.602 385.102C150.645 384.645 163.6 387.507 169.821 386.337C216.123 377.627 222.055 340.626 258.572 315.163C265.417 310.39 273.385 306.28 281.286 304.074C281.399 313.001 281.144 340.6 281.177 352.129Z" fill="url(#paint22_linear_1936_131081)"/>
<path d="M281.177 352.129C272.42 354.251 261.212 358.467 246.743 368.676C216.874 389.751 192.146 392.753 161.208 392.753C130.281 392.753 100.625 393.702 90.2326 407.856C89.5123 408.837 95.0698 395.506 94.0233 395.902C102.283 388.638 114.13 385.377 127.602 385.102C150.645 384.645 163.6 387.507 169.821 386.337C216.123 377.627 222.055 340.626 258.572 315.163C265.417 310.39 273.385 306.28 281.286 304.074C281.399 313.001 281.144 340.6 281.177 352.129Z" fill="white"/>
</g>
<g opacity="0.1">
<path d="M281.162 347.629C272.749 350.001 261.473 355.609 246.915 365.689C216.499 386.751 192.146 392.753 161.208 392.753C130.281 392.753 100.625 393.701 90.2326 407.855C89.5123 408.837 95.0698 395.506 94.0233 395.902C102.283 388.638 114.13 385.376 127.602 385.102C150.645 384.645 163.59 387.328 169.821 386.212C222.624 376.751 222.067 343.501 258.584 318.038C265.43 313.265 273.356 309.405 281.258 307.199C281.371 316.126 281.13 336.1 281.162 347.629Z" fill="url(#paint23_linear_1936_131081)"/>
<path d="M281.162 347.629C272.749 350.001 261.473 355.609 246.915 365.689C216.499 386.751 192.146 392.753 161.208 392.753C130.281 392.753 100.625 393.701 90.2326 407.855C89.5123 408.837 95.0698 395.506 94.0233 395.902C102.283 388.638 114.13 385.376 127.602 385.102C150.645 384.645 163.59 387.328 169.821 386.212C222.624 376.751 222.067 343.501 258.584 318.038C265.43 313.265 273.356 309.405 281.258 307.199C281.371 316.126 281.13 336.1 281.162 347.629Z" fill="white"/>
</g>
<g opacity="0.1">
<path d="M281.22 344.254C273.249 346.75 261.643 352.642 247.066 362.696C215.999 384.126 192.146 392.753 161.208 392.753C130.281 392.753 100.625 393.701 90.2326 407.855C89.5123 408.837 95.0698 395.506 94.0233 395.902C102.283 388.638 114.13 385.376 127.602 385.102C150.645 384.645 163.571 386.968 169.821 385.962C226.998 376.752 222.783 346.251 259.3 320.788C266.146 316.015 274.124 312.751 281.32 311.199C281.433 320.126 281.188 332.725 281.22 344.254Z" fill="url(#paint24_linear_1936_131081)"/>
<path d="M281.22 344.254C273.249 346.75 261.643 352.642 247.066 362.696C215.999 384.126 192.146 392.753 161.208 392.753C130.281 392.753 100.625 393.701 90.2326 407.855C89.5123 408.837 95.0698 395.506 94.0233 395.902C102.283 388.638 114.13 385.376 127.602 385.102C150.645 384.645 163.571 386.968 169.821 385.962C226.998 376.752 222.783 346.251 259.3 320.788C266.146 316.015 274.124 312.751 281.32 311.199C281.433 320.126 281.188 332.725 281.22 344.254Z" fill="white"/>
</g>
<g opacity="0.1">
<path d="M281.182 341.004C272.227 345 261.621 350.054 247.198 360.327C209.749 387.001 184.373 392.626 161.208 392.752C130.281 392.921 100.625 393.701 90.2326 407.855C89.5123 408.837 95.0698 395.506 94.0233 395.902C102.283 388.638 114.13 385.376 127.602 385.102C150.645 384.645 163.542 386.772 169.821 385.962C227.623 378.501 222.837 348.001 259.354 322.538C266.2 317.765 274.375 315.251 281.305 314.949C281.417 323.876 281.149 329.475 281.182 341.004Z" fill="url(#paint25_linear_1936_131081)"/>
<path d="M281.182 341.004C272.227 345 261.621 350.054 247.198 360.327C209.749 387.001 184.373 392.626 161.208 392.752C130.281 392.921 100.625 393.701 90.2326 407.855C89.5123 408.837 95.0698 395.506 94.0233 395.902C102.283 388.638 114.13 385.376 127.602 385.102C150.645 384.645 163.542 386.772 169.821 385.962C227.623 378.501 222.837 348.001 259.354 322.538C266.2 317.765 274.375 315.251 281.305 314.949C281.417 323.876 281.149 329.475 281.182 341.004Z" fill="white"/>
</g>
<g opacity="0.1">
<path d="M281.1 335.629C271.556 340.161 260.624 346.006 246.485 356.667C209.771 384.35 184.373 392.627 161.208 392.753C130.281 392.922 100.625 393.702 90.2326 407.856C89.5123 408.837 95.0698 395.506 94.0233 395.903C102.283 388.638 114.13 385.377 127.602 385.102C150.645 384.645 163.566 386.943 169.821 385.962C223.748 377.502 222.856 344.626 259.373 319.163C266.219 314.39 273.372 311.03 281.273 308.824C281.386 317.751 281.068 324.101 281.1 335.629Z" fill="url(#paint26_linear_1936_131081)"/>
<path d="M281.1 335.629C271.556 340.161 260.624 346.006 246.485 356.667C209.771 384.35 184.373 392.627 161.208 392.753C130.281 392.922 100.625 393.702 90.2326 407.856C89.5123 408.837 95.0698 395.506 94.0233 395.903C102.283 388.638 114.13 385.377 127.602 385.102C150.645 384.645 163.566 386.943 169.821 385.962C223.748 377.502 222.856 344.626 259.373 319.163C266.219 314.39 273.372 311.03 281.273 308.824C281.386 317.751 281.068 324.101 281.1 335.629Z" fill="white"/>
</g>
<g opacity="0.1">
<path d="M280.877 338.116C271.333 342.648 261.13 347.55 246.991 358.211C210.277 385.894 184.373 392.627 161.208 392.753C130.281 392.921 100.625 393.702 90.2326 407.855C89.5123 408.837 95.0698 395.506 94.0233 395.902C102.283 388.638 114.13 385.377 127.602 385.102C150.645 384.645 163.583 387.038 169.821 385.962C218.873 377.501 222.231 342.126 258.748 316.663C265.594 311.89 273.372 307.967 281.273 305.762C281.386 314.688 280.844 326.588 280.877 338.116Z" fill="url(#paint27_linear_1936_131081)"/>
<path d="M280.877 338.116C271.333 342.648 261.13 347.55 246.991 358.211C210.277 385.894 184.373 392.627 161.208 392.753C130.281 392.921 100.625 393.702 90.2326 407.855C89.5123 408.837 95.0698 395.506 94.0233 395.902C102.283 388.638 114.13 385.377 127.602 385.102C150.645 384.645 163.583 387.038 169.821 385.962C218.873 377.501 222.231 342.126 258.748 316.663C265.594 311.89 273.372 307.967 281.273 305.762C281.386 314.688 280.844 326.588 280.877 338.116Z" fill="white"/>
</g>
<g opacity="0.1">
<path d="M281.14 332.88C271.596 337.411 260.254 343.676 246.115 354.337C209.401 382.02 184.373 392.628 161.208 392.754C130.281 392.922 100.625 393.703 90.2326 407.856C89.5123 408.838 95.0698 395.507 94.0233 395.903C102.283 388.639 114.13 385.377 127.602 385.103C150.645 384.646 163.675 387.454 169.946 386.588C229.374 378.377 222.928 352.07 259.31 326.414C269.999 318.876 281.108 321.351 281.14 332.88Z" fill="url(#paint28_linear_1936_131081)"/>
<path d="M281.14 332.88C271.596 337.411 260.254 343.676 246.115 354.337C209.401 382.02 184.373 392.628 161.208 392.754C130.281 392.922 100.625 393.703 90.2326 407.856C89.5123 408.838 95.0698 395.507 94.0233 395.903C102.283 388.639 114.13 385.377 127.602 385.103C150.645 384.646 163.675 387.454 169.946 386.588C229.374 378.377 222.928 352.07 259.31 326.414C269.999 318.876 281.108 321.351 281.14 332.88Z" fill="white"/>
</g>
<g opacity="0.1">
<path d="M279.015 333.879C269.47 338.411 260.254 343.676 246.115 354.336C209.401 382.019 184.373 392.627 161.208 392.753C130.281 392.922 100.625 393.702 90.2326 407.856C89.5123 408.838 95.0698 395.507 94.0233 395.903C102.283 388.639 114.13 385.377 127.602 385.103C150.645 384.646 164.048 387.691 170.321 386.837C229.749 378.752 220.919 356.878 257.436 331.415C264.282 326.641 277.249 323.877 279.015 333.879Z" fill="url(#paint29_linear_1936_131081)"/>
<path d="M279.015 333.879C269.47 338.411 260.254 343.676 246.115 354.336C209.401 382.019 184.373 392.627 161.208 392.753C130.281 392.922 100.625 393.702 90.2326 407.856C89.5123 408.838 95.0698 395.507 94.0233 395.903C102.283 388.639 114.13 385.377 127.602 385.103C150.645 384.646 164.048 387.691 170.321 386.837C229.749 378.752 220.919 356.878 257.436 331.415C264.282 326.641 277.249 323.877 279.015 333.879Z" fill="white"/>
</g>
<path d="M351.056 286.853C351.056 286.853 297.878 280.105 258.618 301.043C219.359 321.98 208.328 373.74 170.208 382.836C164.043 384.307 150.643 384.644 127.601 385.105C104.559 385.567 85.2439 397.648 82.5749 417.826C79.5147 440.959 95.2647 456.687 122.119 459.244C148.973 461.801 171.733 460.976 211.022 463.429C276.951 467.545 330.095 466.778 374.12 444.322C425.097 418.32 437.921 396.163 437.921 363.118C437.921 330.073 401.455 293.963 351.056 286.853Z" stroke="#6D6D6D" stroke-width="7.112" stroke-linecap="round" stroke-linejoin="round"/>
<path d="M82.5749 417.824C79.5147 440.957 95.2647 456.685 122.119 459.242C148.973 461.8 171.733 460.976 211.022 463.428C276.951 467.544 330.095 466.776 374.12 444.32C425.097 418.319 437.921 396.161 437.921 363.117C437.921 330.071 401.455 293.962 351.056 286.852" stroke="#2D2D2D" stroke-width="8.128" stroke-linecap="round" stroke-linejoin="round"/>
<path d="M282.676 465.014C317.094 463.634 347.299 458.002 374.12 444.321C425.097 418.32 437.921 396.162 437.921 363.118C437.921 330.072 401.455 293.963 351.057 286.853C351.057 286.853 316.596 282.481 282.677 291.697" stroke="#2D2D2D" stroke-width="8.128" stroke-linecap="round" stroke-linejoin="round"/>
<path d="M281.168 465.011V291.691" stroke="#2D2D2D" stroke-width="5.08" stroke-linecap="round" stroke-linejoin="round"/>
<path d="M78.5215 417.658C78.5215 417.658 80.4986 405.467 93.349 403.105C93.349 403.105 87.7478 409.091 86.5946 418.646L78.5215 417.658Z" fill="#2D2D2D"/>
<path d="M442.555 393.212L438.064 393.156L395.961 392.649C380.335 392.466 367.777 376.147 367.899 356.236C368.021 336.31 380.792 320.301 396.408 320.498L437.587 320.977L443.002 321.048L442.555 393.212Z" fill="#2D2D2D"/>
<path d="M442.555 393.212L438.064 393.156L395.961 392.649C380.335 392.466 367.777 376.147 367.899 356.236C368.021 336.31 380.792 320.301 396.408 320.498L437.587 320.977L443.002 321.048L442.555 393.212Z" stroke="#2D2D2D" stroke-width="8.128" stroke-linecap="round" stroke-linejoin="round"/>
<path d="M452.989 382.941C447.998 401.454 420.818 433.499 379.021 433.499C335.719 433.499 299.499 397.2 300.637 357.522C301.804 316.876 335.719 281.352 379.021 281.352C412.62 281.352 442.249 303.862 452.534 330.809L411.177 330.42C395.561 330.363 383.374 341.648 382.771 356.935C382.249 370.174 395.157 382.498 410.783 382.549L452.989 382.941Z" fill="url(#paint30_radial_1936_131081)"/>
<path d="M452.935 383.028C442.135 412.39 413.128 433.411 379.041 433.411C335.74 433.411 300.637 399.487 300.637 357.648C300.637 315.799 335.74 281.875 379.041 281.875C412.641 281.875 441.292 302.297 452.458 330.988L411.279 330.643C395.663 330.501 382.892 342.043 382.77 356.409C382.648 370.765 395.206 382.53 410.832 382.662L452.935 383.028Z" stroke="#2D2D2D" stroke-width="8.128" stroke-linecap="round" stroke-linejoin="round"/>
<path d="M455.072 372.841H402.043C398.946 372.841 396.436 370.33 396.436 367.233V346.478C396.436 343.382 398.946 340.871 402.043 340.871H455.072C458.169 340.871 460.679 343.382 460.679 346.478V367.233C460.679 370.33 458.169 372.841 455.072 372.841Z" fill="#868686"/>
<path d="M435.626 342.113V371.793H397.852V342.113H435.626Z" fill="#A1A1A1"/>
<path d="M426.402 340.648V372.821H408.035V340.648H426.402Z" fill="#BFBFBF"/>
<path d="M455.072 372.841H402.043C398.946 372.841 396.436 370.33 396.436 367.233V346.478C396.436 343.382 398.946 340.871 402.043 340.871H455.072C458.169 340.871 460.679 343.382 460.679 346.478V367.233C460.679 370.33 458.169 372.841 455.072 372.841Z" stroke="#5D5D5D" stroke-width="5.08" stroke-linecap="round" stroke-linejoin="round"/>
<path d="M402.043 340.871H455.071C458.168 340.871 460.678 343.383 460.678 346.479" stroke="#D0D0D0" stroke-width="5.2832" stroke-linecap="round" stroke-linejoin="round"/>
<path d="M410.082 340.871C413.932 340.871 418.815 340.871 423.935 340.871" stroke="white" stroke-width="5.2832" stroke-linecap="round" stroke-linejoin="round"/>
<path d="M131.367 422.527C131.367 432.408 123.357 440.418 113.477 440.418C103.596 440.418 95.5859 432.408 95.5859 422.527C95.5859 412.647 103.596 404.637 113.477 404.637C123.357 404.637 131.367 412.647 131.367 422.527Z" fill="#414141"/>
<g opacity="0.4">
<path d="M131.373 422.522C131.373 423.589 131.282 424.636 131.099 425.652C129.626 417.249 122.29 410.879 113.482 410.879C104.663 410.879 97.3374 417.249 95.8642 425.652C95.6813 424.636 95.5898 423.589 95.5898 422.522C95.5898 412.647 103.596 404.641 113.482 404.641C123.357 404.641 131.373 412.647 131.373 422.522Z" fill="white"/>
</g>
<path d="M131.367 422.527C131.367 432.408 123.357 440.418 113.477 440.418C103.596 440.418 95.5859 432.408 95.5859 422.527C95.5859 412.647 103.596 404.637 113.477 404.637C123.357 404.637 131.367 412.647 131.367 422.527Z" stroke="#2D2D2D" stroke-width="5.08" stroke-linecap="round" stroke-linejoin="round"/>
<path d="M116.028 412.657C116.028 414.066 114.886 415.208 113.477 415.208C112.068 415.208 110.926 414.066 110.926 412.657C110.926 411.247 112.068 410.105 113.477 410.105C114.886 410.105 116.028 411.247 116.028 412.657Z" fill="#2D2D2D"/>
<path d="M116.028 432.395C116.028 433.804 114.886 434.946 113.477 434.946C112.068 434.946 110.926 433.804 110.926 432.395C110.926 430.986 112.068 429.844 113.477 429.844C114.886 429.844 116.028 430.986 116.028 432.395Z" fill="#2D2D2D"/>
</g>
</g>
<defs>
<linearGradient id="paint0_linear_1936_131081" x1="234.003" y1="89.6214" x2="212.917" y2="105.869" gradientUnits="userSpaceOnUse">
<stop stop-color="#858585"/>
<stop offset="0.21" stop-color="#6B6B6B"/>
<stop offset="0.42" stop-color="#505050"/>
<stop offset="0.71" stop-color="#424242"/>
<stop offset="1" stop-color="#333333"/>
</linearGradient>
<linearGradient id="paint1_linear_1936_131081" x1="243.415" y1="123.443" x2="220.912" y2="121.834" gradientUnits="userSpaceOnUse">
<stop stop-color="#858585"/>
<stop offset="0.21" stop-color="#6B6B6B"/>
<stop offset="0.42" stop-color="#505050"/>
<stop offset="0.71" stop-color="#424242"/>
<stop offset="1" stop-color="#333333"/>
</linearGradient>
<linearGradient id="paint2_linear_1936_131081" x1="203.978" y1="67.3611" x2="194.924" y2="88.8343" gradientUnits="userSpaceOnUse">
<stop stop-color="#858585"/>
<stop offset="0.21" stop-color="#6B6B6B"/>
<stop offset="0.42" stop-color="#505050"/>
<stop offset="0.71" stop-color="#424242"/>
<stop offset="1" stop-color="#333333"/>
</linearGradient>
<linearGradient id="paint3_linear_1936_131081" x1="249.722" y1="81.9642" x2="234.573" y2="105.964" gradientUnits="userSpaceOnUse">
<stop stop-color="#858585"/>
<stop offset="0.21" stop-color="#6B6B6B"/>
<stop offset="0.42" stop-color="#505050"/>
<stop offset="0.71" stop-color="#424242"/>
<stop offset="1" stop-color="#333333"/>
</linearGradient>
<linearGradient id="paint4_linear_1936_131081" x1="269.94" y1="121.113" x2="251.04" y2="123.612" gradientUnits="userSpaceOnUse">
<stop stop-color="#858585"/>
<stop offset="0.21" stop-color="#6B6B6B"/>
<stop offset="0.42" stop-color="#505050"/>
<stop offset="0.71" stop-color="#424242"/>
<stop offset="1" stop-color="#333333"/>
</linearGradient>
<linearGradient id="paint5_linear_1936_131081" x1="211.224" y1="62.8356" x2="204.324" y2="92.0852" gradientUnits="userSpaceOnUse">
<stop stop-color="#858585"/>
<stop offset="0.21" stop-color="#6B6B6B"/>
<stop offset="0.42" stop-color="#505050"/>
<stop offset="0.71" stop-color="#424242"/>
<stop offset="1" stop-color="#333333"/>
</linearGradient>
<linearGradient id="paint6_linear_1936_131081" x1="254.243" y1="70.0962" x2="242.422" y2="96.4259" gradientUnits="userSpaceOnUse">
<stop stop-color="#858585"/>
<stop offset="0.21" stop-color="#6B6B6B"/>
<stop offset="0.42" stop-color="#505050"/>
<stop offset="0.71" stop-color="#424242"/>
<stop offset="1" stop-color="#333333"/>
</linearGradient>
<linearGradient id="paint7_linear_1936_131081" x1="288.564" y1="98.5332" x2="266.312" y2="111.972" gradientUnits="userSpaceOnUse">
<stop stop-color="#858585"/>
<stop offset="0.21" stop-color="#6B6B6B"/>
<stop offset="0.42" stop-color="#505050"/>
<stop offset="0.71" stop-color="#424242"/>
<stop offset="1" stop-color="#333333"/>
</linearGradient>
<linearGradient id="paint8_linear_1936_131081" x1="206.198" y1="60.237" x2="204.095" y2="85.3901" gradientUnits="userSpaceOnUse">
<stop stop-color="#858585"/>
<stop offset="0.21" stop-color="#6B6B6B"/>
<stop offset="0.42" stop-color="#505050"/>
<stop offset="0.71" stop-color="#424242"/>
<stop offset="1" stop-color="#333333"/>
</linearGradient>
<linearGradient id="paint9_linear_1936_131081" x1="254.269" y1="49.5147" x2="246.869" y2="78.7643" gradientUnits="userSpaceOnUse">
<stop stop-color="#858585"/>
<stop offset="0.21" stop-color="#6B6B6B"/>
<stop offset="0.42" stop-color="#505050"/>
<stop offset="0.71" stop-color="#424242"/>
<stop offset="1" stop-color="#333333"/>
</linearGradient>
<linearGradient id="paint10_linear_1936_131081" x1="293.83" y1="71.7339" x2="275.68" y2="92.7336" gradientUnits="userSpaceOnUse">
<stop stop-color="#858585"/>
<stop offset="0.21" stop-color="#6B6B6B"/>
<stop offset="0.42" stop-color="#505050"/>
<stop offset="0.71" stop-color="#424242"/>
<stop offset="1" stop-color="#333333"/>
</linearGradient>
<linearGradient id="paint11_linear_1936_131081" x1="205.751" y1="45.2851" x2="207.851" y2="77.285" gradientUnits="userSpaceOnUse">
<stop stop-color="#858585"/>
<stop offset="0.21" stop-color="#6B6B6B"/>
<stop offset="0.42" stop-color="#505050"/>
<stop offset="0.71" stop-color="#424242"/>
<stop offset="1" stop-color="#333333"/>
</linearGradient>
<linearGradient id="paint12_linear_1936_131081" x1="176.301" y1="118.234" x2="215.664" y2="263.14" gradientUnits="userSpaceOnUse">
<stop stop-opacity="0"/>
<stop offset="0.5" stop-opacity="0.5"/>
<stop offset="1"/>
</linearGradient>
<radialGradient id="paint13_radial_1936_131081" cx="0" cy="0" r="1" gradientUnits="userSpaceOnUse" gradientTransform="translate(208.477 173.671) scale(86.707 86.707)">
<stop stop-color="#333333"/>
<stop offset="0.21" stop-color="#424242"/>
<stop offset="0.42" stop-color="#505050"/>
<stop offset="0.71" stop-color="#6B6B6B"/>
<stop offset="1" stop-color="#858585"/>
</radialGradient>
<radialGradient id="paint14_radial_1936_131081" cx="0" cy="0" r="1" gradientUnits="userSpaceOnUse" gradientTransform="translate(150.365 217.158) scale(67.326 168.315)">
<stop stop-color="#929292"/>
<stop offset="0.48" stop-color="#6A6A6A"/>
<stop offset="1" stop-color="#414141"/>
</radialGradient>
<linearGradient id="paint15_linear_1936_131081" x1="240.506" y1="353.86" x2="240.429" y2="446.86" gradientUnits="userSpaceOnUse">
<stop stop-color="#929292"/>
<stop offset="0.48" stop-color="#6C6C6C"/>
<stop offset="1" stop-color="#464646"/>
</linearGradient>
<linearGradient id="paint16_linear_1936_131081" x1="274.365" y1="425.926" x2="281.372" y2="476.441" gradientUnits="userSpaceOnUse">
<stop stop-color="#929292" stop-opacity="0"/>
<stop offset="0.48" stop-color="#929292" stop-opacity="0.5"/>
<stop offset="1" stop-color="#929292"/>
</linearGradient>
<linearGradient id="paint17_linear_1936_131081" x1="331.798" y1="284.416" x2="368.899" y2="510.416" gradientUnits="userSpaceOnUse">
<stop stop-color="#717070"/>
<stop offset="0.28" stop-color="#555555"/>
<stop offset="0.57" stop-color="#393939"/>
<stop offset="0.78" stop-color="#727272"/>
<stop offset="1" stop-color="#ABABAB"/>
</linearGradient>
<linearGradient id="paint18_linear_1936_131081" x1="315.537" y1="291.174" x2="323.571" y2="343.356" gradientUnits="userSpaceOnUse">
<stop stop-color="white" stop-opacity="0.02"/>
<stop offset="0.13" stop-color="white" stop-opacity="0.51"/>
<stop offset="0.25" stop-color="white"/>
<stop offset="0.63" stop-color="white" stop-opacity="0.525"/>
<stop offset="1" stop-color="white" stop-opacity="0.05"/>
</linearGradient>
<linearGradient id="paint19_linear_1936_131081" x1="315.537" y1="291.174" x2="323.571" y2="343.356" gradientUnits="userSpaceOnUse">
<stop stop-color="#ABABAB"/>
<stop offset="0.5" stop-color="#ABABAB"/>
<stop offset="1" stop-color="#ABABAB"/>
</linearGradient>
<linearGradient id="paint20_linear_1936_131081" x1="257.086" y1="394.632" x2="264.011" y2="440.693" gradientUnits="userSpaceOnUse">
<stop stop-color="#2D2D2D" stop-opacity="0"/>
<stop offset="0.5" stop-color="#2D2D2D" stop-opacity="0.5"/>
<stop offset="1" stop-color="#2D2D2D"/>
</linearGradient>
<linearGradient id="paint21_linear_1936_131081" x1="176.99" y1="396.862" x2="291.004" y2="334.005" gradientUnits="userSpaceOnUse">
<stop stop-color="white"/>
<stop offset="0.5" stop-color="white" stop-opacity="0.5"/>
<stop offset="1" stop-color="white" stop-opacity="0"/>
</linearGradient>
<linearGradient id="paint22_linear_1936_131081" x1="174.739" y1="393.863" x2="297.88" y2="329.882" gradientUnits="userSpaceOnUse">
<stop stop-color="white"/>
<stop offset="0.5" stop-color="white" stop-opacity="0.5"/>
<stop offset="1" stop-color="white" stop-opacity="0"/>
</linearGradient>
<linearGradient id="paint23_linear_1936_131081" x1="181.49" y1="395.113" x2="292.754" y2="326.756" gradientUnits="userSpaceOnUse">
<stop stop-color="white"/>
<stop offset="0.5" stop-color="white" stop-opacity="0.5"/>
<stop offset="1" stop-color="white" stop-opacity="0"/>
</linearGradient>
<linearGradient id="paint24_linear_1936_131081" x1="172.99" y1="393.363" x2="283.254" y2="339.256" gradientUnits="userSpaceOnUse">
<stop stop-color="white"/>
<stop offset="0.5" stop-color="white" stop-opacity="0.5"/>
<stop offset="1" stop-color="white" stop-opacity="0"/>
</linearGradient>
<linearGradient id="paint25_linear_1936_131081" x1="218.989" y1="372.863" x2="281.505" y2="323.756" gradientUnits="userSpaceOnUse">
<stop stop-color="white"/>
<stop offset="0.5" stop-color="white" stop-opacity="0.5"/>
<stop offset="1" stop-color="white" stop-opacity="0"/>
</linearGradient>
<linearGradient id="paint26_linear_1936_131081" x1="218.989" y1="372.864" x2="281.505" y2="323.756" gradientUnits="userSpaceOnUse">
<stop stop-color="white"/>
<stop offset="0.5" stop-color="white" stop-opacity="0.5"/>
<stop offset="1" stop-color="white" stop-opacity="0"/>
</linearGradient>
<linearGradient id="paint27_linear_1936_131081" x1="218.989" y1="372.863" x2="281.505" y2="323.756" gradientUnits="userSpaceOnUse">
<stop stop-color="white"/>
<stop offset="0.5" stop-color="white" stop-opacity="0.5"/>
<stop offset="1" stop-color="white" stop-opacity="0"/>
</linearGradient>
<linearGradient id="paint28_linear_1936_131081" x1="218.989" y1="372.864" x2="281.505" y2="323.757" gradientUnits="userSpaceOnUse">
<stop stop-color="white"/>
<stop offset="0.5" stop-color="white" stop-opacity="0.5"/>
<stop offset="1" stop-color="white" stop-opacity="0"/>
</linearGradient>
<linearGradient id="paint29_linear_1936_131081" x1="218.989" y1="372.864" x2="281.505" y2="323.757" gradientUnits="userSpaceOnUse">
<stop stop-color="white"/>
<stop offset="0.5" stop-color="white" stop-opacity="0.5"/>
<stop offset="1" stop-color="white" stop-opacity="0"/>
</linearGradient>
<radialGradient id="paint30_radial_1936_131081" cx="0" cy="0" r="1" gradientUnits="userSpaceOnUse" gradientTransform="translate(378.746 332.619) scale(87.8974 48.3435)">
<stop stop-color="#9E9E9E"/>
<stop offset="0.64" stop-color="#6F6F6F"/>
<stop offset="1" stop-color="#414141"/>
</radialGradient>
<clipPath id="clip0_1936_131081">
<rect width="512" height="512" fill="white"/>
</clipPath>
</defs>
</svg>
