<svg width="512" height="512" viewBox="0 0 512 512" fill="none" xmlns="http://www.w3.org/2000/svg">
<g clip-path="url(#clip0_1320_101141)">
<mask id="mask0_1320_101141" style="mask-type:luminance" maskUnits="userSpaceOnUse" x="0" y="0" width="512" height="512">
<path d="M512 0H0V512H512V0Z" fill="white"/>
</mask>
<g mask="url(#mask0_1320_101141)">
<path d="M417.597 280.777C416.985 383.496 333.001 465.522 230.015 463.987C127.028 462.451 44.0377 377.937 44.6491 275.217C45.2604 172.498 129.244 90.4717 232.231 92.0073C335.218 93.5428 418.208 178.057 417.597 280.777Z" fill="url(#paint0_radial_1320_101141)"/>
<g opacity="0.4">
<path d="M230.021 463.987C127.032 462.453 44.0365 377.93 44.6532 275.22C44.8476 241.688 51.7417 190.322 108.81 136.506C10.1314 259.547 104.375 374.201 203.919 372.676C315.45 370.966 366.645 266.255 336.197 182.035C328.454 160.617 353.968 153.474 343.029 130.704L344.106 131.035C389.069 165.644 417.954 220.025 417.596 280.774C416.982 383.499 333.002 465.529 230.021 463.987Z" fill="url(#paint1_linear_1320_101141)"/>
</g>
<g opacity="0.4">
<path d="M336.197 182.035C336.197 182.035 352.301 214.235 338.738 272.91C334.012 293.361 376.034 314.257 382.633 274.921C389.233 235.585 375.471 194.795 375.471 194.795L336.197 182.035Z" fill="url(#paint2_linear_1320_101141)"/>
</g>
<g opacity="0.15">
<path d="M417.597 280.774C418.205 178.058 335.217 93.5416 232.23 92.0082C129.241 90.4747 45.262 172.504 44.6539 275.22C44.0373 377.93 127.034 462.453 230.022 463.987C333.003 465.529 416.983 383.499 417.597 280.774ZM230.108 448.873C135.491 447.458 59.2388 369.813 59.8073 275.443C60.3673 181.068 137.52 105.716 232.144 107.122C240.876 107.253 255.363 108.705 263.737 110.088C263.737 110.088 273.683 175.161 350.619 193.68C360.388 196.031 375.95 187.965 375.95 187.965C392.907 214.814 402.646 246.6 402.444 280.551C401.875 374.921 324.715 450.281 230.108 448.873Z" fill="url(#paint3_linear_1320_101141)"/>
</g>
<path d="M417.597 280.777C416.985 383.496 333.001 465.522 230.015 463.987C127.028 462.451 44.0377 377.937 44.6491 275.217C45.2604 172.498 129.244 90.4717 232.231 92.0073C335.218 93.5428 418.208 178.057 417.597 280.777Z" stroke="black" stroke-width="8.62631" stroke-miterlimit="10"/>
<path d="M397.064 190.176C397.064 190.176 420.065 164.79 432.728 148.111C445.391 131.432 427.778 96.7782 390.81 69.5415C354.533 42.8137 327.716 39.797 316.033 53.2349C309.332 60.9408 280.183 96.7484 280.183 96.7484C280.183 96.7484 267.853 128.679 317.129 168.581C369.38 210.892 397.064 190.176 397.064 190.176Z" fill="url(#paint4_linear_1320_101141)"/>
<g opacity="0.15">
<path d="M278.766 116.608L307.394 83.3875C307.394 83.3875 326.431 126.394 382.785 140.374C382.785 140.374 339.065 117.434 315.468 72.9662C313.727 69.6845 311.444 58.6613 311.444 58.6613L278.85 98.2573L278.766 116.608Z" fill="white"/>
</g>
<path d="M433.977 147.073C422.403 162.232 383.841 144.242 356.158 122.018C325.575 97.4816 303.875 64.4977 319.559 48.6683C319.568 48.6597 339.871 33.3929 390.812 69.5458C425.919 94.4621 442.918 135.363 433.977 147.073Z" fill="url(#paint5_linear_1320_101141)"/>
<g opacity="0.4">
<path d="M376.044 133.981L339.227 182.437C339.227 182.437 360.313 195.773 374.391 194.791L408.544 152.071L376.044 133.981Z" fill="#5D3F16"/>
</g>
<path d="M280.183 96.7483C280.183 96.7483 309.331 60.9418 316.031 53.2358C327.715 39.798 354.532 42.8146 390.809 69.5425C427.777 96.7792 445.389 131.432 432.727 148.111C420.064 164.79 397.064 190.177 397.064 190.177" stroke="black" stroke-width="8.62631" stroke-miterlimit="10" stroke-linecap="round"/>
<path d="M280.183 96.7482C270.579 109.361 288.181 146.827 319.049 170.302C348.285 192.537 385.466 202.704 397.064 190.176" stroke="#353D3F" stroke-width="8.62631" stroke-linecap="round" stroke-linejoin="round"/>
<path d="M326.204 175.402C354.072 194.018 386.394 201.701 397.064 190.176" stroke="#2B2920" stroke-width="8.62631" stroke-linecap="round" stroke-linejoin="round"/>
<path d="M392.251 108.259C389.618 111.725 380.773 109.434 372.495 103.144C364.217 96.8542 359.64 88.9464 362.273 85.481C364.906 82.0156 373.751 84.3057 382.029 90.5959C390.307 96.886 394.884 104.794 392.251 108.259Z" fill="#1D1E1E"/>
<path d="M374.16 108.008C374.16 108.008 396.115 79.1013 424.469 86.7057C451.18 93.869 459.931 123.055 451.624 160.892C443.464 198.06 420.219 231.538 420.219 231.538" stroke="#FFBA5F" stroke-width="15.096" stroke-linecap="round" stroke-linejoin="round"/>
<path d="M371.429 104.547C371.429 104.547 396.514 71.5292 429.874 84.0133C438.498 87.2405 471.679 103.447 454.062 168.444C450.512 181.54 443.73 200.755 433.039 219.053" stroke="#CBB18C" stroke-width="6.46973" stroke-linecap="round" stroke-linejoin="round"/>
<g opacity="0.5">
<path d="M451.624 160.891C443.465 198.059 420.22 231.538 420.22 231.538" stroke="#FFEA6C" stroke-width="15.096" stroke-linecap="round" stroke-linejoin="round"/>
</g>
<path d="M435.967 141.475L392.248 108.257C389.612 111.726 380.774 109.44 372.489 103.144C364.211 96.8552 359.64 88.9528 362.275 85.4842L317.646 51.5752C317.077 52.0912 316.546 52.6495 316.033 53.2348C305.93 65.303 325.574 97.4815 356.157 122.018C383.839 144.242 420.678 163.077 432.726 148.112C434.226 146.137 435.298 143.905 435.967 141.475Z" fill="url(#paint6_linear_1320_101141)"/>
<g opacity="0.4">
<path d="M422.013 150.347C415.711 150.081 409.307 147.73 403.587 144.999C398.047 142.354 393.151 139.351 389.616 137.54C385.205 135.281 382.913 134.877 384.133 139.335C384.927 142.24 414.933 151.98 424.022 150.422C433.111 148.865 440.362 137.567 440.362 137.567C440.362 137.567 442.033 151.193 422.013 150.347Z" fill="#666035"/>
</g>
<g opacity="0.3">
<path d="M386.89 109.867L434.068 146.457L435.942 136.467L392.327 102.71L386.89 109.867Z" fill="#1D1E1E"/>
</g>
<path d="M323.052 47.9489C319.153 49.5365 316.033 53.2347 316.033 53.2347C305.938 65.3008 325.58 97.4804 356.153 122.017C383.845 144.241 420.675 163.08 432.728 148.111C432.728 148.111 435.605 144.321 436.209 140.514" stroke="#353D3F" stroke-width="8.62631" stroke-linecap="round" stroke-linejoin="round"/>
<path d="M362.004 126.558C388.808 146.679 421.506 162.047 432.727 148.11C432.727 148.11 435.604 144.32 436.209 140.513" stroke="#2B2920" stroke-width="8.62631" stroke-linecap="round" stroke-linejoin="round"/>
<path d="M432.808 117.866C438.009 129.982 438.291 140.781 432.726 148.111C420.063 164.79 397.064 190.176 397.064 190.176L395.582 191.796L397.821 196.039" stroke="black" stroke-width="8.62631" stroke-linecap="round" stroke-linejoin="round"/>
<path d="M347.85 47.1402C333.337 43.46 322.421 45.8876 316.031 53.2359C309.331 60.9418 280.183 96.7494 280.183 96.7494L278.849 98.2583L274.042 97.4026" stroke="black" stroke-width="8.62631" stroke-linecap="round" stroke-linejoin="round"/>
<path d="M459.597 261.456C443.074 283.203 412.049 287.438 390.302 270.915C368.556 254.392 364.321 223.367 380.844 201.621C397.366 179.874 428.391 175.639 450.138 192.162C471.884 208.685 476.119 239.71 459.597 261.456Z" fill="url(#paint7_radial_1320_101141)"/>
<g opacity="0.1">
<path d="M419.507 230.199L393.624 259.862L398.594 264.815L419.507 230.199Z" fill="#FFFF8D"/>
</g>
<g opacity="0.1">
<path d="M419.958 230.121L377.737 233.647L378.089 237.39L419.958 230.121Z" fill="#FFFF8D"/>
</g>
<g opacity="0.1">
<path d="M421.326 230.258L432.081 278.193L437.254 276.732L421.326 230.258Z" fill="#FFFF8D"/>
</g>
<g opacity="0.1">
<path d="M419.378 230.883L450.295 250.073L453.642 245.754L419.378 230.883Z" fill="#FFFF8D"/>
</g>
<g opacity="0.1">
<path d="M419.379 230.882L461.865 222.781L460.637 218.219L419.379 230.882Z" fill="#FFFF8D"/>
</g>
<g opacity="0.1">
<path d="M419.378 230.882L444.206 196.381L440.462 194.095L419.378 230.882Z" fill="#FFFF8D"/>
</g>
<g opacity="0.1">
<path d="M419.38 230.882L412.599 185.34L405.966 186.295L419.38 230.882Z" fill="#FFFF8D"/>
</g>
<g opacity="0.1">
<path d="M419.378 230.883L383.491 210.074L386.35 205.788L419.378 230.883Z" fill="#FFFF8D"/>
</g>
<g opacity="0.1">
<path d="M420.438 230.051L376.79 216.416L374.679 223.107L420.079 232.125L420.438 230.051Z" fill="#FFFF8D"/>
</g>
<g opacity="0.1">
<path d="M421.321 230.56L400.453 199.213L397.291 201.248L421.321 230.56Z" fill="#FFFF8D"/>
</g>
<g opacity="0.1">
<path d="M420.379 230.397L375.664 249.129L377.732 254.092L420.379 230.397Z" fill="#FFFF8D"/>
</g>
<g opacity="0.1">
<path d="M420.379 230.397L410.857 272.957L416.233 273.941L420.379 230.397Z" fill="#FFFF8D"/>
</g>
<g opacity="0.1">
<path d="M420.379 230.397L447.118 264.392L450.604 261.203L420.379 230.397Z" fill="#FFFF8D"/>
</g>
<g opacity="0.1">
<path d="M420.379 230.397L467.912 238.425L468.219 234.049L420.379 230.397Z" fill="#FFFF8D"/>
</g>
<g opacity="0.1">
<path d="M420.378 230.396L451.498 212.517L447.597 207.069L420.378 230.396Z" fill="#FFFF8D"/>
</g>
<g opacity="0.1">
<path d="M420.379 230.397L422.344 188.959L427.464 189.527L420.379 230.397Z" fill="#FFFF8D"/>
</g>
<path d="M414.727 226.315L397.363 230.347L415.293 232.211L404.555 246.343L418.685 236.05L423.337 252.623L424.775 236.893L437.615 239.919L426.416 231.41L433.084 214.607L423.515 224.158L419.705 212.012L418.282 223.294L409.483 216.609L414.727 226.315Z" fill="white"/>
</g>
</g>
<defs>
<radialGradient id="paint0_radial_1320_101141" cx="0" cy="0" r="1" gradientUnits="userSpaceOnUse" gradientTransform="translate(191.429 256.026) rotate(0.264) scale(242.663 242.663)">
<stop stop-color="#969295"/>
<stop offset="0.28" stop-color="#6A717C"/>
<stop offset="0.52" stop-color="#3E5063"/>
<stop offset="0.77" stop-color="#383C39"/>
<stop offset="1" stop-color="#322810"/>
</radialGradient>
<linearGradient id="paint1_linear_1320_101141" x1="229.559" y1="455.039" x2="230.757" y2="194.868" gradientUnits="userSpaceOnUse">
<stop offset="0.09"/>
<stop offset="0.45" stop-opacity="0.5"/>
<stop offset="0.77" stop-opacity="0"/>
</linearGradient>
<linearGradient id="paint2_linear_1320_101141" x1="365.106" y1="208.428" x2="354" y2="302.733" gradientUnits="userSpaceOnUse">
<stop stop-color="#695B00"/>
<stop offset="0.64" stop-color="#695B00" stop-opacity="0.5"/>
<stop offset="1" stop-color="#695B00" stop-opacity="0"/>
</linearGradient>
<linearGradient id="paint3_linear_1320_101141" x1="204.997" y1="139.436" x2="260.209" y2="421.563" gradientUnits="userSpaceOnUse">
<stop stop-color="white"/>
<stop offset="0.52" stop-color="white" stop-opacity="0.5"/>
<stop offset="1" stop-color="white" stop-opacity="0"/>
</linearGradient>
<linearGradient id="paint4_linear_1320_101141" x1="300.872" y1="74.1304" x2="409.403" y2="154.527" gradientUnits="userSpaceOnUse">
<stop stop-color="#3E5063"/>
<stop offset="0.13" stop-color="#4B5661"/>
<stop offset="0.31" stop-color="#585D5F"/>
<stop offset="0.47" stop-color="#454640"/>
<stop offset="0.62" stop-color="#312E21"/>
<stop offset="0.83" stop-color="#342A1A"/>
<stop offset="1" stop-color="#362613"/>
</linearGradient>
<linearGradient id="paint5_linear_1320_101141" x1="307.586" y1="54.9999" x2="432.627" y2="155.679" gradientUnits="userSpaceOnUse">
<stop offset="0.39" stop-color="#3E5063"/>
<stop offset="0.55" stop-color="#434953"/>
<stop offset="0.67" stop-color="#474344"/>
</linearGradient>
<linearGradient id="paint6_linear_1320_101141" x1="311.076" y1="55.5454" x2="436.683" y2="150.296" gradientUnits="userSpaceOnUse">
<stop offset="0.39" stop-color="#3E5063"/>
<stop offset="0.55" stop-color="#434953"/>
<stop offset="0.67" stop-color="#474344"/>
</linearGradient>
<radialGradient id="paint7_radial_1320_101141" cx="0" cy="0" r="1" gradientUnits="userSpaceOnUse" gradientTransform="translate(421.619 229.27) rotate(0.264) scale(52.0742)">
<stop offset="0.07" stop-color="#FFFDFB"/>
<stop offset="0.22" stop-color="#FEFE81"/>
<stop offset="0.38" stop-color="#FDFF06"/>
<stop offset="0.57" stop-color="#F4B90D" stop-opacity="0.8"/>
<stop offset="0.71" stop-color="#EB7314" stop-opacity="0.6"/>
<stop offset="0.89" stop-color="#F5B989" stop-opacity="0.3"/>
<stop offset="1" stop-color="white" stop-opacity="0"/>
</radialGradient>
<clipPath id="clip0_1320_101141">
<rect width="512" height="512" fill="white"/>
</clipPath>
</defs>
</svg>
