<svg width="513" height="513" viewBox="0 0 513 513" fill="none" xmlns="http://www.w3.org/2000/svg">
<g clip-path="url(#clip0_2048_28596)">
<mask id="mask0_2048_28596" style="mask-type:luminance" maskUnits="userSpaceOnUse" x="0" y="0" width="513" height="513">
<path d="M512.516 0.475586H0.516418V512.476H512.516V0.475586Z" fill="white"/>
</mask>
<g mask="url(#mask0_2048_28596)">
<path d="M264.553 253.105C277.466 215.294 301.886 160.788 349.339 115.178C397.474 68.9122 459.773 68.5733 462.363 92.0895C465.579 121.292 413.377 121.547 418.59 232.486C418.826 254.01 385.576 260.088 385.576 260.088C385.576 260.088 419.357 282.146 417.636 307.503C417.392 311.1 389.64 408.038 352.791 430.188C324.414 447.246 280.597 348.454 279.098 333.222C284.598 287.866 265.022 253.037 264.553 253.105Z" fill="url(#paint0_radial_2048_28596)"/>
<path d="M264.553 253.105C277.466 215.294 301.886 160.788 349.339 115.178C397.474 68.9122 464.011 67.9939 465.379 93.7385C466.219 109.538 412.052 122.234 417.266 233.173C417.502 254.697 385.576 260.088 385.576 260.088L264.553 253.105Z" fill="url(#paint1_radial_2048_28596)"/>
<g opacity="0.52">
<path d="M406.503 284.751C408.635 296.836 378.017 299.86 353.181 283.311" stroke="#00BCFF" stroke-width="5.31863" stroke-linecap="round" stroke-linejoin="round"/>
</g>
<g opacity="0.52">
<path d="M321.591 319.307L386.955 385.868" stroke="#0074DD" stroke-width="5.31863" stroke-linecap="round" stroke-linejoin="round"/>
</g>
<g opacity="0.52">
<path d="M410.269 324.4C406.405 336.55 377.741 335.516 365.594 321.521" stroke="#0098FF" stroke-width="5.31863" stroke-linecap="round" stroke-linejoin="round"/>
</g>
<g opacity="0.52">
<path d="M321.374 360.344C329.45 367.657 349.895 409.143 338.694 420.7" stroke="#0068C6" stroke-width="5.31863" stroke-linecap="round" stroke-linejoin="round"/>
</g>
<path d="M372.409 213.815C390.674 229.883 380.051 253.674 354.122 259" stroke="#00B3EA" stroke-width="5.31863" stroke-linecap="round" stroke-linejoin="round"/>
<path d="M375.921 169.378C403.892 172.3 393.319 206.525 372.409 213.815" stroke="#00A4E5" stroke-width="5.31863" stroke-linecap="round" stroke-linejoin="round"/>
<path d="M335.569 135.509C358.289 111.046 408.313 115.548 375.92 169.379" stroke="#007DCC" stroke-width="5.31863" stroke-linecap="round" stroke-linejoin="round"/>
<path d="M414.317 207.305C384.335 207.63 297.993 229.794 267.097 254.832" stroke="#21A4E6" stroke-width="5.31863" stroke-linecap="round" stroke-linejoin="round"/>
<g opacity="0.51">
<path d="M352.7 117.832C385.189 85.2244 438.088 123.227 375.921 169.378C291.318 232.184 267.097 254.832 267.097 254.832C267.097 254.832 280.201 190.597 352.7 117.832Z" fill="url(#paint2_radial_2048_28596)"/>
</g>
<path d="M277.986 272.243C284.063 279.577 349.794 339.182 321.374 360.344C285.389 387.139 277.986 272.243 277.986 272.243Z" stroke="#00A4E5" stroke-width="5.31863" stroke-linecap="round" stroke-linejoin="round"/>
<path d="M438.557 108.829C403.807 160.331 290.975 227.852 267.097 254.832" stroke="#00A4E5" stroke-width="5.31863" stroke-linecap="round" stroke-linejoin="round"/>
<g opacity="0.55">
<path d="M401.217 86.1381C412.726 82.4255 427.695 80.9377 434.174 93.8532C442.135 109.724 420.647 121.948 412.073 150.294C402.856 180.77 403.478 215.506 404.871 227.462C406.61 242.394 389.305 255.787 389.305 255.787" stroke="#1FB0DD" stroke-width="7.0915" stroke-linecap="round" stroke-linejoin="round"/>
</g>
<path d="M267.097 254.832C287.556 253.751 386.427 276.896 365.593 321.52C345.162 365.283 267.097 254.832 267.097 254.832Z" stroke="#00A4E5" stroke-width="5.31863" stroke-linecap="round" stroke-linejoin="round"/>
<path d="M266.241 254.431C264.101 241.674 338.991 83.0007 384.102 125.564C419.593 159.052 405.634 267.404 369.63 264.298C324.61 260.414 275.619 259.039 266.241 254.431Z" fill="url(#paint3_radial_2048_28596)"/>
<g opacity="0.91">
<path d="M271.199 257.82C281.045 259.367 357.599 249.805 366.82 273.41C386.076 322.705 319.24 406.188 294.021 359.225C283.639 339.892 271.199 257.82 271.199 257.82Z" fill="url(#paint4_radial_2048_28596)"/>
</g>
<path d="M271.134 259.618C298.809 260.99 294.485 261.306 313.72 260.1C337.931 258.584 332.79 225.043 313.886 209.689C294.982 194.335 286.963 202.661 275.323 224.143C263.582 245.809 265.281 259.328 271.134 259.618Z" fill="url(#paint5_radial_2048_28596)"/>
<path d="M381.912 260.128C361.731 253.059 278.426 268.323 267.097 254.833" stroke="#00B7EF" stroke-width="5.31863" stroke-linecap="round" stroke-linejoin="round"/>
<path d="M321.473 207.489C338.661 215.077 354.225 260.703 336.371 261.648C318.415 262.599 272.43 267.631 266.258 256C257.346 254.048 321.473 207.489 321.473 207.489Z" fill="url(#paint6_radial_2048_28596)"/>
<g opacity="0.43">
<path d="M405.144 282.412C411.579 293.142 389.877 430.551 330.684 419.441" stroke="#00B1FF" stroke-width="7.0915" stroke-linecap="round" stroke-linejoin="round"/>
</g>
<g opacity="0.3">
<path d="M442.145 88.248C453.19 100.52 416.553 148.348 419.224 162.737C398.942 187.983 309.484 209.572 282.944 207.861C327.474 126.456 420.507 64.2062 442.145 88.248Z" fill="white"/>
</g>
<path d="M350.023 111.105C402.316 60.7854 465.866 62.494 469.943 91.9494C471.29 101.676 461.699 106.854 454.212 115.664C450.848 119.623 451.355 125.558 447.522 130.809C444.231 135.317 436.625 139.399 433.549 145.487C431.242 150.052 433.36 156.212 431.428 161.952C429.629 167.294 424.555 173.343 423.265 179.906C422.24 185.118 424.912 192.715 424.307 198.808C423.786 204.063 419.493 211.45 419.345 217.428C419.184 223.923 423.18 226.964 423.528 234.392C423.764 255.916 385.832 260.363 385.832 260.363C385.832 260.363 424.72 283.278 423.007 308.395C422.625 314.005 416.768 316.132 416.035 320.803C415.282 325.606 419.564 331.089 418.467 336.58C417.369 342.078 410.984 344.829 409.477 350.697C408.35 355.092 412.196 362.557 410.808 367.003C409.111 372.443 401.933 374.659 399.803 379.953C397.934 384.597 401.167 392.349 398.93 396.704C396.534 401.37 389.159 400.404 386.301 404.541C383.599 408.453 385.441 417.501 382.293 420.762C378.253 424.945 369.813 421.492 364.973 424.28C361.263 426.418 361.344 434.871 355.783 436.937C326.992 447.633 286.757 380.73 275.788 332.415C280.47 289.735 269.485 267.184 264.835 258.584C263.404 255.938 263.049 252.841 263.863 249.942C276.797 203.868 304.221 155.18 350.023 111.105ZM291.208 329.776C294.62 364.364 313.965 426.687 349.213 417.687C353.359 416.629 356.304 412.971 359.928 410.471C363.551 407.972 369.03 408.142 372.158 404.498C374.452 401.826 374.274 395.922 376.314 392.772C378.561 389.304 383.025 388.098 384.976 384.201C386.948 380.264 386.678 374.436 388.363 370.222C389.793 366.644 393.542 364.026 394.775 360.357C396.519 355.171 394.721 349.645 396.092 344.516C397.223 340.286 401.024 336.037 401.917 332.019C402.996 327.161 401.2 322.749 401.954 318.454C402.818 313.535 405.212 308.846 405.684 305.058C408.22 284.701 389.39 271.279 376.806 264.679C373.39 262.887 373.764 257.844 377.408 256.597C389.534 252.449 407.008 244.316 406.873 231.932C406.472 226.667 405.465 221.277 405.308 216.493C405.056 208.815 407.4 202.652 407.693 196.12C408.011 189.017 406.078 181.861 406.913 175.97C408.082 167.724 412.273 161.764 414.142 155.545C416.434 147.921 416.2 139.277 418.936 134.015C423.235 125.745 428.983 121.3 432.249 116.471C434.343 113.376 435.957 110.688 436.748 108.02C437.728 104.716 437.445 101.444 435.246 97.4726C423.066 75.4694 386.523 92.2111 344.218 132.942C302.512 173.096 280.138 220.67 268.79 253.958C268.79 253.958 285.984 276.842 291.208 329.776Z" fill="url(#paint7_linear_2048_28596)"/>
<path d="M450.384 94.8791C451.246 97.4787 454.031 98.8825 456.606 98.0138C459.181 97.145 460.571 94.3331 459.709 91.7335C458.848 89.134 456.062 87.7301 453.487 88.5989C450.913 89.4676 449.523 92.2796 450.384 94.8791Z" fill="white"/>
<g opacity="0.9">
<path d="M436.066 124.546C436.706 126.476 438.773 127.517 440.685 126.872C442.597 126.227 443.627 124.14 442.988 122.21C442.348 120.28 440.281 119.238 438.369 119.884C436.457 120.529 435.427 122.615 436.066 124.546Z" fill="white"/>
</g>
<g opacity="0.8">
<path d="M419.145 160.253C419.785 162.183 421.852 163.224 423.764 162.579C425.676 161.934 426.706 159.847 426.067 157.917C425.427 155.987 423.36 154.945 421.448 155.591C419.536 156.236 418.506 158.322 419.145 160.253Z" fill="white"/>
</g>
<g opacity="0.7">
<path d="M412.265 198.004C412.905 199.935 414.972 200.976 416.884 200.331C418.796 199.686 419.826 197.599 419.187 195.669C418.547 193.738 416.48 192.697 414.568 193.342C412.656 193.988 411.625 196.074 412.265 198.004Z" fill="white"/>
</g>
<g opacity="0.6">
<path d="M411.575 236.635C412.215 238.566 414.282 239.607 416.194 238.962C418.106 238.316 419.136 236.23 418.496 234.299C417.857 232.369 415.79 231.328 413.878 231.973C411.966 232.618 410.935 234.705 411.575 236.635Z" fill="white"/>
</g>
<g opacity="0.5">
<path d="M410.938 307.784C411.565 309.681 413.598 310.704 415.476 310.071C417.355 309.437 418.367 307.386 417.74 305.489C417.112 303.593 415.079 302.57 413.201 303.203C411.322 303.836 410.31 305.888 410.938 307.784Z" fill="#9F1100"/>
</g>
<g opacity="0.6">
<path d="M406.456 335.928C407.084 337.825 409.116 338.847 410.995 338.214C412.873 337.581 413.886 335.529 413.258 333.633C412.63 331.736 410.598 330.713 408.719 331.346C406.841 331.98 405.828 334.031 406.456 335.928Z" fill="#9F1100"/>
</g>
<g opacity="0.7">
<path d="M398.786 365.718C399.413 367.615 401.446 368.638 403.324 368.005C405.203 367.371 406.215 365.32 405.588 363.423C404.96 361.526 402.927 360.504 401.049 361.137C399.17 361.77 398.158 363.822 398.786 365.718Z" fill="#9F1100"/>
</g>
<g opacity="0.8">
<path d="M387.87 392.016C388.497 393.912 390.53 394.935 392.408 394.302C394.287 393.669 395.299 391.617 394.671 389.721C394.044 387.824 392.011 386.801 390.133 387.434C388.254 388.067 387.242 390.119 387.87 392.016Z" fill="#9F1100"/>
</g>
<g opacity="0.9">
<path d="M372.321 414.742C372.949 416.638 374.982 417.661 376.86 417.028C378.739 416.395 379.751 414.343 379.123 412.446C378.495 410.55 376.463 409.527 374.584 410.16C372.706 410.793 371.694 412.845 372.321 414.742Z" fill="#9F1100"/>
</g>
<path d="M347.892 428.484C348.52 430.381 350.553 431.403 352.431 430.77C354.31 430.137 355.322 428.085 354.694 426.189C354.067 424.292 352.034 423.269 350.155 423.903C348.277 424.536 347.265 426.587 347.892 428.484Z" fill="#9F1100"/>
<path d="M225.454 121.759C246.191 140.145 225.455 160.325 252.502 198.891" stroke="#070707" stroke-width="5.35801" stroke-linecap="round" stroke-linejoin="round"/>
<path d="M225.454 121.759C237.478 132.42 235.558 143.685 237.096 158.788" stroke="#47413D" stroke-width="5.35801" stroke-linecap="round" stroke-linejoin="round"/>
<path d="M226.164 114.805C227.384 116.018 228.477 119.546 229.206 122.437C229.705 124.412 227.901 126.21 225.914 125.717C223.007 124.996 219.459 123.913 218.238 122.701C216.046 120.524 216.044 116.992 218.232 114.812C220.42 112.631 223.972 112.629 226.164 114.805Z" fill="#070707"/>
<path d="M287.567 121.759C266.83 140.145 287.566 160.325 260.519 198.891" stroke="#070707" stroke-width="5.35801" stroke-linecap="round" stroke-linejoin="round"/>
<path d="M287.567 121.759C275.543 132.42 277.463 143.685 275.925 158.789" stroke="#47413D" stroke-width="5.35801" stroke-linecap="round" stroke-linejoin="round"/>
<path d="M286.871 114.806C285.65 116.018 284.558 119.546 283.828 122.437C283.33 124.412 285.134 126.21 287.12 125.717C290.028 124.996 293.576 123.914 294.796 122.701C296.988 120.525 296.991 116.992 294.803 114.812C292.614 112.631 289.062 112.629 286.871 114.806Z" fill="#070707"/>
<path d="M263.799 212.776C265.649 210.936 270.442 205.449 270.442 200.306C270.442 196.558 264.623 192.282 256.967 192.282C249.311 192.282 242.381 195.382 242.381 199.634C242.381 204.632 247.964 210.752 249.79 212.568C246.736 221.984 241.433 240.411 241.415 259.052C241.392 281.896 248.136 333.319 256.799 333.781C264.018 334.166 271.67 281.339 271.618 258.604C271.574 239.536 266.954 221.115 263.799 212.776Z" fill="#827770"/>
<path d="M256.967 192.282C249.311 192.282 241.705 194.372 241.705 198.625C241.705 203.623 247.964 210.752 249.79 212.568C246.736 221.984 241.433 240.412 241.415 259.052C241.392 281.897 248.136 333.32 256.799 333.782C256.581 333.493 256.918 192.906 256.967 192.282Z" fill="#3F3A37"/>
<path d="M263.799 212.776C265.649 210.936 282.051 189.543 256.968 192.282C249.317 192.012 242.768 192.234 243.219 198.737C243.564 203.724 247.965 210.752 249.791 212.568C246.737 221.984 243.427 239.515 243.41 258.156C243.387 281 251.689 306.138 256.742 306.138C261.795 306.138 269.402 280.554 269.35 257.819C269.306 238.752 266.954 221.115 263.799 212.776Z" fill="#47423E"/>
<g opacity="0.55">
<path d="M256.016 219.69C259.635 219.69 262.568 239.461 262.568 263.85C262.568 288.24 259.635 308.011 256.016 308.011C252.397 308.011 249.464 288.24 249.464 263.85C249.464 239.461 252.397 219.69 256.016 219.69Z" fill="url(#paint8_radial_2048_28596)"/>
</g>
<path d="M256.968 192.282C249.317 192.012 242.768 192.234 243.218 198.737C243.564 203.724 247.964 210.752 249.79 212.568C246.736 221.984 243.427 239.515 243.409 258.156C243.386 281 251.689 306.138 256.742 306.138C256.581 306.138 256.807 191.786 256.968 192.282Z" fill="#1E1E1B"/>
<path d="M246.148 203.725C246.599 208.434 258.32 220.093 267.787 203.725C256.356 208.434 246.148 203.725 246.148 203.725Z" fill="#827770"/>
<path d="M246.147 203.725C246.424 206.614 251.155 212.147 256.791 212.193C256.793 212.276 256.86 205.687 256.863 205.817C250.634 205.744 246.147 203.725 246.147 203.725Z" fill="#3F3A37"/>
<path d="M256.029 333.782C245.048 333.43 241.686 281.764 241.933 259.498C242.153 239.793 246.845 221.359 250.092 212.776C248.243 210.936 241.662 203.767 241.662 198.624C241.662 194.877 246.226 189.992 256.37 193.804C266.513 189.992 271.167 194.877 271.167 198.624C271.167 203.767 264.586 210.936 262.736 212.776C265.984 221.359 270.676 239.793 270.896 259.498C271.143 281.764 267.781 333.43 256.799 333.782H256.029Z" stroke="#1C1C1A" stroke-width="7.14398" stroke-linecap="round" stroke-linejoin="round"/>
<path d="M256.799 333.782H256.03C245.049 333.43 241.687 281.764 241.934 259.498C242.153 239.793 246.846 221.359 250.093 212.776C248.243 210.936 241.663 203.767 241.663 198.624C241.663 194.877 246.226 189.992 256.37 193.804" stroke="#070707" stroke-width="7.14398" stroke-linecap="round" stroke-linejoin="round"/>
<path d="M248.032 253.105C235.119 215.294 210.699 160.788 163.246 115.178C115.111 68.9122 52.812 68.5733 50.2225 92.0895C47.0059 121.292 99.2079 121.547 93.9946 232.486C93.7587 254.01 127.009 260.088 127.009 260.088C127.009 260.088 93.2281 282.146 94.9495 307.503C95.1933 311.1 122.945 408.038 159.794 430.188C188.171 447.246 231.988 348.454 233.487 333.222C227.987 287.866 247.563 253.037 248.032 253.105Z" fill="url(#paint9_radial_2048_28596)"/>
<path d="M248.032 253.105C235.119 215.294 210.699 160.788 163.246 115.178C115.111 68.9122 48.5737 67.9939 47.2055 93.7385C46.3662 109.538 100.533 122.234 95.3193 233.173C95.0834 254.697 127.009 260.088 127.009 260.088L248.032 253.105Z" fill="url(#paint10_radial_2048_28596)"/>
<g opacity="0.52">
<path d="M106.082 284.751C103.95 296.836 134.568 299.86 159.404 283.311" stroke="#00BCFF" stroke-width="5.31863" stroke-linecap="round" stroke-linejoin="round"/>
</g>
<g opacity="0.52">
<path d="M190.994 319.307L125.63 385.868" stroke="#007FF2" stroke-width="5.31863" stroke-linecap="round" stroke-linejoin="round"/>
</g>
<g opacity="0.52">
<path d="M102.316 324.4C106.18 336.55 134.844 335.516 146.991 321.521" stroke="#0098FF" stroke-width="5.31863" stroke-linecap="round" stroke-linejoin="round"/>
</g>
<g opacity="0.52">
<path d="M191.211 360.344C183.135 367.657 162.69 409.143 173.891 420.7" stroke="#0077E3" stroke-width="5.31863" stroke-linecap="round" stroke-linejoin="round"/>
</g>
<path d="M140.176 213.815C121.911 229.883 132.534 253.674 158.463 259" stroke="#00B3EA" stroke-width="5.31863" stroke-linecap="round" stroke-linejoin="round"/>
<path d="M136.664 169.378C108.693 172.3 119.266 206.525 140.176 213.815" stroke="#00A4E5" stroke-width="5.31863" stroke-linecap="round" stroke-linejoin="round"/>
<path d="M177.016 135.509C154.296 111.046 104.272 115.548 136.665 169.379" stroke="#007DCC" stroke-width="5.31863" stroke-linecap="round" stroke-linejoin="round"/>
<path d="M98.2681 207.305C128.25 207.63 213.831 229.171 244.727 254.209" stroke="#21A4E6" stroke-width="5.31863" stroke-linecap="round" stroke-linejoin="round"/>
<g opacity="0.51">
<path d="M159.885 117.832C127.396 85.2244 74.497 123.227 136.664 169.378C221.267 232.184 245.488 254.832 245.488 254.832C245.488 254.832 232.384 190.597 159.885 117.832Z" fill="url(#paint11_radial_2048_28596)"/>
</g>
<path d="M234.599 272.243C228.522 279.577 162.791 339.182 191.211 360.344C227.196 387.139 234.599 272.243 234.599 272.243Z" stroke="#00A4E5" stroke-width="5.31863" stroke-linecap="round" stroke-linejoin="round"/>
<path d="M74.0275 108.829C108.778 160.331 220.256 226.089 244.134 253.069" stroke="#00A4E5" stroke-width="5.31863" stroke-linecap="round" stroke-linejoin="round"/>
<g opacity="0.55">
<path d="M111.368 86.1381C99.859 82.4255 84.8897 80.9377 78.4107 93.8532C70.4497 109.724 91.9379 121.948 100.512 150.294C109.73 180.77 109.107 215.506 107.714 227.462C105.975 242.394 123.28 255.787 123.28 255.787" stroke="#1FB0DD" stroke-width="7.0915" stroke-linecap="round" stroke-linejoin="round"/>
</g>
<path d="M243.843 255.813C223.384 254.732 126.158 276.896 146.992 321.52C167.423 365.283 243.843 255.813 243.843 255.813Z" stroke="#00A4E5" stroke-width="5.31863" stroke-linecap="round" stroke-linejoin="round"/>
<path d="M246.344 254.431C248.484 241.674 173.594 83.0007 128.483 125.564C92.9915 159.052 106.951 267.404 142.955 264.298C187.975 260.414 236.966 259.039 246.344 254.431Z" fill="url(#paint12_radial_2048_28596)"/>
<g opacity="0.91">
<path d="M241.386 257.82C231.54 259.367 154.986 249.805 145.765 273.41C126.509 322.705 193.345 406.188 218.564 359.225C228.946 339.892 241.386 257.82 241.386 257.82Z" fill="url(#paint13_radial_2048_28596)"/>
</g>
<path d="M241.451 259.618C213.776 260.99 218.1 261.306 198.865 260.1C174.654 258.584 179.795 225.043 198.699 209.689C217.603 194.335 225.622 202.661 237.262 224.143C249.003 245.809 247.304 259.328 241.451 259.618Z" fill="url(#paint14_radial_2048_28596)"/>
<path d="M130.673 260.128C150.854 253.059 232.758 268.367 244.087 254.877" stroke="#00B7EF" stroke-width="5.31863" stroke-linecap="round" stroke-linejoin="round"/>
<path d="M191.112 207.489C173.924 215.077 158.359 260.703 176.214 261.648C194.17 262.599 240.155 267.631 246.327 256C255.238 254.048 191.112 207.489 191.112 207.489Z" fill="url(#paint15_radial_2048_28596)"/>
<g opacity="0.43">
<path d="M107.441 282.412C101.006 293.142 122.708 430.551 181.901 419.441" stroke="#00B1FF" stroke-width="7.0915" stroke-linecap="round" stroke-linejoin="round"/>
</g>
<g opacity="0.3">
<path d="M70.4397 88.248C59.3949 100.52 96.0262 147.735 93.3548 162.124C113.637 187.371 202.666 208.886 229.205 207.176C184.673 125.917 92.0783 64.2062 70.4397 88.248Z" fill="white"/>
</g>
<path d="M240.465 244.455C244.924 255.104 240.069 259.197 238.201 263.677C242.832 264.023 247.613 257.328 248.272 254.725C249.436 250.119 240.072 243.516 240.465 244.455Z" fill="#161615"/>
<path d="M221.377 329.776C217.965 364.364 198.62 426.687 163.372 417.687C159.226 416.629 156.28 412.971 152.657 410.471C149.034 407.972 143.555 408.142 140.427 404.498C138.133 401.826 138.311 395.922 136.271 392.772C134.024 389.304 129.56 388.098 127.609 384.201C125.637 380.264 125.907 374.436 124.222 370.222C122.791 366.644 119.043 364.026 117.81 360.357C116.066 355.171 117.864 349.645 116.493 344.516C115.362 340.286 111.561 336.037 110.668 332.019C109.589 327.161 111.385 322.749 110.631 318.454C109.767 313.535 107.373 308.846 106.901 305.058C104.365 284.701 123.195 271.279 135.779 264.679C139.195 262.887 138.821 257.844 135.177 256.597C123.051 252.449 105.577 244.316 105.712 231.932C106.113 226.667 107.12 221.277 107.277 216.493C107.529 208.815 105.185 202.652 104.892 196.12C104.574 189.017 106.507 181.861 105.672 175.97C104.503 167.724 100.312 161.764 98.4432 155.545C96.1511 147.921 96.3854 139.277 93.6494 134.015C89.3497 125.745 83.602 121.3 80.3361 116.471C78.242 113.376 76.6283 110.688 75.8372 108.02C74.8573 104.716 75.14 101.444 77.3387 97.4726C89.5186 75.4694 126.062 92.2111 168.367 132.942C210.073 173.096 232.447 220.67 243.795 253.958C243.795 253.958 226.601 276.842 221.377 329.776ZM162.562 111.105C110.269 60.7854 46.7194 62.494 42.6416 91.9494C41.2954 101.676 50.8864 106.854 58.3731 115.664C61.7371 119.623 61.2301 125.558 65.0634 130.809C68.3543 135.317 75.9599 139.399 79.0359 145.487C81.3433 150.052 79.2254 156.212 81.1574 161.952C82.956 167.294 88.0299 173.343 89.3203 179.906C90.3448 185.118 87.673 192.715 88.2776 198.808C88.7988 204.063 93.0922 211.45 93.2402 217.428C93.4011 223.923 89.4054 226.964 89.0567 234.392C88.8208 255.916 126.753 260.363 126.753 260.363C126.753 260.363 87.8646 283.278 89.578 308.395C89.9603 314.005 95.8174 316.132 96.5497 320.803C97.3026 325.606 93.0208 331.089 94.1182 336.58C95.2164 342.078 101.601 344.829 103.107 350.697C104.235 355.092 100.389 362.557 101.777 367.003C103.474 372.443 110.652 374.659 112.782 379.953C114.651 384.597 111.418 392.349 113.655 396.704C116.051 401.37 123.426 400.404 126.284 404.541C128.986 408.453 127.144 417.501 130.292 420.762C134.332 424.945 142.772 421.492 147.612 424.28C151.322 426.418 151.241 434.871 156.802 436.937C185.593 447.633 225.828 380.73 236.797 332.415C232.114 289.735 243.759 267.229 248.41 258.628C249.841 255.982 250.196 252.886 249.381 249.986C236.447 203.913 208.364 155.18 162.562 111.105Z" fill="url(#paint16_linear_2048_28596)"/>
<path d="M62.2006 94.8791C61.3393 97.4787 58.5535 98.8825 55.9788 98.0138C53.4041 97.145 52.0144 94.3331 52.8758 91.7335C53.7372 89.134 56.5229 87.7301 59.0976 88.5989C61.6723 89.4676 63.062 92.2796 62.2006 94.8791Z" fill="white"/>
<g opacity="0.9">
<path d="M76.5188 124.546C75.8792 126.476 73.812 127.517 71.9001 126.872C69.9882 126.227 68.9577 124.14 69.5973 122.21C70.2369 120.28 72.3041 119.238 74.216 119.884C76.1279 120.529 77.1584 122.615 76.5188 124.546Z" fill="white"/>
</g>
<g opacity="0.8">
<path d="M93.4397 160.253C92.8001 162.183 90.7329 163.224 88.821 162.579C86.9091 161.934 85.8786 159.847 86.5182 157.917C87.1578 155.987 89.225 154.945 91.1369 155.591C93.0488 156.236 94.0793 158.322 93.4397 160.253Z" fill="white"/>
</g>
<g opacity="0.7">
<path d="M100.32 198.004C99.6802 199.935 97.6131 200.976 95.7012 200.331C93.7893 199.686 92.7587 197.599 93.3983 195.669C94.038 193.738 96.1051 192.697 98.017 193.342C99.9289 193.988 100.959 196.074 100.32 198.004Z" fill="white"/>
</g>
<g opacity="0.6">
<path d="M101.01 236.635C100.37 238.566 98.3033 239.607 96.3914 238.962C94.4795 238.316 93.4489 236.23 94.0885 234.299C94.7281 232.369 96.7953 231.328 98.7072 231.973C100.619 232.618 101.65 234.705 101.01 236.635Z" fill="white"/>
</g>
<g opacity="0.5">
<path d="M101.647 307.784C101.02 309.681 98.987 310.704 97.1085 310.071C95.23 309.437 94.2176 307.386 94.8454 305.489C95.4732 303.593 97.5057 302.57 99.3842 303.203C101.263 303.836 102.275 305.888 101.647 307.784Z" fill="#D61600"/>
</g>
<g opacity="0.6">
<path d="M106.129 335.928C105.501 337.825 103.469 338.847 101.59 338.214C99.7116 337.581 98.6991 335.529 99.3269 333.633C99.9547 331.736 101.987 330.713 103.866 331.346C105.744 331.98 106.757 334.031 106.129 335.928Z" fill="#D61600"/>
</g>
<g opacity="0.7">
<path d="M113.799 365.718C113.172 367.615 111.139 368.638 109.261 368.005C107.382 367.371 106.37 365.32 106.997 363.423C107.625 361.526 109.658 360.504 111.536 361.137C113.415 361.77 114.427 363.822 113.799 365.718Z" fill="#D61600"/>
</g>
<g opacity="0.8">
<path d="M124.715 392.016C124.088 393.912 122.055 394.935 120.177 394.302C118.298 393.669 117.286 391.617 117.913 389.721C118.541 387.824 120.574 386.801 122.452 387.434C124.331 388.067 125.343 390.119 124.715 392.016Z" fill="#D61600"/>
</g>
<g opacity="0.9">
<path d="M140.264 414.742C139.636 416.638 137.603 417.661 135.725 417.028C133.846 416.395 132.834 414.343 133.462 412.446C134.089 410.55 136.122 409.527 138.001 410.16C139.879 410.793 140.891 412.845 140.264 414.742Z" fill="#D61600"/>
</g>
<path d="M164.693 428.484C164.065 430.381 162.032 431.403 160.154 430.77C158.275 430.137 157.263 428.085 157.891 426.189C158.519 424.292 160.551 423.269 162.43 423.903C164.308 424.536 165.321 426.587 164.693 428.484Z" fill="#D61600"/>
<path d="M264.553 253.105C277.466 215.294 301.886 160.788 349.339 115.178C397.474 68.9122 459.773 68.5733 462.363 92.0895C465.579 121.292 413.377 121.547 418.59 232.486C418.826 254.01 385.576 260.088 385.576 260.088C385.576 260.088 419.357 282.146 417.636 307.503C417.392 311.1 389.64 408.038 352.791 430.188C324.414 447.246 280.597 348.454 279.098 333.222C284.598 287.866 265.022 253.037 264.553 253.105Z" fill="url(#paint17_radial_2048_28596)"/>
<path d="M264.553 253.105C277.466 215.294 301.886 160.788 349.339 115.178C397.474 68.9122 464.011 67.9939 465.379 93.7385C466.219 109.538 412.052 122.234 417.266 233.173C417.502 254.697 385.576 260.088 385.576 260.088L264.553 253.105Z" fill="url(#paint18_radial_2048_28596)"/>
<g opacity="0.52">
<path d="M406.503 284.751C408.635 296.836 378.017 299.86 353.181 283.311" stroke="#00BCFF" stroke-width="5.31863" stroke-linecap="round" stroke-linejoin="round"/>
</g>
<g opacity="0.52">
<path d="M321.591 319.307L386.955 385.868" stroke="#0074DD" stroke-width="5.31863" stroke-linecap="round" stroke-linejoin="round"/>
</g>
<g opacity="0.52">
<path d="M410.269 324.4C406.405 336.55 377.741 335.516 365.594 321.521" stroke="#0098FF" stroke-width="5.31863" stroke-linecap="round" stroke-linejoin="round"/>
</g>
<g opacity="0.52">
<path d="M321.374 360.344C329.45 367.657 349.895 409.143 338.694 420.7" stroke="#0068C6" stroke-width="5.31863" stroke-linecap="round" stroke-linejoin="round"/>
</g>
<path d="M372.409 213.815C390.674 229.883 380.051 253.674 354.122 259" stroke="#00B3EA" stroke-width="5.31863" stroke-linecap="round" stroke-linejoin="round"/>
<path d="M375.921 169.378C403.892 172.3 393.319 206.525 372.409 213.815" stroke="#00A4E5" stroke-width="5.31863" stroke-linecap="round" stroke-linejoin="round"/>
<path d="M335.569 135.509C358.289 111.046 408.313 115.548 375.92 169.379" stroke="#007DCC" stroke-width="5.31863" stroke-linecap="round" stroke-linejoin="round"/>
<path d="M414.317 207.305C384.335 207.63 297.993 229.794 267.097 254.832" stroke="#21A4E6" stroke-width="5.31863" stroke-linecap="round" stroke-linejoin="round"/>
<g opacity="0.51">
<path d="M352.7 117.832C385.189 85.2244 438.088 123.227 375.921 169.378C291.318 232.184 267.097 254.832 267.097 254.832C267.097 254.832 280.201 190.597 352.7 117.832Z" fill="url(#paint19_radial_2048_28596)"/>
</g>
<path d="M277.986 272.243C284.063 279.577 349.794 339.182 321.374 360.344C285.389 387.139 277.986 272.243 277.986 272.243Z" stroke="#00A4E5" stroke-width="5.31863" stroke-linecap="round" stroke-linejoin="round"/>
<path d="M438.557 108.829C403.807 160.331 290.975 227.852 267.097 254.832" stroke="#00A4E5" stroke-width="5.31863" stroke-linecap="round" stroke-linejoin="round"/>
<g opacity="0.55">
<path d="M401.217 86.1381C412.726 82.4255 427.695 80.9377 434.174 93.8532C442.135 109.724 420.647 121.948 412.073 150.294C402.856 180.77 403.478 215.506 404.871 227.462C406.61 242.394 389.305 255.787 389.305 255.787" stroke="#1FB0DD" stroke-width="7.0915" stroke-linecap="round" stroke-linejoin="round"/>
</g>
<path d="M267.097 254.832C287.556 253.751 386.427 276.896 365.593 321.52C345.162 365.283 267.097 254.832 267.097 254.832Z" stroke="#00A4E5" stroke-width="5.31863" stroke-linecap="round" stroke-linejoin="round"/>
<path d="M266.241 254.431C264.101 241.674 338.991 83.0007 384.102 125.564C419.593 159.052 405.634 267.404 369.63 264.298C324.61 260.414 275.619 259.039 266.241 254.431Z" fill="url(#paint20_radial_2048_28596)"/>
<g opacity="0.91">
<path d="M271.199 257.82C281.045 259.367 357.599 249.805 366.82 273.41C386.076 322.705 319.24 406.188 294.021 359.225C283.639 339.892 271.199 257.82 271.199 257.82Z" fill="url(#paint21_radial_2048_28596)"/>
</g>
<path d="M271.134 259.618C298.809 260.99 294.485 261.306 313.72 260.1C337.931 258.584 332.79 225.043 313.886 209.689C294.982 194.335 286.963 202.661 275.323 224.143C263.582 245.809 265.281 259.328 271.134 259.618Z" fill="url(#paint22_radial_2048_28596)"/>
<path d="M381.912 260.128C361.731 253.059 279.827 268.367 268.498 254.877" stroke="#00B7EF" stroke-width="5.31863" stroke-linecap="round" stroke-linejoin="round"/>
<path d="M321.473 207.489C338.661 215.077 354.225 260.703 336.371 261.648C318.415 262.599 272.43 267.631 266.258 256C257.346 254.048 321.473 207.489 321.473 207.489Z" fill="url(#paint23_radial_2048_28596)"/>
<g opacity="0.43">
<path d="M405.144 282.412C411.579 293.142 389.877 430.551 330.684 419.441" stroke="#00B1FF" stroke-width="7.0915" stroke-linecap="round" stroke-linejoin="round"/>
</g>
<g opacity="0.3">
<path d="M442.145 88.248C453.19 100.52 416.429 147.735 419.1 162.124C398.818 187.371 310.294 208.136 283.755 206.426C328.13 125.728 420.507 64.2062 442.145 88.248Z" fill="white"/>
</g>
<path d="M272.12 244.455C267.661 255.104 272.516 259.197 274.384 263.677C269.753 264.023 264.972 257.328 264.313 254.725C263.149 250.119 272.513 243.516 272.12 244.455Z" fill="#161615"/>
<path d="M350.023 111.105C402.316 60.7854 465.866 62.494 469.943 91.9494C471.29 101.676 461.699 106.854 454.212 115.664C450.848 119.623 451.355 125.558 447.522 130.809C444.231 135.317 436.625 139.399 433.549 145.487C431.242 150.052 433.36 156.212 431.428 161.952C429.629 167.294 424.555 173.343 423.265 179.906C422.24 185.118 424.912 192.715 424.307 198.808C423.786 204.063 419.493 211.45 419.345 217.428C419.184 223.923 423.18 226.964 423.528 234.392C423.764 255.916 385.832 260.363 385.832 260.363C385.832 260.363 424.72 283.278 423.007 308.395C422.625 314.005 416.768 316.132 416.035 320.803C415.282 325.606 419.564 331.089 418.467 336.58C417.369 342.078 410.984 344.829 409.477 350.697C408.35 355.092 412.196 362.557 410.808 367.003C409.111 372.443 401.933 374.659 399.803 379.953C397.934 384.597 401.167 392.349 398.93 396.704C396.534 401.37 389.159 400.404 386.301 404.541C383.599 408.453 385.441 417.501 382.293 420.762C378.253 424.945 369.813 421.492 364.973 424.28C361.263 426.418 361.344 434.871 355.783 436.937C326.992 447.633 286.757 380.73 275.788 332.415C280.47 289.735 268.605 267.193 263.954 258.593C262.523 255.947 262.169 252.851 262.983 249.951C275.918 203.878 304.221 155.18 350.023 111.105ZM291.208 329.776C294.62 364.364 313.965 426.687 349.213 417.687C353.359 416.629 356.304 412.971 359.928 410.471C363.551 407.972 369.03 408.142 372.158 404.498C374.452 401.826 374.274 395.922 376.314 392.772C378.561 389.304 383.025 388.098 384.976 384.201C386.948 380.264 386.678 374.436 388.363 370.222C389.793 366.644 393.542 364.026 394.775 360.357C396.519 355.171 394.721 349.645 396.092 344.516C397.223 340.286 401.024 336.037 401.917 332.019C402.996 327.161 401.2 322.749 401.954 318.454C402.818 313.535 405.212 308.846 405.684 305.058C408.22 284.701 389.39 271.279 376.806 264.679C373.39 262.887 373.764 257.844 377.408 256.597C389.534 252.449 407.008 244.316 406.873 231.932C406.472 226.667 405.465 221.277 405.308 216.493C405.056 208.815 407.4 202.652 407.693 196.12C408.011 189.017 406.078 181.861 406.913 175.97C408.082 167.724 412.273 161.764 414.142 155.545C416.434 147.921 416.2 139.277 418.936 134.015C423.235 125.745 428.983 121.3 432.249 116.471C434.343 113.376 435.957 110.688 436.748 108.02C437.728 104.716 437.445 101.444 435.246 97.4726C423.066 75.4694 386.523 92.2111 344.218 132.942C302.512 173.096 280.138 220.67 268.79 253.958C268.79 253.958 285.984 276.842 291.208 329.776Z" fill="url(#paint24_linear_2048_28596)"/>
<path d="M450.384 94.8791C451.246 97.4787 454.031 98.8825 456.606 98.0138C459.181 97.145 460.571 94.3331 459.709 91.7335C458.848 89.134 456.062 87.7301 453.487 88.5989C450.913 89.4676 449.523 92.2796 450.384 94.8791Z" fill="white"/>
<g opacity="0.9">
<path d="M436.066 124.546C436.706 126.476 438.773 127.517 440.685 126.872C442.597 126.227 443.627 124.14 442.988 122.21C442.348 120.28 440.281 119.238 438.369 119.884C436.457 120.529 435.427 122.615 436.066 124.546Z" fill="white"/>
</g>
<g opacity="0.8">
<path d="M419.145 160.253C419.785 162.183 421.852 163.224 423.764 162.579C425.676 161.934 426.706 159.847 426.067 157.917C425.427 155.987 423.36 154.945 421.448 155.591C419.536 156.236 418.506 158.322 419.145 160.253Z" fill="white"/>
</g>
<g opacity="0.7">
<path d="M412.265 198.004C412.905 199.935 414.972 200.976 416.884 200.331C418.796 199.686 419.826 197.599 419.187 195.669C418.547 193.738 416.48 192.697 414.568 193.342C412.656 193.988 411.625 196.074 412.265 198.004Z" fill="white"/>
</g>
<g opacity="0.6">
<path d="M411.575 236.635C412.215 238.566 414.282 239.607 416.194 238.962C418.106 238.316 419.136 236.23 418.496 234.299C417.857 232.369 415.79 231.328 413.878 231.973C411.966 232.618 410.935 234.705 411.575 236.635Z" fill="white"/>
</g>
<g opacity="0.5">
<path d="M410.938 307.784C411.565 309.681 413.598 310.704 415.476 310.071C417.355 309.437 418.367 307.386 417.74 305.489C417.112 303.593 415.079 302.57 413.201 303.203C411.322 303.836 410.31 305.888 410.938 307.784Z" fill="#D71700"/>
</g>
<g opacity="0.6">
<path d="M406.456 335.928C407.084 337.825 409.116 338.847 410.995 338.214C412.873 337.581 413.886 335.529 413.258 333.633C412.63 331.736 410.598 330.713 408.719 331.346C406.841 331.98 405.828 334.031 406.456 335.928Z" fill="#D71700"/>
</g>
<g opacity="0.7">
<path d="M398.786 365.718C399.413 367.615 401.446 368.638 403.324 368.005C405.203 367.371 406.215 365.32 405.588 363.423C404.96 361.526 402.927 360.504 401.049 361.137C399.17 361.77 398.158 363.822 398.786 365.718Z" fill="#D71700"/>
</g>
<g opacity="0.8">
<path d="M387.87 392.016C388.497 393.912 390.53 394.935 392.408 394.302C394.287 393.669 395.299 391.617 394.671 389.721C394.044 387.824 392.011 386.801 390.133 387.434C388.254 388.067 387.242 390.119 387.87 392.016Z" fill="#D71700"/>
</g>
<g opacity="0.9">
<path d="M372.321 414.742C372.949 416.638 374.982 417.661 376.86 417.028C378.739 416.395 379.751 414.343 379.123 412.446C378.495 410.55 376.463 409.527 374.584 410.16C372.706 410.793 371.694 412.845 372.321 414.742Z" fill="#D71700"/>
</g>
<path d="M347.892 428.484C348.52 430.381 350.553 431.403 352.431 430.77C354.31 430.137 355.322 428.085 354.694 426.189C354.067 424.292 352.034 423.269 350.155 423.903C348.277 424.536 347.265 426.587 347.892 428.484Z" fill="#D71700"/>
</g>
</g>
<defs>
<radialGradient id="paint0_radial_2048_28596" cx="0" cy="0" r="1" gradientUnits="userSpaceOnUse" gradientTransform="translate(292.716 234.393) rotate(179.379) scale(182.933 184.682)">
<stop stop-color="#70E8FD"/>
<stop offset="0.53" stop-color="#49C0ED"/>
<stop offset="0.67" stop-color="#2297DE"/>
<stop offset="0.83" stop-color="#2F85D6"/>
<stop offset="1" stop-color="#3C72CF"/>
</radialGradient>
<radialGradient id="paint1_radial_2048_28596" cx="0" cy="0" r="1" gradientUnits="userSpaceOnUse" gradientTransform="translate(263.695 259.221) rotate(179.379) scale(170.02 171.645)">
<stop offset="0.06" stop-color="#2655AB"/>
<stop offset="0.17" stop-color="#4F9DD5"/>
<stop offset="0.43" stop-color="#78E5FF"/>
<stop offset="0.81" stop-color="#44B3E8"/>
<stop offset="1" stop-color="#1181D1"/>
</radialGradient>
<radialGradient id="paint2_radial_2048_28596" cx="0" cy="0" r="1" gradientUnits="userSpaceOnUse" gradientTransform="translate(265.619 255.529) rotate(179.379) scale(203.734 205.681)">
<stop stop-color="#D2F7FF" stop-opacity="0.8"/>
<stop offset="0.62" stop-color="#D1F1FB" stop-opacity="0.4"/>
<stop offset="0.92" stop-color="#D0EBF8" stop-opacity="0"/>
</radialGradient>
<radialGradient id="paint3_radial_2048_28596" cx="0" cy="0" r="1" gradientUnits="userSpaceOnUse" gradientTransform="translate(267.755 258.786) rotate(179.379) scale(148.044 149.459)">
<stop stop-color="#8BEEFF"/>
<stop offset="0.64" stop-color="#46CEEF" stop-opacity="0.5"/>
<stop offset="1" stop-color="#00AEE0" stop-opacity="0"/>
</radialGradient>
<radialGradient id="paint4_radial_2048_28596" cx="0" cy="0" r="1" gradientUnits="userSpaceOnUse" gradientTransform="translate(271.797 248.501) rotate(179.379) scale(159.313 160.836)">
<stop stop-color="#95EFFF"/>
<stop offset="0.56" stop-color="#4BE9FE" stop-opacity="0.5"/>
<stop offset="0.72" stop-color="#00E2FE" stop-opacity="0"/>
</radialGradient>
<radialGradient id="paint5_radial_2048_28596" cx="0" cy="0" r="1" gradientUnits="userSpaceOnUse" gradientTransform="translate(236.264 269.491) rotate(179.379) scale(87.2349 88.0686)">
<stop stop-color="#55A3F1"/>
<stop offset="0.45" stop-color="#3479D0" stop-opacity="0.5"/>
<stop offset="0.84" stop-color="#1350AE" stop-opacity="0"/>
</radialGradient>
<radialGradient id="paint6_radial_2048_28596" cx="0" cy="0" r="1" gradientUnits="userSpaceOnUse" gradientTransform="translate(239.447 266.357) rotate(179.379) scale(103.719 104.71)">
<stop stop-color="#2A3B69"/>
<stop offset="0.15" stop-color="#174184" stop-opacity="0.9"/>
<stop offset="0.3" stop-color="#04469F" stop-opacity="0.8"/>
<stop offset="0.68" stop-color="#0B4BA7" stop-opacity="0.4"/>
<stop offset="1" stop-color="#1350AE" stop-opacity="0"/>
</radialGradient>
<linearGradient id="paint7_linear_2048_28596" x1="278.311" y1="255.899" x2="402.699" y2="254.536" gradientUnits="userSpaceOnUse">
<stop offset="0.06" stop-color="#161615"/>
<stop offset="0.16" stop-color="#2E2C29"/>
<stop offset="0.43" stop-color="#46413D"/>
<stop offset="0.81" stop-color="#2E2C29"/>
<stop offset="1" stop-color="#161615"/>
</linearGradient>
<radialGradient id="paint8_radial_2048_28596" cx="0" cy="0" r="1" gradientUnits="userSpaceOnUse" gradientTransform="translate(254.883 262.742) scale(31.2255 31.0625)">
<stop stop-color="white"/>
<stop offset="0.5" stop-color="white" stop-opacity="0.5"/>
<stop offset="1" stop-color="white" stop-opacity="0"/>
</radialGradient>
<radialGradient id="paint9_radial_2048_28596" cx="0" cy="0" r="1" gradientUnits="userSpaceOnUse" gradientTransform="translate(219.869 234.393) rotate(0.621293) scale(182.933 184.682)">
<stop stop-color="#70D7FD"/>
<stop offset="0.53" stop-color="#49B7ED"/>
<stop offset="0.67" stop-color="#2297DE"/>
<stop offset="0.83" stop-color="#2F7FD6"/>
<stop offset="1" stop-color="#3C66CF"/>
</radialGradient>
<radialGradient id="paint10_radial_2048_28596" cx="0" cy="0" r="1" gradientUnits="userSpaceOnUse" gradientTransform="translate(248.89 259.221) rotate(0.621293) scale(170.02 171.645)">
<stop offset="0.06" stop-color="#2655AB"/>
<stop offset="0.17" stop-color="#5699D5"/>
<stop offset="0.43" stop-color="#87DDFF"/>
<stop offset="0.81" stop-color="#4EADF1"/>
<stop offset="1" stop-color="#157DE4"/>
</radialGradient>
<radialGradient id="paint11_radial_2048_28596" cx="0" cy="0" r="1" gradientUnits="userSpaceOnUse" gradientTransform="translate(246.966 255.529) rotate(0.621293) scale(203.734 205.681)">
<stop stop-color="#D2F7FF" stop-opacity="0.8"/>
<stop offset="0.62" stop-color="#D1F1FB" stop-opacity="0.4"/>
<stop offset="0.92" stop-color="#D0EBF8" stop-opacity="0"/>
</radialGradient>
<radialGradient id="paint12_radial_2048_28596" cx="0" cy="0" r="1" gradientUnits="userSpaceOnUse" gradientTransform="translate(244.829 258.786) rotate(0.621293) scale(148.044 149.459)">
<stop stop-color="#8BEEFF"/>
<stop offset="0.64" stop-color="#46CEEF" stop-opacity="0.5"/>
<stop offset="1" stop-color="#00AEE0" stop-opacity="0"/>
</radialGradient>
<radialGradient id="paint13_radial_2048_28596" cx="0" cy="0" r="1" gradientUnits="userSpaceOnUse" gradientTransform="translate(240.788 248.501) rotate(0.621293) scale(159.313 160.836)">
<stop stop-color="#95EFFF"/>
<stop offset="0.56" stop-color="#4BE9FE" stop-opacity="0.5"/>
<stop offset="0.72" stop-color="#00E2FE" stop-opacity="0"/>
</radialGradient>
<radialGradient id="paint14_radial_2048_28596" cx="0" cy="0" r="1" gradientUnits="userSpaceOnUse" gradientTransform="translate(276.321 269.491) rotate(0.621293) scale(87.2349 88.0686)">
<stop stop-color="#55A3F1"/>
<stop offset="0.45" stop-color="#3479D0" stop-opacity="0.5"/>
<stop offset="0.84" stop-color="#1350AE" stop-opacity="0"/>
</radialGradient>
<radialGradient id="paint15_radial_2048_28596" cx="0" cy="0" r="1" gradientUnits="userSpaceOnUse" gradientTransform="translate(273.138 266.357) rotate(0.621293) scale(103.719 104.71)">
<stop stop-color="#2A3B69"/>
<stop offset="0.15" stop-color="#174184" stop-opacity="0.9"/>
<stop offset="0.3" stop-color="#04469F" stop-opacity="0.8"/>
<stop offset="0.68" stop-color="#0B4BA7" stop-opacity="0.4"/>
<stop offset="1" stop-color="#1350AE" stop-opacity="0"/>
</radialGradient>
<linearGradient id="paint16_linear_2048_28596" x1="234.274" y1="255.899" x2="109.886" y2="254.536" gradientUnits="userSpaceOnUse">
<stop offset="0.06" stop-color="#161615"/>
<stop offset="0.16" stop-color="#2E2C29"/>
<stop offset="0.43" stop-color="#46413D"/>
<stop offset="0.81" stop-color="#2E2C29"/>
<stop offset="1" stop-color="#161615"/>
</linearGradient>
<radialGradient id="paint17_radial_2048_28596" cx="0" cy="0" r="1" gradientUnits="userSpaceOnUse" gradientTransform="translate(292.716 234.393) rotate(179.379) scale(182.933 184.682)">
<stop stop-color="#70E8FD"/>
<stop offset="0.53" stop-color="#49C0ED"/>
<stop offset="0.67" stop-color="#2297DE"/>
<stop offset="0.83" stop-color="#2F85D6"/>
<stop offset="1" stop-color="#3C72CF"/>
</radialGradient>
<radialGradient id="paint18_radial_2048_28596" cx="0" cy="0" r="1" gradientUnits="userSpaceOnUse" gradientTransform="translate(263.695 259.221) rotate(179.379) scale(170.02 171.645)">
<stop offset="0.06" stop-color="#2655AB"/>
<stop offset="0.17" stop-color="#4F9DD5"/>
<stop offset="0.43" stop-color="#78E5FF"/>
<stop offset="0.81" stop-color="#44B3E8"/>
<stop offset="1" stop-color="#1181D1"/>
</radialGradient>
<radialGradient id="paint19_radial_2048_28596" cx="0" cy="0" r="1" gradientUnits="userSpaceOnUse" gradientTransform="translate(265.619 255.529) rotate(179.379) scale(203.734 205.681)">
<stop stop-color="#D2F7FF" stop-opacity="0.8"/>
<stop offset="0.62" stop-color="#D1F1FB" stop-opacity="0.4"/>
<stop offset="0.92" stop-color="#D0EBF8" stop-opacity="0"/>
</radialGradient>
<radialGradient id="paint20_radial_2048_28596" cx="0" cy="0" r="1" gradientUnits="userSpaceOnUse" gradientTransform="translate(267.755 258.786) rotate(179.379) scale(148.044 149.459)">
<stop stop-color="#8BEEFF"/>
<stop offset="0.64" stop-color="#46CEEF" stop-opacity="0.5"/>
<stop offset="1" stop-color="#00AEE0" stop-opacity="0"/>
</radialGradient>
<radialGradient id="paint21_radial_2048_28596" cx="0" cy="0" r="1" gradientUnits="userSpaceOnUse" gradientTransform="translate(271.797 248.501) rotate(179.379) scale(159.313 160.836)">
<stop stop-color="#95EFFF"/>
<stop offset="0.56" stop-color="#4BE9FE" stop-opacity="0.5"/>
<stop offset="0.72" stop-color="#00E2FE" stop-opacity="0"/>
</radialGradient>
<radialGradient id="paint22_radial_2048_28596" cx="0" cy="0" r="1" gradientUnits="userSpaceOnUse" gradientTransform="translate(236.264 269.491) rotate(179.379) scale(87.2349 88.0686)">
<stop stop-color="#55A3F1"/>
<stop offset="0.45" stop-color="#3479D0" stop-opacity="0.5"/>
<stop offset="0.84" stop-color="#1350AE" stop-opacity="0"/>
</radialGradient>
<radialGradient id="paint23_radial_2048_28596" cx="0" cy="0" r="1" gradientUnits="userSpaceOnUse" gradientTransform="translate(239.447 266.357) rotate(179.379) scale(103.719 104.71)">
<stop stop-color="#2A3B69"/>
<stop offset="0.15" stop-color="#174184" stop-opacity="0.9"/>
<stop offset="0.3" stop-color="#04469F" stop-opacity="0.8"/>
<stop offset="0.68" stop-color="#0B4BA7" stop-opacity="0.4"/>
<stop offset="1" stop-color="#1350AE" stop-opacity="0"/>
</radialGradient>
<linearGradient id="paint24_linear_2048_28596" x1="278.311" y1="255.899" x2="402.699" y2="254.536" gradientUnits="userSpaceOnUse">
<stop offset="0.06" stop-color="#161615"/>
<stop offset="0.16" stop-color="#2E2C29"/>
<stop offset="0.43" stop-color="#46413D"/>
<stop offset="0.81" stop-color="#2E2C29"/>
<stop offset="1" stop-color="#161615"/>
</linearGradient>
<clipPath id="clip0_2048_28596">
<rect width="512" height="512" fill="white" transform="translate(0.516418 0.475586)"/>
</clipPath>
</defs>
</svg>
