<svg width="513" height="513" viewBox="0 0 513 513" fill="none" xmlns="http://www.w3.org/2000/svg">
<g clip-path="url(#clip0_2048_28909)">
<mask id="mask0_2048_28909" style="mask-type:luminance" maskUnits="userSpaceOnUse" x="0" y="0" width="513" height="513">
<path d="M512.2 0.475586H0.200317V512.476H512.2V0.475586Z" fill="white"/>
</mask>
<g mask="url(#mask0_2048_28909)">
<path d="M454.74 441.468L450.137 446.071C445.057 451.151 436.82 451.151 431.74 446.071L240.645 254.976C234.294 248.625 234.294 238.327 240.645 231.976C246.996 225.625 257.294 225.625 263.645 231.976L454.74 423.071C459.82 428.151 459.82 436.388 454.74 441.468Z" fill="url(#paint0_linear_2048_28909)"/>
<g opacity="0.5">
<path d="M329.171 308.736C328.921 312.409 361.649 349.011 376.094 351.998C383.317 353.492 369.262 338.16 357.01 325.959C344.758 313.758 329.523 303.564 329.171 308.736Z" fill="#BC5D28"/>
</g>
<g opacity="0.5">
<path d="M403.693 383.857C401.335 385.342 412.109 395.55 436.294 419.798C461.693 445.263 461.756 430.525 449.716 418.047C437.676 405.569 409.604 380.136 403.693 383.857Z" fill="#BC5D28"/>
</g>
<g opacity="0.5">
<path d="M435.789 427.542C426.063 418.568 409.749 401.148 406.873 403.347C403.997 405.546 437.366 441.281 442.401 441.721C447.436 442.161 449.682 440.361 435.789 427.542Z" fill="#BC5D28"/>
</g>
<g opacity="0.5">
<path d="M303.452 311.3C306.602 307.569 309.482 310.596 330.389 331.4C346.909 347.839 352.011 356.915 361.725 368.849C371.439 380.783 378.364 392.695 346.118 359.266C326.226 338.645 299.641 315.814 303.452 311.3Z" fill="#EFB57B"/>
</g>
<g opacity="0.5">
<path d="M309.482 312.009C319.772 322.291 329.218 330.653 347.809 348.337C366.4 366.021 357.5 344.657 323.044 311.036C288.035 276.876 295.101 297.638 309.482 312.009Z" fill="#BC5D28"/>
</g>
<g opacity="0.5">
<path d="M308.07 302.448C335.069 325.835 359.765 350.233 379.876 367.83C399.987 385.427 443.412 441.481 448.015 436.878C452.618 432.275 446.075 429.741 423.942 408.202C401.81 386.662 385.026 365.152 365.98 348.466C346.934 331.78 317.178 298.788 317.178 298.788L308.07 302.448Z" fill="#EFB57B"/>
</g>
<g opacity="0.4">
<path d="M309.887 324.218C309.887 324.218 325.664 316.995 332.887 301.218L321.797 290.128L298.225 312.556L309.887 324.218Z" fill="#91410A"/>
</g>
<path d="M454.74 441.468L450.137 446.071C445.057 451.151 436.82 451.151 431.74 446.071L240.645 254.976C234.294 248.625 234.294 238.327 240.645 231.976C246.996 225.625 257.294 225.625 263.645 231.976L454.74 423.071C459.82 428.151 459.82 436.388 454.74 441.468Z" stroke="#813F0E" stroke-width="8" stroke-linecap="round" stroke-linejoin="round"/>
<path d="M454.74 441.468L450.137 446.071C445.057 451.151 436.82 451.151 431.74 446.071L240.646 254.976C234.295 248.625 234.295 238.328 240.646 231.977" stroke="#7C3505" stroke-width="8" stroke-linecap="round" stroke-linejoin="round"/>
<g opacity="0.5">
<path d="M365.192 367.721C372.818 375.916 391.337 397.43 399.943 402.472C408.549 407.514 391.658 393.849 380.868 377.546C370.078 361.243 351.476 352.981 365.192 367.721Z" fill="#BC5D28"/>
</g>
<path d="M310.672 88.2775C370.65 146.804 371.828 242.873 313.301 302.851C254.774 362.828 158.706 364.007 98.7282 305.479C38.7502 246.953 37.5722 150.884 96.0992 90.9065C154.626 30.9285 250.694 29.7505 310.672 88.2775Z" fill="url(#paint1_radial_2048_28909)"/>
<path d="M186.952 53.9356C253.625 57.2646 291.2 105.475 295.449 161.274C298.915 206.795 277.199 259.476 214.99 262.613C155.272 265.624 150.143 210.238 178.56 193.172C202.199 178.976 202.671 198.21 202.671 198.21C199.324 196.201 178.699 195.476 177.922 214.244C177.222 231.142 193.2 252.976 225.271 250.079C250.624 247.789 308.2 203.976 272.583 129.477C248.886 79.9086 164.699 47.9756 113.567 80.1936C124.699 69.9756 114.699 75.9756 128.472 64.7236C147.199 56.9756 157.7 52.4746 186.952 53.9356Z" fill="#FFD98D"/>
<path d="M269.261 160.019C279.799 192.904 263.849 233.787 229.125 242.003C197.2 249.557 183.617 222.214 189.701 210.614C195.787 199.01 206.805 200.638 206.805 200.638C240.162 207.634 242.537 149.689 215.145 133.313C187.749 116.935 117.25 140.962 94.5463 196.092C71.8423 251.222 103.421 294.832 103.421 294.832L91.4013 299.333C52.2003 267.475 52.0283 204.556 52.0303 204.542C53.9803 159.292 81.6863 100.604 153.845 91.4285C226.441 82.1975 257.889 124.532 269.261 160.019Z" fill="url(#paint2_radial_2048_28909)"/>
<path d="M247.08 147.673C262.452 169.446 261.218 205.259 240.284 223.352C223.477 237.879 204.306 230.723 201.056 219.339C197.909 208.318 202.636 202.073 202.636 202.073C226.388 191.134 213.245 156.644 179.36 155.201C145.475 153.757 101.127 207.475 127.401 266.273C153.677 325.076 208.366 344.312 208.366 344.312C208.366 344.312 210.132 352.115 193.699 352.115C164.891 352.115 116.962 325.116 116.948 325.102C84.3863 298.069 71.5113 276.47 70.1823 240.323C68.8533 204.176 87.8273 143.709 139.186 121.007C190.536 98.3085 229.368 122.585 247.08 147.673Z" fill="url(#paint3_radial_2048_28909)"/>
<path d="M345.062 249.722C318.146 337.23 225.119 350.857 225.091 350.857C202.994 353.169 173.115 353.027 133.885 319.666C94.6553 286.305 79.0493 211.992 117.65 163.073C154.508 116.362 214.395 123.882 235.635 151.596C260.451 183.976 236.294 219.22 219.43 219.631C202.726 220.038 203.636 201.573 203.636 201.573C233.2 179.264 188.998 155.77 161.796 171.981C134.601 188.188 110.908 252.755 176.002 291.616C241.098 330.479 316.179 251.227 316.179 251.227L345.062 249.722Z" fill="url(#paint4_radial_2048_28909)"/>
<g opacity="0.5">
<path d="M228.384 161.845C246.2 190.225 234.2 206.974 220.93 210.38C204.747 214.533 204.386 202.822 204.386 202.822C204.393 202.815 204.393 202.815 204.4 202.808C205.615 210.07 219.498 198.462 222.249 192.113C225.45 184.724 214.95 147.725 174.451 159.438C135.823 170.61 128.2 231.225 149.458 270.694C185.115 336.898 323.841 288.105 323.841 288.105C316.2 297.474 300.7 316.475 287.634 327.415C242.7 340.975 187.246 333.52 151.207 301.663C115.365 269.98 111.917 211.406 127.15 184.322C156.45 132.225 209.818 132.269 228.384 161.845Z" fill="white"/>
</g>
<path d="M344.905 146.867C371.2 214.476 335.106 273.401 335.099 273.408C272.782 360.684 157.167 325.378 131.31 259.841C111.551 209.76 137.557 165.62 170.543 152.857C203.515 140.094 238.307 169.774 228.658 192.97C221.031 211.307 206.725 206.989 204.135 201.074C204.135 201.074 209.933 172.591 183.735 183.714C157.53 194.844 161.525 218.582 167.634 243.401C173.743 268.221 217.189 293.889 276.911 245.084C320.059 209.828 346.92 177.407 344.905 146.867Z" fill="url(#paint5_radial_2048_28909)"/>
<g opacity="0.5">
<path d="M331.905 121.867C342.384 137.734 349.465 153.681 353.382 172.971C352.413 187.106 345.475 241.548 298.332 278.31C243.489 321.076 174.269 304.742 149.563 260.986C124.857 217.23 149.802 177.118 168.344 166.256C197.12 149.399 220.915 166.816 219.942 180.066C218.793 195.713 203.643 199.052 203.643 199.052C203.82 198.111 208.987 170.777 183.236 181.714C157.03 192.844 161.026 216.582 167.135 241.401C173.244 266.221 216.686 291.886 276.411 243.084C319.559 207.828 333.92 152.407 331.905 121.867Z" fill="#D9FF39"/>
</g>
<path d="M311.121 92.2125C393.701 175.476 314.502 276.772 246.381 293.254C182.724 308.656 137.738 250.102 147.629 207.626C157.511 165.19 197.388 157.174 210.434 171.592C223.473 186.003 204.636 200.074 204.636 200.074C199.95 188.976 185.135 185.203 174.75 204.589C163.92 224.806 191.664 269.004 241.699 249.884C291.741 230.757 314.2 138.476 242.728 84.2075C188.551 43.0715 138.456 62.9325 116.991 75.2725C109.938 79.3265 105.976 82.5695 105.976 82.5695C136.7 55.4755 168.7 44.4755 204.699 45.1385C271.799 46.3735 311.121 92.2125 311.121 92.2125Z" fill="url(#paint6_radial_2048_28909)"/>
<g opacity="0.5">
<path d="M291.497 131.495C313.89 178.306 292.389 231.363 253.823 254.797C215.257 278.231 180.921 254.148 171.285 236.253C153.75 203.69 177.769 180 193.513 184.144C208.096 187.982 203.826 200.459 203.642 201.053C204.278 189.513 185.871 183.723 175.5 203.089C164.674 223.305 190.666 269.509 240.699 250.385C290.741 231.258 316.199 140.477 244.977 85.7076C173.335 30.6166 109.476 77.0706 109.476 77.0706C115.635 71.1946 125.296 66.8346 132.367 62.0546C203.2 29.4766 267.45 81.2266 291.497 131.495Z" fill="#64B9FF"/>
</g>
<path d="M310.672 88.2775C370.65 146.804 371.828 242.873 313.301 302.851C254.774 362.828 158.706 364.007 98.7282 305.479C38.7502 246.953 37.5722 150.884 96.0992 90.9065C154.626 30.9285 250.694 29.7505 310.672 88.2775Z" stroke="#C46F00" stroke-width="8" stroke-linecap="round" stroke-linejoin="round"/>
<path d="M346.658 143.185C362.449 185.017 359.139 232.483 336.56 272.035" stroke="#4A7C03" stroke-width="8" stroke-linecap="round" stroke-linejoin="round"/>
<path d="M149.58 338.292C131.131 331.111 113.791 320.178 98.7283 305.479C90.3283 297.282 83.0823 288.35 76.9913 278.883" stroke="#5D0089" stroke-width="8" stroke-linecap="round" stroke-linejoin="round"/>
<path d="M83.0252 287.577C55.4492 250.677 46.8052 203.991 57.2562 160.938" stroke="#8E0022" stroke-width="8" stroke-linecap="round" stroke-linejoin="round"/>
<path d="M53.0823 190.825C54.5153 154.649 68.8233 118.859 96.0993 90.9066C124.955 61.3346 162.937 46.0566 201.22 45.1816" stroke="#B24C00" stroke-width="8" stroke-linecap="round" stroke-linejoin="round"/>
<path d="M111.878 76.8206C170.78 31.1636 255.819 34.7516 310.672 88.2776C327.746 104.939 340.056 124.643 347.579 145.691" stroke="#003CA5" stroke-width="8" stroke-linecap="round" stroke-linejoin="round"/>
<g opacity="0.5">
<path d="M341.634 196.878C341.634 272.505 280.327 333.812 204.7 333.812C129.073 333.812 67.7662 272.505 67.7662 196.878C67.7662 121.251 129.073 59.9445 204.7 59.9445C280.327 59.9445 341.634 121.251 341.634 196.878Z" fill="url(#paint7_radial_2048_28909)"/>
</g>
<g opacity="0.8">
<path d="M341.634 196.878C341.634 272.505 280.327 333.812 204.7 333.812C129.073 333.812 67.7662 272.505 67.7662 196.878C67.7662 121.251 129.073 59.9445 204.7 59.9445C280.327 59.9445 341.634 121.251 341.634 196.878Z" fill="url(#paint8_linear_2048_28909)"/>
</g>
</g>
</g>
<defs>
<linearGradient id="paint0_linear_2048_28909" x1="425.14" y1="317.132" x2="448.14" y2="294.132" gradientUnits="userSpaceOnUse">
<stop stop-color="#B26835"/>
<stop offset="0.45" stop-color="#C47A43"/>
<stop offset="1" stop-color="#D68C50"/>
</linearGradient>
<radialGradient id="paint1_radial_2048_28909" cx="0" cy="0" r="1" gradientUnits="userSpaceOnUse" gradientTransform="translate(152.411 224.384) rotate(-90) scale(151.738)">
<stop stop-color="#EFC320"/>
<stop offset="0.58" stop-color="#F7AD20"/>
<stop offset="1" stop-color="#FF9820"/>
</radialGradient>
<radialGradient id="paint2_radial_2048_28909" cx="0" cy="0" r="1" gradientUnits="userSpaceOnUse" gradientTransform="translate(140.199 261.491) rotate(-90) scale(141.607)">
<stop offset="0.41" stop-color="#FF666B"/>
<stop offset="0.75" stop-color="#E84B4E"/>
<stop offset="1" stop-color="#D13031"/>
</radialGradient>
<radialGradient id="paint3_radial_2048_28909" cx="0" cy="0" r="1" gradientUnits="userSpaceOnUse" gradientTransform="translate(168.305 262.719) rotate(-90) scale(143.631 143.631)">
<stop stop-color="#AC53B1"/>
<stop offset="0.61" stop-color="#993EB4"/>
<stop offset="1" stop-color="#862AB7"/>
</radialGradient>
<radialGradient id="paint4_radial_2048_28909" cx="0" cy="0" r="1" gradientUnits="userSpaceOnUse" gradientTransform="translate(204.415 227.093) rotate(-90) scale(127.28 127.28)">
<stop stop-color="#FFFF96"/>
<stop offset="0.52" stop-color="#FDE663"/>
<stop offset="1" stop-color="#FCCD31"/>
</radialGradient>
<radialGradient id="paint5_radial_2048_28909" cx="0" cy="0" r="1" gradientUnits="userSpaceOnUse" gradientTransform="translate(186.613 195.595) rotate(-90) scale(143.217 143.217)">
<stop stop-color="#BAFB48"/>
<stop offset="0.52" stop-color="#97DA30"/>
<stop offset="1" stop-color="#74B918"/>
</radialGradient>
<radialGradient id="paint6_radial_2048_28909" cx="0" cy="0" r="1" gradientUnits="userSpaceOnUse" gradientTransform="translate(135.996 195.243) rotate(-90) scale(143.932 143.932)">
<stop offset="0.22" stop-color="#007EFF"/>
<stop offset="0.72" stop-color="#1D70F0"/>
<stop offset="1" stop-color="#3962E1"/>
</radialGradient>
<radialGradient id="paint7_radial_2048_28909" cx="0" cy="0" r="1" gradientUnits="userSpaceOnUse" gradientTransform="translate(152.411 224.383) rotate(-90) scale(136.935)">
<stop offset="0.81" stop-color="white" stop-opacity="0"/>
<stop offset="0.9" stop-color="white" stop-opacity="0.5"/>
<stop offset="1" stop-color="white"/>
</radialGradient>
<linearGradient id="paint8_linear_2048_28909" x1="222.414" y1="294.386" x2="56.3362" y2="128.305" gradientUnits="userSpaceOnUse">
<stop offset="0.39" stop-color="white" stop-opacity="0"/>
<stop offset="0.69" stop-color="white" stop-opacity="0.5"/>
<stop offset="1" stop-color="white"/>
</linearGradient>
<clipPath id="clip0_2048_28909">
<rect width="512" height="512" fill="white" transform="translate(0.200317 0.475586)"/>
</clipPath>
</defs>
</svg>
