<svg width="513" height="513" viewBox="0 0 513 513" fill="none" xmlns="http://www.w3.org/2000/svg">
<g clip-path="url(#clip0_1321_104546)">
<mask id="mask0_1321_104546" style="mask-type:luminance" maskUnits="userSpaceOnUse" x="0" y="0" width="513" height="513">
<path d="M512.166 0.0625H0.166016V512.062H512.166V0.0625Z" fill="white"/>
</mask>
<g mask="url(#mask0_1321_104546)">
<mask id="mask1_1321_104546" style="mask-type:luminance" maskUnits="userSpaceOnUse" x="-13" y="3" width="538" height="538">
<path d="M-12.6338 3.2627H524.966V540.863H-12.6338V3.2627Z" fill="white"/>
</mask>
<g mask="url(#mask1_1321_104546)">
<path d="M132.757 405.099C145.526 402.43 149.454 402.283 154.915 402.765C159.412 403.161 161.837 403.381 161.837 403.381L168.948 404.07L175.983 405.321C175.983 405.321 180.198 406.225 185.743 407.334C192.306 408.646 200.61 413.016 208.202 417.504C218.038 423.317 222.77 429.644 221.449 440.83C219.998 453.121 194.922 465.896 160.666 461.196C126.409 456.497 106.707 434.579 108.487 425.333C110.532 414.717 124.693 406.785 132.757 405.099Z" fill="#F7F7F7"/>
<g opacity="0.3">
<path d="M151.535 403.459C151.535 403.459 157.184 414.543 155.833 415.772C153.209 418.158 141.358 413.665 138.587 406.63C137.231 403.188 151.535 403.459 151.535 403.459Z" fill="#7A7979"/>
</g>
<g opacity="0.4">
<path d="M185.104 420.421C188.721 420.36 175.18 424.673 177.691 425.416C184.794 427.519 194.565 425.062 199.879 414.201L187.824 409.861C187.824 409.861 183.212 420.452 185.104 420.421Z" fill="#7A7979"/>
</g>
<g opacity="0.5">
<path d="M208.202 419.187C208.202 419.187 201.11 432.438 177.974 436.998C162.94 439.96 189.717 447.252 218.004 429.525L208.202 419.187Z" fill="#7A7979"/>
</g>
<g opacity="0.3">
<path d="M130.121 408.222C130.121 408.222 143.647 429.429 154.064 432.295C161.651 434.382 150.552 438.966 140.12 433.943C131.91 429.991 116.13 416.623 116.13 416.623L130.121 408.222Z" fill="#7A7979"/>
</g>
<path d="M132.757 405.099C145.526 402.43 149.454 402.283 154.915 402.765C159.412 403.161 161.837 403.381 161.837 403.381L168.948 404.07L175.983 405.321C175.983 405.321 180.198 406.225 185.743 407.334C192.306 408.646 200.61 413.016 208.202 417.504C218.038 423.317 222.77 429.644 221.449 440.83C219.998 453.121 194.922 465.896 160.666 461.196C126.409 456.497 106.707 434.579 108.487 425.333C110.532 414.717 124.693 406.785 132.757 405.099Z" stroke="#B4B2AF" stroke-width="6.63424" stroke-linecap="round" stroke-linejoin="round"/>
<path d="M108.487 425.335C108.835 428.005 120.842 454.752 160.375 459.816C200.918 465.01 220.395 443.311 221.45 440.831C222.203 439.068 224.973 437.163 220.224 434.756C211.532 439.148 199.612 455.578 163.304 450.037C128.251 444.689 116.823 423 112.324 418.922C107.702 419.912 108.256 423.539 108.487 425.335Z" fill="#CCCCCC"/>
<path d="M179.325 406.024C181.02 406.377 183.247 406.835 185.744 407.334C192.307 408.646 200.611 413.016 208.203 417.504C218.039 423.317 222.771 429.644 221.45 440.83C219.999 453.121 194.923 465.896 160.667 461.196C126.409 456.497 106.708 434.579 108.488 425.333C110.533 414.717 124.693 406.785 132.758 405.099" stroke="#9D9C9B" stroke-width="6.63424" stroke-linecap="round" stroke-linejoin="round"/>
<path d="M179.325 406.024C181.019 406.377 183.247 406.835 185.744 407.334C192.307 408.646 200.61 413.016 208.203 417.504C218.039 423.317 222.771 429.644 221.45 440.83C221.421 441.079 221.382 441.328 221.333 441.577" stroke="#848383" stroke-width="6.63424" stroke-linecap="round" stroke-linejoin="round"/>
<path d="M200.849 278.497C194.606 285.37 188.853 305.539 183.299 341.841C180.249 361.775 176.086 389.004 175.927 408.682C175.927 408.682 172.421 409.799 167.721 409.154C163.022 408.509 159.945 406.49 159.945 406.49C165.091 387.495 168.359 360.561 170.789 340.542C175.216 304.085 174.931 283.474 171.97 275.082" fill="url(#paint0_linear_1321_104546)"/>
<path d="M200.849 278.497C194.606 285.37 188.853 305.539 183.299 341.841C180.249 361.775 176.086 389.004 175.927 408.682C175.927 408.682 172.421 409.799 167.721 409.154C163.022 408.509 159.945 406.49 159.945 406.49C165.091 387.495 168.359 360.561 170.789 340.542C175.216 304.085 174.931 283.474 171.97 275.082" stroke="#B4B2AF" stroke-width="6.63424" stroke-linecap="round" stroke-linejoin="round"/>
<path d="M200.848 278.497C194.605 285.37 188.852 305.538 183.298 341.841C180.248 361.775 176.085 389.004 175.926 408.682C175.926 408.682 172.42 409.798 167.72 409.154C163.021 408.509 159.944 406.489 159.944 406.489" stroke="#939292" stroke-width="6.63424" stroke-linecap="round" stroke-linejoin="round"/>
<g opacity="0.1">
<path d="M198.68 288.941C198.68 288.941 184.459 295.547 170.49 285.572C170.49 285.572 170.286 280.418 168.988 276.356L203.421 280.372C200.53 283.865 198.68 288.941 198.68 288.941Z" fill="#665F5F"/>
</g>
<path d="M176.856 391.096C176.426 397.139 175.969 403.425 175.927 408.682C175.927 408.682 172.421 409.798 167.721 409.154C163.022 408.509 159.945 406.489 159.945 406.489" stroke="#6D6868" stroke-width="6.63424" stroke-linecap="round" stroke-linejoin="round"/>
<path d="M193.43 306.101C193.43 306.101 186.093 330.539 180.733 354.33C175.27 378.575 173.564 390.85 173.564 390.85L180.121 392.082C183.396 353.324 193.43 306.101 193.43 306.101Z" fill="#6D6868"/>
<path d="M164.061 69.2183C164.061 69.2183 180.5 62.9616 213.537 68.1907C249.253 71.5528 262.371 81.6512 262.371 81.6512C262.371 81.6512 261.977 120.721 253.564 167.399C243.478 223.328 221.083 285.087 185.412 280.194C149.741 275.3 144.806 209.792 150.154 153.213C154.621 105.994 164.061 69.2183 164.061 69.2183Z" fill="#E5E2DF"/>
<path d="M163.738 70.5933C169.988 64.0311 190.999 61.8799 216.185 66.082C237.177 69.5842 257.951 76.0807 261.741 82.2823" stroke="#C5C0BA" stroke-width="6.63424" stroke-linecap="round" stroke-linejoin="round"/>
<path d="M185.415 280.195C215.275 285.089 228.009 249.257 240.163 218.088C245.807 203.611 250.29 186.257 255.204 170.383C247.226 163.286 238.698 161.894 226.27 157.117C202.587 145.864 187.54 140.922 154.23 130.982C150.581 144.556 147.606 192.21 149.278 211.73C152.301 247.024 160.43 276.099 185.415 280.195Z" fill="#FFF1B8"/>
<path d="M185.415 280.195C217.142 283.575 229.921 245.209 243.046 211.591C247.52 200.13 253.64 163.832 256.681 153.676C248.222 150.844 234.639 149.626 211.203 141.607C187.767 133.589 168.386 124.528 153.473 123.594C148.69 142.013 148.414 180.274 148.603 193.366C149.137 230.313 156.293 277.093 185.415 280.195Z" fill="url(#paint1_linear_1321_104546)"/>
<mask id="mask2_1321_104546" style="mask-type:luminance" maskUnits="userSpaceOnUse" x="-103" y="-124" width="605" height="606">
<path d="M-30.998 -123.076L501.817 -51.4735L430.214 481.341L-102.601 409.739L-30.998 -123.076Z" fill="white"/>
</mask>
<g mask="url(#mask2_1321_104546)">
<mask id="mask3_1321_104546" style="mask-type:luminance" maskUnits="userSpaceOnUse" x="-82" y="-89" width="560" height="560">
<path d="M477.609 -22.7051L-15.2444 -88.9375L-81.4768 403.916L411.377 470.149L477.609 -22.7051Z" fill="white"/>
</mask>
<g mask="url(#mask3_1321_104546)">
<g opacity="0.4">
<path d="M207.529 143.134C206.875 145.777 204.203 147.39 201.56 146.736C198.918 146.082 197.305 143.41 197.959 140.767C198.613 138.124 201.285 136.511 203.927 137.165C206.57 137.819 208.183 140.491 207.529 143.134Z" fill="#E2BD47"/>
<path d="M207.294 141.72C206.815 143.657 204.856 144.839 202.919 144.359C200.981 143.88 199.8 141.921 200.279 139.984C200.759 138.046 202.717 136.865 204.654 137.344C206.591 137.824 207.774 139.783 207.294 141.72Z" fill="#FFE67B"/>
</g>
<g opacity="0.4">
<path d="M203.613 176.572C203.184 178.308 201.429 179.367 199.693 178.938C197.957 178.508 196.898 176.754 197.327 175.018C197.757 173.282 199.511 172.223 201.247 172.652C202.983 173.081 204.042 174.836 203.613 176.572Z" fill="#E2BD47"/>
<path d="M203.458 175.643C203.144 176.915 201.858 177.692 200.585 177.377C199.313 177.063 198.537 175.776 198.851 174.504C199.166 173.232 200.452 172.456 201.724 172.77C202.996 173.085 203.773 174.371 203.458 175.643Z" fill="#FFE67B"/>
</g>
<g opacity="0.4">
<path d="M182.678 202.048C182.249 203.783 180.494 204.843 178.758 204.413C177.023 203.984 175.963 202.229 176.393 200.493C176.822 198.758 178.577 197.698 180.313 198.128C182.048 198.557 183.108 200.312 182.678 202.048Z" fill="#E2BD47"/>
<path d="M182.525 201.119C182.21 202.391 180.923 203.167 179.651 202.853C178.379 202.538 177.603 201.252 177.918 199.98C178.232 198.707 179.518 197.931 180.791 198.246C182.063 198.56 182.839 199.846 182.525 201.119Z" fill="#FFE67B"/>
</g>
<g opacity="0.4">
<path d="M179.298 240.934C178.869 242.67 177.114 243.729 175.378 243.3C173.643 242.87 172.583 241.115 173.013 239.38C173.442 237.644 175.197 236.584 176.933 237.014C178.669 237.443 179.728 239.198 179.298 240.934Z" fill="#E2BD47"/>
<path d="M179.144 240.005C178.829 241.277 177.543 242.053 176.271 241.739C174.999 241.424 174.222 240.138 174.537 238.866C174.851 237.594 176.137 236.818 177.41 237.132C178.682 237.447 179.458 238.733 179.144 240.005Z" fill="#FFE67B"/>
</g>
<g opacity="0.4">
<path d="M216.874 244.927C216.444 246.662 214.689 247.722 212.954 247.292C211.218 246.863 210.159 245.108 210.588 243.372C211.017 241.636 212.772 240.577 214.508 241.007C216.244 241.436 217.303 243.191 216.874 244.927Z" fill="#E2BD47"/>
<path d="M216.719 243.997C216.404 245.269 215.118 246.046 213.846 245.731C212.574 245.417 211.798 244.13 212.112 242.857C212.427 241.585 213.713 240.81 214.985 241.124C216.257 241.439 217.033 242.725 216.719 243.997Z" fill="#FFE67B"/>
</g>
<g opacity="0.4">
<path d="M218.323 236.336C218.051 237.435 216.939 238.107 215.839 237.835C214.74 237.563 214.068 236.451 214.341 235.351C214.613 234.252 215.725 233.581 216.824 233.853C217.923 234.125 218.595 235.237 218.323 236.336Z" fill="#E2BD47"/>
<path d="M218.225 235.747C218.026 236.553 217.21 237.045 216.404 236.845C215.599 236.646 215.107 235.831 215.306 235.025C215.505 234.219 216.321 233.727 217.127 233.927C217.932 234.126 218.424 234.941 218.225 235.747Z" fill="#FFE67B"/>
</g>
<g opacity="0.4">
<path d="M173.942 237.32C173.633 238.571 172.368 239.334 171.117 239.025C169.867 238.715 169.104 237.45 169.413 236.2C169.722 234.949 170.987 234.186 172.238 234.496C173.488 234.805 174.251 236.07 173.942 237.32Z" fill="#E2BD47"/>
<path d="M173.83 236.651C173.604 237.567 172.677 238.127 171.761 237.9C170.844 237.673 170.285 236.746 170.512 235.83C170.738 234.913 171.665 234.354 172.581 234.581C173.498 234.808 174.057 235.734 173.83 236.651Z" fill="#FFE67B"/>
</g>
<g opacity="0.4">
<path d="M186.528 210.391C186.219 211.642 184.954 212.404 183.703 212.095C182.453 211.786 181.69 210.521 181.999 209.271C182.308 208.02 183.573 207.257 184.824 207.566C186.074 207.876 186.837 209.141 186.528 210.391Z" fill="#E2BD47"/>
<path d="M186.416 209.721C186.189 210.638 185.263 211.198 184.346 210.971C183.43 210.744 182.871 209.817 183.097 208.901C183.324 207.984 184.251 207.425 185.167 207.652C186.084 207.878 186.643 208.805 186.416 209.721Z" fill="#FFE67B"/>
</g>
<g opacity="0.4">
<path d="M228.528 135.225C228.219 136.476 226.954 137.238 225.703 136.929C224.453 136.62 223.69 135.355 223.999 134.105C224.308 132.854 225.573 132.091 226.824 132.4C228.074 132.71 228.837 133.975 228.528 135.225Z" fill="#E2BD47"/>
<path d="M228.416 134.555C228.189 135.472 227.263 136.031 226.347 135.804C225.43 135.578 224.871 134.651 225.097 133.735C225.324 132.818 226.251 132.259 227.167 132.486C228.084 132.712 228.643 133.639 228.416 134.555Z" fill="#FFE67B"/>
</g>
<g opacity="0.4">
<path d="M168.031 183.952C167.853 184.672 167.124 185.112 166.404 184.933C165.683 184.755 165.244 184.027 165.422 183.306C165.6 182.586 166.329 182.146 167.049 182.325C167.77 182.503 168.209 183.231 168.031 183.952Z" fill="#E2BD47"/>
<path d="M167.967 183.566C167.836 184.094 167.303 184.417 166.775 184.286C166.247 184.155 165.924 183.622 166.054 183.094C166.185 182.566 166.719 182.243 167.247 182.374C167.775 182.504 168.098 183.038 167.967 183.566Z" fill="#FFE67B"/>
</g>
<g opacity="0.4">
<path d="M234.227 158.295C234.049 159.019 233.317 159.46 232.593 159.281C231.87 159.102 231.428 158.37 231.607 157.647C231.786 156.923 232.518 156.482 233.242 156.661C233.965 156.84 234.406 157.572 234.227 158.295Z" fill="#E2BD47"/>
<path d="M234.163 157.908C234.031 158.438 233.495 158.762 232.965 158.631C232.435 158.5 232.111 157.963 232.242 157.433C232.373 156.903 232.909 156.579 233.439 156.71C233.97 156.841 234.294 157.377 234.163 157.908Z" fill="#FFE67B"/>
</g>
</g>
</g>
<path d="M182.192 81.07C182.192 81.07 148.037 241.634 186.687 249.564C229.724 258.392 243.881 88.1013 243.881 88.1013L215.523 82.381C215.523 82.381 211.139 111.521 205.783 141.943C199.946 175.09 199.226 196.011 195.488 196.161C192.132 196.295 195.3 175.232 199.636 140.598C203.415 110.419 208.37 82.375 208.37 82.375L182.192 81.07Z" fill="url(#paint2_linear_1321_104546)"/>
<g opacity="0.2">
<path d="M185.418 280.191C221.088 285.081 243.474 223.328 253.563 167.398C253.592 167.261 251.054 162.841 251.082 162.703C239.042 210.829 215.258 253.022 189.16 249.219C162.397 245.32 152.556 192.482 154.324 142.908C154.321 142.998 150.163 153.121 150.153 153.21C144.806 209.796 149.739 275.301 185.418 280.191Z" fill="#8E4D06"/>
</g>
<g opacity="0.2">
<path d="M165.359 265.036C165.359 265.036 174.875 270.84 188.398 272.129C200.797 273.311 209.503 268.678 209.503 268.678C209.591 270.53 204.967 279.605 186.637 278.687C177.503 278.229 164.319 267.492 165.359 265.036Z" fill="#FAD45B"/>
</g>
<path d="M163.738 70.5935C172.943 75.6376 185.277 79.5256 210.463 83.7277C231.455 87.2298 252.265 86.1432 261.741 82.2825" stroke="#C5C0BA" stroke-width="6.63424" stroke-linecap="round" stroke-linejoin="round"/>
<path d="M262.362 84.5199C261.895 97.5648 260.115 131.053 253.564 167.399C243.477 223.328 221.084 285.087 185.413 280.194C149.741 275.3 144.806 209.792 150.154 153.213C153.632 116.446 160.937 83.7154 164 71.0271" stroke="#AAA398" stroke-width="6.63424" stroke-linecap="round" stroke-linejoin="round"/>
<path d="M262.362 84.5197C261.895 97.5646 260.115 131.052 253.564 167.398C243.478 223.327 221.084 285.086 185.413 280.193C149.742 275.299 144.806 209.791 150.154 153.212C151.757 136.263 154.174 120.172 156.614 106.507" stroke="#B29544" stroke-width="6.63424" stroke-linecap="round" stroke-linejoin="round"/>
<path d="M185.412 280.193C149.74 275.3 144.806 209.791 150.154 153.212C151.757 136.263 154.173 120.173 156.612 106.508" stroke="#9B7623" stroke-width="6.63424" stroke-linecap="round" stroke-linejoin="round"/>
<path d="M248.107 193.053C236.362 240.563 215.661 284.342 185.412 280.193C155.4 276.075 147.145 229.052 148.466 180.538" stroke="#7F540E" stroke-width="6.63424" stroke-linecap="round" stroke-linejoin="round"/>
<path d="M200.676 278.095C195.888 280.149 190.802 280.933 185.412 280.193C180.767 279.556 176.644 277.89 172.996 275.352" stroke="#5B360D" stroke-width="6.63424" stroke-linecap="round" stroke-linejoin="round"/>
<path d="M151.67 180.619C151.67 180.619 152.978 152.438 154.323 142.909C154.323 142.909 146.438 164.046 145.16 180.452L151.67 180.619Z" fill="#7F540E"/>
<path d="M244.939 192.573C244.939 192.573 248.908 175.322 251.082 162.703C251.082 162.703 253.713 184.441 251.105 194.435L244.939 192.573Z" fill="#7F540E"/>
<path d="M219.922 266.418C219.922 266.418 214.302 275.655 202.452 280.808L198.974 275.264C198.974 275.264 207.224 273.513 219.922 266.418Z" fill="#5B360D"/>
<path d="M174.82 272.689C174.82 272.689 161.267 265.553 155.876 258.308C155.876 258.308 160.752 270.614 171.163 278.04L174.82 272.689Z" fill="#5B360D"/>
<path d="M164.764 81.898C164.764 81.898 159.502 107.585 158.587 113.915L153.385 105.724C153.385 105.724 156.753 95.0232 164.764 81.898Z" fill="#9B7623"/>
<path d="M297.285 402.453C307.182 397.924 314.422 395.178 319.956 390.078C325.311 385.056 327.892 385.382 327.892 385.382L334.985 384.523L342.124 384.23C342.124 384.23 346.971 383.47 350.643 387.571C353.455 391.259 360.057 393.186 372.76 395.411C382.975 397.229 392.963 399.732 394.171 409.114C395.442 418.884 372.589 431.741 338.124 434.53C303.658 437.318 280.848 428.186 280.522 418.309C280.197 409.679 287.827 406.761 297.285 402.453Z" fill="#F7F7F7"/>
<g opacity="0.3">
<path d="M316.887 392.896C316.887 392.896 319.632 397.52 325.82 400.25C329.069 401.607 316.671 402.516 309.151 397.214C306.159 395.328 316.887 392.896 316.887 392.896Z" fill="#7A7979"/>
</g>
<g opacity="0.4">
<path d="M342.632 395.69C346.07 394.859 346.83 400.255 345.756 402.572C341.541 411.308 354.842 400.28 365.448 393.794L346.786 385.157C346.786 385.157 340.832 396.125 342.632 395.69Z" fill="#7A7979"/>
</g>
<g opacity="0.5">
<path d="M377.353 397.64C377.353 397.64 371.402 408.904 346.237 415.959C330.924 420.205 364.587 420.715 388.366 402.286L377.353 397.64Z" fill="#7A7979"/>
</g>
<g opacity="0.3">
<path d="M296.398 403.27C296.398 403.27 303.627 410.65 318.557 414.059C324.845 415.356 316.056 418.66 304.807 417.287C295.773 416.186 286.737 409.547 286.737 409.547L296.398 403.27Z" fill="#7A7979"/>
</g>
<path d="M297.285 402.453C307.182 397.924 314.422 395.178 319.956 390.078C325.311 385.056 327.892 385.382 327.892 385.382L334.985 384.523L342.124 384.23C342.124 384.23 346.971 383.47 350.643 387.571C353.455 391.259 360.057 393.186 372.76 395.411C382.975 397.229 392.963 399.732 394.171 409.114C395.442 418.884 372.589 431.741 338.124 434.53C303.658 437.318 280.848 428.186 280.522 418.309C280.197 409.679 287.827 406.761 297.285 402.453Z" stroke="#B4B2AF" stroke-width="6.63424" stroke-linecap="round" stroke-linejoin="round"/>
<path d="M280.522 418.31C281.436 420.843 294.002 438.636 339.114 433.995C384.46 429.331 393.675 411.764 394.171 409.115C394.527 407.231 395.487 403.866 390.332 402.538C386.316 405.78 370.496 421.859 337.241 424.215C306.815 426.371 288.078 414.3 284.552 411.826C280.251 413.788 279.91 416.606 280.522 418.31Z" fill="#CCCCCC"/>
<path d="M324.487 386.573C326.775 385.241 327.892 385.382 327.892 385.382L334.985 384.523L342.124 384.23C342.124 384.23 346.971 383.47 350.643 387.571C353.455 391.259 360.057 393.186 372.76 395.411C382.975 397.229 392.963 399.732 394.171 409.114C395.442 418.884 372.589 431.741 338.124 434.53C303.658 437.318 280.848 428.186 280.522 418.309C280.225 410.424 286.569 407.308 294.881 403.542" stroke="#9D9C9B" stroke-width="6.63424" stroke-linecap="round" stroke-linejoin="round"/>
<path d="M324.487 386.573C326.775 385.241 327.891 385.382 327.891 385.382L334.985 384.523L342.124 384.23C342.124 384.23 346.971 383.471 350.643 387.571C353.455 391.259 360.057 393.186 372.76 395.411C379.993 396.698 387.112 398.329 391.081 402.502" stroke="#848383" stroke-width="6.63424" stroke-linecap="round" stroke-linejoin="round"/>
<path d="M339.092 255.027C334.476 263.083 333.202 284.017 335.596 320.664C336.911 340.787 338.71 368.273 342.792 387.524C342.792 387.524 339.609 389.369 334.881 389.752C330.153 390.135 326.714 388.825 326.714 388.825C327.648 369.168 325.038 342.162 323.1 322.089C319.571 285.534 314.854 265.468 310.155 257.911" fill="url(#paint3_linear_1321_104546)"/>
<path d="M339.092 255.027C334.476 263.083 333.202 284.017 335.596 320.664C336.911 340.787 338.71 368.273 342.792 387.524C342.792 387.524 339.609 389.369 334.881 389.752C330.153 390.135 326.714 388.825 326.714 388.825C327.648 369.168 325.038 342.162 323.1 322.089C319.571 285.534 314.854 265.468 310.155 257.911" stroke="#B4B2AF" stroke-width="6.63424" stroke-linecap="round" stroke-linejoin="round"/>
<path d="M339.092 255.027C334.476 263.083 333.202 284.017 335.596 320.664C336.91 340.787 338.709 368.274 342.792 387.525C342.792 387.525 339.609 389.37 334.88 389.752C330.152 390.135 326.713 388.825 326.713 388.825" stroke="#939292" stroke-width="6.63424" stroke-linecap="round" stroke-linejoin="round"/>
<g opacity="0.1">
<path d="M339.225 265.692C339.225 265.692 326.76 275.206 310.971 268.474C310.971 268.474 309.662 263.484 307.519 259.798L342.009 256.304C339.938 260.337 339.225 265.692 339.225 265.692Z" fill="#665F5F"/>
</g>
<path d="M339.912 370.151C340.793 376.145 341.702 382.381 342.793 387.525C342.793 387.525 339.609 389.37 334.881 389.752C330.153 390.135 326.714 388.825 326.714 388.825" stroke="#6D6868" stroke-width="6.63424" stroke-linecap="round" stroke-linejoin="round"/>
<path d="M337.793 283.581C337.793 283.581 335.891 309.026 335.781 333.412C335.668 358.265 336.645 370.62 336.645 370.62L343.314 370.411C338.164 331.857 337.793 283.581 337.793 283.581Z" fill="#6D6868"/>
<path d="M259.095 57.1721C259.095 57.1721 278.264 48.1664 307.686 46.0049C337.073 43.4087 357.525 50.1952 357.525 50.1952C357.525 50.1952 364.808 87.7883 366.644 135.182C368.84 191.972 360.271 257.104 324.383 260.008C288.495 262.912 269.569 200.004 262.605 143.6C256.799 96.5275 259.095 57.1721 259.095 57.1721Z" fill="#E5E2DF"/>
<path d="M258.432 57.9336C260.231 62.1438 283.446 62.3699 307.275 60.1956C328.577 57.9713 355.037 55.7807 357.624 51.4004" stroke="#C5C0BA" stroke-width="6.63424" stroke-linecap="round" stroke-linejoin="round"/>
<path d="M325.96 259.733C348.793 256.556 361.605 231.167 364.357 200.562C367.333 167.457 366.65 118.111 364.62 109C352.188 109.345 341.272 108.626 315.648 120.938C284.51 135.899 272.893 141.417 263.671 146.543C263.045 158.935 267.669 179.786 272.898 197.308C281.086 224.748 296.078 263.892 325.96 259.733Z" fill="#FFF1B8"/>
<path d="M324.388 260.008C350.802 257.517 360.064 226.144 364.68 195.161C368.138 171.943 365.143 111.24 364.519 97.3812C349.374 100.228 338.9 102.157 310.178 112.308C297.139 116.65 273.559 126.176 260.561 128.795C261.37 141.41 270.505 185.963 274.628 201.429C282.698 231.694 302.819 262.043 324.388 260.008Z" fill="url(#paint4_linear_1321_104546)"/>
<mask id="mask4_1321_104546" style="mask-type:luminance" maskUnits="userSpaceOnUse" x="23" y="-134" width="586" height="586">
<path d="M23.8105 -83.6353L559.126 -133.191L608.682 402.125L73.3662 451.68L23.8105 -83.6353Z" fill="white"/>
</mask>
<g mask="url(#mask4_1321_104546)">
<mask id="mask5_1321_104546" style="mask-type:luminance" maskUnits="userSpaceOnUse" x="46" y="-100" width="542" height="542">
<path d="M541.978 -99.731L46.8106 -53.8919L92.6496 441.275L587.817 395.436L541.978 -99.731Z" fill="white"/>
</mask>
<g mask="url(#mask5_1321_104546)">
<g opacity="0.4">
<path d="M305.278 140.013C305.247 141.878 303.71 143.366 301.845 143.335C299.979 143.304 298.492 141.767 298.523 139.901C298.554 138.036 300.091 136.549 301.956 136.58C303.822 136.611 305.309 138.147 305.278 140.013Z" fill="#E2BD47"/>
<path d="M304.903 139.105C304.881 140.472 303.755 141.562 302.387 141.539C301.02 141.517 299.93 140.39 299.953 139.023C299.975 137.656 301.102 136.566 302.469 136.589C303.836 136.611 304.926 137.737 304.903 139.105Z" fill="#FFE67B"/>
</g>
<g opacity="0.4">
<path d="M337.08 139.532C337.05 141.32 335.577 142.746 333.789 142.716C332.001 142.686 330.576 141.213 330.605 139.425C330.635 137.638 332.108 136.212 333.896 136.242C335.684 136.272 337.109 137.745 337.08 139.532Z" fill="#E2BD47"/>
<path d="M336.72 138.661C336.699 139.972 335.619 141.016 334.309 140.995C332.998 140.973 331.954 139.893 331.975 138.582C331.997 137.272 333.076 136.228 334.387 136.25C335.697 136.271 336.742 137.351 336.72 138.661Z" fill="#FFE67B"/>
</g>
<g opacity="0.4">
<path d="M342.865 125.004C342.838 126.661 341.471 127.983 339.814 127.956C338.157 127.928 336.835 126.562 336.862 124.904C336.89 123.247 338.256 121.925 339.914 121.953C341.571 121.981 342.893 123.347 342.865 125.004Z" fill="#E2BD47"/>
<path d="M342.533 124.196C342.513 125.411 341.511 126.379 340.297 126.36C339.082 126.34 338.113 125.337 338.133 124.123C338.153 122.908 339.155 121.94 340.37 121.959C341.585 121.979 342.553 122.982 342.533 124.196Z" fill="#FFE67B"/>
</g>
<g opacity="0.4">
<path d="M287.541 147.105C287.519 148.393 286.457 149.42 285.169 149.398C283.881 149.377 282.855 148.315 282.876 147.027C282.897 145.739 283.959 144.712 285.247 144.734C286.535 144.755 287.562 145.817 287.541 147.105Z" fill="#E2BD47"/>
<path d="M287.282 146.477C287.266 147.421 286.488 148.174 285.544 148.158C284.6 148.142 283.847 147.364 283.863 146.42C283.879 145.476 284.657 144.724 285.601 144.74C286.545 144.755 287.297 145.533 287.282 146.477Z" fill="#FFE67B"/>
</g>
</g>
<mask id="mask6_1321_104546" style="mask-type:luminance" maskUnits="userSpaceOnUse" x="46" y="-100" width="542" height="542">
<path d="M46.8105 -53.8921L541.978 -99.7311L587.817 395.436L92.6496 441.275L46.8105 -53.8921Z" fill="white"/>
</mask>
<g mask="url(#mask6_1321_104546)">
<g opacity="0.4">
<path d="M312.735 159.13C313.182 161.322 315.321 162.737 317.513 162.29C319.705 161.843 321.12 159.703 320.673 157.512C320.226 155.32 318.086 153.905 315.895 154.352C313.703 154.799 312.288 156.939 312.735 159.13Z" fill="#E2BD47"/>
<path d="M312.976 157.978C313.304 159.584 314.873 160.621 316.479 160.293C318.086 159.965 319.123 158.397 318.795 156.79C318.467 155.183 316.899 154.146 315.292 154.474C313.686 154.803 312.648 156.371 312.976 157.978Z" fill="#FFE67B"/>
</g>
<g opacity="0.4">
<path d="M316.096 192.219C316.453 193.971 318.163 195.102 319.915 194.745C321.667 194.387 322.798 192.678 322.44 190.926C322.083 189.174 320.373 188.043 318.621 188.4C316.869 188.758 315.738 190.467 316.096 192.219Z" fill="#E2BD47"/>
<path d="M316.289 191.298C316.551 192.582 317.804 193.411 319.088 193.149C320.372 192.887 321.201 191.634 320.939 190.35C320.677 189.066 319.424 188.237 318.14 188.499C316.856 188.761 316.027 190.014 316.289 191.298Z" fill="#FFE67B"/>
</g>
<g opacity="0.4">
<path d="M335.901 211.336C336.258 213.088 337.968 214.219 339.72 213.861C341.472 213.504 342.602 211.794 342.245 210.042C341.888 208.29 340.178 207.16 338.426 207.517C336.674 207.874 335.543 209.584 335.901 211.336Z" fill="#E2BD47"/>
<path d="M336.093 210.415C336.354 211.699 337.608 212.527 338.892 212.265C340.176 212.004 341.004 210.751 340.743 209.467C340.481 208.182 339.228 207.354 337.944 207.616C336.659 207.877 335.831 209.13 336.093 210.415Z" fill="#FFE67B"/>
</g>
<g opacity="0.4">
<path d="M336.299 243.968C336.656 245.72 338.366 246.851 340.118 246.493C341.87 246.136 343.001 244.426 342.644 242.674C342.286 240.922 340.576 239.791 338.824 240.149C337.072 240.506 335.942 242.216 336.299 243.968Z" fill="#E2BD47"/>
<path d="M336.492 243.046C336.754 244.331 338.007 245.159 339.291 244.897C340.575 244.636 341.404 243.383 341.142 242.098C340.88 240.814 339.627 239.986 338.343 240.247C337.059 240.509 336.23 241.762 336.492 243.046Z" fill="#FFE67B"/>
</g>
<g opacity="0.4">
<path d="M301.165 241.653C301.379 242.704 302.405 243.382 303.456 243.168C304.508 242.954 305.186 241.928 304.972 240.877C304.757 239.825 303.731 239.147 302.68 239.361C301.629 239.576 300.951 240.602 301.165 241.653Z" fill="#E2BD47"/>
<path d="M301.281 241.099C301.438 241.87 302.19 242.367 302.96 242.21C303.731 242.053 304.228 241.3 304.071 240.53C303.914 239.759 303.162 239.263 302.392 239.42C301.621 239.577 301.124 240.329 301.281 241.099Z" fill="#FFE67B"/>
</g>
<g opacity="0.4">
<path d="M293.918 241.65C294.145 242.76 295.228 243.477 296.338 243.25C297.447 243.024 298.164 241.94 297.938 240.831C297.711 239.721 296.628 239.004 295.518 239.231C294.409 239.457 293.692 240.541 293.918 241.65Z" fill="#E2BD47"/>
<path d="M294.04 241.066C294.206 241.879 295 242.404 295.814 242.239C296.627 242.073 297.152 241.278 296.986 240.465C296.82 239.652 296.026 239.127 295.212 239.292C294.399 239.458 293.874 240.253 294.04 241.066Z" fill="#FFE67B"/>
</g>
<g opacity="0.4">
<path d="M342.532 230.396C342.557 230.522 342.681 230.603 342.807 230.578C342.933 230.552 343.015 230.429 342.989 230.303C342.963 230.176 342.84 230.095 342.714 230.121C342.587 230.146 342.506 230.27 342.532 230.396Z" fill="#E2BD47"/>
<path d="M342.545 230.329C342.564 230.422 342.654 230.481 342.747 230.462C342.84 230.444 342.899 230.353 342.88 230.261C342.861 230.168 342.771 230.109 342.679 230.127C342.586 230.146 342.526 230.237 342.545 230.329Z" fill="#FFE67B"/>
</g>
<g opacity="0.4">
<path d="M332.865 221.837C333.122 223.099 334.354 223.914 335.616 223.656C336.879 223.399 337.693 222.167 337.436 220.904C337.178 219.642 335.946 218.828 334.684 219.085C333.422 219.342 332.607 220.575 332.865 221.837Z" fill="#E2BD47"/>
<path d="M333.003 221.173C333.192 222.098 334.095 222.696 335.02 222.507C335.945 222.318 336.542 221.415 336.353 220.49C336.164 219.565 335.262 218.968 334.337 219.156C333.412 219.345 332.815 220.248 333.003 221.173Z" fill="#FFE67B"/>
</g>
<g opacity="0.4">
<path d="M290.516 147.324C290.773 148.587 292.006 149.401 293.268 149.144C294.53 148.886 295.344 147.654 295.087 146.392C294.83 145.13 293.597 144.315 292.335 144.572C291.073 144.83 290.259 146.062 290.516 147.324Z" fill="#E2BD47"/>
<path d="M290.655 146.66C290.844 147.585 291.746 148.182 292.671 147.993C293.596 147.805 294.193 146.902 294.005 145.977C293.816 145.052 292.913 144.455 291.988 144.644C291.063 144.832 290.466 145.735 290.655 146.66Z" fill="#FFE67B"/>
</g>
<g opacity="0.4">
<path d="M354.28 199.611C354.428 200.338 355.138 200.807 355.865 200.659C356.593 200.51 357.062 199.8 356.913 199.073C356.765 198.346 356.055 197.877 355.328 198.025C354.601 198.174 354.132 198.883 354.28 199.611Z" fill="#E2BD47"/>
<path d="M354.359 199.228C354.468 199.761 354.988 200.105 355.521 199.997C356.054 199.888 356.399 199.368 356.29 198.835C356.181 198.302 355.661 197.957 355.128 198.066C354.595 198.175 354.251 198.695 354.359 199.228Z" fill="#FFE67B"/>
</g>
<g opacity="0.4">
<path d="M285.261 173.447C285.409 174.174 286.119 174.643 286.846 174.495C287.573 174.347 288.042 173.637 287.894 172.91C287.746 172.183 287.036 171.713 286.309 171.862C285.581 172.01 285.112 172.72 285.261 173.447Z" fill="#E2BD47"/>
<path d="M285.341 173.064C285.45 173.597 285.97 173.942 286.503 173.833C287.035 173.724 287.38 173.204 287.271 172.671C287.162 172.138 286.642 171.794 286.11 171.902C285.577 172.011 285.232 172.531 285.341 173.064Z" fill="#FFE67B"/>
</g>
</g>
</g>
<path d="M276.08 51.0629C276.08 51.0629 277.306 215.215 316.758 214.634C360.686 213.987 337.836 44.6436 337.836 44.6436L308.912 45.1648C308.912 45.1648 310.907 74.5656 312.227 105.427C313.666 139.053 317.468 159.638 313.851 160.59C310.602 161.443 309.16 140.193 305.936 105.437C303.126 75.1524 301.925 46.6995 301.925 46.6995L276.08 51.0629Z" fill="url(#paint5_linear_1321_104546)"/>
<path d="M258.431 57.9333C260.688 52.9877 286.119 47.3559 307.325 45.7181C327.582 44.5483 351.023 44.9733 357.623 51.4001" stroke="#C5C0BA" stroke-width="6.63424" stroke-linecap="round" stroke-linejoin="round"/>
<g opacity="0.2">
<path d="M324.388 260.004C360.274 257.098 368.836 191.972 366.644 135.183C366.642 135.042 363.212 131.273 363.21 131.132C361.816 180.722 346.693 218.693 320.387 220.6C293.413 222.557 273.409 181.431 264.458 132.64C264.475 132.727 262.595 143.509 262.604 143.598C269.569 200.008 288.494 262.913 324.388 260.004Z" fill="#8E4D06"/>
</g>
<g opacity="0.2">
<path d="M301.537 249.525C301.537 249.525 312.079 253.144 325.562 251.49C337.925 249.974 345.429 243.574 345.429 243.574C345.914 245.365 343.353 255.222 325.255 258.273C316.237 259.793 301.05 252.147 301.537 249.525Z" fill="#FAD45B"/>
</g>
<path d="M357.387 52.3538C359.741 65.193 365.215 98.2792 366.644 135.182C368.84 191.972 360.272 257.104 324.384 260.008C288.496 262.912 269.569 200.004 262.606 143.6C258.085 106.947 258.169 73.4114 258.428 60.361" stroke="#AAA398" stroke-width="6.63424" stroke-linecap="round" stroke-linejoin="round"/>
<path d="M357.387 52.3539C359.741 65.1932 365.215 98.2785 366.644 135.182C368.84 191.971 360.272 257.104 324.384 260.007C288.496 262.911 269.569 200.003 262.606 143.599C260.521 126.703 259.416 110.47 258.855 96.6" stroke="#B29544" stroke-width="6.63424" stroke-linecap="round" stroke-linejoin="round"/>
<path d="M324.384 260.007C288.496 262.911 269.569 200.003 262.606 143.599C260.521 126.703 259.416 110.47 258.855 96.6007" stroke="#9B7623" stroke-width="6.63424" stroke-linecap="round" stroke-linejoin="round"/>
<path d="M366.841 161.411C365.604 210.335 354.816 257.545 324.384 260.007C294.189 262.45 276.001 218.308 266.843 170.648" stroke="#7F540E" stroke-width="6.63424" stroke-linecap="round" stroke-linejoin="round"/>
<path d="M338.838 254.672C334.605 257.709 329.807 259.569 324.384 260.008C319.711 260.385 315.326 259.647 311.217 257.954" stroke="#5B360D" stroke-width="6.63424" stroke-linecap="round" stroke-linejoin="round"/>
<path d="M269.989 170.037C269.989 170.037 265.198 142.235 264.458 132.64C264.458 132.64 261.311 154.979 263.595 171.275L269.989 170.037Z" fill="#7F540E"/>
<path d="M363.643 161.624C363.643 161.624 363.803 143.923 363.209 131.132C363.209 131.132 370.46 151.793 370.065 162.114L363.643 161.624Z" fill="#7F540E"/>
<path d="M355.117 239.124C355.117 239.124 351.618 249.354 341.156 256.938L336.566 252.273C336.566 252.273 344.245 248.787 355.117 239.124Z" fill="#5B360D"/>
<path d="M312.424 254.961C312.424 254.961 297.652 250.911 290.827 244.997C290.827 244.997 298.239 255.964 310.006 260.974L312.424 254.961Z" fill="#5B360D"/>
<path d="M261.515 70.8125C261.515 70.8125 261.908 97.0303 262.378 103.408L255.534 96.5303C255.534 96.5303 256.518 85.3551 261.515 70.8125Z" fill="#9B7623"/>
</g>
</g>
</g>
<defs>
<linearGradient id="paint0_linear_1321_104546" x1="154.69" y1="283.824" x2="140.39" y2="401.88" gradientUnits="userSpaceOnUse">
<stop stop-color="#999999"/>
<stop offset="0.09" stop-color="#C6C6C6"/>
<stop offset="0.42" stop-color="#F2F2F2"/>
<stop offset="0.74" stop-color="#E3E3E3"/>
<stop offset="1" stop-color="#D5D4D4"/>
</linearGradient>
<linearGradient id="paint1_linear_1321_104546" x1="212.315" y1="72.8703" x2="184.086" y2="282.451" gradientUnits="userSpaceOnUse">
<stop stop-color="#FFF6AC"/>
<stop offset="0.15" stop-color="#F8ED84"/>
<stop offset="0.42" stop-color="#F1E55C"/>
<stop offset="0.73" stop-color="#C9B236"/>
<stop offset="0.87" stop-color="#A1800F"/>
<stop offset="0.94" stop-color="#9F890D"/>
<stop offset="1" stop-color="#9D910B"/>
</linearGradient>
<linearGradient id="paint2_linear_1321_104546" x1="227.687" y1="101.68" x2="207.232" y2="254.034" gradientUnits="userSpaceOnUse">
<stop stop-color="white" stop-opacity="0.8"/>
<stop offset="0.42" stop-color="white" stop-opacity="0.4"/>
<stop offset="1" stop-color="white" stop-opacity="0"/>
</linearGradient>
<linearGradient id="paint3_linear_1321_104546" x1="295.164" y1="270.169" x2="306.115" y2="394.518" gradientUnits="userSpaceOnUse">
<stop stop-color="#999999"/>
<stop offset="0.09" stop-color="#C6C6C6"/>
<stop offset="0.42" stop-color="#F2F2F2"/>
<stop offset="0.74" stop-color="#E3E3E3"/>
<stop offset="1" stop-color="#D5D4D4"/>
</linearGradient>
<linearGradient id="paint4_linear_1321_104546" x1="306.006" y1="51.7556" x2="323.575" y2="262.497" gradientUnits="userSpaceOnUse">
<stop stop-color="#FFF6AC"/>
<stop offset="0.15" stop-color="#F8ED84"/>
<stop offset="0.42" stop-color="#F1E55C"/>
<stop offset="0.73" stop-color="#C9B236"/>
<stop offset="0.87" stop-color="#A1800F"/>
<stop offset="0.94" stop-color="#9F890D"/>
<stop offset="1" stop-color="#9D910B"/>
</linearGradient>
<linearGradient id="paint5_linear_1321_104546" x1="324.947" y1="61.3916" x2="337.783" y2="214.575" gradientUnits="userSpaceOnUse">
<stop stop-color="white" stop-opacity="0.8"/>
<stop offset="0.42" stop-color="white" stop-opacity="0.4"/>
<stop offset="1" stop-color="white" stop-opacity="0"/>
</linearGradient>
<clipPath id="clip0_1321_104546">
<rect width="512" height="512" fill="white" transform="translate(0.166016 0.0625)"/>
</clipPath>
</defs>
</svg>
