<svg width="513" height="513" viewBox="0 0 513 513" fill="none" xmlns="http://www.w3.org/2000/svg">
<g clip-path="url(#clip0_1943_154563)">
<mask id="mask0_1943_154563" style="mask-type:luminance" maskUnits="userSpaceOnUse" x="0" y="0" width="513" height="513">
<path d="M512.059 0.046875H0.0585938V512.047H512.059V0.046875Z" fill="white"/>
</mask>
<g mask="url(#mask0_1943_154563)">
<path d="M325.531 159.715C233.856 101.45 90.932 82.6986 53.0107 151.352C26.7072 198.972 52.4124 283.311 112.256 344.32C167.919 401.069 227.943 427.91 264.216 431.386C300.489 434.862 311.694 419.094 307.425 390.761C304.549 371.67 278.128 365.082 285.865 357.206C295.649 347.229 323.37 354.33 350.879 374.764C381.846 397.783 428.182 431.348 461.029 374.213C494.334 316.28 422.043 221.065 325.531 159.715ZM352.804 314.172C345.375 324.247 326.969 323.266 311.7 311.997C296.432 300.719 290.071 283.424 297.501 273.358C304.941 263.283 323.345 264.263 338.614 275.532C353.882 286.802 360.243 304.106 352.804 314.172Z" fill="url(#paint0_linear_1943_154563)"/>
<path d="M325.531 159.715C233.856 101.45 90.932 82.6986 53.0107 151.352C26.7072 198.972 52.4124 283.311 112.256 344.32C167.919 401.069 227.943 427.91 264.216 431.386C300.489 434.862 311.694 419.094 307.425 390.761C304.549 371.67 278.128 365.082 285.865 357.206C295.649 347.229 323.37 354.33 350.879 374.764C381.846 397.783 428.182 431.348 461.029 374.213C494.334 316.28 422.043 221.065 325.531 159.715ZM352.804 314.172C345.375 324.247 326.969 323.266 311.7 311.997C296.432 300.719 290.071 283.424 297.501 273.358C304.941 263.283 323.345 264.263 338.614 275.532C353.882 286.802 360.243 304.106 352.804 314.172Z" stroke="#381305" stroke-width="7.6" stroke-linecap="round" stroke-linejoin="round"/>
<g opacity="0.2">
<path d="M303.728 411.389C294.118 435.48 264.673 426.702 263.966 426.654L269.888 415.239C271.67 415.501 295.291 413.7 303.728 411.389Z" fill="white"/>
</g>
<g opacity="0.2">
<path d="M441.706 391.711C424.862 408.169 402.872 398.498 402.165 398.45L407.279 388.777C409.062 389.039 426.975 393.808 441.706 391.711Z" fill="white"/>
</g>
<path d="M336.321 141.005C244.646 82.7396 113.212 71.2706 64.2748 131.216C20.2163 185.185 61.7774 265.076 121.621 326.085C177.284 382.834 242.058 410.388 278.331 413.864C314.604 417.34 312.755 391.267 302.064 376.802C290.586 361.276 287.255 349.222 294.991 341.345C304.775 331.368 327.984 337.52 355.493 357.954C386.461 380.972 447.556 415.236 466.593 357.878C487.643 294.456 432.832 202.355 336.321 141.005ZM363.593 295.461C356.163 305.536 337.758 304.556 322.49 293.287C307.222 282.009 300.861 264.714 308.29 254.648C315.73 244.573 334.134 245.553 349.403 256.822C364.672 268.092 371.032 285.396 363.593 295.461Z" fill="url(#paint1_linear_1943_154563)"/>
<g opacity="0.65">
<g opacity="0.5">
<path d="M303.674 409.311C300.515 400.644 42.9969 224.172 49.7362 210.016C49.6843 219.104 338.685 393.726 303.674 409.311Z" fill="#E5A83C"/>
</g>
<path d="M48.6326 170.858L228.576 318.605C225.432 310.401 28.3233 186.302 48.6326 170.858Z" fill="#C58D2F"/>
<g opacity="0.6">
<path d="M374.761 371.828C354.698 351.356 158.354 225.892 172.307 188.086C172.318 188.076 374.761 371.828 374.761 371.828Z" fill="#CB9336"/>
</g>
<path d="M309.217 337.606C247.149 332.229 111.912 188.017 51.9875 156.528C51.9944 156.514 63.8475 132.752 63.8475 132.752C110.816 191.326 246.87 294.49 309.217 337.606Z" fill="#DA9E33"/>
<g opacity="0.6">
<path d="M319.343 249.057C311.872 270.53 74.3908 76.7012 141.467 93.3476C203.484 124.961 252.224 207.032 319.343 249.057Z" fill="#C58B2D"/>
</g>
<g opacity="0.6">
<path d="M464.064 365.351C464.382 401.944 349.485 323.817 366.666 286.996C400.216 313.597 433.336 339.586 464.064 365.351Z" fill="#CB9336"/>
</g>
<path d="M358.743 265.746C349.401 256.824 343.516 250.796 323.575 248.626C265.907 198.22 201.192 140.126 141.479 93.329C173.673 77.8346 204.529 136.182 220.252 148.391C226.296 157.529 359.639 247.787 358.743 265.746Z" fill="#DDA033"/>
<g opacity="0.5">
<path d="M292.147 414.491C271.939 427.744 76.816 268.434 68.17 256.582C59.6949 241.256 293.206 418.134 292.147 414.491Z" fill="#CB9336"/>
</g>
<path d="M404.663 288.866C390.717 275.157 242.757 157.472 242.64 139.336C231.105 134.972 477.603 331.284 404.663 288.866Z" fill="#CB9336"/>
<path d="M78.2977 124.81L173.701 202.359C166.802 201.404 86.4 103.872 78.2977 124.81Z" fill="#C38B2F"/>
<g opacity="0.6">
<path d="M469.698 312.52C410.715 280.452 261.978 129.86 206.42 94.5664C220.207 89.338 473.943 295.062 469.698 312.52Z" fill="#CB9336"/>
</g>
<path d="M437.273 389.198C344.008 359.447 184.987 155.555 100.733 103.875C198.915 150.528 338.27 316.246 437.273 389.198Z" fill="#D49A3A"/>
</g>
<g opacity="0.5">
<path d="M370.464 294.111C365.905 300.286 361.746 300.327 363.592 295.461C377.421 259.001 327.448 237.328 308.29 254.648C303.23 259.222 300.518 255.684 306.147 248.049C315.045 236.002 337.07 234.417 355.33 247.892C373.591 261.376 379.362 282.063 370.464 294.111Z" fill="#FCC344"/>
</g>
<g opacity="0.5">
<path d="M466.593 357.878C458.377 382.635 442.33 390.323 424.247 389.216C436.281 386.426 446.437 377.811 452.363 360.045C472.696 299.085 419.743 210.557 326.507 151.589C237.934 95.584 105.666 83.1611 63.6832 142.184C53.4651 156.564 48.4461 172.264 47.6648 188.684C46.839 168.315 51.8316 148.799 64.2746 131.217C107.735 69.8161 244.645 82.7398 336.321 141.005C432.832 202.356 487.642 294.456 466.593 357.878Z" fill="#FFC85A"/>
</g>
<path d="M299.304 377.714C309.994 392.18 314.604 417.34 278.331 413.864C242.058 410.388 177.284 382.835 121.622 326.086C108.63 312.836 96.6777 298.837 86.3465 284.454C87.9144 286.059 176.096 383.403 261.679 400.522C314.501 411.088 304.783 388.092 299.304 377.714Z" fill="#FEDB79"/>
<path d="M470.43 340.363C469.733 346.393 468.457 352.255 466.593 357.877C447.556 415.236 386.461 380.971 355.493 357.953C338.325 345.207 311.231 334.071 311.231 334.071C311.231 334.071 323.74 328.486 364.668 355.101C405.353 381.558 458.12 399 470.43 340.363Z" fill="#FEDB79"/>
<path d="M336.331 141.013C244.831 82.8946 113.573 71.5728 64.6342 131.517C20.5742 185.484 62.0002 265.262 121.706 326.155C177.24 382.797 241.905 410.258 278.129 413.693C314.353 417.128 312.533 391.081 301.871 376.639C290.424 361.139 287.109 349.099 294.844 341.221C304.626 331.243 327.8 337.365 355.253 357.752C386.159 380.717 447.142 414.888 466.216 357.56C487.305 294.172 432.659 202.209 336.331 141.013ZM363.408 295.306C355.977 305.38 337.596 304.42 322.359 293.177C307.121 281.924 300.786 264.651 308.217 254.586C315.658 244.512 334.039 245.472 349.276 256.715C364.514 267.959 370.849 285.241 363.408 295.306Z" stroke="#915206" stroke-width="7.59194" stroke-linecap="round" stroke-linejoin="round"/>
<g opacity="0.2">
<path d="M390.752 263.073C378.807 265.569 377.439 277.225 389.797 291.897C396.099 299.38 391.199 311.175 398.056 322.557C407.242 337.803 460.221 352.304 461.69 328.891C463.389 301.826 414.893 258.027 390.752 263.073Z" fill="#5B001C"/>
</g>
<path d="M395.799 264.984C386.333 265.452 385.01 273.56 397.368 288.232C403.67 295.714 399.312 305.893 406.534 317.047C418.747 335.91 433.648 330.329 438.686 332.008C443.724 333.687 465.374 338.5 460.496 317.477C457.641 305.174 448.756 292.681 437.587 282.966C424.776 271.821 408.959 264.332 395.799 264.984Z" fill="#FF2E2E"/>
<path d="M395.799 264.984C386.333 265.452 385.01 273.56 397.368 288.232C403.67 295.714 399.312 305.893 406.534 317.047C418.747 335.91 433.648 330.329 438.686 332.008C443.724 333.687 465.374 338.5 460.496 317.477C457.641 305.174 448.756 292.681 437.587 282.966C424.776 271.821 408.959 264.332 395.799 264.984Z" stroke="#D3002E" stroke-width="7.6" stroke-linecap="round" stroke-linejoin="round"/>
<path d="M395.799 264.983C386.333 265.451 385.01 273.559 397.367 288.231C403.67 295.714 399.312 305.893 406.534 317.047C418.747 335.909 433.648 330.329 438.686 332.008C441.719 333.019 450.771 335.164 456.433 332.126" stroke="#A3022C" stroke-width="7.6" stroke-linecap="round" stroke-linejoin="round"/>
<path d="M416.725 303.495C411.795 282.911 399.814 277.913 402.882 271.92C405.95 265.927 440.491 281.296 454.458 311.071C457.359 319.067 455.509 323.198 444.273 320.637C433.036 318.077 418.878 312.483 416.725 303.495Z" fill="#FF4D4D"/>
<g opacity="0.3">
<path d="M422.677 280.858C420.839 280.823 425.894 285.836 428.32 300.986C429.856 310.572 445.78 312.305 449.163 311.06C452.546 309.815 441.455 306.386 435.815 298.7C429.726 290.402 427.242 280.945 422.677 280.858Z" fill="white"/>
</g>
<g opacity="0.2">
<path d="M316.466 198.942C318.963 195.939 298.694 180.028 306.968 170.31C312.175 164.193 367.914 188.014 378.251 208.792C388.467 229.326 374.838 235.637 350.77 229.805C327.971 224.281 304.672 213.119 316.466 198.942Z" fill="#8E5400"/>
</g>
<path d="M325.458 193.397C327.956 190.395 304.625 178.761 312.899 169.042C318.106 162.925 332.092 165.559 344.44 171.94C351.611 175.645 376.9 181.55 387.238 202.327C397.454 222.862 383.83 230.093 359.763 224.262C336.963 218.737 313.664 207.574 325.458 193.397Z" fill="#FFD522"/>
<path d="M325.458 193.397C327.956 190.395 304.625 178.761 312.899 169.042C318.106 162.925 332.092 165.559 344.44 171.94C351.611 175.645 376.9 181.55 387.238 202.327C397.454 222.862 383.83 230.093 359.763 224.262C336.963 218.737 313.664 207.574 325.458 193.397Z" stroke="#F9C71F" stroke-width="7.6" stroke-linecap="round" stroke-linejoin="round"/>
<path d="M381.725 225.298C376.343 226.798 368.786 226.448 359.761 224.261C336.962 218.736 313.662 207.573 325.457 193.396C327.955 190.394 304.624 178.76 312.897 169.041" stroke="#E29205" stroke-width="7.6" stroke-linecap="round" stroke-linejoin="round"/>
<path d="M324.213 169.82C327.325 167.71 343.268 176.23 347.432 177.391C351.596 178.552 379.805 188.582 385.51 207.784C387.329 213.71 385.624 222.181 352.343 209.733C338.107 204.526 337.98 200.015 335.796 194.447C333.612 188.88 318.197 173.898 324.213 169.82Z" fill="#F7E839"/>
<g opacity="0.4">
<path d="M326.473 171.942C327.888 174.989 336.543 179.186 337.826 184.182C339.11 189.178 335.438 198.033 349.348 203.175C363.257 208.317 346.094 196.061 345.628 190.767C344.227 174.848 325.498 169.844 326.473 171.942Z" fill="white"/>
</g>
<g opacity="0.2">
<path d="M185.825 138.834C188.077 132.496 169.07 101.462 199.202 106.562C214.591 109.167 274.394 158.429 248.84 180.063C242.135 185.738 230.057 187.459 211.166 180.909C196.603 175.859 178.551 159.309 185.825 138.834Z" fill="#194700"/>
</g>
<path d="M193.892 135.51C196.144 129.173 186.33 121.13 191.752 113.221C198.226 103.779 215.338 108.79 227.234 116.048C240.557 124.178 254.033 124.537 265.22 135.131C273.308 142.791 275.533 155.276 263.707 161.569C259.455 163.832 258.904 169.216 252.945 173.459C244.67 179.35 230.7 179.381 218.504 174.59C204.157 168.955 186.618 155.985 193.892 135.51Z" fill="#3AC114"/>
<path d="M193.892 135.51C196.144 129.173 186.33 121.13 191.752 113.221C198.226 103.779 215.338 108.79 227.234 116.048C240.557 124.178 254.033 124.537 265.22 135.131C273.308 142.791 275.533 155.276 263.707 161.569C259.455 163.832 258.904 169.216 252.945 173.459C244.67 179.35 230.7 179.381 218.504 174.59C204.157 168.955 186.618 155.985 193.892 135.51Z" stroke="#319618" stroke-width="7.6" stroke-linecap="round" stroke-linejoin="round"/>
<path d="M213.069 113.856C196.917 110.369 197.975 117.77 205.391 126.896C210.837 133.597 200.345 139.164 214.344 150.846C224.447 159.276 243.068 164.943 250.587 157.633C258.761 149.688 268.512 153.795 264.623 140.98C261.014 133.681 246.21 129.313 234.588 124.009C224.541 119.422 216.266 114.546 213.069 113.856Z" fill="#4BD629"/>
<path d="M263.706 161.567C259.454 163.83 258.903 169.214 252.944 173.457C244.669 179.348 230.699 179.379 218.503 174.588C204.156 168.953 186.618 155.983 193.892 135.508C196.143 129.171 186.33 121.128 191.752 113.22" stroke="#2B6D08" stroke-width="7.6" stroke-linecap="round" stroke-linejoin="round"/>
<g opacity="0.3">
<path d="M220.343 119.517C225.276 122.759 219.92 128.882 228.146 131.702C237.036 134.749 244.884 135.599 244.361 139.059C243.838 142.518 219.881 141.919 217.476 135.75C215.072 129.581 217.349 123.118 214.615 121.49C209.943 118.709 215.41 116.274 220.343 119.517Z" fill="white"/>
</g>
<g opacity="0.2">
<path d="M102.973 147.339C88.3658 147.469 84.1977 160.263 90.5924 175.986C93.6826 183.583 78.9484 192.753 94.3815 212.745C102.853 223.72 116.171 228.471 141.366 235.671C166.218 242.774 196.14 234.593 193.369 211.025C190.051 182.809 124.423 147.149 102.973 147.339Z" fill="#002877"/>
</g>
<path d="M107.422 146.881C92.4994 147.012 92.8261 160.294 98.7672 173.437C102.156 180.934 88.3959 184.994 103.204 205.701C114.601 221.639 131.509 223.418 151.731 232.382C166.645 238.994 180.116 239.855 181.507 223.383C181.864 219.152 201.301 219.348 187.353 199.008C178.897 186.679 163.281 172.842 147.189 162.524C132.692 153.229 117.807 146.79 107.422 146.881Z" fill="#16B2DB"/>
<path d="M107.422 146.881C92.4994 147.012 92.8261 160.294 98.7672 173.437C102.156 180.934 88.3959 184.994 103.204 205.701C114.601 221.639 131.509 223.418 151.731 232.382C166.645 238.994 180.116 239.855 181.507 223.383C181.864 219.152 201.301 219.348 187.353 199.008C178.897 186.679 163.281 172.842 147.189 162.524C132.692 153.229 117.807 146.79 107.422 146.881Z" stroke="#0C7DC1" stroke-width="7.6" stroke-linecap="round" stroke-linejoin="round"/>
<path d="M113.348 173.655C120.675 187.63 106.653 192.428 133.697 207.391C155.245 219.313 170.686 227.525 170.576 210.738C170.529 203.534 180.421 207.184 184.472 201.309C176.921 190.376 163.621 178.392 149.394 168.723C138.484 161.308 127.029 155.254 117.204 152.078C110.498 155.684 107.696 162.889 113.348 173.655Z" fill="#24D1E3"/>
<path d="M107.422 146.882C92.4997 147.013 92.8264 160.295 98.7675 173.437C102.156 180.934 88.3962 184.995 103.204 205.701C114.601 221.639 131.509 223.418 151.731 232.383C166.645 238.995 180.116 239.855 181.507 223.383" stroke="#095094" stroke-width="7.6" stroke-linecap="round" stroke-linejoin="round"/>
<g opacity="0.33">
<path d="M128.986 166.818C127.675 169.311 139.02 174.879 147.643 182.171C161.687 194.046 167.533 199.121 168.689 194.991C170.155 189.756 132.256 160.597 128.986 166.818Z" fill="white"/>
</g>
<g opacity="0.2">
<path d="M270.856 358.577C279.977 336.789 203.71 274.646 182.235 276.692C155.308 279.259 151.036 324.231 165.487 342.162C180.197 360.412 202.695 367.839 215.286 364.245C225.901 361.214 227.121 359.771 245.862 363.43C259.378 366.068 268.206 364.906 270.856 358.577Z" fill="#260468"/>
</g>
<path d="M271.647 349.793C276.963 339.156 266.905 336.873 259.935 320.934C252.501 303.933 236.916 295.881 222.4 292.241C209.96 289.121 206.245 275.579 184.77 277.626C157.843 280.193 168.109 301.194 168.527 305.492C168.945 309.79 156.482 317.3 171.452 334.798C186.423 352.296 208.668 361.394 221.259 357.8C231.873 354.769 227.912 350.988 246.654 354.646C260.169 357.285 268.579 355.93 271.647 349.793Z" fill="#9D20EF"/>
<path d="M271.647 349.793C276.963 339.156 266.905 336.873 259.935 320.934C252.501 303.933 236.916 295.881 222.4 292.241C209.96 289.121 206.245 275.579 184.77 277.626C157.843 280.193 168.109 301.194 168.527 305.492C168.945 309.79 156.482 317.3 171.452 334.798C186.423 352.296 208.668 361.394 221.259 357.8C231.873 354.769 227.912 350.988 246.654 354.646C260.169 357.285 268.579 355.93 271.647 349.793Z" stroke="#5E18A8" stroke-width="7.6" stroke-linecap="round" stroke-linejoin="round"/>
<path d="M184.77 277.625C157.843 280.191 168.11 301.192 168.528 305.491C168.946 309.789 156.482 317.298 171.453 334.797C186.424 352.295 208.668 361.393 221.259 357.799C231.874 354.768 227.912 350.987 246.654 354.645C260.17 357.284 268.579 355.929 271.647 349.792" stroke="#350482" stroke-width="7.6" stroke-linecap="round" stroke-linejoin="round"/>
<path d="M213.328 338.159C237.075 337.745 232.168 331.919 254.03 339.695C266.17 340.872 255.124 312.928 241.613 304.782C228.102 296.635 220.5 296.382 213.341 291.275C206.183 286.168 168.12 275.784 181.858 305.119C186.363 314.739 189.58 338.573 213.328 338.159Z" fill="#B443E8"/>
<g opacity="0.3">
<path d="M220.893 303.689C217.208 300.13 209.93 299.84 204.581 293.113C199.232 286.386 185.156 286.86 181.724 290.085C177.058 294.472 194.958 293.122 213.715 305.529C219.83 309.574 223.53 306.236 220.893 303.689Z" fill="white"/>
</g>
</g>
</g>
<defs>
<linearGradient id="paint0_linear_1943_154563" x1="126.849" y1="165.513" x2="356.995" y2="415.625" gradientUnits="userSpaceOnUse">
<stop stop-color="#AA6427"/>
<stop offset="0.14" stop-color="#AD6C30"/>
<stop offset="0.28" stop-color="#B1753A"/>
<stop offset="0.36" stop-color="#814F1E"/>
<stop offset="0.57" stop-color="#512802"/>
<stop offset="0.72" stop-color="#6D4621"/>
<stop offset="1" stop-color="#896441"/>
</linearGradient>
<linearGradient id="paint1_linear_1943_154563" x1="89.8378" y1="110.07" x2="374.938" y2="338.334" gradientUnits="userSpaceOnUse">
<stop stop-color="#D39927"/>
<stop offset="0.5" stop-color="#DFA539"/>
<stop offset="1" stop-color="#EBB14A"/>
</linearGradient>
<clipPath id="clip0_1943_154563">
<rect width="512" height="512" fill="white" transform="translate(0.0585938 0.046875)"/>
</clipPath>
</defs>
</svg>
