<svg width="512" height="512" viewBox="0 0 512 512" fill="none" xmlns="http://www.w3.org/2000/svg">
<g clip-path="url(#clip0_1435_89858)">
<mask id="mask0_1435_89858" style="mask-type:luminance" maskUnits="userSpaceOnUse" x="0" y="0" width="512" height="512">
<path d="M512 0H0V512H512V0Z" fill="white"/>
</mask>
<g mask="url(#mask0_1435_89858)">
<path d="M390.905 448.62C390.905 448.62 380.696 434.909 375.349 431.787C374.662 431.386 374.056 431.16 373.562 431.16H251.735H129.909C125.566 431.16 121.544 433.451 119.331 437.189L112.564 448.62C111.854 449.819 111.48 451.187 111.48 452.58L111.436 461.792C112.69 469.039 123.527 468.413 124.73 468.413H378.74C379.942 468.413 391.73 469.005 391.94 462.368L391.99 452.58C391.99 451.187 391.616 449.819 390.905 448.62Z" fill="url(#paint0_linear_1435_89858)"/>
<g opacity="0.5">
<path d="M163.079 449.786L122.801 435.556L121.871 435.227L149.423 433.282L163.079 449.786Z" fill="#550E00"/>
</g>
<g opacity="0.5">
<path d="M111.623 450.359L122.988 454.71C122.988 454.71 125.948 455.671 126.684 455.674L377.236 456.579C378.146 456.582 379.046 456.388 379.872 456.007L391.991 450.43C391.991 450.43 391.989 457.862 391.847 462.374C391.119 467.769 384.592 468.173 380.571 468.27C379.812 468.288 379.142 468.296 378.617 468.324C375.313 468.5 127.857 468.682 124.73 468.42C115.412 467.637 111.816 465.762 111.614 462.091C111.531 460.593 111.48 455.761 111.48 455.761L111.512 454.589L111.623 450.359Z" fill="#550E00"/>
</g>
<g opacity="0.5">
<path d="M124.526 455.282C124.526 455.282 124.683 466.774 124.802 468.491C122.814 468.715 112.537 468.355 111.618 462.144C111.239 459.575 111.48 455.761 111.48 455.761V452.663V450.43L123.363 454.849L124.526 455.282Z" fill="#550E00"/>
</g>
<path d="M379.871 456.007L379.902 468.264C379.902 468.264 391.196 469.29 391.995 462.216C392.304 459.47 392.145 457.201 392.047 456.247C392.015 455.933 391.989 455.761 391.989 455.761V450.43L379.871 456.007Z" fill="#BF6121"/>
<path d="M390.905 448.62C390.905 448.62 380.696 434.909 375.349 431.787C374.662 431.386 374.056 431.16 373.562 431.16H251.735H129.909C125.566 431.16 121.544 433.451 119.331 437.189L112.564 448.62C111.854 449.819 111.48 451.187 111.48 452.58L111.436 461.792C112.69 469.039 123.527 468.413 124.73 468.413H378.74C379.942 468.413 391.73 469.005 391.94 462.368L391.99 452.58C391.99 451.187 391.616 449.819 390.905 448.62Z" stroke="#550E00" stroke-width="8.59859" stroke-linecap="round" stroke-linejoin="round"/>
<path d="M355.606 373.292C355.561 367.83 351.124 363.433 345.663 363.433H159.419C153.959 363.433 149.52 367.83 149.475 373.292C149.345 389.217 149.497 420.51 149.547 429.788C149.556 431.487 150.266 433.097 151.508 434.257L162.679 444.687C163.796 445.729 165.267 446.309 166.795 446.309H338.288C339.816 446.309 341.287 445.729 342.404 444.687L353.575 434.257C354.818 433.097 355.526 431.487 355.534 429.788C355.567 423.822 355.642 408.757 355.656 394.525C355.663 386.622 355.653 378.977 355.606 373.292Z" fill="url(#paint1_linear_1435_89858)"/>
<path d="M355.606 373.292C355.561 367.83 351.124 363.433 345.663 363.433H159.419C153.959 363.433 149.52 367.83 149.475 373.292C149.345 389.217 149.497 420.51 149.547 429.788C149.556 431.487 150.266 433.097 151.508 434.257L162.679 444.687C163.796 445.729 165.267 446.309 166.795 446.309H338.288C339.816 446.309 341.287 445.729 342.404 444.687L353.575 434.257C354.818 433.097 355.526 431.487 355.534 429.788C355.567 423.822 355.642 408.757 355.656 394.525C355.663 386.622 355.653 378.977 355.606 373.292Z" stroke="#550E00" stroke-width="8.59859" stroke-linecap="round" stroke-linejoin="round"/>
<path d="M355.538 429.788C355.527 431.486 354.818 433.099 353.571 434.26L342.405 444.687C341.287 445.729 339.815 446.31 338.289 446.31H337.042V391.896C337.042 390.294 335.742 388.994 334.141 388.994L355.602 373.289C355.666 380.564 355.667 391.045 355.645 401.167C355.62 413.21 355.562 424.747 355.538 429.788Z" fill="#BF6121"/>
<path d="M355.538 429.788C355.527 431.486 354.818 433.099 353.571 434.26L342.405 444.687C341.287 445.729 339.815 446.31 338.289 446.31H337.042V391.896C337.042 390.294 335.742 388.994 334.141 388.994L355.602 373.289C355.666 380.564 355.667 391.045 355.645 401.167C355.62 413.21 355.562 424.747 355.538 429.788Z" stroke="#BF6E2C" stroke-width="8.59859" stroke-linecap="round" stroke-linejoin="round"/>
<path d="M169.623 388.994C168.022 388.994 166.722 390.294 166.722 391.896V446.31C165.217 446.288 163.777 445.708 162.681 444.687L156.11 433.58C154.874 432.419 149.559 431.486 149.548 429.788C149.494 420.511 149.344 389.219 149.473 373.289L169.623 388.994Z" fill="#672600"/>
<path d="M169.623 388.994C168.022 388.994 166.722 390.294 166.722 391.896V446.31C165.217 446.288 163.777 445.708 162.681 444.687L156.11 433.58C154.874 432.419 149.559 431.486 149.548 429.788C149.494 420.511 149.344 389.219 149.473 373.289L169.623 388.994Z" stroke="#631F04" stroke-width="8.59859" stroke-linecap="round" stroke-linejoin="round"/>
<path d="M355.606 373.292C355.561 367.83 351.124 363.433 345.663 363.433H159.419C153.959 363.433 149.52 367.83 149.475 373.292C149.345 389.217 149.497 420.51 149.547 429.788C149.556 431.487 150.266 433.097 151.508 434.257L162.679 444.687C163.796 445.729 165.267 446.309 166.795 446.309H338.288C339.816 446.309 341.287 445.729 342.404 444.687L353.575 434.257C354.818 433.097 355.526 431.487 355.534 429.788C355.567 423.822 355.642 408.757 355.656 394.525C355.663 386.622 355.653 378.977 355.606 373.292Z" stroke="#550E00" stroke-width="8.59859" stroke-linecap="round" stroke-linejoin="round"/>
<path d="M337.045 446.309H166.723V391.895C166.723 390.291 168.023 388.991 169.626 388.991H334.141C335.744 388.991 337.045 390.291 337.045 391.895V446.309Z" fill="url(#paint2_linear_1435_89858)"/>
<path d="M337.045 446.309H166.723V391.895C166.723 390.291 168.023 388.991 169.626 388.991H334.141C335.744 388.991 337.045 390.291 337.045 391.895V446.309Z" stroke="#672600" stroke-width="8.59859" stroke-linecap="round" stroke-linejoin="round"/>
<g opacity="0.2">
<path d="M337.04 391.892V403.168C337.04 401.566 335.739 400.265 334.138 400.265H169.622C168.021 400.265 166.721 401.566 166.721 403.168V391.892C166.721 390.29 168.021 388.989 169.622 388.989H334.138C335.739 388.989 337.04 390.29 337.04 391.892Z" fill="#672600"/>
</g>
<path d="M355.606 373.292C355.561 367.83 351.124 363.433 345.663 363.433H159.419C153.959 363.433 149.52 367.83 149.475 373.292C149.345 389.217 149.497 420.51 149.547 429.788C149.556 431.487 150.266 433.097 151.508 434.257L162.679 444.687C163.796 445.729 165.267 446.309 166.795 446.309H338.288C339.816 446.309 341.287 445.729 342.404 444.687L353.575 434.257C354.818 433.097 355.526 431.487 355.534 429.788C355.567 423.822 355.642 408.757 355.656 394.525C355.663 386.622 355.653 378.977 355.606 373.292Z" stroke="#6B2100" stroke-width="8.59859" stroke-linecap="round" stroke-linejoin="round"/>
<path d="M149.475 373.292C149.345 389.217 149.497 420.51 149.547 429.788C149.556 431.487 150.266 433.097 151.508 434.257L162.679 444.687C163.796 445.729 165.267 446.309 166.795 446.309H338.288" stroke="#470A00" stroke-width="8.59859" stroke-linecap="round" stroke-linejoin="round"/>
<path d="M337.045 446.309H166.723V391.895C166.723 390.291 168.023 388.991 169.626 388.991" stroke="#470A00" stroke-width="8.59859" stroke-linecap="round" stroke-linejoin="round"/>
<path d="M390.811 117.168C390.811 117.168 382.351 107.984 387.954 99.8871C394.002 91.1477 414.845 92.4877 422.215 104.668C429.585 116.848 424.459 135.438 401.386 153.067C378.314 170.696 361.998 180.926 352.705 194.708C343.412 208.49 352.041 221.182 365.175 221.311C375.707 221.415 380.556 215.248 380.556 215.248C380.556 215.248 367.031 216.367 367.098 207.556C367.155 200.122 388.723 191.934 412.602 176.145C427.059 166.586 456.824 145.64 456.824 116.527C456.824 91.8321 436.209 70.6586 404.911 72.9085C373.613 75.1584 369.698 94.2698 370.623 102.424C371.885 113.56 385.043 120.694 390.811 117.168Z" fill="url(#paint3_radial_1435_89858)"/>
<g opacity="0.7">
<path d="M422.031 151.641C397.402 174.051 366.237 185.957 357.032 197.004C347.837 208.041 353.789 221.045 365.169 221.312C352.039 221.184 343.407 208.486 352.701 194.71C361.995 180.924 378.309 170.698 401.386 153.065C424.453 135.442 429.585 116.85 422.219 104.666C414.843 92.4918 394 91.1468 387.949 99.8891C382.353 107.979 390.807 117.166 390.807 117.166C390.807 117.166 376.355 114.401 381.424 100.324C387.08 84.6177 418.985 78.1421 433.866 98.2672C447.708 117.008 436.832 138.181 422.031 151.641Z" fill="url(#paint4_radial_1435_89858)"/>
</g>
<path d="M409.31 87.0744C397.758 82.7824 381.835 86.7926 378.624 98.7055C376.884 105.161 379.117 117.192 390.811 117.168C390.811 117.168 380.166 102.177 390.793 96.5367C401.42 90.8967 416.592 93.8824 422.215 104.668C422.215 104.668 422.661 92.036 409.31 87.0744Z" fill="#FED759"/>
<path d="M390.811 117.168C390.811 117.168 382.351 107.984 387.954 99.8871C394.002 91.1477 414.845 92.4877 422.215 104.668C429.585 116.848 424.459 135.438 401.386 153.067C378.314 170.696 361.998 180.926 352.705 194.708C343.412 208.49 352.041 221.182 365.175 221.311C375.707 221.415 380.556 215.248 380.556 215.248C380.556 215.248 367.031 216.367 367.098 207.556C367.155 200.122 388.723 191.934 412.602 176.145C427.059 166.586 456.824 145.64 456.824 116.527C456.824 91.8321 436.209 70.6586 404.911 72.9085C373.613 75.1584 369.698 94.2698 370.623 102.424C371.885 113.56 385.043 120.694 390.811 117.168Z" stroke="#A05700" stroke-width="7.91071" stroke-linecap="round" stroke-linejoin="round"/>
<g opacity="0.7">
<path d="M370.623 102.424C371.885 113.561 385.043 120.694 390.812 117.168C390.812 117.168 382.351 107.984 387.954 99.8873C394.002 91.1479 414.846 92.4879 422.215 104.668C429.585 116.848 424.459 135.438 401.386 153.067C378.314 170.696 361.998 180.926 352.705 194.708" stroke="#7A3A00" stroke-width="7.91071" stroke-linecap="round" stroke-linejoin="round"/>
</g>
<path d="M113.881 117.168C113.881 117.168 122.341 107.984 116.738 99.8871C110.69 91.1477 89.8475 92.4877 82.4775 104.668C75.1076 116.848 80.2341 135.438 103.307 153.067C126.379 170.696 142.695 180.926 151.988 194.708C161.281 208.49 152.652 221.182 139.518 221.311C128.986 221.415 124.136 215.248 124.136 215.248C124.136 215.248 137.662 216.367 137.595 207.556C137.538 200.122 115.97 191.934 92.0909 176.145C77.6338 166.586 47.8691 145.64 47.8691 116.527C47.8691 91.8321 68.4841 70.6586 99.7822 72.9085C131.08 75.1584 134.995 94.2698 134.07 102.424C132.808 113.56 119.65 120.694 113.881 117.168Z" fill="url(#paint5_radial_1435_89858)"/>
<g opacity="0.7">
<path d="M139.522 221.312C150.902 221.045 156.854 208.041 147.659 197.004C138.454 185.957 107.289 174.05 82.66 151.641C67.8588 138.181 56.9927 117.008 70.8349 98.2671C85.7053 78.142 117.612 81.452 122.278 99.3352C126.335 114.882 113.884 117.166 113.884 117.166C113.884 117.166 122.338 107.979 116.741 99.889C110.69 91.1467 89.8481 92.4917 82.4821 104.666C75.1062 116.85 80.2377 135.442 103.305 153.065C126.382 170.698 142.695 180.924 151.99 194.71C161.284 208.486 152.652 221.184 139.522 221.312Z" fill="url(#paint6_radial_1435_89858)"/>
</g>
<path d="M80.8359 108.02C84.9728 92.3027 100.088 82.5447 114.75 87.6141C130.771 93.1532 126.186 113.124 116.864 116.945C116.864 116.945 123.733 98.1909 107.788 95.2468C91.8414 92.3027 80.8359 108.02 80.8359 108.02Z" fill="#FED759"/>
<path d="M113.881 117.168C113.881 117.168 122.341 107.984 116.738 99.8871C110.69 91.1477 89.8475 92.4877 82.4775 104.668C75.1076 116.848 80.2341 135.438 103.307 153.067C126.379 170.696 142.695 180.926 151.988 194.708C161.281 208.49 152.652 221.182 139.518 221.311C128.986 221.415 124.136 215.248 124.136 215.248C124.136 215.248 137.662 216.367 137.595 207.556C137.538 200.122 115.97 191.934 92.0909 176.145C77.6338 166.586 47.8691 145.64 47.8691 116.527C47.8691 91.8321 68.4841 70.6586 99.7822 72.9085C131.08 75.1584 134.995 94.2698 134.07 102.424C132.808 113.56 119.65 120.694 113.881 117.168Z" stroke="#A05700" stroke-width="7.91071" stroke-linecap="round" stroke-linejoin="round"/>
<g opacity="0.7">
<path d="M113.882 117.168C113.882 117.168 122.341 107.984 116.738 99.8873C110.69 91.1479 89.8478 92.4879 82.4778 104.668C75.1079 116.848 80.2344 135.438 103.307 153.067C126.379 170.696 142.695 180.926 151.988 194.708" stroke="#7A3A00" stroke-width="7.91071" stroke-linecap="round" stroke-linejoin="round"/>
</g>
<path d="M370.954 62.3891C380.477 57.9081 375.977 52.7033 367.638 49.8986C333.118 38.2883 275.128 36.3589 252.526 36.3589C225.854 36.3589 130.051 42.3905 131.413 54.6406C131.985 59.7941 134.096 62.3891 134.096 62.3891C134.096 62.3891 131.41 139.049 154.272 200.016C173.2 250.491 215.545 274.36 252.526 274.36C289.506 274.36 331.851 250.491 350.779 200.016C373.642 139.049 370.954 62.3891 370.954 62.3891Z" fill="url(#paint7_radial_1435_89858)"/>
<g opacity="0.6">
<path d="M370.954 62.3893C334.474 51.3664 281.334 47.8804 252.525 47.8804C221.347 47.8804 160.943 52.4404 134.096 62.3893" stroke="#FED759" stroke-width="5.93303" stroke-linecap="round" stroke-linejoin="round"/>
</g>
<path d="M177.598 41.6937C177.598 41.6937 185.195 259.635 254.352 259.635C323.509 259.635 325.803 41.6937 325.803 41.6937C325.803 41.6937 234.038 33.2115 177.598 41.6937Z" fill="url(#paint8_radial_1435_89858)"/>
<g opacity="0.8">
<path d="M250.625 37.2983C248.757 118.619 248.756 137.654 248.756 237.405C248.756 260.904 220.875 246.724 208.553 148.951C202.62 101.868 202.681 66.3577 203.245 49.3724C203.245 49.3724 196.547 43.8887 203.814 39.2762L250.625 37.2983Z" fill="url(#paint9_linear_1435_89858)"/>
</g>
<g opacity="0.3">
<path d="M370.954 62.3893C334.474 51.3664 281.334 47.8804 252.525 47.8804C221.347 47.8804 160.943 52.4404 134.096 62.3893" stroke="#FED759" stroke-width="5.93303" stroke-linecap="round" stroke-linejoin="round"/>
</g>
<g opacity="0.4">
<path d="M350.783 200.02C331.849 250.497 289.502 274.36 252.523 274.36C215.545 274.36 173.198 250.497 154.274 200.02C131.404 139.052 134.094 62.3882 134.094 62.3882C116.63 45.9795 168.42 40.9478 168.42 40.9478C120.579 60.6407 180.172 49.789 180.172 49.789C148.516 53.4501 148.81 66.1541 148.501 70.8111C148.059 77.5033 149.771 146.206 165.367 190.754C174.947 218.124 187.523 233.028 206.207 243.96C219.901 251.972 239.361 255.425 253.077 255.425C268.486 255.425 285.03 251.318 300.092 241.151C316.729 229.92 330.972 215.647 339.68 190.754C353.962 149.96 356.998 80.662 356.514 69.5284C356.022 58.2307 341.323 51.5236 316.841 48.803C316.841 48.803 371.053 57.5324 335.792 42.6398C335.792 42.6398 364.499 46.7598 372.415 51.8262C380.483 56.9895 370.953 62.3882 370.953 62.3882C370.953 62.3882 373.642 139.052 350.783 200.02Z" fill="url(#paint10_linear_1435_89858)"/>
</g>
<g opacity="0.8">
<path d="M228.182 269.213C221.994 266.425 210.728 246.981 219.943 250.023C229.671 253.234 242.191 255.426 252.67 255.424C262.679 255.422 273.685 253.362 279.835 251.13C297.605 244.68 283.458 268.619 273.009 271.072C259.849 274.163 238.089 273.675 228.182 269.213Z" fill="url(#paint11_radial_1435_89858)"/>
</g>
<g opacity="0.3">
<path d="M293.043 209.062C272.096 209.547 260.58 219.851 210.208 207.797C190.486 203.077 211.799 232.528 249.451 232.56C283.134 232.589 313.149 208.596 293.043 209.062Z" fill="#FFE471"/>
</g>
<path d="M134.096 62.3891C134.096 62.3891 128.597 59.2116 130.422 54.2718C133.106 47.005 171.975 36.355 252.525 36.355C319.516 36.355 372.735 48.1373 375.865 54.3994C378.995 60.6614 370.954 62.3891 370.954 62.3891" stroke="#A05700" stroke-width="7.91071" stroke-linecap="round" stroke-linejoin="round"/>
<path d="M134.095 62.3892C134.095 62.3892 131.409 139.049 154.271 200.016C173.199 250.492 215.545 274.36 252.525 274.36C289.505 274.36 331.85 250.492 350.779 200.016C373.641 139.049 370.954 62.3892 370.954 62.3892" stroke="#935400" stroke-width="7.91071" stroke-linecap="round" stroke-linejoin="round"/>
<path d="M134.095 62.3892C134.095 62.3892 131.409 139.049 154.271 200.016C173.199 250.492 215.545 274.36 252.525 274.36C289.505 274.36 331.85 250.492 350.779 200.016" stroke="#7A3A00" stroke-width="7.91071" stroke-linecap="round" stroke-linejoin="round"/>
<path d="M314.51 350.779C312.495 348.511 304.557 346.312 304.557 346.312C304.557 346.312 304.096 341.079 303.69 339.187C302.806 335.075 297.758 336.151 291.08 333.485C277.797 328.185 274.048 308.801 274.048 288.812L252.525 287.299L231.003 288.812C231.003 308.801 227.252 328.185 213.97 333.485C207.292 336.151 202.244 335.075 201.36 339.187C200.952 341.079 200.493 346.312 200.493 346.312C200.493 346.312 192.555 348.511 190.54 350.779C188.525 353.047 188.273 361.633 189.028 362.641C189.784 363.648 201.417 371.712 252.525 371.712C303.634 371.712 315.267 363.648 316.022 362.641C316.778 361.633 316.526 353.047 314.51 350.779Z" fill="url(#paint12_linear_1435_89858)"/>
<path d="M266.718 307.069C266.718 354.144 254.675 353.972 252.173 353.972C250.105 353.972 237.559 344.684 237.559 307.104C237.559 285.738 250.791 289.555 252.173 289.555C253.555 289.555 266.718 286.57 266.718 307.069Z" fill="url(#paint13_radial_1435_89858)"/>
<g opacity="0.8">
<path d="M252.522 294.589C252.043 315.413 252.043 316.479 252.043 342.023C252.043 348.041 244.635 349.968 241.48 324.93C239.96 312.873 240.245 298.703 240.389 294.354" fill="url(#paint14_linear_1435_89858)"/>
</g>
<path d="M316.019 362.643C315.267 363.652 303.63 371.712 252.523 371.712C201.415 371.712 189.788 363.652 189.027 362.643C188.275 361.635 188.522 353.051 190.539 350.776C192.556 348.511 200.496 346.316 200.496 346.316C200.496 346.316 200.951 341.074 201.356 339.185C201.702 337.603 202.661 333.815 204.095 333.262C204.095 333.262 216.978 338.295 252.523 338.295C288.067 338.295 299.744 332.876 299.744 332.876C301.86 333.45 303.264 337.188 303.689 339.185C304.095 341.074 304.559 346.316 304.559 346.316C304.559 346.316 312.499 348.511 314.506 350.776C316.523 353.051 316.78 361.635 316.019 362.643Z" fill="url(#paint15_radial_1435_89858)"/>
<path d="M289.051 360.892C289.051 365.054 273.291 369.067 253.85 369.067C234.409 369.067 218.648 365.054 218.648 360.892C218.648 356.729 234.409 359.954 253.85 359.954C273.291 359.954 289.051 356.729 289.051 360.892Z" fill="url(#paint16_radial_1435_89858)"/>
<g opacity="0.5">
<path d="M228.484 324.099C228.484 324.099 223.274 338.091 250.945 338.328C277.209 338.554 278.115 328.188 274.393 318.707C274.393 318.707 283.403 331.926 301.502 337.745C301.502 337.745 292.441 344.214 252.525 344.147C233.825 344.117 222.346 342.987 213.428 341.507C207.603 340.54 206.064 353.565 222.489 358.501C223.533 358.814 197.582 353.886 202.485 368.084C202.485 368.084 193.274 368.03 189.028 362.641C187.343 360.502 192.548 346.645 200.492 346.312L203.366 338.554C203.366 338.554 217.442 331.646 228.484 324.099Z" fill="#894700"/>
</g>
<path d="M284.175 347.812C284.175 351.975 270.598 354.01 253.85 354.01C237.102 354.01 223.523 351.975 223.523 347.812C223.523 343.65 237.102 344.231 253.85 344.231C270.598 344.231 284.175 343.65 284.175 347.812Z" fill="url(#paint17_radial_1435_89858)"/>
<g opacity="0.7">
<path d="M249.84 344.223C249.84 344.223 251.037 351.708 251.085 358.02C251.143 365.768 250.397 373.728 248.542 371.696C248.542 371.696 226.836 371.768 228.1 363.916C228.426 361.887 230.412 360.431 233.781 359.172C235.704 358.453 237.385 356.665 233.482 354.431C230.734 352.859 228.565 350.364 230.134 347.462C232.827 342.483 249.84 344.223 249.84 344.223Z" fill="url(#paint18_linear_1435_89858)"/>
</g>
<g opacity="0.5">
<path d="M274.393 298.668C268.57 299.954 260.67 300.567 252.523 300.567C244.376 300.567 236.486 299.954 230.662 298.668C230.89 295.444 230.998 292.131 230.998 288.809L252.523 287.295L274.047 288.809C274.047 292.131 274.156 295.444 274.393 298.668Z" fill="#7C3200"/>
</g>
<g opacity="0.7">
<path d="M190.541 350.779C190.541 350.779 214.131 356.993 252.526 356.993C290.921 356.993 314.511 350.779 314.511 350.779" stroke="#914500" stroke-width="5.93303" stroke-linecap="round" stroke-linejoin="round"/>
</g>
<g opacity="0.7">
<path d="M204.098 336.232C204.098 336.232 216.978 341.264 252.524 341.264C288.071 341.264 299.742 335.843 299.742 335.843" stroke="#914500" stroke-width="5.93303" stroke-linecap="round" stroke-linejoin="round"/>
</g>
<path d="M314.51 350.779C312.495 348.511 304.557 346.312 304.557 346.312C304.557 346.312 304.096 341.079 303.69 339.187C302.806 335.075 297.758 336.151 291.08 333.485C277.797 328.185 274.048 308.801 274.048 288.812L252.525 287.299L231.003 288.812C231.003 308.801 227.252 328.185 213.97 333.485C207.292 336.151 202.244 335.075 201.36 339.187C200.952 341.079 200.493 346.312 200.493 346.312C200.493 346.312 192.555 348.511 190.54 350.779C188.525 353.047 188.273 361.633 189.028 362.641C189.784 363.648 201.417 371.712 252.525 371.712C303.634 371.712 315.267 363.648 316.022 362.641C316.778 361.633 316.526 353.047 314.51 350.779Z" stroke="#A05700" stroke-width="7.91071" stroke-linecap="round" stroke-linejoin="round"/>
<path d="M231.003 288.812C231.003 308.801 227.252 328.185 213.97 333.485C207.292 336.151 202.244 335.075 201.36 339.187C200.952 341.08 200.493 346.312 200.493 346.312C200.493 346.312 192.555 348.512 190.54 350.779C188.525 353.047 188.273 361.633 189.028 362.641C189.033 362.647 189.037 362.654 189.043 362.66C189.927 363.747 201.729 371.712 252.525 371.712C303.634 371.712 315.267 363.648 316.022 362.641" stroke="#7A3A00" stroke-width="7.91071" stroke-linecap="round" stroke-linejoin="round"/>
<path d="M279.836 276.743C279.836 276.743 280.113 272.526 275.697 270.307C271.28 268.088 268.51 269.512 252.526 269.512C239.327 269.512 233.772 268.088 229.355 270.307C224.938 272.526 225.214 276.743 225.214 276.743C225.214 276.743 218.187 280.958 222.018 285.398C225.374 289.29 238.58 291.076 252.526 291.076C266.472 291.076 279.677 289.29 283.034 285.398C286.864 280.958 279.836 276.743 279.836 276.743Z" fill="url(#paint19_radial_1435_89858)"/>
<path d="M273.551 276.657C273.551 283.389 268.626 294.043 252.522 294.043C239.216 294.043 231.494 283.389 231.494 276.657C231.494 269.926 243.629 269.666 252.522 269.666C261.416 269.666 273.551 269.926 273.551 276.657Z" fill="url(#paint20_radial_1435_89858)"/>
<g opacity="0.8">
<path d="M252.523 272.619C252.096 280.749 252.097 280.611 252.097 290.584C252.097 292.759 234.759 289.338 239.189 280.877C239.879 279.559 239.954 278.029 239.498 276.612C239.102 275.38 239.109 273.826 240.719 272.527" fill="url(#paint21_linear_1435_89858)"/>
</g>
<g opacity="0.6">
<path d="M225.213 276.743C225.213 276.743 250.956 282.093 279.835 276.743" stroke="#914500" stroke-width="5.93303" stroke-linecap="round" stroke-linejoin="round"/>
</g>
<path d="M279.836 276.743C279.836 276.743 280.113 272.526 275.697 270.307C271.28 268.088 268.51 269.512 252.526 269.512C239.327 269.512 233.772 268.088 229.355 270.307C224.938 272.526 225.214 276.743 225.214 276.743C225.214 276.743 218.187 280.958 222.018 285.398C225.374 289.29 238.58 291.076 252.526 291.076C266.472 291.076 279.677 289.29 283.034 285.398C286.864 280.958 279.836 276.743 279.836 276.743Z" stroke="#9E6100" stroke-width="7.91071" stroke-linecap="round" stroke-linejoin="round"/>
<path d="M222.018 285.398C225.374 289.29 238.58 291.076 252.526 291.076C266.472 291.076 279.677 289.29 283.034 285.398" stroke="#7A3A00" stroke-width="7.91071" stroke-linecap="round" stroke-linejoin="round"/>
</g>
</g>
<defs>
<linearGradient id="paint0_linear_1435_89858" x1="112.071" y1="450.559" x2="392.582" y2="450.559" gradientUnits="userSpaceOnUse">
<stop offset="0.14" stop-color="#853301"/>
<stop offset="0.57" stop-color="#933C01"/>
<stop offset="0.92" stop-color="#A24500"/>
</linearGradient>
<linearGradient id="paint1_linear_1435_89858" x1="149.686" y1="405.411" x2="355.92" y2="405.411" gradientUnits="userSpaceOnUse">
<stop stop-color="#843D1C"/>
<stop offset="0.51" stop-color="#9A4B21"/>
<stop offset="0.92" stop-color="#B05926"/>
</linearGradient>
<linearGradient id="paint2_linear_1435_89858" x1="191.599" y1="384.988" x2="318.303" y2="456.115" gradientUnits="userSpaceOnUse">
<stop offset="0.02" stop-color="#E6AE45"/>
<stop offset="0.14" stop-color="#F3D06B"/>
<stop offset="0.34" stop-color="#FFF291"/>
<stop offset="0.47" stop-color="#EAC56C"/>
<stop offset="0.62" stop-color="#D59746"/>
<stop offset="0.79" stop-color="#EAB14F"/>
<stop offset="0.88" stop-color="#FECC57"/>
</linearGradient>
<radialGradient id="paint3_radial_1435_89858" cx="0" cy="0" r="1" gradientUnits="userSpaceOnUse" gradientTransform="translate(399.149 151.001) scale(85.3201 85.3395)">
<stop offset="0.14" stop-color="#FFE978"/>
<stop offset="0.57" stop-color="#E8B63C"/>
<stop offset="0.92" stop-color="#D08201"/>
</radialGradient>
<radialGradient id="paint4_radial_1435_89858" cx="0" cy="0" r="1" gradientUnits="userSpaceOnUse" gradientTransform="translate(411.013 122.321) scale(76.2634 76.2807)">
<stop offset="0.14" stop-color="#7C3200"/>
<stop offset="0.57" stop-color="#A65A01"/>
<stop offset="0.92" stop-color="#D08201"/>
</radialGradient>
<radialGradient id="paint5_radial_1435_89858" cx="0" cy="0" r="1" gradientUnits="userSpaceOnUse" gradientTransform="translate(103.519 154.957) scale(80.951 80.9694)">
<stop offset="0.14" stop-color="#FFE978"/>
<stop offset="0.57" stop-color="#E8B63C"/>
<stop offset="0.92" stop-color="#D08201"/>
</radialGradient>
<radialGradient id="paint6_radial_1435_89858" cx="0" cy="0" r="1" gradientUnits="userSpaceOnUse" gradientTransform="translate(110.44 152.979) scale(58.1677 58.181)">
<stop offset="0.14" stop-color="#7C3200"/>
<stop offset="0.57" stop-color="#A65A01"/>
<stop offset="0.92" stop-color="#D08201"/>
</radialGradient>
<radialGradient id="paint7_radial_1435_89858" cx="0" cy="0" r="1" gradientUnits="userSpaceOnUse" gradientTransform="translate(257.76 163.177) scale(168.438 168.477)">
<stop offset="0.44" stop-color="#FEDA59"/>
<stop offset="0.7" stop-color="#E7AE2D"/>
<stop offset="0.92" stop-color="#D08201"/>
</radialGradient>
<radialGradient id="paint8_radial_1435_89858" cx="0" cy="0" r="1" gradientUnits="userSpaceOnUse" gradientTransform="translate(252.364 29.2964) scale(67.2526 229.536)">
<stop stop-color="#F5BF52"/>
<stop offset="0.53" stop-color="#DB9F2A"/>
<stop offset="0.82" stop-color="#C07F01"/>
<stop offset="0.91" stop-color="#C38301" stop-opacity="0.5"/>
<stop offset="1" stop-color="#C68701" stop-opacity="0"/>
</radialGradient>
<linearGradient id="paint9_linear_1435_89858" x1="208.323" y1="143.089" x2="245.811" y2="143.089" gradientUnits="userSpaceOnUse">
<stop offset="0.09" stop-color="#592A00"/>
<stop offset="0.75" stop-color="#6C3600" stop-opacity="0.5"/>
<stop offset="1" stop-color="#7F4200" stop-opacity="0"/>
</linearGradient>
<linearGradient id="paint10_linear_1435_89858" x1="253.806" y1="54.084" x2="253.806" y2="256.532" gradientUnits="userSpaceOnUse">
<stop offset="0.36" stop-color="#A75602"/>
<stop offset="0.61" stop-color="#984F01"/>
<stop offset="0.69" stop-color="#894700"/>
<stop offset="0.87" stop-color="#793900"/>
<stop offset="1" stop-color="#682C00"/>
</linearGradient>
<radialGradient id="paint11_radial_1435_89858" cx="0" cy="0" r="1" gradientUnits="userSpaceOnUse" gradientTransform="translate(252.89 249.01) scale(32.5469 32.5543)">
<stop offset="0.04" stop-color="#FFC952"/>
<stop offset="0.12" stop-color="#C28B29"/>
<stop offset="0.29" stop-color="#854E00"/>
<stop offset="0.5" stop-color="#C28A29"/>
<stop offset="0.69" stop-color="#FFC752"/>
<stop offset="0.84" stop-color="#FFC752" stop-opacity="0.5"/>
<stop offset="1" stop-color="#FFC852" stop-opacity="0"/>
</radialGradient>
<linearGradient id="paint12_linear_1435_89858" x1="250.839" y1="302.311" x2="252.164" y2="332.454" gradientUnits="userSpaceOnUse">
<stop offset="0.14" stop-color="#FED059"/>
<stop offset="0.57" stop-color="#E7A92D"/>
<stop offset="0.92" stop-color="#D08201"/>
</linearGradient>
<radialGradient id="paint13_radial_1435_89858" cx="0" cy="0" r="1" gradientUnits="userSpaceOnUse" gradientTransform="translate(252.148 318.228) scale(13.5246 58.816)">
<stop stop-color="#F5BF52"/>
<stop offset="0.33" stop-color="#DB9F2A"/>
<stop offset="0.63" stop-color="#C07F01"/>
<stop offset="0.83" stop-color="#C38301" stop-opacity="0.5"/>
<stop offset="1" stop-color="#C68701" stop-opacity="0"/>
</radialGradient>
<linearGradient id="paint14_linear_1435_89858" x1="242.928" y1="320.112" x2="252.08" y2="320.112" gradientUnits="userSpaceOnUse">
<stop offset="0.09" stop-color="#592A00"/>
<stop offset="0.75" stop-color="#6C3600" stop-opacity="0.5"/>
<stop offset="1" stop-color="#7F4200" stop-opacity="0"/>
</linearGradient>
<radialGradient id="paint15_radial_1435_89858" cx="0" cy="0" r="1" gradientUnits="userSpaceOnUse" gradientTransform="translate(252.816 352.747) scale(61.9654 61.9795)">
<stop offset="0.14" stop-color="#FFE978"/>
<stop offset="0.57" stop-color="#E8B63C"/>
<stop offset="0.92" stop-color="#D08201"/>
</radialGradient>
<radialGradient id="paint16_radial_1435_89858" cx="0" cy="0" r="1" gradientUnits="userSpaceOnUse" gradientTransform="translate(388.08 364.152) scale(178.786 178.827)">
<stop stop-color="#DAA32A"/>
<stop offset="0.18" stop-color="#CD9115"/>
<stop offset="0.56" stop-color="#C07F01"/>
<stop offset="0.8" stop-color="#C38301" stop-opacity="0.5"/>
<stop offset="1" stop-color="#C68701" stop-opacity="0"/>
</radialGradient>
<radialGradient id="paint17_radial_1435_89858" cx="0" cy="0" r="1" gradientUnits="userSpaceOnUse" gradientTransform="translate(254.793 349.334) scale(28.5635 28.57)">
<stop stop-color="#DAA32A"/>
<stop offset="0.18" stop-color="#CD9115"/>
<stop offset="0.56" stop-color="#C07F01"/>
<stop offset="0.8" stop-color="#C38301" stop-opacity="0.5"/>
<stop offset="1" stop-color="#C68701" stop-opacity="0"/>
</radialGradient>
<linearGradient id="paint18_linear_1435_89858" x1="232.052" y1="358.681" x2="249.261" y2="358.681" gradientUnits="userSpaceOnUse">
<stop offset="0.09" stop-color="#592A00"/>
<stop offset="0.75" stop-color="#6C3600" stop-opacity="0.5"/>
<stop offset="1" stop-color="#7F4200" stop-opacity="0"/>
</linearGradient>
<radialGradient id="paint19_radial_1435_89858" cx="0" cy="0" r="1" gradientUnits="userSpaceOnUse" gradientTransform="translate(252.817 283.469) scale(31.5364 31.5436)">
<stop offset="0.44" stop-color="#FCDA5F"/>
<stop offset="0.7" stop-color="#E6AE30"/>
<stop offset="0.92" stop-color="#D08201"/>
</radialGradient>
<radialGradient id="paint20_radial_1435_89858" cx="0" cy="0" r="1" gradientUnits="userSpaceOnUse" gradientTransform="translate(252.548 279.685) scale(21.2979 21.3028)">
<stop stop-color="#F5BF52" stop-opacity="0"/>
<stop offset="0.33" stop-color="#DB9F2A" stop-opacity="0.5"/>
<stop offset="0.63" stop-color="#C07F01"/>
<stop offset="0.83" stop-color="#C38301" stop-opacity="0.5"/>
<stop offset="1" stop-color="#C68701" stop-opacity="0"/>
</radialGradient>
<linearGradient id="paint21_linear_1435_89858" x1="240.952" y1="282.532" x2="251.452" y2="282.532" gradientUnits="userSpaceOnUse">
<stop offset="0.09" stop-color="#592A00"/>
<stop offset="0.75" stop-color="#6C3600" stop-opacity="0.5"/>
<stop offset="1" stop-color="#7F4200" stop-opacity="0"/>
</linearGradient>
<clipPath id="clip0_1435_89858">
<rect width="512" height="512" fill="white"/>
</clipPath>
</defs>
</svg>
