<svg width="512" height="512" viewBox="0 0 512 512" fill="none" xmlns="http://www.w3.org/2000/svg">
<g clip-path="url(#clip0_1936_131351)">
<mask id="mask0_1936_131351" style="mask-type:luminance" maskUnits="userSpaceOnUse" x="0" y="0" width="512" height="512">
<path d="M512 0H0V512H512V0Z" fill="white"/>
</mask>
<g mask="url(#mask0_1936_131351)">
<path d="M152.868 67.1992C155.308 72.5484 160.024 78.9383 157.125 87.9983L158.432 101.038L142.295 106.429C141.568 101.043 140.134 95.1005 140.134 95.1005C131.254 90.5228 133.173 78.3857 133.173 78.3857" fill="#FFD140"/>
<path d="M152.868 67.1992C155.308 72.5484 160.024 78.9383 157.125 87.9983L158.432 101.038L142.295 106.429C141.568 101.043 140.134 95.1005 140.134 95.1005C131.254 90.5228 133.173 78.3857 133.173 78.3857" stroke="#C47620" stroke-width="5.2962" stroke-linecap="round" stroke-linejoin="round"/>
<path d="M134.347 64.4648C134.347 64.4648 128.42 64.9759 128.42 71.5785C128.42 78.1811 135.537 82.5346 138.12 75.1102" fill="#FFD140"/>
<path d="M134.347 64.4648C134.347 64.4648 128.42 64.9759 128.42 71.5785C128.42 78.1811 135.537 82.5346 138.12 75.1102" stroke="#C47620" stroke-width="5.2962" stroke-linecap="round" stroke-linejoin="round"/>
<path d="M142.238 75.8135C142.238 75.8135 135.741 76.532 134.481 68.992C133.549 63.4142 136.96 57.7932 145.714 59.0528L145.229 55.0815C144.469 44.1016 145.082 39.7031 149.097 39.7031C149.341 39.7031 149.572 39.7252 149.791 39.7684C153.161 40.4393 153.545 46.153 153.789 53.1272C154.092 61.7742 155.741 74.4259 155.741 74.4259" fill="#FFD140"/>
<path d="M142.238 75.8135C142.238 75.8135 135.741 76.532 134.481 68.992C133.549 63.4142 136.96 57.7932 145.714 59.0528L145.229 55.0815C144.469 44.1016 145.082 39.7031 149.097 39.7031C149.341 39.7031 149.572 39.7252 149.791 39.7684C153.161 40.4393 153.545 46.153 153.789 53.1272C154.092 61.7742 155.741 74.4259 155.741 74.4259" stroke="#C47620" stroke-width="5.2962" stroke-linecap="round" stroke-linejoin="round"/>
<path d="M141.958 82.5873C141.958 82.5873 140.608 75.3148 144.489 72.2368C144.489 72.2368 139.318 58.6317 145.23 55.0824C149.875 52.293 150.698 62.4468 152.867 67.2001C155.308 72.5492 160.023 78.9391 157.124 87.9991" fill="#FFD140"/>
<path d="M141.958 82.5873C141.958 82.5873 140.608 75.3148 144.489 72.2368C144.489 72.2368 139.318 58.6317 145.23 55.0824C149.875 52.293 150.698 62.4468 152.867 67.2001C155.308 72.5492 160.023 78.9391 157.124 87.9991" stroke="#C47620" stroke-width="5.2962" stroke-linecap="round" stroke-linejoin="round"/>
<path d="M140.557 110.896L138.9 100.686C138.9 100.686 149.559 99.7412 158.432 93.2578L159.942 104.941" fill="#F978C2"/>
<path d="M140.557 110.896L138.9 100.686C138.9 100.686 149.559 99.7412 158.432 93.2578L159.942 104.941" stroke="#CE2489" stroke-width="5.2962" stroke-linecap="round" stroke-linejoin="round"/>
<path d="M162.951 99.1272C170.348 119.246 176.615 135.805 180.055 140.426C188.989 135.575 212.72 129.438 229.014 127.339C242.565 125.594 243.774 141.7 235.613 150.336C229.501 156.803 208.209 164.618 199.62 167.429C192.654 169.707 175.977 174.629 167.073 170.633C157.878 166.506 142.404 129.09 137.28 106.983C137.28 106.983 148.656 108.111 162.951 99.1272Z" fill="#9740AC"/>
<path d="M162.951 99.1272C170.348 119.246 176.615 135.805 180.055 140.426C188.989 135.575 212.72 129.438 229.014 127.339C242.565 125.594 243.774 141.7 235.613 150.336C229.501 156.803 208.209 164.618 199.62 167.429C192.654 169.707 175.977 174.629 167.073 170.633C157.878 166.506 142.404 129.09 137.28 106.983C137.28 106.983 148.656 108.111 162.951 99.1272Z" stroke="#49005B" stroke-width="5.2962" stroke-linecap="round" stroke-linejoin="round"/>
<path d="M161.95 103.066C159.971 103.426 158.185 103.484 158.335 105.599C162.429 118.416 169.498 140.212 176.429 146.556C179.883 149.718 205.482 138.816 222.719 135.756C226.877 135.019 237.879 132.974 237.52 142.926C237.518 142.984 243.466 137.364 236.621 132.426C226.465 125.099 187.017 141.466 178.182 141.393C171.123 131.858 161.95 103.066 161.95 103.066Z" fill="#B757CE"/>
<g opacity="0.3">
<path d="M202.339 135.672C207.128 140.446 191.162 169.201 159.644 157.301C163.352 186.791 234.25 152.622 238.063 143.067C247.637 119.076 202.796 135.791 202.339 135.672Z" fill="#32003D"/>
</g>
<path d="M210.527 438.574C210.527 438.574 211.851 450.683 209.623 462.791H197.848L196.332 454.565C193.89 454.861 188.362 462.797 182.093 462.791C173.619 462.534 144.347 462.791 141.266 462.791C138.184 462.791 139.426 453.892 148.187 450.933C166.465 444.76 171.36 441.47 171.36 441.47L210.527 438.574Z" fill="#1C2D2C"/>
<path d="M210.527 438.574C210.527 438.574 211.851 450.683 209.623 462.791H197.848L196.332 454.565C193.89 454.861 188.362 462.797 182.093 462.791C173.619 462.534 144.347 462.791 141.266 462.791C138.184 462.791 139.426 453.892 148.187 450.933C166.465 444.76 171.36 441.47 171.36 441.47L210.527 438.574Z" stroke="black" stroke-width="5.2962" stroke-linecap="round" stroke-linejoin="round"/>
<path d="M144.029 457.081C144.029 457.081 158.896 458.292 177.698 453.161C184.171 451.004 172.844 444.057 168.579 446.074C155.559 452.23 146.236 452.722 144.029 457.081Z" fill="#334A56"/>
<path d="M277.28 223.872C256.552 213.203 224.709 232.828 224.709 232.828C224.709 256.45 224.709 270.468 224.709 270.468C217.939 278.711 181.352 325.487 177.926 338.175C174.085 349.876 171.359 441.472 171.359 441.472C197.19 447.732 212.831 437.306 212.831 437.306C214.975 404.033 213.906 361.288 216.883 352.342C216.883 352.342 252.971 308.957 266.901 300.026C280.831 291.095 280.831 291.094 280.831 291.094C280.831 291.094 298.008 234.541 277.28 223.872Z" fill="#5E1D6D"/>
<g opacity="0.4">
<path d="M282.282 256.801C282.282 256.801 253.373 262.833 266.082 295.932C266.082 295.932 227.113 333.817 214.093 351.434L211.813 384.537C211.435 336.556 198.449 351.109 204.203 345.771C239.063 313.432 244.204 291.926 239.683 284.197C230.056 267.738 210.223 293.351 210.223 293.351L227.702 271.292L225.498 217.02H274.784L282.282 256.801Z" fill="#32003D"/>
</g>
<path d="M248.022 222.879C235.18 226.373 224.709 232.826 224.709 232.826C224.709 256.448 224.709 270.466 224.709 270.466C217.939 278.709 181.352 325.485 177.926 338.173C174.085 349.874 171.359 441.47 171.359 441.47C197.19 447.73 212.831 437.304 212.831 437.304C214.975 404.031 213.906 361.286 216.883 352.34C216.883 352.34 252.971 308.955 266.901 300.024C268.222 299.177 269.419 298.41 270.502 297.715" stroke="#32003D" stroke-width="5.2962" stroke-linecap="round" stroke-linejoin="round"/>
<path d="M334.041 460.82C331.131 463.301 329.938 468.08 331.673 470.141C333.577 472.402 346.467 471.785 357.16 469.16C363.163 467.686 375.34 459.944 375.503 459.128C375.666 458.312 375.503 453.48 375.503 453.48L376.025 458.902C376.025 458.902 381.275 457.05 382.015 456.495C382.756 455.94 381.929 442.791 376.702 435.074C371.475 427.356 338.528 456.992 334.041 460.82Z" fill="#1C2D2C"/>
<path d="M334.041 460.82C331.131 463.301 329.938 468.08 331.673 470.141C333.577 472.402 346.467 471.785 357.16 469.16C363.163 467.686 375.34 459.944 375.503 459.128C375.666 458.312 375.503 453.48 375.503 453.48L376.025 458.902C376.025 458.902 381.275 457.05 382.015 456.495C382.756 455.94 381.929 442.791 376.702 435.074C371.475 427.356 338.528 456.992 334.041 460.82Z" stroke="black" stroke-width="5.2962" stroke-linecap="round" stroke-linejoin="round"/>
<path d="M349.74 463.276C355.398 462.199 375.516 452.725 361.062 445.553C357.533 443.802 338.027 460.163 336.842 461.497C332.763 466.088 344.081 464.361 349.74 463.276Z" fill="#334A56"/>
<path d="M264.922 296.745C269.041 304.983 283.609 328.9 309.233 366.209C313.105 373.646 328.203 404.759 333.962 428.423C336.843 440.258 337.55 452.922 337.55 452.922C337.55 452.922 347.199 455.755 362.739 448.643C376.253 442.458 378.209 432.897 378.209 432.897C378.209 432.897 375.089 421.132 368.584 404.696C362.619 389.622 354.957 375.396 344.48 354.586C334.479 334.35 325.573 300.055 323.097 290.9C318.074 272.326 302.884 246.277 291.403 231.277" fill="#5E1D6D"/>
<path d="M264.922 296.745C269.041 304.983 283.609 328.9 309.233 366.209C313.105 373.646 328.203 404.759 333.962 428.423C336.843 440.258 337.55 452.922 337.55 452.922C337.55 452.922 347.199 455.755 362.739 448.643C376.253 442.458 378.209 432.897 378.209 432.897C378.209 432.897 375.089 421.132 368.584 404.696C362.619 389.622 354.957 375.396 344.48 354.586C334.479 334.35 325.573 300.055 323.097 290.9C318.074 272.326 302.884 246.277 291.403 231.277" stroke="#32003D" stroke-width="5.2962" stroke-linecap="round" stroke-linejoin="round"/>
<path d="M301.379 265.943C282.95 272.865 289.945 303.963 303.145 331.351C313.215 352.242 316.277 354.62 320.013 358.657C329.221 368.607 345.548 374.056 333.947 336.401C323.494 310.558 316.412 260.296 301.379 265.943Z" fill="#7A288E"/>
<g opacity="0.5">
<path d="M341.682 354.93C341.682 354.93 328.478 334.701 317.738 303.366C309.962 280.675 305.312 270.062 305.312 270.062L307.076 260.297C312.372 269.353 316.696 278.75 320.032 291.081C322.504 300.235 331.681 334.69 341.682 354.93Z" fill="#B757CE"/>
</g>
<g opacity="0.4">
<path d="M308.336 359.641C311.64 363.616 320.121 374.418 331.309 373.958C341.017 373.559 332.161 379.1 329.778 386.736C326.426 397.476 330.977 409.437 330.977 409.437C328.514 402.769 325.624 395.409 322.372 387.899C318.238 378.354 313.517 368.565 308.336 359.641Z" fill="#32003D"/>
</g>
<path d="M244.822 175.567C246.019 152.684 256.531 127.282 256.531 127.282L292.052 121.766C292.052 121.766 288.854 130.64 289.519 137.769" fill="#D89535"/>
<path d="M244.822 175.567C246.019 152.684 256.531 127.282 256.531 127.282L292.052 121.766C292.052 121.766 288.854 130.64 289.519 137.769" stroke="#B26212" stroke-width="5.2962" stroke-linecap="round" stroke-linejoin="round"/>
<path d="M250.987 149.427C252.845 144.12 259.638 143.121 262.955 144.307C267.725 146.011 267.742 151.829 260.386 159.605C253.031 167.381 240.872 178.3 250.987 149.427Z" fill="#FFD140"/>
<path d="M279.711 146.793L244.991 172.596C244.991 172.596 250.528 142.833 254.068 130.825C232.513 144.575 227.195 158.554 224.495 171.931C221.584 186.358 221.154 244.425 221.154 244.425L226.624 239.357L230.677 235.602L244.558 248.129C265.451 247.809 284.286 237.61 284.286 237.61L299.559 164.928" fill="#7A288E"/>
<path d="M279.711 146.793L244.991 172.596C244.991 172.596 250.528 142.833 254.068 130.825C232.513 144.575 227.195 158.554 224.495 171.931C221.584 186.358 221.154 244.425 221.154 244.425L226.624 239.357L230.677 235.602L244.558 248.129C265.451 247.809 284.286 237.61 284.286 237.61L299.559 164.928" stroke="#32003D" stroke-width="5.2962" stroke-linecap="round" stroke-linejoin="round"/>
<g opacity="0.3">
<path d="M244.408 246.795L230.675 235.601L223.634 238.482C223.634 238.482 223.871 186.476 226.784 172.044C228.502 163.551 251.989 114.572 243.076 176.19C239.326 186.132 233.846 229.244 244.408 246.795Z" fill="#32003D"/>
</g>
<path d="M242.985 223.977C242.694 229.611 234.753 230.183 235.277 222.89C235.68 217.272 243.307 217.748 242.985 223.977Z" fill="#E2C028"/>
<path d="M243.049 205.863C242.759 211.498 234.818 212.069 235.341 204.777C235.744 199.159 243.371 199.635 243.049 205.863Z" fill="#E2C028"/>
<path d="M244.524 188.59C244.233 194.225 236.292 194.796 236.816 187.504C237.219 181.885 244.846 182.361 244.524 188.59Z" fill="#E2C028"/>
<g opacity="0.3">
<path d="M250.645 187.335C230.055 187.93 225.343 177.178 229.288 165.186C229.288 165.186 233.979 150.345 244.113 144.904C244.113 144.904 234.902 192.068 270.144 151.686C276.481 150.398 279.919 156.08 279.413 160.102C278.038 171.057 269.634 186.786 250.645 187.335Z" fill="#DA77F2"/>
</g>
<path d="M226.349 164.637C218.488 180.578 221.68 237.891 223.574 268.697C219.077 266.481 200.414 263.604 186.22 245.285C186.22 245.285 196.213 232.495 197.291 225.926C198.653 217.63 200.091 200.85 201.144 194.775C216.084 108.546 252.475 129.935 252.475 129.935C252.475 129.935 233.827 149.473 226.349 164.637Z" fill="#521960"/>
<path d="M226.349 164.637C218.488 180.578 221.68 237.891 223.574 268.697C219.077 266.481 200.414 263.604 186.22 245.285C186.22 245.285 196.213 232.495 197.291 225.926C198.653 217.63 200.091 200.85 201.144 194.775C216.084 108.546 252.475 129.935 252.475 129.935C252.475 129.935 233.827 149.473 226.349 164.637Z" stroke="#32003D" stroke-width="5.2962" stroke-linecap="round" stroke-linejoin="round"/>
<path d="M223.653 165.489C214.24 188 220.763 264.392 220.763 264.392C220.763 264.392 213.501 264.115 205.047 257.388C210.591 255.617 218.505 245.692 218.494 228.005C218.479 204.391 209.262 197.185 202.425 210.966C202.427 184.227 205.394 126.989 248.795 129.424C248.795 129.424 226.744 158.096 223.653 165.489Z" fill="#3B0349"/>
<path d="M201.67 194.107C201.67 194.107 208.13 171.772 226.95 150.54C239.759 136.091 259.151 129.055 259.151 129.055C259.151 129.055 247.832 123.329 237.315 125.525C226.798 127.721 199.991 145.689 201.67 194.107Z" fill="#9740AC"/>
<path d="M201.67 194.107C201.67 194.107 208.13 171.772 226.95 150.54C239.759 136.091 259.151 129.055 259.151 129.055C259.151 129.055 247.832 123.329 237.315 125.525C226.798 127.721 199.991 145.689 201.67 194.107Z" stroke="#49005B" stroke-width="5.2962" stroke-linecap="round" stroke-linejoin="round"/>
<path d="M238.025 128.157C238.025 128.157 243.027 128.792 243.554 130.552C244.809 134.744 224.603 140.538 215.622 159.872C230.631 143.268 254.433 129.936 254.241 129.85C246.386 126.319 238.025 128.157 238.025 128.157Z" fill="#B757CE"/>
<path d="M291.442 138.513C278.788 152.096 273.246 163.538 271.575 178.832C270.706 186.781 270.222 202.835 270.082 217.043C269.952 230.171 270.116 241.722 270.543 243.851C271.794 250.092 289.319 286.936 290.694 288.684C290.694 288.684 303.562 282.79 311.518 274.419C316.764 268.899 318.937 261.462 318.607 259.769C318.607 259.769 309.333 244.828 308.815 238.725C308.297 232.623 312.331 202.074 315.009 195.265C322.082 177.27 332.178 159.926 323.719 150.709C315.964 142.259 291.442 138.513 291.442 138.513Z" fill="#7A288E"/>
<path d="M291.442 138.513C278.788 152.096 273.246 163.538 271.575 178.832C270.706 186.781 270.222 202.835 270.082 217.043C269.952 230.171 270.116 241.722 270.543 243.851C271.794 250.092 289.319 286.936 290.694 288.684C290.694 288.684 303.562 282.79 311.518 274.419C316.764 268.899 318.937 261.462 318.607 259.769C318.607 259.769 309.333 244.828 308.815 238.725C308.297 232.623 312.331 202.074 315.009 195.265C322.082 177.27 332.178 159.926 323.719 150.709C315.964 142.259 291.442 138.513 291.442 138.513Z" stroke="#32003D" stroke-width="5.2962" stroke-linecap="round" stroke-linejoin="round"/>
<path d="M324.218 159.045C319.812 149.643 290.326 143.752 290.326 143.752C290.326 143.752 291.069 142.767 292.483 141.25C292.483 141.25 313.254 144.807 321.345 152.044C323.875 154.308 324.218 159.045 324.218 159.045Z" fill="#B757CE"/>
<g opacity="0.4">
<path d="M318.604 259.769C318.869 261.118 314.385 270.801 314.385 270.801C311.225 266.595 301.122 253.016 297.871 238.669C295.625 228.757 297.302 186.447 302.392 167.846C307.074 150.737 320.144 148.623 323.604 154.44C329.222 163.322 320.749 176.803 315.011 195.268C300.136 243.137 318.604 259.769 318.604 259.769Z" fill="#32003D"/>
</g>
<path d="M270.084 216.874C270.084 216.874 287.165 167.748 292.06 161.922C296.954 156.097 305.529 146.288 313.606 144.465C313.606 144.465 297.019 137.429 290.121 140.361C283.223 143.293 268.665 153.416 270.084 216.874Z" fill="#9740AC"/>
<path d="M270.084 216.874C270.084 216.874 287.165 167.748 292.06 161.922C296.954 156.097 305.529 146.288 313.606 144.465C313.606 144.465 297.019 137.429 290.121 140.361C283.223 143.293 268.665 153.416 270.084 216.874Z" stroke="#49005B" stroke-width="5.2962" stroke-linecap="round" stroke-linejoin="round"/>
<path d="M369.226 265.245L369.455 272.308C369.455 272.308 363.552 280.519 362.344 287.832C360.695 297.806 358.033 315.829 362.318 316.054C365.304 316.21 367.376 303.323 368.16 297.483C368.39 295.775 368.509 294.669 368.509 294.669C368.509 294.669 368.008 301.596 368.561 303.633C369.114 305.67 372.458 311.102 375.313 310.012C377.616 309.132 376.276 303.16 375.761 301.563C375.636 301.177 375.846 297.913 375.993 295.846C376.063 294.862 376.12 294.15 376.12 294.15C376.12 294.15 377.26 300.214 379.568 300.657C386.513 301.993 383.329 294.624 382.462 292.832C382.343 292.587 382.268 292.446 382.268 292.446C382.567 293.248 382.92 293.936 383.309 294.514C383.821 295.277 384.395 295.852 384.987 296.255C388.176 298.427 391.907 295.635 389.555 290.562C389.555 290.562 392.675 280.744 389.452 276.082L387.644 267.992" fill="#FFD140"/>
<path d="M369.226 265.245L369.455 272.308C369.455 272.308 363.552 280.519 362.344 287.832C360.695 297.806 358.033 315.829 362.318 316.054C365.304 316.21 367.376 303.323 368.16 297.483C368.39 295.775 368.509 294.669 368.509 294.669C368.509 294.669 368.008 301.596 368.561 303.633C369.114 305.67 372.458 311.102 375.313 310.012C377.616 309.132 376.276 303.16 375.761 301.563C375.636 301.177 375.846 297.913 375.993 295.846C376.063 294.862 376.12 294.15 376.12 294.15C376.12 294.15 377.26 300.214 379.568 300.657C386.513 301.993 383.329 294.624 382.462 292.832C382.343 292.587 382.268 292.446 382.268 292.446C382.567 293.248 382.92 293.936 383.309 294.514C383.821 295.277 384.395 295.852 384.987 296.255C388.176 298.427 391.907 295.635 389.555 290.562C389.555 290.562 392.675 280.744 389.452 276.082L387.644 267.992" stroke="#C47620" stroke-width="5.2962" stroke-linecap="round" stroke-linejoin="round"/>
<path d="M368.594 261.004L368 272.334C373.597 274.908 386.743 274.679 389.371 272.341L390.761 262.166" fill="#F978C2"/>
<path d="M368.594 261.004L368 272.334C373.597 274.908 386.743 274.679 389.371 272.341L390.761 262.166" stroke="#CE2489" stroke-width="5.2962" stroke-linecap="round" stroke-linejoin="round"/>
<path d="M383.99 215.041C380.623 201.512 377.538 198.127 373.473 193.77C367.73 187.805 337.411 162.936 321.303 159.706C307.907 157.02 303.961 181.338 311.499 190.522C317.145 197.399 331.166 201.367 347.367 214.981C353.493 220.722 359.735 241.405 364.623 264.849C364.623 264.849 377.207 269.508 393.489 265.126C393.489 265.126 390.174 239.889 383.99 215.041Z" fill="#9740AC"/>
<path d="M383.99 215.041C380.623 201.512 377.538 198.127 373.473 193.77C367.73 187.805 337.411 162.936 321.303 159.706C307.907 157.02 303.961 181.338 311.499 190.522C317.145 197.399 331.166 201.367 347.367 214.981C353.493 220.722 359.735 241.405 364.623 264.849C364.623 264.849 377.207 269.508 393.489 265.126C393.489 265.126 390.174 239.889 383.99 215.041Z" stroke="#49005B" stroke-width="5.2962" stroke-linecap="round" stroke-linejoin="round"/>
<path d="M389.493 263.701C387.234 264.308 386.925 264.006 384.824 264.294C383.992 244.238 377.724 209.661 370.283 201.302C366.093 196.595 345.435 179.191 329.621 171.685C318.779 166.539 313.274 165.806 310.599 175.77C310.583 175.826 310.942 160.081 321.498 162.453C337.523 166.053 368.675 192.371 373.906 198.79C386.34 214.046 389.493 263.701 389.493 263.701Z" fill="#B757CE"/>
<g opacity="0.3">
<path d="M315.544 163.247C310.434 167.675 308.843 175.353 331.118 192.14C348.145 204.972 350.874 213.672 351.861 216.782C340.145 201.606 313.73 194.97 311.485 184.93C307.709 168.03 315.081 163.334 315.544 163.247Z" fill="#32003D"/>
</g>
<g opacity="0.6">
<path d="M250.658 172.629C250.658 172.629 266.271 162.636 271.337 162.416C279.118 162.079 299.266 168.096 300.792 167.511C304.912 153.501 274.4 140.675 250.658 172.629Z" fill="#32003D"/>
</g>
<g opacity="0.6">
<path d="M229.984 138.69C225.154 143.081 225.982 142.491 237.118 148.605C239.328 149.819 244.204 167.681 244.204 167.681C244.204 167.681 249.595 120.86 229.984 138.69Z" fill="#32003D"/>
</g>
<path d="M245.05 174.824L267.734 150.318C280.359 140.699 293.45 135.499 293.45 135.499C296.668 140.62 300.737 161.151 300.737 161.151C282.773 154.611 268.824 155.465 268.824 155.465C258.132 160.892 244.927 175.202 244.927 175.202C243.358 164.971 244.97 146.93 244.97 146.93C244.97 146.93 241.121 143.015 232.201 139.028C232.201 139.028 244.978 132.43 256.086 130.267C256.086 130.267 252.342 145.994 250.986 149.427C247.778 156.368 245.05 174.824 245.05 174.824Z" fill="#F978C2"/>
<path d="M245.05 174.824L267.734 150.318C280.359 140.699 293.45 135.499 293.45 135.499C296.668 140.62 300.737 161.151 300.737 161.151C282.773 154.611 268.824 155.465 268.824 155.465C258.132 160.892 244.927 175.202 244.927 175.202C243.358 164.971 244.97 146.93 244.97 146.93C244.97 146.93 241.121 143.015 232.201 139.028C232.201 139.028 244.978 132.43 256.086 130.267C256.086 130.267 252.342 145.994 250.986 149.427C247.778 156.368 245.05 174.824 245.05 174.824Z" stroke="#CE2489" stroke-width="5.2962" stroke-linecap="round" stroke-linejoin="round"/>
<path d="M235.315 97.5392C232.264 99.4459 234.009 107.05 237.589 109.372C239.791 110.801 243.515 111.373 243.515 111.373C245.216 111.31 247.67 89.8169 235.315 97.5392Z" fill="#EDB026"/>
<path d="M235.315 97.5392C232.264 99.4459 234.009 107.05 237.589 109.372C239.791 110.801 243.515 111.373 243.515 111.373C245.216 111.31 247.67 89.8169 235.315 97.5392Z" stroke="#C47620" stroke-width="5.2962" stroke-linecap="round" stroke-linejoin="round"/>
<path d="M306.352 101.262C308.781 103.916 306.656 110.856 302.853 112.792C300.514 113.983 296.751 114.163 296.751 114.163C292.986 113.656 297.664 91.7665 306.352 101.262Z" fill="#EDB026"/>
<path d="M306.352 101.262C308.781 103.916 306.656 110.856 302.853 112.792C300.514 113.983 296.751 114.163 296.751 114.163C292.986 113.656 297.664 91.7665 306.352 101.262Z" stroke="#C47620" stroke-width="5.2962" stroke-linecap="round" stroke-linejoin="round"/>
<path d="M299.105 105.142C297.27 115.849 291.525 132.723 269.905 131.59C247.751 130.429 242.412 112.911 242.097 102.154C242.097 102.154 233.451 59.9943 272.794 61.7893C312.138 63.5842 299.105 105.142 299.105 105.142Z" fill="#FFD140"/>
<path d="M299.105 105.142C297.27 115.849 291.525 132.723 269.905 131.59C247.751 130.429 242.412 112.911 242.097 102.154C242.097 102.154 233.451 59.9943 272.794 61.7893C312.138 63.5842 299.105 105.142 299.105 105.142Z" stroke="#C47620" stroke-width="5.2962" stroke-linecap="round" stroke-linejoin="round"/>
<path d="M278.319 96.8745C278.319 96.8745 278.158 92.2052 281.613 89.358C284.581 86.9113 289.901 87.4447 292.399 90.9097C294.434 93.7308 293.75 96.8603 293.75 96.8603C288.658 100.189 282.674 99.765 278.319 96.8745Z" fill="#FFF7D4"/>
<path d="M291.216 93.7299C291.062 96.6802 288.545 98.9464 285.594 98.7918C282.644 98.6371 280.378 96.1203 280.533 93.17C280.687 90.2196 283.204 87.9535 286.154 88.1081C289.105 88.2627 291.371 90.7795 291.216 93.7299Z" fill="url(#paint0_linear_1936_131351)"/>
<path d="M289.251 93.6284C289.153 95.4928 287.562 96.9253 285.698 96.8276C283.834 96.7299 282.401 95.1389 282.499 93.2745C282.597 91.4102 284.188 89.9777 286.052 90.0754C287.916 90.1731 289.349 91.7641 289.251 93.6284Z" fill="#16130B"/>
<path d="M284.379 91.7411C282.676 91.681 282.675 89.1786 284.513 89.1768C286.06 89.1757 286.486 91.8153 284.379 91.7411Z" fill="#F5F5F5"/>
<path d="M289.748 95.1684C289.29 96.3306 288.291 97.2099 287.075 97.5166" stroke="#E09705" stroke-width="0.841213" stroke-linecap="round" stroke-linejoin="round"/>
<path d="M279.135 92.4167C279.675 90.7294 281.8 87.2927 286.643 87.5509C291.394 87.8043 294.912 92.1422 293.72 96.8581C294.055 92.4394 290.989 88.4195 286.455 88.1368C282.174 87.87 279.737 90.6424 279.135 92.4167Z" fill="#7D4202"/>
<path d="M279.135 92.4167C279.675 90.7294 281.8 87.2927 286.643 87.5509C291.394 87.8043 294.912 92.1422 293.72 96.8581C294.055 92.4394 290.989 88.4195 286.455 88.1368C282.174 87.87 279.737 90.6424 279.135 92.4167Z" stroke="#7D4202" stroke-width="0.481072" stroke-linecap="round" stroke-linejoin="round"/>
<path d="M263.771 96.1126C263.771 96.1126 264.418 91.4857 261.28 88.2929C258.583 85.5494 253.238 85.5238 250.391 88.7087C248.073 91.3017 248.426 94.4855 248.426 94.4855C252.426 98.1248 258.483 98.6958 263.771 96.1126Z" fill="#FFF7D4"/>
<path d="M261.955 92.1987C261.801 95.149 259.283 97.4151 256.333 97.2605C253.382 97.1059 251.116 94.5891 251.271 91.6387C251.425 88.6884 253.942 86.4222 256.893 86.5768C259.843 86.7314 262.11 89.2483 261.955 92.1987Z" fill="url(#paint1_linear_1936_131351)"/>
<path d="M253.237 91.7433C253.139 93.6077 254.572 95.1986 256.436 95.2963C258.301 95.394 259.892 93.9615 259.989 92.0972C260.087 90.2328 258.655 88.6418 256.79 88.5441C254.926 88.4464 253.335 89.879 253.237 91.7433Z" fill="#16130B"/>
<path d="M255.059 90.2054C256.732 90.3523 257.223 87.6078 255.193 87.6411C253.298 87.6717 253.412 90.0607 255.059 90.2054Z" fill="#F5F5F5"/>
<path d="M260.486 93.6372C260.028 94.7994 259.029 95.6786 257.813 95.9853" stroke="#E09705" stroke-width="0.841213" stroke-linecap="round" stroke-linejoin="round"/>
<path d="M263.394 91.5933C263.033 89.8588 261.28 86.2189 256.436 85.9694C251.685 85.7248 247.733 89.6712 248.425 94.4859C248.554 90.0563 252.024 86.379 256.562 86.5718C260.847 86.7539 262.982 89.7659 263.394 91.5933Z" fill="#7D4202"/>
<path d="M263.394 91.5933C263.033 89.8588 261.28 86.2189 256.436 85.9694C251.685 85.7248 247.733 89.6712 248.425 94.4859C248.554 90.0563 252.024 86.379 256.562 86.5718C260.847 86.7539 262.982 89.7659 263.394 91.5933Z" stroke="#7D4202" stroke-width="0.481072" stroke-linecap="round" stroke-linejoin="round"/>
<path d="M259.195 80.7167C259.195 80.7167 255.329 79.7442 251.623 81.7191" stroke="#7D4202" stroke-width="4.4135" stroke-linecap="round" stroke-linejoin="round"/>
<path d="M284.036 82.0191C284.036 82.0191 287.983 81.456 291.462 83.8074" stroke="#7D4202" stroke-width="4.4135" stroke-linecap="round" stroke-linejoin="round"/>
<path d="M277.035 120.972C276.968 122.262 273.573 124.26 269.525 124.048C265.477 123.836 262.31 121.494 262.378 120.203C262.446 118.913 265.643 120.679 269.691 120.891C273.738 121.103 277.103 119.681 277.035 120.972Z" fill="#EDB026"/>
<path d="M279.51 116.326C279.383 118.748 274.918 121.141 269.579 120.862C264.24 120.582 260.049 117.735 260.176 115.313C260.432 110.429 279.784 111.087 279.51 116.326Z" fill="#FFE28F"/>
<g opacity="0.3">
<path d="M279.895 108.947L260.566 107.934C256.778 107.735 252.101 111.056 251.883 115.203C251.862 115.603 252.142 115.958 252.563 115.98L287.013 117.785C287.435 117.807 287.749 117.483 287.77 117.084C287.963 113.395 283.683 109.145 279.895 108.947Z" fill="#C47620"/>
</g>
<path d="M278.278 116.066C278.269 116.51 277.556 119.667 269.662 119.253C261.64 118.833 261.431 115.627 261.43 115.183C261.42 109.226 278.386 110.866 278.278 116.066Z" fill="#7E2312"/>
<path d="M278.278 116.069C278.287 116.513 278.051 116.926 277.689 117.298L261.887 116.47C261.567 116.062 261.418 115.63 261.43 115.186C261.534 111.257 278.205 112.222 278.278 116.069Z" fill="#511312"/>
<path d="M279.3 109.761L261.072 108.806C257.5 108.618 253.769 110.911 253.234 114.077C253.173 114.437 253.478 114.766 253.876 114.787L285.832 116.462C286.229 116.483 286.567 116.187 286.544 115.822C286.343 112.618 282.871 109.948 279.3 109.761Z" fill="#FFCB2D"/>
<path d="M286.543 115.823C286.568 116.185 286.229 116.483 285.833 116.462L253.874 114.788C253.478 114.767 253.173 114.435 253.235 114.077C253.419 112.989 253.981 112.004 254.783 111.186C254.53 111.648 253.775 113.223 254.866 113.33L284.999 114.909C286.127 114.946 285.513 113.272 285.306 112.786C286.022 113.683 286.475 114.721 286.543 115.823Z" fill="#C67E14"/>
<g opacity="0.5">
<path d="M276.471 106.448C276.332 109.103 273.868 111.132 270.225 110.941C266.581 110.75 264.342 108.474 264.482 105.819C264.621 103.164 276.61 103.793 276.471 106.448Z" fill="#C47620"/>
</g>
<path d="M276.644 105.552C276.515 108.014 273.672 109.868 270.291 109.69C266.911 109.513 264.275 107.373 264.405 104.91C264.534 102.447 267.372 100.698 270.753 100.875C274.134 101.053 276.773 103.089 276.644 105.552Z" fill="#C67E14"/>
<path d="M276.157 104.343C276.06 106.176 273.323 107.8 270.399 107.646C267.475 107.493 264.921 105.592 265.017 103.759C265.113 101.925 267.83 100.721 270.754 100.874C273.678 101.027 276.253 102.509 276.157 104.343Z" fill="#FFD140"/>
<path d="M273.866 102.63C273.815 103.605 272.336 104.447 270.57 104.355C268.805 104.262 267.421 103.27 267.472 102.295C267.523 101.321 268.98 100.907 270.746 101C272.512 101.092 273.918 101.656 273.866 102.63Z" fill="#FFE28F"/>
<path d="M301.388 57.9658C294.931 47.9972 284.077 44.675 273.719 44.1322C263.362 43.5894 252.702 46.1695 244.757 54.9979C227.562 74.105 242.096 102.156 242.096 102.156C239.402 81.377 247.011 70.7277 258.902 71.3509C266.344 71.7409 267.355 76.6528 272.002 76.8963C276.65 77.1399 278.169 72.3606 285.611 72.7506C297.802 73.3895 303.632 84.8898 299.105 105.143C299.105 105.143 315.377 79.5655 301.388 57.9658Z" fill="#E5C84E"/>
<path d="M301.388 57.9658C294.931 47.9972 284.077 44.675 273.719 44.1322C263.362 43.5894 252.702 46.1695 244.757 54.9979C227.562 74.105 242.096 102.156 242.096 102.156C239.402 81.377 247.011 70.7277 258.902 71.3509C266.344 71.7409 267.355 76.6528 272.002 76.8963C276.65 77.1399 278.169 72.3606 285.611 72.7506C297.802 73.3895 303.632 84.8898 299.105 105.143C299.105 105.143 315.377 79.5655 301.388 57.9658Z" stroke="#BC8D24" stroke-width="5.2962" stroke-linecap="round" stroke-linejoin="round"/>
<path d="M273.651 46.7295C259.873 46.0074 249.081 52.0782 250.833 58.2337C252.585 64.3891 262.255 64.3877 267.057 68.6876C269.984 71.3089 274.962 71.3303 278.85 68.5119C282.275 66.0291 294.187 64.0706 295.2 59.6307C296.555 53.6938 286.7 47.4133 273.651 46.7295Z" fill="#FFEB97"/>
</g>
</g>
<defs>
<linearGradient id="paint0_linear_1936_131351" x1="283.847" y1="90.4718" x2="288.214" y2="96.866" gradientUnits="userSpaceOnUse">
<stop stop-color="#370A00"/>
<stop offset="0.38" stop-color="#683002"/>
<stop offset="1" stop-color="#995704"/>
</linearGradient>
<linearGradient id="paint1_linear_1936_131351" x1="254.477" y1="87.8389" x2="258.988" y2="94.8787" gradientUnits="userSpaceOnUse">
<stop stop-color="#370A00"/>
<stop offset="0.38" stop-color="#683002"/>
<stop offset="1" stop-color="#995704"/>
</linearGradient>
<clipPath id="clip0_1936_131351">
<rect width="512" height="512" fill="white"/>
</clipPath>
</defs>
</svg>
