<svg width="513" height="513" viewBox="0 0 513 513" fill="none" xmlns="http://www.w3.org/2000/svg">
<g clip-path="url(#clip0_2048_28991)">
<mask id="mask0_2048_28991" style="mask-type:luminance" maskUnits="userSpaceOnUse" x="0" y="0" width="513" height="513">
<path d="M512.641 0.475586H0.640625V512.476H512.641V0.475586Z" fill="white"/>
</mask>
<g mask="url(#mask0_2048_28991)">
<path d="M51.8655 299.979C51.8655 299.979 97.5844 118.868 266.756 106.906C400.896 101.78 459.514 281.935 459.514 281.935C459.514 281.935 413.034 399.847 278.258 414.624C156.933 416.333 89.4591 305.106 51.8655 299.979Z" fill="url(#paint0_radial_2048_28991)"/>
<path d="M56.4739 301.078C56.4739 301.078 96.9126 126.685 266.084 114.724C400.225 109.597 454.522 281.593 454.522 281.593C454.522 281.593 413.802 391.824 279.025 406.602C157.701 408.311 94.0675 306.204 56.4739 301.078Z" fill="url(#paint1_radial_2048_28991)"/>
<path d="M151.781 254.372C151.781 315.008 200.316 364.165 260.194 364.165C320.072 364.165 368.612 315.008 368.612 254.372C368.612 193.736 320.072 144.584 260.194 144.584C200.316 144.584 151.781 193.736 151.781 254.372Z" fill="url(#paint2_linear_2048_28991)"/>
<path d="M161.013 254.372C161.013 309.844 205.415 354.815 260.194 354.815C314.973 354.815 359.379 309.844 359.379 254.372C359.379 198.9 314.973 153.934 260.194 153.934C205.415 153.934 161.013 198.9 161.013 254.372Z" fill="url(#paint3_linear_2048_28991)"/>
<path d="M191.677 256.387C191.677 293.597 222.351 323.761 260.194 323.761C298.036 323.761 328.716 293.597 328.716 256.387C328.716 219.177 298.036 189.013 260.194 189.013C222.351 189.013 191.677 219.177 191.677 256.387Z" fill="#200302"/>
<path d="M195.595 197.83C195.595 214.196 208.7 227.461 224.86 227.461C241.02 227.461 254.125 214.196 254.125 197.83C254.125 181.465 241.02 168.195 224.86 168.195C208.7 168.195 195.595 181.465 195.595 197.83Z" fill="#F4F4F4"/>
<g opacity="0.7">
<path d="M341.687 161.226C359.991 199.789 361.42 246.333 275.7 285.654C189.981 324.975 130.334 285.234 112.03 246.671C104.243 230.266 101.541 209.732 106.708 189.009C113.685 161.02 143.173 145.647 185.704 126.673C212.695 114.632 231.232 99.6017 255.149 103.702C296.824 110.847 330.057 136.725 341.687 161.226Z" fill="url(#paint4_radial_2048_28991)"/>
</g>
<path d="M341.452 278.416C332.114 310.35 305.991 329.872 281.721 337.456" stroke="#E5AD30" stroke-width="29.904" stroke-linecap="round" stroke-linejoin="round"/>
<g opacity="0.5">
<path d="M57.6018 300.939C57.6018 300.939 116.396 164.549 260.193 153.934C331.432 148.675 398.574 204.211 404.072 276.904C406.862 313.789 382.807 374.277 317.359 397.903C317.359 397.903 447.563 386.389 453.292 280.512C456.751 216.566 411.337 105.999 260.197 112.196C97.1904 118.879 57.6018 300.939 57.6018 300.939Z" fill="url(#paint5_linear_2048_28991)"/>
</g>
<path d="M43.0857 300.939C69.7447 301.259 146.518 423.397 277.876 421.384C373.934 418.925 448.149 350.817 473.459 280.226L452.006 281.312C428.584 340.194 369.701 399.267 277.105 403.562C155.78 405.271 95.1964 306.065 57.6028 300.939H43.0857Z" fill="url(#paint6_linear_2048_28991)"/>
<path d="M43.0857 300.939C43.0857 300.939 83.4868 111.082 258.898 98.6423C433.195 90.9527 473.459 280.225 473.459 280.225L452.006 281.311C452.006 281.311 400.225 110.408 266.084 115.535C98.2381 126.861 57.6028 300.939 57.6028 300.939H43.0857Z" fill="url(#paint7_linear_2048_28991)"/>
</g>
</g>
<defs>
<radialGradient id="paint0_radial_2048_28991" cx="0" cy="0" r="1" gradientUnits="userSpaceOnUse" gradientTransform="translate(251.709 231.789) scale(202.846 202.846)">
<stop offset="0.57" stop-color="#FCFCFC"/>
<stop offset="0.87" stop-color="#C0B8B9"/>
<stop offset="1" stop-color="#8A7F84"/>
</radialGradient>
<radialGradient id="paint1_radial_2048_28991" cx="0" cy="0" r="1" gradientUnits="userSpaceOnUse" gradientTransform="translate(252.477 231.928) scale(202.846 202.846)">
<stop offset="0.52" stop-color="#FCFCFC" stop-opacity="0"/>
<stop offset="0.84" stop-color="#C0B8B9" stop-opacity="0.5"/>
<stop offset="1" stop-color="#8A7F84"/>
</radialGradient>
<linearGradient id="paint2_linear_2048_28991" x1="212.257" y1="181.323" x2="319.41" y2="344.466" gradientUnits="userSpaceOnUse">
<stop stop-color="#4F1C01"/>
<stop offset="0.5" stop-color="#844E08"/>
<stop offset="1" stop-color="#B97F0F"/>
</linearGradient>
<linearGradient id="paint3_linear_2048_28991" x1="216.529" y1="187.304" x2="314.557" y2="336.554" gradientUnits="userSpaceOnUse">
<stop stop-color="#592A00"/>
<stop offset="0.5" stop-color="#9C620D"/>
<stop offset="1" stop-color="#DF9B1A"/>
</linearGradient>
<radialGradient id="paint4_radial_2048_28991" cx="0" cy="0" r="1" gradientUnits="userSpaceOnUse" gradientTransform="translate(228.199 203.404) rotate(-8.909) scale(121.856 101.042)">
<stop stop-color="white"/>
<stop offset="0.32" stop-color="white" stop-opacity="0.5"/>
<stop offset="0.97" stop-color="white" stop-opacity="0"/>
</radialGradient>
<linearGradient id="paint5_linear_2048_28991" x1="134.824" y1="251.384" x2="408.236" y2="264.66" gradientUnits="userSpaceOnUse">
<stop/>
<stop offset="0.76" stop-opacity="0.6"/>
<stop offset="1" stop-opacity="0.2"/>
</linearGradient>
<linearGradient id="paint6_linear_2048_28991" x1="43.0857" y1="350.494" x2="473.459" y2="350.494" gradientUnits="userSpaceOnUse">
<stop offset="0.07" stop-color="#74676C"/>
<stop offset="0.18" stop-color="#958A8E"/>
<stop offset="0.29" stop-color="#B7AEAF"/>
<stop offset="0.56" stop-color="#8B8284"/>
<stop offset="0.83" stop-color="#5F5558"/>
</linearGradient>
<linearGradient id="paint7_linear_2048_28991" x1="48.2121" y1="173.634" x2="468.139" y2="263.489" gradientUnits="userSpaceOnUse">
<stop stop-color="#36261A"/>
<stop offset="0.13" stop-color="#3E3531"/>
<stop offset="0.25" stop-color="#474348"/>
<stop offset="0.38" stop-color="#534F55"/>
<stop offset="0.5" stop-color="#5E5B63"/>
<stop offset="0.75" stop-color="#464348"/>
<stop offset="1" stop-color="#2F2B2D"/>
</linearGradient>
<clipPath id="clip0_2048_28991">
<rect width="512" height="512" fill="white" transform="translate(0.640625 0.475586)"/>
</clipPath>
</defs>
</svg>
