<svg width="512" height="512" viewBox="0 0 512 512" fill="none" xmlns="http://www.w3.org/2000/svg">
<g clip-path="url(#clip0_1321_107242)">
<mask id="mask0_1321_107242" style="mask-type:luminance" maskUnits="userSpaceOnUse" x="0" y="0" width="512" height="512">
<path d="M512 0H0V512H512V0Z" fill="white"/>
</mask>
<g mask="url(#mask0_1321_107242)">
<path d="M79.3901 436.103H65.7041L65.8163 114.19H79.5023L79.3901 436.103Z" fill="url(#paint0_linear_1321_107242)"/>
<path d="M87.9475 116.024C87.9475 124.466 81.102 131.31 72.6596 131.31C64.2172 131.31 57.373 124.466 57.373 116.024C57.373 107.581 64.2172 100.737 72.6596 100.737C81.102 100.737 87.9475 107.581 87.9475 116.024Z" fill="url(#paint1_radial_1321_107242)"/>
<path d="M360.93 124.24C297.742 124.516 237.603 153.169 173.084 154.073C117.667 154.85 86.6791 137.182 79.7324 139.466C80.0179 187.046 80.3985 361.189 80.3985 361.189L80.4024 361.19C80.4024 361.19 80.4967 361.219 80.6307 361.26C80.8028 361.313 81.07 361.394 81.4263 361.499C83.9324 362.246 90.87 364.254 100.557 366.571C118.618 370.891 146.236 376.288 172.513 376.605C235.7 377.366 290.131 347.676 359.027 346.915C371.303 346.779 383.598 347.831 395.031 349.448C410.977 351.702 425.245 355.053 435.441 357.811C445.362 360.495 451.427 362.616 451.427 362.616V310.226V140.513C451.427 140.513 404.514 124.05 360.93 124.24Z" fill="#E5E5E5"/>
<path d="M398.836 295.064C399.211 307.689 399.211 335.064 398.836 350.564C414.5 353.28 436.874 358.155 451.648 362.064C451.273 350.064 451.43 318.189 451.305 306.689C438.5 302.78 413.875 297.03 398.836 295.064Z" fill="#191919"/>
<path d="M398.836 183.409C399.211 196.034 399.211 223.41 398.836 238.91C414.5 241.626 436.874 246.501 451.648 250.41C451.273 238.41 451.43 206.534 451.305 195.034C438.5 191.125 413.875 185.375 398.836 183.409Z" fill="#191919"/>
<path d="M345 236.471C345.375 249.096 345.375 276.471 345 291.971C360.875 290.741 385.25 292.741 398.922 294.471C398.547 282.471 398.703 250.596 398.578 239.096C384.875 236.366 359.125 234.741 345 236.471Z" fill="#191919"/>
<path d="M345 124.98C345.375 137.605 345.375 164.98 345 180.48C360.875 179.25 385.25 181.25 398.922 182.98C398.547 170.98 398.703 139.105 398.578 127.605C384.875 124.875 359.125 123.25 345 124.98Z" fill="#191919"/>
<path d="M292.074 300.147C292.449 312.772 292.449 340.147 292.074 355.647C305.374 352.241 332.624 348.366 345.183 347.772C344.808 335.772 344.965 303.897 344.84 292.397C327.999 292.741 304.624 296.991 292.074 300.147Z" fill="#191919"/>
<path d="M292.074 188.657C292.449 201.282 292.449 228.657 292.074 244.157C305.374 240.751 332.624 236.876 345.183 236.282C344.808 224.282 344.965 192.407 344.84 180.906C327.999 181.25 304.624 185.5 292.074 188.657Z" fill="#191919"/>
<path d="M239.56 257.397C239.935 270.022 239.935 297.397 239.56 312.897C248.875 311.28 284.079 302.161 292.248 300.147C291.873 288.147 292.029 256.272 291.904 244.771C277.454 247.785 250.375 254.905 239.56 257.397Z" fill="#191919"/>
<path d="M239.56 145.742C239.935 158.367 239.935 185.743 239.56 201.243C248.875 199.626 284.079 190.507 292.248 188.493C291.873 176.493 292.029 144.617 291.904 133.117C277.454 136.131 250.375 143.25 239.56 145.742Z" fill="#191919"/>
<path d="M186.606 321.188C186.981 333.813 186.981 361.188 186.606 376.688C198.374 376.702 231.75 370.577 239.919 368.563C239.544 356.563 239.701 324.688 239.576 313.188C225.126 316.202 200.624 320.452 186.606 321.188Z" fill="#191919"/>
<path d="M186.606 209.862C186.981 222.487 186.981 249.862 186.606 265.362C198.374 265.376 231.75 259.251 239.919 257.237C239.544 245.237 239.701 213.362 239.576 201.862C225.126 204.876 200.624 209.126 186.606 209.862Z" fill="#191919"/>
<path d="M132.749 262.077C133.124 274.702 133.124 302.077 132.749 317.577C140.249 320.577 177.03 321.952 186.78 320.827C186.405 308.827 186.562 276.952 186.437 265.452C176.625 265.077 145.374 265.202 132.749 262.077Z" fill="#191919"/>
<path d="M132.749 150.75C133.124 163.375 133.124 190.75 132.749 206.25C140.249 209.25 177.03 210.625 186.78 209.5C186.405 197.5 186.562 165.625 186.437 154.125C176.625 153.75 145.374 153.875 132.749 150.75Z" fill="#191919"/>
<path d="M80.249 306.448C80.624 319.073 80.624 346.448 80.249 361.948C85.749 363.939 123.374 373.064 133.155 373.073C133.124 363.689 132.936 329.198 132.811 317.698C121.249 316.314 92.8741 309.573 80.249 306.448Z" fill="#191919"/>
<path d="M80.249 195.135C80.624 207.76 80.624 235.135 80.249 250.635C85.749 252.626 123.374 261.751 133.155 261.76C133.124 252.376 132.936 217.885 132.811 206.385C121.249 205.001 92.8741 198.26 80.249 195.135Z" fill="#191919"/>
<g opacity="0.5">
<mask id="mask1_1321_107242" style="mask-type:luminance" maskUnits="userSpaceOnUse" x="79" y="124" width="373" height="253">
<path d="M360.93 124.24C297.742 124.516 237.603 153.169 173.084 154.073C117.667 154.85 86.6791 137.182 79.7324 139.466C80.0179 187.046 80.3985 361.189 80.3985 361.189L80.4024 361.19C80.4024 361.19 80.4967 361.219 80.6307 361.26C80.8028 361.313 81.07 361.394 81.4263 361.499C83.9324 362.246 90.87 364.254 100.557 366.571C118.618 370.891 146.236 376.288 172.513 376.605C235.7 377.366 290.131 347.676 359.027 346.915C371.303 346.779 383.598 347.831 395.031 349.448C410.977 351.702 425.245 355.053 435.441 357.811C445.362 360.495 451.427 362.616 451.427 362.616V310.226V140.513C451.427 140.513 404.514 124.05 360.93 124.24Z" fill="url(#paint2_linear_1321_107242)"/>
</mask>
<g mask="url(#mask1_1321_107242)">
<path d="M360.93 124.24C297.742 124.516 237.603 153.169 173.084 154.073C117.667 154.85 86.6791 137.182 79.7324 139.466C80.0179 187.046 80.3985 361.189 80.3985 361.189L80.4024 361.19C80.4024 361.19 80.4967 361.219 80.6307 361.26C80.8028 361.313 81.07 361.394 81.4263 361.499C83.9324 362.246 90.87 364.254 100.557 366.571C118.618 370.891 146.236 376.288 172.513 376.605C235.7 377.366 290.131 347.676 359.027 346.915C371.303 346.779 383.598 347.831 395.031 349.448C410.977 351.702 425.245 355.053 435.441 357.811C445.362 360.495 451.427 362.616 451.427 362.616V310.226V140.513C451.427 140.513 404.514 124.05 360.93 124.24Z" fill="url(#paint3_linear_1321_107242)"/>
</g>
</g>
<g opacity="0.2">
<path d="M79.7324 139.466C79.7613 144.259 79.7324 145.556 79.7956 149.507C86.8694 146.888 117.511 163.827 172.897 163.59C237.99 163.312 297.541 133.947 360.327 133.835C404.514 133.756 451.142 149.934 451.075 150.465C451.142 143.653 451.427 140.513 451.427 140.513C451.427 140.513 404.514 124.05 360.93 124.24C297.742 124.516 237.603 153.169 173.084 154.073C117.667 154.85 86.6791 137.182 79.7324 139.466Z" fill="white"/>
</g>
<g opacity="0.2">
<path d="M360.93 336.067C293.556 336.067 240.267 364.424 173.655 366.328C160.624 366.7 149.05 365.832 137.942 364.141C119.045 361.265 101.494 356.009 80.3981 350.436C80.2077 353.005 80.3981 358.239 80.3981 361.094C101.276 367.322 118.754 372.079 137.623 374.705C149.026 376.293 160.938 377.101 174.416 376.985C241.028 376.414 293.176 347.01 360.359 346.915C363.798 346.91 367.487 346.987 371.418 347.173C391.959 348.143 419.077 352.057 451.427 362.521C451.427 362.521 451.332 353.195 451.522 350.436C419.239 341.154 391.885 337.281 371.317 336.318C367.633 336.146 364.167 336.067 360.93 336.067Z" fill="black"/>
</g>
<path d="M360.93 124.24C297.742 124.516 237.603 153.169 173.084 154.073C117.667 154.85 86.6791 137.182 79.7324 139.466C80.0179 187.046 80.3985 361.189 80.3985 361.189L80.4024 361.19C80.4024 361.19 80.4967 361.219 80.6307 361.26C80.8028 361.313 81.07 361.394 81.4263 361.499C83.9324 362.246 90.87 364.254 100.557 366.571C118.618 370.891 146.236 376.288 172.513 376.605C235.7 377.366 290.131 347.676 359.027 346.915C371.303 346.779 383.598 347.831 395.031 349.448C410.977 351.702 425.245 355.053 435.441 357.811C445.362 360.495 451.427 362.616 451.427 362.616V310.226V140.513C451.427 140.513 404.514 124.05 360.93 124.24Z" stroke="#7F7F7F" stroke-width="6.09024" stroke-linecap="round" stroke-linejoin="round"/>
</g>
</g>
<defs>
<linearGradient id="paint0_linear_1321_107242" x1="65.7541" y1="301.549" x2="79.4401" y2="301.549" gradientUnits="userSpaceOnUse">
<stop offset="0.05" stop-color="#B5B5B5"/>
<stop offset="0.19" stop-color="#D5DADA"/>
<stop offset="0.34" stop-color="#F6FEFE"/>
<stop offset="0.42" stop-color="#D4E4ED"/>
<stop offset="0.46" stop-color="#B3CADC"/>
<stop offset="0.53" stop-color="#849099"/>
<stop offset="0.8" stop-color="#545556"/>
<stop offset="0.87" stop-color="#636567"/>
<stop offset="1" stop-color="#727678"/>
</linearGradient>
<radialGradient id="paint1_radial_1321_107242" cx="0" cy="0" r="1" gradientUnits="userSpaceOnUse" gradientTransform="translate(68.8044 111.534) scale(18.641 18.641)">
<stop offset="0.02" stop-color="#F6FEFE"/>
<stop offset="0.25" stop-color="#D4E4ED"/>
<stop offset="0.31" stop-color="#B3CADC"/>
<stop offset="0.47" stop-color="#808B94"/>
<stop offset="0.71" stop-color="#4C4C4C"/>
<stop offset="0.86" stop-color="#5F6162"/>
<stop offset="0.93" stop-color="#727678"/>
</radialGradient>
<linearGradient id="paint2_linear_1321_107242" x1="80.3985" y1="251.374" x2="452.664" y2="250.613" gradientUnits="userSpaceOnUse">
<stop stop-color="white"/>
<stop offset="0.17" stop-color="white" stop-opacity="0.5"/>
<stop offset="0.33" stop-color="white" stop-opacity="0"/>
<stop offset="0.5" stop-color="white" stop-opacity="0"/>
<stop offset="0.66" stop-color="white" stop-opacity="0"/>
<stop offset="0.83" stop-color="white" stop-opacity="0.5"/>
<stop offset="1" stop-color="white"/>
</linearGradient>
<linearGradient id="paint3_linear_1321_107242" x1="80.3985" y1="251.374" x2="452.664" y2="250.613" gradientUnits="userSpaceOnUse">
<stop/>
<stop offset="0.25"/>
<stop offset="0.5"/>
<stop offset="0.75"/>
<stop offset="1"/>
</linearGradient>
<clipPath id="clip0_1321_107242">
<rect width="512" height="512" fill="white"/>
</clipPath>
</defs>
</svg>
