<svg width="512" height="512" viewBox="0 0 512 512" fill="none" xmlns="http://www.w3.org/2000/svg">
<g clip-path="url(#clip0_2117_31502)">
<mask id="mask0_2117_31502" style="mask-type:luminance" maskUnits="userSpaceOnUse" x="0" y="0" width="512" height="512">
<path d="M512 0H0V512H512V0Z" fill="white"/>
</mask>
<g mask="url(#mask0_2117_31502)">
<path d="M87.8452 340.967C77.3242 340.967 68.7212 332.435 68.6182 321.928L61.1172 107.254L61.1192 106.987C61.2442 96.4829 69.8682 87.9619 80.3452 87.9619H82.9452L86.9382 74.007C88.8472 67.3309 95.0322 62.6689 101.978 62.6689H163.223C168.981 62.6689 174.257 65.8159 176.991 70.8819L182.439 80.979C184.76 85.2799 189.253 87.9619 194.141 87.9619H433.052C443.529 87.9619 452.154 96.4829 452.279 106.959L452.271 107.521L444.779 321.854C444.717 332.404 436.115 340.967 425.552 340.967H87.8452Z" fill="#AA7C4B"/>
<path d="M134.93 134.42H201.494V87.961H193.064C188.127 87.961 184.259 84.351 183.014 82.044L176.991 70.882C174.257 65.816 168.981 62.668 163.223 62.668H134.931" fill="url(#paint0_linear_2117_31502)"/>
<path d="M134.931 62.668H101.978C95.0322 62.668 88.8472 67.331 86.9382 74.007L82.9452 87.961H80.3452C80.1562 87.961 79.9732 87.984 79.7852 87.989V134.42H134.93" fill="url(#paint1_linear_2117_31502)"/>
<path d="M87.8452 334.967C80.5722 334.967 74.6502 329.067 74.6162 321.802L67.1172 107.171L67.1182 107.03C67.2042 99.8239 73.1382 93.9619 80.3452 93.9619H82.9452C85.6232 93.9619 87.9772 92.187 88.7142 89.6119L92.7062 75.6579C93.8832 71.543 97.6962 68.6689 101.978 68.6689H163.223C166.773 68.6689 170.024 70.6089 171.71 73.7319L177.148 83.8089C180.523 90.063 187.056 93.9619 194.162 93.9619H433.052C440.259 93.9619 446.193 99.8239 446.279 107.03L446.275 107.311L438.779 321.74C438.779 329.034 432.845 334.967 425.552 334.967H87.8452Z" fill="#F2C9A5"/>
<path d="M193.063 93.9609C188.281 93.9609 181.173 91.0109 177.416 84.3059L171.71 73.7319C170.024 70.6089 166.773 68.6689 163.223 68.6689H101.978C97.6963 68.6689 93.8833 71.5429 92.7063 75.6579L88.7143 89.6119C87.9773 92.1869 85.6233 93.9609 82.9453 93.9609H193.063Z" fill="#FFAF5F"/>
<path d="M433.053 99.9619H194.087C184.823 99.9619 176.305 94.8789 171.905 86.7259L166.431 76.5819C165.794 75.4019 164.566 74.6689 163.224 74.6689H101.979C100.361 74.6689 98.9201 75.7539 98.4761 77.3079L94.4831 91.2629C93.0101 96.4119 88.3021 99.9619 82.9461 99.9619H80.3461C76.3901 99.9619 73.1661 103.156 73.1191 107.101L80.6141 321.53L80.6181 321.74C80.6181 325.725 83.8611 328.967 87.8461 328.967H425.553C429.538 328.967 432.78 325.725 432.78 321.74V321.635L440.279 107.101C440.232 103.156 437.009 99.9619 433.053 99.9619Z" fill="url(#paint2_linear_2117_31502)"/>
<path d="M177.514 93.9609C176.42 92.7919 174.074 91.0119 172.219 87.3089L166.43 76.5819C165.793 75.4019 164.565 74.6689 163.223 74.6689H101.978C100.36 74.6689 98.9189 75.7539 98.4749 77.3079L94.4829 91.2629C94.2079 92.2219 93.8199 93.1249 93.3379 93.9609H177.514Z" fill="#FF921C"/>
<g opacity="0.33">
<path d="M64.422 363.755C64.058 363.755 63.761 355.189 63.759 344.637L63.5 119.467V119.211C63.503 111.326 63.667 104.711 63.904 101.788C63.988 100.752 69.058 100.18 71.922 100.18H197.874C201.128 100.18 203.989 98.023 204.884 94.894L208.41 90.079C210.188 90.032 215.949 90 222.419 90H292.958C299.429 90 305.191 90.032 306.969 90.079L310.492 94.894C311.387 98.023 314.247 100.18 317.502 100.18H441.976C444.656 100.18 448.736 100.801 448.782 101.908C448.908 104.944 448.998 111.633 449 119.181V119.723L448.853 344.674C448.85 355.203 448.682 363.755 448.476 363.755H64.422Z" fill="#AA7C4B"/>
</g>
<path d="M78.9224 370.755C68.3564 370.755 59.7524 362.189 59.6934 351.637L52.1934 126.467L52.1954 126.211C52.3134 115.53 60.9794 107.18 71.9224 107.18H197.874C201.128 107.18 203.989 105.023 204.884 101.894L208.41 89.5727C210.188 83.3537 215.949 79.0107 222.419 79.0107H292.958C299.429 79.0107 305.191 83.3557 306.969 89.5787L310.492 101.894C311.387 105.023 314.248 107.18 317.502 107.18H441.976C452.004 107.18 460.581 115.881 460.703 126.181L460.697 126.723L453.203 351.674C453.071 362.203 444.463 370.755 433.976 370.755H78.9224Z" fill="#AA7C4B"/>
<path d="M257.491 142.745H329.419V107.18H317.503C314.248 107.18 311.388 105.023 310.493 101.894L306.969 89.5787C305.191 83.3557 299.43 79.0107 292.959 79.0107H256.701" fill="url(#paint3_linear_2117_31502)"/>
<path d="M256.701 79.0107H222.42C215.95 79.0107 210.189 83.3537 208.411 89.5727L204.886 101.894C203.99 105.023 201.129 107.18 197.875 107.18H183.479V142.745H257.491" fill="url(#paint4_linear_2117_31502)"/>
<path d="M78.9223 364.755C71.6283 364.755 65.6943 358.822 65.6943 351.528L58.1953 126.39L58.1963 126.256C58.2773 118.924 64.3063 113.18 71.9223 113.18H197.789C203.772 113.18 209.031 109.215 210.677 103.462L214.179 91.2237C215.225 87.5667 218.613 85.0107 222.419 85.0107H292.958C296.765 85.0107 300.153 87.5677 301.199 91.2277L304.7 103.462C306.346 109.214 311.605 113.18 317.588 113.18H441.977C448.791 113.18 454.619 119.166 454.703 126.252L454.7 126.523L447.204 351.542C447.143 358.882 441.234 364.755 433.977 364.755H78.9223Z" fill="#F2C9A5"/>
<path d="M317.589 113.179C311.606 113.179 306.346 109.215 304.7 103.462L301.2 91.2267C300.154 87.5667 296.766 85.0107 292.959 85.0107H222.42C218.614 85.0107 215.225 87.5657 214.179 91.2227L210.678 103.462C209.032 109.214 203.772 113.179 197.789 113.179H317.589Z" fill="#6178FF"/>
<path d="M441.976 119.18H317.588C308.927 119.18 301.315 113.44 298.932 105.113L295.429 92.8747C295.116 91.7767 294.1 91.0107 292.958 91.0107H222.419C221.277 91.0107 220.26 91.7767 219.947 92.8737L216.445 105.113C214.062 113.44 206.449 119.18 197.788 119.18H71.9213C67.5463 119.18 64.2403 122.244 64.1953 126.322L71.6913 351.327L71.6943 351.528C71.6943 355.513 74.9363 358.755 78.9213 358.755H433.976C437.962 358.755 441.204 355.513 441.204 351.528V351.428L448.703 126.322C448.658 122.508 445.534 119.18 441.976 119.18Z" fill="url(#paint5_linear_2117_31502)"/>
<path d="M303.558 113.179C301.434 110.958 299.818 108.216 298.93 105.113L295.428 92.8747C295.115 91.7767 294.099 91.0107 292.957 91.0107H222.417C221.275 91.0107 220.259 91.7767 219.946 92.8737L216.444 105.113C215.556 108.216 213.94 110.958 211.816 113.179H303.558Z" fill="#384FFF"/>
<g opacity="0.33">
<path d="M69.998 394.778C59.506 394.778 56.535 386.263 56.51 375.782L55 139.915L55.001 139.67C55.019 131.526 56.007 124.892 57.469 122.082C57.957 121.144 60.642 120.633 63.498 120.633H316.018C322.496 120.633 328.452 110.249 331.528 110.029L337.557 109.598C340.571 109.383 346.384 109.249 352.728 109.249H424.105C431.759 109.249 438.575 109.447 440.679 109.731L442.401 109.963L445.538 120.633H450.9C453.143 120.633 455.312 121.093 455.631 121.926C456.699 124.719 457.486 131.708 457.5 139.646L457.499 140.16L456.312 375.782C456.292 386.263 452.892 394.778 442.4 394.778H69.998Z" fill="#AA7C4B"/>
</g>
<path d="M69.9986 402.278C59.5066 402.278 50.8956 393.763 50.7706 383.282L43.2676 147.415L43.2696 147.17C43.3876 136.309 52.0846 128.133 63.4986 128.133H316.019C322.497 128.133 328.453 124.579 331.529 118.879L337.558 107.707C340.572 102.123 346.385 98.6538 352.729 98.6538H424.106C431.76 98.6538 438.576 103.795 440.68 111.154L445.539 128.133H450.901C460.666 128.133 469.014 136.84 469.13 147.146L469.124 147.66L461.629 383.282C461.504 393.763 452.893 402.278 442.401 402.278H69.9986Z" fill="#AA7C4B"/>
<path d="M391.863 151.07H450.749V128.133H445.538L440.68 111.154C438.576 103.795 431.76 98.6538 424.106 98.6538H391.863" fill="url(#paint6_linear_2117_31502)"/>
<path d="M391.863 98.6538H352.728C346.384 98.6538 340.572 102.123 337.558 107.707L331.525 118.886C328.451 124.582 322.499 128.133 316.026 128.133H303.559V151.07H391.863" fill="url(#paint7_linear_2117_31502)"/>
<path d="M69.9985 396.278C62.7405 396.278 56.8295 390.402 56.7705 383.158L49.2695 147.342L49.2705 147.215C49.3515 139.757 55.4685 134.133 63.4985 134.133H316.076C324.724 134.133 332.676 129.389 336.783 121.778L342.839 110.557C344.804 106.916 348.594 104.654 352.73 104.654H424.107C429.097 104.654 433.54 108.005 434.912 112.803L439.771 129.784C440.508 132.359 442.862 134.133 445.54 134.133H450.902C457.339 134.133 463.052 140.245 463.13 147.213L463.127 147.47L455.63 383.158C455.571 390.402 449.66 396.278 442.402 396.278H69.9985Z" fill="#F2C9A5"/>
<path d="M450.902 140.133H445.539C440.183 140.133 435.476 136.584 434.003 131.435L429.143 114.452C428.503 112.216 426.432 110.654 424.107 110.654H352.729C350.801 110.654 349.035 111.709 348.119 113.406L342.037 124.675C336.898 134.197 326.95 140.133 316.13 140.133H63.4985C58.7625 140.133 55.3165 143.133 55.2715 147.279L62.7715 383.05C62.7715 387.035 66.0135 390.278 69.9985 390.278H442.402C446.387 390.278 449.629 387.035 449.629 383.05L457.129 147.279C457.084 143.248 453.762 140.133 450.902 140.133Z" fill="url(#paint8_linear_2117_31502)"/>
<path d="M439.77 129.784L434.911 112.803C433.539 108.005 429.095 104.655 424.105 104.655H352.728C348.592 104.655 344.802 106.916 342.837 110.557L336.781 121.778C332.674 129.389 324.722 134.133 316.074 134.133H445.538C442.86 134.133 440.507 132.359 439.77 129.784Z" fill="#FF637A"/>
<path d="M435.146 134.133C434.664 133.297 434.276 132.394 434.002 131.435L429.143 114.453C428.503 112.217 426.432 110.655 424.106 110.655H352.729C350.801 110.655 349.034 111.71 348.118 113.407L342.037 124.675C340.004 128.441 337.211 131.634 333.918 134.133H435.146Z" fill="#FF1A30"/>
<path d="M263.697 222.795C263.697 212.866 271.63 204.824 281.426 204.824C291.221 204.824 299.156 212.866 299.156 222.795C299.156 232.723 291.221 240.764 281.426 240.764C271.63 240.764 263.697 232.723 263.697 222.795ZM234.147 234.375C245.684 234.375 255.028 224.903 255.028 213.21C255.028 201.517 245.684 192.045 234.147 192.045C222.61 192.045 213.266 201.517 213.266 213.21C213.266 224.903 222.61 234.375 234.147 234.375ZM281.426 249.75C279.794 249.75 277.936 249.864 275.948 250.093C281.779 254.282 285.869 259.765 285.869 266.537V275.145C285.869 275.73 285.849 276.248 285.803 276.705H313.766C316.204 276.705 316.885 276.016 316.885 273.544V267.719C316.885 255.769 293.26 249.75 281.426 249.75ZM234.147 244.957C220.208 244.957 192.385 252.047 192.385 266.122V272.982C192.385 275.892 193.187 276.705 196.058 276.705H272.236C275.108 276.705 275.909 275.892 275.909 272.982V266.122C275.909 252.047 248.086 244.957 234.147 244.957Z" fill="#AA7C4B"/>
<g opacity="0.33">
<path d="M61.074 427.786C55.352 427.786 50.658 419.269 50.591 408.785L46.5 162.348L46.501 162.11C46.546 154.317 47 155 45.959 144.905C48.684 143.723 51.768 143.071 55.074 143.071H62.597L66.047 131.014L67.285 131.01C69.353 131.004 76.043 131 83.555 131H152.928C159.157 131 164.863 131.003 167.821 131.007L171.868 131.013L173.6 134.013C176.611 139.593 182.441 143.071 188.781 143.071H459.824C461.86 143.071 465.029 143.46 465.057 144.154C465.173 146.982 465.249 154.87 465.25 162.095V162.585L465.129 408.785C465.127 419.269 461.318 427.786 450.824 427.786H61.074Z" fill="#AA7C4B"/>
</g>
<path d="M61.0738 435.786C50.5798 435.786 41.9688 427.269 41.8457 416.785L34.3438 170.348L34.3448 170.11C34.4608 159.248 43.3728 151.071 55.0738 151.071H62.5968L67.2848 134.688C69.3528 127.464 76.0428 122.42 83.5547 122.42H152.928C159.157 122.42 164.863 125.824 167.821 131.303L173.6 142.013C176.611 147.593 182.441 151.071 188.781 151.071H459.824C470.154 151.071 477.458 161.097 477.552 170.095L477.547 170.585L470.052 416.785C469.929 427.269 461.318 435.786 450.824 435.786H61.0738Z" fill="#AA7C4B"/>
<path d="M121.292 193.98H191.823V151.07H188.698C182.409 151.07 176.627 147.621 173.64 142.086L167.821 131.303C164.863 125.824 159.158 122.42 152.929 122.42H121.287L121.292 193.98Z" fill="url(#paint9_linear_2117_31502)"/>
<path d="M121.287 122.42H83.5551C76.0431 122.42 69.3531 127.464 67.2851 134.688L62.5971 151.07H55.7441V193.98H121.292L121.287 122.42Z" fill="url(#paint10_linear_2117_31502)"/>
<path d="M61.0728 429.786C53.8138 429.786 47.9028 423.909 47.8448 416.663L40.3438 170.28L40.3448 170.156C40.4258 162.574 46.6198 157.071 55.0728 157.071H62.5968C65.2747 157.071 67.6277 155.297 68.3648 152.722L73.0527 136.338C74.3878 131.676 78.7057 128.42 83.5547 128.42H152.928C156.948 128.42 160.632 130.618 162.541 134.154L168.361 144.938C172.394 152.412 180.202 157.071 188.694 157.071H459.823C466.458 157.071 471.488 163.98 471.552 170.158L471.549 170.403L464.052 416.663C463.994 423.909 458.082 429.786 450.823 429.786H61.0728Z" fill="#F2C9A5"/>
<path d="M168.363 144.938L162.543 134.153C160.634 130.617 156.951 128.42 152.93 128.42H83.5567C78.7077 128.42 74.3897 131.676 73.0547 136.338L68.3657 152.721C67.6297 155.295 65.2757 157.07 62.5977 157.07H188.696C180.203 157.07 172.396 152.412 168.363 144.938Z" fill="#FFAF5F"/>
<path d="M459.824 163.071H188.781C178.03 163.071 168.146 157.173 163.04 147.712L157.261 137.004C156.401 135.41 154.74 134.42 152.928 134.42H83.5547C81.3687 134.42 79.4237 135.888 78.8217 137.989L74.1337 154.372C72.6607 159.521 67.9527 163.071 62.5967 163.071H55.0737C49.9667 163.071 46.3897 166.006 46.3457 170.22L53.8457 416.557C53.8457 420.542 57.0887 423.786 61.0737 423.786H450.824C454.809 423.786 458.052 420.542 458.052 416.557L465.552 170.22C465.509 166.068 462.116 163.071 459.824 163.071Z" fill="url(#paint11_linear_2117_31502)"/>
<path d="M171.054 157.07C167.804 154.593 165.049 151.434 163.04 147.712L157.262 137.004C156.402 135.41 154.741 134.42 152.929 134.42H83.5562C81.3702 134.42 79.4242 135.887 78.8222 137.988L74.1342 154.371C73.8602 155.331 73.4722 156.234 72.9902 157.07H171.054Z" fill="#FF921C"/>
<g opacity="0.33">
<path d="M52.1504 461.568C46.2984 461.568 41.4974 453.047 41.4324 442.558L37.2504 185.556L37.2514 185.325C37.2934 177.801 36.2504 172.749 36.5894 168.439C39.5534 167.055 42.9664 166.283 46.6504 166.283H188.152C194.105 166.283 199.337 162.338 200.975 156.614L203.656 153.498C205.547 153.498 211.677 153.499 218.564 153.499H296.811C303.698 153.499 309.828 153.498 311.721 153.498L314.488 156.917C316.074 162.461 321.143 166.283 326.909 166.283H468.748C470.774 166.283 472.75 166.726 474.597 167.527C474.251 175.749 474.455 177.44 474.5 185.316L474.499 185.685L470.22 442.558C470.153 453.047 465.239 461.568 459.248 461.568H52.1504Z" fill="#AA7C4B"/>
</g>
<path d="M52.1499 471.568C41.6509 471.568 33.0399 463.047 32.9229 452.558L25.4199 195.556L25.4219 195.325C25.5309 184.466 34.6569 176.283 46.6499 176.283H188.152C194.105 176.283 199.337 172.338 200.975 166.614L203.656 157.245C205.547 150.627 211.677 146.004 218.564 146.004H296.811C303.698 146.004 309.828 150.628 311.721 157.248L314.488 166.917C316.074 172.461 321.143 176.283 326.909 176.283H468.748C477.825 176.283 485.875 185.176 485.976 195.316L485.973 195.685L478.475 452.558C478.358 463.047 469.747 471.568 459.248 471.568H52.1499Z" fill="#AA7C4B"/>
<path d="M257.688 210.946H339.004V176.282H326.909C321.142 176.282 316.074 172.461 314.488 166.917L311.721 157.248C309.828 150.628 303.698 146.004 296.811 146.004H257.688" fill="url(#paint12_linear_2117_31502)"/>
<path d="M257.688 146.004H218.564C211.677 146.004 205.547 150.627 203.656 157.245L200.975 166.613C199.337 172.337 194.106 176.282 188.152 176.282H172.391V210.946H257.689" fill="url(#paint13_linear_2117_31502)"/>
<path d="M52.1499 465.568C44.8889 465.568 38.9759 459.689 38.9209 452.441L31.4199 195.494L31.4209 195.375C31.4969 187.789 37.9019 182.283 46.6499 182.283H188.076C196.752 182.283 204.377 176.534 206.764 168.193L209.424 158.896C210.583 154.839 214.342 152.004 218.564 152.004H296.811C301.034 152.004 304.792 154.839 305.952 158.898L308.721 168.576C311.042 176.69 318.461 182.283 326.9 182.283H468.747C473.88 182.283 479.903 188.002 479.976 195.375L479.973 195.61L472.476 452.441C472.421 459.689 466.508 465.568 459.247 465.568H52.1499Z" fill="#F2C9A5"/>
<path d="M326.9 182.282C318.461 182.282 311.042 176.689 308.721 168.575L305.952 158.897C304.792 154.838 301.034 152.004 296.811 152.004H218.564C214.342 152.004 210.583 154.838 209.424 158.895L206.764 168.192C204.377 176.533 196.751 182.282 188.076 182.282H326.9Z" fill="#6178FF"/>
<path d="M468.748 188.283H326.819C315.75 188.283 306.021 180.947 302.976 170.305L300.183 160.546C299.755 159.049 298.369 158.004 296.811 158.004H218.564C217.007 158.004 215.621 159.049 215.193 160.546L212.533 169.843C209.41 180.759 199.431 188.283 188.077 188.283H46.6499C41.1629 188.283 37.4649 191.154 37.4219 195.436L44.9219 452.339C44.9219 456.324 48.1649 459.568 52.1499 459.568H459.248C463.233 459.568 466.476 456.324 466.476 452.339L473.976 195.435C473.935 191.298 470.526 188.283 468.748 188.283Z" fill="url(#paint14_linear_2117_31502)"/>
<path d="M310.663 182.282C307.075 179.2 304.345 175.091 302.975 170.304L300.182 160.546C299.754 159.049 298.368 158.004 296.81 158.004H218.563C217.006 158.004 215.62 159.049 215.192 160.546L212.532 169.842C211.103 174.834 208.229 179.104 204.457 182.282H310.663Z" fill="#384FFF"/>
<path d="M315 249.143V317.055C315 322.935 310.234 327.699 304.354 327.699C302.558 327.699 300.79 327.245 299.216 326.377L276.172 313.675C272.98 311.917 271 308.563 271 304.919V262.073C271 258.523 272.882 255.237 275.946 253.443L298.976 239.957C304.05 236.987 310.57 238.691 313.54 243.765C314.496 245.397 315 247.253 315 249.143ZM253 257.455H215C205.058 257.455 197 265.513 197 275.455V293.519C197 303.165 204.82 310.987 214.466 310.987H221.802L229.632 334.329C231.394 339.583 236.526 342.947 242.048 342.467L245.944 342.127C245.962 342.125 245.978 342.125 245.996 342.123C249.294 341.807 251.712 338.877 251.396 335.579L249.228 312.949C249.164 312.285 249.064 311.631 248.932 310.987H253C256.314 310.987 259 308.301 259 304.987V263.455C259 260.141 256.314 257.455 253 257.455Z" fill="#AA7C4B"/>
<g opacity="0.33">
<path d="M55.4995 497.984C45.0045 497.984 36.5515 489.766 36.2555 479.275L28.7585 211.919C28.5405 204.026 28.4995 200.999 28.1035 193.708C30.5005 192.661 33.1295 192.13 35.9155 192.13H326.825C334.239 192.13 341.06 188.079 344.609 181.57L346.601 177.918L351.257 178.192C354.382 178.381 360.555 178.499 367.338 178.499H445.554C453.676 178.499 460.916 178.324 463.158 178.073L464.994 179.5L468.609 192.13H475.143C477.945 192.13 480.636 192.728 483.076 193.828C482.998 197.498 481.108 199.485 483.023 204.224C484.004 206.662 484.46 209.307 484.38 212.088L476.89 479.273C476.594 489.765 468.142 497.984 457.647 497.984H55.4995Z" fill="#AA7C4B"/>
</g>
<path d="M43.2505 509.984C32.7555 509.984 24.3025 501.766 24.0064 491.275L16.5095 223.919C16.2914 216.026 20.8424 208.879 28.1045 205.708C30.5014 204.661 33.1305 204.13 35.9165 204.13H326.825C334.239 204.13 341.061 200.079 344.61 193.57L351.257 181.378C354.382 175.508 360.555 171.828 367.338 171.828H445.554C453.676 171.828 460.916 177.279 463.158 185.084L468.609 204.13H475.144C483.037 204.13 490.054 208.877 493.023 216.224C494.004 218.662 494.46 221.307 494.381 224.088L486.89 491.273C486.594 501.765 478.142 509.984 467.647 509.984H43.2505Z" fill="#AA7C4B"/>
<path d="M402.441 225.984H473.975V204.13H468.609L463.158 185.084C460.916 177.279 453.676 171.828 445.554 171.828H402.442L402.441 225.984Z" fill="url(#paint15_linear_2117_31502)"/>
<path d="M402.444 171.828H367.34C360.557 171.828 354.384 175.508 351.259 181.378L344.62 193.553C341.065 200.073 334.232 204.13 326.806 204.13H319.184V225.984H402.442L402.444 171.828Z" fill="url(#paint16_linear_2117_31502)"/>
<path d="M43.2501 503.984C36.0261 503.984 30.2071 498.327 30.0041 491.106L22.5071 223.751C22.3571 218.316 25.4961 213.394 30.5051 211.206C32.1401 210.492 33.9611 210.13 35.9161 210.13H326.825C336.435 210.13 345.278 204.879 349.878 196.441L356.525 184.25C358.624 180.309 362.777 177.828 367.338 177.828H445.554C451.015 177.828 455.883 181.493 457.391 186.741L462.84 205.78C463.577 208.355 465.931 210.13 468.609 210.13H475.144C480.578 210.13 485.412 213.404 487.46 218.472C488.13 220.136 488.439 221.967 488.383 223.917L480.892 491.105C480.689 498.327 474.871 503.984 467.647 503.984H43.2501Z" fill="url(#paint17_linear_2117_31502)"/>
<path d="M468.61 210.13C465.932 210.13 463.579 208.356 462.842 205.781L457.392 186.741C455.884 181.493 451.016 177.828 445.555 177.828H367.34C362.779 177.828 358.625 180.309 356.526 184.25L349.879 196.442C345.279 204.88 336.436 210.13 326.826 210.13H468.61Z" fill="#FF637A"/>
<path d="M482.388 223.746C482.417 222.716 482.282 221.676 481.897 220.72C480.74 217.852 478.033 216.13 475.145 216.13H468.61C463.254 216.13 458.547 212.58 457.073 207.431L451.626 188.398C450.853 185.707 448.356 183.828 445.556 183.828H367.34C365.001 183.828 362.865 185.11 361.794 187.122L355.147 199.314C349.495 209.68 338.632 216.13 326.826 216.13H35.9178C34.8878 216.13 33.8508 216.293 32.9068 216.705C30.0728 217.942 28.4258 220.696 28.5068 223.583L36.0038 490.937C36.1138 494.86 39.3258 497.984 43.2507 497.984H467.648C471.573 497.984 474.786 494.86 474.896 490.937L482.388 223.746Z" fill="url(#paint18_linear_2117_31502)"/>
<path d="M458.217 210.13C457.735 209.294 457.346 208.39 457.072 207.431L451.625 188.398C450.852 185.707 448.355 183.828 445.555 183.828H367.339C365 183.828 362.864 185.11 361.793 187.122L355.146 199.314C352.765 203.681 349.451 207.342 345.539 210.13H458.217Z" fill="#FF1A30"/>
</g>
</g>
<defs>
<linearGradient id="paint0_linear_2117_31502" x1="160" y1="103" x2="169.979" y2="112.978" gradientUnits="userSpaceOnUse">
<stop stop-color="#C7751C"/>
<stop offset="0.5" stop-color="#B97934"/>
<stop offset="1" stop-color="#AA7C4B"/>
</linearGradient>
<linearGradient id="paint1_linear_2117_31502" x1="108" y1="104" x2="99.8332" y2="112.167" gradientUnits="userSpaceOnUse">
<stop stop-color="#C7751C"/>
<stop offset="0.5" stop-color="#B97934"/>
<stop offset="1" stop-color="#AA7C4B"/>
</linearGradient>
<linearGradient id="paint2_linear_2117_31502" x1="256.001" y1="73.9999" x2="256.001" y2="328.299" gradientUnits="userSpaceOnUse">
<stop stop-color="#EFC59C"/>
<stop offset="0.5" stop-color="#ECC091"/>
<stop offset="1" stop-color="#E8BA85"/>
</linearGradient>
<linearGradient id="paint3_linear_2117_31502" x1="289.001" y1="121" x2="299.201" y2="131.2" gradientUnits="userSpaceOnUse">
<stop stop-color="#4554CC"/>
<stop offset="0.5" stop-color="#78688B"/>
<stop offset="1" stop-color="#AA7C4B"/>
</linearGradient>
<linearGradient id="paint4_linear_2117_31502" x1="224.001" y1="121" x2="212.067" y2="132.934" gradientUnits="userSpaceOnUse">
<stop stop-color="#4554CC"/>
<stop offset="0.5" stop-color="#78688B"/>
<stop offset="1" stop-color="#AA7C4B"/>
</linearGradient>
<linearGradient id="paint5_linear_2117_31502" x1="256" y1="90.9997" x2="256" y2="358.744" gradientUnits="userSpaceOnUse">
<stop stop-color="#EFC59C"/>
<stop offset="0.5" stop-color="#ECC091"/>
<stop offset="1" stop-color="#E8BA85"/>
</linearGradient>
<linearGradient id="paint6_linear_2117_31502" x1="421.001" y1="133.999" x2="432.061" y2="145.059" gradientUnits="userSpaceOnUse">
<stop stop-color="#C71E36"/>
<stop offset="0.5" stop-color="#B94D41"/>
<stop offset="1" stop-color="#AA7C4B"/>
</linearGradient>
<linearGradient id="paint7_linear_2117_31502" x1="353" y1="132.999" x2="336.297" y2="149.703" gradientUnits="userSpaceOnUse">
<stop stop-color="#C71E36"/>
<stop offset="0.5" stop-color="#B94D41"/>
<stop offset="1" stop-color="#AA7C4B"/>
</linearGradient>
<linearGradient id="paint8_linear_2117_31502" x1="256.001" y1="109.999" x2="256.001" y2="389.622" gradientUnits="userSpaceOnUse">
<stop stop-color="#EFC59C"/>
<stop offset="0.5" stop-color="#ECC091"/>
<stop offset="1" stop-color="#E8BA85"/>
</linearGradient>
<linearGradient id="paint9_linear_2117_31502" x1="150" y1="166" x2="161.602" y2="177.601" gradientUnits="userSpaceOnUse">
<stop stop-color="#C7751C"/>
<stop offset="0.5" stop-color="#B97934"/>
<stop offset="1" stop-color="#AA7C4B"/>
</linearGradient>
<linearGradient id="paint10_linear_2117_31502" x1="89.0001" y1="167" x2="80.2961" y2="175.704" gradientUnits="userSpaceOnUse">
<stop stop-color="#C7751C"/>
<stop offset="0.5" stop-color="#B97934"/>
<stop offset="1" stop-color="#AA7C4B"/>
</linearGradient>
<linearGradient id="paint11_linear_2117_31502" x1="255" y1="134" x2="255" y2="423.365" gradientUnits="userSpaceOnUse">
<stop stop-color="#EFC59C"/>
<stop offset="0.5" stop-color="#ECC091"/>
<stop offset="1" stop-color="#E8BA85"/>
</linearGradient>
<linearGradient id="paint12_linear_2117_31502" x1="290" y1="184.999" x2="307.974" y2="202.973" gradientUnits="userSpaceOnUse">
<stop stop-color="#4554CC"/>
<stop offset="0.5" stop-color="#78688B"/>
<stop offset="1" stop-color="#AA7C4B"/>
</linearGradient>
<linearGradient id="paint13_linear_2117_31502" x1="230" y1="177.999" x2="205.158" y2="202.841" gradientUnits="userSpaceOnUse">
<stop stop-color="#4554CC"/>
<stop offset="0.5" stop-color="#78688B"/>
<stop offset="1" stop-color="#AA7C4B"/>
</linearGradient>
<linearGradient id="paint14_linear_2117_31502" x1="255" y1="157.999" x2="255" y2="459.563" gradientUnits="userSpaceOnUse">
<stop stop-color="#EFC59C"/>
<stop offset="0.5" stop-color="#ECC091"/>
<stop offset="1" stop-color="#E8BA85"/>
</linearGradient>
<linearGradient id="paint15_linear_2117_31502" x1="442" y1="212.999" x2="451.804" y2="222.803" gradientUnits="userSpaceOnUse">
<stop stop-color="#C71E36"/>
<stop offset="0.5" stop-color="#B94D41"/>
<stop offset="1" stop-color="#AA7C4B"/>
</linearGradient>
<linearGradient id="paint16_linear_2117_31502" x1="364.001" y1="210.999" x2="348.944" y2="226.055" gradientUnits="userSpaceOnUse">
<stop stop-color="#C71E36"/>
<stop offset="0.5" stop-color="#B94D41"/>
<stop offset="1" stop-color="#AA7C4B"/>
</linearGradient>
<linearGradient id="paint17_linear_2117_31502" x1="355.723" y1="221.344" x2="355.426" y2="502.468" gradientUnits="userSpaceOnUse">
<stop stop-color="#F5CFAE"/>
<stop offset="0.5" stop-color="#EEC6A4"/>
<stop offset="1" stop-color="#E7BD99"/>
</linearGradient>
<linearGradient id="paint18_linear_2117_31502" x1="255.001" y1="182.999" x2="255.001" y2="497.155" gradientUnits="userSpaceOnUse">
<stop stop-color="#EFC59C"/>
<stop offset="0.5" stop-color="#E4B889"/>
<stop offset="1" stop-color="#D8AB76"/>
</linearGradient>
<clipPath id="clip0_2117_31502">
<rect width="512" height="512" fill="white"/>
</clipPath>
</defs>
</svg>
