<svg width="512" height="512" viewBox="0 0 512 512" fill="none" xmlns="http://www.w3.org/2000/svg">
<g clip-path="url(#clip0_1321_107533)">
<mask id="mask0_1321_107533" style="mask-type:luminance" maskUnits="userSpaceOnUse" x="0" y="0" width="512" height="512">
<path d="M512 0H0V512H512V0Z" fill="white"/>
</mask>
<g mask="url(#mask0_1321_107533)">
<path d="M156.895 113.963C156.895 113.963 151.594 102.878 144.728 101.072C136.37 98.8747 106.854 104.486 82.5875 127.62C66.5572 142.902 56.7419 158.948 55.8168 170.324C55.5088 174.117 59.2433 176.411 60.3576 179.291C64.8159 190.81 156.895 113.963 156.895 113.963Z" fill="#444541"/>
<path d="M156.895 113.963C156.895 113.963 151.594 102.878 144.728 101.072C136.37 98.8747 106.854 104.486 82.5875 127.62C66.5572 142.902 56.7419 158.948 55.8168 170.324C55.5088 174.117 59.2433 176.411 60.3576 179.291C64.8159 190.81 156.895 113.963 156.895 113.963Z" stroke="#2C2D2B" stroke-width="8.8" stroke-linecap="round" stroke-linejoin="round"/>
<path d="M355.106 113.963C355.106 113.963 360.407 102.878 367.274 101.072C375.631 98.8747 405.148 104.486 429.414 127.62C445.444 142.902 455.259 158.948 456.184 170.324C456.492 174.117 452.758 176.411 451.644 179.291C447.185 190.81 355.106 113.963 355.106 113.963Z" fill="#444541"/>
<path d="M355.106 113.963C355.106 113.963 360.407 102.878 367.274 101.072C375.631 98.8747 405.148 104.486 429.414 127.62C445.444 142.902 455.259 158.948 456.184 170.324C456.492 174.117 452.758 176.411 451.644 179.291C447.185 190.81 355.106 113.963 355.106 113.963Z" stroke="#2C2D2B" stroke-width="8.8" stroke-linecap="round" stroke-linejoin="round"/>
<path d="M467.354 344.329C465.774 250.295 457.3 182.599 433.173 150.969C399.116 106.322 350.105 117.82 255.45 117.82C160.795 117.82 114.192 107.35 78.8279 150.969C51.4005 184.799 45.6772 245.345 44.0965 339.379C42.5158 433.412 52.9735 453.527 84.8152 462.194C109.209 468.833 122.737 458.496 144.927 431.773C170.536 400.931 174.6 383.35 191.206 378.136C212.369 371.492 239.802 373.186 255.45 373.186C271.099 373.186 301.339 371.132 322.995 375.936C334.1 378.4 338.715 398.181 364.324 429.023C386.514 455.746 395.092 465.533 419.486 458.894C451.327 450.227 468.935 438.362 467.354 344.329Z" fill="url(#paint0_linear_1321_107533)"/>
<path d="M467.354 344.329C465.774 250.295 457.3 182.599 433.173 150.969C399.116 106.322 350.105 117.82 255.45 117.82C160.795 117.82 114.192 107.35 78.8279 150.969C51.4005 184.799 45.6772 245.345 44.0965 339.379C42.5158 433.412 52.9735 453.527 84.8152 462.194C109.209 468.833 122.737 458.496 144.927 431.773C170.536 400.931 174.6 383.35 191.206 378.136C212.369 371.492 239.802 373.186 255.45 373.186C271.099 373.186 301.339 371.132 322.995 375.936C334.1 378.4 338.715 398.181 364.324 429.023C386.514 455.746 395.092 465.533 419.486 458.894C451.327 450.227 468.935 438.362 467.354 344.329Z" stroke="#2C2D2B" stroke-width="4.4" stroke-linecap="round" stroke-linejoin="round"/>
<path d="M155.276 329.617L117.698 269.731L181.711 131.75C181.711 131.75 237.481 126.845 333.59 131.75L399.756 268.772L360.961 329.617L287.988 337.384H224.909L155.276 329.617Z" fill="#333333"/>
<path d="M108.516 125.152V184.777H406.006V125.152C406.006 125.152 382.006 115.994 256.352 115.994C130.698 115.994 108.516 125.152 108.516 125.152Z" fill="url(#paint1_linear_1321_107533)"/>
<path d="M467.354 344.329C465.774 250.295 457.3 182.599 433.173 150.969C399.116 106.322 350.105 117.82 255.45 117.82C160.795 117.82 114.192 107.35 78.8279 150.969C51.4005 184.799 45.6772 245.345 44.0965 339.379C42.5158 433.412 52.9735 453.527 84.8152 462.194C109.209 468.833 122.737 458.496 144.927 431.773C170.536 400.931 174.6 383.35 191.206 378.136C212.369 371.492 239.802 373.186 255.45 373.186C271.099 373.186 301.339 371.132 322.995 375.936C334.1 378.4 338.715 398.181 364.324 429.023C386.514 455.746 395.092 465.533 419.486 458.894C451.327 450.227 468.935 438.362 467.354 344.329Z" stroke="#2C2D2B" stroke-width="8.8" stroke-linecap="round" stroke-linejoin="round"/>
<path d="M399.756 268.771L360.961 329.617L287.988 337.384H224.909L155.276 329.617L117.698 269.731" stroke="#161616" stroke-width="8.8" stroke-linecap="round" stroke-linejoin="round"/>
<path d="M224.212 199.888C224.212 243.356 188.972 278.596 145.503 278.596C102.035 278.596 66.7949 243.356 66.7949 199.888C66.7949 156.419 102.035 121.179 145.503 121.179C188.972 121.179 224.212 156.419 224.212 199.888Z" fill="url(#paint2_linear_1321_107533)"/>
<path d="M224.212 199.888C224.212 243.356 188.972 278.596 145.503 278.596C102.035 278.596 66.7949 243.356 66.7949 199.888C66.7949 156.419 102.035 121.179 145.503 121.179C188.972 121.179 224.212 156.419 224.212 199.888Z" stroke="#161616" stroke-width="8.8" stroke-linecap="round" stroke-linejoin="round"/>
<g opacity="0.1">
<path d="M66.7949 199.888C66.7949 156.419 102.035 121.179 145.503 121.179C188.972 121.179 224.212 156.419 224.212 199.888" stroke="white" stroke-width="8.8" stroke-linecap="round" stroke-linejoin="round"/>
</g>
<path d="M210.483 192.521C210.299 227.115 182.106 255.009 147.512 254.825C112.918 254.641 85.0242 226.448 85.2079 191.854C85.3916 157.261 113.585 129.366 148.179 129.55C182.772 129.735 210.666 157.927 210.483 192.521Z" fill="#232323"/>
<path d="M210.483 192.521C210.299 227.115 182.106 255.009 147.512 254.825C112.918 254.641 85.0242 226.448 85.2079 191.854C85.3916 157.261 113.585 129.366 148.179 129.55C182.772 129.735 210.666 157.927 210.483 192.521Z" stroke="#9A3300" stroke-width="5.5" stroke-linecap="round" stroke-linejoin="round"/>
<path d="M130.656 145.516H165.051V180.291L147.694 197.488L130.656 180.499V145.516Z" fill="black"/>
<path d="M130.656 145.516H165.051V180.291L147.694 197.488L130.656 180.499V145.516Z" stroke="black" stroke-width="5.5" stroke-linecap="round" stroke-linejoin="round"/>
<path d="M95.6719 214.894V180.499H130.655L147.693 197.489L130.469 214.894H95.6719Z" fill="black"/>
<path d="M95.6719 214.894V180.499H130.655L147.693 197.489L130.469 214.894H95.6719Z" stroke="black" stroke-width="5.5" stroke-linecap="round" stroke-linejoin="round"/>
<path d="M199.875 214.686V180.291H165.051L147.693 197.489L164.892 214.686H199.875Z" fill="black"/>
<path d="M199.875 214.686V180.291H165.051L147.693 197.489L164.892 214.686H199.875Z" stroke="black" stroke-width="5.5" stroke-linecap="round" stroke-linejoin="round"/>
<path d="M86.3682 180.121C92.0178 151.166 117.597 129.386 148.178 129.55C164.767 129.639 179.815 136.168 190.966 146.754" stroke="#6F2302" stroke-width="5.5" stroke-linecap="round" stroke-linejoin="round"/>
<path d="M210.483 192.521C210.299 227.115 182.106 255.009 147.512 254.825C136.57 254.767 126.297 251.907 117.373 246.928" stroke="#BB5203" stroke-width="5.5" stroke-linecap="round" stroke-linejoin="round"/>
<path d="M448.507 199.888C448.507 243.356 413.268 278.596 369.799 278.596C326.33 278.596 291.091 243.356 291.091 199.888C291.091 156.419 326.33 121.179 369.799 121.179C413.268 121.179 448.507 156.419 448.507 199.888Z" fill="url(#paint3_linear_1321_107533)"/>
<path d="M448.507 199.888C448.507 243.356 413.268 278.596 369.799 278.596C326.33 278.596 291.091 243.356 291.091 199.888C291.091 156.419 326.33 121.179 369.799 121.179C413.268 121.179 448.507 156.419 448.507 199.888Z" stroke="#161616" stroke-width="8.8" stroke-linecap="round" stroke-linejoin="round"/>
<g opacity="0.1">
<path d="M291.091 199.888C291.091 156.419 326.33 121.179 369.799 121.179C413.268 121.179 448.507 156.419 448.507 199.888" stroke="white" stroke-width="8.8" stroke-linecap="round" stroke-linejoin="round"/>
</g>
<path d="M430.094 192.188C430.094 226.782 402.05 254.826 367.456 254.826C332.862 254.826 304.817 226.782 304.817 192.188C304.817 157.594 332.862 129.549 367.456 129.549C402.05 129.549 430.094 157.594 430.094 192.188Z" fill="#232323"/>
<path d="M430.094 192.188C430.094 226.782 402.05 254.826 367.456 254.826C332.862 254.826 304.817 226.782 304.817 192.188C304.817 157.594 332.862 129.549 367.456 129.549C402.05 129.549 430.094 157.594 430.094 192.188Z" stroke="black" stroke-width="5.5" stroke-linecap="round" stroke-linejoin="round"/>
<path d="M386.192 162.134C386.192 172.481 377.804 180.87 367.456 180.87C357.108 180.87 348.72 172.481 348.72 162.134C348.72 151.786 357.108 143.397 367.456 143.397C377.804 143.397 386.192 151.786 386.192 162.134Z" fill="black"/>
<path d="M386.192 162.134C386.192 172.481 377.804 180.87 367.456 180.87C357.108 180.87 348.72 172.481 348.72 162.134C348.72 151.786 357.108 143.397 367.456 143.397C377.804 143.397 386.192 151.786 386.192 162.134Z" stroke="black" stroke-width="5.5" stroke-linecap="round" stroke-linejoin="round"/>
<path d="M402.591 216.005C392.243 216.005 383.854 207.616 383.854 197.269C383.854 186.921 392.243 178.532 402.591 178.532C412.938 178.532 421.327 186.921 421.327 197.269C421.327 207.616 412.938 216.005 402.591 216.005Z" fill="black"/>
<path d="M402.591 216.005C392.243 216.005 383.854 207.616 383.854 197.269C383.854 186.921 392.243 178.532 402.591 178.532C412.938 178.532 421.327 186.921 421.327 197.269C421.327 207.616 412.938 216.005 402.591 216.005Z" stroke="black" stroke-width="5.5" stroke-linecap="round" stroke-linejoin="round"/>
<path d="M332.32 216.005C321.973 216.005 313.584 207.616 313.584 197.269C313.584 186.921 321.973 178.532 332.32 178.532C342.668 178.532 351.057 186.921 351.057 197.269C351.057 207.616 342.668 216.005 332.32 216.005Z" fill="black"/>
<path d="M332.32 216.005C321.973 216.005 313.584 207.616 313.584 197.269C313.584 186.921 321.973 178.532 332.32 178.532C342.668 178.532 351.057 186.921 351.057 197.269C351.057 207.616 342.668 216.005 332.32 216.005Z" stroke="black" stroke-width="5.5" stroke-linecap="round" stroke-linejoin="round"/>
<g opacity="0.25">
<path d="M430.095 192.188C430.095 226.782 402.05 254.826 367.456 254.826C355.106 254.826 343.592 251.252 333.89 245.082" stroke="white" stroke-width="5.5" stroke-linecap="round" stroke-linejoin="round"/>
</g>
<path d="M274.944 257.694C274.944 268.156 266.463 276.637 256.001 276.637C245.539 276.637 237.058 268.156 237.058 257.694C237.058 247.232 245.539 238.751 256.001 238.751C266.463 238.751 274.944 247.232 274.944 257.694Z" fill="#43443F"/>
<path d="M274.944 257.694C274.944 268.156 266.463 276.637 256.001 276.637C245.539 276.637 237.058 268.156 237.058 257.694C237.058 247.232 245.539 238.751 256.001 238.751C266.463 238.751 274.944 247.232 274.944 257.694Z" stroke="#1A1A1A" stroke-width="8.8" stroke-linecap="round" stroke-linejoin="round"/>
<path d="M265.141 257.694C265.141 262.742 261.048 266.835 256 266.835C250.952 266.835 246.859 262.742 246.859 257.694C246.859 252.646 250.952 248.553 256 248.553C261.048 248.553 265.141 252.646 265.141 257.694Z" stroke="#BC5304" stroke-width="5.5" stroke-linecap="round" stroke-linejoin="round"/>
<path d="M229.232 317.862C229.232 339.548 211.651 357.128 189.965 357.128C168.278 357.128 150.698 339.548 150.698 317.862C150.698 296.175 168.278 278.595 189.965 278.595C211.651 278.595 229.232 296.175 229.232 317.862Z" fill="#252828"/>
<path d="M229.232 317.862C229.232 339.548 211.651 357.128 189.965 357.128C168.278 357.128 150.698 339.548 150.698 317.862C150.698 296.175 168.278 278.595 189.965 278.595C211.651 278.595 229.232 296.175 229.232 317.862Z" stroke="#161616" stroke-width="8.8" stroke-linecap="round" stroke-linejoin="round"/>
<path d="M362.22 317.862C362.22 339.548 344.64 357.128 322.953 357.128C301.267 357.128 283.687 339.548 283.687 317.862C283.687 296.175 301.267 278.595 322.953 278.595C344.64 278.595 362.22 296.175 362.22 317.862Z" fill="#252828"/>
<path d="M362.22 317.862C362.22 339.548 344.64 357.128 322.953 357.128C301.267 357.128 283.687 339.548 283.687 317.862C283.687 296.175 301.267 278.595 322.953 278.595C344.64 278.595 362.22 296.175 362.22 317.862Z" stroke="#161616" stroke-width="8.8" stroke-linecap="round" stroke-linejoin="round"/>
<path d="M386.192 156.634C386.192 166.981 377.804 175.37 367.456 175.37C357.108 175.37 348.72 166.981 348.72 156.634C348.72 146.286 357.108 137.897 367.456 137.897C377.804 137.897 386.192 146.286 386.192 156.634Z" fill="#DD5900"/>
<path d="M386.192 156.634C386.192 166.981 377.804 175.37 367.456 175.37C357.108 175.37 348.72 166.981 348.72 156.634C348.72 146.286 357.108 137.897 367.456 137.897C377.804 137.897 386.192 146.286 386.192 156.634Z" stroke="#B53902" stroke-width="5.5" stroke-linecap="round" stroke-linejoin="round"/>
<path d="M386.192 156.634C386.192 166.981 377.804 175.37 367.456 175.37C357.108 175.37 348.72 166.981 348.72 156.634C348.72 146.286 357.108 137.897 367.456 137.897C377.804 137.897 386.192 146.286 386.192 156.634Z" fill="#DD5900"/>
<path d="M386.192 156.634C386.192 166.981 377.804 175.37 367.456 175.37C357.108 175.37 348.72 166.981 348.72 156.634C348.72 146.286 357.108 137.897 367.456 137.897C377.804 137.897 386.192 146.286 386.192 156.634Z" stroke="#B53902" stroke-width="5.5" stroke-linecap="round" stroke-linejoin="round"/>
<path d="M402.591 210.505C392.243 210.505 383.854 202.116 383.854 191.769C383.854 181.421 392.243 173.032 402.591 173.032C412.938 173.032 421.327 181.421 421.327 191.769C421.327 202.116 412.938 210.505 402.591 210.505Z" fill="#DD5900"/>
<path d="M402.591 210.505C392.243 210.505 383.854 202.116 383.854 191.769C383.854 181.421 392.243 173.032 402.591 173.032C412.938 173.032 421.327 181.421 421.327 191.769C421.327 202.116 412.938 210.505 402.591 210.505Z" stroke="#B53902" stroke-width="5.5" stroke-linecap="round" stroke-linejoin="round"/>
<path d="M402.591 210.505C392.243 210.505 383.854 202.116 383.854 191.769C383.854 181.421 392.243 173.032 402.591 173.032C412.938 173.032 421.327 181.421 421.327 191.769C421.327 202.116 412.938 210.505 402.591 210.505Z" fill="#DD5900"/>
<path d="M402.591 210.505C392.243 210.505 383.854 202.116 383.854 191.769C383.854 181.421 392.243 173.032 402.591 173.032C412.938 173.032 421.327 181.421 421.327 191.769C421.327 202.116 412.938 210.505 402.591 210.505Z" stroke="#B53902" stroke-width="5.5" stroke-linecap="round" stroke-linejoin="round"/>
<path d="M332.32 210.505C321.973 210.505 313.584 202.116 313.584 191.769C313.584 181.421 321.973 173.032 332.32 173.032C342.668 173.032 351.057 181.421 351.057 191.769C351.057 202.116 342.668 210.505 332.32 210.505Z" fill="#878784"/>
<path d="M332.32 210.505C321.973 210.505 313.584 202.116 313.584 191.769C313.584 181.421 321.973 173.032 332.32 173.032C342.668 173.032 351.057 181.421 351.057 191.769C351.057 202.116 342.668 210.505 332.32 210.505Z" stroke="#60605E" stroke-width="5.5" stroke-linecap="round" stroke-linejoin="round"/>
<path d="M332.32 210.505C321.973 210.505 313.584 202.116 313.584 191.769C313.584 181.421 321.973 173.032 332.32 173.032C342.668 173.032 351.057 181.421 351.057 191.769C351.057 202.116 342.668 210.505 332.32 210.505Z" fill="#878784"/>
<path d="M332.32 210.505C321.973 210.505 313.584 202.116 313.584 191.769C313.584 181.421 321.973 173.032 332.32 173.032C342.668 173.032 351.057 181.421 351.057 191.769C351.057 202.116 342.668 210.505 332.32 210.505Z" stroke="#60605E" stroke-width="5.5" stroke-linecap="round" stroke-linejoin="round"/>
<path d="M386.192 226.904C386.192 237.251 377.804 245.64 367.456 245.64C357.108 245.64 348.72 237.251 348.72 226.904C348.72 216.556 357.108 208.167 367.456 208.167C377.804 208.167 386.192 216.556 386.192 226.904Z" fill="#878784"/>
<path d="M386.192 226.904C386.192 237.251 377.804 245.64 367.456 245.64C357.108 245.64 348.72 237.251 348.72 226.904C348.72 216.556 357.108 208.167 367.456 208.167C377.804 208.167 386.192 216.556 386.192 226.904Z" stroke="#60605E" stroke-width="5.5" stroke-linecap="round" stroke-linejoin="round"/>
<path d="M386.192 226.904C386.192 237.251 377.804 245.64 367.456 245.64C357.108 245.64 348.72 237.251 348.72 226.904C348.72 216.556 357.108 208.167 367.456 208.167C377.804 208.167 386.192 216.556 386.192 226.904Z" fill="#878784"/>
<path d="M386.192 226.904C386.192 237.251 377.804 245.64 367.456 245.64C357.108 245.64 348.72 237.251 348.72 226.904C348.72 216.556 357.108 208.167 367.456 208.167C377.804 208.167 386.192 216.556 386.192 226.904Z" stroke="#60605E" stroke-width="5.5" stroke-linecap="round" stroke-linejoin="round"/>
<path d="M130.654 140.016H165.049V174.791L147.692 191.988L130.654 174.999V140.016Z" fill="#626760"/>
<path d="M130.654 140.016H165.049V174.791L147.692 191.988L130.654 174.999V140.016Z" stroke="#161616" stroke-width="5.5" stroke-linecap="round" stroke-linejoin="round"/>
<path d="M130.654 140.016H165.049V174.791L147.692 191.988L130.654 174.999V140.016Z" fill="#626760"/>
<path d="M130.654 140.016H165.049V174.791L147.692 191.988L130.654 174.999V140.016Z" stroke="#161616" stroke-width="5.5" stroke-linecap="round" stroke-linejoin="round"/>
<g opacity="0.2">
<path d="M130.654 145.516C130.654 145.516 159.042 145.516 164.237 145.516" stroke="white" stroke-width="5.5" stroke-linecap="round" stroke-linejoin="round"/>
</g>
<path d="M95.6699 209.394V174.999H130.653L147.691 191.989L130.467 209.394H95.6699Z" fill="#626760"/>
<path d="M95.6699 209.394V174.999H130.653L147.691 191.989L130.467 209.394H95.6699Z" stroke="#161616" stroke-width="5.5" stroke-linecap="round" stroke-linejoin="round"/>
<path d="M95.6699 209.394V174.999H130.653L147.691 191.989L130.467 209.394H95.6699Z" fill="#626760"/>
<path d="M95.6699 209.394V174.999H130.653L147.691 191.989L130.467 209.394H95.6699Z" stroke="#161616" stroke-width="5.5" stroke-linecap="round" stroke-linejoin="round"/>
<g opacity="0.2">
<path d="M97.9287 180.499C105.669 180.499 130.654 180.499 130.654 180.499C130.654 180.499 140.655 190.472 145.332 195.136" stroke="white" stroke-width="5.5" stroke-linecap="round" stroke-linejoin="round"/>
</g>
<path d="M199.873 209.186V174.791H165.049L147.691 191.989L164.89 209.186H199.873Z" fill="#626760"/>
<path d="M199.873 209.186V174.791H165.049L147.691 191.989L164.89 209.186H199.873Z" stroke="#161616" stroke-width="5.5" stroke-linecap="round" stroke-linejoin="round"/>
<path d="M199.873 209.186V174.791H165.049L147.691 191.989L164.89 209.186H199.873Z" fill="#626760"/>
<path d="M199.873 209.186V174.791H165.049L147.691 191.989L164.89 209.186H199.873Z" stroke="#161616" stroke-width="5.5" stroke-linecap="round" stroke-linejoin="round"/>
<g opacity="0.2">
<path d="M199.873 181.035C199.873 180.554 199.873 180.291 199.873 180.291H165.049C165.049 180.291 150.055 195.147 147.938 197.243" stroke="white" stroke-width="5.5" stroke-linecap="round" stroke-linejoin="round"/>
</g>
<path d="M130.494 244.17H164.889V209.187L147.692 191.989L130.494 209.394V244.17Z" fill="#626760"/>
<path d="M130.494 244.17H164.889V209.187L147.692 191.989L130.494 209.394V244.17Z" stroke="#161616" stroke-width="5.5" stroke-linecap="round" stroke-linejoin="round"/>
<path d="M130.494 244.17H164.889V209.187L147.692 191.989L130.494 209.394V244.17Z" fill="#626760"/>
<path d="M130.494 244.17H164.889V209.187L147.692 191.989L130.494 209.394V244.17Z" stroke="#161616" stroke-width="5.5" stroke-linecap="round" stroke-linejoin="round"/>
<g opacity="0.2">
<path d="M163.117 212.915C158.726 208.524 147.691 197.489 147.691 197.489C147.691 197.489 135.91 209.411 131.85 213.521" stroke="white" stroke-width="5.5" stroke-linecap="round" stroke-linejoin="round"/>
</g>
<path d="M207.956 300.763L177.404 300.237C177.404 300.237 178.176 313.147 178.83 326.746C185.882 333.015 201.591 334.021 210.645 325.722C209.14 313.66 207.956 300.763 207.956 300.763Z" fill="#1B1D1D"/>
<path d="M207.956 300.763L177.404 300.237C177.404 300.237 178.176 313.147 178.83 326.746C185.882 333.015 201.591 334.021 210.645 325.722C209.14 313.66 207.956 300.763 207.956 300.763Z" stroke="#161616" stroke-width="8.8" stroke-linecap="round" stroke-linejoin="round"/>
<path d="M192.265 279.94C177.497 279.94 165.48 291.957 165.48 306.726C165.48 321.496 177.497 333.51 192.265 333.51C207.034 333.51 219.05 321.496 219.05 306.726C219.05 291.957 207.034 279.94 192.265 279.94Z" fill="url(#paint4_radial_1321_107533)"/>
<path d="M192.266 342.309C172.645 342.309 156.681 326.347 156.681 306.725C156.681 287.103 172.645 271.139 192.266 271.139C211.886 271.139 227.851 287.103 227.851 306.725C227.851 326.347 211.886 342.309 192.266 342.309ZM192.266 279.939C177.497 279.939 165.481 291.956 165.481 306.725C165.481 321.495 177.497 333.509 192.266 333.509C207.034 333.509 219.051 321.495 219.051 306.725C219.051 291.956 207.034 279.939 192.266 279.939Z" fill="url(#paint5_linear_1321_107533)"/>
<path d="M334.931 306.742L305.316 307.474C305.316 307.474 304.479 319.681 306.445 332.182C310.727 339.216 327.671 339.9 335.27 332.345C336.673 319.339 334.931 306.742 334.931 306.742Z" fill="#1B1D1D"/>
<path d="M334.931 306.742L305.316 307.474C305.316 307.474 304.479 319.681 306.445 332.182C310.727 339.216 327.671 339.9 335.27 332.345C336.673 319.339 334.931 306.742 334.931 306.742Z" stroke="#161616" stroke-width="8.8" stroke-linecap="round" stroke-linejoin="round"/>
<path d="M319.735 279.94C304.967 279.94 292.95 291.957 292.95 306.726C292.95 321.496 304.967 333.51 319.735 333.51C334.504 333.51 346.52 321.496 346.52 306.726C346.52 291.957 334.504 279.94 319.735 279.94Z" fill="url(#paint6_radial_1321_107533)"/>
<path d="M319.735 342.309C300.115 342.309 284.15 326.347 284.15 306.725C284.15 287.103 300.115 271.139 319.735 271.139C339.356 271.139 355.32 287.103 355.32 306.725C355.32 326.347 339.356 342.309 319.735 342.309ZM319.735 279.939C304.967 279.939 292.95 291.956 292.95 306.725C292.95 321.495 304.967 333.509 319.735 333.509C334.504 333.509 346.52 321.495 346.52 306.725C346.52 291.956 334.504 279.939 319.735 279.939Z" fill="url(#paint7_linear_1321_107533)"/>
</g>
</g>
<defs>
<linearGradient id="paint0_linear_1321_107533" x1="-0.152125" y1="301.317" x2="501.737" y2="303.203" gradientUnits="userSpaceOnUse">
<stop stop-color="#2E2E2E"/>
<stop offset="0.09" stop-color="#393938"/>
<stop offset="0.19" stop-color="#444541"/>
<stop offset="0.34" stop-color="#343432"/>
<stop offset="0.5" stop-color="#232323"/>
<stop offset="0.66" stop-color="#343432"/>
<stop offset="0.81" stop-color="#444541"/>
<stop offset="0.93" stop-color="#393938"/>
<stop offset="1" stop-color="#2E2E2E"/>
</linearGradient>
<linearGradient id="paint1_linear_1321_107533" x1="257.338" y1="115.5" x2="257.338" y2="183.174" gradientUnits="userSpaceOnUse">
<stop stop-color="white" stop-opacity="0.5"/>
<stop offset="0.41" stop-color="white" stop-opacity="0.25"/>
<stop offset="0.88" stop-color="white" stop-opacity="0"/>
</linearGradient>
<linearGradient id="paint2_linear_1321_107533" x1="146.238" y1="126.5" x2="146.238" y2="276.432" gradientUnits="userSpaceOnUse">
<stop stop-color="#898B89"/>
<stop offset="0.41" stop-color="#525353"/>
<stop offset="0.76" stop-color="#1A1C1C"/>
</linearGradient>
<linearGradient id="paint3_linear_1321_107533" x1="370.638" y1="126.5" x2="370.638" y2="276.432" gradientUnits="userSpaceOnUse">
<stop stop-color="#898B89"/>
<stop offset="0.41" stop-color="#525353"/>
<stop offset="0.76" stop-color="#1A1C1C"/>
</linearGradient>
<radialGradient id="paint4_radial_1321_107533" cx="0" cy="0" r="1" gradientUnits="userSpaceOnUse" gradientTransform="translate(206.738 326.701) scale(36.9875)">
<stop offset="0.24" stop-color="#595C5A"/>
<stop offset="0.52" stop-color="#525552"/>
<stop offset="1" stop-color="#4B4F4A"/>
</radialGradient>
<linearGradient id="paint5_linear_1321_107533" x1="192.438" y1="273.9" x2="192.438" y2="370.017" gradientUnits="userSpaceOnUse">
<stop stop-color="#B3B3B3"/>
<stop offset="0.37" stop-color="#727270"/>
<stop offset="1" stop-color="#31322E"/>
</linearGradient>
<radialGradient id="paint6_radial_1321_107533" cx="0" cy="0" r="1" gradientUnits="userSpaceOnUse" gradientTransform="translate(334.337 326.701) scale(36.9886)">
<stop offset="0.24" stop-color="#595C5A"/>
<stop offset="0.52" stop-color="#525552"/>
<stop offset="1" stop-color="#4B4F4A"/>
</radialGradient>
<linearGradient id="paint7_linear_1321_107533" x1="320.037" y1="273.9" x2="320.037" y2="370.017" gradientUnits="userSpaceOnUse">
<stop stop-color="#B3B3B3"/>
<stop offset="0.37" stop-color="#727270"/>
<stop offset="1" stop-color="#31322E"/>
</linearGradient>
<clipPath id="clip0_1321_107533">
<rect width="512" height="512" fill="white"/>
</clipPath>
</defs>
</svg>
