<svg width="512" height="512" viewBox="0 0 512 512" fill="none" xmlns="http://www.w3.org/2000/svg">
<g clip-path="url(#clip0_1377_82519)">
<mask id="mask0_1377_82519" style="mask-type:luminance" maskUnits="userSpaceOnUse" x="0" y="0" width="512" height="512">
<path d="M512 0H0V512H512V0Z" fill="white"/>
</mask>
<g mask="url(#mask0_1377_82519)">
<path d="M121.989 404.749C121.989 404.749 74.6666 382.444 50.3945 329.698" stroke="#707070" stroke-width="10.1489" stroke-miterlimit="10"/>
<path d="M135.985 378.418C135.985 378.418 97.7477 360.395 78.1357 317.775" stroke="#707070" stroke-width="10.1489" stroke-miterlimit="10"/>
<path d="M302.246 49.6427C302.246 49.6427 345.497 79.0745 361.22 134.968" stroke="#707070" stroke-width="10.1489" stroke-miterlimit="10"/>
<path d="M284.303 73.46C284.303 73.46 319.251 97.2412 331.955 142.404" stroke="#707070" stroke-width="10.1489" stroke-miterlimit="10"/>
<path d="M323.251 199.667C311.746 186.769 280.714 144.588 269.188 130.274C234.363 87.0263 207.789 42.8888 182.909 57.2348C158.802 71.1352 189.904 103.684 216.299 139.034C243.056 174.871 267.258 198.836 260.435 207.932L323.251 199.667Z" fill="#FCCE2C"/>
<path d="M225.063 255.05C227.843 251.156 201.919 224.105 164.36 182.079C122.864 135.649 94.2707 98.3591 112.443 83.4547C134.048 65.7358 154.016 92.5921 191.114 135.055C221.318 169.626 254.808 214.23 260.434 207.933" fill="#FCCE2C"/>
<path d="M225.065 255.05C218.43 263.103 197.323 241.465 157.244 197.628C126.523 164.027 99.6718 138.13 84.645 152.205C66.8174 168.903 97.6776 203.053 136.635 242.558C175.592 282.064 205.41 305.305 199.955 312.454" fill="#FCCE2C"/>
<path d="M97.1439 177.638C97.1439 177.638 94.9428 167.343 109.789 169.585C126.176 172.06 133.663 181.862 152.029 193.746C152.029 193.746 116.261 148.539 102.218 146.252C79.0113 142.475 87.3365 168.093 97.1439 177.638Z" fill="#FFD75D"/>
<path d="M199.955 312.456C196.539 316.874 174.857 295.517 151.834 276.241C121.69 251.004 105.277 239.445 92.6218 251.068C73.8475 268.311 99.8061 293.362 137.555 325.993C158.723 344.291 182.076 366.645 195.238 379.133L199.955 312.456Z" fill="#FCCE2C"/>
<path d="M106.666 278.753C106.666 278.753 98.322 264.261 107.427 261.013C116.532 257.764 140.256 271.173 150.752 275.16C150.752 275.16 115.093 235.331 92.6215 251.068C70.15 266.805 106.666 278.753 106.666 278.753Z" fill="#FFD75D"/>
<path d="M323.251 199.668C357.196 239.595 371.27 241.582 381.928 226.01C392.587 210.438 387.653 187.48 394.043 169.609C400.433 151.738 433.34 128.871 452.89 141.864C472.441 154.857 462.36 168.622 453.525 184.825C444.691 201.027 440.741 220.328 440.484 243.917C440.227 267.506 440.235 274.804 446.322 311.349C452.409 347.895 440.532 381.692 421.284 405.287C402.467 428.355 366.539 456.185 324.635 455.453C274.759 454.583 213.281 395.791 195.237 379.133C195.237 379.133 175.092 332.256 198.323 309.739C198.323 309.739 191.765 270.602 222.094 252.41C222.094 252.41 225.318 214.473 260.409 206.199C260.409 206.199 291.769 162.64 323.251 199.668Z" fill="#FCCE2C"/>
<path d="M124.076 117.6C116.549 83.0339 146.431 99.3741 171.606 116.164C160.587 100.195 149.101 90.3257 138.736 83.1966C120.468 70.6306 103.092 84.6656 124.076 117.6Z" fill="#FFD75D"/>
<g opacity="0.15">
<path d="M431.088 142.558C387.231 159.129 409.025 213.38 387.099 232.841C373.998 244.47 363.582 244.776 345.884 275.933C329.007 305.642 342.498 339.59 337.651 340.328C332.803 341.066 324.611 325.946 322.822 304.478C320.485 276.46 333.367 250.911 339.547 239.388C345.728 227.876 339.236 218.328 339.236 218.328C358.254 241.073 373.291 238.618 381.928 226.013C392.587 210.444 387.655 187.483 394.04 169.613C398.215 157.954 413.288 143.677 431.088 142.558Z" fill="#F09201"/>
</g>
<path d="M208.209 78.9286C189.692 67.3392 185.592 80.2619 185.592 80.2619C180.908 74.8012 178.903 59.8266 182.912 57.2402C202.998 44.282 230.78 78.5131 249.551 105.135C239.39 99.2219 215.294 83.3625 208.209 78.9286Z" fill="#FFD75D"/>
<g opacity="0.15">
<path d="M367.885 235.554C354.483 248.655 315.998 211.727 295.404 184.192C275.699 157.845 227.697 96.64 213.259 79.8249C200.504 64.9706 196.455 59.1495 182.912 57.2403C207.291 42.0866 234.358 87.0252 269.19 130.278C280.717 144.588 336.31 234.972 367.885 235.554Z" fill="#F09201"/>
</g>
<g opacity="0.3">
<path d="M367.885 235.554C348.87 243.067 318.038 209.283 297.444 181.748C277.739 155.401 228.851 92.7626 214.413 75.9474C201.658 61.0932 196.455 59.1495 182.912 57.2403C207.291 42.0866 234.358 87.0252 269.19 130.278C280.717 144.588 336.31 234.972 367.885 235.554Z" fill="#F09201"/>
</g>
<g opacity="0.5">
<path d="M367.885 235.554C346.063 240.274 320.257 207.636 299.663 180.1C279.958 153.754 230.744 91.8231 216.306 75.0079C203.55 60.1536 195.52 58.2182 182.912 57.2403C207.291 42.0866 234.358 87.0252 269.19 130.278C280.717 144.588 336.31 234.972 367.885 235.554Z" fill="#F09201"/>
</g>
<g opacity="0.5">
<path d="M97.5924 151.085C97.5924 151.085 67.0002 151 102.231 193.144C109.923 202.345 159.063 250.366 189.324 280.627C206.911 298.214 209.647 309.076 207.573 313.038C205.5 317 197.75 324 186.029 314.94C162.878 297.046 114.001 246 100.067 250.751C118.126 235.124 192.25 320 199.778 312.506C205.998 306.314 191.447 295.754 179.133 283.92C154.435 260.184 114.917 221.018 101.006 205.576C87.0956 190.135 72.5148 168.562 81.2516 156.342C89.9883 144.122 97.5924 151.085 97.5924 151.085Z" fill="#F09201"/>
</g>
<g opacity="0.3">
<path d="M97.5924 151.085C97.5924 151.085 70.4991 148.75 104.981 190.893C112.575 200.174 160.923 247.512 191.573 277.377C213.25 298.5 211.25 308 208.073 313.788C205.922 317.707 196.25 326.249 184.529 317.19C161.378 299.295 111.375 247.875 99.9417 251.002C120.251 232.126 192.25 320 199.778 312.506C205.998 306.314 191.447 295.754 179.133 283.92C154.435 260.184 114.917 221.018 101.006 205.576C87.0956 190.135 72.5148 168.562 81.2516 156.342C89.9883 144.122 97.5924 151.085 97.5924 151.085Z" fill="#F09201"/>
</g>
<g opacity="0.15">
<path d="M97.5924 151.085C97.5924 151.085 74.9999 148.25 107.731 187.393C115.424 196.594 163.472 245.751 194.823 274.878C220.25 298.5 211.75 308 208.573 313.788C206.422 317.707 195.751 328 184.029 318.94C160.879 301.046 105.75 245.749 97.4413 251.751C118.249 228.5 192.25 320 199.778 312.506C205.998 306.314 191.447 295.754 179.133 283.92C154.435 260.184 114.917 221.018 101.006 205.576C87.0956 190.135 72.5148 168.562 81.2516 156.342C89.9883 144.122 97.5924 151.085 97.5924 151.085Z" fill="#F09201"/>
</g>
<g opacity="0.5">
<path d="M128.047 82.0559C128.047 82.0559 96.0822 79.5329 129.47 125.224C136.76 135.2 181.249 187.251 215.742 221.682C235.832 241.738 234.291 253.748 231.801 257.615C229.312 261.482 218.018 265.988 206.506 255.836C183.769 235.783 107.343 148.072 92.3943 151.796C112.539 137.333 212.22 261.981 220.697 254.954C227.702 249.148 214.354 236.743 202.448 223.721C178.569 197.6 140.459 154.598 127.178 137.777C113.898 120.956 100.416 97.8429 110.542 86.1039C120.667 74.3649 128.047 82.0559 128.047 82.0559Z" fill="#F09201"/>
</g>
<g opacity="0.3">
<path d="M128.047 82.0557C128.047 82.0557 99.9231 77.5209 132.528 123.152C139.708 133.201 187.999 186.438 218.358 218.554C245.25 247 237.179 252.782 233.388 258.418C230.822 262.234 219.124 270.501 204.755 258.006C181.878 238.113 104.447 149.77 92.2433 152.04C115.004 134.449 212.22 261.98 220.698 254.954C227.702 249.148 214.354 236.743 202.449 223.72C178.57 197.6 140.459 154.598 127.179 137.777C113.898 120.956 100.417 97.8426 110.542 86.1037C120.667 74.3647 128.047 82.0557 128.047 82.0557Z" fill="#F09201"/>
</g>
<g opacity="0.15">
<path d="M128.046 82.0559C128.046 82.0559 104.666 77.3712 135.686 119.811C142.978 129.785 191.559 184.188 221.957 216.269C252.499 248.5 238.075 253.573 234.285 259.209C231.718 263.025 222.249 275.376 204.09 259.747C181.112 239.972 98.7399 147.159 89.5685 152.605C113.208 130.601 212.22 261.981 220.697 254.954C227.702 249.148 214.353 236.743 202.448 223.72C178.569 197.6 140.459 154.598 127.178 137.777C113.897 120.956 100.416 97.8428 110.541 86.1038C120.667 74.3648 128.046 82.0559 128.046 82.0559Z" fill="#F09201"/>
</g>
<g opacity="0.15">
<path d="M197.142 57.3376C197.142 57.3376 181.206 56.0696 195.16 80.0965C210.501 106.515 234 133.913 253.367 160.282C271.736 185.295 280.13 204.752 267.978 214.699C261.459 220.035 254.681 224.281 236.6 206.169C215.851 185.379 131.839 76.221 118.6 84.3917C149.065 55.097 244.739 221.994 262.039 207.166C265.327 204.348 260.51 195.449 252.265 184.45C241.575 170.189 193.038 111.668 183.521 96.9216C174.005 82.1749 165.419 66.2496 182.908 57.2348C189.966 53.597 197.142 57.3376 197.142 57.3376Z" fill="#F09201"/>
</g>
<g opacity="0.3">
<path d="M197.142 57.3376C197.142 57.3376 176.975 57.1546 190.929 81.1815C206.27 107.6 230.68 136.432 250.047 162.801C268.416 187.814 278.989 203.106 266.837 213.053C260.318 218.389 256.015 222.573 237.934 204.462C217.184 183.672 134.139 73.6902 118.6 84.3917C149.065 55.097 244.739 221.994 262.039 207.166C265.327 204.348 260.51 195.449 252.265 184.45C241.575 170.189 193.038 111.668 183.521 96.9216C174.005 82.1749 165.419 66.2496 182.908 57.2348C189.966 53.597 197.142 57.3376 197.142 57.3376Z" fill="#F09201"/>
</g>
<g opacity="0.5">
<path d="M197.142 57.3376C197.142 57.3376 172.427 58.7027 186.38 82.7296C201.722 109.148 227.096 138.849 246.892 164.896C264.539 188.176 276.51 202.231 265.521 211.801C259.168 217.332 256.361 219.541 239.417 202.625C218.721 181.789 135.441 69.4059 118.6 84.3917C149.065 55.097 244.739 221.994 262.039 207.166C265.328 204.348 260.51 195.449 252.265 184.45C241.575 170.189 193.038 111.668 183.521 96.9216C174.005 82.1749 165.419 66.2496 182.908 57.2348C189.966 53.597 197.142 57.3376 197.142 57.3376Z" fill="#F09201"/>
</g>
<path d="M323.251 199.668C311.745 186.77 280.714 144.587 269.188 130.273C234.363 87.0262 207.719 42.7737 182.909 57.2347C158.576 71.4173 189.904 103.684 216.298 139.034C243.056 174.871 270.46 200.963 260.435 207.933" stroke="#E17C00" stroke-width="8.52693" stroke-linecap="round" stroke-linejoin="round"/>
<path d="M225.064 255.05C232.865 246.087 206.703 228.695 166.491 182.111C131.181 141.205 91.9928 100.246 112.444 83.4551C134.086 65.6877 154.016 92.5925 191.114 135.055C221.318 169.627 252.719 215.13 260.435 207.934" stroke="#E17C00" stroke-width="8.52693" stroke-linecap="round" stroke-linejoin="round"/>
<path d="M225.065 255.05C218.561 263.281 186.115 226.606 158.327 198.711C123.245 163.496 100.733 135.803 84.6451 152.206C65.7767 171.443 97.8893 201.797 138.768 242.59C180.2 283.936 207.194 304.313 199.956 312.456" stroke="#E17C00" stroke-width="8.52693" stroke-linecap="round" stroke-linejoin="round"/>
<g opacity="0.5">
<path d="M440.487 243.916C440.229 267.503 440.23 274.802 446.321 311.354C452.413 347.895 440.531 381.688 421.285 405.293C402.468 428.36 366.545 456.183 324.638 455.457C274.759 454.581 213.283 395.794 195.243 379.129C195.243 379.129 195.243 379.129 195.232 379.118C182.07 366.638 158.714 344.29 137.559 325.991C99.805 293.361 73.8517 268.311 92.6271 251.071C93.2262 250.516 93.8369 250.024 94.459 249.575L101.183 246.733L101.723 246.507C101.723 246.507 101.66 246.559 101.566 246.675C100.748 247.601 93.2441 255.978 97.1293 266.53C101.492 278.369 130.703 306.66 144.602 318.929C169.542 340.944 223.789 389.785 229.084 394.796C240.344 405.448 273.143 430.859 310.172 436.744C335.63 440.785 358.272 434.54 375.32 424.83C383.061 420.422 386.701 413.253 391.875 408.056C397.4 402.504 406.056 397.812 411.37 390.318C416.808 382.649 421.835 374.187 425.831 365.39C443.542 326.402 425.086 264.588 430.979 230.167C438.596 185.677 449.406 177.969 455.958 163.828C461.511 151.841 440.984 138.384 440.468 138.067C444.924 138.208 449.15 139.378 452.895 141.863C472.437 154.853 462.358 168.62 453.53 184.824C444.691 201.027 440.746 220.329 440.487 243.916Z" fill="#F09201"/>
</g>
<g opacity="0.3">
<path d="M440.487 243.916C440.229 267.503 440.23 274.802 446.321 311.354C452.413 347.895 440.531 381.688 421.285 405.293C402.468 428.36 366.545 456.183 324.638 455.457C274.759 454.581 213.283 395.794 195.243 379.129C195.243 379.129 195.243 379.129 195.232 379.118C182.07 366.638 158.714 344.29 137.559 325.991C99.805 293.361 73.8517 268.311 92.6271 251.071C93.2262 250.516 93.8369 250.024 94.459 249.575L101.183 246.733L101.723 246.507C101.723 246.507 101.66 246.559 101.566 246.675C100.748 247.601 94.6266 255.298 98.5119 265.851C102.874 277.689 132.875 304.147 146.774 316.416C171.714 338.432 225.993 386.464 231.289 391.476C242.549 402.127 275.174 425.159 308.734 430.788C331.01 434.525 354.103 431.983 369.68 419.812C377.498 413.703 378.894 406.733 383.584 402.021C388.85 396.73 396.573 394.957 405.269 386.441C412.231 379.623 416.9 371.756 421.08 362.554C438.792 323.566 420.171 263.93 426.064 229.509C433.681 185.019 447.467 177.617 454.019 163.477C459.572 151.49 440.984 138.384 440.468 138.067C444.924 138.208 449.15 139.378 452.895 141.863C472.437 154.853 462.358 168.62 453.53 184.824C444.691 201.027 440.746 220.329 440.487 243.916Z" fill="#F09201"/>
</g>
<g opacity="0.15">
<path d="M440.487 243.916C440.229 267.503 440.23 274.802 446.321 311.354C452.413 347.895 440.531 381.688 421.285 405.293C402.468 428.36 366.545 456.183 324.638 455.457C274.759 454.581 213.283 395.794 195.243 379.129C195.243 379.129 195.243 379.129 195.232 379.118C182.07 366.638 158.714 344.29 137.559 325.991C99.805 293.361 73.8517 268.311 92.6271 251.071C93.2262 250.516 93.8369 250.024 94.459 249.575L101.183 246.733L101.723 246.507C101.723 246.507 101.66 246.559 101.566 246.675C100.748 247.601 95.798 253.882 99.6833 264.435C104.046 276.273 133.961 302.891 147.86 315.16C172.8 337.176 228.185 384.479 233.48 389.49C244.74 400.141 269.853 418.576 306.811 424.976C330.153 429.019 352.724 425.373 364.617 413.867C372.511 406.231 367.419 397.519 371.531 393.386C376.395 388.499 385.589 390.527 396.59 383.582C405.498 377.96 411.07 369.515 415.535 359.689C433.246 320.701 415.812 263.835 421.841 229.441C429.074 188.178 446.531 177.101 452.217 162.686C457.07 150.382 440.984 138.384 440.468 138.067C444.924 138.208 449.15 139.378 452.895 141.863C472.437 154.853 462.358 168.62 453.53 184.824C444.691 201.027 440.746 220.329 440.487 243.916Z" fill="#F09201"/>
</g>
<g opacity="0.1">
<path d="M440.487 243.916C440.229 267.503 440.23 274.802 446.321 311.354C452.413 347.895 440.531 381.688 421.285 405.293C402.468 428.36 366.545 456.183 324.638 455.457C274.759 454.581 213.283 395.794 195.243 379.129C195.243 379.129 195.243 379.129 195.232 379.118C182.07 366.638 158.714 344.29 137.559 325.991C99.805 293.361 73.8517 268.311 92.6271 251.071C93.2262 250.516 93.8369 250.024 94.459 249.575L101.183 246.733L101.723 246.507C101.723 246.507 101.66 246.559 101.566 246.675C100.748 247.601 97.2292 252.45 101.114 263.003C105.477 274.841 135.181 301.628 149.08 313.897C174.019 335.913 230.576 382.693 235.871 387.705C247.131 398.356 272.82 414.154 305.76 419.687C336.791 424.899 354.483 413.137 358.033 403.735C360.073 398.331 359.059 394.206 356.445 387.626C353.929 381.294 353.208 375.788 361.001 380.36C369.066 385.091 395.531 383.027 410.803 355.234C431.397 317.754 412.468 266.319 418.361 231.898C425.978 187.408 447.527 177.141 451.064 160.648C453.848 147.664 440.984 138.384 440.468 138.067C444.924 138.208 449.15 139.378 452.895 141.863C472.437 154.853 462.358 168.62 453.53 184.824C444.691 201.027 440.746 220.329 440.487 243.916Z" fill="#F09201"/>
</g>
<g opacity="0.1">
<path d="M440.487 243.916C440.229 267.503 440.23 274.802 446.321 311.354C452.413 347.895 440.531 381.688 421.285 405.293C402.468 428.36 366.545 456.183 324.638 455.457C274.759 454.581 213.283 395.794 195.243 379.129C195.243 379.129 195.243 379.129 195.232 379.118C182.07 366.638 158.714 344.29 137.559 325.991C99.805 293.361 73.8517 268.311 92.6271 251.071C93.2262 250.516 93.8369 250.024 94.459 249.575L101.183 246.733L101.723 246.507C101.723 246.507 101.66 246.559 101.566 246.675C100.748 247.601 97.2292 252.45 101.114 263.003C105.477 274.841 136.323 300.786 150.564 312.655C195.41 350.031 212.699 363.695 239.151 385.393C250.783 394.935 286.4 412.883 304.36 414.783C324.839 416.952 344.334 409.789 349.309 402.62C354.468 395.188 350.11 388.899 346.762 378.549C343.104 367.241 346.768 365.553 353.705 371.366C360.642 377.18 391.685 381.234 406.672 350.882C425.619 312.509 407.659 270.027 415.591 231.396C424.662 187.221 445.97 177.207 449.507 160.714C452.291 147.731 440.984 138.384 440.468 138.067C444.924 138.208 449.15 139.378 452.895 141.863C472.437 154.853 462.358 168.62 453.53 184.824C444.691 201.027 440.746 220.329 440.487 243.916Z" fill="#F09201"/>
</g>
<path d="M199.955 312.455C195.475 319.051 173.775 294.435 150.752 275.159C120.609 249.921 105.278 239.445 92.6229 251.068C73.8487 268.311 104.015 294.14 137.539 324.927C158.15 343.856 182.076 366.644 195.238 379.132" stroke="#E17C00" stroke-width="8.52693" stroke-linecap="round" stroke-linejoin="round"/>
<path d="M323.25 199.669C341.133 221.86 356.206 234.694 365.741 234.538C371.961 234.436 377.719 232.158 381.928 226.01C392.587 210.439 387.652 187.48 394.042 169.609C400.433 151.738 433.34 128.871 452.89 141.864C472.44 154.858 462.359 168.622 453.525 184.825C444.691 201.028 440.741 220.329 440.485 243.917C440.228 267.506 440.235 274.804 446.322 311.35C452.409 347.895 440.532 381.693 421.284 405.288C402.467 428.355 366.54 456.185 324.636 455.454C274.759 454.583 217.778 399.451 195.237 379.133" stroke="#E17C00" stroke-width="8.52693" stroke-linecap="round" stroke-linejoin="round"/>
<g opacity="0.8">
<path d="M403.025 232.255C399.926 224.771 383.194 239.573 363.728 260.278C341.09 284.356 339.823 320.395 348.805 336.476C360.966 358.251 383.508 354.711 387.446 333.084C391.55 310.539 394.55 289.767 397.405 271.445C399.963 255.033 407.747 243.656 403.025 232.255Z" fill="#FFD75D"/>
<path d="M428.854 146.009C416.033 147.86 407.444 160.422 403.196 174.034C399.555 185.703 396.531 205.062 406.915 206.56C415.644 207.818 419.097 194.243 430.696 181.105C446.62 163.07 448.113 143.228 428.854 146.009Z" fill="#FFD75D"/>
<path d="M309.259 220.098C304.869 211.506 275.59 215.598 250.371 248.7C225.153 281.803 207.936 333.869 221.152 343.056C234.368 352.243 240.599 320.65 254.391 296.541C268.341 272.154 281.384 259.337 291.707 249.113C303.506 237.428 313.89 229.159 309.259 220.098Z" fill="#FFD75D"/>
<path d="M295.062 375.939C275.981 371.604 267.988 366.372 257.733 361.978C248.969 358.223 238.393 359.978 245.456 374.447C252.518 388.917 276.938 403.393 291.615 406C315.943 410.321 342.595 404.656 341.227 389.218C340.239 378.084 323.199 382.333 295.062 375.939Z" fill="#FFD75D"/>
</g>
</g>
</g>
<defs>
<clipPath id="clip0_1377_82519">
<rect width="512" height="512" fill="white"/>
</clipPath>
</defs>
</svg>
