<svg width="512" height="512" viewBox="0 0 512 512" fill="none" xmlns="http://www.w3.org/2000/svg">
<g clip-path="url(#clip0_1321_107730)">
<mask id="mask0_1321_107730" style="mask-type:luminance" maskUnits="userSpaceOnUse" x="0" y="0" width="512" height="512">
<path d="M512 0H0V512H512V0Z" fill="white"/>
</mask>
<g mask="url(#mask0_1321_107730)">
<mask id="mask1_1321_107730" style="mask-type:luminance" maskUnits="userSpaceOnUse" x="-15" y="-54" width="528" height="528">
<path d="M512.681 -53.6802H-14.6793V473.68H512.681V-53.6802Z" fill="white"/>
</mask>
<g mask="url(#mask1_1321_107730)">
<path d="M66.9203 252.397L75.0371 263.418L85.5839 247.595L98.6768 265.815L121.856 236.866L155.561 271.633L219.747 258.761L272.65 271.633L304.353 254.25L364.668 264.665L401.195 244.502L420.772 258.761L437.264 252.896C437.264 252.896 442.798 320.561 387.91 348.813C333.02 377.064 69.8642 379.708 66.9203 252.397Z" fill="#967439"/>
<path d="M66.9203 252.397L75.0371 263.418L85.5839 247.595L98.6768 265.815L121.856 236.866L155.561 271.633L219.747 258.761L272.65 271.633L304.353 254.25L364.668 264.665L401.195 244.502L420.772 258.761L437.264 252.896C437.264 252.896 442.798 320.561 387.91 348.813C333.02 377.064 69.8642 379.708 66.9203 252.397Z" stroke="#68502C" stroke-width="8.1987" stroke-linecap="round" stroke-linejoin="round"/>
<path d="M328.674 204.577C328.674 204.577 346.485 183.763 377.696 191.479C422.147 202.467 453.598 239.614 451.372 251.558C449.417 262.047 401.938 249.99 368.619 262.217C335.3 274.446 307.13 225.038 328.674 204.577Z" fill="#FFAA12"/>
<path d="M332.876 251.944C327.39 240.886 327.124 227.806 335.568 219.788C335.568 219.788 351.17 201.545 378.528 208.306C412.469 216.698 437.766 242.499 442.413 255.917C447.591 255.376 450.885 254.161 451.369 251.558C453.598 239.615 422.145 202.464 377.699 191.472C346.485 183.76 328.668 204.572 328.668 204.572C316.11 216.509 320.452 238.298 332.876 251.944Z" fill="#FBCA1D"/>
<path d="M400.053 210.021C400.053 210.021 372.675 194.389 352.534 202.506" stroke="#FDE63B" stroke-width="11.33" stroke-linecap="round" stroke-linejoin="round"/>
<path d="M328.674 204.577C328.674 204.577 346.485 183.763 377.696 191.479C422.147 202.467 453.598 239.614 451.372 251.558C449.417 262.047 401.938 249.99 368.619 262.217C335.3 274.446 307.13 225.038 328.674 204.577Z" stroke="#CE7500" stroke-width="8.24" stroke-miterlimit="10"/>
<path d="M151.975 187.17C151.975 187.17 131.152 169.37 101.515 181.834C59.3077 199.586 33.9998 241.162 38.0524 252.616C41.6111 262.675 86.6447 243.398 121.457 250.31C156.27 257.221 176.433 204.041 151.975 187.17Z" fill="#FFAA12"/>
<path d="M155.173 234.616C158.876 222.841 157.111 209.879 147.524 203.268C147.524 203.268 129.282 187.666 103.304 198.59C71.0756 212.146 50.0867 241.557 47.578 255.535C42.3786 255.803 38.9362 255.114 38.0543 252.618C33.9987 241.165 59.3092 199.584 101.512 181.831C131.151 169.369 151.981 187.166 151.981 187.166C166.239 197.011 165.329 219.209 155.173 234.616Z" fill="#FBCA1D"/>
<path d="M111.974 189.398C111.974 189.398 87.3871 194.719 66.4432 218.197" stroke="#FDE63B" stroke-width="11.33" stroke-linecap="round" stroke-linejoin="round"/>
<path d="M153.45 188.74C153.45 188.74 132.626 170.94 102.989 183.404C60.7823 201.156 35.4745 242.733 39.527 254.186C43.0857 264.245 88.1194 244.969 122.932 251.88C157.744 258.792 177.908 205.611 153.45 188.74Z" stroke="#CE7500" stroke-width="8.24" stroke-miterlimit="10"/>
<path d="M117.016 301.347C117.016 352.269 173.462 401.701 243.092 401.701C312.722 401.701 369.168 352.269 369.168 301.347C369.168 231.785 326.782 150.437 243.092 150.437C160.452 150.437 117.016 232.814 117.016 301.347Z" fill="#FBCA1D"/>
<path d="M153.327 240.924C153.327 267.099 190.742 285.241 243.093 285.241C295.443 285.241 332.856 267.099 332.856 240.924C332.856 211.502 292.529 184.757 243.093 184.757C193.728 184.757 153.327 210.354 153.327 240.924Z" fill="#FBDF39"/>
<path d="M150.236 198.617C162.535 223.635 197.049 245.492 243.047 245.492C289.353 245.492 327.895 228.501 339.919 203.237C313.541 164.917 285.506 164.917 243.047 164.917C201.006 164.917 175.922 172.616 150.236 198.617Z" fill="#FFA912"/>
<path d="M117.016 301.347C117.016 352.269 173.462 401.701 243.092 401.701C312.722 401.701 369.168 352.269 369.168 301.347C369.168 231.785 326.782 150.438 243.092 150.438C160.452 150.438 117.016 232.814 117.016 301.347Z" stroke="#CE7500" stroke-width="8.24" stroke-miterlimit="10"/>
<path d="M154.512 148.91C150.561 188.145 189.371 226.518 241.483 231.765C293.594 237.013 339.276 207.146 343.226 167.911C348.623 114.313 322.825 52.2875 260.189 45.9798C198.341 39.7526 159.829 96.1047 154.512 148.91Z" fill="#FBCA1D"/>
<path d="M171.812 136.304C169.08 163.436 205.807 186.765 247.117 191.672C299.488 197.892 327.149 178.078 329.881 150.946C333.613 113.885 309.094 61.3393 259.344 56.33C210.219 51.3835 175.489 99.79 171.812 136.304Z" fill="#FDE63B"/>
<path d="M195.996 91.2794C194.306 108.055 219.651 124.344 252.604 127.663C285.558 130.98 313.641 120.071 315.33 103.295C317.019 86.5198 292.243 59.9328 259.272 56.8001C225.303 53.5717 197.685 74.5039 195.996 91.2794Z" fill="#FCFC9D"/>
<path d="M171.18 195.964C159.375 183.511 153.031 163.616 154.512 148.909C159.829 96.1038 198.342 39.7517 260.19 45.979C322.825 52.2863 348.622 114.313 343.226 167.911C341.842 181.659 335.334 194.257 325.22 204.597C325.22 204.597 323.912 205.986 321.618 208.052" stroke="#CE7500" stroke-width="8.24" stroke-linecap="round" stroke-linejoin="round"/>
<path d="M188.549 142.156C187.372 153.849 193.603 164.052 202.466 164.944C211.328 165.837 219.469 157.081 220.646 145.389C221.823 133.696 215.594 123.493 206.73 122.601C197.867 121.708 189.727 130.463 188.549 142.156Z" fill="#111111"/>
<path d="M192.826 147.279C192.399 151.52 196.271 160.184 202.88 160.849C209.489 161.515 215.009 153.798 215.436 149.557C216.121 142.753 210.778 148.695 204.17 148.029C197.561 147.364 193.542 140.166 192.826 147.279Z" fill="#474848"/>
<path d="M196.833 132.432C196.489 135.847 200.712 133.514 205.582 134.004C210.451 134.494 214.114 137.698 214.466 134.207C214.685 132.032 211.168 127.354 206.299 126.864C201.43 126.374 197.052 130.258 196.833 132.432Z" fill="#F5F5F5"/>
<path d="M270.953 150.452C269.775 162.146 276.007 172.349 284.87 173.241C293.733 174.134 301.873 165.378 303.05 153.686C304.228 141.993 297.996 131.789 289.133 130.897C280.269 130.004 272.13 138.759 270.953 150.452Z" fill="#111111"/>
<path d="M275.228 155.576C274.801 159.817 278.673 168.48 285.281 169.146C291.89 169.811 297.41 162.094 297.837 157.854C298.522 151.049 293.181 156.992 286.572 156.326C279.963 155.661 275.943 148.463 275.228 155.576Z" fill="#474848"/>
<path d="M279.236 140.728C278.892 144.143 283.116 141.81 287.985 142.3C292.854 142.79 296.519 145.995 296.871 142.504C297.09 140.328 293.572 135.65 288.702 135.16C283.833 134.67 279.456 138.554 279.236 140.728Z" fill="#F5F5F5"/>
<path d="M259.742 169.978C259.742 169.978 263.06 179.526 258.711 191.999C254.93 202.84 245.51 220.705 231.409 217.931C212.61 214.234 212.648 186.128 231.516 161.147L259.742 169.978Z" fill="#FBCA1D"/>
<path d="M223.812 177.967C223.141 183.849 224.258 195.889 227.34 201.062C230.174 205.818 233.939 212.382 237.448 212.685C240.739 212.969 245.218 210.584 251.765 202.338C255.784 197.275 258.977 187.342 259.687 181.128C260.977 169.848 253.545 155.515 243.977 154.689C235.198 153.93 226.637 164.665 224.297 175.161C224.084 176.101 223.919 177.036 223.812 177.967Z" fill="#943903"/>
<path d="M225.24 175.354C237.618 179.441 247.187 176.268 250.373 175.257C250.075 177.844 262.032 175.223 258.418 182.561C254.804 189.898 244.266 200.073 241.318 203.901C238.618 207.406 237.298 206.906 235.883 203.233C235.096 201.19 223.3 178.899 225.24 175.354Z" fill="#9B0B0B"/>
<path d="M225.24 175.354C237.618 179.441 247.187 176.268 250.373 175.257C250.075 177.844 262.032 175.223 258.418 182.561C254.804 189.898 244.266 200.073 241.318 203.901C238.618 207.406 237.298 206.906 235.883 203.233C235.096 201.19 223.3 178.899 225.24 175.354Z" stroke="#CE7500" stroke-width="3.09"/>
<path d="M226.149 179.369L240.041 182.599C241.883 183.105 243.133 183.187 245.408 183.14L258.643 182.652C260.164 181.268 261.016 179.374 260.964 177.396C260.69 166.733 254.25 154.829 245.13 153.91C235.897 152.98 227.112 163.63 224.851 174.157C224.558 175.968 225.021 177.827 226.149 179.369Z" fill="#F78D15"/>
<path d="M236.836 155.983C239.157 167.11 240.867 171.349 240.112 182.501L240.12 182.519C241.446 182.908 243.497 183.21 245.473 183.04C248.895 171.188 249.918 168.198 252.946 157.613C250.709 155.499 248.087 154.106 245.192 153.814C242.297 153.523 239.459 154.365 236.836 155.983Z" fill="#F1B623"/>
<path d="M66.2467 250.98C66.2467 382.789 151.088 462.079 253.202 462.079C354.688 462.079 439.107 383.768 440.137 253.411L418.713 274.114L406.003 258.273L393.282 285.29L377.935 303.83L358.324 278.615L350.743 285.29L324.643 263.577L307.473 259.869L297.636 278.615V299.061L279.395 287.937L266.685 299.596L262.441 314.428L227.483 271.467L206.347 283.92C206.347 283.92 203.649 262.485 189.878 245.017L154.384 257.212L144.846 282.643L123.134 300.122L111.021 268.336L99.8247 276.38L93.9949 295.888L66.2467 250.98Z" fill="#EBE9E0"/>
<path d="M66.2467 250.98C66.2467 382.79 151.088 462.079 253.202 462.079C354.688 462.079 439.107 383.768 440.137 253.411L429.62 265.565C419.135 380.482 342.112 444.476 253.202 444.476C166.105 444.476 90.3178 383.222 77.4943 272.518L66.2467 250.98Z" fill="#FBF5E6"/>
<g opacity="0.32">
<path d="M66.2471 250.98C66.2471 382.79 151.088 462.079 253.202 462.079C355.011 462.079 426.037 386.024 437.871 284.445C410.535 348.068 353.174 384.252 287.924 384.252C223.611 384.252 166.971 349.109 139.181 287.206L123.134 300.122L111.021 268.336L99.8251 276.38L93.9953 295.888L66.2471 250.98Z" fill="#B7B49E"/>
</g>
<path d="M184.048 264.309C198.19 281.777 200.734 305.364 200.734 305.364L224.723 291.202L266.541 340.065L273.74 315.551L282.619 307.486L306.937 320.042V288.472L314.106 277.544L325.56 282.282L324.643 268.727L307.473 265.019L297.636 283.765V304.211L279.395 293.087L266.685 304.746L262.441 319.578L227.483 276.617L206.347 289.07C206.347 289.07 203.649 267.636 189.878 250.167L184.048 264.309Z" fill="#FBF5E6"/>
<path d="M66.2467 256.13C66.2467 263.979 66.5454 271.642 67.1428 279.11L89.6586 314.593L100.35 310.926L107.148 290.131L119.59 321.917L150.686 299.978L160.481 274.547L184.048 264.309C198.19 281.777 200.734 305.364 200.734 305.364L224.723 291.202L266.541 340.065L273.74 315.551L282.619 307.486L306.937 320.042V288.472L314.106 277.544L325.56 282.282L350.31 302.965L357.067 297.32L377.214 322.535L399.163 298.845L408.104 280.068L417.858 292.943L439.601 274.248C439.91 269.108 440.096 263.876 440.137 258.561L418.713 279.264L406.003 263.423L393.282 290.44L377.935 308.98L358.324 283.765L350.743 290.44L324.643 268.727L307.473 265.019L297.636 283.765V304.211L279.395 293.087L266.685 304.746L262.441 319.578L227.483 276.617L206.347 289.07C206.347 289.07 203.649 267.636 189.878 250.167L154.384 262.362L144.846 287.793L123.134 305.272L111.021 273.486L99.8247 281.53L93.9949 301.038L66.2467 256.13Z" fill="#FBF5E6"/>
<path d="M66.2447 250.982C66.2447 382.788 151.085 464.138 253.2 464.138C355.314 464.138 440.155 382.788 440.155 250.982" stroke="#B7B49E" stroke-width="8.24" stroke-linecap="round" stroke-linejoin="round"/>
<path d="M439.897 249.695C439.897 250.512 418.456 272.828 418.456 272.828L405.746 256.986L393.025 284.003L377.678 302.543L358.067 277.329L350.486 284.003L324.386 262.291L307.216 258.583L297.379 277.329V297.774L279.138 286.65L266.428 298.31L262.184 313.142L227.227 270.181L206.092 282.633C206.092 282.633 203.393 261.199 189.621 243.73L154.127 255.925L144.589 281.356L122.878 298.835L110.764 267.049L99.568 275.094L93.7382 294.602L65.9889 249.692" stroke="#B7B49E" stroke-width="8.24" stroke-linecap="round" stroke-linejoin="round"/>
<path d="M256.974 313.629L271.659 344.96L285.597 349.914L299.244 362.003L298.379 368.357L292.863 369.339L281.136 356.557L275.047 353.632L272.013 366.878L266.219 373.915L260.437 376.174L260.377 367.342L264.238 359.252L265.672 347.105L250.329 315.419L256.974 313.629Z" fill="#FCF5E6"/>
<path d="M263.987 310.308L276.058 342.88L269.9 362.798L265.039 369.154" stroke="#B7B49E" stroke-width="6.42684" stroke-linecap="round" stroke-linejoin="round"/>
<path d="M257.988 308.699L272.891 342.301L269.899 362.798L265.672 369.271" stroke="#B7B49E" stroke-width="6.42684" stroke-linecap="round" stroke-linejoin="round"/>
<path d="M276.058 342.88L287.731 347.627L297.604 359.342" stroke="#B7B49E" stroke-width="5.2736" stroke-linecap="round" stroke-linejoin="round"/>
<path d="M276.521 340.348L288.194 345.094L297.604 359.342" stroke="#B7B49E" stroke-width="5.2736" stroke-linecap="round" stroke-linejoin="round"/>
</g>
</g>
</g>
<defs>
<clipPath id="clip0_1321_107730">
<rect width="512" height="512" fill="white"/>
</clipPath>
</defs>
</svg>
