<svg width="512" height="512" viewBox="0 0 512 512" fill="none" xmlns="http://www.w3.org/2000/svg">
<g clip-path="url(#clip0_1936_131623)">
<mask id="mask0_1936_131623" style="mask-type:luminance" maskUnits="userSpaceOnUse" x="0" y="0" width="512" height="512">
<path d="M512 0H0V512H512V0Z" fill="white"/>
</mask>
<g mask="url(#mask0_1936_131623)">
<path d="M177.679 465.583C166.759 465.723 168.299 471.883 174.459 471.883C180.619 471.883 291.919 472.231 297.099 472.303C307.179 472.443 306.479 466.143 296.399 466.423C293.737 466.497 188.599 465.443 177.679 465.583Z" fill="#404040"/>
<path d="M212.991 422.831L198 412.837L228.936 363.586L245.044 374.453L212.991 422.831Z" fill="url(#paint0_linear_1936_131623)"/>
<path d="M212.991 422.831L198 412.837L228.936 363.586L245.044 374.453L212.991 422.831Z" stroke="#BDBDBE" stroke-width="4.54274" stroke-linecap="round" stroke-linejoin="round"/>
<path d="M220.373 414.668C215.018 407.564 204.459 399.137 204.459 399.137L227.233 362.875L247.458 375.729C247.458 375.729 222.825 411.255 220.373 414.668Z" fill="#2D2D2D" fill-opacity="0.4"/>
<path d="M217.15 363.323C213.076 374.715 207.765 380.088 202.218 390.23C207.694 396.681 222.588 407.017 230.231 409.154C258.767 375.796 287.936 342.69 314.882 309.442C304.475 288.734 296.395 263.804 292.79 249.248C290.055 253.638 285.901 257.752 282.659 261.227C274.99 269.45 247.249 278.684 235.688 294.068C219.792 315.218 225.126 341.021 217.15 363.323Z" fill="url(#paint1_radial_1936_131623)"/>
<mask id="mask1_1936_131623" style="mask-type:luminance" maskUnits="userSpaceOnUse" x="202" y="249" width="113" height="161">
<path d="M217.15 363.323C213.076 374.715 207.765 380.088 202.218 390.23C207.694 396.681 222.588 407.017 230.231 409.154C258.767 375.796 287.936 342.69 314.882 309.442C304.475 288.734 296.395 263.804 292.79 249.248C290.055 253.638 285.901 257.752 282.659 261.227C274.99 269.45 247.249 278.684 235.688 294.068C219.792 315.218 225.126 341.021 217.15 363.323Z" fill="url(#paint2_linear_1936_131623)"/>
</mask>
<g mask="url(#mask1_1936_131623)">
<path d="M217.15 363.323C213.076 374.715 207.765 380.088 202.218 390.23C207.694 396.681 222.588 407.017 230.231 409.154C258.767 375.796 287.936 342.69 314.882 309.442C304.475 288.734 296.395 263.804 292.79 249.248C290.055 253.638 285.901 257.752 282.659 261.227C274.99 269.45 247.249 278.684 235.688 294.068C219.792 315.218 225.126 341.021 217.15 363.323Z" fill="url(#paint3_linear_1936_131623)" fill-opacity="0.5"/>
</g>
<path d="M217.15 363.323C213.076 374.715 207.765 380.088 202.218 390.23C207.694 396.681 222.588 407.017 230.231 409.154C258.767 375.796 287.936 342.69 314.882 309.442C304.475 288.734 296.395 263.804 292.79 249.248C290.055 253.638 285.901 257.752 282.659 261.227C274.99 269.45 247.249 278.684 235.688 294.068C219.792 315.218 225.126 341.021 217.15 363.323Z" stroke="#6A6969" stroke-width="6.67643" stroke-linejoin="round"/>
<path d="M241.165 396.71L211.695 375.152C208.76 380.145 205.521 384.521 202.199 390.618C203.798 392.492 206.197 394.693 208.982 396.926C213.53 400.57 219.11 404.295 223.927 406.805C226.289 408.036 228.468 408.976 230.252 409.47C233.881 405.213 237.521 400.96 241.165 396.71Z" fill="url(#paint4_linear_1936_131623)"/>
<path d="M241.361 396.48C266.235 367.477 291.309 338.623 314.698 309.667C304.25 288.997 296.119 264.103 292.485 249.566C289.759 253.957 285.612 258.077 282.377 261.557C274.725 269.789 247.003 279.071 235.473 294.466C219.62 315.631 225.007 341.401 217.076 363.703C215.556 367.975 213.862 371.401 212.045 374.551" stroke="#2D2D2D" stroke-width="6.81411" stroke-linejoin="round"/>
<path d="M210.637 374.379L242.207 397.474" stroke="#2D2D2D" stroke-width="4.54274" stroke-linecap="round" stroke-linejoin="round"/>
<path d="M246.051 430.417C239.623 431.73 226.398 429.51 231.514 419.628C235.319 412.28 241.94 400.847 248.095 404.239C255.153 408.13 245.18 419.515 246.051 430.417Z" fill="url(#paint5_linear_1936_131623)"/>
<path d="M246.051 430.417C239.623 431.73 226.398 429.51 231.514 419.628C235.319 412.28 241.94 400.847 248.095 404.239C255.153 408.13 245.18 419.515 246.051 430.417Z" stroke="#8F9090" stroke-width="4.54274" stroke-linecap="round" stroke-linejoin="round"/>
<path d="M187.439 422.608C189.451 419.038 193.912 408.553 204.477 410.707C212.458 412.334 217.74 420.72 221.056 427.945L187.439 422.608Z" fill="#3D3E3E"/>
<path d="M187.439 422.608C189.451 419.038 193.912 408.553 204.477 410.707C212.458 412.334 217.74 420.72 221.056 427.945" stroke="#8F9090" stroke-width="7.26838" stroke-miterlimit="22.93" stroke-linecap="round"/>
<path d="M228.358 420.246C241.425 435.502 272.144 436.723 288.766 441.055C303.521 444.901 309.228 450.721 307.378 461.482L289.971 464.378L205.772 465.059L171.365 450.523L228.358 420.246Z" fill="url(#paint6_linear_1936_131623)"/>
<path d="M186.872 410.859C182.271 410.554 169.808 430.834 172.754 454.041C174.726 469.582 222.71 463.452 236.427 463.452L186.872 410.859Z" fill="url(#paint7_linear_1936_131623)"/>
<path d="M186.872 410.859C182.271 410.554 169.808 430.834 172.754 454.041C174.726 469.582 222.71 463.452 236.427 463.452" stroke="#AD0D08" stroke-width="7.26838" stroke-miterlimit="22.93" stroke-linecap="round"/>
<path d="M176.15 417.089C179.616 414.875 184.385 417.791 191.403 424.139C195.803 428.119 202.65 437.503 204.61 442.73C212.3 444.65 220.613 452.675 220.438 456.355C238.032 459.493 267.003 455.837 278.704 453.762C250.216 452.451 227.292 438.187 215.431 425.558C206.657 427.708 189.62 419.218 185.416 407.383C183.128 407.39 178.915 411.776 176.15 417.089Z" fill="#A6A6A6"/>
<path d="M176.15 417.089C179.616 414.875 184.385 417.791 191.403 424.139C195.803 428.119 202.65 437.503 204.61 442.73C212.3 444.65 220.613 452.675 220.438 456.355C238.032 459.493 267.003 455.837 278.704 453.762C250.216 452.451 227.292 438.187 215.431 425.558C206.657 427.708 189.62 419.218 185.416 407.383C183.128 407.39 178.915 411.776 176.15 417.089Z" fill="url(#paint8_linear_1936_131623)"/>
<path d="M262.228 461.524C264.7 462.079 229.145 461.415 226.483 461.658C220.974 451.851 201.118 439.186 190.562 444.172C186.561 446.061 185.761 452.002 186.714 458.231C185.065 458.231 181.131 458.553 180.029 458.246C178.707 451.6 180.708 440.023 187.649 436.848C208.643 427.244 230.927 454.49 262.228 461.524Z" fill="#C5C5C5"/>
<path d="M186.742 408.602C198.005 422.276 207.755 433.995 228.365 418.823" stroke="#AD0D08" stroke-width="4.54274" stroke-miterlimit="22.93" stroke-linecap="round"/>
<path d="M178.141 470.006C217.053 470.006 253.51 470.029 292.419 469.666C301.745 469.578 310.652 466.201 309.909 460.182C303.871 462.983 294.44 464.913 276.878 465.406C223.626 466.903 193.815 463.922 181.236 461.063C173.807 459.374 170.363 452.881 168.722 450.629C164.646 454.535 162.995 469.895 178.141 470.006Z" fill="url(#paint9_linear_1936_131623)"/>
<path d="M178.141 470.006C217.053 470.006 253.51 470.029 292.419 469.666C301.745 469.578 310.652 466.201 309.909 460.182C303.871 462.983 294.44 464.913 276.878 465.406C223.626 466.903 193.815 463.922 181.236 461.063C173.807 459.374 170.363 452.881 168.722 450.629C164.646 454.535 162.995 469.895 178.141 470.006Z" stroke="#747474" stroke-width="7.26838" stroke-linecap="round" stroke-linejoin="round"/>
<path d="M178.723 466.554C217.635 466.554 254.091 466.577 293.001 466.213C302.327 466.126 311.503 465.406 310.59 458.422C304.552 461.223 294.391 463.705 276.821 463.646C260.298 463.591 245.592 461.931 225.362 456.393C213.551 453.16 200.727 452.941 183.621 453.88C176.011 454.298 169.411 449.928 167.771 447.676C163.695 451.582 163.577 466.442 178.723 466.554Z" fill="url(#paint10_linear_1936_131623)"/>
<path d="M243.064 461.199C242.952 454.59 251.243 450.737 257.442 451.215C271.11 452.268 294.633 453.196 308.593 448.906C310.453 450.393 311.653 456.815 311.246 459.78C295.559 465.855 250.513 466.141 243.064 461.199Z" fill="#E2000F"/>
<path d="M243.064 461.199C242.952 454.59 251.243 450.737 257.442 451.215C271.11 452.268 294.633 453.196 308.593 448.906C310.453 450.393 311.653 456.815 311.246 459.78C295.559 465.855 250.513 466.141 243.064 461.199Z" fill="url(#paint11_linear_1936_131623)"/>
<path d="M228.357 420.246C241.424 435.502 271.149 436.723 287.771 441.055C300.522 444.379 307.446 449.071 307.735 457.321" stroke="#C90903" stroke-width="7.1957" stroke-miterlimit="22.93" stroke-linecap="round"/>
<path d="M310.59 458.424C305.223 462.475 294.503 464.615 276.933 464.556C260.41 464.5 245.593 461.932 225.363 456.394C213.552 453.161 200.727 452.942 183.621 453.881C176.011 454.299 170.866 450.838 168.666 448.812" stroke="#DBDBDC" stroke-width="4.54274" stroke-linecap="round" stroke-linejoin="round"/>
<path d="M240.658 424.451C246.058 428.087 252.042 428.714 258.432 430.763C262.416 432.042 276.093 434.876 281.146 435.864C281.166 437.452 280.312 440.285 279.309 441.202C267.984 440.788 250.527 438.197 242.589 429.78C240.13 427.173 239.427 423.622 240.658 424.451Z" fill="#8F9090"/>
<path d="M282.39 436.009L279.21 443.05L273.417 433.623L265.695 440.665L261.152 431.58L251.271 436.122L249.795 428.172" stroke="#BDBDBE" stroke-width="4.57908" stroke-linecap="round" stroke-linejoin="round"/>
<path d="M255.25 428.371C255.137 436.623 255.818 445.673 257.749 453.016" stroke="#BDBDBE" stroke-width="4.57908" stroke-miterlimit="22.93" stroke-linecap="round"/>
<path d="M252.403 427.555C248.131 440.17 241.832 447.628 237.346 445.85C232.81 444.052 238.28 430.962 249.905 426.078" stroke="#BDBDBE" stroke-width="4.57908" stroke-miterlimit="22.93" stroke-linecap="round"/>
<path d="M251.153 428.328C251.424 425.854 249.889 421.781 244.045 421.452C238.061 421.114 236.007 426.936 248.995 428.234" stroke="#BDBDBE" stroke-width="4.57908" stroke-miterlimit="22.93" stroke-linecap="round"/>
<path d="M257.543 169.398L301.2 240.134" stroke="#2D2D2D" stroke-width="21.8051" stroke-miterlimit="22.93"/>
<path d="M177.751 46.6823C203.984 29.4162 235.025 44.7834 249.757 67.5879C270.677 99.9685 288.589 145.355 300.933 182.317L294.193 201.685L269.698 217.347L248.85 214.667C216.866 185.205 184.478 151.108 165.963 119.608C153.472 98.3577 149.052 65.5719 177.751 46.6823Z" stroke="#6A6969" stroke-width="6.35983" stroke-linejoin="round"/>
<path d="M177.088 46.9591C203.177 29.4478 234.343 44.5868 249.263 67.3084C270.448 99.5717 288.733 144.886 301.382 181.808L294.801 201.265L270.436 217.155L249.566 214.639C217.341 185.391 184.675 151.505 165.901 120.105C153.235 98.9222 148.546 66.1171 177.088 46.9591Z" fill="url(#paint12_radial_1936_131623)"/>
<path d="M177.088 46.9591C203.177 29.4478 234.343 44.5868 249.263 67.3084C270.448 99.5717 288.733 144.886 301.382 181.808L294.801 201.265L270.436 217.155L249.566 214.639C217.341 185.391 184.675 151.505 165.901 120.105C153.235 98.9222 148.546 66.1171 177.088 46.9591Z" fill="url(#paint13_linear_1936_131623)" fill-opacity="0.5"/>
<path d="M269.698 217.348L282.181 209.366L294.193 201.685L300.933 182.316L300.92 182.325L273.788 199.177C273.803 199.2 273.816 199.223 273.831 199.245L248.885 214.644L248.85 214.667L269.698 217.348Z" fill="url(#paint14_radial_1936_131623)"/>
<path d="M247.65 215.408L302.131 181.57" stroke="#2D2D2D" stroke-width="4.54274" stroke-miterlimit="22.93" stroke-linecap="round"/>
<path d="M273.926 224.038L297.993 207.729C299.636 206.616 301.891 207.05 303.005 208.692L307.978 216.032C309.092 217.675 308.658 219.93 307.015 221.044L282.948 237.352C281.305 238.465 279.05 238.032 277.936 236.389L272.963 229.049C271.849 227.406 272.283 225.152 273.926 224.038Z" stroke="#595758" stroke-width="2.72564" stroke-linecap="round" stroke-linejoin="round"/>
<path d="M273.926 224.038L297.993 207.729C299.636 206.616 301.891 207.05 303.005 208.692L307.978 216.032C309.092 217.675 308.658 219.93 307.015 221.044L282.948 237.352C281.305 238.465 279.05 238.032 277.936 236.389L272.963 229.049C271.849 227.406 272.283 225.152 273.926 224.038Z" fill="url(#paint15_linear_1936_131623)"/>
<path d="M248.848 214.666C225.269 194.062 184.478 151.109 165.961 119.608C153.47 98.356 149.051 65.572 177.75 46.6824C203.982 29.4164 235.024 44.7827 249.757 67.5881C270.676 99.9696 288.587 145.355 300.932 182.317" stroke="#2D2D2D" stroke-width="7.26838" stroke-linejoin="round"/>
<g opacity="0.5">
<path d="M242.639 157.195C246.751 153.809 252.044 151.816 257.787 151.922C269.651 152.141 279.268 161.242 280.412 172.768C280.475 172.145 280.512 171.516 280.524 170.88C280.759 158.087 270.58 147.525 257.787 147.289C251.02 147.165 244.877 149.954 240.557 154.503C236.709 158.554 234.306 164 234.195 170.026C234.178 170.955 234.216 171.871 234.307 172.772C234.93 166.498 238.047 160.977 242.639 157.195Z" fill="white"/>
</g>
<path d="M257.787 147.805C270.58 148.04 280.759 158.603 280.524 171.396C280.288 184.189 269.726 194.369 256.933 194.133C244.139 193.898 233.96 183.335 234.195 170.542C234.432 157.749 244.993 147.569 257.787 147.805Z" stroke="#353434" stroke-width="2.72564" stroke-miterlimit="22.93"/>
<g opacity="0.6">
<path d="M277.38 265.295C274.82 282.32 287.071 292.218 300.776 303.841C302.305 305.137 294.843 319.434 301.467 326.366C313.002 315.928 326.007 298.313 316.383 281.914C311.738 273.998 308.83 276.339 301.617 271.257C296.805 267.866 287.617 257.955 281.989 257.973C279.613 257.98 277.918 261.719 277.38 265.295Z" fill="#2D2D2D"/>
</g>
<path d="M338.292 237.392C354.511 250.686 354.219 270.251 341.725 285.753C331.711 298.177 316.936 314.262 306.104 325.533C301.45 316.651 310.116 304.126 306.756 301.564C302.437 298.271 298.431 294.585 294.233 291.146C279.389 278.98 277.219 257.083 289.386 242.239C301.552 227.395 324.549 226.128 338.292 237.392Z" fill="url(#paint16_linear_1936_131623)"/>
<path d="M338.292 237.392C354.511 250.686 354.219 270.251 341.725 285.753C331.711 298.177 316.936 314.262 306.104 325.533C301.45 316.651 310.116 304.126 306.756 301.564C302.437 298.271 298.431 294.585 294.233 291.146C279.389 278.98 277.219 257.083 289.386 242.239C301.552 227.395 324.549 226.128 338.292 237.392Z" stroke="#747474" stroke-width="4.45188" stroke-linecap="round" stroke-linejoin="round"/>
<path d="M315.993 236.062C331.418 236.062 343.751 248.118 343.924 263.993C344.126 282.561 323.692 287.702 313.582 308.029C312.845 300.538 313.536 298.303 310.315 295.559C306.885 292.637 302.604 289.351 297.705 285.103C291.799 279.983 288.062 272.424 288.062 263.993C288.062 248.568 300.568 236.062 315.993 236.062Z" fill="url(#paint17_linear_1936_131623)"/>
<g opacity="0.4">
<path d="M315.992 236.062C326.456 236.062 335.201 241.621 339.998 250.145C334.36 243.653 325.585 239.481 315.729 239.481C306.326 239.481 297.908 243.28 292.258 249.266C297.187 241.34 305.972 236.062 315.992 236.062Z" fill="#666767"/>
</g>
<path d="M315.992 282.122C325.978 282.122 334.122 273.977 334.122 263.992C334.122 254.007 325.978 245.863 315.992 245.863C306.007 245.863 297.863 254.007 297.863 263.992C297.863 273.977 306.007 282.122 315.992 282.122Z" fill="#DBDBDC"/>
<path d="M315.992 282.122C325.978 282.122 334.122 273.977 334.122 263.992C334.122 254.007 325.978 245.863 315.992 245.863C306.007 245.863 297.863 254.007 297.863 263.992C297.863 273.977 306.007 282.122 315.992 282.122Z" stroke="#959696" stroke-width="2.72564" stroke-miterlimit="22.93"/>
<path d="M315.993 276.541C322.904 276.541 328.54 270.905 328.54 263.995C328.54 257.085 322.904 251.449 315.993 251.449C309.083 251.449 303.447 257.085 303.447 263.995C303.447 270.905 309.083 276.541 315.993 276.541Z" fill="#5A5B5B"/>
<path d="M305.935 325.197C301.667 316.339 310.073 304.095 306.756 301.565C302.437 298.272 298.431 294.586 294.233 291.147C282.292 281.36 278.552 265.276 283.88 251.633" stroke="#2D2D2D" stroke-opacity="0.6" stroke-width="5.45128" stroke-linecap="round" stroke-linejoin="round"/>
<path d="M289.387 242.239C301.553 227.395 324.55 226.128 338.293 237.392C350.648 247.52 353.422 261.286 348.519 274.124" stroke="#DBDBDC" stroke-width="5.45128" stroke-linecap="round" stroke-linejoin="round"/>
<path d="M334.029 234.457C335.147 235.098 336.225 235.806 337.257 236.581" stroke="white" stroke-width="5.45128" stroke-linecap="round" stroke-linejoin="round"/>
<path d="M321.247 254.884C320.869 256.086 319.589 256.754 318.387 256.376C317.185 255.998 316.517 254.718 316.895 253.515C317.273 252.313 318.553 251.646 319.755 252.024C320.957 252.402 321.625 253.682 321.247 254.884Z" fill="#2D2D2D"/>
<path d="M315.09 274.466C314.712 275.668 313.432 276.336 312.23 275.958C311.028 275.58 310.361 274.3 310.739 273.098C311.116 271.896 312.397 271.228 313.599 271.606C314.801 271.984 315.468 273.264 315.09 274.466Z" fill="#2D2D2D"/>
</g>
</g>
<defs>
<linearGradient id="paint0_linear_1936_131623" x1="201.748" y1="406.194" x2="221.717" y2="421.549" gradientUnits="userSpaceOnUse">
<stop stop-color="white"/>
<stop offset="0.5" stop-color="#8A8A8A"/>
<stop offset="1" stop-color="#151515"/>
</linearGradient>
<radialGradient id="paint1_radial_1936_131623" cx="0" cy="0" r="1" gradientUnits="userSpaceOnUse" gradientTransform="translate(257.28 308.662) rotate(34.6) scale(35.3508 53.0262)">
<stop offset="0.1" stop-color="#8F9090"/>
<stop offset="0.55" stop-color="#777777"/>
<stop offset="1" stop-color="#5E5E5E"/>
</radialGradient>
<linearGradient id="paint2_linear_1936_131623" x1="240.576" y1="342.245" x2="257.471" y2="359.271" gradientUnits="userSpaceOnUse">
<stop stop-color="white" stop-opacity="0"/>
<stop offset="0.5" stop-color="white" stop-opacity="0.5"/>
<stop offset="1" stop-color="white"/>
</linearGradient>
<linearGradient id="paint3_linear_1936_131623" x1="240.576" y1="342.245" x2="257.471" y2="359.271" gradientUnits="userSpaceOnUse">
<stop stop-color="#565656"/>
<stop offset="0.5" stop-color="#444444"/>
<stop offset="1" stop-color="#323232"/>
</linearGradient>
<linearGradient id="paint4_linear_1936_131623" x1="230.548" y1="399.871" x2="208.495" y2="385.063" gradientUnits="userSpaceOnUse">
<stop stop-color="#595758"/>
<stop offset="0.17" stop-color="#727172"/>
<stop offset="0.34" stop-color="#8B8C8C"/>
<stop offset="0.41" stop-color="#B3B4B4"/>
<stop offset="0.49" stop-color="#DBDBDC"/>
<stop offset="0.58" stop-color="#DEDEDE"/>
<stop offset="0.67" stop-color="#E1E1E0"/>
<stop offset="0.73" stop-color="#BABABA"/>
<stop offset="0.78" stop-color="#949494"/>
<stop offset="0.89" stop-color="#777676"/>
<stop offset="1" stop-color="#595758"/>
</linearGradient>
<linearGradient id="paint5_linear_1936_131623" x1="240.967" y1="410.972" x2="243.107" y2="418.256" gradientUnits="userSpaceOnUse">
<stop stop-color="#DBDAD9"/>
<stop offset="0.5" stop-color="#B5B5B5"/>
<stop offset="1" stop-color="#8F9090"/>
</linearGradient>
<linearGradient id="paint6_linear_1936_131623" x1="249.174" y1="426.729" x2="239.627" y2="450.807" gradientUnits="userSpaceOnUse">
<stop stop-color="#970E05"/>
<stop offset="0.5" stop-color="#BA0709"/>
<stop offset="1" stop-color="#DD010E"/>
</linearGradient>
<linearGradient id="paint7_linear_1936_131623" x1="134.128" y1="417.699" x2="203.973" y2="444.094" gradientUnits="userSpaceOnUse">
<stop stop-color="#970E05"/>
<stop offset="0.5" stop-color="#BA0709"/>
<stop offset="1" stop-color="#DD010E"/>
</linearGradient>
<linearGradient id="paint8_linear_1936_131623" x1="224.677" y1="433.98" x2="218.531" y2="461.48" gradientUnits="userSpaceOnUse">
<stop stop-color="#9D9D9D"/>
<stop offset="0.5" stop-color="#787878"/>
<stop offset="1" stop-color="#525252"/>
</linearGradient>
<linearGradient id="paint9_linear_1936_131623" x1="237.817" y1="473.462" x2="237.817" y2="454.156" gradientUnits="userSpaceOnUse">
<stop stop-color="#484848"/>
<stop offset="0.5" stop-color="#929292"/>
<stop offset="1" stop-color="#DBDBDC"/>
</linearGradient>
<linearGradient id="paint10_linear_1936_131623" x1="237.817" y1="472.554" x2="237.817" y2="450.985" gradientUnits="userSpaceOnUse">
<stop stop-color="#484848"/>
<stop offset="0.5" stop-color="#929292"/>
<stop offset="1" stop-color="#DBDBDC"/>
</linearGradient>
<linearGradient id="paint11_linear_1936_131623" x1="276.45" y1="449.371" x2="275.846" y2="468.48" gradientUnits="userSpaceOnUse">
<stop stop-color="#E2000F"/>
<stop offset="0.5" stop-color="#BE0709"/>
<stop offset="1" stop-color="#9B0E04"/>
</linearGradient>
<radialGradient id="paint12_radial_1936_131623" cx="0" cy="0" r="1" gradientUnits="userSpaceOnUse" gradientTransform="translate(60.0117 191.22) rotate(-35.9) scale(175.281 438.204)">
<stop stop-color="#3D3E3E"/>
<stop offset="0.5" stop-color="#666767"/>
<stop offset="1" stop-color="#8F9090"/>
</radialGradient>
<linearGradient id="paint13_linear_1936_131623" x1="225.638" y1="61.3499" x2="239.058" y2="55.401" gradientUnits="userSpaceOnUse">
<stop stop-color="#878787" stop-opacity="0"/>
<stop offset="0.5" stop-color="#626262" stop-opacity="0.5"/>
<stop offset="1" stop-color="#3E3E3E"/>
</linearGradient>
<radialGradient id="paint14_radial_1936_131623" cx="0" cy="0" r="1" gradientUnits="userSpaceOnUse" gradientTransform="translate(291.824 186.588) scale(41.2902 41.2902)">
<stop stop-color="#595758"/>
<stop offset="0.25" stop-color="#919091"/>
<stop offset="0.49" stop-color="#C9C9C9"/>
<stop offset="0.75" stop-color="#919091"/>
<stop offset="1" stop-color="#595758"/>
</radialGradient>
<linearGradient id="paint15_linear_1936_131623" x1="278.078" y1="229.592" x2="301.309" y2="213.85" gradientUnits="userSpaceOnUse">
<stop stop-color="#595758"/>
<stop offset="0.15" stop-color="#727172"/>
<stop offset="0.3" stop-color="#8B8C8C"/>
<stop offset="0.4" stop-color="#B3B4B4"/>
<stop offset="0.49" stop-color="#DBDBDC"/>
<stop offset="0.58" stop-color="#DEDEDE"/>
<stop offset="0.67" stop-color="#E1E1E0"/>
<stop offset="0.73" stop-color="#BABABA"/>
<stop offset="0.78" stop-color="#949494"/>
<stop offset="0.89" stop-color="#777676"/>
<stop offset="1" stop-color="#595758"/>
</linearGradient>
<linearGradient id="paint16_linear_1936_131623" x1="314.134" y1="265.407" x2="289.156" y2="306.441" gradientUnits="userSpaceOnUse">
<stop stop-color="#BDBDBE"/>
<stop offset="0.08" stop-color="#989899"/>
<stop offset="0.16" stop-color="#747474"/>
<stop offset="0.25" stop-color="#6C6C6C"/>
<stop offset="0.34" stop-color="#646565"/>
<stop offset="0.67" stop-color="#7C7D7D"/>
<stop offset="1" stop-color="#959696"/>
</linearGradient>
<linearGradient id="paint17_linear_1936_131623" x1="315.952" y1="238.149" x2="315.953" y2="279.566" gradientUnits="userSpaceOnUse">
<stop stop-color="#939291"/>
<stop offset="0.5" stop-color="#B7B7B7"/>
<stop offset="1" stop-color="#DBDBDC"/>
</linearGradient>
<clipPath id="clip0_1936_131623">
<rect width="512" height="512" fill="white"/>
</clipPath>
</defs>
</svg>
