<svg width="512" height="512" viewBox="0 0 512 512" fill="none" xmlns="http://www.w3.org/2000/svg">
<g clip-path="url(#clip0_1321_108679)">
<mask id="mask0_1321_108679" style="mask-type:luminance" maskUnits="userSpaceOnUse" x="0" y="0" width="512" height="512">
<path d="M512 0H0V512H512V0Z" fill="white"/>
</mask>
<g mask="url(#mask0_1321_108679)">
<mask id="mask1_1321_108679" style="mask-type:luminance" maskUnits="userSpaceOnUse" x="-27" y="-100" width="758" height="758">
<path d="M-26.8799 -99.8799H730.88V657.88H-26.8799V-99.8799Z" fill="white"/>
</mask>
<g mask="url(#mask1_1321_108679)">
<path d="M442.991 269.971C449.884 272.329 447.945 296.23 438.671 323.348C429.397 350.466 416.294 370.55 409.4 368.193C402.515 365.838 404.454 341.937 413.728 314.818C423.002 287.7 436.105 267.617 442.991 269.971Z" stroke="#634C10" stroke-width="32.7248" stroke-linecap="round" stroke-linejoin="round"/>
<path d="M442.991 269.971C449.884 272.329 447.945 296.23 438.671 323.348C429.397 350.466 416.294 370.55 409.4 368.193C402.515 365.838 404.454 341.937 413.728 314.818C423.002 287.7 436.105 267.617 442.991 269.971Z" stroke="#C2972E" stroke-width="20.6683" stroke-linecap="round" stroke-linejoin="round"/>
<path d="M443.212 275.172C444.634 284.559 441.762 302.326 435.121 321.744C434.227 324.359 433.289 326.915 432.333 329.391" stroke="#F6D537" stroke-width="11.1953" stroke-linecap="round" stroke-linejoin="round"/>
<path d="M420.708 353.457C418.43 357.138 416.192 360.168 414.097 362.409" stroke="#F6D537" stroke-width="11.1953" stroke-linecap="round" stroke-linejoin="round"/>
<path d="M211.644 348.647C206.345 411.066 295.111 438.796 295.017 338.544" stroke="#634C10" stroke-width="34.4471" stroke-linecap="round" stroke-linejoin="round"/>
<path d="M211.644 348.647C206.345 411.066 295.111 438.796 295.017 338.544" stroke="#AD8821" stroke-width="20.6683" stroke-linecap="round" stroke-linejoin="round"/>
<path d="M212.551 352.616C207.632 408.855 281.366 436.934 295.945 368.618" stroke="#8C6816" stroke-width="10.488" stroke-linecap="round" stroke-linejoin="round"/>
<path d="M217.031 348.726C215.451 367.331 222.229 382.855 232.521 392.826" stroke="#E6BF40" stroke-width="10.3341" stroke-linecap="round" stroke-linejoin="round"/>
<path d="M282.232 394.718C291.345 384.408 297.613 366.792 297.588 340.114" stroke="#D8BC16" stroke-width="8.61178" stroke-linecap="round" stroke-linejoin="round"/>
<path d="M251.294 396.887C260.456 398.622 270.01 395.823 277.152 387.064" stroke="#A76A0D" stroke-width="6.20048" stroke-linecap="round" stroke-linejoin="round"/>
<path d="M165.533 74.884C135.877 64.742 95.5741 159.618 82.7542 197.081C69.8111 234.905 45.5814 336.16 76.0821 346.591C76.0823 346.471 398.53 351.056 398.603 351.065C392.289 348.89 397.295 323.625 401.491 311.302C405.262 300.231 418.297 276.742 425.339 279.135C425.281 279.192 165.432 74.9977 165.533 74.884Z" fill="#977C13"/>
<path d="M164.054 75.8138C164.392 76.98 423.811 278.577 423.811 278.577L414.95 284.929L118.663 127.862C118.663 127.862 133.04 101.597 164.054 75.8138Z" fill="#A28615"/>
<path d="M107.067 149.663L410.767 291.954L416.085 283.931L120.12 124.519L107.067 149.663Z" fill="#8C6909"/>
<path d="M108.303 146.053L411.228 291.121L406.227 301.667L93.1366 185.967L108.303 146.053Z" fill="#7E6114"/>
<path d="M86.5627 204.109L403.633 307.65L406.548 300.985L93.9593 183.559L86.5627 204.109Z" fill="#988538"/>
<path d="M73.0853 265.567L397.881 322.926L404.57 306.254L87.609 202.129L73.0853 265.567Z" fill="#87732E"/>
<path d="M70.2751 306.857L396.866 334.667L398.72 321.297L76.0134 258.085L70.2751 306.857Z" fill="#B08D2F"/>
<path d="M74.0349 342.712L396.41 350.962L397.496 331.582L69.8685 303.612L74.0349 342.712Z" fill="#AB751A"/>
<path d="M165.157 75.0064C184.93 81.5264 164.652 197.579 156.559 221.288C146.782 249.923 91.7551 352.682 73.031 346.009C73.1045 345.913 404.145 354.804 404.063 354.756C408.976 356.359 418.862 342.848 426.491 320.601C433.397 300.47 434.911 282.472 430.366 279.6C430.381 279.702 165.167 75.1581 165.157 75.0064Z" fill="#977C13"/>
<path d="M67.4067 255.704C59.4448 296.26 56.6108 339.932 76.0821 346.591C76.0823 346.471 398.53 351.056 398.603 351.065C392.289 348.89 397.295 323.625 401.491 311.302C405.262 300.231 418.297 276.742 425.339 279.135C425.281 279.192 165.432 74.9977 165.533 74.884C135.877 64.742 95.5741 159.618 82.7542 197.081C78.0735 210.759 71.9174 232.731 67.4067 255.704Z" stroke="#56370D" stroke-width="8.37244" stroke-linecap="round" stroke-linejoin="round"/>
<path d="M408.224 352.604L104.411 335.53L124.044 298.109L414.265 346.573L408.224 352.604Z" fill="#977C13"/>
<path d="M162.623 195.801L427.974 313.314L423.761 326.321L148.622 235.875L162.623 195.801Z" fill="#967732"/>
<path d="M412.815 348.598L120.86 301.349L131.957 281.535L417.248 343.236L412.815 348.598Z" fill="#755B13"/>
<path d="M430.597 299.78L430.995 280.695L176.76 85.8584L172.911 138.445L430.597 299.78Z" fill="#B7973F"/>
<path d="M431.249 288.891L176.982 108.742L177.591 86.5039L429.591 280.171L431.249 288.891Z" fill="#846810"/>
<path d="M411.16 350.75L106.918 332.538L94.798 343.165L406.169 355.192L411.16 350.75Z" fill="#6D5422"/>
<path d="M417.256 343.239L131.957 281.535L151.123 231.159L424.955 322.19L417.256 343.239Z" fill="#564315"/>
<path d="M428.218 311.737L162.623 195.801L176.293 126.132L431.168 295.004L428.218 311.737Z" fill="#F9BC43"/>
<path d="M430.494 300.207L173.851 137.128L163.341 195.477L427.972 313.314L430.494 300.207Z" fill="#FFFF8E"/>
<path d="M127.406 281.113C107.82 315.707 84.0918 349.951 73.031 346.009C73.1045 345.913 404.145 354.804 404.063 354.756C408.976 356.359 418.862 342.848 426.491 320.601C433.397 300.47 434.911 282.472 430.366 279.6C430.381 279.702 165.167 75.1581 165.157 75.0064C184.93 81.5264 164.652 197.579 156.559 221.288C152.558 233.008 140.977 257.145 127.406 281.113Z" stroke="#56370D" stroke-width="8.37244" stroke-linecap="round" stroke-linejoin="round"/>
<path d="M165.68 74.3276C184.683 80.8261 179.342 146.769 153.744 221.621C128.145 296.472 91.9871 351.876 72.985 345.378C53.9828 338.879 59.3235 272.936 84.9218 198.085C110.52 123.233 146.678 67.8291 165.68 74.3276Z" stroke="#634C10" stroke-width="34.4471" stroke-linecap="round" stroke-linejoin="round"/>
<path d="M165.68 74.3276C184.683 80.8261 179.342 146.769 153.744 221.621C128.145 296.472 91.9871 351.876 72.985 345.378C53.9828 338.879 59.3235 272.936 84.9218 198.085C110.52 123.233 146.678 67.8291 165.68 74.3276Z" stroke="#D8B339" stroke-width="20.6683" stroke-linecap="round" stroke-linejoin="round"/>
<g opacity="0.55">
<path d="M63.7211 332.943C56.2128 311.624 63.8987 257.72 84.359 197.892C103.595 141.643 128.558 96.4463 147.255 81.0483" stroke="#8B6413" stroke-width="16.9221" stroke-linecap="round" stroke-linejoin="round"/>
</g>
<path d="M75.9 216.301C77.7147 210.355 79.6584 204.325 81.7417 198.233C90.4045 172.902 100.278 149.791 110.28 130.546" stroke="#F7C627" stroke-width="13.8085" stroke-linecap="round" stroke-linejoin="round"/>
<path d="M67.2641 334.155C59.7558 312.835 67.4417 258.931 87.902 199.104C107.138 142.854 132.101 97.6577 150.798 82.2598" stroke="#8B6413" stroke-width="16.9221" stroke-linecap="round" stroke-linejoin="round"/>
<path d="M78.9301 227.771C81.5711 218.453 84.5675 208.855 87.9023 199.104C91.2507 189.313 94.7812 179.852 98.4127 170.828" stroke="#C58605" stroke-width="16.9221" stroke-linecap="round" stroke-linejoin="round"/>
<path d="M66.4685 331.567C60.8731 310.615 67.0086 265.141 83.2158 213.409" stroke="#724810" stroke-width="16.9221" stroke-linecap="round" stroke-linejoin="round"/>
<path d="M182.222 116.946C181.197 138.012 176.243 165.406 167.66 195.454" stroke="#FFFF8E" stroke-width="10.3341" stroke-linecap="round" stroke-linejoin="round"/>
<path d="M175.777 91.3237C180.376 116.733 172.495 166.79 153.744 221.621C151.472 228.262 149.115 234.755 146.694 241.063" stroke="#A38931" stroke-width="10.3341" stroke-linecap="round" stroke-linejoin="round"/>
</g>
</g>
</g>
<defs>
<clipPath id="clip0_1321_108679">
<rect width="512" height="512" fill="white"/>
</clipPath>
</defs>
</svg>
