<svg width="512" height="512" viewBox="0 0 512 512" fill="none" xmlns="http://www.w3.org/2000/svg">
<g clip-path="url(#clip0_1936_131748)">
<mask id="mask0_1936_131748" style="mask-type:luminance" maskUnits="userSpaceOnUse" x="0" y="0" width="512" height="512">
<path d="M512 0H0V512H512V0Z" fill="white"/>
</mask>
<g mask="url(#mask0_1936_131748)">
<path d="M451.002 256.282C451.002 363.88 363.777 451.104 256.181 451.104C148.584 451.104 61.3594 363.88 61.3594 256.282C61.3594 148.685 148.584 61.4609 256.181 61.4609C363.777 61.4609 451.002 148.685 451.002 256.282Z" fill="url(#paint0_linear_1936_131748)"/>
<path d="M429.891 257.018C428.389 355.038 349.425 433.308 253.519 431.837C157.615 430.366 81.0855 349.716 82.5882 251.695C84.0908 153.675 163.055 75.4062 258.96 76.8758C354.865 78.3465 431.394 158.998 429.891 257.018Z" fill="url(#paint1_radial_1936_131748)"/>
<path d="M451.002 256.282C451.002 363.88 363.777 451.104 256.181 451.104C148.584 451.104 61.3594 363.88 61.3594 256.282C61.3594 148.685 148.584 61.4609 256.181 61.4609C363.777 61.4609 451.002 148.685 451.002 256.282Z" stroke="#E76900" stroke-width="8.25157" stroke-miterlimit="10"/>
<path d="M340.163 200.804C360.028 200.295 382.701 204.929 389.788 213.337C395.346 219.947 399.412 238.37 396.245 255.322C393.68 269.096 393.26 311.318 325.088 298.37C265.959 287.139 279.066 227.438 281.733 220.244C284.41 213.051 300.428 202.629 340.809 200.789L342.288 188.503C315.404 189.103 290.955 196.133 283.766 199.287C273.968 203.588 253.256 210.587 228.937 199.287C221.961 196.045 199.711 188.734 174.633 187.738L174.066 200.855C212.43 203.009 228.351 213.206 230.97 220.244C233.637 227.438 233.739 252.778 225.779 272.151C217.819 291.514 184.702 316.445 137.343 290.951C102.149 272.006 117.357 219.947 122.916 213.337C130.263 204.621 154.357 199.961 174.711 200.881L174.958 187.757C156.565 187.466 134.873 190.596 111.644 200.876C105.426 203.628 99.0953 206.893 92.6907 210.741C87.6777 213.753 85.8052 225.301 88.3184 227.743C91.0561 230.42 93.7032 233.109 94.1523 234.345C94.622 235.673 95.8086 249.743 104.095 269.831C112.381 289.919 126.615 300.383 142.524 306.115C158.434 311.857 189.158 310.958 206.253 303.54C217.206 298.799 228.437 291.309 237.142 269.3C243.089 254.3 246.951 237.134 256.352 237.134C265.752 237.134 269.614 254.3 275.561 269.3C284.267 291.309 295.496 298.799 306.45 303.54C323.545 310.958 354.27 311.857 370.179 306.115C386.088 300.383 400.323 289.919 408.609 269.831C416.896 249.743 418.071 235.673 418.54 234.345C418.99 233.109 421.637 230.42 424.375 227.743C426.889 225.301 424.872 213.98 420.002 210.741C413.52 206.432 406.916 202.881 400.28 199.98C380.178 191.192 359.794 188.37 341.708 188.507L340.163 200.804Z" fill="#EAAC1F"/>
<path d="M218.606 241.069C218.606 261.132 208.425 277.395 195.866 277.395C183.307 277.395 173.127 261.132 173.127 241.069C173.127 221.007 183.307 204.742 195.866 204.742C208.425 204.742 218.606 221.007 218.606 241.069Z" fill="#FFE19C"/>
<path d="M218.606 237.329C218.606 255.327 208.425 269.916 195.866 269.916C183.307 269.916 173.127 255.327 173.127 237.329C173.127 219.332 183.307 204.742 195.866 204.742C208.425 204.742 218.606 219.332 218.606 237.329Z" fill="#EAAC1F"/>
<path d="M216.775 240.909C216.775 257.869 207.414 271.618 195.867 271.618C184.32 271.618 174.959 257.869 174.959 240.909C174.959 223.949 184.32 210.199 195.867 210.199C207.414 210.199 216.775 223.949 216.775 240.909Z" fill="#974800"/>
<path d="M216.596 244.892C215.276 229.804 206.495 218.143 195.867 218.143C185.24 218.143 176.458 229.804 175.138 244.892C173.975 223.923 184.321 210.199 195.867 210.199C207.414 210.199 217.551 223.236 216.596 244.892Z" fill="#632900"/>
<path d="M294.256 241.069C294.256 261.132 304.485 277.395 317.101 277.395C329.718 277.395 339.946 261.132 339.946 241.069C339.946 221.007 329.718 204.742 317.101 204.742C304.485 204.742 294.256 221.007 294.256 241.069Z" fill="#FFE19C"/>
<path d="M294.256 237.329C294.256 255.327 304.485 269.916 317.101 269.916C329.718 269.916 339.946 255.327 339.946 237.329C339.946 219.332 329.718 204.742 317.101 204.742C304.485 204.742 294.256 219.332 294.256 237.329Z" fill="#EAAC1F"/>
<path d="M296.096 240.909C296.096 257.869 305.5 271.618 317.1 271.618C328.701 271.618 338.105 257.869 338.105 240.909C338.105 223.949 328.701 210.199 317.1 210.199C305.5 210.199 296.096 223.949 296.096 240.909Z" fill="#974800"/>
<path d="M296.275 244.892C297.602 229.804 306.424 218.143 317.101 218.143C327.778 218.143 336.6 229.804 337.926 244.892C339.59 224.438 328.701 210.199 317.101 210.199C305.501 210.199 294.922 224.351 296.275 244.892Z" fill="#632900"/>
<g opacity="0.6">
<path d="M348.394 320.777C319.589 339.843 296.705 349.7 256.346 349.865C215.988 349.7 193.102 339.843 164.297 320.777C162.47 319.562 156.372 321.312 158.354 327.682C161.826 338.84 195.092 374.172 256.346 374.554C317.6 374.172 351.366 338.591 354.369 327.298C356.035 321.035 350.222 319.562 348.394 320.777Z" fill="#EAAC1F"/>
</g>
<path d="M348.765 325.095C319.798 347.314 297.649 358.17 256.346 358.356C215.043 358.17 192.524 347.253 163.61 324.966C160.54 322.599 157.625 325.241 158.456 328.161C162.051 340.748 193.66 384.516 256.346 384.947C319.033 384.516 350.642 340.748 354.237 328.161C355.068 325.241 352.153 322.497 348.765 325.095Z" fill="#FEDD78"/>
<path d="M295.896 352.883C276.641 361.303 234.716 363.746 216.795 352.883C211.541 375.334 221.67 388.552 224.94 392.18C236.171 404.641 256.346 403.563 256.346 395.822C256.346 403.563 276.519 404.641 287.751 392.18C291.021 388.552 300.635 377.245 295.896 352.883Z" fill="#EAAC1F"/>
<path d="M352.003 327.779C349.212 336.626 325.099 378.053 256.347 378.053C184.075 378.053 163.482 336.626 160.691 327.779C159.877 325.193 162.473 324.091 164.296 325.307C183.546 338.048 204.16 357.137 256.347 356.222C316.277 355.172 329.147 338.048 348.398 325.307C350.221 324.091 352.817 325.193 352.003 327.779Z" fill="#974800"/>
<path d="M351.057 330.081C350.295 329.71 349.255 330.792 348.389 331.368C319.591 350.434 296.704 362.351 256.349 362.516C215.983 362.351 193.107 350.434 164.298 331.368C163.432 330.792 162.392 329.71 161.63 330.091C158.656 324.96 162.474 324.086 164.298 325.302C193.107 344.367 215.983 355.254 256.349 355.419C296.704 355.254 319.591 344.367 348.389 325.302C350.223 324.086 353.981 324.813 351.057 330.081Z" fill="#632900"/>
<path d="M256.345 357.996V389.236C256.345 395.519 239.25 395.429 228.349 386.279C216.69 376.493 221.109 354.391 221.119 354.391C231.512 356.708 242.965 357.944 256.345 357.996Z" fill="#F7F9F5"/>
<path d="M256.346 374.103V389.234C256.346 395.517 238.386 396.369 228.35 386.278C216.691 374.554 220.893 355.471 221.089 354.379C221.099 354.379 223.735 379.061 239.32 380.232C249.522 380.998 256.346 374.103 256.346 374.103Z" fill="#DADCD9"/>
<path d="M256.346 357.994V389.234C256.346 395.517 238.362 396.393 228.351 386.278C225.436 383.332 223.541 379.758 222.346 376.081C219.101 366.152 220.893 355.471 221.089 354.379C221.099 354.379 221.11 354.389 221.12 354.389C231.513 356.707 242.966 357.943 256.346 357.994Z" stroke="#9A9FA6" stroke-width="5.15" stroke-linecap="round" stroke-linejoin="round"/>
<path d="M284.341 386.278C275.081 397.085 256.346 395.517 256.346 389.234V357.994C269.725 357.943 291.592 354.379 291.603 354.379C291.798 355.471 297.029 371.47 284.341 386.278Z" fill="#F7F9F5"/>
<path d="M256.232 374.103V389.234C256.232 395.517 274.193 396.369 284.228 386.278C295.887 374.554 291.685 355.471 291.489 354.379C291.479 354.379 288.843 379.061 273.258 380.232C263.056 380.998 256.232 374.103 256.232 374.103Z" fill="#DADCD9"/>
<path d="M290.346 376.081C289.151 379.758 287.256 383.332 284.341 386.278C274.33 396.393 256.346 395.517 256.346 389.234V357.994C269.725 357.943 281.179 356.707 291.572 354.389C291.582 354.389 291.592 354.379 291.603 354.379C291.798 355.471 293.591 366.152 290.346 376.081Z" stroke="#9A9FA6" stroke-width="5.15" stroke-linecap="round" stroke-linejoin="round"/>
<path d="M291.602 354.379C291.591 354.379 291.581 354.389 291.571 354.389C281.178 356.707 269.724 357.943 256.345 357.994C242.965 357.943 231.511 356.707 221.119 354.389C221.108 354.389 221.098 354.379 221.088 354.379" stroke="#6E6E7B" stroke-width="5.15" stroke-linecap="round" stroke-linejoin="round"/>
<path d="M346.156 188.654C363.731 189.464 384.161 194.142 390.245 201.648C394.781 207.259 398.321 219.636 397.749 233.578C397.75 233.555 397.756 233.529 397.757 233.507C397.95 238.412 403.808 263.657 375.819 284.913C362.143 295.299 341.211 295.612 325.546 292.628C309.882 289.644 294.321 285.507 286.361 265.367C280.499 250.545 278.463 233.955 278.849 222.706C278.641 216.004 279.135 210.607 280.146 207.768C282.823 200.288 308.882 188.814 346.156 188.654L345.704 177.627C320.696 177.495 297.468 184.494 284.226 190.541C274.437 195.006 266.539 197.09 256.351 197.09C246.163 197.09 238.726 195.006 228.936 190.541C216.332 184.786 194.678 178.165 171.054 177.656L169.123 188.299C209.504 190.21 230.336 200.288 233.013 207.768C234.022 210.602 234.517 215.983 234.312 222.666C234.704 233.916 232.668 250.528 226.8 265.367C218.84 285.507 203.279 289.644 187.615 292.628C171.951 295.612 151.697 294.339 137.343 284.913C113.336 269.149 115.21 238.412 115.405 233.507C115.405 233.516 115.408 233.529 115.408 233.539C114.844 219.612 118.383 207.254 122.915 201.648C129.219 193.871 151.1 188.861 169.123 188.299C169.123 188.299 172.204 177.682 171.054 177.656C139.832 176.969 124.807 181.293 110.011 191.685C107.762 193.259 98.1883 190.285 95.8481 192.891C93.5656 195.419 90.8887 201.002 90.8887 209.157C91.037 209.565 98.9031 210.527 99.3522 211.814C99.8219 213.193 99.894 237.39 108.181 258.275C116.468 279.161 128.658 290.043 144.567 296.01C160.476 301.977 191.798 302.251 208.296 293.333C240.643 275.85 238.94 226.161 256.349 224.27C276.951 222.032 273.604 279.713 304.864 293.333C333.047 305.613 352.684 301.977 368.593 296.01C384.503 290.043 396.693 279.161 404.979 258.275C413.265 237.39 413.337 213.193 413.807 211.814C414.256 210.527 422.124 209.961 422.273 209.552C422.697 203.235 419.597 195.418 417.314 192.891C414.974 190.285 405.4 193.259 403.152 191.685C388.356 181.293 376.346 177.586 345.704 177.627L346.156 188.654Z" fill="url(#paint2_linear_1936_131748)"/>
<path d="M175.475 183.454C171.995 183.278 168.054 183.208 164.491 183.308C138.354 184.043 124.807 186.925 110.011 197.317C107.762 198.89 98.1883 195.916 95.8481 198.522C93.5656 201.049 91.6488 205.619 90.8887 209.557C91.037 209.965 91.2214 210.322 91.4747 210.579C94.2135 213.358 98.9031 216.158 99.3522 217.446C99.8219 218.825 99.894 243.021 108.181 263.906C116.468 284.791 128.658 295.673 144.567 301.641C160.476 307.608 191.201 306.679 208.296 298.964C219.25 294.028 230.479 286.243 239.185 263.355C245.132 247.753 246.948 229.901 256.349 229.901C265.749 229.901 268.028 247.753 273.975 263.355C282.681 286.243 293.91 294.028 304.864 298.964C321.959 306.679 352.684 307.608 368.593 301.641C384.503 295.673 396.693 284.791 404.979 263.906C413.265 243.021 413.337 218.825 413.807 217.446C414.256 216.158 418.946 213.358 421.685 210.579C421.939 210.321 422.124 209.963 422.273 209.554C421.511 205.617 419.597 201.048 417.314 198.522C414.974 195.916 405.4 198.89 403.152 197.317C388.356 186.925 374.807 184.043 348.67 183.308C345.813 183.227 341.684 183.295 338.877 183.395L338.45 194.333C362.57 193.581 383.222 198.616 390.245 207.279C394.781 212.89 398.321 225.267 397.749 239.209C397.75 239.186 397.756 239.159 397.757 239.138C397.95 244.043 403.808 269.289 375.819 290.545C362.143 300.93 341.211 301.243 325.546 298.259C309.882 295.275 294.321 291.137 286.361 270.998C280.499 256.176 278.463 239.587 278.849 228.338C278.641 221.636 279.135 216.238 280.146 213.399C282.823 205.919 298.069 196.243 338.45 194.333L338.877 183.395C316.52 184.401 296.253 190.68 284.226 196.171C274.437 200.636 266.539 202.721 256.351 202.721C246.163 202.721 238.726 200.636 228.936 196.171C217.122 190.777 197.36 184.624 175.475 183.454L175.197 194.356C215.214 196.322 230.347 205.95 233.013 213.399C234.022 216.233 234.517 221.613 234.312 228.297C234.704 239.547 232.668 256.158 226.8 270.998C218.84 291.137 203.279 295.275 187.615 298.259C171.951 301.243 151.697 299.97 137.343 290.545C113.336 274.781 115.21 244.043 115.405 239.138C115.405 239.147 115.408 239.159 115.408 239.17C114.844 225.243 118.383 212.885 122.915 207.279C129.219 199.501 148.668 194.809 166.69 194.247C169.396 194.181 172.572 194.233 175.197 194.356L175.475 183.454Z" fill="#111318"/>
</g>
</g>
<defs>
<linearGradient id="paint0_linear_1936_131748" x1="255.142" y1="79.9413" x2="257.14" y2="445.001" gradientUnits="userSpaceOnUse">
<stop stop-color="#FDCF18"/>
<stop offset="0.47" stop-color="#F5AB0C"/>
<stop offset="0.93" stop-color="#ED8700"/>
</linearGradient>
<radialGradient id="paint1_radial_1936_131748" cx="0" cy="0" r="1" gradientUnits="userSpaceOnUse" gradientTransform="translate(250.205 94.3781) scale(342.364 342.364)">
<stop offset="0.07" stop-color="#FEFEE2"/>
<stop offset="0.28" stop-color="#FDEE8C"/>
<stop offset="0.49" stop-color="#FCDE36"/>
<stop offset="0.82" stop-color="#F5B820"/>
<stop offset="1" stop-color="#EE910A"/>
</radialGradient>
<linearGradient id="paint2_linear_1936_131748" x1="90.0008" y1="239.382" x2="421.423" y2="239.382" gradientUnits="userSpaceOnUse">
<stop stop-color="#0A0A0A"/>
<stop offset="0.29" stop-color="#2E2E2E"/>
<stop offset="0.5" stop-color="#525252"/>
<stop offset="0.75" stop-color="#2A2A2A"/>
<stop offset="1" stop-color="#030303"/>
</linearGradient>
<clipPath id="clip0_1936_131748">
<rect width="512" height="512" fill="white"/>
</clipPath>
</defs>
</svg>
