<svg width="513" height="513" viewBox="0 0 513 513" fill="none" xmlns="http://www.w3.org/2000/svg">
<g clip-path="url(#clip0_2048_29029)">
<mask id="mask0_2048_29029" style="mask-type:luminance" maskUnits="userSpaceOnUse" x="0" y="0" width="513" height="513">
<path d="M512.057 0.475586H0.0566406V512.476H512.057V0.475586Z" fill="white"/>
</mask>
<g mask="url(#mask0_2048_29029)">
<path d="M334.53 441.044L300.666 461.263L321.436 455.21L347.993 442.051L334.53 441.044Z" fill="#86847E"/>
<path d="M334.387 441.031L315.381 440.045L285.614 464.35L300.666 461.263L334.387 441.031Z" fill="#B8B8B8"/>
<path d="M291.957 439.226L267.775 438.797L240.05 438.808L215.983 439.244L234.213 465.692L247.923 466.754L260.667 466.787L273.776 465.843L285.614 464.351L315.25 440.041L291.957 439.226Z" fill="#B8B8B8"/>
<path d="M215.792 439.251L192.533 440.081L220.81 463.896L234.213 465.691L215.792 439.251Z" fill="#B8B8B8"/>
<path d="M159.898 442.336L197.283 458.957L220.81 463.896L192.534 440.08L159.898 442.336Z" fill="#888989"/>
<path d="M394.868 408.506L354.032 442.542L353.122 442.443L396.484 408.622L394.868 408.506Z" fill="#86847E"/>
<path d="M370.368 406.006L334.532 441.042L353.122 442.443L396.484 408.622L370.368 406.006Z" fill="#86847E"/>
<path d="M370.386 405.848L346.599 403.548L315.259 440.032L334.747 441.042L370.386 405.848Z" fill="#C7C6C5"/>
<path d="M346.599 403.547L312.409 401.549L291.955 439.226L315.259 440.031L346.599 403.547Z" fill="#D0D1D1"/>
<path d="M312.416 401.329L274.703 400.124L232.963 400.142L195.268 401.378L215.79 439.252L240.049 438.808L240.166 438.805L267.687 438.798H267.773L291.955 439.226L312.416 401.329Z" fill="#D0D1D1"/>
<path d="M161.197 403.621L192.533 440.082L215.789 439.253L195.324 401.55L161.197 403.621Z" fill="#D0D1D1"/>
<path d="M161.149 403.624L137.364 406.007L173.204 441.045L192.473 440.032L161.149 403.624Z" fill="#AAABAB"/>
<path d="M137.364 406.007L112.408 409.236L156.41 442.49L173.204 441.044L137.364 406.007Z" fill="#525253"/>
<path d="M388.593 408.071C388.593 408.071 394.847 409.045 397.742 409.503C397.742 409.503 419.24 384.191 430.513 369.421C428.412 368.007 422.424 364.765 422.424 364.765L388.593 408.071Z" fill="#86847E"/>
<path d="M370.472 405.858L388.485 408.122L422.424 364.765L402.749 359.03L370.472 405.858Z" fill="#86847E"/>
<path d="M346.886 403.757L370.626 406.112L402.989 359.295L372.235 354.259L346.886 403.757Z" fill="#B3B0AF"/>
<path d="M372.582 354.228L329.811 350.269L313.066 401.566L347.186 403.781L372.582 354.228Z" fill="#C5C4C4"/>
<path d="M280.38 349.011L274.716 400.061L312.417 401.33L329.225 350.037L280.38 349.011Z" fill="#B4B4B4"/>
<path d="M280.348 348.996L227.355 349.019L233.018 400.06L274.703 400.123L280.348 348.996Z" fill="#B4B4B4"/>
<path d="M227.355 349.018L178.756 350.419L195.269 401.378L232.964 400.141L227.355 349.018Z" fill="#BABABA"/>
<path d="M178.755 350.407L135.514 353.66L161.087 403.493L195.27 401.379L178.755 350.407Z" fill="#BABABA"/>
<path d="M135.514 353.661L104.922 358.578L137.331 405.957L161.087 403.493L135.514 353.661Z" fill="#A1A1A2"/>
<path d="M137.331 405.957L104.922 358.578L85.9548 365.614L119.141 408.071L137.331 405.957Z" fill="#565758"/>
<path d="M119.141 408.07L85.9548 365.613C85.9548 365.613 80.1198 368.113 78.1768 369.421C89.8848 385.647 110.949 409.503 110.949 409.503C113.538 409.093 119.141 408.07 119.141 408.07Z" fill="#565758"/>
<path d="M421.924 364.266C421.924 364.266 428.412 368.007 430.513 369.421L453.718 318.156L446.499 313.688L421.924 364.266Z" fill="#6B6762"/>
<path d="M430.924 368.766C430.924 368.766 428.412 368.007 430.513 369.421L453.718 318.156L454.749 317.938L430.924 368.766Z" fill="#6B6762"/>
<path d="M425.086 303.76L402.749 359.029L423.423 364.265L445.285 313.1L425.086 303.76Z" fill="#9E9791"/>
<path d="M371.495 353.495L403.249 358.53L424.086 304.26L390.842 297.544L371.495 353.495Z" fill="url(#paint0_linear_2048_29029)"/>
<path d="M391.842 297.807L372.342 354.495L331.224 349.995L342.224 290.307L391.842 297.807Z" fill="url(#paint1_linear_2048_29029)"/>
<path d="M341.966 289.807L283.441 287.254L281.381 348.497L329.725 350.036L341.966 289.807Z" fill="url(#paint2_linear_2048_29029)"/>
<path d="M226.795 349.52L224.295 287.753L283.941 287.253L281.941 349.02L226.795 349.52Z" fill="url(#paint3_linear_2048_29029)"/>
<path d="M223.795 288.283L167.778 290.902L178.754 349.907L226.854 349.51L223.795 288.283Z" fill="url(#paint4_linear_2048_29029)"/>
<path d="M167.753 291.401L178.753 349.161L135.445 352.661L116.945 297.901L167.753 291.401Z" fill="url(#paint5_linear_2048_29029)"/>
<path d="M118.445 298.212L83.3766 304.148L63.1096 313.471L63.0556 313.495C63.0556 313.495 56.7256 318.772 54.4326 320.365C62.7846 343.588 78.1746 369.42 78.1746 369.42C80.1186 368.112 85.9546 365.613 85.9546 365.613L101.922 358.578L134.513 353.16L118.445 298.212Z" fill="#6A6C6C"/>
<path d="M454.049 257.654L444.815 313.034C444.815 313.034 451.268 316.454 453.717 318.156L462.111 267.385L454.049 257.654Z" fill="#A09E9A"/>
<path d="M432.437 246.538L424.593 304.696L444.814 313.035L454.049 257.654L432.437 246.538Z" fill="#B9B3AB"/>
<path d="M390.379 297.426L424.594 304.696L432.437 246.537L396.198 236.158L390.379 297.426Z" fill="url(#paint6_linear_2048_29029)"/>
<path d="M396.39 236.496L390.133 297.261L341.274 290.46L345.531 228.695L396.39 236.496Z" fill="url(#paint7_linear_2048_29029)"/>
<path d="M283.943 287.197L340.962 290.806L345.4 228.414L285.011 224.151L283.943 287.197Z" fill="url(#paint8_linear_2048_29029)"/>
<path d="M284.939 224.673L283.351 286.499L223.295 287.755L221.883 222.93L284.939 224.673Z" fill="url(#paint9_linear_2048_29029)"/>
<path d="M223.794 224.181V287.902L166.34 290.402L162.34 227.681L223.794 224.181Z" fill="url(#paint10_linear_2048_29029)"/>
<path d="M162.34 228.523L110.735 236.758L110.707 236.762L73.0066 247.732L53.7916 258.301L53.6546 258.376L46.5776 267.385L54.4336 320.365C56.7266 318.772 63.0566 313.495 63.0566 313.495L63.1096 313.471L83.3756 304.148L117.395 297.719L117.445 297.712L166.778 290.901L162.34 228.523Z" fill="#747676"/>
<path d="M454.056 257.616L462.113 267.384L458.07 210.593L452.995 207.018L454.056 257.616Z" fill="#C3BFBA"/>
<path d="M452.996 207.018L432.727 192.739L432.454 246.41L454.056 257.616L452.996 207.018Z" fill="#C3BEB9"/>
<path d="M396.2 236.157L432.454 246.409L432.728 192.738L394.402 178.005L396.2 236.157Z" fill="url(#paint11_linear_2048_29029)"/>
<path d="M394.408 177.232L396.82 235.557L344.328 226.678L343.916 167.853L394.408 177.232Z" fill="url(#paint12_linear_2048_29029)"/>
<path d="M285.012 224.149L345.408 228.312L343.038 167.753L284.678 162.516L285.012 224.149Z" fill="#CFDFF7"/>
<path d="M284.935 224.144L284.679 162.515L223.055 162.554L222.722 224.142L284.935 224.144Z" fill="#E9F8FC"/>
<path d="M222.722 224.14L223.055 162.553L164.691 167.883L162.325 228.312L222.722 224.14Z" fill="#FDFFFF"/>
<path d="M162.325 228.312L164.69 167.883L114.296 177.982L110.704 236.469L162.325 228.312Z" fill="#FDFFFF"/>
<path d="M111.005 237.086L114.52 178.321L76.5727 192.366L73.3057 248.056L111.005 237.086Z" fill="#FDFFFF"/>
<path d="M76.2757 192.042L73.7757 245.8L52.6777 258.8L55.6777 205.042L76.2757 192.042Z" fill="#BBC0C2"/>
<path d="M455.728 204.24L452.995 207.019L452.994 206.946L448.957 185.489L434.205 155.754L433.692 155.306L455.728 204.24Z" fill="#D2E7FD"/>
<path d="M414.089 140.767L432.728 192.74L452.994 206.946L448.957 185.489L434.205 155.754L414.089 140.767Z" fill="#D2E7FD"/>
<path d="M394.403 178.007L432.728 192.74L414.089 140.767L383.107 129.074L394.403 178.007Z" fill="#D2E7FC"/>
<path d="M394.402 178.007L383.107 129.074L337.004 118.371L343.029 167.504L394.402 178.007Z" fill="#DAE0EC"/>
<path d="M284.679 162.516L342.933 167.732L337.003 118.37L282.9 112.482L284.679 162.516Z" fill="#DAE0EC"/>
<path d="M284.679 162.474L282.9 112.482L224.832 112.531L223.055 162.474H284.679Z" fill="white"/>
<path d="M223.056 162.554L224.832 112.53L172.276 118.262L164.705 167.504L223.056 162.554Z" fill="#E2F0FB"/>
<path d="M164.692 167.884L172.276 118.261L126.074 128.92L114.304 177.859L164.692 167.884Z" fill="#F0F7FB"/>
<path d="M114.304 177.859L126.073 128.92L93.3247 141.356L76.2747 192.044L114.304 177.859Z" fill="#D2E8FA"/>
<path d="M76.2756 192.042L93.3246 141.356L77.0296 150.215L52.5986 208.318L76.2756 192.042Z" fill="#D3E8FB"/>
<path d="M414.089 140.766L428.776 151.709L434.204 155.754L419.249 134.064L410.669 121.621L385.494 98.3336L414.089 140.766Z" fill="#C9DBF1"/>
<path d="M413.898 140.232L385.431 98.3927L359.698 89.4097L383.108 129.074L413.898 140.232Z" fill="#C9DBF1"/>
<path d="M383.107 129.073L359.698 89.4086L322.085 80.8606L337.003 118.37L383.107 129.073Z" fill="#CADBF2"/>
<path d="M337.004 118.37L322.085 80.8606L277.952 75.9536L282.897 112.388L337.004 118.37Z" fill="#E2E6EA"/>
<path d="M224.833 112.529L282.896 112.388L277.951 75.9546L229.774 76.0126L224.833 112.529Z" fill="#E2E6EA"/>
<path d="M224.838 112.388L229.775 76.0126L185.591 81.0346L172.318 117.98L224.838 112.388Z" fill="#E2E6EA"/>
<path d="M172.318 117.979L185.59 81.0347L147.977 89.5357L126.128 128.69L172.318 117.979Z" fill="#D5DDE7"/>
<path d="M126.129 128.689L147.722 89.5936L118.054 103.021L97.7947 120.749L80.3257 146.856L126.129 128.689Z" fill="#B5C9E4"/>
<path d="M385.493 98.3346L359.628 79.2866L337.051 68.0466L359.472 89.0296L385.493 98.3346Z" fill="#D5DDE7"/>
<path d="M304.696 57.2325L322.084 80.8605L359.472 89.0285L337.05 68.0465L304.696 57.2325Z" fill="#CED4DD"/>
<path d="M269.791 51.6846H237.941L229.789 75.9026L277.95 75.9546L322.071 80.8586L304.696 57.2326L269.791 51.6846Z" fill="#CED4DD"/>
<path d="M238.128 51.5686L203.036 57.2326L185.59 81.0346L229.673 76.0136L238.128 51.5686Z" fill="#CED4DD"/>
<path d="M185.59 81.0355L203.037 57.2325L168.028 69.6555L122.26 99.7785L151.658 88.2255L185.59 81.0355Z" fill="#C2D1E4"/>
<g opacity="0.2">
<path d="M166.806 446.226C166.806 446.226 270.556 440.226 342.806 446.976" stroke="white" stroke-width="6" stroke-linecap="round" stroke-linejoin="round"/>
<path d="M388.611 413.933L387.483 413.623L369.385 411.348L345.509 409.039L311.417 406.829L273.702 405.624L231.963 405.642L194.303 406.876L160.148 409.124L117.347 412.956" stroke="white" stroke-width="6" stroke-linecap="round" stroke-linejoin="round"/>
</g>
<g opacity="0.25">
<path d="M424.835 372.014L421.423 370.266L401.748 364.531L370.994 359.496L328.223 355.536L279.346 354.497L226.292 354.52L178.124 355.88L134.512 359.161L103.921 364.078L84.9539 371.115" stroke="white" stroke-width="6" stroke-linecap="round" stroke-linejoin="round"/>
</g>
<g opacity="0.2">
<path d="M450.516 322.277C447.691 320.613 443.997 318.689 443.997 318.689L423.824 310.245L389.323 303.041L339.96 296.307L282.909 292.753L222.782 292.783L165.828 296.395L116.396 303.22L82.3759 309.649L62.0569 318.996" stroke="white" stroke-width="6" stroke-linecap="round" stroke-linejoin="round"/>
</g>
<g opacity="0.3">
<path d="M458.442 269.615L453.254 263.261L431.583 252.08L395.197 241.659L344.411 233.915L283.933 229.644L221.731 229.679L161.244 234.03L109.706 242.263L72.0068 253.233L52.6548 263.877" stroke="white" stroke-width="6" stroke-linecap="round" stroke-linejoin="round"/>
</g>
<g opacity="0.6">
<path d="M192.056 63.2256C192.056 63.2256 268.806 49.7256 329.306 66.2256" stroke="white" stroke-width="6" stroke-linecap="round" stroke-linejoin="round"/>
<path d="M386.669 104.873L386.212 104.43L358.786 94.9296L321.071 86.3586L276.968 81.4546L228.673 81.5136L184.573 86.5376L146.722 95.0946L117.055 108.521" stroke="white" stroke-width="6" stroke-linecap="round" stroke-linejoin="round"/>
<path d="M433.203 161.255L431.773 160.186L413.189 146.305L382.106 134.573L336.002 123.87L282.031 117.98L223.751 118.03L171.364 123.74L124.985 134.44L92.3248 146.856L76.0278 155.715" stroke="white" stroke-width="6" stroke-linecap="round" stroke-linejoin="round"/>
<path d="M457.068 216.094L456.065 215.388L431.726 198.24L393.401 183.508L341.931 173.232L283.893 168.016L221.929 168.055L163.645 173.389L113.22 183.499L75.2738 197.543L54.1218 211.78" stroke="white" stroke-width="6" stroke-linecap="round" stroke-linejoin="round"/>
</g>
<path d="M448.957 185.489L448.96 185.507L457.494 212.446L462.056 265.117L454.064 316.285L430.923 368.266L398.093 409.071L352.491 443.053L321.434 455.212" stroke="#736F6C" stroke-width="6" stroke-linecap="round" stroke-linejoin="round"/>
<path d="M409.457 120.989L435.46 158.007L454.052 198.196L454.056 257.617L444.814 313.034L422.423 364.765L388.593 408.071L347.991 442.052L321.434 455.211" stroke="#736F6C" stroke-width="6" stroke-linecap="round" stroke-linejoin="round"/>
<path d="M383.9 96.4425L385.191 97.8895L413.896 140.232L432.727 192.74L432.454 246.411L424.586 304.76L402.749 359.03L370.369 406.005L334.529 441.044L300.665 461.264" stroke="#736F6C" stroke-width="6" stroke-linecap="round" stroke-linejoin="round"/>
<path d="M337.199 68.0465L359.621 89.0285L383.255 129.072L394.551 178.006L396.347 236.159L390.529 297.426L372.143 353.995L346.795 403.492L315.408 440.031L285.761 464.35" stroke="#736F6C" stroke-width="6" stroke-linecap="round" stroke-linejoin="round"/>
<path d="M305.012 57.3356L322.357 80.8576L337.318 118.473L343.343 167.607L345.723 228.416L341.278 290.968L329.539 350.139L312.724 401.652L292.208 439.445L273.918 465.932" stroke="#736F6C" stroke-width="6" stroke-linecap="round" stroke-linejoin="round"/>
<path d="M55.1217 206.279L53.6777 257.616L62.9187 313.034L85.9537 365.613L119.141 408.072L159.91 441.99L182.784 453.728" stroke="#5E5C5A" stroke-width="6" stroke-linecap="round" stroke-linejoin="round"/>
<path d="M269.79 51.6855L277.942 75.9016L282.895 112.389L284.678 162.473L285.011 224.141L283.942 287.197L280.379 349.01L274.715 400.061L267.694 438.766L260.665 466.56" stroke="#736F6C" stroke-width="6" stroke-linecap="round" stroke-linejoin="round"/>
<path d="M237.941 51.6855L229.789 75.9026L224.836 112.39L223.053 162.474L222.72 224.142L223.789 287.198L227.352 349.011L233.016 400.061L240.037 438.766L247.921 466.756" stroke="#736F6C" stroke-width="6" stroke-linecap="round" stroke-linejoin="round"/>
<path d="M203.037 57.2325L185.692 80.7545L172.317 117.98L164.705 167.504L162.325 228.313L166.771 290.865L178.756 350.42L195.323 401.549L215.84 439.342L234.211 465.691" stroke="#736F6C" stroke-width="6" stroke-linecap="round" stroke-linejoin="round"/>
<path d="M168.028 69.6555L148.26 89.0295L126.128 128.691L114.303 177.86L110.704 236.471L117.353 297.426L135.513 353.661L161.087 403.492L192.473 440.031L220.808 463.896" stroke="#736F6C" stroke-width="6" stroke-linecap="round" stroke-linejoin="round"/>
<path d="M118.054 103.02L93.3239 141.356L76.2739 192.042L73.0059 247.731L83.3749 304.147L104.92 358.579L137.364 406.006L173.202 441.044L204.599 460.406" stroke="#5E5C5A" stroke-width="6" stroke-linecap="round" stroke-linejoin="round"/>
<path d="M341.278 290.968L329.539 350.139" stroke="#474544" stroke-width="6" stroke-linecap="round" stroke-linejoin="round"/>
<path d="M345.723 228.416L341.278 290.968" stroke="#736F6C" stroke-width="6" stroke-linecap="round" stroke-linejoin="round"/>
<path d="M285.011 224.141L283.942 287.197L280.379 349.01" stroke="#474544" stroke-width="6" stroke-linecap="round" stroke-linejoin="round"/>
<path d="M222.72 224.142L223.789 287.198L227.352 349.011" stroke="#474544" stroke-width="6" stroke-linecap="round" stroke-linejoin="round"/>
<path d="M162.325 228.313L166.771 290.865L178.756 350.42" stroke="#474544" stroke-width="6" stroke-linecap="round" stroke-linejoin="round"/>
<path d="M110.704 236.471L117.353 297.426L135.513 353.661" stroke="#4F4C4B" stroke-width="6" stroke-linecap="round" stroke-linejoin="round"/>
<path d="M390.556 297.476L372.556 352.976" stroke="#736F6C" stroke-width="6"/>
<path d="M409.457 120.989L435.46 158.007L454.052 198.196" stroke="#6A7880" stroke-width="6" stroke-linecap="round" stroke-linejoin="round"/>
<path d="M383.9 96.4425L385.191 97.8895L413.896 140.232L432.727 192.74" stroke="#6A7880" stroke-width="6" stroke-linecap="round" stroke-linejoin="round"/>
<path d="M337.199 68.0465L359.621 89.0285L383.255 129.072L394.551 178.006L394.597 177.909" stroke="#6A7880" stroke-width="6" stroke-linecap="round" stroke-linejoin="round"/>
<path d="M305.012 57.3356L322.357 80.8576L337.318 118.473L343.343 167.607L345.723 228.416" stroke="#6A7880" stroke-width="6" stroke-linecap="round" stroke-linejoin="round"/>
<path d="M269.79 51.6855L277.942 75.9016L282.895 112.389L284.678 162.473L285.011 224.141" stroke="#6A7880" stroke-width="6" stroke-linecap="round" stroke-linejoin="round"/>
<path d="M237.941 51.6855L229.789 75.9026L224.836 112.39L223.053 162.474L222.72 224.142" stroke="#6A7880" stroke-width="6" stroke-linecap="round" stroke-linejoin="round"/>
<path d="M203.037 57.2325L185.692 80.7545L172.317 117.98L164.705 167.504L162.325 228.313" stroke="#6A7880" stroke-width="6" stroke-linecap="round" stroke-linejoin="round"/>
<path d="M168.028 69.6555L148.26 89.0295L126.128 128.691L114.303 177.859L110.704 236.471" stroke="#6A7880" stroke-width="6" stroke-linecap="round" stroke-linejoin="round"/>
<path d="M118.054 103.02L93.3236 141.356L76.2736 192.042L73.0056 247.731" stroke="#6A7880" stroke-width="6" stroke-linecap="round" stroke-linejoin="round"/>
<path d="M352.489 442.27C352.489 442.27 381.338 422.869 397.741 409.503C397.367 409.444 396.943 409.378 396.486 409.308C393.277 408.817 388.483 408.123 388.483 408.123L370.385 405.848L346.509 403.539L312.417 401.329L274.702 400.124L232.963 400.142L195.303 401.376L161.148 403.624L137.347 405.956L119.408 408.235C119.408 408.235 113.697 409.068 110.947 409.503C135.174 429.234 156.198 442.27 156.198 442.27" stroke="#64615E" stroke-width="6" stroke-linecap="round" stroke-linejoin="round"/>
<path d="M156.199 442.27C160.778 444.726 194.057 465.475 243.785 465.727C302.557 468.475 347.553 444.918 352.49 442.27C351.751 442.213 350.623 442.128 349.704 442.06C348.841 441.996 348.162 441.946 348.162 441.946L334.386 441.033L315.38 440.046L292.11 439.229L267.774 438.797L240.167 438.805L215.981 439.245L192.636 440.076L173.395 441.086L159.91 441.99C159.91 441.99 157.428 442.175 156.199 442.27Z" stroke="#64615E" stroke-width="6" stroke-linecap="round" stroke-linejoin="round"/>
<path d="M397.741 409.504C397.741 409.504 419.239 384.192 430.512 369.421C430.182 369.199 429.756 368.932 429.272 368.639C426.677 367.069 422.423 364.766 422.423 364.766L402.748 359.031L371.994 353.996L329.223 350.036L280.346 348.997L227.292 349.02L179.124 350.38L135.512 353.661L104.921 358.578L85.9538 365.615C85.9538 365.615 80.1188 368.114 78.1758 369.421C89.8838 385.648 110.947 409.504 110.947 409.504" stroke="#545250" stroke-width="6" stroke-linecap="round" stroke-linejoin="round"/>
<path d="M434.204 155.755L410.424 122.247L387.669 99.3726L387.212 98.9296L359.786 89.4296L322.071 80.8586L277.968 75.9546L229.673 76.0136L185.574 81.0376L147.722 89.5946L118.055 103.021L98.7218 120.03L77.0288 150.215" stroke="#6A7880" stroke-width="6" stroke-linecap="round" stroke-linejoin="round"/>
<path d="M458.068 210.594L448.956 185.489L434.203 155.755L432.773 154.686L414.189 140.805L383.105 129.073L337.002 118.37L283.031 112.48L224.75 112.53L172.364 118.24L125.985 128.94L93.3247 141.356L77.0277 150.215L52.5967 208.319" stroke="#6A7880" stroke-width="6" stroke-linecap="round" stroke-linejoin="round"/>
<path d="M462.111 267.385L458.068 210.594L457.065 209.888L432.726 192.74L394.401 178.008L342.931 167.732L284.893 162.516L222.929 162.555L164.645 167.889L114.22 177.999L76.2737 192.043L55.1217 206.28L52.5967 208.319L46.5767 267.385" stroke="#6A7880" stroke-width="6" stroke-linecap="round" stroke-linejoin="round"/>
<path d="M453.717 318.156L462.111 267.385L459.442 264.115L454.254 257.761L432.583 246.58L396.197 236.159L345.411 228.415L284.933 224.144L222.731 224.179L162.244 228.53L110.706 236.763L73.0067 247.733L53.6547 258.377L46.5757 267.385L54.4337 320.366" stroke="#736F6C" stroke-width="6" stroke-linecap="round" stroke-linejoin="round"/>
<path d="M430.512 369.421C430.512 369.421 446.838 336.571 453.716 318.156C453.147 317.761 452.372 317.281 451.516 316.777C448.691 315.113 444.997 313.189 444.997 313.189L424.824 304.745L390.323 297.541L340.96 290.807L283.909 287.253L223.782 287.283L166.828 290.895L117.396 297.72L83.3756 304.149L63.0566 313.496C63.0566 313.496 56.7266 318.773 54.4336 320.366C62.7846 343.589 78.1756 369.421 78.1756 369.421" stroke="#4D4B49" stroke-width="6" stroke-linecap="round" stroke-linejoin="round"/>
<path d="M458.069 210.593L448.957 185.489L434.204 155.753L410.669 121.622L387.212 98.9286L384.215 96.7966L383.9 96.4416L383.875 96.5536L359.628 79.2856L337.05 68.0466L304.274 56.9796L269.95 51.5226L238.128 51.5686L203.037 57.2326L168.028 69.6556L147.377 80.7646L118.053 103.021L98.7206 120.03L77.0286 150.215L52.5976 208.319L46.5776 267.384L54.4336 320.364C62.7856 343.588 78.1756 369.421 78.1756 369.421C89.8836 385.647 110.948 409.502 110.948 409.502C135.174 429.233 156.199 442.27 156.199 442.27C160.778 444.725 170.233 449.13 170.233 449.13L182.786 453.728L203.29 459.987L204.281 460.208L204.6 460.406L204.569 460.273L220.808 463.896L234.212 465.692L247.923 466.755L260.666 466.786L273.775 465.843L285.613 464.351L300.665 461.263L321.434 455.211L337.331 449.624C337.331 449.624 347.552 444.918 352.49 442.27C352.49 442.27 381.339 422.868 397.742 409.502C397.742 409.502 419.24 384.191 430.512 369.421C430.512 369.421 446.84 336.571 453.717 318.156L462.112 267.384L458.069 210.593Z" stroke="#7A868B" stroke-width="8" stroke-linecap="round" stroke-linejoin="round"/>
<path d="M461.469 258.358L462.112 267.384L453.717 318.154C446.839 336.57 430.512 369.42 430.512 369.42C419.24 384.19 397.741 409.502 397.741 409.502C381.338 422.868 352.49 442.269 352.49 442.269C347.552 444.917 337.33 449.623 337.33 449.623L321.434 455.21L300.664 461.263L285.613 464.351L273.775 465.841L260.665 466.786L247.922 466.754L234.211 465.691L220.808 463.895L204.569 460.273L204.6 460.404L204.281 460.207L203.289 459.986L182.785 453.727L170.233 449.128C170.233 449.128 160.778 444.724 156.198 442.269C156.198 442.269 135.174 429.233 110.948 409.502C110.948 409.502 89.8837 385.646 78.1757 369.42C78.1757 369.42 62.7847 343.587 54.4337 320.364L46.5767 267.384L47.4197 259.113" stroke="#605A5A" stroke-width="8" stroke-linecap="round" stroke-linejoin="round"/>
</g>
</g>
<defs>
<linearGradient id="paint0_linear_2048_29029" x1="392.728" y1="358.03" x2="398.194" y2="309.248" gradientUnits="userSpaceOnUse">
<stop stop-color="#9E9891"/>
<stop offset="0.5" stop-color="#9E9891"/>
<stop offset="1" stop-color="#9E9891"/>
</linearGradient>
<linearGradient id="paint1_linear_2048_29029" x1="352.235" y1="353.153" x2="354.135" y2="305.814" gradientUnits="userSpaceOnUse">
<stop stop-color="#737475"/>
<stop offset="0.5" stop-color="#5E5F60"/>
<stop offset="1" stop-color="#494A4B"/>
</linearGradient>
<linearGradient id="paint2_linear_2048_29029" x1="303.721" y1="352.751" x2="311.608" y2="303.187" gradientUnits="userSpaceOnUse">
<stop stop-color="#616263"/>
<stop offset="0.5" stop-color="#505152"/>
<stop offset="1" stop-color="#3E3F40"/>
</linearGradient>
<linearGradient id="paint3_linear_2048_29029" x1="254.324" y1="349.385" x2="257.019" y2="292.836" gradientUnits="userSpaceOnUse">
<stop stop-color="#555758"/>
<stop offset="0.5" stop-color="#464849"/>
<stop offset="1" stop-color="#38393A"/>
</linearGradient>
<linearGradient id="paint4_linear_2048_29029" x1="203.192" y1="346.1" x2="202.816" y2="293.54" gradientUnits="userSpaceOnUse">
<stop stop-color="#565757"/>
<stop offset="0.5" stop-color="#565757"/>
<stop offset="1" stop-color="#565757"/>
</linearGradient>
<linearGradient id="paint5_linear_2048_29029" x1="164.232" y1="347.518" x2="156.746" y2="294.969" gradientUnits="userSpaceOnUse">
<stop stop-color="#818383"/>
<stop offset="0.5" stop-color="#6E7071"/>
<stop offset="1" stop-color="#5C5E5F"/>
</linearGradient>
<linearGradient id="paint6_linear_2048_29029" x1="409.228" y1="300.476" x2="418.101" y2="244.744" gradientUnits="userSpaceOnUse">
<stop stop-color="#A9A29A"/>
<stop offset="0.5" stop-color="#A9A29A"/>
<stop offset="1" stop-color="#A9A29A"/>
</linearGradient>
<linearGradient id="paint7_linear_2048_29029" x1="373.182" y1="286.316" x2="379.309" y2="241.467" gradientUnits="userSpaceOnUse">
<stop stop-color="#A89F97"/>
<stop offset="0.5" stop-color="#C5BBB2"/>
<stop offset="1" stop-color="#E2D7CD"/>
</linearGradient>
<linearGradient id="paint8_linear_2048_29029" x1="317.432" y1="283.479" x2="319.907" y2="233.312" gradientUnits="userSpaceOnUse">
<stop stop-color="#686C6C"/>
<stop offset="0.5" stop-color="#686C6C"/>
<stop offset="1" stop-color="#686C6C"/>
</linearGradient>
<linearGradient id="paint9_linear_2048_29029" x1="254.687" y1="282.413" x2="255.405" y2="229.771" gradientUnits="userSpaceOnUse">
<stop stop-color="#909395"/>
<stop offset="0.5" stop-color="#7D8082"/>
<stop offset="1" stop-color="#6B6D6E"/>
</linearGradient>
<linearGradient id="paint10_linear_2048_29029" x1="197.084" y1="283.845" x2="194.786" y2="231.255" gradientUnits="userSpaceOnUse">
<stop stop-color="#6F7173"/>
<stop offset="0.5" stop-color="#818385"/>
<stop offset="1" stop-color="#939496"/>
</linearGradient>
<linearGradient id="paint11_linear_2048_29029" x1="378.747" y1="182.592" x2="377.051" y2="229.542" gradientUnits="userSpaceOnUse">
<stop stop-color="#C3BFBA"/>
<stop offset="0.5" stop-color="#C3BFBA"/>
<stop offset="1" stop-color="#C3BFBA"/>
</linearGradient>
<linearGradient id="paint12_linear_2048_29029" x1="369.002" y1="181.773" x2="367.966" y2="225.852" gradientUnits="userSpaceOnUse">
<stop stop-color="#E8EEF5"/>
<stop offset="0.5" stop-color="#CFDAE5"/>
<stop offset="1" stop-color="#B6C7D5"/>
</linearGradient>
<clipPath id="clip0_2048_29029">
<rect width="512" height="512" fill="white" transform="translate(0.0566406 0.475586)"/>
</clipPath>
</defs>
</svg>
