<svg width="513" height="513" viewBox="0 0 513 513" fill="none" xmlns="http://www.w3.org/2000/svg">
<g clip-path="url(#clip0_1321_103540)">
<mask id="mask0_1321_103540" style="mask-type:luminance" maskUnits="userSpaceOnUse" x="0" y="0" width="513" height="513">
<path d="M512.897 0.930176H0.897461V512.93H512.897V0.930176Z" fill="white"/>
</mask>
<g mask="url(#mask0_1321_103540)">
<mask id="mask1_1321_103540" style="mask-type:luminance" maskUnits="userSpaceOnUse" x="-158" y="-209" width="891" height="891">
<path d="M364.891 -208.084L732.196 159.221L209.934 681.483L-157.372 314.178L364.891 -208.084Z" fill="white"/>
</mask>
<g mask="url(#mask1_1321_103540)">
<path d="M206.128 256.911C216.623 258.185 279.338 198.571 279.338 198.571L289.534 208.721C289.534 208.721 224.786 275.705 222.779 283.666C221.724 283.412 204.778 299.382 203.393 299.681C201.964 301.353 187.105 316.846 186.138 318.561C181.651 317.725 125.988 362.75 125.988 362.75L115.967 352.354C119.267 346.108 180.422 283.002 183.425 279.704C184.148 278.909 190.859 272.165 191.392 271.62C192.393 270.597 206.128 256.911 206.128 256.911Z" fill="url(#paint0_linear_1321_103540)"/>
<path d="M206.128 256.911C216.623 258.185 279.338 198.571 279.338 198.571L289.534 208.721C289.534 208.721 224.786 275.705 222.779 283.666C221.724 283.412 204.778 299.382 203.393 299.681C201.964 301.353 187.105 316.846 186.138 318.561C181.651 317.725 125.988 362.75 125.988 362.75L115.967 352.354C119.267 346.108 180.422 283.002 183.425 279.704C184.148 278.909 190.859 272.165 191.392 271.62C192.393 270.597 206.128 256.911 206.128 256.911Z" stroke="#7F0012" stroke-width="8.11638" stroke-linecap="round" stroke-linejoin="round"/>
<path d="M290.049 209.343C290.049 209.343 226.094 269.335 216.541 267.596C216.541 267.596 132.242 352.754 126.275 363.496C126.275 363.496 180.265 319.439 185.48 320.052C185.48 320.052 205.871 298.198 207.164 296.904L222.846 285.025C222.846 285.025 282.222 219.782 290.049 209.343Z" fill="url(#paint1_linear_1321_103540)"/>
<path d="M290.049 209.343C290.049 209.343 226.094 269.335 216.541 267.596C216.541 267.596 132.242 352.754 126.275 363.496C126.275 363.496 180.265 319.439 185.48 320.052C185.48 320.052 205.871 298.198 207.164 296.904L222.846 285.025C222.846 285.025 282.222 219.782 290.049 209.343Z" stroke="#7F0012" stroke-width="8.11638" stroke-linecap="round" stroke-linejoin="round"/>
<path d="M308.969 385.598C302.477 332.113 332.368 299.863 332.368 299.863L332.01 299.505C332.01 299.505 280.776 338.03 240.206 348.257C241.499 353.634 244.189 360.986 242.664 368.05C234.145 375.334 223.564 382.687 214.819 387.62C219.08 410.486 214.369 458.655 214.369 458.655L214.908 457.758C246.744 440.945 273.813 418.792 290.623 403.488C294.668 399.806 298.119 396.52 300.9 393.801C306.111 388.705 308.969 385.598 308.969 385.598Z" stroke="#7F0012" stroke-width="8.11638" stroke-linecap="round" stroke-linejoin="round"/>
<path d="M240.624 367.584C240.624 367.584 241.593 358.222 237.848 344.907C255.402 339.275 292.09 325.674 331.166 300.127C330.069 301.053 320.606 309.827 314.135 327.733C314.135 327.733 314.135 327.733 314.128 327.74C313.734 328.177 298.912 344.548 240.624 367.584ZM212.947 459.051C212.947 459.051 213.55 454.848 214.231 447.925L214.238 447.918C274.987 410.943 299.328 380.719 299.328 380.719C291.882 339.455 308.956 312.51 309.207 312.101C316.811 307.868 324.652 303.169 332.601 297.975C330.65 299.625 302.198 326.111 311.259 384.758C311.259 384.758 274.614 426.066 212.947 459.051ZM308.97 383.402C308.97 383.402 242.217 423.225 216.563 423.139ZM331.651 299.146C331.651 299.146 300.864 345.205 310.942 386.495C310.942 386.495 268.222 428.781 213.474 459.193C213.474 459.193 216.57 411.564 213.447 384.986C213.447 384.986 235.624 371.702 242.215 365.11L237.177 346.472C237.177 346.472 278.45 339.039 331.651 299.146Z" fill="url(#paint2_linear_1321_103540)"/>
<g opacity="0.4">
<path d="M240.624 367.584C240.624 367.584 241.592 358.222 237.847 344.907C255.402 339.275 292.089 325.674 331.166 300.127C330.068 301.053 320.606 309.826 314.135 327.733C314.135 327.733 314.135 327.733 314.128 327.74C313.733 328.177 298.912 344.548 240.624 367.584Z" fill="#7F0012"/>
</g>
<g opacity="0.4">
<path d="M212.947 459.051C212.947 459.051 213.55 454.848 214.231 447.925L214.238 447.918C274.992 410.945 299.328 380.719 299.328 380.719C291.882 339.455 308.956 312.51 309.207 312.101C316.811 307.868 324.652 303.169 332.601 297.975C330.65 299.625 302.198 326.111 311.259 384.758C311.259 384.758 274.614 426.066 212.947 459.051Z" fill="#FFF89C"/>
</g>
<g opacity="0.1">
<path d="M308.973 383.405C308.973 383.405 242.216 423.221 216.563 423.139" stroke="#7F0012" stroke-width="6.08728" stroke-linecap="round" stroke-linejoin="round"/>
</g>
<path d="M331.651 299.146C331.651 299.146 300.864 345.205 310.942 386.495C310.942 386.495 268.222 428.781 213.474 459.194C213.474 459.194 216.57 411.564 213.447 384.986C213.447 384.986 235.624 371.702 242.215 365.11L237.177 346.472C237.177 346.472 278.45 339.04 331.651 299.146Z" stroke="#7F0012" stroke-width="8.11638" stroke-linecap="round" stroke-linejoin="round"/>
<path d="M213.341 385.379C213.341 385.379 216.838 434.61 213.43 459.539" stroke="#BC001B" stroke-width="8.11638" stroke-linecap="round"/>
<path d="M123.48 206.924C176.965 213.416 223.832 182.359 223.832 182.359L223.831 181.641C223.831 181.641 176.069 241.214 165.842 281.784C160.466 280.491 154.728 280.85 147.663 282.375C140.38 290.894 134.82 299.682 129.887 308.427C107.021 304.166 44.6838 312.284 44.6838 312.284L45.5805 311.746C62.3934 279.909 90.2849 242.08 105.589 225.27C109.271 221.224 112.558 217.773 115.277 214.992C120.373 209.781 123.48 206.924 123.48 206.924Z" stroke="#7F0012" stroke-width="8.11638" stroke-linecap="round" stroke-linejoin="round"/>
<path d="M222.998 182.676C222.998 182.676 216.441 189.448 196.426 197.885C196.426 197.885 165.578 231.33 147.794 279.919C151.818 279.797 164.774 281.031 174.093 283.262C180.729 265.678 188.298 223.761 222.998 182.676ZM232.116 174.577C232.116 174.577 221.391 185.66 193.319 198.48C156.94 215.088 122.233 205.13 122.233 205.13C122.233 205.13 83.501 237.234 43.5493 313.945C43.5493 313.945 48.5998 312.782 57.3089 311.505C93.0997 245.182 124.127 220.339 124.127 220.339C182.286 228.697 208.858 205.023 215.738 198.43L215.745 198.423C220.638 190.603 226.083 182.619 232.116 174.577ZM127.929 209.894C127.929 209.894 88.1066 276.647 88.1927 302.301ZM224.65 181.384C224.65 181.384 171.016 214.28 122.326 205.411C122.326 205.411 74.3004 257.816 43.8879 312.564C43.8879 312.564 102.457 304.626 129.036 307.748C129.036 307.748 142.141 287.185 148.732 280.594L175.8 281.149C175.8 281.149 184.757 234.585 224.65 181.384Z" fill="url(#paint3_linear_1321_103540)"/>
<g opacity="0.4">
<path d="M222.994 182.678C222.994 182.678 216.441 189.444 196.429 197.885C196.429 197.885 165.581 231.327 147.797 279.919C151.819 279.795 164.778 281.031 174.092 283.266C180.729 265.684 188.298 223.754 222.994 182.678Z" fill="#7F0012"/>
</g>
<g opacity="0.4">
<path d="M232.119 174.573C232.119 174.573 221.394 185.659 193.322 198.475C156.944 215.084 122.228 205.133 122.228 205.133C122.228 205.133 83.5028 237.228 43.5426 313.945C43.5426 313.945 48.6009 312.776 57.3137 311.503C93.0951 245.182 124.13 220.334 124.13 220.334C182.281 228.698 208.855 205.027 215.738 198.437L215.746 198.43C220.643 190.601 226.083 182.612 232.119 174.573Z" fill="#FFF89C"/>
</g>
<g opacity="0.1">
<path d="M127.926 209.891C127.926 209.891 88.1102 276.648 88.1928 302.301" stroke="#7F0012" stroke-width="6.08728" stroke-linecap="round" stroke-linejoin="round"/>
</g>
<path d="M224.651 181.384C224.651 181.384 171.017 214.28 122.326 205.411C122.326 205.411 74.3012 257.816 43.8887 312.564C43.8887 312.564 102.458 304.626 129.037 307.748C129.037 307.748 142.142 287.185 148.733 280.594L175.801 281.149C175.801 281.149 184.757 234.585 224.651 181.384Z" stroke="#7F0012" stroke-width="8.11638" stroke-linecap="round" stroke-linejoin="round"/>
<path d="M120.444 207.5C111.284 217.757 70.7284 264.249 43.8886 312.564C43.8886 312.564 102.458 304.626 129.037 307.748C129.037 307.748 142.142 287.185 148.733 280.594C148.733 280.594 158.999 280.805 166.886 280.967" stroke="#B80023" stroke-width="8.11638" stroke-linecap="round" stroke-linejoin="round"/>
<path d="M153.602 316.582C149.522 316.024 145.731 316.24 142.298 317.061C138.864 317.882 135.79 319.306 133.144 321.164C131.048 322.636 129.22 324.38 127.696 326.31C126.172 328.241 124.952 330.358 124.07 332.577C124.07 332.577 118.599 333.954 113.351 337.299C108.104 340.643 103.08 345.955 103.973 353.825C103.973 353.825 100.701 355.072 97.6081 357.812C94.515 360.551 91.6008 364.784 92.3175 370.752C92.3175 370.752 87.269 372.643 83.0951 376.91C78.9212 381.177 75.6223 387.818 79.1206 397.318C79.1206 397.318 74.6347 399.56 71.1154 403.998C67.5961 408.436 65.044 415.07 68.9102 423.854C59.6782 430.867 60.6292 436.086 61.5281 442.116C62.427 448.146 63.2727 454.987 53.8283 465.247C56.1185 463.102 64.4016 453.661 73.624 451.466C73.624 451.466 96.2816 458.071 105.73 442.347C105.73 442.347 118.755 443.421 125.976 431.795C125.976 431.795 147.252 436.765 158.202 406.166C158.202 406.166 173.882 410.28 180.661 396.062C180.661 396.062 193.582 395.813 201.622 385.548C204.585 381.764 206.885 376.62 207.631 369.626C210.4 343.658 172.425 319.156 153.602 316.582Z" fill="url(#paint4_radial_1321_103540)"/>
<g opacity="0.5">
<path d="M119.005 345.266C112.305 344.094 110.799 356.571 115.517 357.873C120.236 359.174 126.688 346.609 119.005 345.266Z" fill="#FFF276"/>
</g>
<g opacity="0.5">
<path d="M104.601 366.352C98.073 367.138 93.5019 381.198 101.075 384.854C108.649 388.509 116.186 364.958 104.601 366.352Z" fill="#FFF276"/>
</g>
<g opacity="0.5">
<path d="M108.472 408.002C101.115 409.156 106.4 422.237 119.89 421.458C126.435 421.08 118.959 406.357 108.472 408.002Z" fill="#FFF276"/>
</g>
<g opacity="0.5">
<path d="M98.6352 398.098C98.0342 385.325 84.0618 384.429 82.651 396.903C81.2402 409.378 99.4695 415.833 98.6352 398.098Z" fill="#FFF276"/>
</g>
<g opacity="0.5">
<path d="M88.5895 412.915C82.8544 412.059 84.856 423.299 90.9484 424.67C97.0409 426.041 96.4828 414.094 88.5895 412.915Z" fill="#FFF276"/>
</g>
<g opacity="0.5">
<path d="M112.307 430.348C112.445 422.64 92.1381 422.6 93.4888 430.687C94.8395 438.775 112.168 438.057 112.307 430.348Z" fill="#FFF276"/>
</g>
<g opacity="0.5">
<path d="M74.6836 409.334C67.2251 407.943 66.418 426.431 76.1876 426.223C85.9579 426.014 81.4885 410.604 74.6836 409.334Z" fill="#FFF276"/>
</g>
<g opacity="0.5">
<path d="M90.6247 432.808C90.3757 427.215 77.3638 426.11 76.1243 431.344C75.2556 435.014 90.8296 437.407 90.6247 432.808Z" fill="#FFF276"/>
</g>
<g opacity="0.5">
<path d="M91.5469 441.649C88.1862 435.561 73.8682 437.265 75.2013 443.571C76.5345 449.877 96.0209 449.756 91.5469 441.649Z" fill="#FFF276"/>
</g>
<g opacity="0.5">
<path d="M68.1711 433.678C63.1648 433.435 63.0459 441.979 68.01 442.583C71.6273 443.023 72.577 433.892 68.1711 433.678Z" fill="#FFF276"/>
</g>
<path d="M152.392 315.371C151.053 315.182 149.745 315.075 148.472 315.046C147.316 315.019 146.189 315.056 145.091 315.151C143.958 315.249 142.857 315.411 141.789 315.63C140.388 315.918 139.045 316.305 137.763 316.781C135.613 317.58 133.636 318.627 131.855 319.873C127.656 322.811 124.542 326.847 122.792 331.299C122.792 331.299 100.825 336.724 102.701 352.552C102.701 352.552 89.5725 357.501 91.0725 369.505C91.0725 369.505 70.8148 377.008 77.9428 396.139C77.9428 396.139 59.9534 405.062 67.8139 422.758C49.3267 436.761 71.7452 443.756 52.8649 464.284C55.1555 462.139 63.4328 452.693 72.6908 450.533C72.6908 450.533 95.4974 457.285 104.914 441.53C104.914 441.53 118.01 442.674 125.209 431.026C125.209 431.026 146.617 436.129 157.467 405.431C157.467 405.431 173.248 409.644 179.989 395.389C179.989 395.389 192.974 395.204 201.002 384.927C202.055 383.578 203.025 382.057 203.867 380.338C204.417 379.215 204.913 378.008 205.345 376.712C205.632 375.85 205.89 374.949 206.116 374.005C206.491 372.439 206.778 370.759 206.961 368.956C209.612 342.87 171.323 318.054 152.392 315.371Z" stroke="#F75C00" stroke-width="8.11638" stroke-linecap="round" stroke-linejoin="round"/>
<path d="M70.8964 364.066C68.2306 356.958 50.3581 359.82 53.1431 368.53C55.928 377.241 74.0242 372.403 70.8964 364.066Z" fill="#FFEE4D"/>
<path d="M70.8964 364.066C68.2306 356.958 50.3581 359.82 53.1431 368.53C55.928 377.241 74.0242 372.403 70.8964 364.066Z" stroke="#F75C00" stroke-width="8.11638" stroke-linecap="round" stroke-linejoin="round"/>
<path d="M129.457 460.393C123.683 457.862 111.775 471.386 118.489 474.806C125.202 478.227 136.23 463.362 129.457 460.393Z" fill="#FFEE4D"/>
<path d="M129.457 460.393C123.683 457.862 111.775 471.386 118.489 474.806C125.202 478.227 136.23 463.362 129.457 460.393Z" stroke="#F75C00" stroke-width="8.11638" stroke-linecap="round" stroke-linejoin="round"/>
<path d="M54.2512 389.661C54.2512 390.427 53.6314 391.047 52.8652 391.047C52.0991 391.047 51.4792 390.427 51.4792 389.661C51.4792 388.895 52.0991 388.275 52.8652 388.275C53.6314 388.275 54.2512 388.895 54.2512 389.661Z" fill="#FFEE4D"/>
<path d="M54.2512 389.661C54.2512 390.427 53.6314 391.047 52.8652 391.047C52.0991 391.047 51.4792 390.427 51.4792 389.661C51.4792 388.895 52.0991 388.275 52.8652 388.275C53.6314 388.275 54.2512 388.895 54.2512 389.661Z" stroke="#F75C00" stroke-width="8.11638" stroke-linecap="round" stroke-linejoin="round"/>
<mask id="mask2_1321_103540" style="mask-type:luminance" maskUnits="userSpaceOnUse" x="-80" y="-131" width="735" height="736">
<path d="M287.412 -130.606L654.717 236.699L287.412 604.005L-79.8932 236.699L287.412 -130.606Z" fill="white"/>
</mask>
<g mask="url(#mask2_1321_103540)">
<path d="M459.397 167.4C457.245 169.551 453.759 169.551 451.607 167.4C449.456 165.249 449.456 161.762 451.607 159.611C453.759 157.459 457.245 157.459 459.397 159.611C461.548 161.762 461.548 165.249 459.397 167.4Z" fill="#101516"/>
<path d="M459.398 164.616C458.015 165.998 455.774 165.998 454.392 164.616C453.009 163.233 453.009 160.992 454.392 159.61C455.774 158.228 458.015 158.228 459.398 159.61C460.78 160.992 460.78 163.233 459.398 164.616Z" fill="#E1EDF0"/>
<g opacity="0.3">
<path d="M363.546 71.4605C361.395 73.612 357.908 73.612 355.757 71.4605C353.605 69.3091 353.605 65.8226 355.757 63.6711C357.908 61.5196 361.395 61.5196 363.546 63.6711C365.698 65.8226 365.698 69.3091 363.546 71.4605Z" fill="#101516"/>
</g>
<path d="M363.547 68.6764C362.165 70.0589 359.923 70.0589 358.541 68.6764C357.159 67.294 357.159 65.0529 358.541 63.6705C359.923 62.288 362.165 62.288 363.547 63.6705C364.929 65.0529 364.929 67.294 363.547 68.6764Z" fill="#E1EDF0"/>
</g>
<mask id="mask3_1321_103540" style="mask-type:luminance" maskUnits="userSpaceOnUse" x="-328" y="-101" width="951" height="951">
<path d="M147.162 -100.117L622.077 374.797L147.162 849.712L-327.753 374.797L147.162 -100.117Z" fill="white"/>
</mask>
<g mask="url(#mask3_1321_103540)">
<path d="M369.533 285.195C366.751 287.977 362.243 287.977 359.461 285.195C356.68 282.413 356.68 277.905 359.461 275.124C362.243 272.342 366.751 272.342 369.533 275.124C372.315 277.905 372.315 282.413 369.533 285.195Z" fill="#101516"/>
<path d="M369.533 281.595C367.746 283.383 364.848 283.383 363.061 281.595C361.273 279.808 361.273 276.91 363.061 275.123C364.848 273.335 367.746 273.335 369.533 275.123C371.321 276.91 371.321 279.808 369.533 281.595Z" fill="#E1EDF0"/>
<g opacity="0.3">
<path d="M245.601 161.149C242.819 163.931 238.311 163.931 235.53 161.149C232.748 158.367 232.748 153.859 235.53 151.077C238.311 148.295 242.819 148.295 245.601 151.077C248.383 153.859 248.383 158.367 245.601 161.149Z" fill="#101516"/>
</g>
<path d="M245.602 157.549C243.815 159.336 240.917 159.336 239.13 157.549C237.343 155.761 237.343 152.864 239.13 151.076C240.917 149.289 243.815 149.289 245.602 151.076C247.39 152.864 247.39 155.761 245.602 157.549Z" fill="#E1EDF0"/>
</g>
<path d="M163.741 290.897L148.268 307.384C148.268 307.384 151.847 320.537 175.084 343.774C198.2 366.891 212.809 371.703 212.809 371.703L228.988 356.959L229.113 346.037L174.394 291.318L163.741 290.897Z" fill="#282828"/>
<path d="M179.989 348.678L201.472 327.195L220.472 342.786L199.081 364.176L179.989 348.678Z" fill="#1D4861"/>
<path d="M219.156 344.101L199.082 364.176L194.767 361.053L214.889 340.931L219.156 344.101Z" fill="#60673A"/>
<path d="M175.758 296.881L154.22 318.419L168.671 337.062L190.12 315.613L175.758 296.881Z" fill="#2A5D77"/>
<path d="M188.391 317.341L168.672 337.061L165.208 333.597L184.928 313.877L188.391 317.341Z" fill="#8E7949"/>
<path d="M174.91 297.73L154.22 318.42L152.392 315.372L172.979 294.786L174.91 297.73Z" fill="#60673A"/>
<path d="M199.859 328.808L179.989 348.678L168.672 337.061L188.393 317.341L199.859 328.808Z" fill="#A0A0A0"/>
<g opacity="0.5">
<path d="M163.741 290.897C163.741 290.897 167.408 305.706 191.379 329.678C215.351 353.65 228.988 356.959 228.988 356.959L229.113 346.037L174.394 291.318L163.741 290.897Z" fill="black"/>
</g>
<path d="M163.741 290.897L148.268 307.384C148.268 307.384 151.847 320.537 175.084 343.774C198.2 366.891 212.809 371.703 212.809 371.703L228.988 356.959L229.113 346.037L174.394 291.318L163.741 290.897Z" stroke="#0F0F0F" stroke-width="8.11638" stroke-linecap="round" stroke-linejoin="round"/>
<path d="M176.405 297.264C174.37 293.96 173.795 289.954 174.814 286.209C181.318 262.288 211.555 169.236 302.456 104.018C323.213 89.1252 349.691 76.4639 369.182 69.729C414.447 54.0884 448.664 57.6524 458.934 67.5152C466.546 74.8261 471.538 105.944 453.516 154.637C445.325 176.77 430.389 203.16 409.375 229.627C348.12 306.779 258.704 338.05 234.149 345.473C230.027 346.72 225.569 346.009 222.035 343.548C211.859 336.461 190.271 319.774 176.405 297.264Z" fill="url(#paint5_linear_1321_103540)"/>
<g opacity="0.3">
<path d="M234.146 345.478C230.021 346.719 225.566 346.009 222.03 343.548C211.857 336.46 190.271 319.781 176.404 297.262C174.366 293.962 173.799 289.952 174.818 286.207C179.087 270.474 195.78 227.007 231.098 179.064C231.098 179.064 230.712 179.814 230.019 181.191C229.559 182.106 228.962 183.297 228.252 184.731C219.136 203.128 191.294 261.317 192.05 284.227C192.228 289.616 200.544 299.342 204.895 300.838C208.692 302.143 277.474 252.085 287.712 255.206C298.27 258.425 223.19 325.504 228.802 328.024C240.853 333.445 281.784 277.772 316.579 248.504C317.098 248.067 340.583 270.58 341.088 270.144C385.168 232.242 422.035 184.811 442.755 143.172C444.077 140.518 435.423 132.127 437.269 129.941C461.485 101.261 460.425 75.1482 458.934 67.5166C466.546 74.8268 471.539 105.947 453.511 154.637C445.325 176.768 430.389 203.154 409.377 229.633C348.126 306.782 258.703 338.053 234.146 345.478Z" fill="#000C66"/>
</g>
<path d="M355.464 282.512C290.705 228.055 244.003 172.328 238.034 165.111C255.043 143.983 276.221 122.835 302.456 104.017C323.217 89.1243 349.689 76.4695 369.181 69.7332C369.181 69.7332 413.531 95.9747 453.511 154.636C445.325 176.768 430.389 203.154 409.376 229.633C392.847 250.452 374.26 267.935 355.464 282.512Z" fill="url(#paint6_linear_1321_103540)"/>
<g opacity="0.1">
<path d="M355.464 282.512C341.74 270.97 328.827 259.376 316.947 248.199C369.472 255.696 447.543 169.835 432.964 127.477C439.779 135.612 446.709 144.651 453.51 154.637C445.325 176.769 430.388 203.154 409.376 229.633C392.847 250.452 374.26 267.935 355.464 282.512Z" fill="#101516"/>
</g>
<g opacity="0.5">
<path d="M333.065 252.86C320.278 241.188 308.503 229.806 297.973 219.227" stroke="#FFF88F" stroke-width="8.11638" stroke-linecap="round" stroke-linejoin="round"/>
</g>
<g opacity="0.5">
<path d="M375.102 67.7726C375.102 67.7726 415.392 89.3173 455.731 148.402" stroke="#9FC6FF" stroke-width="8.11638" stroke-linecap="round" stroke-linejoin="round"/>
</g>
<g opacity="0.45">
<path d="M464.948 109.466C464.948 109.466 464.732 85.334 455.442 73.969C446.152 62.6041 406.337 65.1903 380.04 74.2302C364.681 79.5095 326.062 89.5896 264.551 146.625C243.076 166.538 209.53 206.245 209.53 206.245" stroke="white" stroke-width="8.11638" stroke-linecap="round" stroke-linejoin="round"/>
</g>
<path d="M176.405 297.264C174.37 293.96 173.795 289.954 174.814 286.209C181.318 262.288 211.555 169.236 302.456 104.018C323.213 89.1252 349.691 76.4639 369.182 69.729C414.447 54.0884 448.664 57.6524 458.934 67.5152C466.546 74.8261 471.538 105.944 453.516 154.637C445.325 176.77 430.389 203.16 409.375 229.627C348.12 306.779 258.704 338.05 234.149 345.473C230.027 346.72 225.569 346.009 222.035 343.548C211.859 336.461 190.271 319.774 176.405 297.264Z" stroke="#00479B" stroke-width="8.11638" stroke-miterlimit="10"/>
<g opacity="0.5">
<path d="M234.232 169.904C243.57 181.425 256.656 197.561 289.693 230.769C307.094 248.261 336.908 275.282 350.198 286.497" stroke="#9FC6FF" stroke-width="8.11638" stroke-linecap="round" stroke-linejoin="round"/>
</g>
<path d="M463.563 76.4016C467.624 90.2516 467.346 117.268 453.516 154.637C445.325 176.77 430.389 203.16 409.375 229.627C348.12 306.779 258.704 338.049 234.149 345.474C230.027 346.72 225.569 346.009 222.035 343.548C211.859 336.461 190.271 319.774 176.405 297.264C174.37 293.96 173.795 289.954 174.814 286.209C181.318 262.288 211.555 169.236 302.456 104.018" stroke="#001147" stroke-width="8.11638" stroke-linecap="round" stroke-linejoin="round"/>
<path d="M355.464 282.512C290.705 228.055 244.003 172.328 238.034 165.111C255.043 143.983 276.221 122.835 302.456 104.017C323.217 89.1243 349.689 76.4695 369.181 69.7332C369.181 69.7332 413.531 95.9747 453.511 154.636C445.325 176.768 430.389 203.154 409.376 229.633C392.847 250.452 374.26 267.935 355.464 282.512Z" stroke="#5C626D" stroke-width="8.11638" stroke-linecap="round" stroke-linejoin="round"/>
<path d="M449.159 148.4L453.512 154.637C445.326 176.768 430.389 203.155 409.377 229.634C392.848 250.452 374.26 267.935 355.465 282.513L352.093 279.577" stroke="#20242D" stroke-width="8.11638" stroke-linecap="round" stroke-linejoin="round"/>
<path d="M254.232 296.095L239.884 317.617ZM237.732 331.965L229.841 339.856ZM239.92 340.581C260.197 296.971 297.036 264.531 297.036 264.531L287.711 255.206C287.711 255.206 245.983 294.628 212.228 324.225C209.798 329.117 205.023 335.738 198.552 341.403C191.271 347.779 182.047 352.957 179.128 356.952C151.286 395.063 129.717 422.785 129.717 422.785L139.043 432.112C169.77 409.263 200.938 378.991 219.381 361.137C223.819 356.841 227.655 353.047 230.771 349.924C236.609 344.072 239.92 340.581 239.92 340.581Z" fill="url(#paint7_linear_1321_103540)"/>
<path d="M254.232 296.095L239.885 317.617Z" fill="#505459"/>
<path d="M254.232 296.095L239.885 317.617" stroke="#F8643E" stroke-width="9.13092"/>
<path d="M237.732 331.965L229.841 339.856" stroke="#FCB611" stroke-width="9.13092"/>
<path d="M239.92 340.581C260.197 296.971 297.036 264.531 297.036 264.531L287.711 255.206C287.711 255.206 245.983 294.628 212.228 324.225C209.798 329.117 205.023 335.738 198.552 341.403C191.271 347.779 182.047 352.957 179.128 356.952C151.286 395.063 129.717 422.785 129.717 422.785L139.043 432.112C169.77 409.263 200.938 378.991 219.381 361.137C223.819 356.841 227.655 353.047 230.771 349.924C236.609 344.072 239.92 340.581 239.92 340.581Z" stroke="#BC001B" stroke-width="8.11638" stroke-linecap="round" stroke-linejoin="round"/>
<path d="M205.472 318.443C205.472 318.443 214.87 330.423 211.125 317.108C228.68 311.477 243.393 281.999 282.47 256.453C281.372 257.378 282.656 256.338 283.826 256.531C283.826 256.531 264.456 271.955 264.449 271.963C264.054 272.4 253.681 281.525 205.472 318.443ZM227.596 331.155C227.596 331.155 200.63 352.813 154.831 381.996ZM287.711 255.206C287.711 255.206 250.514 287.287 230.236 330.897C230.236 330.897 184.383 380.73 132.408 419.378C132.408 419.378 151.953 388.717 175.246 356.469C175.246 356.469 191.863 341.93 198.454 335.339L211.351 318.493C211.351 318.493 234.51 295.099 287.711 255.206Z" fill="url(#paint8_linear_1321_103540)"/>
<g opacity="0.4">
<path d="M205.472 318.442C205.472 318.442 214.87 330.423 211.125 317.108C228.68 311.477 243.397 282.002 282.474 256.456C281.376 257.381 282.659 256.338 283.826 256.531C283.826 256.531 264.456 271.955 264.449 271.963C264.054 272.4 253.685 281.527 205.472 318.442Z" fill="#7F0012"/>
</g>
<g opacity="0.4">
<path d="M227.596 331.158C227.596 331.158 200.626 352.814 154.828 381.994" stroke="#BC001B" stroke-width="6.08728" stroke-linecap="round" stroke-linejoin="round"/>
</g>
<path d="M287.711 255.206C287.711 255.206 250.514 287.287 230.236 330.897C230.236 330.897 184.383 380.73 132.408 419.378C132.408 419.378 151.953 388.717 175.246 356.469C175.246 356.469 191.863 341.93 198.454 335.339L211.351 318.493C211.351 318.493 234.51 295.099 287.711 255.206Z" stroke="#510013" stroke-width="8.11638" stroke-linecap="round" stroke-linejoin="round"/>
<path d="M367.968 105.745C353.468 90.0749 327.871 87.9285 300.257 110.11C273.351 131.724 267.146 159.709 284.967 177.529C304.941 197.504 337.27 190.631 358.515 170.975C376.98 153.893 385.953 125.181 367.968 105.745Z" fill="#FF1A1A"/>
<g opacity="0.4">
<path d="M286.719 168.79C279.522 180.026 297.015 193.096 305.598 180.979C314.181 168.862 293.917 157.553 286.719 168.79Z" fill="#FFF89C"/>
</g>
<g opacity="0.4">
<path d="M370.562 137.17C382.643 139.745 367.94 167.65 356.427 159.662C351.087 155.958 352.426 133.305 370.562 137.17Z" fill="#FFF89C"/>
</g>
<path d="M354.497 112.217C342.868 100.588 321.702 106.072 306.822 118.357C291.943 130.642 283.272 150.673 293.589 163.397C305.273 177.807 328.73 172.008 343.925 159.096C359.263 146.063 366.144 123.864 354.497 112.217Z" fill="url(#paint9_linear_1321_103540)"/>
<g opacity="0.2">
<path d="M308.465 116.588C289.564 129.808 286.044 147.211 295.396 165.203C295.396 165.203 287.15 141.686 318.241 122.055C341.996 107.058 359.15 123.737 358.877 133.113C364.173 121.916 346.723 89.8273 308.465 116.588Z" fill="white"/>
</g>
<path d="M354.56 112.28C342.382 100.103 320.846 105.217 305.905 117.441C290.964 129.664 282.561 149.963 293.423 163.23C305.722 178.256 329.596 172.874 344.845 160.016C360.236 147.037 366.756 124.477 354.56 112.28Z" stroke="black" stroke-width="8.11638" stroke-miterlimit="10"/>
<path d="M367.968 105.745C353.468 90.0749 327.871 87.9285 300.257 110.11C273.351 131.724 267.146 159.709 284.967 177.529C304.941 197.504 337.27 190.631 358.515 170.975C376.98 153.893 385.953 125.181 367.968 105.745Z" stroke="#AF0022" stroke-width="8.11638" stroke-miterlimit="10"/>
<path d="M300.257 110.11C273.35 131.724 267.145 159.709 284.966 177.529C295.942 188.505 310.647 191.374 325.194 188.472" stroke="#7F0012" stroke-width="8.11638" stroke-linecap="round" stroke-linejoin="round"/>
<mask id="mask4_1321_103540" style="mask-type:luminance" maskUnits="userSpaceOnUse" x="-80" y="-131" width="735" height="736">
<path d="M287.412 -130.606L654.717 236.699L287.412 604.005L-79.8932 236.699L287.412 -130.606Z" fill="white"/>
</mask>
<g mask="url(#mask4_1321_103540)">
<g opacity="0.3">
<path d="M414.379 121.935C412.228 124.087 408.741 124.087 406.59 121.935C404.438 119.784 404.438 116.297 406.59 114.146C408.741 111.994 412.228 111.994 414.379 114.146C416.531 116.297 416.531 119.784 414.379 121.935Z" fill="#101516"/>
</g>
<path d="M414.38 119.151C412.998 120.533 410.756 120.533 409.374 119.151C407.992 117.769 407.992 115.527 409.374 114.145C410.756 112.763 412.998 112.763 414.38 114.145C415.762 115.527 415.762 117.769 414.38 119.151Z" fill="#E1EDF0"/>
<g opacity="0.3">
<path d="M385.141 93.2345C382.989 95.3859 379.503 95.3859 377.351 93.2345C375.2 91.083 375.2 87.5965 377.351 85.445C379.503 83.2936 382.989 83.2936 385.141 85.445C387.292 87.5965 387.292 91.083 385.141 93.2345Z" fill="#101516"/>
</g>
<path d="M385.142 90.4504C383.759 91.8328 381.518 91.8328 380.136 90.4504C378.753 89.0679 378.753 86.8268 380.136 85.4444C381.518 84.062 383.759 84.062 385.142 85.4444C386.524 86.8268 386.524 89.0679 385.142 90.4504Z" fill="#E1EDF0"/>
<g opacity="0.5">
<path d="M443.751 151.754C441.6 153.906 438.113 153.906 435.962 151.754C433.81 149.603 433.81 146.117 435.962 143.965C438.113 141.814 441.6 141.814 443.751 143.965C445.903 146.117 445.903 149.603 443.751 151.754Z" fill="#101516"/>
</g>
<path d="M443.751 148.97C442.369 150.353 440.127 150.353 438.745 148.97C437.363 147.588 437.363 145.347 438.745 143.964C440.127 142.582 442.369 142.582 443.751 143.964C445.133 145.347 445.133 147.588 443.751 148.97Z" fill="#E1EDF0"/>
<g opacity="0.3">
<path d="M364.982 72.9855C362.83 75.1369 359.344 75.1369 357.192 72.9855C355.041 70.834 355.041 67.3475 357.192 65.196C359.344 63.0445 362.83 63.0445 364.982 65.196C367.133 67.3475 367.133 70.834 364.982 72.9855Z" fill="#101516"/>
</g>
<path d="M364.982 70.2013C363.6 71.5838 361.359 71.5838 359.977 70.2013C358.594 68.8189 358.594 66.5778 359.977 65.1954C361.359 63.813 363.6 63.813 364.982 65.1954C366.365 66.5778 366.365 68.8189 364.982 70.2013Z" fill="#E1EDF0"/>
<path d="M459.397 167.4C457.245 169.551 453.759 169.551 451.607 167.4C449.456 165.249 449.456 161.762 451.607 159.611C453.759 157.459 457.245 157.459 459.397 159.611C461.548 161.762 461.548 165.249 459.397 167.4Z" fill="#101516"/>
<path d="M459.398 164.616C458.015 165.998 455.774 165.998 454.392 164.616C453.009 163.233 453.009 160.992 454.392 159.61C455.774 158.228 458.015 158.228 459.398 159.61C460.78 160.992 460.78 163.233 459.398 164.616Z" fill="#E1EDF0"/>
</g>
<mask id="mask5_1321_103540" style="mask-type:luminance" maskUnits="userSpaceOnUse" x="-328" y="-101" width="951" height="951">
<path d="M147.162 -100.117L622.077 374.797L147.162 849.712L-327.753 374.797L147.162 -100.117Z" fill="white"/>
</mask>
<g mask="url(#mask5_1321_103540)">
<g opacity="0.3">
<path d="M311.327 226.411C308.545 229.193 304.037 229.193 301.255 226.411C298.473 223.629 298.473 219.121 301.255 216.339C304.037 213.558 308.545 213.558 311.327 216.339C314.109 219.121 314.109 223.629 311.327 226.411Z" fill="#101516"/>
</g>
<path d="M311.328 222.811C309.541 224.598 306.643 224.598 304.856 222.811C303.068 221.023 303.068 218.126 304.856 216.338C306.643 214.551 309.541 214.551 311.328 216.338C313.116 218.126 313.116 221.023 311.328 222.811Z" fill="#E1EDF0"/>
<g opacity="0.3">
<path d="M273.522 189.302C270.74 192.083 266.232 192.083 263.451 189.302C260.669 186.52 260.669 182.012 263.451 179.23C266.232 176.448 270.74 176.448 273.522 179.23C276.304 182.012 276.304 186.52 273.522 189.302Z" fill="#101516"/>
</g>
<path d="M273.523 185.702C271.736 187.489 268.838 187.489 267.051 185.702C265.263 183.915 265.263 181.017 267.051 179.229C268.838 177.442 271.736 177.442 273.523 179.229C275.311 181.017 275.311 183.915 273.523 185.702Z" fill="#E1EDF0"/>
<g opacity="0.5">
<path d="M349.303 264.966C346.522 267.748 342.014 267.748 339.232 264.966C336.45 262.184 336.45 257.676 339.232 254.895C342.014 252.113 346.522 252.113 349.303 254.895C352.085 257.676 352.085 262.184 349.303 264.966Z" fill="#101516"/>
</g>
<path d="M349.305 261.367C347.517 263.154 344.619 263.154 342.832 261.367C341.045 259.579 341.045 256.681 342.832 254.894C344.619 253.107 347.517 253.107 349.305 254.894C351.092 256.681 351.092 259.579 349.305 261.367Z" fill="#E1EDF0"/>
<g opacity="0.3">
<path d="M247.458 163.12C244.676 165.902 240.168 165.902 237.386 163.12C234.604 160.339 234.604 155.831 237.386 153.049C240.168 150.267 244.676 150.267 247.458 153.049C250.239 155.831 250.239 160.339 247.458 163.12Z" fill="#101516"/>
</g>
<path d="M247.458 159.52C245.671 161.308 242.773 161.308 240.985 159.52C239.198 157.733 239.198 154.835 240.985 153.048C242.773 151.26 245.671 151.26 247.458 153.048C249.245 154.835 249.245 157.733 247.458 159.52Z" fill="#E1EDF0"/>
<path d="M369.533 285.196C366.751 287.977 362.243 287.977 359.461 285.196C356.68 282.414 356.68 277.906 359.461 275.124C362.243 272.342 366.751 272.342 369.533 275.124C372.315 277.906 372.315 282.414 369.533 285.196Z" fill="#101516"/>
<path d="M369.533 281.596C367.746 283.383 364.848 283.383 363.061 281.596C361.273 279.808 361.273 276.91 363.061 275.123C364.848 273.336 367.746 273.336 369.533 275.123C371.321 276.91 371.321 279.808 369.533 281.596Z" fill="#E1EDF0"/>
</g>
</g>
</g>
</g>
<defs>
<linearGradient id="paint0_linear_1321_103540" x1="120.065" y1="353.573" x2="201.13" y2="267.128" gradientUnits="userSpaceOnUse">
<stop offset="0.41" stop-color="#FFEB16"/>
<stop offset="0.7" stop-color="#FBA30B"/>
<stop offset="1" stop-color="#F75C00"/>
</linearGradient>
<linearGradient id="paint1_linear_1321_103540" x1="180.493" y1="337.159" x2="189.631" y2="286.12" gradientUnits="userSpaceOnUse">
<stop offset="0.41" stop-color="#FFF652"/>
<stop offset="0.7" stop-color="#FBA929"/>
<stop offset="1" stop-color="#F75C00"/>
</linearGradient>
<linearGradient id="paint2_linear_1321_103540" x1="211.06" y1="391.38" x2="251.952" y2="385.641" gradientUnits="userSpaceOnUse">
<stop offset="0.41" stop-color="#FFEB16"/>
<stop offset="0.7" stop-color="#FBA30B"/>
<stop offset="1" stop-color="#F75C00"/>
</linearGradient>
<linearGradient id="paint3_linear_1321_103540" x1="107.79" y1="316.669" x2="116.929" y2="265.631" gradientUnits="userSpaceOnUse">
<stop offset="0.41" stop-color="#FFF652"/>
<stop offset="0.7" stop-color="#FBA929"/>
<stop offset="1" stop-color="#F75C00"/>
</linearGradient>
<radialGradient id="paint4_radial_1321_103540" cx="0" cy="0" r="1" gradientUnits="userSpaceOnUse" gradientTransform="translate(149.769 364.347) rotate(45) scale(46.6733 131.775)">
<stop offset="0.41" stop-color="#FFF652"/>
<stop offset="0.7" stop-color="#FBA929"/>
<stop offset="1" stop-color="#F75C00"/>
</radialGradient>
<linearGradient id="paint5_linear_1321_103540" x1="259.076" y1="142.363" x2="376.687" y2="264.656" gradientUnits="userSpaceOnUse">
<stop offset="0.25" stop-color="#3A93E8"/>
<stop offset="0.36" stop-color="#60ACE3"/>
<stop offset="0.52" stop-color="#85C5DF"/>
<stop offset="0.73" stop-color="#4387C2"/>
<stop offset="0.93" stop-color="#004AA4"/>
</linearGradient>
<linearGradient id="paint6_linear_1321_103540" x1="293.51" y1="106.492" x2="410.764" y2="227.711" gradientUnits="userSpaceOnUse">
<stop offset="0.04" stop-color="#95A9B6"/>
<stop offset="0.26" stop-color="#C0CDD0"/>
<stop offset="0.53" stop-color="#EAF0EA"/>
<stop offset="0.72" stop-color="#919896"/>
<stop offset="0.93" stop-color="#374043"/>
</linearGradient>
<linearGradient id="paint7_linear_1321_103540" x1="141.243" y1="419.846" x2="227.689" y2="338.78" gradientUnits="userSpaceOnUse">
<stop offset="0.41" stop-color="#FFF652"/>
<stop offset="0.7" stop-color="#FBA929"/>
<stop offset="1" stop-color="#F75C00"/>
</linearGradient>
<linearGradient id="paint8_linear_1321_103540" x1="166.223" y1="368.782" x2="194.202" y2="349.412" gradientUnits="userSpaceOnUse">
<stop offset="0.41" stop-color="#7F0012"/>
<stop offset="0.7" stop-color="#7F0012"/>
<stop offset="1" stop-color="#7F0012"/>
</linearGradient>
<linearGradient id="paint9_linear_1321_103540" x1="325.006" y1="109.292" x2="329.606" y2="152.573" gradientUnits="userSpaceOnUse">
<stop stop-color="#525D66"/>
<stop offset="0.45" stop-color="#292E34"/>
<stop offset="0.93" stop-color="#000002"/>
</linearGradient>
<clipPath id="clip0_1321_103540">
<rect width="512" height="512" fill="white" transform="translate(0.897461 0.930176)"/>
</clipPath>
</defs>
</svg>
