<svg width="513" height="513" viewBox="0 0 513 513" fill="none" xmlns="http://www.w3.org/2000/svg">
<g clip-path="url(#clip0_1321_102157)">
<mask id="mask0_1321_102157" style="mask-type:luminance" maskUnits="userSpaceOnUse" x="0" y="0" width="513" height="513">
<path d="M512.221 0.424805H0.220703V512.425H512.221V0.424805Z" fill="white"/>
</mask>
<g mask="url(#mask0_1321_102157)">
<mask id="mask1_1321_102157" style="mask-type:luminance" maskUnits="userSpaceOnUse" x="38" y="38" width="436" height="437">
<path d="M38.4854 38.6892H473.957V474.161H38.4854V38.6892Z" fill="white"/>
</mask>
<g mask="url(#mask1_1321_102157)">
<mask id="mask2_1321_102157" style="mask-type:luminance" maskUnits="userSpaceOnUse" x="-1629" y="-245" width="2369" height="951">
<path d="M-1628.34 -244.116H739.412V705.211H-1628.34V-244.116Z" fill="white"/>
</mask>
<g mask="url(#mask2_1321_102157)">
<path d="M471.479 107.254C340.657 107.254 259.103 231.218 195.43 318.656C125.125 415.203 45.8784 530.437 -121.348 530.437C-282.867 530.437 -481.957 429.109 -481.957 255.628C-481.957 -34.6764 -43.3778 -49.2204 -43.3778 255.628" stroke="#F9DB28" stroke-width="11.1249" stroke-linecap="round" stroke-linejoin="round"/>
<path d="M471.479 107.254C340.657 107.254 259.102 231.218 195.43 318.656C125.125 415.203 45.8784 530.437 -121.348 530.437C-282.867 530.437 -481.957 429.109 -481.957 255.628C-481.957 -34.6764 -43.3778 -49.2204 -43.3778 255.628" stroke="#EAB306" stroke-width="11.1249" stroke-linecap="round" stroke-linejoin="round"/>
<path d="M471.48 142.602C377.996 142.602 307.238 229.063 232.774 329.029C158.309 428.995 71.6691 566.53 -113.003 567.675C-298.78 568.826 -455.433 478.68 -504.875 330.355" stroke="#BC8808" stroke-width="11.1249" stroke-linecap="round" stroke-linejoin="round"/>
<path d="M471.479 135.186C377.996 135.186 307.237 221.647 232.774 321.613C158.309 421.578 71.6687 559.113 -113.003 560.258C-298.78 561.41 -457.987 471.263 -507.429 322.938C-556.871 174.613 -456.846 -4.69189 -262.462 -4.69189" stroke="#E0AA12" stroke-width="11.1249" stroke-linecap="round" stroke-linejoin="round"/>
<path d="M462.319 107.458L464.568 131.909" stroke="#C69009" stroke-width="11.1249" stroke-linecap="round" stroke-linejoin="round"/>
<path d="M459.538 106.531L461.947 132.72" stroke="#B27C06" stroke-width="5.56247" stroke-linecap="round" stroke-linejoin="round"/>
<path d="M433.201 110.904L438.964 135.273" stroke="#C69009" stroke-width="11.1249" stroke-linecap="round" stroke-linejoin="round"/>
<path d="M430.748 112.021L436.51 136.389" stroke="#B27C06" stroke-width="5.56247" stroke-linecap="round" stroke-linejoin="round"/>
<path d="M413.126 143.716L403.137 119.179" stroke="#C69009" stroke-width="11.1249" stroke-linecap="round" stroke-linejoin="round"/>
<path d="M410.926 145.399L400.936 120.862" stroke="#B27C06" stroke-width="5.56247" stroke-linecap="round" stroke-linejoin="round"/>
<path d="M371.217 133.577L386.237 157.392" stroke="#C69009" stroke-width="11.1249" stroke-linecap="round" stroke-linejoin="round"/>
<path d="M369.111 135.273L384.132 159.087" stroke="#B27C06" stroke-width="5.56247" stroke-linecap="round" stroke-linejoin="round"/>
<path d="M343.885 150.767L361.748 173.617" stroke="#C69009" stroke-width="11.1249" stroke-linecap="round" stroke-linejoin="round"/>
<path d="M341.957 152.686L359.82 175.536" stroke="#B27C06" stroke-width="5.56247" stroke-linecap="round" stroke-linejoin="round"/>
<path d="M319.944 170.489L338.713 191.519" stroke="#CC9A0D" stroke-width="11.1249" stroke-linecap="round" stroke-linejoin="round"/>
<path d="M318.182 172.487L336.949 193.516" stroke="#BC8808" stroke-width="5.56247" stroke-linecap="round" stroke-linejoin="round"/>
<path d="M297.901 190.227L318.776 210.964" stroke="#CC9A0D" stroke-width="11.1249" stroke-linecap="round" stroke-linejoin="round"/>
<path d="M296.247 192.365L317.122 213.102" stroke="#BC8808" stroke-width="5.56247" stroke-linecap="round" stroke-linejoin="round"/>
<path d="M278.454 210.871L300.371 230.143" stroke="#CC9A0D" stroke-width="11.1249" stroke-linecap="round" stroke-linejoin="round"/>
<path d="M276.889 213.102L298.805 232.373" stroke="#BC8808" stroke-width="5.56247" stroke-linecap="round" stroke-linejoin="round"/>
<path d="M260.666 231.675L283.246 250.256" stroke="#CC9A0D" stroke-width="11.1249" stroke-linecap="round" stroke-linejoin="round"/>
<path d="M259.257 234.101L281.837 252.682" stroke="#BC8808" stroke-width="5.56247" stroke-linecap="round" stroke-linejoin="round"/>
<path d="M242.461 254.64L265.616 272.493" stroke="#CC9A0D" stroke-width="11.1249" stroke-linecap="round" stroke-linejoin="round"/>
<path d="M241.114 257.067L264.269 274.92" stroke="#BC8808" stroke-width="5.56247" stroke-linecap="round" stroke-linejoin="round"/>
<path d="M225.909 276.687L249.205 293.837" stroke="#CC9A0D" stroke-width="11.1249" stroke-linecap="round" stroke-linejoin="round"/>
<path d="M224.571 279.169L247.867 296.319" stroke="#BC8808" stroke-width="5.56247" stroke-linecap="round" stroke-linejoin="round"/>
<path d="M209.179 299.669L231.952 315.811" stroke="#CC9A0D" stroke-width="11.1249" stroke-linecap="round" stroke-linejoin="round"/>
<path d="M207.623 301.901L230.397 318.043" stroke="#BC8808" stroke-width="5.56247" stroke-linecap="round" stroke-linejoin="round"/>
<path d="M194.032 320.577L216.593 336.48" stroke="#CC9A0D" stroke-width="11.1249" stroke-linecap="round" stroke-linejoin="round"/>
<path d="M192.747 322.945L215.308 338.847" stroke="#BC8808" stroke-width="5.56247" stroke-linecap="round" stroke-linejoin="round"/>
<path d="M179.444 340.616L202.055 356.456" stroke="#CC9A0D" stroke-width="11.1249" stroke-linecap="round" stroke-linejoin="round"/>
<path d="M178.158 343.047L200.77 358.887" stroke="#BC8808" stroke-width="5.56247" stroke-linecap="round" stroke-linejoin="round"/>
<path d="M164.762 360.467L187.165 376.141" stroke="#CC9A0D" stroke-width="11.1249" stroke-linecap="round" stroke-linejoin="round"/>
<path d="M163.343 362.789L185.746 378.462" stroke="#BC8808" stroke-width="5.56247" stroke-linecap="round" stroke-linejoin="round"/>
<path d="M148.989 381.01L170.716 397.029" stroke="#CC9A0D" stroke-width="11.1249" stroke-linecap="round" stroke-linejoin="round"/>
<path d="M147.605 383.356L169.332 399.375" stroke="#BC8808" stroke-width="5.56247" stroke-linecap="round" stroke-linejoin="round"/>
<path d="M132.983 400.679L154.556 417.821" stroke="#CC9A0D" stroke-width="11.1249" stroke-linecap="round" stroke-linejoin="round"/>
<path d="M131.649 403.045L153.223 420.186" stroke="#BC8808" stroke-width="5.56247" stroke-linecap="round" stroke-linejoin="round"/>
<path d="M117.243 418.644L137.787 437.276" stroke="#CC9A0D" stroke-width="11.1249" stroke-linecap="round" stroke-linejoin="round"/>
<path d="M115.797 421.023L136.341 439.655" stroke="#BC8808" stroke-width="5.56247" stroke-linecap="round" stroke-linejoin="round"/>
<path d="M99.8652 436.748L119.127 456.016" stroke="#CC9A0D" stroke-width="11.1249" stroke-linecap="round" stroke-linejoin="round"/>
<path d="M98.2539 438.905L117.516 458.173" stroke="#BC8808" stroke-width="5.56247" stroke-linecap="round" stroke-linejoin="round"/>
<path d="M80.1309 455.044L98.6956 475.331" stroke="#CC9A0D" stroke-width="11.1249" stroke-linecap="round" stroke-linejoin="round"/>
<path d="M78.3936 457.183L96.9583 477.469" stroke="#BC8808" stroke-width="5.56247" stroke-linecap="round" stroke-linejoin="round"/>
<path d="M59.6328 473.311L75.1335 493.898" stroke="#CC9A0D" stroke-width="11.1249" stroke-linecap="round" stroke-linejoin="round"/>
<path d="M57.6846 475.331L73.1853 495.918" stroke="#BC8808" stroke-width="5.56247" stroke-linecap="round" stroke-linejoin="round"/>
<path d="M471.479 107.254C340.657 107.254 259.103 231.218 195.43 318.656C125.125 415.203 45.8784 530.437 -121.348 530.437C-225.603 530.437 -345.511 488.22 -417.43 411.635C-456.932 369.568 -481.957 317.133 -481.957 255.628" stroke="#F9DB28" stroke-width="11.1249" stroke-linecap="round" stroke-linejoin="round"/>
<path d="M462.691 144.766C434.341 146.907 417.24 154.618 417.24 154.618L421.269 160.052C421.269 160.052 441.12 151.947 463.948 150.523L462.691 144.766Z" fill="#124C45"/>
<path d="M462.691 144.766C434.341 146.907 417.24 154.618 417.24 154.618L421.269 160.052C421.269 160.052 441.12 151.947 463.948 150.523L462.691 144.766Z" stroke="#124C45" stroke-width="7.41662" stroke-linecap="round" stroke-linejoin="round"/>
<path d="M462.691 144.766C434.341 146.907 417.24 154.618 417.24 154.618" stroke="#1CC68D" stroke-width="7.41662" stroke-linecap="round" stroke-linejoin="round"/>
<path d="M367.583 183.503C344.71 200.709 323.228 224.035 323.228 224.035L329.96 230.012C329.96 230.012 347.948 207.876 371.438 191.429L367.583 183.503Z" fill="#124C45"/>
<path d="M367.583 183.503C344.71 200.709 323.228 224.035 323.228 224.035L329.96 230.012C329.96 230.012 347.948 207.876 371.438 191.429L367.583 183.503Z" stroke="#124C45" stroke-width="7.41662" stroke-linecap="round" stroke-linejoin="round"/>
<path d="M367.583 183.503C344.71 200.709 323.228 224.035 323.228 224.035" stroke="#1CC68D" stroke-width="7.41662" stroke-linecap="round" stroke-linejoin="round"/>
<path d="M268.523 289.593C247.585 315.843 229.888 340.361 229.888 340.361L236.679 343.605C236.679 343.605 257.135 315.424 273.834 295.604L268.523 289.593Z" fill="#124C45"/>
<path d="M268.523 289.593C247.585 315.843 229.888 340.361 229.888 340.361L236.679 343.605C236.679 343.605 257.135 315.424 273.834 295.604L268.523 289.593Z" stroke="#124C45" stroke-width="7.41662" stroke-linecap="round" stroke-linejoin="round"/>
<path d="M268.523 289.593C247.585 315.843 229.888 340.361 229.888 340.361" stroke="#1CC68D" stroke-width="7.41662" stroke-linecap="round" stroke-linejoin="round"/>
<path d="M172.53 415.462C151.763 440.714 135.94 457.889 135.94 457.889L143.916 463.118C143.916 463.118 161.687 442.918 179.955 420.192L172.53 415.462Z" fill="#124C45"/>
<path d="M172.53 415.462C151.763 440.714 135.94 457.889 135.94 457.889L143.916 463.118C143.916 463.118 161.687 442.918 179.955 420.192L172.53 415.462Z" stroke="#124C45" stroke-width="7.41662" stroke-linecap="round" stroke-linejoin="round"/>
<path d="M172.53 415.462C151.763 440.714 135.94 457.889 135.94 457.889" stroke="#1CC68D" stroke-width="7.41662" stroke-linecap="round" stroke-linejoin="round"/>
<path d="M452.456 154.044C444.253 153.632 435.983 156.761 431.923 159.717C430.497 160.755 429.608 162.374 429.608 164.139V613.092H454.349V155.782C454.349 154.763 453.474 154.095 452.456 154.044Z" fill="#2AB087"/>
<path d="M441.978 159.52V609.941" stroke="#21DB98" stroke-width="7.41662" stroke-linecap="round" stroke-linejoin="round"/>
<path d="M452.456 154.044C444.253 153.632 435.983 156.761 431.923 159.717C430.497 160.755 429.608 162.374 429.608 164.139V613.092H454.349V155.782C454.349 154.763 453.474 154.095 452.456 154.044Z" stroke="#086654" stroke-width="7.41662" stroke-linecap="round" stroke-linejoin="round"/>
<path d="M360.883 200.455C349.449 206.97 342.834 214.967 339.798 219.631C338.463 221.682 337.783 224.09 337.783 226.538V613.092H362.525V201.396C362.525 200.555 361.615 200.039 360.883 200.455Z" fill="#2AB087"/>
<path d="M350.153 208.876V609.941" stroke="#21DB98" stroke-width="7.41662" stroke-linecap="round" stroke-linejoin="round"/>
<path d="M360.883 200.455C349.449 206.97 342.834 214.967 339.798 219.631C338.463 221.682 337.783 224.09 337.783 226.538V613.092H362.525V201.396C362.525 200.555 361.615 200.039 360.883 200.455Z" stroke="#086654" stroke-width="7.41662" stroke-linecap="round" stroke-linejoin="round"/>
<path d="M267.331 307.819C257.829 312.254 245.897 331.099 243.862 339.027C243.645 339.871 243.42 340.707 243.42 341.579V613.443H268.161V308.225C268.161 307.801 267.715 307.64 267.331 307.819Z" fill="#2AB087"/>
<path d="M255.491 322.97V609.941" stroke="#21DB98" stroke-width="7.41662" stroke-linecap="round" stroke-linejoin="round"/>
<path d="M267.331 307.819C257.829 312.254 245.897 331.099 243.862 339.027C243.645 339.871 243.42 340.707 243.42 341.579V613.443H268.161V308.225C268.161 307.801 267.715 307.64 267.331 307.819Z" stroke="#086654" stroke-width="7.41662" stroke-linecap="round" stroke-linejoin="round"/>
<path d="M172.929 431.871C161.216 438.291 151.815 450.815 149.616 458.729C149.356 459.666 149.292 461.309 149.292 462.281V613.443H174.033V432.483C174.033 431.919 173.423 431.6 172.929 431.871Z" fill="#2AB087"/>
<path d="M161.662 440.747V609.941" stroke="#21DB98" stroke-width="7.41662" stroke-linecap="round" stroke-linejoin="round"/>
<path d="M172.929 431.871C161.216 438.291 151.815 450.815 149.616 458.729C149.356 459.666 149.292 461.309 149.292 462.281V613.443H174.033V432.483C174.033 431.919 173.423 431.6 172.929 431.871Z" stroke="#086654" stroke-width="7.41662" stroke-linecap="round" stroke-linejoin="round"/>
<g opacity="0.3">
<path d="M429.608 211.521C429.608 211.521 431.02 172.843 441.978 170.835C455.098 168.431 454.348 211.521 454.348 211.521V155.782C454.348 155.782 442.245 153.005 431.922 159.717C431.922 159.717 426.839 160.386 429.608 211.521Z" fill="#0C5B50"/>
</g>
<path d="M454.349 180.536V155.782C454.349 154.763 453.474 154.095 452.456 154.044C444.253 153.632 435.983 156.761 431.923 159.717C430.497 160.755 429.608 162.374 429.608 164.139V183.368" stroke="#124C45" stroke-width="7.41662" stroke-linecap="round" stroke-linejoin="round"/>
<g opacity="0.3">
<path d="M338.192 268.772C338.192 268.772 339.605 230.093 350.562 228.085C363.683 225.68 362.932 268.772 362.932 268.772L362.525 201.396C362.525 201.396 350.828 210.255 340.506 216.967C340.506 216.967 335.423 217.637 338.192 268.772Z" fill="#0C5B50"/>
</g>
<path d="M362.525 232.959V201.396C362.525 200.555 361.615 200.039 360.883 200.455C349.449 206.97 342.834 214.967 339.798 219.631C338.463 221.682 337.783 224.09 337.783 226.538V243.392" stroke="#124C45" stroke-width="7.41662" stroke-linecap="round" stroke-linejoin="round"/>
<g opacity="0.3">
<path d="M149.701 501.998C149.701 501.998 151.114 463.319 162.071 461.311C175.192 458.906 174.442 501.998 174.442 501.998L174.033 431.841C174.033 431.841 161.663 440.748 152.016 450.193C152.016 450.193 146.933 450.863 149.701 501.998Z" fill="#0C5B50"/>
</g>
<path d="M174.033 466.919V429.701C174.033 429.138 173.423 431.6 172.929 431.871C161.216 438.291 151.815 450.815 149.616 458.729C149.356 459.666 149.292 461.309 149.292 462.281V475.455" stroke="#124C45" stroke-width="7.41662" stroke-linecap="round" stroke-linejoin="round"/>
<g opacity="0.3">
<path d="M243.529 381.296C243.529 381.296 244.943 342.617 255.9 340.609C269.021 338.204 268.27 381.296 268.27 381.296L267.861 309.285C267.861 309.285 255.491 313.112 245.844 329.491C245.844 329.491 240.761 330.161 243.529 381.296Z" fill="#0C5B50"/>
</g>
<path d="M268.161 349.557V306.371C268.161 305.947 267.715 307.64 267.331 307.819C257.829 312.254 245.897 331.099 243.862 339.027C243.645 339.871 243.42 340.707 243.42 341.579V355.144" stroke="#124C45" stroke-width="7.41662" stroke-linecap="round" stroke-linejoin="round"/>
<path d="M167.936 262.839C165.577 266.03 159.765 274.281 162.391 276.486C165.841 279.384 180.437 267.577 181.85 262.839C183.264 258.1 180.253 254.677 175.46 255.168C170.667 255.659 167.936 262.839 167.936 262.839Z" fill="#00304B"/>
<path d="M141.979 238.614C141.979 238.614 145.214 247.708 156.148 248.17" stroke="#F7C523" stroke-width="7.75964" stroke-linecap="round" stroke-linejoin="round"/>
<path d="M140.055 239.591C140.055 239.591 143.51 249.368 155.57 250.292" stroke="#E59A05" stroke-width="3.44873" stroke-linecap="round" stroke-linejoin="round"/>
<path d="M154.417 243.981C154.417 243.981 157.886 247.705 155.225 252.125C155.225 252.125 161.127 253.414 162.931 250.292C165.024 246.67 159.01 243.869 154.417 243.981Z" fill="#A3314D"/>
<path d="M156.866 246.874C156.866 246.874 159.567 256.032 166.711 264.318C166.711 264.318 175.357 263.819 179.768 255.596C181.089 253.133 169.98 242.299 164.469 240.705C158.958 239.111 153.915 240.456 156.866 246.874Z" fill="#DD4368"/>
<path d="M179.77 255.598C175.356 263.815 166.708 264.315 166.708 264.315C159.569 256.029 156.871 246.873 156.871 246.873C154.991 242.795 156.345 240.769 158.992 240.243L162.932 243.976C166.312 251.934 173.658 260.918 178.787 252.572C179.676 253.908 180.089 255.003 179.77 255.598Z" fill="#B73258"/>
<path d="M167.028 239.148C167.901 235.475 163.117 226.657 155.354 228.576C146.377 230.794 146.359 244.427 155.589 246.72C159.102 247.593 163.862 246.561 165.606 242.017C165.606 242.017 166.547 241.171 167.028 239.148Z" fill="#FFD833"/>
<path d="M167.031 239.148C166.551 241.174 165.606 242.019 165.606 242.019C163.863 246.563 159.097 247.597 155.586 246.718C146.765 244.528 146.39 231.975 154.218 228.948C156.433 228.948 158.092 229.88 160.123 233.901C162.139 237.892 166.315 239.366 167.039 237.173C167.039 237.165 167.039 237.165 167.047 237.156C167.161 237.898 167.161 238.587 167.031 239.148Z" fill="#E59A05"/>
<path d="M149.657 226.312C149.657 226.312 157.77 233.773 161.827 244.844" stroke="#F9DB28" stroke-width="8.62182" stroke-linecap="round" stroke-linejoin="round"/>
<path d="M147.588 227.718C147.588 227.718 155.229 235.103 159.386 245.511" stroke="#F4B61C" stroke-width="3.44873" stroke-linecap="round" stroke-linejoin="round"/>
<path d="M157.209 244.884C157.209 244.884 161.028 245.498 165.332 241.671C165.332 241.671 169.835 248.184 166.077 250.363C161.976 252.741 159.055 250.292 157.209 244.884Z" fill="#AA3053"/>
<path d="M161.217 244.238C162.432 243.777 163.846 242.987 165.329 241.674C165.329 241.674 168.307 245.973 167.406 248.754C167.305 249.068 165.84 249.583 164.353 248.405C162.796 247.172 161.217 244.238 161.217 244.238Z" fill="#E54A77"/>
<path d="M218.772 194.701C216.628 196.573 210.397 206.92 212.746 209.419C215.833 212.702 230.63 200.874 232.59 196.334C234.549 191.794 231.962 188.041 227.144 187.966C222.327 187.892 218.772 194.701 218.772 194.701Z" fill="#00304B"/>
<path d="M196.131 165.078C196.131 165.078 197.415 172.868 208.946 176.969" stroke="#F7C523" stroke-width="7.75964" stroke-linecap="round" stroke-linejoin="round"/>
<path d="M194.062 165.292C194.062 165.292 195.46 174.155 207.354 178.65" stroke="#E59A05" stroke-width="3.44873" stroke-linecap="round" stroke-linejoin="round"/>
<path d="M206.618 172.526C206.618 172.526 208.944 177.487 206.187 180.23C206.187 180.23 214.452 183.293 213.447 180.224C212.381 176.967 211.534 174.024 206.618 172.526Z" fill="#11537F"/>
<path d="M209.654 177.546C209.654 177.546 213.215 189.202 218.066 195.368C218.066 195.368 224.341 197.687 229.687 190.039C231.288 187.748 222.787 172.624 217.928 172.313C212.203 171.947 207.477 170.826 209.654 177.546Z" fill="#3F84AF"/>
<path d="M223.816 195.02C220.595 196.299 218.064 195.366 218.064 195.366C213.211 189.197 209.657 177.542 209.657 177.542C207.769 171.714 211.07 171.789 215.716 172.145C215.929 172.698 216.004 173.423 215.905 174.345C215.023 182.834 220.545 195.696 223.816 195.02Z" fill="#216FAA"/>
<path d="M220.653 171.067C221.95 167.522 218.234 158.203 210.299 159.197C201.123 160.346 199.506 173.882 208.403 177.244C211.788 178.523 216.637 178.057 218.904 173.749C218.904 173.749 219.938 173.02 220.653 171.067Z" fill="#FFD833"/>
<path d="M220.655 171.067C219.94 173.022 218.902 173.751 218.902 173.751C216.637 178.059 211.783 178.527 208.401 177.241C199.897 174.03 200.999 161.52 209.128 159.434C209.815 162.09 210.706 163.696 212.44 166.234C214.963 169.925 219.63 170.344 220.895 169.107C220.896 169.098 220.896 169.098 220.905 169.091C220.931 169.84 220.851 170.525 220.655 171.067Z" fill="#EAA711"/>
<path d="M205.166 154.557C205.166 154.557 207.297 169.927 214.851 176.284" stroke="#F9DB28" stroke-width="8.62182" stroke-linecap="round" stroke-linejoin="round"/>
<path d="M202.646 154.854C202.646 154.854 204.684 170.752 212.625 177.609" stroke="#F4B61C" stroke-width="3.44873" stroke-linecap="round" stroke-linejoin="round"/>
<path d="M209.05 176.655C209.05 176.655 213.773 176.227 217.075 172.25C217.075 172.25 224.4 178.514 219.532 182.418C216.852 184.566 212.094 181.908 209.05 176.655Z" fill="#196593"/>
<path d="M220.333 181.626L220.325 181.625C216.724 181.63 213.132 175.368 213.132 175.368L213.141 175.359C214.437 174.695 215.853 173.718 217.072 172.247C217.072 172.247 223.478 177.719 220.333 181.626Z" fill="#4A91BC"/>
<path d="M279.762 135.991C277.532 137.761 265.946 147.921 273.059 150.413C277.31 151.902 291.32 142.71 293.489 138.266C295.658 133.822 293.247 129.952 288.438 129.653C283.63 129.355 279.762 135.991 279.762 135.991Z" fill="#00304B"/>
<path d="M258.115 107.849C258.115 107.849 259.819 117.349 270.53 119.592" stroke="#F7C523" stroke-width="7.75964" stroke-linecap="round" stroke-linejoin="round"/>
<path d="M256.057 108.497C256.057 108.497 257.867 118.708 269.614 121.592" stroke="#E59A05" stroke-width="3.44873" stroke-linecap="round" stroke-linejoin="round"/>
<path d="M268.116 114.579C268.116 114.579 271.451 118.43 267.316 122.794C267.316 122.794 273.535 126.051 275.972 122.651C278.409 119.252 272.665 115.219 268.116 114.579Z" fill="#257044"/>
<path d="M271.451 118.431C271.451 118.431 274.578 128.224 278.312 137.25C278.312 137.25 286.924 138.171 292.619 130.78C294.325 128.567 285.819 118.569 280.705 112.272C277.088 107.819 269.589 111.617 271.451 118.431Z" fill="#349B62"/>
<path d="M285.687 136.029C281.735 137.611 278.315 137.249 278.315 137.249C274.172 128.653 271.456 118.427 271.456 118.427C269.895 112.707 273.826 110.513 278.191 111.425L279.087 116.122C279.087 116.122 277.844 128.68 285.687 136.029Z" fill="#22874B"/>
<path d="M282.74 112.47C284.201 108.989 280.923 99.5082 272.951 100.132C263.732 100.853 261.486 114.299 270.217 118.071C273.539 119.506 278.404 119.266 280.868 115.068C280.868 115.068 281.935 114.387 282.74 112.47Z" fill="#FFD833"/>
<path d="M282.742 112.471C281.937 114.391 280.866 115.071 280.866 115.071C278.404 119.268 273.534 119.509 270.214 118.068C261.87 114.465 263.552 102.019 271.769 100.314C271.769 100.314 272.757 104.022 274.22 106.509C276.813 110.918 282.001 112.569 283.073 110.525C283.074 110.516 283.074 110.516 283.084 110.509C283.075 111.259 282.963 111.939 282.742 112.471Z" fill="#EAA711"/>
<path d="M266.994 95.6631C266.994 95.6631 269.83 110.918 277.67 116.921" stroke="#F9DB28" stroke-width="8.62182" stroke-linecap="round" stroke-linejoin="round"/>
<path d="M264.491 96.0762C264.491 96.0762 267.259 111.862 275.508 118.346" stroke="#F4B61C" stroke-width="3.44873" stroke-linecap="round" stroke-linejoin="round"/>
<path d="M271.893 117.558C271.893 117.558 276.593 116.913 279.707 112.788C279.707 112.788 287.069 119.42 282.385 123.544C279.808 125.814 274.308 121.239 271.893 117.558Z" fill="#2A7A4A"/>
<path d="M283.728 121.589C282.385 123.543 280.168 117.336 276.382 115.809C276.38 115.808 276.382 115.8 276.382 115.8C277.517 115.102 278.697 114.128 279.707 112.79C279.707 112.79 285.068 117.616 283.728 121.589Z" fill="#2FBA67"/>
<path d="M351.101 86.0526C348.315 86.6376 337.822 92.6208 338.651 95.9484C339.739 100.32 358.429 97.2353 362.358 94.2321C366.286 91.229 365.863 86.6899 361.697 84.2704C357.53 81.8508 351.101 86.0526 351.101 86.0526Z" fill="#00304B"/>
<path d="M342.423 49.7761C342.423 49.7761 340.329 60.2692 350.473 66.9261" stroke="#F7C523" stroke-width="7.75964" stroke-linecap="round" stroke-linejoin="round"/>
<path d="M340.036 49.6122C340.036 49.6122 337.766 60.8815 348.717 68.6182" stroke="#E59A05" stroke-width="3.44873" stroke-linecap="round" stroke-linejoin="round"/>
<path d="M350.014 60.7755C350.014 60.7755 352.041 67.8077 347.402 69.8824C347.402 69.8824 351.379 73.6852 352.779 70.6727C354.735 66.4681 354.449 63.2804 350.014 60.7755Z" fill="#AF4622"/>
<path d="M351.531 66.6303C351.531 66.6303 347.71 76.2902 349.241 86.5304C349.241 86.5304 356.529 91.2079 364.931 87.1484C367.447 85.9323 366.746 70.9406 363.225 66.4114C359.703 61.8821 352.916 59.7034 351.531 66.6303Z" fill="#E26A1A"/>
<path d="M357.647 88.8179C351.521 88.5233 349.24 86.5293 349.24 86.5293C347.712 76.2876 351.534 66.6312 351.534 66.6312C351.809 65.2374 352.229 64.2045 352.757 63.4703C354.631 64.7084 358.691 68.4928 357.418 70.2226C353.775 75.1721 353.83 84.9891 357.647 88.8179Z" fill="#C64817"/>
<path d="M364.292 66.3529C367.157 63.8942 368.47 53.9488 361.062 50.9375C352.495 47.4552 344.467 58.4735 350.586 65.7543C352.915 68.5248 357.373 70.4889 361.455 67.8384C361.455 67.8384 362.714 67.7073 364.292 66.3529Z" fill="#FFD833"/>
<path d="M366.553 60.189C366.467 62.8694 365.521 65.3012 364.297 66.3558C362.713 67.7039 361.455 67.8419 361.455 67.8419C357.374 70.4856 352.911 68.5273 350.584 65.7569C347.865 62.5187 347.944 58.5346 349.622 55.4215L349.631 55.4219C348.298 62.688 364.297 66.3558 366.553 60.189Z" fill="#EAA711"/>
<path d="M355.745 44.2883C355.745 44.2883 359.246 55.0056 357.387 67.1725" stroke="#F9DB28" stroke-width="8.62182" stroke-linecap="round" stroke-linejoin="round"/>
<path d="M353.227 44.6221C353.227 44.6221 356.666 54.7269 354.903 66.6481" stroke="#F4B61C" stroke-width="3.44873" stroke-linecap="round" stroke-linejoin="round"/>
<path d="M353.235 64.9945C353.235 64.9945 356.36 67.4054 362.044 65.8721C362.044 65.8721 362.821 74.0216 358.43 74.2818C353.638 74.5658 352.447 69.1456 353.235 64.9945Z" fill="#D6561D"/>
<path d="M359.517 74.0241L359.509 74.0237C356.393 74.0042 357.063 69.0197 357.1 66.3119C358.431 66.4622 360.083 66.3949 362.042 65.8676C362.042 65.8676 362.686 72.5796 359.517 74.0241Z" fill="#F47621"/>
<path d="M175.173 250.246C175.173 250.246 170.904 238.778 172.141 237.406C174.43 234.867 180.45 241.522 180.45 241.522" fill="#84042C"/>
<path d="M175.173 250.246C175.173 250.246 170.904 238.778 172.141 237.406C174.43 234.867 180.45 241.522 180.45 241.522" stroke="#84042C" stroke-width="6.89746" stroke-linecap="round" stroke-linejoin="round"/>
<path d="M172.728 297.945L182.134 307.384C184.757 308.04 214.586 264.389 218.82 257.142L218.672 240.601L221.273 233.901L172.728 297.945Z" fill="#89092A"/>
<path d="M199.607 261.603L207.424 274.216L191.282 296.922L179.114 288.685L199.607 261.603Z" fill="#A80E36"/>
<path d="M172.728 297.945L182.134 307.384C184.757 308.039 214.148 266.113 218.382 258.867L218.233 241.463L220.834 234.763L172.728 297.945Z" stroke="#3F031B" stroke-width="6.89746" stroke-linecap="round" stroke-linejoin="round"/>
<path d="M190.98 307.384C190.98 310.889 188.139 313.729 184.635 313.729C181.13 313.729 178.289 310.889 178.289 307.384C178.289 303.879 181.13 301.039 184.635 301.039C188.139 301.039 190.98 303.879 190.98 307.384Z" fill="#F3E639"/>
<path d="M190.98 307.384C190.98 310.889 188.139 313.729 184.635 313.729C181.13 313.729 178.289 310.889 178.289 307.384C178.289 303.879 181.13 301.039 184.635 301.039C188.139 301.039 190.98 303.879 190.98 307.384Z" stroke="#151515" stroke-width="5.17309" stroke-linecap="round" stroke-linejoin="round"/>
<path d="M207.858 283.905C207.858 287.41 205.018 290.251 201.514 290.251C198.009 290.251 195.168 287.41 195.168 283.905C195.168 280.4 198.009 277.56 201.514 277.56C205.018 277.56 207.858 280.4 207.858 283.905Z" fill="#F3E639"/>
<path d="M207.858 283.905C207.858 287.41 205.018 290.251 201.514 290.251C198.009 290.251 195.168 287.41 195.168 283.905C195.168 280.4 198.009 277.56 201.514 277.56C205.018 277.56 207.858 280.4 207.858 283.905Z" stroke="#151515" stroke-width="5.17309" stroke-linecap="round" stroke-linejoin="round"/>
<path d="M173.494 251.755C174.519 248.105 184.421 235.774 188.272 234.665C189.824 234.219 206.688 247.252 206.7 251.559C206.707 254.278 203.138 259.298 187.91 280.933C170.91 305.086 164.739 311.91 161.128 311.936C153.398 311.991 149.44 279.729 158.121 274.26C161.338 272.234 168.948 274.717 170.753 274.679C172.557 274.641 177.669 265.985 178.341 262.962C179.022 259.899 172.681 254.654 173.494 251.755Z" fill="#FF2242"/>
<path d="M156.831 306.909C156.831 306.909 180.974 277.229 203.744 245.383L199.174 242.384L154.485 301.555L156.831 306.909Z" fill="#F7FB2D"/>
<g opacity="0.5">
<path d="M163.491 273.481C155.134 275.725 155.385 300.364 161.128 311.936" stroke="white" stroke-width="6.89746" stroke-linecap="round" stroke-linejoin="round"/>
</g>
<g opacity="0.5">
<path d="M206.699 251.559C206.699 251.559 194.267 240.776 189.007 239.628C186.107 238.995 173.494 251.755 173.494 251.755" stroke="white" stroke-width="6.89746" stroke-linecap="round" stroke-linejoin="round"/>
</g>
<path d="M173.494 251.755C174.519 248.105 184.421 235.774 188.272 234.665C189.824 234.219 206.688 247.252 206.7 251.559C206.707 254.278 203.138 259.298 187.91 280.933C170.91 305.086 164.739 311.91 161.128 311.936C153.398 311.991 149.44 279.729 158.121 274.26C161.338 272.234 168.948 274.717 170.753 274.679C172.557 274.641 177.669 265.985 178.341 262.962C179.022 259.899 172.681 254.654 173.494 251.755Z" stroke="#930329" stroke-width="6.89746" stroke-linecap="round" stroke-linejoin="round"/>
<path d="M161.128 311.936C164.739 311.91 170.91 305.086 187.91 280.933C203.138 259.298 206.706 254.278 206.699 251.559C206.699 251.559 206.948 250.159 204.371 247.432" stroke="#4C0420" stroke-width="6.89746" stroke-linecap="round" stroke-linejoin="round"/>
<path d="M229.394 185.246C229.394 185.246 225.111 173.815 226.418 172.393C228.732 169.876 234.708 176.546 234.708 176.546" fill="#84042C"/>
<path d="M229.394 185.246C229.394 185.246 225.111 173.815 226.418 172.393C228.732 169.876 234.708 176.546 234.708 176.546" stroke="#84042C" stroke-width="6.89746" stroke-linecap="round" stroke-linejoin="round"/>
<path d="M221.118 235.678L229.283 244.137C231.847 244.994 265.649 204.023 270.433 197.127L271.568 180.623L274.275 174.934L221.118 235.678Z" fill="#89092A"/>
<path d="M251.68 197.625L257.974 209.664L238.796 233.419L230.122 225.966L251.68 197.625Z" fill="#A80E36"/>
<path d="M220.945 235.759L229.403 244.892C231.967 245.749 265.39 205.22 270.174 198.323L271.318 180.068L274.618 174.597L220.945 235.759Z" stroke="#3F031B" stroke-width="6.89746" stroke-linecap="round" stroke-linejoin="round"/>
<path d="M238.722 243.366C238.367 246.853 235.254 249.392 231.767 249.037C228.28 248.682 225.741 245.568 226.096 242.081C226.451 238.594 229.565 236.057 233.052 236.411C236.539 236.766 239.077 239.879 238.722 243.366Z" fill="#F3E639"/>
<path d="M238.722 243.366C238.367 246.853 235.254 249.392 231.767 249.037C228.28 248.682 225.741 245.568 226.096 242.081C226.451 238.594 229.565 236.057 233.052 236.411C236.539 236.766 239.077 239.879 238.722 243.366Z" stroke="#151515" stroke-width="5.17309" stroke-linecap="round" stroke-linejoin="round"/>
<path d="M257.892 221.718C257.537 225.205 254.423 227.744 250.936 227.389C247.449 227.034 244.911 223.92 245.266 220.433C245.621 216.946 248.735 214.408 252.222 214.763C255.709 215.118 258.247 218.231 257.892 221.718Z" fill="#F3E639"/>
<path d="M257.892 221.718C257.537 225.205 254.423 227.744 250.936 227.389C247.449 227.034 244.911 223.92 245.266 220.433C245.621 216.946 248.735 214.408 252.222 214.763C255.709 215.118 258.247 218.231 257.892 221.718Z" stroke="#151515" stroke-width="5.17309" stroke-linecap="round" stroke-linejoin="round"/>
<path d="M227.04 186.341C228.429 182.814 239.45 171.46 243.394 170.747C244.983 170.46 261.134 184.214 260.708 188.499C260.439 191.205 255.927 196.968 238.348 216.741C223.627 233.299 217.561 240.106 214.456 241.095C211.378 242.076 194.927 226.692 195.893 222.689C196.529 220.05 204.696 209.866 208.857 207.801C212.263 206.111 216.863 208.704 218.662 208.85C220.461 208.996 228.626 200.646 229.6 197.707C230.587 194.728 225.938 189.143 227.04 186.341Z" fill="#FF2242"/>
<g opacity="0.5">
<path d="M213.787 207.768C213.787 207.768 203.077 215.95 198.619 226.305" stroke="white" stroke-width="6.89746" stroke-linecap="round" stroke-linejoin="round"/>
</g>
<path d="M207.792 237.464C207.792 237.464 207.792 237.464 257.145 182.81L253.852 178.511L204.116 233.38L207.792 237.464Z" fill="#F7FB2D"/>
<g opacity="0.5">
<path d="M227.04 186.341L242.773 175.372L259.02 185.972" stroke="white" stroke-width="6.89746" stroke-linecap="round" stroke-linejoin="round"/>
</g>
<path d="M227.041 186.341C228.429 182.814 239.45 171.46 243.394 170.747C244.984 170.46 262.047 187.696 261.333 188.928C260.876 189.718 255.927 196.968 238.348 216.741C223.627 233.298 217.684 241.155 215.609 241.589C215.609 241.589 208.427 235.379 204.503 231.757C199.674 227.299 195.592 223.805 195.893 222.689C196.599 220.067 204.708 209.889 208.858 207.801C211.305 206.569 216.864 208.704 218.662 208.85C220.461 208.996 228.626 200.646 229.6 197.706C230.587 194.728 225.938 189.143 227.041 186.341Z" stroke="#930329" stroke-width="6.89746" stroke-linecap="round" stroke-linejoin="round"/>
<path d="M215.609 241.589C217.684 241.155 223.627 233.299 238.348 216.741C255.927 196.968 261.067 189.802 261.333 188.929C261.333 188.929 261.655 188.038 258.263 184.617" stroke="#4C0420" stroke-width="6.89746" stroke-linecap="round" stroke-linejoin="round"/>
<path d="M290.442 126.023C290.442 126.023 288.109 113.435 289.547 112.861C292.722 111.592 297.072 118.279 297.072 118.279" fill="#84042C"/>
<path d="M290.442 126.023C290.442 126.023 288.109 113.435 289.547 112.861C292.722 111.592 297.072 118.279 297.072 118.279" stroke="#84042C" stroke-width="6.89746" stroke-linecap="round" stroke-linejoin="round"/>
<path d="M272.475 173.055L279.686 184.059C282.09 185.295 323.071 150.353 328.847 144.264L332.485 127.235L272.475 173.055Z" fill="#89092A"/>
<path d="M309.66 141.789L312.62 157.719L292.432 174.679L282.08 164.038L309.66 141.789Z" fill="#A80E36"/>
<path d="M272.657 174.02L280.27 185.708C282.674 186.944 323.065 151.215 328.841 145.126L332.485 127.235L336.793 121.824L272.657 174.02Z" stroke="#3F031B" stroke-width="6.89746" stroke-linecap="round" stroke-linejoin="round"/>
<path d="M291.771 185.28C290.948 188.686 287.519 190.781 284.113 189.959C280.706 189.137 278.612 185.707 279.434 182.301C280.257 178.895 283.686 176.8 287.092 177.623C290.499 178.445 292.593 181.873 291.771 185.28Z" fill="#F3E639"/>
<path d="M291.771 185.28C290.948 188.686 287.519 190.781 284.113 189.959C280.706 189.137 278.612 185.707 279.434 182.301C280.257 178.895 283.686 176.8 287.092 177.623C290.499 178.445 292.593 181.873 291.771 185.28Z" stroke="#151515" stroke-width="5.17309" stroke-linecap="round" stroke-linejoin="round"/>
<path d="M313.69 166.42C312.867 169.827 309.438 171.921 306.032 171.099C302.625 170.276 300.531 166.847 301.353 163.441C302.176 160.034 305.605 157.94 309.011 158.762C312.418 159.585 314.512 163.014 313.69 166.42Z" fill="#F3E639"/>
<path d="M313.69 166.42C312.867 169.827 309.438 171.921 306.032 171.099C302.625 170.276 300.531 166.847 301.353 163.441C302.176 160.034 305.605 157.94 309.011 158.762C312.418 159.585 314.512 163.014 313.69 166.42Z" stroke="#151515" stroke-width="5.17309" stroke-linecap="round" stroke-linejoin="round"/>
<path d="M288.005 127.321C289.858 124.014 302.205 114.132 306.209 113.958C307.823 113.888 321.967 129.697 320.967 133.886C320.334 136.53 315.085 141.631 294.996 158.848C278.173 173.265 271.243 179.19 268.033 179.751C264.851 180.307 251.192 162.947 252.691 159.111C253.678 156.583 262.581 147.49 266.984 146.006C270.586 144.791 274.794 147.983 276.557 148.37C278.32 148.758 287.644 141.71 289.006 138.929C290.387 136.111 286.533 129.948 288.005 127.321Z" fill="#FF2242"/>
<g opacity="0.5">
<path d="M271.865 146.747C271.865 146.747 263.581 150.929 255.034 162.249" stroke="white" stroke-width="6.89746" stroke-linecap="round" stroke-linejoin="round"/>
</g>
<path d="M261.921 175.253C261.921 175.253 261.921 175.253 318.206 127.768L315.532 122.95L258.84 170.596L261.921 175.253Z" fill="#F7FB2D"/>
<g opacity="0.5">
<path d="M288.005 127.321L304.721 118.531L318.829 130.25" stroke="white" stroke-width="6.89746" stroke-linecap="round" stroke-linejoin="round"/>
</g>
<path d="M288.005 127.321C289.858 124.014 302.201 113.93 306.21 113.958C307.039 113.964 321.504 134.151 321.504 134.151C321.384 135.166 315.085 141.631 294.996 158.848C278.174 173.265 270.482 180.067 269.25 180.245C269.25 180.245 264.066 174.353 260.668 170.234C256.486 165.165 252.242 160.176 252.691 159.111C253.744 156.609 262.59 147.514 266.984 146.005C269.575 145.115 274.795 147.983 276.557 148.37C278.32 148.758 287.644 141.71 289.007 138.929C290.387 136.111 286.533 129.948 288.005 127.321Z" stroke="#930329" stroke-width="6.89746" stroke-linecap="round" stroke-linejoin="round"/>
<path d="M265.732 176.373L269.25 180.245C270.482 180.067 278.173 173.265 294.996 158.848C315.085 141.631 321.384 135.167 321.504 134.151C321.504 134.151 320.567 132.763 317.955 128.983" stroke="#4C0420" stroke-width="6.89746" stroke-linecap="round" stroke-linejoin="round"/>
<path d="M366.541 80.8523C366.541 80.8523 366.914 68.9212 368.717 67.84C371.65 66.0821 374.784 74.8525 374.784 74.8525" fill="#84042C"/>
<path d="M366.541 80.8523C366.541 80.8523 366.914 68.9212 368.717 67.84C371.65 66.0821 374.784 74.8525 374.784 74.8525" stroke="#84042C" stroke-width="6.89746" stroke-linecap="round" stroke-linejoin="round"/>
<path d="M334.843 119.266C334.843 119.266 340.002 133.3 341.966 135.158C343.93 137.016 389.295 114.725 390.297 112.342C391.193 110.212 387.759 96.284 387.759 96.284L334.843 119.266Z" fill="#89092A"/>
<path d="M350.149 117.068L357.745 129.418L383.224 116.983L377.106 103.12L350.149 117.068Z" fill="#A80E36"/>
<path d="M334.843 119.266C334.843 119.266 340.822 134.203 342.786 136.061C342.786 136.061 389.295 114.725 390.297 112.342C391.193 110.212 387.759 96.284 387.759 96.284L334.843 119.266Z" stroke="#3F031B" stroke-width="6.89746" stroke-linecap="round" stroke-linejoin="round"/>
<path d="M352.057 138.541C350.393 141.626 346.544 142.777 343.459 141.113C340.375 139.449 339.224 135.599 340.888 132.514C342.552 129.43 346.402 128.28 349.486 129.944C352.571 131.608 353.721 135.457 352.057 138.541Z" fill="#F3E639"/>
<path d="M352.057 138.541C350.393 141.626 346.544 142.777 343.459 141.113C340.375 139.449 339.224 135.599 340.888 132.514C342.552 129.43 346.402 128.28 349.486 129.944C352.571 131.608 353.721 135.457 352.057 138.541Z" stroke="#151515" stroke-width="5.17309" stroke-linecap="round" stroke-linejoin="round"/>
<path d="M378.059 125.894C376.395 128.978 372.546 130.129 369.461 128.465C366.377 126.801 365.227 122.952 366.891 119.868C368.555 116.783 372.404 115.632 375.488 117.296C378.573 118.96 379.723 122.809 378.059 125.894Z" fill="#F3E639"/>
<path d="M378.059 125.894C376.395 128.978 372.546 130.129 369.461 128.465C366.377 126.801 365.227 122.952 366.891 119.868C368.555 116.783 372.404 115.632 375.488 117.296C378.573 118.96 379.723 122.809 378.059 125.894Z" stroke="#151515" stroke-width="5.17309" stroke-linecap="round" stroke-linejoin="round"/>
<path d="M362.489 81.7105C365.124 78.9844 380.289 72.4051 384.205 73.2581C385.784 73.6015 395.429 92.495 393.393 96.2901C392.108 98.6866 385.731 102.281 361.916 113.805C341.973 123.456 333.761 127.418 330.514 127.142C327.296 126.868 318.554 106.355 320.981 103.028C322.58 100.835 333.469 94.5566 338.105 94.2444C341.898 93.9883 345.153 98.1482 346.759 98.9721C348.364 99.7959 358.47 95.5318 360.497 93.1899C362.551 90.8174 360.396 83.8748 362.489 81.7105Z" fill="#FF2242"/>
<g opacity="0.5">
<path d="M342.033 95.6875C342.033 95.6875 331.398 99.6594 322.065 106.784" stroke="white" stroke-width="6.89746" stroke-linecap="round" stroke-linejoin="round"/>
</g>
<path d="M325.751 121.234C325.751 121.234 325.751 121.235 392.284 89.6715L390.956 84.1455L323.988 115.761L325.751 121.234Z" fill="#F7FB2D"/>
<g opacity="0.5">
<path d="M362.489 81.7104L382.425 77.0196L392.154 92.3548" stroke="white" stroke-width="6.89746" stroke-linecap="round" stroke-linejoin="round"/>
</g>
<path d="M362.489 81.7106C365.124 78.9845 380.289 72.4052 384.205 73.2581C385.784 73.6016 394.171 96.4243 393.567 97.1851C392.455 98.5869 385.731 102.281 361.916 113.805C341.973 123.457 333.02 127.962 331.399 128.151C331.399 128.151 328.226 120.987 325.99 116.137C323.239 110.169 320.275 103.944 320.981 103.028C322.638 100.878 333.471 94.5827 338.105 94.2444C340.837 94.0452 345.153 98.1483 346.759 98.9721C348.364 99.796 358.47 95.5319 360.497 93.19C362.551 90.8175 360.396 83.8749 362.489 81.7106Z" stroke="#930329" stroke-width="6.89746" stroke-linecap="round" stroke-linejoin="round"/>
<path d="M393.568 97.1849C392.942 98.3555 385.731 102.281 361.916 113.805C341.974 123.456 333.021 127.962 331.399 128.151L328.806 122.341" stroke="#4C0420" stroke-width="6.89746" stroke-linecap="round" stroke-linejoin="round"/>
</g>
</g>
</g>
</g>
<defs>
<clipPath id="clip0_1321_102157">
<rect width="512" height="512" fill="white" transform="translate(0.220703 0.424805)"/>
</clipPath>
</defs>
</svg>
