<svg width="513" height="513" viewBox="0 0 513 513" fill="none" xmlns="http://www.w3.org/2000/svg">
<g clip-path="url(#clip0_1321_101767)">
<mask id="mask0_1321_101767" style="mask-type:luminance" maskUnits="userSpaceOnUse" x="0" y="0" width="513" height="513">
<path d="M512.335 0.552734H0.334961V512.553H512.335V0.552734Z" fill="white"/>
</mask>
<g mask="url(#mask0_1321_101767)">
<path d="M115.003 82.5257V57.4642C115.003 50.7526 178.281 44.4016 256.336 44.4016C334.392 44.4016 397.669 50.7526 397.669 57.4642V82.5257H115.003Z" fill="#9B4F29"/>
<g opacity="0.6">
<path d="M397.672 57.467V82.5285H387.619C387.072 82.2189 386.38 81.9092 385.542 81.5996V66.8195C385.542 60.1079 327.697 53.7606 256.337 53.7606C184.977 53.7606 127.132 60.1079 127.132 66.8195V81.5996C126.294 81.9092 125.593 82.2189 125.047 82.5285H115.002V57.467C115.002 50.7554 178.284 44.3989 256.337 44.3989C334.39 44.3989 397.672 50.7554 397.672 57.467Z" fill="#B26C3D"/>
</g>
<g opacity="0.5">
<path d="M351.621 47.9869V82.5285H250.773V44.4171C252.622 44.3989 254.471 44.3989 256.338 44.3989C293.056 44.3989 326.495 45.8013 351.621 47.9869Z" fill="url(#paint0_linear_1321_101767)"/>
</g>
<path d="M123.585 98.2947V84.2331C123.585 77.9295 183.02 72.8188 256.336 72.8188C329.653 72.8188 389.088 77.9295 389.088 84.2331V98.2947H123.585Z" fill="#823E26"/>
<g opacity="0.5">
<path d="M341.603 75.4799V98.2921H240.756V72.8937C245.865 72.8481 251.065 72.8208 256.337 72.8208C288.803 72.8208 318.536 73.8225 341.603 75.4799Z" fill="url(#paint1_linear_1321_101767)"/>
</g>
<path d="M123.585 98.2947V84.2331C123.585 77.9295 183.02 72.8188 256.336 72.8188C329.653 72.8188 389.088 77.9295 389.088 84.2331V98.2947H123.585Z" stroke="#3A190C" stroke-width="7.28532" stroke-linecap="round" stroke-linejoin="round"/>
<path d="M389.088 98.2949C389.088 91.9913 329.653 86.8806 256.336 86.8806C183.02 86.8806 123.585 91.9913 123.585 98.2949C123.585 104.599 183.02 109.708 256.336 109.708C329.653 109.708 389.088 104.599 389.088 98.2949Z" fill="#542810"/>
<path d="M397.669 82.5257C397.669 83.9937 394.639 85.4016 389.088 86.7047V98.2948C389.087 104.598 329.652 109.708 256.336 109.708C183.021 109.708 123.586 104.598 123.585 98.2948V86.7047C118.034 85.4016 115.003 83.9937 115.003 82.5257V57.4642C115.003 50.7526 178.281 44.4016 256.336 44.4016C334.392 44.4016 397.669 50.7526 397.669 57.4642V82.5257Z" stroke="#542814" stroke-width="7.28532" stroke-linecap="round" stroke-linejoin="round"/>
<path d="M361.949 104.015C361.949 100.87 314.664 98.3203 256.336 98.3203C198.008 98.3203 150.723 100.87 150.723 104.015C150.723 107.159 198.008 109.708 256.336 109.708C314.664 109.708 361.949 107.159 361.949 104.015Z" fill="#1D1D1B"/>
<g opacity="0.35">
<path d="M220.086 48.3047C140.586 50.555 119.336 58.8047 119.336 58.8047C119.336 58.8047 165.836 52.0539 223.336 51.054C251.083 50.5714 289.086 48.8047 289.086 48.8047C289.086 48.8047 247.579 47.527 220.086 48.3047Z" fill="url(#paint2_linear_1321_101767)"/>
</g>
<path d="M115.003 429.901V454.963C115.003 461.675 178.281 468.026 256.336 468.026C334.392 468.026 397.669 461.675 397.669 454.963V429.901H115.003Z" fill="#9B4F29"/>
<g opacity="0.6">
<path d="M397.672 454.96V429.899H387.619C387.072 430.209 386.38 430.518 385.542 430.828V445.608C385.542 452.319 327.697 458.666 256.337 458.666C184.977 458.666 127.132 452.319 127.132 445.608V430.828C126.294 430.518 125.593 430.209 125.047 429.899H115.002V454.96C115.002 461.672 178.284 468.028 256.337 468.028C334.39 468.028 397.672 461.672 397.672 454.96Z" fill="#B26C3D"/>
</g>
<g opacity="0.5">
<path d="M351.621 429.902V464.434C326.495 466.62 293.056 468.022 256.338 468.022C254.471 468.022 252.622 468.022 250.773 468.004V429.902H351.621Z" fill="url(#paint3_linear_1321_101767)"/>
</g>
<path d="M123.585 414.133V428.194C123.585 434.498 183.02 439.608 256.336 439.608C329.653 439.608 389.088 434.498 389.088 428.194V414.133H123.585Z" fill="#823E26"/>
<g opacity="0.5">
<path d="M341.603 414.129V436.95C318.536 438.608 288.803 439.609 256.337 439.609C251.065 439.609 245.865 439.582 240.756 439.536V414.129H341.603Z" fill="url(#paint4_linear_1321_101767)"/>
</g>
<path d="M123.585 414.133V428.194C123.585 434.498 183.02 439.608 256.336 439.608C329.653 439.608 389.088 434.498 389.088 428.194V414.133H123.585Z" stroke="#3A190C" stroke-width="7.28532" stroke-linecap="round" stroke-linejoin="round"/>
<path d="M389.088 414.133C389.088 420.436 329.653 425.546 256.336 425.546C183.02 425.546 123.585 420.436 123.585 414.133C123.585 407.829 183.02 402.718 256.336 402.718C329.653 402.718 389.088 407.829 389.088 414.133Z" fill="#542810"/>
<path d="M123.336 425.552C123.336 425.552 115.588 426.204 115.086 430.053C114.335 435.803 157.328 447.045 256.085 445.803C335.584 444.803 391.33 440.46 397.835 430.053C399.085 428.053 389.085 425.552 389.085 425.552C389.085 425.552 395.72 426.305 392.46 430.427C383.96 441.177 286.647 444.137 256.835 443.553C218.586 442.802 130.085 441.553 120.836 430.802C120.836 423.302 123.336 425.552 123.336 425.552Z" fill="url(#paint5_linear_1321_101767)"/>
<path d="M122.461 415.177C122.986 420.951 143.086 427.052 256.085 427.802C342.085 428.373 383.959 422.302 389.209 416.427C389.209 415.803 389.46 414.678 388.709 414.427C381.335 423.803 286.147 426.137 256.335 425.552C218.085 424.802 132.586 425.052 123.336 414.302C123.336 414.177 122.336 413.802 122.461 415.177Z" fill="url(#paint6_linear_1321_101767)"/>
<path d="M397.669 429.901C397.669 428.433 394.639 427.025 389.088 425.722V414.133C389.087 407.829 329.652 402.718 256.336 402.718C183.021 402.718 123.586 407.829 123.585 414.133V425.722C118.034 427.025 115.003 428.433 115.003 429.901V454.963C115.003 461.675 178.281 468.026 256.336 468.026C334.392 468.026 397.669 461.675 397.669 454.963V429.901Z" stroke="#542814" stroke-width="7.28532" stroke-linecap="round" stroke-linejoin="round"/>
<path d="M361.949 408.438C361.949 405.294 314.664 402.745 256.336 402.745C198.008 402.745 150.723 405.294 150.723 408.438C150.723 411.583 198.008 414.133 256.336 414.133C314.664 414.133 361.949 411.583 361.949 408.438Z" fill="#1D1D1B"/>
<mask id="mask1_1321_101767" style="mask-type:alpha" maskUnits="userSpaceOnUse" x="128" y="94" width="256" height="325">
<mask id="mask2_1321_101767" style="mask-type:luminance" maskUnits="userSpaceOnUse" x="23" y="23" width="467" height="467">
<path d="M23.2051 23.072H489.466V489.333H23.2051V23.072Z" fill="white"/>
</mask>
<g mask="url(#mask2_1321_101767)">
<path d="M129.239 368.847C130.642 336.438 154.055 308.669 180.755 291.764C194.097 283.307 206.983 277.576 216.526 272.405C226.061 267.234 232.272 262.604 232.272 256.35H280.391C280.391 268.858 305.216 274.851 331.908 291.764C358.608 308.669 382.022 336.438 383.424 368.847C384.836 401.247 381.457 409.927 365.657 412.681C334.685 418.086 300.645 418.058 256.332 418.058C212.019 418.058 176.066 418.086 147.006 412.681C131.233 409.75 127.828 401.247 129.239 368.847ZM147.006 100.019C177.988 94.6142 212.019 94.6422 256.332 94.6422C300.654 94.6422 336.598 94.6142 365.657 100.019C381.43 102.95 384.836 111.463 383.433 143.862C382.022 176.261 358.608 204.04 331.908 220.945C318.566 229.402 305.681 235.124 296.137 240.304C286.602 245.475 280.391 250.096 280.391 256.35H232.272C232.272 243.851 207.447 237.859 180.755 220.945C154.055 204.04 130.642 176.261 129.239 143.862C127.828 111.463 131.206 102.782 147.006 100.019Z" fill="white"/>
</g>
</mask>
<g mask="url(#mask1_1321_101767)">
<mask id="mask3_1321_101767" style="mask-type:luminance" maskUnits="userSpaceOnUse" x="23" y="23" width="467" height="467">
<path d="M23.2051 23.072H489.466V489.333H23.2051V23.072Z" fill="white"/>
</mask>
<g mask="url(#mask3_1321_101767)">
<path d="M262.248 310.182C260.376 355.788 272.553 370.456 285.666 382.217C313.332 407.03 330.627 409.073 332.114 416.565C309.903 418.068 285.324 418.058 256.338 418.058C223.881 418.058 187.808 418.62 171.855 415.958C166.408 412.086 190.138 403.818 203.129 396.081C238.952 374.747 248.433 359.682 249.608 317.948C250.724 278.292 238.325 259.291 230.201 250.395C230.192 250.395 213.391 238.97 213.345 238.942C203.665 232.8 196.999 231.223 180.761 220.936C154.061 204.032 130.648 185.369 129.245 152.96C129.245 152.96 137.183 141.413 257.488 141.412C373.715 141.411 383.43 152.96 383.43 152.96C382.028 185.369 358.614 204.032 331.914 220.936C318.572 229.393 305.686 235.124 296.143 240.296C289.504 243.899 284.753 247.196 280.826 251.297C274.309 258.106 263.749 273.627 262.248 310.182Z" fill="#C6A888"/>
<mask id="mask4_1321_101767" style="mask-type:alpha" maskUnits="userSpaceOnUse" x="129" y="141" width="255" height="278">
<mask id="mask5_1321_101767" style="mask-type:luminance" maskUnits="userSpaceOnUse" x="23" y="17" width="467" height="479">
<path d="M23.2051 17.2437H489.466V495.161H23.2051V17.2437Z" fill="white"/>
</mask>
<g mask="url(#mask5_1321_101767)">
<path d="M262.248 310.182C260.376 355.788 272.553 370.456 285.666 382.217C313.332 407.03 330.627 409.073 332.114 416.565C309.903 418.068 285.324 418.058 256.338 418.058C223.881 418.058 187.808 418.62 171.855 415.958C166.408 412.086 190.138 403.818 203.129 396.081C238.952 374.747 248.433 359.682 249.608 317.948C250.724 278.292 238.325 259.291 230.201 250.395C230.192 250.395 213.391 238.97 213.345 238.942C203.665 232.8 196.999 231.223 180.761 220.936C154.061 204.032 130.648 185.369 129.245 152.96C129.245 152.96 137.183 141.413 257.488 141.412C373.715 141.411 383.43 152.96 383.43 152.96C382.028 185.369 358.614 204.032 331.914 220.936C318.572 229.393 305.686 235.124 296.143 240.296C289.504 243.899 284.753 247.196 280.826 251.297C274.309 258.106 263.749 273.627 262.248 310.182Z" fill="white"/>
</g>
</mask>
<g mask="url(#mask4_1321_101767)">
<mask id="mask6_1321_101767" style="mask-type:luminance" maskUnits="userSpaceOnUse" x="23" y="17" width="467" height="479">
<path d="M23.2051 17.2437H489.466V495.161H23.2051V17.2437Z" fill="white"/>
</mask>
<g mask="url(#mask6_1321_101767)">
<g opacity="0.1">
<path d="M192.904 165.207C192.904 167.108 191.401 168.648 189.547 168.648C187.693 168.648 186.19 167.108 186.19 165.207C186.19 163.307 187.693 161.767 189.547 161.767C191.401 161.767 192.904 163.307 192.904 165.207Z" fill="#693304"/>
<path d="M239.457 223.885C239.457 225.785 237.954 227.325 236.1 227.325C234.246 227.325 232.743 225.785 232.743 223.885C232.743 221.984 234.246 220.444 236.1 220.444C237.954 220.444 239.457 221.984 239.457 223.885Z" fill="#693304"/>
<path d="M214.141 197.993C214.141 199.894 212.639 201.433 210.784 201.433C208.93 201.433 207.428 199.894 207.428 197.993C207.428 196.093 208.93 194.553 210.784 194.553C212.639 194.553 214.141 196.093 214.141 197.993Z" fill="#693304"/>
<path d="M177.088 195.151C177.088 197.052 175.586 198.592 173.732 198.592C171.878 198.592 170.376 197.052 170.376 195.151C170.376 193.251 171.878 191.711 173.732 191.711C175.586 191.711 177.088 193.251 177.088 195.151Z" fill="#693304"/>
<path d="M241.305 155.286C241.305 157.187 239.804 158.727 237.949 158.727C236.095 158.727 234.593 157.187 234.593 155.286C234.593 153.386 236.095 151.846 237.949 151.846C239.804 151.846 241.305 153.386 241.305 155.286Z" fill="#693304"/>
<path d="M154.08 158.327C154.08 160.228 152.577 161.767 150.723 161.767C148.869 161.767 147.366 160.228 147.366 158.327C147.366 156.427 148.869 154.886 150.723 154.886C152.577 154.886 154.08 156.427 154.08 158.327Z" fill="#693304"/>
<path d="M262.203 183.21C262.203 185.11 260.7 186.65 258.846 186.65C256.992 186.65 255.49 185.11 255.49 183.21C255.49 181.309 256.992 179.769 258.846 179.769C260.7 179.769 262.203 181.309 262.203 183.21Z" fill="#693304"/>
<path d="M292.043 158.727C292.043 160.627 290.541 162.167 288.687 162.167C286.833 162.167 285.33 160.627 285.33 158.727C285.33 156.826 286.833 155.286 288.687 155.286C290.541 155.286 292.043 156.826 292.043 158.727Z" fill="#693304"/>
<path d="M280.983 223.885C280.983 225.785 279.48 227.325 277.626 227.325C275.772 227.325 274.27 225.785 274.27 223.885C274.27 221.984 275.772 220.444 277.626 220.444C279.48 220.444 280.983 221.984 280.983 223.885Z" fill="#693304"/>
<path d="M326.264 197.993C326.264 199.894 324.762 201.433 322.907 201.433C321.053 201.433 319.551 199.894 319.551 197.993C319.551 196.093 321.053 194.553 322.907 194.553C324.762 194.553 326.264 196.093 326.264 197.993Z" fill="#693304"/>
<path d="M335.232 152.326C335.232 154.227 333.729 155.767 331.875 155.767C330.021 155.767 328.52 154.227 328.52 152.326C328.52 150.426 330.021 148.885 331.875 148.885C333.729 148.885 335.232 150.426 335.232 152.326Z" fill="#693304"/>
<path d="M354.977 173.851C354.977 175.751 353.474 177.292 351.62 177.292C349.766 177.292 348.264 175.751 348.264 173.851C348.264 171.951 349.766 170.41 351.62 170.41C353.474 170.41 354.977 171.951 354.977 173.851Z" fill="#693304"/>
</g>
<g opacity="0.1">
<path d="M319.771 388.423C319.771 386.522 321.274 384.982 323.128 384.982C324.982 384.982 326.484 386.522 326.484 388.423C326.484 390.323 324.982 391.864 323.128 391.864C321.274 391.864 319.771 390.323 319.771 388.423Z" fill="#693304"/>
<path d="M273.218 329.745C273.218 327.845 274.721 326.306 276.575 326.306C278.429 326.306 279.932 327.845 279.932 329.745C279.932 331.646 278.429 333.186 276.575 333.186C274.721 333.186 273.218 331.646 273.218 329.745Z" fill="#693304"/>
<path d="M298.533 355.637C298.533 353.737 300.035 352.197 301.889 352.197C303.743 352.197 305.246 353.737 305.246 355.637C305.246 357.537 303.743 359.078 301.889 359.078C300.035 359.078 298.533 357.537 298.533 355.637Z" fill="#693304"/>
<path d="M335.586 358.479C335.586 356.579 337.089 355.039 338.943 355.039C340.797 355.039 342.299 356.579 342.299 358.479C342.299 360.38 340.797 361.919 338.943 361.919C337.089 361.919 335.586 360.38 335.586 358.479Z" fill="#693304"/>
<path d="M271.37 398.344C271.37 396.444 272.871 394.904 274.725 394.904C276.579 394.904 278.082 396.444 278.082 398.344C278.082 400.245 276.579 401.784 274.725 401.784C272.871 401.784 271.37 400.245 271.37 398.344Z" fill="#693304"/>
<path d="M358.595 395.303C358.595 393.403 360.098 391.864 361.952 391.864C363.806 391.864 365.309 393.403 365.309 395.303C365.309 397.204 363.806 398.744 361.952 398.744C360.098 398.744 358.595 397.204 358.595 395.303Z" fill="#693304"/>
<path d="M250.472 370.421C250.472 368.52 251.975 366.98 253.829 366.98C255.683 366.98 257.185 368.52 257.185 370.421C257.185 372.321 255.683 373.861 253.829 373.861C251.975 373.861 250.472 372.321 250.472 370.421Z" fill="#693304"/>
<path d="M220.632 394.904C220.632 393.003 222.134 391.463 223.988 391.463C225.842 391.463 227.345 393.003 227.345 394.904C227.345 396.804 225.842 398.344 223.988 398.344C222.134 398.344 220.632 396.804 220.632 394.904Z" fill="#693304"/>
<path d="M231.692 329.745C231.692 327.845 233.194 326.306 235.049 326.306C236.903 326.306 238.405 327.845 238.405 329.745C238.405 331.646 236.903 333.186 235.049 333.186C233.194 333.186 231.692 331.646 231.692 329.745Z" fill="#693304"/>
<path d="M186.411 355.637C186.411 353.737 187.913 352.197 189.767 352.197C191.621 352.197 193.124 353.737 193.124 355.637C193.124 357.537 191.621 359.078 189.767 359.078C187.913 359.078 186.411 357.537 186.411 355.637Z" fill="#693304"/>
<path d="M177.443 401.304C177.443 399.404 178.945 397.864 180.799 397.864C182.654 397.864 184.155 399.404 184.155 401.304C184.155 403.205 182.654 404.745 180.799 404.745C178.945 404.745 177.443 403.205 177.443 401.304Z" fill="#693304"/>
<path d="M157.698 379.779C157.698 377.879 159.2 376.339 161.054 376.339C162.909 376.339 164.411 377.879 164.411 379.779C164.411 381.68 162.909 383.22 161.054 383.22C159.2 383.22 157.698 381.68 157.698 379.779Z" fill="#693304"/>
</g>
<g opacity="0.1">
<g opacity="0.20095">
<path d="M264.462 352.56C264.462 354.46 262.96 356 261.106 356C259.252 356 257.749 354.46 257.749 352.56C257.749 350.659 259.252 349.119 261.106 349.119C262.96 349.119 264.462 350.659 264.462 352.56Z" fill="#693304"/>
</g>
<path d="M258.986 285.675C258.986 287.576 257.483 289.116 255.629 289.116C253.775 289.116 252.272 287.576 252.272 285.675C252.272 283.775 253.775 282.235 255.629 282.235C257.483 282.235 258.986 283.775 258.986 285.675Z" fill="#693304"/>
</g>
<g opacity="0.5">
<path d="M262.248 310.182C260.372 355.789 272.556 370.453 285.67 382.215C313.336 407.025 330.63 409.069 332.114 416.565C311.351 417.965 288.511 418.049 261.947 418.058C275.416 416.696 287.305 409.279 278.544 398.937C260.668 377.841 256.57 354.973 255.491 326.226C254.132 290.02 244.426 275.019 244.071 274.609C244.062 274.599 244.062 274.599 244.062 274.599C240.009 262.651 234.5 255.109 230.201 250.395C230.192 250.395 230.192 250.386 230.192 250.386C227.406 246.624 222.27 243.637 222.224 243.609C212.544 237.467 196.999 231.223 180.761 220.936C178.357 219.415 175.99 217.809 173.658 216.11C201.8 224.437 249.135 201.434 267.111 172.248C284.297 144.344 268.513 75.3657 268.513 75.3657C318.743 75.3657 371.255 135.925 383.43 143.853C382.028 176.262 358.614 204.032 331.914 220.936C318.572 229.393 305.686 235.124 296.143 240.296C289.504 243.899 284.75 247.194 280.825 251.301C274.305 258.106 263.75 273.628 262.248 310.182Z" fill="#734617"/>
</g>
</g>
</g>
<mask id="mask7_1321_101767" style="mask-type:alpha" maskUnits="userSpaceOnUse" x="129" y="141" width="255" height="278">
<mask id="mask8_1321_101767" style="mask-type:luminance" maskUnits="userSpaceOnUse" x="23" y="17" width="467" height="479">
<path d="M23.2051 17.2437H489.466V495.161H23.2051V17.2437Z" fill="white"/>
</mask>
<g mask="url(#mask8_1321_101767)">
<path d="M262.248 310.182C260.376 355.788 272.553 370.456 285.666 382.217C313.332 407.03 330.627 409.073 332.114 416.565C309.903 418.068 285.324 418.058 256.338 418.058C223.881 418.058 187.808 418.62 171.855 415.958C166.408 412.086 190.138 403.818 203.129 396.081C238.952 374.747 248.433 359.682 249.608 317.948C250.724 278.292 238.325 259.291 230.201 250.395C230.192 250.395 213.391 238.97 213.345 238.942C203.665 232.8 196.999 231.223 180.761 220.936C154.061 204.032 130.648 185.369 129.245 152.96C129.245 152.96 137.183 141.413 257.488 141.412C373.715 141.411 383.43 152.96 383.43 152.96C382.028 185.369 358.614 204.032 331.914 220.936C318.572 229.393 305.686 235.124 296.143 240.296C289.504 243.899 284.753 247.196 280.826 251.297C274.309 258.106 263.749 273.627 262.248 310.182Z" fill="white"/>
</g>
</mask>
<g mask="url(#mask7_1321_101767)">
<g opacity="0.55">
<g opacity="0.5">
<path d="M384.669 99.4903C408.872 126.455 377.454 235.667 287.228 245.745C262.674 258.653 259.523 266.469 226.257 247.212C91.5049 200.662 118.391 106.737 117.738 94.8642C168.001 31.2677 263.621 -47.9602 384.669 99.4903Z" fill="#784A19"/>
</g>
</g>
</g>
</g>
</g>
<g opacity="0.4">
<path d="M303.335 143.304C278.835 142.054 246.225 142.048 225.579 142.461C143.731 144.1 132.239 150.158 133.836 152.554C135.198 154.597 162.415 150.019 214.088 148.64C238.278 147.994 268.938 147.804 302.585 147.804C312.585 147.804 319.314 144.119 303.335 143.304Z" fill="#FFDABD"/>
<path d="M252.335 301.053C250.835 294.553 253.006 345.933 244.835 359.552C238.835 369.552 240.335 374.552 246.335 376.052C252.335 377.552 257.335 370.052 257.335 361.552C257.335 353.17 253.835 307.552 252.335 301.053Z" fill="#FFECDC"/>
</g>
<path d="M384.564 143.861C383.891 171.1 366.814 199.83 337.494 217.94C322.844 227 310.694 235.64 300.214 241.18C289.744 246.72 282.925 251.68 282.925 258.38H230.085C230.085 244.98 204.575 236.31 175.265 218.19C145.946 200.08 128.082 176.114 127.946 141.361C127.836 113.304 131.586 107.804 133.956 106.651C149.948 98.8719 205.095 96.391 253.755 96.391C302.414 96.391 346.181 95.47 377.054 105.401C379.084 106.054 385.084 122.804 384.564 143.861Z" fill="url(#paint7_radial_1321_101767)"/>
<path d="M378.054 406.359C367.834 414.052 308.665 417.119 260.005 417.119C211.336 417.119 143.548 417.228 133.206 404.609C130.086 400.802 126.586 381.802 127.686 366.639C129.557 340.844 144.196 314.419 173.516 296.31C188.166 287.25 202.316 281.12 212.796 275.57C223.266 270.03 230.085 265.08 230.085 258.38H282.925C282.925 271.77 310.185 278.19 339.495 296.31C368.814 314.419 383.334 340.052 384.064 368.639C384.951 403.372 380.08 404.834 378.054 406.359Z" fill="url(#paint8_radial_1321_101767)"/>
<g opacity="0.87">
<mask id="mask9_1321_101767" style="mask-type:luminance" maskUnits="userSpaceOnUse" x="126" y="285" width="258" height="133">
<path d="M377.554 407.84C365.084 411.977 338.335 414.402 261.255 416.907C212.711 418.484 158.336 416.702 134.456 407.277C133.298 406.821 125.768 377.794 126.936 366.241C129.836 337.552 141.421 329.491 154.016 313.118C164.836 299.053 191.406 286.966 193.816 286.354C160.836 297.853 129.836 356.552 169.74 379.819C240.881 421.299 346.59 395.679 357.364 352.761C367.834 311.052 324.065 286.566 321.455 285.878C327.805 287.322 342.237 298.285 346.494 301.393C372.834 320.627 380.382 345.793 383.064 360.104C385.334 372.214 379.613 407.157 377.554 407.84Z" fill="url(#paint9_radial_1321_101767)"/>
</mask>
<g mask="url(#mask9_1321_101767)">
<path d="M377.554 407.84C365.084 411.977 338.335 414.402 261.255 416.907C212.711 418.484 158.336 416.702 134.456 407.277C133.298 406.821 125.768 377.794 126.936 366.241C129.836 337.552 141.421 329.491 154.016 313.118C164.836 299.053 191.406 286.966 193.816 286.354C160.836 297.853 129.836 356.552 169.74 379.819C240.881 421.299 346.59 395.679 357.364 352.761C367.834 311.052 324.065 286.566 321.455 285.878C327.805 287.322 342.237 298.285 346.494 301.393C372.834 320.627 380.382 345.793 383.064 360.104C385.334 372.214 379.613 407.157 377.554 407.84Z" fill="url(#paint10_radial_1321_101767)"/>
</g>
</g>
<g opacity="0.1">
<path d="M377.304 106.084C349.472 96.461 302.165 96.8241 253.505 96.8241C204.835 96.8241 151.313 100.435 133.956 106.334C131.836 107.054 128.016 118.018 127.686 141.554C127.336 166.554 144.196 199.023 173.516 217.133C175.966 218.653 179.656 221.083 182.066 222.443C144.616 200.493 130.836 149.554 169.99 131.742C239.236 100.24 356.56 112.678 357.114 161.704C357.631 207.477 317.065 229.693 314.455 231.223C320.805 228.013 330.594 221.903 337.494 217.633C366.814 199.523 380.879 178.377 384.314 143.804C385.084 136.054 380.834 107.304 377.304 106.084Z" fill="#1D1D1B"/>
</g>
<g opacity="0.44">
<mask id="mask10_1321_101767" style="mask-type:luminance" maskUnits="userSpaceOnUse" x="126" y="95" width="259" height="171">
<path d="M376.997 104.352C376.997 104.352 372.816 93.9114 254.098 96.2217C190.349 97.462 160.139 98.5381 133.923 104.852C128.072 119.747 113.822 158.628 150.474 197.557C167.688 215.841 176.803 219.414 193.228 227.901C223.597 243.591 231.956 251.903 230.796 258.533C230.796 267.713 281.416 267.203 281.416 258.023C280.836 249.053 304.752 235.866 319.674 228.938C336.246 221.244 353.85 206.671 364.111 195.969C400.883 157.619 376.997 104.352 376.997 104.352Z" fill="url(#paint11_radial_1321_101767)"/>
</mask>
<g mask="url(#mask10_1321_101767)">
<path d="M376.997 104.352C376.997 104.352 372.816 93.9114 254.098 96.2217C190.349 97.462 160.139 98.5381 133.923 104.852C128.072 119.747 113.822 158.628 150.474 197.557C167.688 215.841 176.803 219.414 193.228 227.901C223.597 243.591 231.956 251.903 230.796 258.533C230.796 267.713 281.416 267.203 281.416 258.023C280.836 249.053 304.752 235.866 319.674 228.938C336.246 221.244 353.85 206.671 364.111 195.969C400.883 157.619 376.997 104.352 376.997 104.352Z" fill="url(#paint12_radial_1321_101767)"/>
</g>
</g>
<g opacity="0.48">
<path d="M260.596 192.966C225.968 191.252 189.697 204.547 202.654 220.644C217.773 239.428 236.512 246.623 233.169 261.553C230.236 274.654 195.797 285.309 198.197 304.165C201.011 326.275 284.253 326.107 306.882 314.793C329.511 303.479 300.233 288.488 290.082 278.337C280.739 268.994 270.454 257.551 288.025 243.709C306.903 228.838 345.962 197.192 260.596 192.966Z" fill="url(#paint13_linear_1321_101767)"/>
</g>
<g opacity="0.96">
<path d="M255.744 243.968C250.046 244.031 231.901 245.991 231.628 257.307C231.345 269.043 249.535 270.216 255.671 270.173C261.435 270.132 281.155 268.875 281.409 256.601C281.614 246.661 261.945 243.898 255.744 243.968Z" fill="url(#paint14_radial_1321_101767)"/>
</g>
<g opacity="0.92">
<mask id="mask11_1321_101767" style="mask-type:luminance" maskUnits="userSpaceOnUse" x="143" y="96" width="225" height="140">
<path d="M363.834 103.054C357.834 101.054 299.284 98.471 254.406 96.721C212.9 95.103 152.336 100.554 144.836 103.054C134.836 155.054 167.836 235.507 255.835 235.053C352.835 234.553 378.334 153.554 363.834 103.054Z" fill="url(#paint15_radial_1321_101767)"/>
</mask>
<g mask="url(#mask11_1321_101767)">
<path d="M363.834 103.054C357.834 101.054 299.284 98.471 254.406 96.721C212.9 95.103 152.336 100.554 144.836 103.054C134.836 155.054 167.836 235.507 255.835 235.053C352.835 234.553 378.334 153.554 363.834 103.054Z" fill="url(#paint16_radial_1321_101767)"/>
</g>
</g>
<mask id="mask12_1321_101767" style="mask-type:luminance" maskUnits="userSpaceOnUse" x="130" y="96" width="234" height="53">
<path d="M362.584 103.754C347.834 92.5541 188.086 96.8491 140.086 103.979C134.586 105.244 127.998 124.577 130.586 141.149C132.836 155.553 140.542 145.786 140.836 139.919C142.836 100.054 151.836 118.834 151.336 122.194C150.836 125.554 153.836 143.319 261.335 143.664C362.334 142.859 366.334 104.789 362.584 103.754Z" fill="url(#paint17_radial_1321_101767)"/>
</mask>
<g mask="url(#mask12_1321_101767)">
<path d="M362.584 103.754C347.834 92.5541 188.086 96.8491 140.086 103.979C134.586 105.244 127.998 124.577 130.586 141.149C132.836 155.553 140.542 145.786 140.836 139.919C142.836 100.054 151.836 118.834 151.336 122.194C150.836 125.554 153.836 143.319 261.335 143.664C362.334 142.859 366.334 104.789 362.584 103.754Z" fill="url(#paint18_radial_1321_101767)"/>
</g>
<mask id="mask13_1321_101767" style="mask-type:luminance" maskUnits="userSpaceOnUse" x="135" y="96" width="243" height="19">
<path d="M253.835 96.5541C165.336 98.0541 135.336 106.054 135.336 106.054C135.336 106.054 197.345 116.047 256.335 114.554C335.334 112.554 377.834 105.054 377.834 105.054C377.834 105.054 339.323 95.1051 253.835 96.5541Z" fill="url(#paint19_linear_1321_101767)"/>
</mask>
<g mask="url(#mask13_1321_101767)">
<path d="M253.835 96.5541C165.336 98.0541 135.336 106.054 135.336 106.054C135.336 106.054 197.345 116.047 256.335 114.554C335.334 112.554 377.834 105.054 377.834 105.054C377.834 105.054 339.323 95.1051 253.835 96.5541Z" fill="url(#paint20_linear_1321_101767)"/>
</g>
<path d="M371.584 104.804C371.584 104.804 371.334 117.804 363.584 123.804C364.584 126.054 365.084 129.804 365.084 129.804C365.084 129.804 376.834 124.554 378.084 113.554C378.604 108.974 371.584 104.804 371.584 104.804Z" fill="#CAF9FF" fill-opacity="0.45"/>
<path d="M359.585 126.304C359.585 126.304 349.335 132.304 335.585 136.054C351.585 137.304 361.335 131.554 361.335 131.554L359.585 126.304Z" fill="#CAF9FF" fill-opacity="0.45"/>
<g opacity="0.29">
<path d="M377.334 123.304C377.334 123.304 375.584 128.804 372.834 130.804C374.334 137.304 375.334 143.804 375.334 143.804C375.334 143.804 377.334 143.054 379.584 141.054C380.084 134.054 377.334 123.304 377.334 123.304Z" fill="#E3E6A5"/>
</g>
<g opacity="0.29">
<path d="M369.085 133.054C369.085 133.054 359.335 138.554 351.585 139.304C351.585 142.804 351.835 147.554 351.835 147.554C351.835 147.554 364.335 147.304 370.585 145.804C370.585 142.804 369.085 133.054 369.085 133.054Z" fill="#E3E6A5"/>
</g>
<g opacity="0.28">
<path d="M363.334 329.552C363.584 332.552 366.834 338.552 365.584 351.802C371.084 355.802 373.834 358.552 373.834 358.552C373.834 358.552 371.584 338.552 363.334 329.552Z" fill="#CAF9FF"/>
</g>
<g opacity="0.28">
<path d="M364.085 354.552C364.085 354.552 360.085 371.052 344.585 379.302C349.585 384.802 351.585 386.552 351.585 386.552C351.585 386.552 368.335 378.302 373.335 362.052C370.085 358.802 364.085 354.552 364.085 354.552Z" fill="#CAF9FF"/>
</g>
<g opacity="0.28">
<path d="M341.835 380.802C341.835 380.802 331.085 389.302 311.585 393.552C328.585 394.802 348.585 387.802 348.585 387.802L341.835 380.802Z" fill="#CAF9FF"/>
</g>
<g opacity="0.28">
<path d="M378.584 362.302C378.334 363.802 378.334 364.052 375.084 367.052C376.334 370.552 378.084 385.802 378.084 385.802C378.084 385.802 380.584 368.552 378.584 362.302Z" fill="#CAF9FF"/>
</g>
<g opacity="0.28">
<path d="M373.084 371.802C369.834 381.552 355.834 388.552 355.834 388.552C355.834 388.552 356.584 393.052 356.584 395.552C362.584 394.552 375.084 388.302 375.084 388.302C375.084 388.302 375.084 376.302 373.084 371.802Z" fill="#CAF9FF"/>
</g>
<g opacity="0.43">
<path d="M233.335 263.053C234.585 260.053 234.585 252.053 230.585 260.053C226.585 268.053 221.085 271.053 212.086 275.553C203.086 280.053 170.586 294.053 154.586 312.053C138.586 330.052 132.836 337.802 129.836 354.802C127.686 366.983 142.556 379.703 147.086 356.802C148.958 347.336 146.836 385.052 215.635 393.439C256.981 398.479 179.344 383.539 231.335 295.803C243.335 275.553 230.835 269.053 233.335 263.053Z" fill="url(#paint21_linear_1321_101767)"/>
</g>
<path d="M377.334 107.554C373.334 102.054 311.334 97.554 254.341 96.929C193.588 96.263 138.836 101.304 133.836 106.804C130.076 110.94 114.934 154.971 150.336 196.553C181.835 233.553 230.382 239.587 231.835 256.053C233.335 273.053 185.835 282.553 154.836 312.552C118.397 347.815 127.004 383.866 133.586 404.552C137.086 415.552 238.034 417.052 260.085 417.052C286.584 417.052 371.834 414.802 378.334 405.802C384.558 397.184 397.834 337.052 345.834 301.052C302.489 271.045 280.835 271.553 281.335 255.553C281.835 239.553 329.834 233.053 363.834 195.053C382.277 174.441 390.334 143.554 377.334 107.554Z" stroke="#B6BDCA" stroke-width="7"/>
<path d="M133.336 106.554C133.336 106.554 126.336 123.054 127.336 141.554C128.148 156.576 133.296 176.648 150.414 196.551C158.586 206.053 173.418 218.358 182.586 223.053C234.335 249.553 230.835 250.553 231.585 255.553" stroke="#C4B0A4" stroke-width="7" stroke-linecap="round"/>
<path d="M127.336 141.554C128.148 156.576 133.296 176.648 150.414 196.551C158.586 206.053 173.754 217.754 182.586 223.053C191.335 228.303 207.335 234.303 216.835 241.553" stroke="#A18E82" stroke-width="7" stroke-linecap="round"/>
<path d="M230.835 260.803C230.835 260.803 230.585 265.053 212.835 275.553C192.321 287.688 168.836 297.802 154.836 312.302" stroke="#CED5E2" stroke-width="7" stroke-linecap="round"/>
<path d="M281.585 258.803C283.835 268.803 303.072 277.215 321.585 286.303C335.335 293.052 341.585 297.052 347.334 301.302" stroke="#CED5E2" stroke-width="7" stroke-linecap="round"/>
<path d="M377.335 107.054C377.335 107.054 382.835 125.054 383.835 143.554C384.646 158.576 374.835 181.553 363.913 195.551C356.203 205.432 336.083 220.268 327.085 224.303C278.585 246.053 280.585 253.553 281.335 258.553" stroke="#C4B0A4" stroke-width="7" stroke-linecap="round"/>
<path d="M383.758 143.804C382.584 159.054 379.53 173.389 363.336 194.051C356.085 203.303 350.334 208.803 338.508 216.553C325.685 224.957 303.835 234.553 296.259 240.553" stroke="#A18E82" stroke-width="7" stroke-linecap="round"/>
</g>
</g>
<defs>
<linearGradient id="paint0_linear_1321_101767" x1="250.719" y1="63.4437" x2="351.566" y2="63.4437" gradientUnits="userSpaceOnUse">
<stop stop-color="#9B4F29"/>
<stop offset="0.11" stop-color="#5F2D16"/>
<stop offset="0.52" stop-color="#230A03"/>
<stop offset="0.93" stop-color="#5F2D16"/>
<stop offset="1" stop-color="#9B4F29"/>
</linearGradient>
<linearGradient id="paint1_linear_1321_101767" x1="240.701" y1="85.2996" x2="341.548" y2="85.2996" gradientUnits="userSpaceOnUse">
<stop stop-color="#823E26"/>
<stop offset="0.11" stop-color="#532414"/>
<stop offset="0.52" stop-color="#230A03"/>
<stop offset="0.93" stop-color="#532414"/>
<stop offset="1" stop-color="#823E26"/>
</linearGradient>
<linearGradient id="paint2_linear_1321_101767" x1="256.182" y1="254.683" x2="347.249" y2="254.683" gradientUnits="userSpaceOnUse">
<stop stop-color="#FFE1CD"/>
<stop offset="0.5" stop-color="#D4A081" stop-opacity="0.505"/>
<stop offset="1" stop-color="#A96035" stop-opacity="0.01"/>
</linearGradient>
<linearGradient id="paint3_linear_1321_101767" x1="250.719" y1="448.655" x2="351.566" y2="448.655" gradientUnits="userSpaceOnUse">
<stop stop-color="#9B4F29"/>
<stop offset="0.11" stop-color="#5F2D16"/>
<stop offset="0.52" stop-color="#230A03"/>
<stop offset="0.93" stop-color="#5F2D16"/>
<stop offset="1" stop-color="#9B4F29"/>
</linearGradient>
<linearGradient id="paint4_linear_1321_101767" x1="240.701" y1="426.799" x2="341.548" y2="426.799" gradientUnits="userSpaceOnUse">
<stop stop-color="#823E26"/>
<stop offset="0.11" stop-color="#532414"/>
<stop offset="0.52" stop-color="#230A03"/>
<stop offset="0.93" stop-color="#532414"/>
<stop offset="1" stop-color="#823E26"/>
</linearGradient>
<linearGradient id="paint5_linear_1321_101767" x1="256.182" y1="254.683" x2="347.249" y2="254.683" gradientUnits="userSpaceOnUse">
<stop stop-color="#D4AF9B" stop-opacity="0.34"/>
<stop offset="0.5" stop-color="#6A574D" stop-opacity="0.17"/>
<stop offset="1" stop-opacity="0"/>
</linearGradient>
<linearGradient id="paint6_linear_1321_101767" x1="256.182" y1="236.683" x2="347.249" y2="236.683" gradientUnits="userSpaceOnUse">
<stop stop-color="#D4AF9B" stop-opacity="0.34"/>
<stop offset="0.5" stop-color="#6A574D" stop-opacity="0.17"/>
<stop offset="1" stop-opacity="0"/>
</linearGradient>
<radialGradient id="paint7_radial_1321_101767" cx="0" cy="0" r="1" gradientUnits="userSpaceOnUse" gradientTransform="translate(256.335 159.524) scale(152.338)">
<stop stop-color="white" stop-opacity="0.2"/>
<stop offset="0.72" stop-color="#E9ECF8" stop-opacity="0.4"/>
<stop offset="1" stop-color="#D2DAF1" stop-opacity="0.6"/>
</radialGradient>
<radialGradient id="paint8_radial_1321_101767" cx="0" cy="0" r="1" gradientUnits="userSpaceOnUse" gradientTransform="translate(255.335 398.794) scale(212.598 212.598)">
<stop stop-color="white" stop-opacity="0.2"/>
<stop offset="0.72" stop-color="#E9ECF8" stop-opacity="0.4"/>
<stop offset="1" stop-color="#D2DAF1" stop-opacity="0.6"/>
</radialGradient>
<radialGradient id="paint9_radial_1321_101767" cx="0" cy="0" r="1" gradientUnits="userSpaceOnUse" gradientTransform="translate(253.335 347.427) scale(458.839 206.477)">
<stop stop-color="white" stop-opacity="0"/>
<stop offset="0.66" stop-color="white" stop-opacity="0.5"/>
<stop offset="1" stop-color="white"/>
</radialGradient>
<radialGradient id="paint10_radial_1321_101767" cx="0" cy="0" r="1" gradientUnits="userSpaceOnUse" gradientTransform="translate(253.335 347.427) scale(458.839 206.477)">
<stop stop-color="#9A572D"/>
<stop offset="0.5" stop-color="#8D4C28"/>
<stop offset="1" stop-color="#7F4122"/>
</radialGradient>
<radialGradient id="paint11_radial_1321_101767" cx="0" cy="0" r="1" gradientUnits="userSpaceOnUse" gradientTransform="translate(256.455 108.658) scale(285.267 125.419)">
<stop offset="0.28" stop-color="white" stop-opacity="0.01"/>
<stop offset="0.58" stop-color="white" stop-opacity="0.485"/>
<stop offset="0.88" stop-color="white" stop-opacity="0.96"/>
<stop offset="0.95" stop-color="white" stop-opacity="0.48"/>
<stop offset="1" stop-color="white" stop-opacity="0"/>
</radialGradient>
<radialGradient id="paint12_radial_1321_101767" cx="0" cy="0" r="1" gradientUnits="userSpaceOnUse" gradientTransform="translate(256.455 108.658) scale(285.267 125.419)">
<stop stop-color="#D9B596"/>
<stop offset="0.44" stop-color="#9B7B5E"/>
<stop offset="0.88" stop-color="#5D4226"/>
<stop offset="0.94" stop-color="#5D4226"/>
<stop offset="1" stop-color="#5D4226"/>
</radialGradient>
<linearGradient id="paint13_linear_1321_101767" x1="257.335" y1="324.052" x2="257.335" y2="187.053" gradientUnits="userSpaceOnUse">
<stop stop-color="white" stop-opacity="0"/>
<stop offset="0.25" stop-color="white" stop-opacity="0.5"/>
<stop offset="0.5" stop-color="white"/>
<stop offset="0.75" stop-color="white" stop-opacity="0.5"/>
<stop offset="1" stop-color="white" stop-opacity="0"/>
</linearGradient>
<radialGradient id="paint14_radial_1321_101767" cx="0" cy="0" r="1" gradientUnits="userSpaceOnUse" gradientTransform="translate(256.35 257.199) scale(22.9167 11.3)">
<stop stop-color="white"/>
<stop offset="0.5" stop-color="white" stop-opacity="0.5"/>
<stop offset="1" stop-color="white" stop-opacity="0"/>
</radialGradient>
<radialGradient id="paint15_radial_1321_101767" cx="0" cy="0" r="1" gradientUnits="userSpaceOnUse" gradientTransform="translate(256.335 100.054) scale(126 126)">
<stop offset="0.32" stop-color="white" stop-opacity="0.83"/>
<stop offset="0.63" stop-color="white" stop-opacity="0.415"/>
<stop offset="1" stop-color="white" stop-opacity="0"/>
</radialGradient>
<radialGradient id="paint16_radial_1321_101767" cx="0" cy="0" r="1" gradientUnits="userSpaceOnUse" gradientTransform="translate(256.335 100.054) scale(126 126)">
<stop stop-color="white"/>
<stop offset="0.65" stop-color="white"/>
<stop offset="1" stop-color="white"/>
</radialGradient>
<radialGradient id="paint17_radial_1321_101767" cx="0" cy="0" r="1" gradientUnits="userSpaceOnUse" gradientTransform="translate(262.335 109.194) scale(345.617 158.984)">
<stop stop-color="white" stop-opacity="0"/>
<stop offset="0.33" stop-color="white" stop-opacity="0.5"/>
<stop offset="1" stop-color="white"/>
</radialGradient>
<radialGradient id="paint18_radial_1321_101767" cx="0" cy="0" r="1" gradientUnits="userSpaceOnUse" gradientTransform="translate(262.335 109.194) scale(345.617 158.984)">
<stop stop-color="#F0FAFF"/>
<stop offset="0.12" stop-color="#DEF3FF"/>
<stop offset="1" stop-color="#CBECFF"/>
</radialGradient>
<linearGradient id="paint19_linear_1321_101767" x1="159.336" y1="121.054" x2="340.834" y2="116.554" gradientUnits="userSpaceOnUse">
<stop stop-color="white" stop-opacity="0"/>
<stop offset="0.16" stop-color="white" stop-opacity="0.355"/>
<stop offset="0.51" stop-color="white" stop-opacity="0.71"/>
<stop offset="0.88" stop-color="white" stop-opacity="0.37"/>
<stop offset="1" stop-color="white" stop-opacity="0.03"/>
</linearGradient>
<linearGradient id="paint20_linear_1321_101767" x1="159.336" y1="121.054" x2="340.834" y2="116.554" gradientUnits="userSpaceOnUse">
<stop stop-color="#2D0D01"/>
<stop offset="0.1" stop-color="#1E0C05"/>
<stop offset="0.51" stop-color="#0E0A09"/>
<stop offset="0.9" stop-color="#1E0C05"/>
<stop offset="1" stop-color="#2D0D01"/>
</linearGradient>
<linearGradient id="paint21_linear_1321_101767" x1="224.835" y1="333.052" x2="137.336" y2="293.553" gradientUnits="userSpaceOnUse">
<stop stop-color="white" stop-opacity="0"/>
<stop offset="0.5" stop-color="#B2DEFF" stop-opacity="0.355"/>
<stop offset="1" stop-color="#66BCFF" stop-opacity="0.71"/>
</linearGradient>
<clipPath id="clip0_1321_101767">
<rect width="512" height="512" fill="white" transform="translate(0.334961 0.552734)"/>
</clipPath>
</defs>
</svg>
