<svg width="25" height="28" viewBox="0 0 25 28" fill="none" xmlns="http://www.w3.org/2000/svg">
<g id="Group 48097871">
<path id="Vector" d="M2.33366 14H1.16699V15.1667H2.33366V14Z" fill="black"/>
<path id="Vector_2" d="M2.33366 22.1667H1.16699V21H2.33366V22.1667Z" fill="black"/>
<path id="Vector_3" d="M19.8333 14H21V15.1667H19.8333V14Z" fill="black"/>
<path id="Vector_4" d="M2.33366 12.8333H1.16699V14H2.33366V12.8333Z" fill="black"/>
<path id="Vector_5" d="M2.33366 23.3333H1.16699V22.1666H2.33366V23.3333Z" fill="black"/>
<path id="Vector_6" d="M19.8333 23.3333H21V21H19.8333V23.3333Z" fill="black"/>
<path id="Vector_7" d="M19.8333 12.8333H21V14H19.8333V12.8333Z" fill="black"/>
<path id="Vector_8" d="M3.49967 11.6667H2.33301V12.8334H3.49967V11.6667Z" fill="black"/>
<path id="Vector_9" d="M3.49967 24.5H2.33301V23.3333H3.49967V24.5Z" fill="black"/>
<path id="Vector_10" d="M18.6663 24.5H19.833V23.3333H18.6663V24.5Z" fill="black"/>
<path id="Vector_11" d="M18.6663 11.6667H19.833V12.8334H18.6663V11.6667Z" fill="black"/>
<path id="Vector_12" d="M4.66667 10.5H3.5V11.6667H4.66667V10.5Z" fill="black"/>
<path id="Vector_13" d="M4.66667 25.6667H3.5V24.5H4.66667V25.6667Z" fill="black"/>
<path id="Vector_14" d="M17.5003 25.6667H18.667V24.5H17.5003V25.6667Z" fill="black"/>
<path id="Vector_15" d="M17.5003 10.5H18.667V11.6667H17.5003V10.5Z" fill="black"/>
<path id="Vector_16" d="M7.00033 9.33331H4.66699V10.5H7.00033V9.33331Z" fill="black"/>
<path id="Vector_17" d="M7.00033 26.8333H4.66699V25.6666H7.00033V26.8333Z" fill="black"/>
<path id="Vector_18" d="M15.1667 26.8333H17.5V25.6666H15.1667V26.8333Z" fill="black"/>
<path id="Vector_19" d="M15.1667 9.33331H17.5V10.5H15.1667V9.33331Z" fill="black"/>
<path id="Vector_20" d="M1.16667 15.1667H0V21H1.16667V15.1667Z" fill="black"/>
<path id="Vector_21" d="M21.0003 15.1667H22.167V21H21.0003V15.1667Z" fill="black"/>
<path id="Vector_22" d="M15.1667 8.16669H7V9.33335H15.1667V8.16669Z" fill="black"/>
<path id="Vector_23" d="M15.1667 26.8333H7V28H15.1667V26.8333Z" fill="black"/>
<rect id="Rectangle 4542" width="1.16667" height="1.16667" transform="matrix(1 0 0 -1 10.5 5.83331)" fill="#58483D"/>
<rect id="Rectangle 4545" x="19.833" y="3.5" width="2.33333" height="2.33333" fill="#F7A923"/>
<path id="Union" d="M15.167 10.5V9.33331H7.00033V10.5H4.66699V11.6666H3.50033V12.8333H2.33366V15.1666H1.16699V21H2.33366V23.3333H3.50033V24.5H4.66699V25.6666H7.00033L7.00033 26.8333H15.167V25.6666H17.5003V24.5H18.667V23.3333H19.8337V21H21.0003V15.1666H19.8337V12.8333L18.667 12.8333V11.6666H17.5003V10.5H15.167Z" fill="#504F4D"/>
<rect id="Rectangle 4546" x="8.16699" y="7" width="1.16667" height="1.16667" fill="black"/>
<rect id="Rectangle 4612" x="9.33301" y="7" width="3.5" height="1.16667" fill="#504F4D"/>
<rect id="Rectangle 4547" x="8.16699" y="5.83331" width="1.16667" height="1.16667" fill="black"/>
<rect id="Rectangle 4548" x="11.667" y="5.83331" width="1.16667" height="1.16667" fill="black"/>
<rect id="Rectangle 4552" x="12.833" y="5.83331" width="1.16667" height="1.16667" fill="black"/>
<rect id="Rectangle 4549" x="11.667" y="3.5" width="1.16667" height="1.16667" fill="#58483D"/>
<rect id="Rectangle 4578" x="10.5" y="3.5" width="1.16667" height="1.16667" fill="#58483D"/>
<rect id="Rectangle 4554" x="12.833" y="2.33331" width="1.16667" height="1.16667" fill="#58483D"/>
<rect id="Rectangle 4556" x="14" y="1.16669" width="1.16667" height="1.16667" fill="#58483D"/>
<rect id="Rectangle 4557" x="15.167" width="1.16667" height="1.16667" fill="#58483D"/>
<rect id="Rectangle 4574" x="19.833" y="1.16669" width="1.16667" height="1.16667" fill="#58483D"/>
<rect id="Rectangle 4575" x="18.667" width="1.16667" height="1.16667" fill="#58483D"/>
<rect id="Rectangle 4576" x="17.5" width="1.16667" height="1.16667" fill="#58483D"/>
<rect id="Rectangle 4577" x="16.333" width="1.16667" height="1.16667" fill="#58483D"/>
<rect id="Rectangle 4558" x="18.667" y="2.33331" width="1.16667" height="1.16667" fill="#E51C24"/>
<rect id="Rectangle 4559" x="18.667" y="3.5" width="1.16667" height="1.16667" fill="#E51C24"/>
<rect id="Rectangle 4560" x="19.833" y="2.33331" width="1.16667" height="1.16667" fill="#E51C24"/>
<rect id="Rectangle 4570" x="17.5" y="4.66669" width="1.16667" height="1.16667" fill="#E51C24"/>
<rect id="Rectangle 4571" x="23.333" y="4.66669" width="1.16667" height="1.16667" fill="#E51C24"/>
<rect id="Rectangle 4572" x="23.333" y="3.5" width="1.16667" height="1.16667" fill="#E51C24"/>
<rect id="Rectangle 4573" x="17.5" y="3.5" width="1.16667" height="1.16667" fill="#E51C24"/>
<rect id="Rectangle 4561" x="21" y="2.33331" width="1.16667" height="1.16667" fill="#E51C24"/>
<rect id="Rectangle 4562" x="22.167" y="3.5" width="1.16667" height="1.16667" fill="#E51C24"/>
<rect id="Rectangle 4563" x="22.167" y="4.66669" width="1.16667" height="1.16667" fill="#E51C24"/>
<rect id="Rectangle 4564" x="22.167" y="2.33331" width="1.16667" height="1.16667" fill="#E51C24"/>
<rect id="Rectangle 4565" x="18.667" y="4.66669" width="1.16667" height="1.16667" fill="#E51C24"/>
<rect id="Rectangle 4566" x="19.833" y="5.83331" width="1.16667" height="1.16667" fill="#E51C24"/>
<rect id="Rectangle 4567" x="21" y="5.83331" width="1.16667" height="1.16667" fill="#E51C24"/>
<rect id="Rectangle 4568" x="22.167" y="5.83331" width="1.16667" height="1.16667" fill="#E51C24"/>
<rect id="Rectangle 4569" x="18.667" y="5.83331" width="1.16667" height="1.16667" fill="#E51C24"/>
<rect id="Rectangle 4553" x="12.833" y="7" width="1.16667" height="1.16667" fill="black"/>
<rect id="Rectangle 4550" x="10.5" y="5.83331" width="1.16667" height="1.16667" fill="black"/>
<rect id="Rectangle 4551" x="9.33301" y="5.83331" width="1.16667" height="1.16667" fill="black"/>
<rect id="Rectangle 4579" x="14" y="12.8333" width="2.33333" height="2.33333" fill="white"/>
<rect id="Rectangle 4580" x="15.167" y="16.3333" width="1.16667" height="1.16667" fill="white"/>
<rect id="Rectangle 4610" x="8.16699" y="9.33331" width="3.5" height="2.33333" fill="#4A4849"/>
<rect id="Rectangle 4596" x="7" y="9.33331" width="1.16667" height="2.33333" fill="#363536"/>
<rect id="Rectangle 4589" x="9.33301" y="25.6667" width="3.5" height="1.16667" fill="#4A4849"/>
<rect id="Rectangle 4582" x="7" y="11.6667" width="3.5" height="1.16667" fill="#4A4849"/>
<rect id="Rectangle 4583" x="5.83301" y="12.8333" width="3.5" height="1.16667" fill="#4A4849"/>
<rect id="Rectangle 4597" x="3.5" y="11.6667" width="3.5" height="1.16667" fill="#363536"/>
<rect id="Rectangle 4611" x="4.66699" y="10.5" width="2.33333" height="1.16667" fill="#363536"/>
<rect id="Rectangle 4598" x="2.33301" y="12.8333" width="3.5" height="1.16667" fill="#363536"/>
<rect id="Rectangle 4599" x="2.33301" y="14" width="2.33333" height="1.16667" fill="#363536"/>
<rect id="Rectangle 4600" x="1.16699" y="15.1667" width="2.33333" height="2.33333" fill="#363536"/>
<rect id="Rectangle 4601" x="1.16699" y="17.5" width="2.33333" height="1.16667" fill="#363536"/>
<rect id="Rectangle 4602" x="1.16699" y="18.6667" width="2.33333" height="1.16667" fill="#363536"/>
<rect id="Rectangle 4603" x="1.16699" y="19.8333" width="2.33333" height="1.16667" fill="#363536"/>
<rect id="Rectangle 4604" x="2.33301" y="22.1667" width="2.33333" height="1.16667" fill="#363536"/>
<rect id="Rectangle 4606" x="3.5" y="23.3333" width="2.33333" height="1.16667" fill="#363536"/>
<rect id="Rectangle 4607" x="4.66699" y="24.5" width="2.33333" height="1.16667" fill="#363536"/>
<rect id="Rectangle 4608" x="7" y="25.6667" width="1.16667" height="1.16667" fill="#363536"/>
<rect id="Rectangle 4609" x="8.16699" y="25.6667" width="1.16667" height="1.16667" fill="#363536"/>
<rect id="Rectangle 4605" x="2.33301" y="21" width="1.16667" height="1.16667" fill="#363536"/>
<rect id="Rectangle 4584" x="4.66699" y="14" width="3.5" height="1.16667" fill="#4A4849"/>
<rect id="Rectangle 4590" x="5.83301" y="23.3333" width="4.66667" height="1.16667" fill="#4A4849"/>
<rect id="Rectangle 4594" x="7" y="24.5" width="4.66667" height="1.16667" fill="#4A4849"/>
<rect id="Rectangle 4591" x="4.66699" y="22.1667" width="4.66667" height="1.16667" fill="#4A4849"/>
<rect id="Rectangle 4592" x="3.5" y="21" width="4.66667" height="1.16667" fill="#4A4849"/>
<rect id="Rectangle 4588" x="3.5" y="15.1667" width="3.5" height="1.16667" fill="#4A4849"/>
<rect id="Rectangle 4585" x="3.5" y="16.3333" width="2.33333" height="1.16667" fill="#4A4849"/>
<rect id="Rectangle 4586" x="3.5" y="18.6667" width="2.33333" height="1.16667" fill="#4A4849"/>
<rect id="Rectangle 4595" x="3.5" y="19.8333" width="2.33333" height="1.16667" fill="#4A4849"/>
<rect id="Rectangle 4587" x="3.5" y="17.5" width="2.33333" height="1.16667" fill="#4A4849"/>
</g>
</svg>
