<svg width="40" height="40" viewBox="0 0 40 40" fill="none" xmlns="http://www.w3.org/2000/svg">
<path fill-rule="evenodd" clip-rule="evenodd" d="M0 0H4.5V1H1V4.5H0V0Z" fill="#70767F"/>
<path fill-rule="evenodd" clip-rule="evenodd" d="M40 0L40 4.5L39 4.5L39 1L35.5 1L35.5 -1.96701e-07L40 0Z" fill="#70767F"/>
<rect x="8.57129" y="8.57178" width="2.28571" height="20.5714" fill="#214677"/>
<rect x="9.71387" y="7.42871" width="1.14286" height="1.14286" fill="#214677"/>
<rect x="10.8574" y="6.28613" width="1.14286" height="1.14286" fill="#214677"/>
<rect x="12" y="5.14307" width="14.8571" height="1.14286" fill="#214677"/>
<rect x="10.8574" y="28" width="17.1429" height="1.14286" fill="#214677"/>
<rect x="10.8574" y="29.1431" width="19.4286" height="1.14286" fill="#DDA56C"/>
<rect x="16.5713" y="32.5718" width="13.7143" height="1.14286" fill="#DDA56C"/>
<rect x="12" y="6.28613" width="1.14286" height="1.14286" fill="#214677"/>
<rect x="26.8574" y="6.28613" width="1.14286" height="1.14286" fill="#214677"/>
<rect x="28" y="6.28613" width="1.14286" height="1.14286" fill="#214677"/>
<rect x="29.1426" y="6.28613" width="1.14286" height="1.14286" fill="#214677"/>
<rect x="29.1426" y="7.42871" width="1.14286" height="1.14286" fill="#214677"/>
<rect x="29.1426" y="8.57178" width="1.14286" height="1.14286" fill="#214677"/>
<rect x="29.1426" y="24.5718" width="1.14286" height="1.14286" fill="#214677"/>
<rect x="29.1426" y="25.7144" width="1.14286" height="1.14286" fill="#214677"/>
<rect x="29.1426" y="26.8574" width="1.14286" height="1.14286" fill="#214677"/>
<rect x="28" y="26.8574" width="1.14286" height="1.14286" fill="#214677"/>
<rect x="26.8574" y="26.8574" width="1.14286" height="1.14286" fill="#214677"/>
<rect x="13.1426" y="26.8574" width="1.14286" height="1.14286" fill="#214677"/>
<rect x="12" y="26.8574" width="1.14286" height="1.14286" fill="#214677"/>
<rect x="10.8574" y="26.8574" width="1.14286" height="1.14286" fill="#214677"/>
<rect x="10.8574" y="25.7144" width="1.14286" height="1.14286" fill="#214677"/>
<rect x="10.8574" y="24.5718" width="1.14286" height="1.14286" fill="#214677"/>
<rect x="17.7139" y="24.5718" width="1.14286" height="1.14286" fill="#214677"/>
<rect x="18.8574" y="25.7144" width="1.14286" height="1.14286" fill="#214677"/>
<rect x="20" y="25.7144" width="1.14286" height="1.14286" fill="#214677"/>
<rect x="21.1426" y="24.5718" width="1.14286" height="1.14286" fill="#214677"/>
<rect x="14.2852" y="17.7144" width="1.14286" height="1.14286" fill="#214677"/>
<rect x="15.4287" y="17.7144" width="1.14286" height="1.14286" fill="#214677"/>
<rect x="15.4287" y="16.5718" width="1.14286" height="1.14286" fill="#214677"/>
<rect x="13.1426" y="15.4287" width="1.14286" height="1.14286" fill="#214677"/>
<rect x="12" y="15.4287" width="1.14286" height="1.14286" fill="#214677"/>
<rect x="15.4287" y="12" width="1.14286" height="1.14286" fill="#214677"/>
<rect x="15.4287" y="13.1431" width="1.14286" height="1.14286" fill="#214677"/>
<rect x="16.5713" y="13.1431" width="1.14286" height="1.14286" fill="#214677"/>
<rect x="17.7139" y="14.2861" width="1.14286" height="1.14286" fill="#214677"/>
<rect x="18.8574" y="13.1431" width="1.14286" height="1.14286" fill="#214677"/>
<rect x="18.8574" y="17.7144" width="1.14286" height="1.14286" fill="#214677"/>
<rect x="18.8574" y="16.5718" width="1.14286" height="1.14286" fill="#214677"/>
<rect x="28" y="15.4287" width="1.14286" height="1.14286" fill="#214677"/>
<rect x="24.5713" y="14.2861" width="1.14286" height="1.14286" fill="#214677"/>
<rect x="24.5713" y="13.1431" width="1.14286" height="1.14286" fill="#214677"/>
<rect x="23.4287" y="13.1431" width="1.14286" height="1.14286" fill="#214677"/>
<rect x="22.2852" y="12" width="1.14286" height="1.14286" fill="#214677"/>
<rect x="21.1426" y="13.1431" width="1.14286" height="1.14286" fill="#214677"/>
<rect x="21.1426" y="17.7144" width="3.42857" height="1.14286" fill="#214677"/>
<rect x="23.4287" y="16.5718" width="3.42857" height="1.14286" fill="#214677"/>
<rect x="21.1426" y="25.7144" width="1.14286" height="1.14286" fill="#214677"/>
<rect x="13.1426" y="33.7144" width="1.14286" height="1.14286" fill="#214677"/>
<rect x="12" y="33.7144" width="1.14286" height="1.14286" fill="#214677"/>
<rect x="10.8574" y="33.7144" width="1.14286" height="1.14286" fill="#214677"/>
<rect x="9.71387" y="33.7144" width="1.14286" height="1.14286" fill="#214677"/>
<rect x="9.71387" y="32.5718" width="1.14286" height="1.14286" fill="#214677"/>
<rect x="8.57129" y="32.5718" width="1.14286" height="1.14286" fill="#214677"/>
<rect x="8.57129" y="31.4287" width="1.14286" height="1.14286" fill="#214677"/>
<rect x="8.57129" y="30.2861" width="1.14286" height="1.14286" fill="#214677"/>
<rect x="8.57129" y="29.1431" width="1.14286" height="1.14286" fill="#214677"/>
<rect x="9.71387" y="29.1431" width="1.14286" height="1.14286" fill="#214677"/>
<rect x="30.2852" y="30.2861" width="1.14286" height="1.14286" fill="#214677"/>
<rect x="29.1426" y="30.2861" width="1.14286" height="1.14286" fill="#DDA56C"/>
<rect x="29.1426" y="31.4287" width="1.14286" height="1.14286" fill="#DDA56C"/>
<rect x="28" y="31.4287" width="1.14286" height="1.14286" fill="#DDA56C"/>
<rect x="13.1426" y="32.5718" width="1.14286" height="1.14286" fill="#DDA56C"/>
<rect x="12" y="32.5718" width="1.14286" height="1.14286" fill="#DDA56C"/>
<rect x="10.8574" y="32.5718" width="1.14286" height="1.14286" fill="#DDA56C"/>
<rect x="9.71387" y="31.4287" width="1.14286" height="1.14286" fill="#DDA56C"/>
<rect x="9.71387" y="30.2861" width="1.14286" height="1.14286" fill="#DDA56C"/>
<rect x="10.8574" y="30.2861" width="1.14286" height="1.14286" fill="#DDA56C"/>
<rect x="10.8574" y="31.4287" width="1.14286" height="1.14286" fill="#F2D6A6"/>
<rect x="12" y="30.2861" width="16" height="2.28571" fill="#F2D6A6"/>
<rect x="28" y="30.2861" width="1.14286" height="1.14286" fill="#F2D6A6"/>
<rect x="16.5713" y="33.7144" width="11.4286" height="1.14286" fill="#214677"/>
<rect x="30.2852" y="29.1431" width="1.14286" height="1.14286" fill="#214677"/>
<rect x="26.8574" y="5.14307" width="1.14286" height="1.14286" fill="#214677"/>
<rect x="28" y="5.14307" width="1.14286" height="1.14286" fill="#B51CF7"/>
<rect x="29.1426" y="5.14307" width="1.14286" height="1.14286" fill="#B51CF7"/>
<rect x="30.2852" y="5.14307" width="1.14286" height="1.14286" fill="#B51CF7"/>
<rect x="30.2852" y="28" width="1.14286" height="1.14286" fill="#B51CF7"/>
<rect x="30.2852" y="33.7144" width="1.14286" height="1.14286" fill="#B51CF7"/>
<rect x="30.2852" y="26.8574" width="1.14286" height="1.14286" fill="#B51CF7"/>
<rect x="30.2852" y="32.5718" width="1.14286" height="1.14286" fill="#B51CF7"/>
<rect x="30.2852" y="25.7144" width="1.14286" height="1.14286" fill="#B51CF7"/>
<rect x="30.2852" y="31.4287" width="1.14286" height="1.14286" fill="#B51CF7"/>
<rect x="29.1426" y="28" width="1.14286" height="1.14286" fill="#B51CF7"/>
<rect x="29.1426" y="33.7144" width="1.14286" height="1.14286" fill="#B51CF7"/>
<rect x="28" y="28" width="1.14286" height="1.14286" fill="#B51CF7"/>
<rect x="28" y="33.7144" width="1.14286" height="1.14286" fill="#B51CF7"/>
<rect x="14.2852" y="32.5718" width="1.14286" height="1.14286" fill="#E24B29"/>
<rect x="14.2852" y="33.7144" width="1.14286" height="1.14286" fill="#E24B29"/>
<rect x="15.4287" y="32.5718" width="1.14286" height="1.14286" fill="#E24B29"/>
<rect x="15.4287" y="33.7144" width="1.14286" height="1.14286" fill="#E24B29"/>
<rect x="15.4287" y="34.8574" width="1.14286" height="1.14286" fill="#E24B29"/>
<rect x="30.2852" y="6.28613" width="1.14286" height="1.14286" fill="#B51CF7"/>
<rect x="30.2852" y="7.42871" width="1.14286" height="1.14286" fill="#B51CF7"/>
<rect x="30.2852" y="8.57178" width="1.14286" height="17.1429" fill="#214677"/>
<rect x="10.8574" y="7.42871" width="1.14286" height="1.14286" fill="#214677"/>
<rect x="10.8574" y="8.57178" width="1.14286" height="1.14286" fill="#214677"/>
<rect x="13.1426" y="6.28613" width="13.7143" height="5.71429" fill="#33609D"/>
<rect x="10.8574" y="9.71436" width="4.57143" height="5.71429" fill="#33609D"/>
<rect x="10.8574" y="16.5718" width="3.42857" height="2.28571" fill="#33609D"/>
<rect x="10.8574" y="15.4287" width="1.14286" height="1.14286" fill="#33609D"/>
<rect x="14.2852" y="15.4287" width="13.7143" height="1.14286" fill="#33609D"/>
<rect x="16.5713" y="12" width="5.71429" height="1.14286" fill="#33609D"/>
<rect x="23.4287" y="12" width="3.42857" height="1.14286" fill="#33609D"/>
<rect x="24.5713" y="17.7144" width="4.57143" height="1.14286" fill="#33609D"/>
<rect x="26.8574" y="16.5718" width="2.28571" height="1.14286" fill="#33609D"/>
<rect x="16.5713" y="16.5718" width="2.28571" height="2.28571" fill="#33609D"/>
<rect x="14.2852" y="16.5718" width="1.14286" height="1.14286" fill="#33609D"/>
<rect x="20" y="16.5718" width="3.42857" height="1.14286" fill="#33609D"/>
<rect x="18.8574" y="24.5718" width="2.28571" height="1.14286" fill="#33609D"/>
<rect x="17.7139" y="25.7144" width="1.14286" height="1.14286" fill="#33609D"/>
<rect x="22.2852" y="24.5718" width="6.85714" height="2.28572" fill="#33609D"/>
<rect x="14.2852" y="26.8574" width="12.5714" height="1.14286" fill="#33609D"/>
<rect x="12" y="24.5718" width="5.71429" height="2.28572" fill="#33609D"/>
<rect x="15.4287" y="14.2861" width="2.28571" height="1.14286" fill="#33609D"/>
<rect x="17.7139" y="13.1431" width="1.14286" height="1.14286" fill="#33609D"/>
<rect x="20" y="13.1431" width="1.14286" height="1.14286" fill="#33609D"/>
<rect x="22.2852" y="13.1431" width="1.14286" height="1.14286" fill="#33609D"/>
<rect x="18.8574" y="14.2861" width="5.71429" height="1.14286" fill="#33609D"/>
<rect x="25.7139" y="13.1431" width="1.14286" height="2.28571" fill="#33609D"/>
<rect x="20" y="17.7144" width="1.14286" height="1.14286" fill="#33609D"/>
<rect x="12" y="7.42871" width="1.14286" height="2.28571" fill="#33609D"/>
<rect x="26.8574" y="7.42871" width="2.28571" height="8" fill="#33609D"/>
<rect x="29.1426" y="9.71436" width="1.14286" height="9.14286" fill="#33609D"/>
<rect x="10.8574" y="18.8574" width="19.4286" height="5.71429" fill="#33609D"/>
<path fill-rule="evenodd" clip-rule="evenodd" d="M0 40H4.5V39H1V35.5H0V40Z" fill="#70767F"/>
<path fill-rule="evenodd" clip-rule="evenodd" d="M40 40L40 35.5L39 35.5L39 39L35.5 39L35.5 40L40 40Z" fill="#70767F"/>
</svg>
