<svg width="303" height="166" viewBox="0 0 303 166" fill="none" xmlns="http://www.w3.org/2000/svg">
<path d="M5.16667 71H4V72.1667H5.16667V71Z" fill="black"/>
<path d="M6.33317 72.1665H5.1665V73.3332H6.33317V72.1665Z" fill="black"/>
<path d="M7.50016 73.3335H6.3335V74.5002H7.50016V73.3335Z" fill="black"/>
<path d="M6.33317 54.6665H5.1665V55.8332H6.33317V54.6665Z" fill="black"/>
<path d="M4.00016 68.6665H2.8335V70.9998H4.00016V68.6665Z" fill="black"/>
<path d="M5.16667 55.8335H4V57.0002H5.16667V55.8335Z" fill="black"/>
<path d="M9.83333 74.5H7.5V75.6667H9.83333V74.5Z" fill="black"/>
<path d="M2.83317 59.3335H1.6665V68.6668H2.83317V59.3335Z" fill="black"/>
<path d="M19.1668 51.1665H9.8335V52.3332H19.1668V51.1665Z" fill="black"/>
<path d="M4.00016 57H2.8335V59.3333H4.00016V57Z" fill="black"/>
<path d="M19.1668 75.6665H9.8335V76.8332H19.1668V75.6665Z" fill="black"/>
<path d="M21.4998 74.5H19.1665V75.6667H21.4998V74.5Z" fill="black"/>
<path d="M21.4998 52.3335H19.1665V53.5002H21.4998V52.3335Z" fill="black"/>
<path d="M7.50016 53.5H6.3335V54.6667H7.50016V53.5Z" fill="black"/>
<path d="M9.83333 52.3335H7.5V53.5002H9.83333V52.3335Z" fill="black"/>
<path d="M22.6667 53.5H21.5V54.6667H22.6667V53.5Z" fill="black"/>
<path d="M22.6667 73.3335H21.5V74.5002H22.6667V73.3335Z" fill="black"/>
<path d="M23.8332 54.6665H22.6665V55.8332H23.8332V54.6665Z" fill="black"/>
<path d="M23.8332 72.1665H22.6665V73.3332H23.8332V72.1665Z" fill="black"/>
<path d="M26.1667 68.6665H25V70.9998H26.1667V68.6665Z" fill="black"/>
<path d="M25.0002 55.8335H23.8335V57.0002H25.0002V55.8335Z" fill="black"/>
<path d="M26.1667 57H25V59.3333H26.1667V57Z" fill="black"/>
<path d="M25.0002 71H23.8335V72.1667H25.0002V71Z" fill="black"/>
<path d="M27.3332 59.3335H26.1665V68.6668H27.3332V59.3335Z" fill="black"/>
<path d="M18 72.1665H11V73.3332H18V72.1665Z" fill="black"/>
<path d="M26.1667 59.3333V68.6667H25V71H23.8333V72.1667H22.6667V73.3333H21.5V74.5H19.1667V75.6667H9.83333V74.5H7.5V73.3333H9.83333V72.1667H11V73.3333H18V72.1667H20.3333V71H21.5V69.8333H22.6667V67.5H23.8333V60.5H22.6667V59.3333H23.8333V57H25V59.3333H26.1667Z" fill="#CBA600"/>
<path d="M23.8332 60.5H22.6665V67.5H23.8332V60.5Z" fill="black"/>
<path d="M23.8335 55.8335V59.3335H22.6668V58.1668H21.5002V57.0002H20.3335V55.8335H18.0002V54.6668H11.0002V55.8335H8.66683V57.0002H7.50016V58.1668H6.3335V60.5002H5.16683V67.5002H6.3335V69.8335H7.50016V71.0002H8.66683V72.1668H9.8335V73.3335H6.3335V72.1668H5.16683V71.0002H4.00016V68.6668H2.8335V59.3335H4.00016V57.0002H5.16683V55.8335H6.3335V54.6668H7.50016V53.5002H9.8335V52.3335H19.1668V53.5002H21.5002V54.6668H22.6668V55.8335H23.8335Z" fill="#FFD100"/>
<path d="M22.6667 67.5H21.5V69.8333H22.6667V67.5Z" fill="black"/>
<path d="M22.6667 58.1665H21.5V60.4998H22.6667V58.1665Z" fill="black"/>
<path d="M21.5002 69.8335H20.3335V71.0002H21.5002V69.8335Z" fill="black"/>
<path d="M21.5002 57H20.3335V58.1667H21.5002V57Z" fill="black"/>
<path d="M20.3333 55.8335H18V57.0002H20.3333V55.8335Z" fill="black"/>
<path d="M20.3333 71H18V72.1667H20.3333V71Z" fill="black"/>
<path d="M18 54.6665H11V55.8332H18V54.6665Z" fill="black"/>
<path d="M16.8333 64V66.3333H14.5V65.1667H15.6667V64H16.8333Z" fill="#CB7419"/>
<path d="M16.8332 61.6665H15.6665V62.8332H16.8332V61.6665Z" fill="#CB7419"/>
<path d="M15.6665 61.6665H12.1665V62.8332H15.6665V61.6665Z" fill="#FFA33E"/>
<path d="M22.6665 60.5V67.5H21.4998V69.8333H20.3332V71H17.9998V72.1667H10.9998V71H8.6665V69.8333H10.9998V68.6667H13.3332V67.5H14.4998V68.6667H15.6665V67.5H16.8332V66.3333H17.9998V64H16.8332V62.8333H17.9998V61.6667H16.8332V60.5H17.9998V58.1667H19.1665V57H20.3332V58.1667H21.4998V60.5H22.6665Z" fill="#CB7419"/>
<path d="M15.6665 64V65.1667H14.4998V66.3333H12.1665V64H15.6665Z" fill="#FFA33E"/>
<path d="M10.9998 55.8335H8.6665V57.0002H10.9998V55.8335Z" fill="black"/>
<path d="M10.9998 71H8.6665V72.1667H10.9998V71Z" fill="black"/>
<path d="M8.66667 69.8335H7.5V71.0002H8.66667V69.8335Z" fill="black"/>
<path d="M8.66667 57H7.5V58.1667H8.66667V57Z" fill="black"/>
<path d="M7.50016 67.5H6.3335V69.8333H7.50016V67.5Z" fill="black"/>
<path d="M19.1668 57.0002V58.1668H18.0002V60.5002H17.0002V61.5002H18.5002V63.0002H17.0002V64.0002H18.5002V66.5002H17.0002V67.5002L16.2048 67.5002V68.6668H14.5002V67.5002L13.5002 67.5002V68.6668H11.0002V69.8335H7.50016V67.5002H6.3335V60.5002H7.50016V58.1668H8.66683V57.0002H11.0002V55.8335H18.0002V57.0002H19.1668Z" fill="#FFAA4D"/>
<path d="M7.50016 58.1665H6.3335V60.4998H7.50016V58.1665Z" fill="black"/>
<path d="M6.33317 60.5H5.1665V67.5H6.33317V60.5Z" fill="black"/>
<path d="M146.167 40H145V41.1667H146.167V40Z" fill="black"/>
<path d="M147.333 41.1665H146.167V42.3332H147.333V41.1665Z" fill="black"/>
<path d="M148.5 42.3335H147.333V43.5002H148.5V42.3335Z" fill="black"/>
<path d="M147.333 23.6665H146.167V24.8332H147.333V23.6665Z" fill="black"/>
<path d="M145 37.6665H143.833V39.9998H145V37.6665Z" fill="black"/>
<path d="M146.167 24.8335H145V26.0002H146.167V24.8335Z" fill="black"/>
<path d="M150.833 43.5H148.5V44.6667H150.833V43.5Z" fill="black"/>
<path d="M143.833 28.3335H142.667V37.6668H143.833V28.3335Z" fill="black"/>
<path d="M160.167 20.1665H150.833V21.3332H160.167V20.1665Z" fill="black"/>
<path d="M145 26H143.833V28.3333H145V26Z" fill="black"/>
<path d="M160.167 44.6665H150.833V45.8332H160.167V44.6665Z" fill="black"/>
<path d="M162.5 43.5H160.167V44.6667H162.5V43.5Z" fill="black"/>
<path d="M162.5 21.3335H160.167V22.5002H162.5V21.3335Z" fill="black"/>
<path d="M148.5 22.5H147.333V23.6667H148.5V22.5Z" fill="black"/>
<path d="M150.833 21.3335H148.5V22.5002H150.833V21.3335Z" fill="black"/>
<path d="M163.667 22.5H162.5V23.6667H163.667V22.5Z" fill="black"/>
<path d="M163.667 42.3335H162.5V43.5002H163.667V42.3335Z" fill="black"/>
<path d="M164.833 23.6665H163.667V24.8332H164.833V23.6665Z" fill="black"/>
<path d="M164.833 41.1665H163.667V42.3332H164.833V41.1665Z" fill="black"/>
<path d="M167.167 37.6665H166V39.9998H167.167V37.6665Z" fill="black"/>
<path d="M166 24.8335H164.833V26.0002H166V24.8335Z" fill="black"/>
<path d="M167.167 26H166V28.3333H167.167V26Z" fill="black"/>
<path d="M166 40H164.833V41.1667H166V40Z" fill="black"/>
<path d="M168.333 28.3335H167.167V37.6668H168.333V28.3335Z" fill="black"/>
<path d="M159 41.1665H152V42.3332H159V41.1665Z" fill="black"/>
<path d="M167.167 28.3333V37.6667H166V40H164.833V41.1667H163.667V42.3333H162.5V43.5H160.167V44.6667H150.833V43.5H148.5V42.3333H150.833V41.1667H152V42.3333H159V41.1667H161.333V40H162.5V38.8333H163.667V36.5H164.833V29.5H163.667V28.3333H164.833V26H166V28.3333H167.167Z" fill="#CBA600"/>
<path d="M164.833 29.5H163.667V36.5H164.833V29.5Z" fill="black"/>
<path d="M164.833 24.8335V28.3335H163.667V27.1668H162.5V26.0002H161.333V24.8335H159V23.6668H152V24.8335H149.667V26.0002H148.5V27.1668H147.333V29.5002H146.167V36.5002H147.333V38.8335H148.5V40.0002H149.667V41.1668H150.833V42.3335H147.333V41.1668H146.167V40.0002H145V37.6668H143.833V28.3335H145V26.0002H146.167V24.8335H147.333V23.6668H148.5V22.5002H150.833V21.3335H160.167V22.5002H162.5V23.6668H163.667V24.8335H164.833Z" fill="#FFD100"/>
<path d="M163.667 36.5H162.5V38.8333H163.667V36.5Z" fill="black"/>
<path d="M163.667 27.1665H162.5V29.4998H163.667V27.1665Z" fill="black"/>
<path d="M162.5 38.8335H161.333V40.0002H162.5V38.8335Z" fill="black"/>
<path d="M162.5 26H161.333V27.1667H162.5V26Z" fill="black"/>
<path d="M161.333 24.8335H159V26.0002H161.333V24.8335Z" fill="black"/>
<path d="M161.333 40H159V41.1667H161.333V40Z" fill="black"/>
<path d="M159 23.6665H152V24.8332H159V23.6665Z" fill="black"/>
<path d="M157.833 33V35.3333H155.5V34.1667H156.667V33H157.833Z" fill="#CB7419"/>
<path d="M157.833 30.6665H156.667V31.8332H157.833V30.6665Z" fill="#CB7419"/>
<path d="M156.667 30.6665H153.167V31.8332H156.667V30.6665Z" fill="#FFA33E"/>
<path d="M163.667 29.5V36.5H162.5V38.8333H161.333V40H159V41.1667H152V40H149.667V38.8333H152V37.6667H154.333V36.5H155.5V37.6667H156.667V36.5H157.833V35.3333H159V33H157.833V31.8333H159V30.6667H157.833V29.5H159V27.1667H160.167V26H161.333V27.1667H162.5V29.5H163.667Z" fill="#CB7419"/>
<path d="M156.667 33V34.1667H155.5V35.3333H153.167V33H156.667Z" fill="#FFA33E"/>
<path d="M152 24.8335H149.667V26.0002H152V24.8335Z" fill="black"/>
<path d="M152 40H149.667V41.1667H152V40Z" fill="black"/>
<path d="M149.667 38.8335H148.5V40.0002H149.667V38.8335Z" fill="black"/>
<path d="M149.667 26H148.5V27.1667H149.667V26Z" fill="black"/>
<path d="M148.5 36.5H147.333V38.8333H148.5V36.5Z" fill="black"/>
<path d="M160.167 26.0002V27.1668H159V29.5002H158V30.5002H159.5V32.0002H158V33.0002H159.5V35.5002H158V36.5002L157.205 36.5002V37.6668H155.5V36.5002L154.5 36.5002V37.6668H152V38.8335H148.5V36.5002H147.333V29.5002H148.5V27.1668H149.667V26.0002H152V24.8335H159V26.0002H160.167Z" fill="#FFAA4D"/>
<path d="M148.5 27.1665H147.333V29.4998H148.5V27.1665Z" fill="black"/>
<path d="M147.333 29.5H146.167V36.5H147.333V29.5Z" fill="black"/>
<path d="M271.167 71H270V72.1667H271.167V71Z" fill="black"/>
<path d="M272.333 72.1665H271.167V73.3332H272.333V72.1665Z" fill="black"/>
<path d="M273.5 73.3335H272.333V74.5002H273.5V73.3335Z" fill="black"/>
<path d="M272.333 54.6665H271.167V55.8332H272.333V54.6665Z" fill="black"/>
<path d="M270 68.6665H268.833V70.9998H270V68.6665Z" fill="black"/>
<path d="M271.167 55.8335H270V57.0002H271.167V55.8335Z" fill="black"/>
<path d="M275.833 74.5H273.5V75.6667H275.833V74.5Z" fill="black"/>
<path d="M268.833 59.3335H267.667V68.6668H268.833V59.3335Z" fill="black"/>
<path d="M285.167 51.1665H275.833V52.3332H285.167V51.1665Z" fill="black"/>
<path d="M270 57H268.833V59.3333H270V57Z" fill="black"/>
<path d="M285.167 75.6665H275.833V76.8332H285.167V75.6665Z" fill="black"/>
<path d="M287.5 74.5H285.167V75.6667H287.5V74.5Z" fill="black"/>
<path d="M287.5 52.3335H285.167V53.5002H287.5V52.3335Z" fill="black"/>
<path d="M273.5 53.5H272.333V54.6667H273.5V53.5Z" fill="black"/>
<path d="M275.833 52.3335H273.5V53.5002H275.833V52.3335Z" fill="black"/>
<path d="M288.667 53.5H287.5V54.6667H288.667V53.5Z" fill="black"/>
<path d="M288.667 73.3335H287.5V74.5002H288.667V73.3335Z" fill="black"/>
<path d="M289.833 54.6665H288.667V55.8332H289.833V54.6665Z" fill="black"/>
<path d="M289.833 72.1665H288.667V73.3332H289.833V72.1665Z" fill="black"/>
<path d="M292.167 68.6665H291V70.9998H292.167V68.6665Z" fill="black"/>
<path d="M291 55.8335H289.833V57.0002H291V55.8335Z" fill="black"/>
<path d="M292.167 57H291V59.3333H292.167V57Z" fill="black"/>
<path d="M291 71H289.833V72.1667H291V71Z" fill="black"/>
<path d="M293.333 59.3335H292.167V68.6668H293.333V59.3335Z" fill="black"/>
<path d="M284 72.1665H277V73.3332H284V72.1665Z" fill="black"/>
<path d="M292.167 59.3333V68.6667H291V71H289.833V72.1667H288.667V73.3333H287.5V74.5H285.167V75.6667H275.833V74.5H273.5V73.3333H275.833V72.1667H277V73.3333H284V72.1667H286.333V71H287.5V69.8333H288.667V67.5H289.833V60.5H288.667V59.3333H289.833V57H291V59.3333H292.167Z" fill="#CBA600"/>
<path d="M289.833 60.5H288.667V67.5H289.833V60.5Z" fill="black"/>
<path d="M289.833 55.8335V59.3335H288.667V58.1668H287.5V57.0002H286.333V55.8335H284V54.6668H277V55.8335H274.667V57.0002H273.5V58.1668H272.333V60.5002H271.167V67.5002H272.333V69.8335H273.5V71.0002H274.667V72.1668H275.833V73.3335H272.333V72.1668H271.167V71.0002H270V68.6668H268.833V59.3335H270V57.0002H271.167V55.8335H272.333V54.6668H273.5V53.5002H275.833V52.3335H285.167V53.5002H287.5V54.6668H288.667V55.8335H289.833Z" fill="#FFD100"/>
<path d="M288.667 67.5H287.5V69.8333H288.667V67.5Z" fill="black"/>
<path d="M288.667 58.1665H287.5V60.4998H288.667V58.1665Z" fill="black"/>
<path d="M287.5 69.8335H286.333V71.0002H287.5V69.8335Z" fill="black"/>
<path d="M287.5 57H286.333V58.1667H287.5V57Z" fill="black"/>
<path d="M286.333 55.8335H284V57.0002H286.333V55.8335Z" fill="black"/>
<path d="M286.333 71H284V72.1667H286.333V71Z" fill="black"/>
<path d="M284 54.6665H277V55.8332H284V54.6665Z" fill="black"/>
<path d="M282.833 64V66.3333H280.5V65.1667H281.667V64H282.833Z" fill="#CB7419"/>
<path d="M282.833 61.6665H281.667V62.8332H282.833V61.6665Z" fill="#CB7419"/>
<path d="M281.667 61.6665H278.167V62.8332H281.667V61.6665Z" fill="#FFA33E"/>
<path d="M288.667 60.5V67.5H287.5V69.8333H286.333V71H284V72.1667H277V71H274.667V69.8333H277V68.6667H279.333V67.5H280.5V68.6667H281.667V67.5H282.833V66.3333H284V64H282.833V62.8333H284V61.6667H282.833V60.5H284V58.1667H285.167V57H286.333V58.1667H287.5V60.5H288.667Z" fill="#CB7419"/>
<path d="M281.667 64V65.1667H280.5V66.3333H278.167V64H281.667Z" fill="#FFA33E"/>
<path d="M277 55.8335H274.667V57.0002H277V55.8335Z" fill="black"/>
<path d="M277 71H274.667V72.1667H277V71Z" fill="black"/>
<path d="M274.667 69.8335H273.5V71.0002H274.667V69.8335Z" fill="black"/>
<path d="M274.667 57H273.5V58.1667H274.667V57Z" fill="black"/>
<path d="M273.5 67.5H272.333V69.8333H273.5V67.5Z" fill="black"/>
<path d="M285.167 57.0002V58.1668H284V60.5002H283V61.5002H284.5V63.0002H283V64.0002H284.5V66.5002H283V67.5002L282.205 67.5002V68.6668H280.5V67.5002L279.5 67.5002V68.6668H277V69.8335H273.5V67.5002H272.333V60.5002H273.5V58.1668H274.667V57.0002H277V55.8335H284V57.0002H285.167Z" fill="#FFAA4D"/>
<path d="M273.5 58.1665H272.333V60.4998H273.5V58.1665Z" fill="black"/>
<path d="M272.333 60.5H271.167V67.5H272.333V60.5Z" fill="black"/>
<path d="M190.167 131H189V132.167H190.167V131Z" fill="black"/>
<path d="M191.333 132.167H190.167V133.333H191.333V132.167Z" fill="black"/>
<path d="M192.5 133.333H191.333V134.5H192.5V133.333Z" fill="black"/>
<path d="M191.333 114.667H190.167V115.833H191.333V114.667Z" fill="black"/>
<path d="M189 128.667H187.833V131H189V128.667Z" fill="black"/>
<path d="M190.167 115.833H189V117H190.167V115.833Z" fill="black"/>
<path d="M194.833 134.5H192.5V135.667H194.833V134.5Z" fill="black"/>
<path d="M187.833 119.333H186.667V128.667H187.833V119.333Z" fill="black"/>
<path d="M204.167 111.167H194.833V112.333H204.167V111.167Z" fill="black"/>
<path d="M189 117H187.833V119.333H189V117Z" fill="black"/>
<path d="M204.167 135.667H194.833V136.833H204.167V135.667Z" fill="black"/>
<path d="M206.5 134.5H204.167V135.667H206.5V134.5Z" fill="black"/>
<path d="M206.5 112.333H204.167V113.5H206.5V112.333Z" fill="black"/>
<path d="M192.5 113.5H191.333V114.667H192.5V113.5Z" fill="black"/>
<path d="M194.833 112.333H192.5V113.5H194.833V112.333Z" fill="black"/>
<path d="M207.667 113.5H206.5V114.667H207.667V113.5Z" fill="black"/>
<path d="M207.667 133.333H206.5V134.5H207.667V133.333Z" fill="black"/>
<path d="M208.833 114.667H207.667V115.833H208.833V114.667Z" fill="black"/>
<path d="M208.833 132.167H207.667V133.333H208.833V132.167Z" fill="black"/>
<path d="M211.167 128.667H210V131H211.167V128.667Z" fill="black"/>
<path d="M210 115.833H208.833V117H210V115.833Z" fill="black"/>
<path d="M211.167 117H210V119.333H211.167V117Z" fill="black"/>
<path d="M210 131H208.833V132.167H210V131Z" fill="black"/>
<path d="M212.333 119.333H211.167V128.667H212.333V119.333Z" fill="black"/>
<path d="M203 132.167H196V133.333H203V132.167Z" fill="black"/>
<path d="M211.167 119.333V128.667H210V131H208.833V132.167H207.667V133.333H206.5V134.5H204.167V135.667H194.833V134.5H192.5V133.333H194.833V132.167H196V133.333H203V132.167H205.333V131H206.5V129.833H207.667V127.5H208.833V120.5H207.667V119.333H208.833V117H210V119.333H211.167Z" fill="#CBA600"/>
<path d="M208.833 120.5H207.667V127.5H208.833V120.5Z" fill="black"/>
<path d="M208.833 115.833V119.333H207.667V118.167H206.5V117H205.333V115.833H203V114.667H196V115.833H193.667V117H192.5V118.167H191.333V120.5H190.167V127.5H191.333V129.833H192.5V131H193.667V132.167H194.833V133.333H191.333V132.167H190.167V131H189V128.667H187.833V119.333H189V117H190.167V115.833H191.333V114.667H192.5V113.5H194.833V112.333H204.167V113.5H206.5V114.667H207.667V115.833H208.833Z" fill="#FFD100"/>
<path d="M207.667 127.5H206.5V129.833H207.667V127.5Z" fill="black"/>
<path d="M207.667 118.167H206.5V120.5H207.667V118.167Z" fill="black"/>
<path d="M206.5 129.833H205.333V131H206.5V129.833Z" fill="black"/>
<path d="M206.5 117H205.333V118.167H206.5V117Z" fill="black"/>
<path d="M205.333 115.833H203V117H205.333V115.833Z" fill="black"/>
<path d="M205.333 131H203V132.167H205.333V131Z" fill="black"/>
<path d="M203 114.667H196V115.833H203V114.667Z" fill="black"/>
<path d="M201.833 124V126.333H199.5V125.167H200.667V124H201.833Z" fill="#CB7419"/>
<path d="M201.833 121.667H200.667V122.833H201.833V121.667Z" fill="#CB7419"/>
<path d="M200.667 121.667H197.167V122.833H200.667V121.667Z" fill="#FFA33E"/>
<path d="M207.667 120.5V127.5H206.5V129.833H205.333V131H203V132.167H196V131H193.667V129.833H196V128.667H198.333V127.5H199.5V128.667H200.667V127.5H201.833V126.333H203V124H201.833V122.833H203V121.667H201.833V120.5H203V118.167H204.167V117H205.333V118.167H206.5V120.5H207.667Z" fill="#CB7419"/>
<path d="M200.667 124V125.167H199.5V126.333H197.167V124H200.667Z" fill="#FFA33E"/>
<path d="M196 115.833H193.667V117H196V115.833Z" fill="black"/>
<path d="M196 131H193.667V132.167H196V131Z" fill="black"/>
<path d="M193.667 129.833H192.5V131H193.667V129.833Z" fill="black"/>
<path d="M193.667 117H192.5V118.167H193.667V117Z" fill="black"/>
<path d="M192.5 127.5H191.333V129.833H192.5V127.5Z" fill="black"/>
<path d="M204.167 117V118.167H203V120.5H202V121.5H203.5V123H202V124H203.5V126.5H202V127.5L201.205 127.5V128.667H199.5V127.5L198.5 127.5V128.667H196V129.833H192.5V127.5H191.333V120.5H192.5V118.167H193.667V117H196V115.833H203V117H204.167Z" fill="#FFAA4D"/>
<path d="M192.5 118.167H191.333V120.5H192.5V118.167Z" fill="black"/>
<path d="M191.333 120.5H190.167V127.5H191.333V120.5Z" fill="black"/>
<path d="M79.1668 153.167V156.667H78.0002V159H76.8335V160.167H75.6668V161.333H74.5002V162.5H72.1668V163.667H67.5002V162.5H66.3335V161.333H65.1668V160.167H64.0002V159H62.8335V157.833H65.1668V159H69.8335V157.833H73.3335V156.667H75.6668V155.5H76.8335V154.333H78.0002V153.167H79.1668Z" fill="#2B6DA3"/>
<path d="M79.1668 147.333V152H78.0002V150.833H76.8335V149.667H75.6668V148.5H73.3335V147.333H69.8335V146.167H65.1668V147.333H61.6668V148.5H59.3335V149.667H58.1668V150.833H57.0002V152H55.8335V147.333H57.0002V145H58.1668V143.833H59.3335V142.667H60.5002V141.5H62.8335V140.333H72.1668V141.5H74.5002V142.667H75.6668V143.833H76.8335V145H78.0002V147.333H79.1668Z" fill="#51AAF4"/>
<path d="M78.0002 153.167H76.8335V154.333H78.0002V153.167Z" fill="black"/>
<path d="M78.0002 150.833H76.8335V152H78.0002V150.833Z" fill="black"/>
<path d="M76.8332 154.333H75.6665V155.5H76.8332V154.333Z" fill="black"/>
<path d="M76.8332 149.667H75.6665V150.833H76.8332V149.667Z" fill="black"/>
<path d="M75.6668 148.5H73.3335V149.667H75.6668V148.5Z" fill="black"/>
<path d="M75.6668 155.5H73.3335V156.667H75.6668V155.5Z" fill="black"/>
<path d="M73.3335 147.333H69.8335V148.5H73.3335V147.333Z" fill="black"/>
<path d="M73.3335 156.667H69.8335V157.833H73.3335V156.667Z" fill="black"/>
<path d="M78.0002 152V153.167H76.8335V154.333H75.6668V155.5H73.3335V156.667H69.8335V155.5H71.0002V154.333H72.1668V150.833H71.0002V149.667H69.8335V148.5H73.3335V149.667H75.6668V150.833H76.8335V152H78.0002Z" fill="#E5E5E5"/>
<path d="M69.8333 150.833H67.5V154.333H69.8333V150.833Z" fill="#152040"/>
<path d="M69.8333 147.333H67.5V148.5H69.8333V147.333Z" fill="#E5E5E5"/>
<path d="M69.8332 146.167H65.1665V147.333H69.8332V146.167Z" fill="black"/>
<path d="M69.8333 156.667H67.5V157.833H69.8333V156.667Z" fill="#E5E5E5"/>
<path d="M72.1667 150.833V154.333H71V155.5H69.8333V156.667H67.5V154.333H69.8333V150.833H67.5V148.5H69.8333V149.667H71V150.833H72.1667Z" fill="#33CCD8"/>
<path d="M69.8332 157.833H65.1665V159H69.8332V157.833Z" fill="black"/>
<path d="M67.4998 150.833H65.1665V154.333H67.4998V150.833Z" fill="#283D7D"/>
<path d="M67.4998 156.667H65.1665V157.833H67.4998V156.667Z" fill="white"/>
<path d="M65.1668 150.833V154.333H67.5002V156.667H65.1668V155.5H64.0002V154.333H62.8335V150.833H64.0002V149.667H65.1668V148.5H67.5002V150.833H65.1668Z" fill="#38E4F1"/>
<path d="M67.4998 147.333H65.1665V148.5H67.4998V147.333Z" fill="white"/>
<path d="M65.1665 147.333H61.6665V148.5H65.1665V147.333Z" fill="black"/>
<path d="M62.8333 150.833V154.333H64V155.5H65.1667V156.667H61.6667V155.5H59.3333V154.333H58.1667V153.167H57V152H58.1667V150.833H59.3333V149.667H61.6667V148.5H65.1667V149.667H64V150.833H62.8333Z" fill="white"/>
<path d="M65.1665 156.667H61.6665V157.833H65.1665V156.667Z" fill="black"/>
<path d="M61.6668 148.5H59.3335V149.667H61.6668V148.5Z" fill="black"/>
<path d="M61.6668 155.5H59.3335V156.667H61.6668V155.5Z" fill="black"/>
<path d="M59.3332 154.333H58.1665V155.5H59.3332V154.333Z" fill="black"/>
<path d="M59.3332 149.667H58.1665V150.833H59.3332V149.667Z" fill="black"/>
<path d="M67.5002 162.5V163.667H62.8335V162.5H60.5002V161.333H59.3335V160.167H58.1668V159H57.0002V156.667H55.8335V153.167H57.0002V154.333H58.1668V155.5H59.3335V156.667H61.6668V157.833H62.8335V159H64.0002V160.167H65.1668V161.333H66.3335V162.5H67.5002Z" fill="#51AAF4"/>
<path d="M58.1667 153.167H57V154.333H58.1667V153.167Z" fill="black"/>
<path d="M58.1667 150.833H57V152H58.1667V150.833Z" fill="black"/>
<path d="M57.0002 145H55.8335V147.333H57.0002V145Z" fill="black"/>
<path d="M60.5002 141.5H59.3335V142.667H60.5002V141.5Z" fill="black"/>
<path d="M57.0002 156.667H55.8335V159H57.0002V156.667Z" fill="black"/>
<path d="M56.9998 152V153.167H55.8332V156.667H54.6665V147.333H55.8332V152H56.9998Z" fill="black"/>
<path d="M58.1667 159H57V160.167H58.1667V159Z" fill="black"/>
<path d="M58.1667 143.833H57V145H58.1667V143.833Z" fill="black"/>
<path d="M59.3332 160.167H58.1665V161.333H59.3332V160.167Z" fill="black"/>
<path d="M59.3332 142.667H58.1665V143.833H59.3332V142.667Z" fill="black"/>
<path d="M60.5002 161.333H59.3335V162.5H60.5002V161.333Z" fill="black"/>
<path d="M62.8333 140.333H60.5V141.5H62.8333V140.333Z" fill="black"/>
<path d="M72.1668 139.167H62.8335V140.333H72.1668V139.167Z" fill="black"/>
<path d="M62.8333 162.5H60.5V163.667H62.8333V162.5Z" fill="black"/>
<path d="M74.4998 162.5H72.1665V163.667H74.4998V162.5Z" fill="black"/>
<path d="M72.1668 163.667H62.8335V164.833H72.1668V163.667Z" fill="black"/>
<path d="M74.4998 140.333H72.1665V141.5H74.4998V140.333Z" fill="black"/>
<path d="M79.1667 156.667H78V159H79.1667V156.667Z" fill="black"/>
<path d="M78.0002 159H76.8335V160.167H78.0002V159Z" fill="black"/>
<path d="M80.3333 147.333V156.667H79.1667V153.167H78V152H79.1667V147.333H80.3333Z" fill="black"/>
<path d="M75.6667 161.333H74.5V162.5H75.6667V161.333Z" fill="black"/>
<path d="M78.0002 143.833H76.8335V145H78.0002V143.833Z" fill="black"/>
<path d="M79.1667 145H78V147.333H79.1667V145Z" fill="black"/>
<path d="M76.8332 142.667H75.6665V143.833H76.8332V142.667Z" fill="black"/>
<path d="M75.6667 141.5H74.5V142.667H75.6667V141.5Z" fill="black"/>
<path d="M76.8332 160.167H75.6665V161.333H76.8332V160.167Z" fill="black"/>
<path d="M71.6667 12.8335H70.5V14.0002H71.6667V12.8335Z" fill="#E1BF28"/>
<path d="M84.5002 12.8335H83.3335V14.0002H84.5002V12.8335Z" fill="#E1BF28"/>
<path d="M86.8332 10.5H85.6665V11.6667H86.8332V10.5Z" fill="#FFFC00"/>
<path d="M84.5002 11.6665H83.3335V12.8332H84.5002V11.6665Z" fill="#FFFC00"/>
<path d="M83.3332 12.8335H82.1665V14.0002H83.3332V12.8335Z" fill="#FFFC00"/>
<path d="M69.3332 10.5H68.1665V11.6667H69.3332V10.5Z" fill="#FFFC00"/>
<path d="M71.6667 11.6665H70.5V12.8332H71.6667V11.6665Z" fill="#FFFC00"/>
<path d="M72.8332 12.8335H71.6665V14.0002H72.8332V12.8335Z" fill="#FFFC00"/>
<path d="M70.5002 11.6665H69.3335V13.9998H70.5002V11.6665Z" fill="#A6A6A6"/>
<path d="M78.6668 14H76.3335V15.1667H78.6668V14Z" fill="#E1BF28"/>
<path d="M85.6667 11.6665H84.5V13.9998H85.6667V11.6665Z" fill="#A6A6A6"/>
<path d="M83.3332 14.0002V15.1668H80.9998V16.3335H73.9998V15.1668H71.6665V14.0002H72.8332V12.8335H76.3332V15.1668H78.6665V12.8335H82.1665V14.0002H83.3332Z" fill="#A6A6A6"/>
<path d="M78.6668 12.8335H76.3335V14.0002H78.6668V12.8335Z" fill="#FFFC00"/>
<path d="M83.3332 24.4998V25.6665H71.6665V24.4998H72.8332V23.3332H73.9998V20.9998H75.1665V19.8332H76.3332V18.6665H78.6665V19.8332H79.8332V20.9998H80.9998V23.3332H82.1665V24.4998H83.3332Z" fill="#FFFC00"/>
<path d="M85.6668 23.3333V25.6667H83.3335V24.5H82.1668V23.3333H81.0002V21H79.8335V19.8333H78.6668V18.6667H76.3335V19.8333H75.1668V21H74.0002V23.3333H72.8335V24.5H71.6668V25.6667H69.3335V23.3333H70.5002V21H71.6668V18.6667H72.8335V17.5H82.1668V18.6667H83.3335V21H84.5002V23.3333H85.6668Z" fill="#E1BF28"/>
<path d="M83.3332 11.6665H71.6665V12.8332H83.3332V11.6665Z" fill="#6D6D6D"/>
<path d="M85.6668 9.3335H83.3335V11.6668H85.6668V9.3335Z" fill="#6D6D6D"/>
<path d="M89.1668 11.6667V12.8333H88.0002V14H86.8335V15.1667H84.5002V16.3333H82.1668V17.5H72.8335V16.3333H70.5002V15.1667H68.1668V14H67.0002V12.8333H65.8335V11.6667H67.0002V10.5H68.1668V11.6667H69.3335V14H71.6668V15.1667H74.0002V16.3333H81.0002V15.1667H83.3335V14H85.6668V11.6667H86.8335V10.5H88.0002V11.6667H89.1668Z" fill="#6D6D6D"/>
<path d="M71.6668 9.3335H69.3335V11.6668H71.6668V9.3335Z" fill="#6D6D6D"/>
<path d="M77.4998 8.16683V10.5002H76.3332V11.6668H71.6665V8.16683H72.8332V7.00016H73.9998V5.8335H75.1665V7.00016H76.3332V8.16683H77.4998Z" fill="#7DC2F9"/>
<path d="M80.9998 9.3335V10.5002H78.6665V11.6668H76.3332V10.5002H77.4998V8.16683H76.3332V7.00016H75.1665V5.8335H78.6665V7.00016H79.8332V9.3335H80.9998Z" fill="#3F9EEC"/>
<path d="M83.3332 8.16683V11.6668H78.6665V10.5002H80.9998V9.3335H79.8332V7.00016H78.6665V5.8335H80.9998V7.00016H82.1665V8.16683H83.3332Z" fill="#2B6DA3"/>
<path d="M294.333 123.667H282.667V124.833H294.333V123.667Z" fill="black"/>
<path d="M301.333 119H300.167V123.667H301.333V119Z" fill="black"/>
<path d="M297.833 121.333H296.667V109.667H297.833V116.667H299V117.833H297.833V121.333Z" fill="black"/>
<path d="M300.167 123.667H295.5V124.833H300.167V123.667Z" fill="black"/>
<path d="M295.5 107.333H294.333V108.5H295.5V107.333Z" fill="black"/>
<path d="M296.667 108.5H295.5V109.667H296.667V108.5Z" fill="black"/>
<path d="M300.167 117.833H299V119H300.167V117.833Z" fill="black"/>
<path d="M296.667 121.333H295.5V122.5H296.667V121.333Z" fill="black"/>
<path d="M295.5 122.5H294.333V123.667H295.5V122.5Z" fill="black"/>
<path d="M281.5 121.333H280.333V122.5H281.5V121.333Z" fill="black"/>
<path d="M282.667 122.5H281.5V123.667H282.667V122.5Z" fill="black"/>
<path d="M279.167 117.833H278V116.667H279.167V109.667H280.333V121.333H279.167V117.833Z" fill="black"/>
<path d="M276.833 119H275.667V123.667H276.833V119Z" fill="black"/>
<path d="M281.5 123.667H276.833V124.833H281.5V123.667Z" fill="black"/>
<path d="M278 117.833H276.833V119H278V117.833Z" fill="black"/>
<path d="M281.5 108.5H280.333V109.667H281.5V108.5Z" fill="black"/>
<path d="M282.667 107.333H281.5V108.5H282.667V107.333Z" fill="black"/>
<path d="M283.833 106.167H282.667V107.333H283.833V106.167Z" fill="black"/>
<path d="M294.333 106.167H293.167V107.333H294.333V106.167Z" fill="black"/>
<path d="M293.167 103.833H292V106.167H293.167V103.833Z" fill="black"/>
<path d="M285 103.833H283.833V106.167H285V103.833Z" fill="black"/>
<path d="M285 101.5H283.833V102.667H285V101.5Z" fill="black"/>
<path d="M286.167 102.667H285V103.833H286.167V102.667Z" fill="black"/>
<path d="M292 102.667H290.833V103.833H292V102.667Z" fill="black"/>
<path d="M293.167 101.5H292V102.667H293.167V101.5Z" fill="black"/>
<path d="M294.333 100.333H293.167V101.5H294.333V100.333Z" fill="black"/>
<path d="M293.167 99.1665H283.833V100.333H293.167V99.1665Z" fill="black"/>
<path d="M283.833 100.333H282.667V101.5H283.833V100.333Z" fill="black"/>
<path d="M292 103.833V106.167H285V103.833H286.167V102.667H290.833V103.833H292Z" fill="white"/>
<path d="M293.167 113.167V110.833H290.833V109.667H286.167V110.833H283.833V113.167H282.667V116.667H283.833V119H286.167V120.167H290.833V119H293.167V116.667H294.333V113.167H293.167ZM288.5 117.833V119H287.333V117.833H286.167V116.667H289.667V115.5H286.167V112H288.5V110.833H289.667V112H290.833V113.167H287.333V114.333H290.833V117.833H288.5Z" fill="white"/>
<path d="M289.667 120.167H287.333V123.667H289.667V120.167Z" fill="white"/>
<path d="M287.333 100.333H286.167V102.667H287.333V100.333Z" fill="white"/>
<path d="M290.833 100.333H289.667V102.667H290.833V100.333Z" fill="white"/>
<path d="M290.833 106.167V107.333H289.667V109.667H287.333V107.333H286.167V106.167H290.833Z" fill="white"/>
<path d="M293.167 100.333V101.5H292V102.667H290.833V100.333H293.167Z" fill="#00D1FF"/>
<path d="M289.667 100.333H287.333V102.667H289.667V100.333Z" fill="#00D1FF"/>
<path d="M286.167 100.333V102.667H285V101.5H283.833V100.333H286.167Z" fill="#00D1FF"/>
<path d="M287.333 113.167V114.333H290.833V117.833H288.5V119H287.333V117.833H286.167V116.667H289.667V115.5H286.167V112H288.5V110.833H289.667V112H290.833V113.167H287.333Z" fill="#00D1FF"/>
<path d="M282.667 113.167V116.667H283.833V119H286.167V120.167H287.333V123.667H282.667V122.5H281.5V121.333H280.333V109.667H281.5V108.5H282.667V107.333H283.833V106.167H286.167V107.333H287.333V109.667H286.167V110.833H283.833V113.167H282.667Z" fill="#00D1FF"/>
<path d="M281.5 122.5V123.667H276.833V119H278V117.833H279.167V121.333H280.333V122.5H281.5Z" fill="#00D1FF"/>
<path d="M300.167 119V123.667H295.5V122.5H296.667V121.333H297.833V117.833H299V119H300.167Z" fill="#00D1FF"/>
<path d="M296.667 109.667V121.333H295.5V122.5H294.333V123.667H289.667V120.167H290.833V119H293.167V116.667H294.333V113.167H293.167V110.833H290.833V109.667H289.667V107.333H290.833V106.167H293.167V107.333H294.333V108.5H295.5V109.667H296.667Z" fill="#00D1FF"/>
<rect x="221.5" y="140.278" width="1.27778" height="15.3333" fill="black"/>
<rect x="227.889" y="140.278" width="1.27778" height="12.7778" fill="black"/>
<rect x="236.833" y="140.278" width="1.27778" height="12.7778" fill="black"/>
<rect x="227.889" y="139" width="1.27778" height="5.11111" transform="rotate(90 227.889 139)" fill="black"/>
<rect x="243.222" y="139" width="1.27778" height="5.11111" transform="rotate(90 243.222 139)" fill="black"/>
<rect x="243.222" y="140.278" width="1.27778" height="15.3333" fill="black"/>
<rect x="235.556" y="153.056" width="1.27778" height="1.27778" fill="black"/>
<rect x="229.167" y="153.056" width="1.27778" height="1.27778" fill="black"/>
<rect x="224.056" y="158.167" width="1.27778" height="1.27778" fill="black"/>
<rect x="240.667" y="158.167" width="1.27778" height="1.27778" fill="black"/>
<rect x="241.944" y="155.611" width="1.27778" height="2.55556" fill="black"/>
<rect x="222.778" y="155.611" width="1.27778" height="2.55556" fill="black"/>
<rect x="230.444" y="154.333" width="5.11111" height="1.27778" fill="black"/>
<rect x="238.111" y="159.444" width="2.55556" height="1.27778" fill="black"/>
<rect x="225.333" y="159.444" width="2.55556" height="1.27778" fill="black"/>
<rect x="227.889" y="160.722" width="10.2222" height="1.27778" fill="black"/>
<rect x="222.778" y="140.278" width="5.11111" height="5.11111" fill="white"/>
<rect x="238.111" y="140.278" width="5.11111" height="5.11111" fill="white"/>
<path d="M222.778 145.389H227.889V153.055H229.167V154.333H230.444V155.611H235.556V154.333H236.833V153.055H238.111V145.389H243.222V155.611H241.944V158.166H240.667V159.444H238.111V160.722H227.889V159.444H225.333V158.166H224.056V155.611H222.778V145.389Z" fill="#E11D48"/>
<rect x="241.944" y="146.667" width="1.27778" height="1.27778" fill="#BE123C"/>
<rect x="241.944" y="145.389" width="1.27778" height="1.27778" fill="#BE123C"/>
<rect x="241.944" y="147.944" width="1.27778" height="1.27778" fill="#BE123C"/>
<rect x="241.944" y="149.222" width="1.27778" height="1.27778" fill="#BE123C"/>
<rect x="241.944" y="150.5" width="1.27778" height="1.27778" fill="#BE123C"/>
<rect x="241.944" y="151.778" width="1.27778" height="1.27778" fill="#BE123C"/>
<rect x="241.944" y="153.056" width="1.27778" height="1.27778" fill="#BE123C"/>
<rect x="241.944" y="154.333" width="1.27778" height="1.27778" fill="#BE123C"/>
<rect x="240.667" y="154.333" width="1.27778" height="1.27778" fill="#BE123C"/>
<rect x="239.389" y="155.611" width="1.27778" height="1.27778" fill="#BE123C"/>
<rect x="240.667" y="155.611" width="1.27778" height="1.27778" fill="#BE123C"/>
<rect x="240.667" y="156.889" width="1.27778" height="1.27778" fill="#BE123C"/>
<rect x="239.389" y="156.889" width="1.27778" height="1.27778" fill="#BE123C"/>
<rect x="239.389" y="158.167" width="1.27778" height="1.27778" fill="#BE123C"/>
<rect x="238.111" y="158.167" width="1.27778" height="1.27778" fill="#BE123C"/>
<rect x="236.833" y="158.167" width="1.27778" height="1.27778" fill="#BE123C"/>
<rect x="227.889" y="159.444" width="1.27778" height="1.27778" fill="#BE123C"/>
<rect x="225.333" y="158.167" width="3.83333" height="1.27778" fill="#BE123C"/>
<rect x="224.056" y="156.889" width="2.55556" height="1.27778" fill="#BE123C"/>
<rect x="224.056" y="155.611" width="1.27778" height="1.27778" fill="#BE123C"/>
<rect x="222.778" y="145.389" width="1.27778" height="10.2222" fill="#BE123C"/>
<rect x="222.778" y="140.278" width="1.27778" height="5.11111" fill="#DEDEDE"/>
<rect x="241.944" y="140.278" width="1.27778" height="5.11111" fill="#DEDEDE"/>
<rect x="224.056" y="154.333" width="1.27778" height="1.27778" fill="#BE123C"/>
<rect x="236.833" y="159.444" width="1.27778" height="1.27778" fill="#BE123C"/>
<rect x="229.167" y="159.444" width="7.66667" height="1.27778" fill="#BE123C"/>
</svg>
