<svg width="32" height="32" viewBox="0 0 32 32" fill="none" xmlns="http://www.w3.org/2000/svg">
<g id="Property 1=discord">
<path id="Discord" d="M27.1277 5.84613C30.721 11.1817 32.5177 17.1705 31.8643 24.085C31.8643 24.085 31.8643 24.1394 31.8099 24.1394C29.4143 25.9361 26.6921 27.2972 23.8066 28.1683C23.7521 28.2227 23.7521 28.1683 23.6977 28.1683C23.0988 27.2972 22.5543 26.4261 22.0643 25.5005C22.0643 25.4461 22.0643 25.4461 22.0643 25.3916L22.1188 25.3372C22.9899 25.0105 23.8066 24.6294 24.6232 24.1394C24.6232 24.1394 24.6777 24.1394 24.6777 24.085C24.6777 24.0305 24.6777 24.0305 24.6232 23.9761C24.4599 23.8672 24.2966 23.7583 24.1332 23.595C24.0788 23.595 24.0788 23.595 24.0243 23.595C18.8521 25.9905 13.1899 25.9905 7.96326 23.595C7.90882 23.595 7.85437 23.595 7.85437 23.595C7.69104 23.7583 7.52771 23.8672 7.36437 23.9761C7.30993 24.0305 7.30993 24.0305 7.30993 24.085C7.30993 24.1394 7.30993 24.1394 7.36437 24.1394C8.12659 24.6294 8.9977 25.0105 9.86881 25.3372C9.86881 25.3372 9.86881 25.3916 9.92326 25.3916C9.92326 25.4461 9.92326 25.4461 9.92326 25.5005C9.43326 26.4261 8.88881 27.2972 8.28993 28.1683C8.23548 28.1683 8.18104 28.2227 8.18104 28.1683C5.29549 27.2972 2.57327 25.9361 0.177721 24.1394C0.123277 24.1394 0.123277 24.085 0.123277 24.085C-0.421166 18.0961 0.722165 12.0528 4.85993 5.84613C4.85993 5.84613 4.85993 5.84613 4.91438 5.84613C6.98326 4.86613 9.16104 4.2128 11.3933 3.83169C11.4477 3.77725 11.5021 3.83169 11.5021 3.83169C11.8288 4.37614 12.101 4.97502 12.3188 5.51947C14.7688 5.13836 17.2188 5.13836 19.6688 5.51947C19.8866 4.97502 20.1588 4.37614 20.4855 3.83169C20.4855 3.83169 20.5399 3.77725 20.5943 3.83169C22.8266 4.2128 25.0043 4.86613 27.0732 5.84613C27.1277 5.84613 27.1277 5.84613 27.1277 5.84613ZM10.6855 20.4372C12.2644 20.4372 13.571 18.9672 13.571 17.225C13.571 15.4283 12.3188 14.0128 10.6855 14.0128C9.10659 14.0128 7.79993 15.4283 7.79993 17.225C7.79993 18.9672 9.10659 20.4372 10.6855 20.4372ZM21.3021 20.4372C22.9355 20.4372 24.1877 18.9672 24.1877 17.225C24.2421 15.4283 22.9355 14.0128 21.3021 14.0128C19.7232 14.0128 18.471 15.4283 18.471 17.225C18.471 18.9672 19.7232 20.4372 21.3021 20.4372Z" fill="#5865F2"/>
</g>
</svg>
