<svg width="28" height="28" viewBox="0 0 28 28" fill="none" xmlns="http://www.w3.org/2000/svg">
<g id="Property 1=dolar">
<path id="Vector" d="M19.8337 25.6667H8.16699V26.8334H19.8337V25.6667Z" fill="black"/>
<path id="Vector_2" d="M26.8337 21H25.667V25.6667H26.8337V21Z" fill="black"/>
<path id="Vector_3" d="M23.3337 23.3334H22.167V11.6667H23.3337V18.6667H24.5003V19.8334H23.3337V23.3334Z" fill="black"/>
<path id="Vector_4" d="M25.6667 25.6667H21V26.8334H25.6667V25.6667Z" fill="black"/>
<path id="Vector_5" d="M20.9997 9.33331H19.833V10.5H20.9997V9.33331Z" fill="black"/>
<path id="Vector_6" d="M22.1667 10.5H21V11.6667H22.1667V10.5Z" fill="black"/>
<path id="Vector_7" d="M25.6667 19.8333H24.5V21H25.6667V19.8333Z" fill="black"/>
<path id="Vector_8" d="M22.1667 23.3333H21V24.5H22.1667V23.3333Z" fill="black"/>
<path id="Vector_9" d="M20.9997 24.5H19.833V25.6667H20.9997V24.5Z" fill="black"/>
<path id="Vector_10" d="M6.99967 23.3333H5.83301V24.5H6.99967V23.3333Z" fill="black"/>
<path id="Vector_11" d="M8.16667 24.5H7V25.6667H8.16667V24.5Z" fill="black"/>
<path id="Vector_12" d="M4.66667 19.8334H3.5V18.6667H4.66667V11.6667H5.83333V23.3334H4.66667V19.8334Z" fill="black"/>
<path id="Vector_13" d="M2.33366 21H1.16699V25.6667H2.33366V21Z" fill="black"/>
<path id="Vector_14" d="M6.99967 25.6667H2.33301V26.8334H6.99967V25.6667Z" fill="black"/>
<path id="Vector_15" d="M3.49967 19.8333H2.33301V21H3.49967V19.8333Z" fill="black"/>
<path id="Vector_16" d="M6.99967 10.5H5.83301V11.6667H6.99967V10.5Z" fill="black"/>
<path id="Vector_17" d="M8.16667 9.33331H7V10.5H8.16667V9.33331Z" fill="black"/>
<path id="Vector_18" d="M9.33366 8.16669H8.16699V9.33335H9.33366V8.16669Z" fill="black"/>
<path id="Vector_19" d="M19.8337 8.16669H18.667V9.33335H19.8337V8.16669Z" fill="black"/>
<path id="Vector_20" d="M18.6667 5.83331H17.5V8.16665H18.6667V5.83331Z" fill="black"/>
<path id="Vector_21" d="M10.4997 5.83331H9.33301V8.16665H10.4997V5.83331Z" fill="black"/>
<path id="Vector_22" d="M10.4997 3.5H9.33301V4.66667H10.4997V3.5Z" fill="black"/>
<path id="Vector_23" d="M11.6667 4.66669H10.5V5.83335H11.6667V4.66669Z" fill="black"/>
<path id="Vector_24" d="M17.4997 4.66669H16.333V5.83335H17.4997V4.66669Z" fill="black"/>
<path id="Vector_25" d="M18.6667 3.5H17.5V4.66667H18.6667V3.5Z" fill="black"/>
<path id="Vector_26" d="M19.8337 2.33331H18.667V3.49998H19.8337V2.33331Z" fill="black"/>
<path id="Vector_27" d="M18.6663 1.16669H9.33301V2.33335H18.6663V1.16669Z" fill="black"/>
<path id="Vector_28" d="M9.33366 2.33331H8.16699V3.49998H9.33366V2.33331Z" fill="black"/>
<path id="Vector_29" d="M17.5 5.83335V8.16669H10.5V5.83335H11.6667V4.66669H16.3333V5.83335H17.5Z" fill="white"/>
<path id="Vector_30" d="M18.667 15.1667V12.8334H16.3337V11.6667H11.667V12.8334H9.33366V15.1667H8.16699V18.6667H9.33366V21H11.667V22.1667H16.3337V21H18.667V18.6667H19.8337V15.1667H18.667ZM14.0003 19.8334V21H12.8337V19.8334H11.667V18.6667H15.167V17.5H11.667V14H14.0003V12.8334H15.167V14H16.3337V15.1667H12.8337V16.3334H16.3337V19.8334H14.0003Z" fill="white"/>
<path id="Vector_31" d="M15.1663 22.1667H12.833V25.6667H15.1663V22.1667Z" fill="white"/>
<path id="Vector_32" d="M12.8337 2.33331H11.667V4.66665H12.8337V2.33331Z" fill="white"/>
<path id="Vector_33" d="M16.3337 2.33331H15.167V4.66665H16.3337V2.33331Z" fill="white"/>
<path id="Vector_34" d="M16.3337 8.16669V9.33335H15.167V11.6667H12.8337V9.33335H11.667V8.16669H16.3337Z" fill="white"/>
<path id="Vector_35" d="M18.6663 2.33331V3.49998H17.4997V4.66665H16.333V2.33331H18.6663Z" fill="#00D1FF"/>
<path id="Vector_36" d="M15.1663 2.33331H12.833V4.66665H15.1663V2.33331Z" fill="#00D1FF"/>
<path id="Vector_37" d="M11.6663 2.33331V4.66665H10.4997V3.49998H9.33301V2.33331H11.6663Z" fill="#00D1FF"/>
<path id="Vector_38" d="M12.8337 15.1666V16.3333H16.3337V19.8333H14.0003V21H12.8337V19.8333H11.667V18.6666H15.167V17.5H11.667V14H14.0003V12.8333H15.167V14H16.3337V15.1666H12.8337Z" fill="#00D1FF"/>
<path id="Vector_39" d="M8.16634 15.1667V18.6667H9.33301V21H11.6663V22.1667H12.833V25.6667H8.16634V24.5H6.99967V23.3334H5.83301V11.6667H6.99967V10.5H8.16634V9.33335H9.33301V8.16669H11.6663V9.33335H12.833V11.6667H11.6663V12.8334H9.33301V15.1667H8.16634Z" fill="#00D1FF"/>
<path id="Vector_40" d="M6.99967 24.5V25.6666H2.33301V21H3.49967V19.8333H4.66634V23.3333H5.83301V24.5H6.99967Z" fill="#00D1FF"/>
<path id="Vector_41" d="M25.6667 21V25.6666H21V24.5H22.1667V23.3333H23.3333V19.8333H24.5V21H25.6667Z" fill="#00D1FF"/>
<path id="Vector_42" d="M22.167 11.6667V23.3334H21.0003V24.5H19.8337V25.6667H15.167V22.1667H16.3337V21H18.667V18.6667H19.8337V15.1667H18.667V12.8334H16.3337V11.6667H15.167V9.33335H16.3337V8.16669H18.667V9.33335H19.8337V10.5H21.0003V11.6667H22.167Z" fill="#00D1FF"/>
</g>
</svg>
