<svg width="28" height="28" viewBox="0 0 28 28" fill="none" xmlns="http://www.w3.org/2000/svg">
<g id="Property 1=eye">
<path id="Vector" d="M25.6663 15.1667V18.6667H24.4997V21H23.333V22.1667H22.1663V23.3334H20.9997V24.5H18.6663V25.6667H13.9997V24.5H12.833V23.3334H11.6663V22.1667H10.4997V21H9.33301V19.8334H11.6663V21H16.333V19.8334H19.833V18.6667H22.1663V17.5H23.333V16.3334H24.4997V15.1667H25.6663Z" fill="#2B6DA3"/>
<path id="Vector_2" d="M25.6663 9.33331V14H24.4997V12.8333H23.333V11.6666H22.1663V10.5H19.833V9.33331H16.333V8.16665H11.6663V9.33331H8.16634V10.5H5.83301V11.6666H4.66634V12.8333H3.49967V14H2.33301V9.33331H3.49967V6.99998H4.66634V5.83331H5.83301V4.66665H6.99967V3.49998H9.33301V2.33331H18.6663V3.49998H20.9997V4.66665H22.1663V5.83331H23.333V6.99998H24.4997V9.33331H25.6663Z" fill="#51AAF4"/>
<path id="Vector_3" d="M24.4997 15.1667H23.333V16.3334H24.4997V15.1667Z" fill="black"/>
<path id="Vector_4" d="M24.4997 12.8333H23.333V14H24.4997V12.8333Z" fill="black"/>
<path id="Vector_5" d="M23.3337 16.3333H22.167V17.5H23.3337V16.3333Z" fill="black"/>
<path id="Vector_6" d="M23.3337 11.6667H22.167V12.8334H23.3337V11.6667Z" fill="black"/>
<path id="Vector_7" d="M22.1663 10.5H19.833V11.6667H22.1663V10.5Z" fill="black"/>
<path id="Vector_8" d="M22.1663 17.5H19.833V18.6667H22.1663V17.5Z" fill="black"/>
<path id="Vector_9" d="M19.833 9.33331H16.333V10.5H19.833V9.33331Z" fill="black"/>
<path id="Vector_10" d="M19.833 18.6667H16.333V19.8334H19.833V18.6667Z" fill="black"/>
<path id="Vector_11" d="M24.4997 14V15.1667H23.333V16.3333H22.1663V17.5H19.833V18.6667H16.333V17.5H17.4997V16.3333H18.6663V12.8333H17.4997V11.6667H16.333V10.5H19.833V11.6667H22.1663V12.8333H23.333V14H24.4997Z" fill="#E5E5E5"/>
<path id="Vector_12" d="M16.3333 12.8333H14V16.3333H16.3333V12.8333Z" fill="#152040"/>
<path id="Vector_13" d="M16.3333 9.33331H14V10.5H16.3333V9.33331Z" fill="#E5E5E5"/>
<path id="Vector_14" d="M16.3337 8.16669H11.667V9.33335H16.3337V8.16669Z" fill="black"/>
<path id="Vector_15" d="M16.3333 18.6667H14V19.8334H16.3333V18.6667Z" fill="#E5E5E5"/>
<path id="Vector_16" d="M18.6667 12.8333V16.3333H17.5V17.5H16.3333V18.6667H14V16.3333H16.3333V12.8333H14V10.5H16.3333V11.6667H17.5V12.8333H18.6667Z" fill="#33CCD8"/>
<path id="Vector_17" d="M16.3337 19.8333H11.667V21H16.3337V19.8333Z" fill="black"/>
<path id="Vector_18" d="M14.0003 12.8333H11.667V16.3333H14.0003V12.8333Z" fill="#283D7D"/>
<path id="Vector_19" d="M14.0003 18.6667H11.667V19.8334H14.0003V18.6667Z" fill="white"/>
<path id="Vector_20" d="M11.6663 12.8333V16.3333H13.9997V18.6667H11.6663V17.5H10.4997V16.3333H9.33301V12.8333H10.4997V11.6667H11.6663V10.5H13.9997V12.8333H11.6663Z" fill="#38E4F1"/>
<path id="Vector_21" d="M14.0003 9.33331H11.667V10.5H14.0003V9.33331Z" fill="white"/>
<path id="Vector_22" d="M11.667 9.33331H8.16699V10.5H11.667V9.33331Z" fill="black"/>
<path id="Vector_23" d="M9.33333 12.8333V16.3333H10.5V17.5H11.6667V18.6667H8.16667V17.5H5.83333V16.3333H4.66667V15.1667H3.5V14H4.66667V12.8333H5.83333V11.6667H8.16667V10.5H11.6667V11.6667H10.5V12.8333H9.33333Z" fill="white"/>
<path id="Vector_24" d="M11.667 18.6667H8.16699V19.8334H11.667V18.6667Z" fill="black"/>
<path id="Vector_25" d="M8.16634 10.5H5.83301V11.6667H8.16634V10.5Z" fill="black"/>
<path id="Vector_26" d="M8.16634 17.5H5.83301V18.6667H8.16634V17.5Z" fill="black"/>
<path id="Vector_27" d="M5.83366 16.3333H4.66699V17.5H5.83366V16.3333Z" fill="black"/>
<path id="Vector_28" d="M5.83366 11.6667H4.66699V12.8334H5.83366V11.6667Z" fill="black"/>
<path id="Vector_29" d="M13.9997 24.5V25.6667H9.33301V24.5H6.99967V23.3334H5.83301V22.1667H4.66634V21H3.49967V18.6667H2.33301V15.1667H3.49967V16.3334H4.66634V17.5H5.83301V18.6667H8.16634V19.8334H9.33301V21H10.4997V22.1667H11.6663V23.3334H12.833V24.5H13.9997Z" fill="#51AAF4"/>
<path id="Vector_30" d="M4.66667 15.1667H3.5V16.3334H4.66667V15.1667Z" fill="black"/>
<path id="Vector_31" d="M4.66667 12.8333H3.5V14H4.66667V12.8333Z" fill="black"/>
<path id="Vector_32" d="M3.49967 7H2.33301V9.33333H3.49967V7Z" fill="black"/>
<path id="Vector_33" d="M6.99967 3.5H5.83301V4.66667H6.99967V3.5Z" fill="black"/>
<path id="Vector_34" d="M3.49967 18.6667H2.33301V21H3.49967V18.6667Z" fill="black"/>
<path id="Vector_35" d="M3.50033 14V15.1666H2.33366V18.6666H1.16699V9.33331H2.33366V14H3.50033Z" fill="black"/>
<path id="Vector_36" d="M4.66667 21H3.5V22.1667H4.66667V21Z" fill="black"/>
<path id="Vector_37" d="M4.66667 5.83331H3.5V6.99998H4.66667V5.83331Z" fill="black"/>
<path id="Vector_38" d="M5.83366 22.1667H4.66699V23.3334H5.83366V22.1667Z" fill="black"/>
<path id="Vector_39" d="M5.83366 4.66669H4.66699V5.83335H5.83366V4.66669Z" fill="black"/>
<path id="Vector_40" d="M6.99967 23.3333H5.83301V24.5H6.99967V23.3333Z" fill="black"/>
<path id="Vector_41" d="M9.33333 2.33331H7V3.49998H9.33333V2.33331Z" fill="black"/>
<path id="Vector_42" d="M18.6663 1.16669H9.33301V2.33335H18.6663V1.16669Z" fill="black"/>
<path id="Vector_43" d="M9.33333 24.5H7V25.6667H9.33333V24.5Z" fill="black"/>
<path id="Vector_44" d="M21.0003 24.5H18.667V25.6667H21.0003V24.5Z" fill="black"/>
<path id="Vector_45" d="M18.6663 25.6667H9.33301V26.8334H18.6663V25.6667Z" fill="black"/>
<path id="Vector_46" d="M21.0003 2.33331H18.667V3.49998H21.0003V2.33331Z" fill="black"/>
<path id="Vector_47" d="M25.6667 18.6667H24.5V21H25.6667V18.6667Z" fill="black"/>
<path id="Vector_48" d="M24.4997 21H23.333V22.1667H24.4997V21Z" fill="black"/>
<path id="Vector_49" d="M26.8333 9.33331V18.6666H25.6667V15.1666H24.5V14H25.6667V9.33331H26.8333Z" fill="black"/>
<path id="Vector_50" d="M22.1667 23.3333H21V24.5H22.1667V23.3333Z" fill="black"/>
<path id="Vector_51" d="M24.4997 5.83331H23.333V6.99998H24.4997V5.83331Z" fill="black"/>
<path id="Vector_52" d="M25.6667 7H24.5V9.33333H25.6667V7Z" fill="black"/>
<path id="Vector_53" d="M23.3337 4.66669H22.167V5.83335H23.3337V4.66669Z" fill="black"/>
<path id="Vector_54" d="M22.1667 3.5H21V4.66667H22.1667V3.5Z" fill="black"/>
<path id="Vector_55" d="M23.3337 22.1667H22.167V23.3334H23.3337V22.1667Z" fill="black"/>
</g>
</svg>
