<svg width="21" height="20" viewBox="0 0 21 20" fill="none" xmlns="http://www.w3.org/2000/svg">
<path d="M9.88538 0.456308L7.88672 2.19664H10.7531V0.133308C10.4437 0.132308 10.1341 0.239974 9.88538 0.456308Z" fill="#FDF0BC"/>
<path d="M11.6102 0.454301C11.3642 0.241301 11.0592 0.134301 10.7539 0.133301V2.19663H13.6202L11.6102 0.454301Z" fill="url(#paint0_linear_1815_145868)"/>
<path d="M3.77952 3.30988L3.36719 5.92788L5.56285 4.08555L4.23652 2.50488C3.99885 2.70288 3.83085 2.98455 3.77952 3.30988Z" fill="#FDF0BC"/>
<path d="M5.10061 2.19989C4.77528 2.19455 4.47261 2.30889 4.23828 2.50455L5.56461 4.08522L7.76028 2.24289L5.10061 2.19989Z" fill="url(#paint1_linear_1815_145868)"/>
<path d="M0.9383 9.41946L2.30497 11.6901L2.80263 8.86746L0.770967 8.50879C0.715967 8.81346 0.7683 9.13712 0.9383 9.41946Z" fill="#FDF0BC"/>
<path d="M1.23615 7.7211C0.983818 7.92643 0.825484 8.20843 0.771484 8.50877L2.80348 8.8671L3.30115 6.04443L1.23615 7.7211Z" fill="url(#paint2_linear_1815_145868)"/>
<path d="M2.68794 15.9268L5.19461 16.7875L3.76161 14.3052L1.97461 15.3368C2.12828 15.6055 2.37628 15.8198 2.68794 15.9268Z" fill="url(#paint3_linear_1815_145868)"/>
<path d="M1.82474 14.4349C1.76307 14.7542 1.82307 15.0722 1.97474 15.3372L3.76174 14.3056L2.32874 11.8232L1.82474 14.4349Z" fill="url(#paint4_linear_1815_145868)"/>
<path d="M8.21082 19.787L10.6842 18.8353L7.99082 17.855L7.28516 19.794C7.57549 19.9006 7.90349 19.9053 8.21082 19.787Z" fill="url(#paint5_linear_1815_145868)"/>
<path d="M6.59149 19.1992C6.74949 19.4835 6.99983 19.6885 7.28649 19.7938L7.99216 17.8548L5.29883 16.8745L6.59149 19.1992Z" fill="url(#paint6_linear_1815_145868)"/>
<path d="M14.924 19.1935L16.207 16.8745L13.5137 17.8548L14.2193 19.7938C14.51 19.6888 14.7643 19.4818 14.924 19.1935Z" fill="url(#paint7_linear_1815_145868)"/>
<path d="M13.3046 19.7848C13.6086 19.9012 13.932 19.8972 14.2193 19.7935L13.5136 17.8545L10.8203 18.8348L13.3046 19.7848Z" fill="url(#paint8_linear_1815_145868)"/>
<path d="M19.6848 14.4242L19.1771 11.8232L17.7441 14.3056L19.5311 15.3372C19.6865 15.0696 19.7481 14.7476 19.6848 14.4242Z" fill="url(#paint9_linear_1815_145868)"/>
<path d="M18.8242 15.9182C19.1315 15.8118 19.3769 15.6008 19.5305 15.3368L17.7435 14.3052L16.3105 16.7875L18.8242 15.9182Z" fill="url(#paint10_linear_1815_145868)"/>
<path d="M20.2661 7.71043L18.2051 6.04443L18.7027 8.8671L20.7347 8.50877C20.6824 8.2041 20.5224 7.91777 20.2661 7.71043Z" fill="url(#paint11_linear_1815_145868)"/>
<path d="M20.5678 9.40812C20.7351 9.12912 20.7875 8.80979 20.7351 8.50879L18.7031 8.86712L19.2008 11.6898L20.5678 9.40812Z" fill="url(#paint12_linear_1815_145868)"/>
<path d="M16.3958 2.19407L13.7461 2.2424L15.9418 4.08473L17.2681 2.50407C17.0318 2.30473 16.7254 2.18807 16.3958 2.19407Z" fill="url(#paint13_linear_1815_145868)"/>
<path d="M17.7174 3.30122C17.6661 2.97988 17.5011 2.70188 17.2677 2.50488L15.9414 4.08555L18.1371 5.92788L17.7174 3.30122Z" fill="url(#paint14_linear_1815_145868)"/>
<path d="M10.752 17.269C14.6179 17.269 17.752 14.135 17.752 10.269C17.752 6.40305 14.6179 3.26904 10.752 3.26904C6.88596 3.26904 3.75195 6.40305 3.75195 10.269C3.75195 14.135 6.88596 17.269 10.752 17.269Z" fill="url(#paint15_radial_1815_145868)"/>
<path d="M10.7523 2.64404C6.54095 2.64404 3.12695 6.05771 3.12695 10.269C3.12695 14.4804 6.54095 17.8944 10.7523 17.8944C14.9636 17.8944 18.3776 14.4804 18.3776 10.269C18.3776 6.05771 14.9636 2.64404 10.7523 2.64404ZM10.7523 17.2684C6.88662 17.2684 3.75295 14.1347 3.75295 10.269C3.75295 6.40338 6.88662 3.26971 10.7523 3.26971C14.618 3.26971 17.7516 6.40338 17.7516 10.269C17.7516 14.1347 14.618 17.2684 10.7523 17.2684Z" fill="url(#paint16_linear_1815_145868)"/>
<path d="M10.7523 1.6709C6.00363 1.6709 2.1543 5.52023 2.1543 10.2689C2.1543 15.0176 6.00363 18.8669 10.7523 18.8669C15.501 18.8669 19.3503 15.0176 19.3503 10.2689C19.3503 5.52023 15.501 1.6709 10.7523 1.6709ZM10.7523 17.8906C6.54296 17.8906 3.13063 14.4782 3.13063 10.2689C3.13063 6.05957 6.54296 2.64757 10.7523 2.64757C14.9616 2.64757 18.374 6.0599 18.374 10.2692C18.374 14.4786 14.9616 17.8906 10.7523 17.8906Z" fill="url(#paint17_linear_1815_145868)"/>
<path d="M8.8227 13.7769C8.70604 13.7769 8.5977 13.7396 8.50204 13.6729C8.4897 13.6646 8.48137 13.6562 8.47304 13.6479C8.4647 13.6439 8.46037 13.6356 8.45637 13.6312C8.4397 13.6186 8.43137 13.6062 8.41904 13.5939C8.4107 13.5856 8.40637 13.5772 8.39837 13.5689L8.39437 13.5649C8.38604 13.5566 8.3817 13.5482 8.3777 13.5399L8.36937 13.5272C8.3527 13.5022 8.34037 13.4772 8.3277 13.4522C8.3237 13.4399 8.31937 13.4272 8.31504 13.4149C8.31104 13.4022 8.3067 13.3859 8.3027 13.3732C8.29837 13.3566 8.29437 13.3359 8.29004 13.3149C8.29004 13.3066 8.28604 13.2942 8.28604 13.2859C8.28604 13.2692 8.28204 13.2526 8.28204 13.2359C8.28204 13.2069 8.28604 13.1776 8.29037 13.1442L8.61104 11.2789L7.2577 9.9589C7.2327 9.9339 7.2077 9.9049 7.18704 9.87556C7.16204 9.83823 7.14537 9.8089 7.13304 9.77556C7.12904 9.76323 7.1207 9.74656 7.11637 9.72556C7.1037 9.67556 7.0957 9.62556 7.0957 9.57156C7.0957 9.5549 7.0957 9.54256 7.0957 9.5259C7.0957 9.5009 7.0997 9.4759 7.10804 9.4509C7.10804 9.4469 7.11204 9.43856 7.11204 9.43423C7.11637 9.42156 7.11637 9.40923 7.12037 9.3969C7.12037 9.3929 7.12437 9.38423 7.1287 9.3719C7.1327 9.35923 7.13704 9.3469 7.14537 9.33456C7.1577 9.30956 7.17037 9.28456 7.19104 9.25556C7.19937 9.2389 7.2117 9.22656 7.22437 9.2139C7.22437 9.2139 7.22437 9.2099 7.22837 9.2099L7.29504 9.10156H7.35337C7.3617 9.09723 7.3657 9.09323 7.37404 9.0889C7.38237 9.0849 7.39904 9.07656 7.41137 9.06823C7.42804 9.0599 7.4487 9.05156 7.4737 9.04323C7.48204 9.03923 7.49437 9.0349 7.50704 9.0349C7.5237 9.0309 7.54037 9.02656 7.56104 9.02223L9.4347 8.75156L10.259 7.06523C10.3507 6.8779 10.538 6.76123 10.746 6.76123C10.896 6.76123 11.0417 6.82356 11.1457 6.9319C11.1624 6.95256 11.179 6.96923 11.1914 6.99023C11.208 7.01523 11.2247 7.04023 11.237 7.06523L12.074 8.75556L13.9434 9.02623C14.1517 9.05523 14.3224 9.20123 14.3847 9.4009C14.389 9.41356 14.393 9.42156 14.393 9.43423C14.393 9.43823 14.393 9.43823 14.397 9.44256C14.401 9.45523 14.4054 9.46756 14.4054 9.48423C14.4054 9.48823 14.4054 9.48823 14.4054 9.49256C14.4094 9.50923 14.4094 9.52156 14.4094 9.53823C14.4137 9.61723 14.401 9.70056 14.3677 9.77556C14.355 9.8089 14.3387 9.8379 14.3177 9.86723L14.3134 9.87123C14.2927 9.90023 14.2677 9.92956 14.2427 9.95456L12.8894 11.2746L13.21 13.1356C13.2434 13.3396 13.1644 13.5436 12.9934 13.6686C12.9517 13.6976 12.9017 13.7269 12.8517 13.7436C12.8474 13.7436 12.8434 13.7479 12.835 13.7479C12.781 13.7646 12.7267 13.7729 12.6727 13.7729C12.5854 13.7729 12.4977 13.7522 12.4187 13.7106L10.745 12.8319L9.07137 13.7106C8.99737 13.7562 8.91004 13.7769 8.8227 13.7769Z" fill="#DF771E"/>
<path d="M10.747 7.02734V10.4707L9.59766 9.00101L10.497 7.18168C10.5513 7.08168 10.6513 7.02734 10.747 7.02734Z" fill="#FFFAF6"/>
<path d="M14.131 9.48847L10.75 10.4711L11.899 9.00146L13.906 9.2928C14.0187 9.31347 14.0977 9.39247 14.131 9.48847Z" fill="#FEE0AC"/>
<path d="M12.8361 13.456L10.7461 10.4707L12.6031 11.1827L12.9444 13.1814C12.9691 13.298 12.9191 13.3977 12.8361 13.456Z" fill="#ECB76B"/>
<path d="M10.7466 10.4707V12.5317L8.95192 13.4767C8.84792 13.5307 8.73958 13.514 8.65625 13.456L10.7466 10.4707Z" fill="#F1A341"/>
<path d="M11.8954 9.00101L10.7461 10.4707V7.02734C10.8211 7.02734 10.8961 7.05634 10.9501 7.11468C10.9584 7.12301 10.9668 7.13534 10.9751 7.14801C10.9834 7.16068 10.9918 7.17301 10.9958 7.18534L11.8954 9.00101Z" fill="#FFE9BA"/>
<path d="M14.1223 9.67601C14.114 9.69268 14.1057 9.70934 14.0973 9.72601C14.0847 9.74268 14.0723 9.75501 14.06 9.77168L12.607 11.1873L10.75 10.4753L14.131 9.49268C14.131 9.49668 14.135 9.50101 14.135 9.50534C14.135 9.50968 14.1393 9.51368 14.1393 9.52201C14.1393 9.52634 14.1393 9.52634 14.1393 9.52634C14.1393 9.53034 14.1393 9.53468 14.1393 9.53868C14.1393 9.54701 14.1393 9.55134 14.1393 9.55934C14.1433 9.59668 14.139 9.63834 14.1223 9.67601Z" fill="#E49632"/>
<path d="M12.8364 13.456C12.8158 13.4727 12.7908 13.485 12.7614 13.4934C12.7574 13.4934 12.7574 13.4934 12.7531 13.4974C12.6864 13.518 12.6114 13.514 12.5408 13.4767L10.7461 12.5317V10.4707L12.8364 13.456Z" fill="#E29136"/>
<path d="M10.7468 10.4707L8.65683 13.456C8.65283 13.4517 8.64849 13.4477 8.64449 13.4434C8.64049 13.4394 8.63616 13.435 8.63183 13.4307C8.62783 13.4267 8.62349 13.4224 8.61516 13.414C8.61083 13.41 8.60683 13.4057 8.60249 13.4014C8.59816 13.397 8.59849 13.3974 8.59849 13.393C8.59449 13.389 8.59016 13.3847 8.59016 13.3804C8.58183 13.368 8.57349 13.3554 8.56949 13.343C8.56549 13.339 8.56549 13.3304 8.56116 13.3224C8.55716 13.314 8.55716 13.3097 8.55283 13.3017C8.54883 13.2934 8.54883 13.281 8.54883 13.2727C8.54883 13.2687 8.54883 13.26 8.54883 13.256C8.54883 13.2477 8.54883 13.2394 8.54883 13.231C8.54883 13.2144 8.54883 13.1977 8.55283 13.181L8.89416 11.1824L10.7468 10.4707Z" fill="#FED891"/>
<path d="M10.7462 10.471L7.36523 9.48837C7.36523 9.48437 7.36923 9.48004 7.36923 9.4757C7.37323 9.46737 7.37323 9.45904 7.37757 9.45504C7.3859 9.43837 7.39423 9.42604 7.40257 9.41337C7.40657 9.40504 7.4109 9.4007 7.41923 9.3927C7.42357 9.3887 7.42757 9.38004 7.4359 9.37604C7.4399 9.37204 7.44857 9.3637 7.45257 9.35937C7.45657 9.35504 7.4649 9.35104 7.46923 9.3467C7.47757 9.3427 7.4859 9.33404 7.49423 9.33004C7.49823 9.32604 7.50657 9.3217 7.5149 9.3217C7.52757 9.3177 7.53557 9.31337 7.54823 9.30904C7.55223 9.30904 7.55657 9.30504 7.5649 9.30504C7.57323 9.30104 7.58557 9.30104 7.59823 9.2967L9.60523 9.00537L10.7462 10.471Z" fill="#FFF3D9"/>
<path d="M10.7464 10.471L8.89376 11.187L7.44076 9.77138C7.42409 9.75871 7.41575 9.74237 7.40342 9.72571C7.39509 9.70904 7.38275 9.69237 7.37842 9.67571C7.37442 9.66737 7.37009 9.65904 7.37009 9.65071C7.36175 9.62571 7.35742 9.59671 7.35742 9.57171C7.35742 9.56337 7.35742 9.55504 7.35742 9.54671C7.35742 9.53437 7.35742 9.52604 7.36175 9.51337C7.36175 9.50937 7.36576 9.50504 7.36576 9.49671C7.36576 9.49271 7.36976 9.48838 7.36976 9.48438L10.7464 10.471Z" fill="#ECB76B"/>
<defs>
<linearGradient id="paint0_linear_1815_145868" x1="10.894" y1="1.16497" x2="13.5262" y2="1.16497" gradientUnits="userSpaceOnUse">
<stop stop-color="#FEE998"/>
<stop offset="1" stop-color="#FCC15B"/>
</linearGradient>
<linearGradient id="paint1_linear_1815_145868" x1="5.03973" y1="3.17814" x2="7.66661" y2="0.973747" gradientUnits="userSpaceOnUse">
<stop stop-color="#FEE998"/>
<stop offset="1" stop-color="#FCC15B"/>
</linearGradient>
<linearGradient id="paint2_linear_1815_145868" x1="3.34816" y1="6.03853" x2="1.86581" y2="8.47382" gradientUnits="userSpaceOnUse">
<stop stop-color="#FCC15B"/>
<stop offset="1" stop-color="#FEE998"/>
</linearGradient>
<linearGradient id="paint3_linear_1815_145868" x1="2.65044" y1="14.7632" x2="5.22691" y2="16.4574" gradientUnits="userSpaceOnUse">
<stop stop-color="#FFC05F"/>
<stop offset="1" stop-color="#ED892B"/>
</linearGradient>
<linearGradient id="paint4_linear_1815_145868" x1="2.35812" y1="11.8773" x2="2.81694" y2="14.7714" gradientUnits="userSpaceOnUse">
<stop stop-color="#FCC15B"/>
<stop offset="1" stop-color="#FEE998"/>
</linearGradient>
<linearGradient id="paint5_linear_1815_145868" x1="7.76698" y1="18.859" x2="10.3082" y2="19.4237" gradientUnits="userSpaceOnUse">
<stop stop-color="#FEAC3E"/>
<stop offset="1" stop-color="#F08223"/>
</linearGradient>
<linearGradient id="paint6_linear_1815_145868" x1="5.17173" y1="16.8524" x2="7.50114" y2="18.7583" gradientUnits="userSpaceOnUse">
<stop stop-color="#FFA135"/>
<stop offset="1" stop-color="#FEB431"/>
</linearGradient>
<linearGradient id="paint7_linear_1815_145868" x1="16.2171" y1="16.8579" x2="13.8936" y2="18.8579" gradientUnits="userSpaceOnUse">
<stop stop-color="#FFAA3D"/>
<stop offset="1" stop-color="#ED8B1C"/>
</linearGradient>
<linearGradient id="paint8_linear_1815_145868" x1="10.8305" y1="19.0204" x2="13.7952" y2="18.8557" gradientUnits="userSpaceOnUse">
<stop stop-color="#FF962D"/>
<stop offset="1" stop-color="#E56005"/>
</linearGradient>
<linearGradient id="paint9_linear_1815_145868" x1="19.2861" y1="11.8337" x2="18.69" y2="14.7356" gradientUnits="userSpaceOnUse">
<stop stop-color="#FDBD41"/>
<stop offset="1" stop-color="#FEB334"/>
</linearGradient>
<linearGradient id="paint10_linear_1815_145868" x1="20.0669" y1="12.3445" x2="17.2006" y2="17.3089" gradientUnits="userSpaceOnUse">
<stop stop-color="#F6942F"/>
<stop offset="1" stop-color="#EA6F11"/>
</linearGradient>
<linearGradient id="paint11_linear_1815_145868" x1="18.0612" y1="6.1279" x2="19.7867" y2="8.68477" gradientUnits="userSpaceOnUse">
<stop stop-color="#FDBD41"/>
<stop offset="1" stop-color="#FEB334"/>
</linearGradient>
<linearGradient id="paint12_linear_1815_145868" x1="19.0934" y1="11.6826" x2="19.7679" y2="8.70218" gradientUnits="userSpaceOnUse">
<stop stop-color="#FD9D24"/>
<stop offset="1" stop-color="#FF9515"/>
</linearGradient>
<linearGradient id="paint13_linear_1815_145868" x1="16.5717" y1="3.25554" x2="13.905" y2="1.96927" gradientUnits="userSpaceOnUse">
<stop stop-color="#FCC15B"/>
<stop offset="1" stop-color="#FEE998"/>
</linearGradient>
<linearGradient id="paint14_linear_1815_145868" x1="16.5842" y1="3.09236" x2="17.8547" y2="5.91589" gradientUnits="userSpaceOnUse">
<stop stop-color="#FF9515"/>
<stop offset="1" stop-color="#FFBE41"/>
</linearGradient>
<radialGradient id="paint15_radial_1815_145868" cx="0" cy="0" r="1" gradientUnits="userSpaceOnUse" gradientTransform="translate(10.752 10.2689) scale(7)">
<stop offset="0.8428" stop-color="#FAAA31"/>
<stop offset="1" stop-color="#F57E16"/>
</radialGradient>
<linearGradient id="paint16_linear_1815_145868" x1="10.7523" y1="2.64391" x2="10.7523" y2="17.8946" gradientUnits="userSpaceOnUse">
<stop offset="0.0226" stop-color="#FD9A18"/>
<stop offset="0.3764" stop-color="#FEC752"/>
<stop offset="1" stop-color="#FFA422"/>
</linearGradient>
<linearGradient id="paint17_linear_1815_145868" x1="10.7523" y1="1.6457" x2="10.7523" y2="18.8418" gradientUnits="userSpaceOnUse">
<stop stop-color="#FFDB69"/>
<stop offset="0.1799" stop-color="#FEE7B0"/>
<stop offset="0.24" stop-color="#FEE9BA"/>
<stop offset="0.2592" stop-color="#FDECD0"/>
<stop offset="0.2953" stop-color="#FEDA92"/>
<stop offset="0.3254" stop-color="#FFCD64"/>
<stop offset="0.3405" stop-color="#FFC853"/>
<stop offset="0.7613" stop-color="#FF9114"/>
<stop offset="1" stop-color="#F57E16"/>
</linearGradient>
</defs>
</svg>
