<svg width="28" height="28" viewBox="0 0 28 28" fill="none" xmlns="http://www.w3.org/2000/svg">
<path d="M4.66667 21H3.5V22.1667H4.66667V21Z" fill="black"/>
<path d="M5.83366 22.1667H4.66699V23.3334H5.83366V22.1667Z" fill="black"/>
<path d="M6.99967 23.3333H5.83301V24.5H6.99967V23.3333Z" fill="black"/>
<path d="M5.83366 4.66669H4.66699V5.83335H5.83366V4.66669Z" fill="black"/>
<path d="M3.49967 18.6667H2.33301V21H3.49967V18.6667Z" fill="black"/>
<path d="M4.66667 5.83331H3.5V6.99998H4.66667V5.83331Z" fill="black"/>
<path d="M9.33333 24.5H7V25.6667H9.33333V24.5Z" fill="black"/>
<path d="M2.33366 9.33331H1.16699V18.6666H2.33366V9.33331Z" fill="black"/>
<path d="M18.6663 1.16669H9.33301V2.33335H18.6663V1.16669Z" fill="black"/>
<path d="M3.49967 7H2.33301V9.33333H3.49967V7Z" fill="black"/>
<path d="M18.6663 25.6667H9.33301V26.8334H18.6663V25.6667Z" fill="black"/>
<path d="M21.0003 24.5H18.667V25.6667H21.0003V24.5Z" fill="black"/>
<path d="M21.0003 2.33331H18.667V3.49998H21.0003V2.33331Z" fill="black"/>
<path d="M6.99967 3.5H5.83301V4.66667H6.99967V3.5Z" fill="black"/>
<path d="M9.33333 2.33331H7V3.49998H9.33333V2.33331Z" fill="black"/>
<path d="M22.1667 3.5H21V4.66667H22.1667V3.5Z" fill="black"/>
<path d="M22.1667 23.3333H21V24.5H22.1667V23.3333Z" fill="black"/>
<path d="M23.3337 4.66669H22.167V5.83335H23.3337V4.66669Z" fill="black"/>
<path d="M23.3337 22.1667H22.167V23.3334H23.3337V22.1667Z" fill="black"/>
<path d="M25.6667 18.6667H24.5V21H25.6667V18.6667Z" fill="black"/>
<path d="M24.4997 5.83331H23.333V6.99998H24.4997V5.83331Z" fill="black"/>
<path d="M25.6667 7H24.5V9.33333H25.6667V7Z" fill="black"/>
<path d="M24.4997 21H23.333V22.1667H24.4997V21Z" fill="black"/>
<path d="M26.8337 9.33331H25.667V18.6666H26.8337V9.33331Z" fill="black"/>
<path d="M17.5 22.1667H10.5V23.3334H17.5V22.1667Z" fill="black"/>
<path d="M25.6667 9.33333V18.6667H24.5V21H23.3333V22.1667H22.1667V23.3333H21V24.5H18.6667V25.6667H9.33333V24.5H7V23.3333H9.33333V22.1667H10.5V23.3333H17.5V22.1667H19.8333V21H21V19.8333H22.1667V17.5H23.3333V10.5H22.1667V9.33333H23.3333V7H24.5V9.33333H25.6667Z" fill="#CBA600"/>
<path d="M23.3337 10.5H22.167V17.5H23.3337V10.5Z" fill="black"/>
<path d="M23.333 5.83331V9.33331H22.1663V8.16665H20.9997V6.99998H19.833V5.83331H17.4997V4.66665H10.4997V5.83331H8.16634V6.99998H6.99967V8.16665H5.83301V10.5H4.66634V17.5H5.83301V19.8333H6.99967V21H8.16634V22.1666H9.33301V23.3333H5.83301V22.1666H4.66634V21H3.49967V18.6666H2.33301V9.33331H3.49967V6.99998H4.66634V5.83331H5.83301V4.66665H6.99967V3.49998H9.33301V2.33331H18.6663V3.49998H20.9997V4.66665H22.1663V5.83331H23.333Z" fill="#FFD100"/>
<path d="M22.1667 17.5H21V19.8333H22.1667V17.5Z" fill="black"/>
<path d="M22.1667 8.16669H21V10.5H22.1667V8.16669Z" fill="black"/>
<path d="M20.9997 19.8333H19.833V21H20.9997V19.8333Z" fill="black"/>
<path d="M20.9997 7H19.833V8.16667H20.9997V7Z" fill="black"/>
<path d="M19.8333 5.83331H17.5V6.99998H19.8333V5.83331Z" fill="black"/>
<path d="M19.8333 21H17.5V22.1667H19.8333V21Z" fill="black"/>
<path d="M17.5 4.66669H10.5V5.83335H17.5V4.66669Z" fill="black"/>
<path d="M16.3333 14V16.3333H14V15.1667H15.1667V14H16.3333Z" fill="#CB7419"/>
<path d="M16.3337 11.6667H15.167V12.8334H16.3337V11.6667Z" fill="#CB7419"/>
<path d="M15.167 11.6667H11.667V12.8334H15.167V11.6667Z" fill="#FFA33E"/>
<path d="M22.167 10.5V17.5H21.0003V19.8333H19.8337V21H17.5003V22.1667H10.5003V21H8.16699V19.8333H10.5003V18.6667H12.8337V17.5H14.0003V18.6667H15.167V17.5H16.3337V16.3333H17.5003V14H16.3337V12.8333H17.5003V11.6667H16.3337V10.5H17.5003V8.16667H18.667V7H19.8337V8.16667H21.0003V10.5H22.167Z" fill="#CB7419"/>
<path d="M15.167 14V15.1667H14.0003V16.3333H11.667V14H15.167Z" fill="#FFA33E"/>
<path d="M10.5003 5.83331H8.16699V6.99998H10.5003V5.83331Z" fill="black"/>
<path d="M10.5003 21H8.16699V22.1667H10.5003V21Z" fill="black"/>
<path d="M8.16667 19.8333H7V21H8.16667V19.8333Z" fill="black"/>
<path d="M8.16667 7H7V8.16667H8.16667V7Z" fill="black"/>
<path d="M6.99967 17.5H5.83301V19.8333H6.99967V17.5Z" fill="black"/>
<path d="M18.6663 6.99998V8.16665H17.4997V10.5H16.4997V11.5H17.9997V13H16.4997V14H17.9997V16.5H16.4997V17.5L15.7043 17.5V18.6666H13.9997V17.5L12.9997 17.5V18.6666H10.4997V19.8333H6.99967V17.5H5.83301V10.5H6.99967V8.16665H8.16634V6.99998H10.4997V5.83331H17.4997V6.99998H18.6663Z" fill="#FFAA4D"/>
<path d="M6.99967 8.16669H5.83301V10.5H6.99967V8.16669Z" fill="black"/>
<path d="M5.83366 10.5H4.66699V17.5H5.83366V10.5Z" fill="black"/>
</svg>
