<svg width="20" height="20" viewBox="0 0 20 20" fill="none" xmlns="http://www.w3.org/2000/svg">
<rect x="2" y="17" width="3" height="1" fill="black"/>
<rect x="8" y="17" width="3" height="1" fill="black"/>
<rect x="14" y="17" width="3" height="1" fill="black"/>
<rect x="12" y="17" width="1" height="1" fill="black"/>
<rect x="6" y="17" width="1" height="1" fill="black"/>
<rect x="5" y="16" width="1" height="1" fill="black"/>
<rect x="2" y="14" width="1" height="1" fill="black"/>
<rect x="4" y="13" width="1" height="1" fill="black"/>
<rect x="2" y="11" width="1" height="1" fill="black"/>
<rect x="2" y="8" width="1" height="1" fill="black"/>
<rect x="7" y="3" width="1" height="1" fill="black"/>
<rect x="11" y="3" width="1" height="1" fill="black"/>
<rect x="15" y="3" width="1" height="1" fill="black"/>
<rect x="15" y="7" width="1" height="1" fill="black"/>
<rect x="16" y="8" width="1" height="1" fill="black"/>
<rect x="16" y="11" width="1" height="1" fill="black"/>
<rect x="14" y="13" width="1" height="1" fill="black"/>
<rect x="13" y="12" width="3" height="1" fill="black"/>
<rect x="17" y="9" width="1" height="2" fill="black"/>
<rect x="16" y="4" width="1" height="3" fill="black"/>
<rect x="8" y="4" width="3" height="1" fill="black"/>
<rect x="12" y="2" width="3" height="1" fill="black"/>
<rect x="3" y="3" width="1" height="1" fill="black"/>
<rect x="4" y="2" width="3" height="1" fill="black"/>
<rect x="2" y="4" width="1" height="3" fill="black"/>
<rect x="1" y="9" width="1" height="2" fill="black"/>
<rect x="3" y="12" width="3" height="1" fill="black"/>
<rect x="1" y="15" width="1" height="2" fill="black"/>
<rect x="3" y="14" width="1" height="2" fill="black"/>
<rect x="7" y="16" width="1" height="1" fill="black"/>
<rect x="11" y="16" width="1" height="1" fill="black"/>
<rect x="13" y="16" width="1" height="1" fill="black"/>
<rect x="15" y="15" width="1" height="1" fill="black"/>
<rect x="15" y="14" width="2" height="1" fill="black"/>
<rect x="17" y="15" width="1" height="2" fill="black"/>
<rect x="3" y="7" width="1" height="1" fill="black"/>
<rect x="8" y="5" width="3" height="5" fill="#C084FC"/>
<rect x="7" y="7" width="1" height="3" fill="#C084FC"/>
<rect x="5" y="13" width="1" height="3" fill="#C084FC"/>
<rect x="13" y="13" width="1" height="3" fill="#C084FC"/>
<rect x="13" y="13" width="1" height="3" fill="#C084FC"/>
<rect x="14" y="14" width="1" height="3" fill="#C084FC"/>
<rect x="12" y="14" width="1" height="3" fill="#C084FC"/>
<rect x="11" y="14" width="1" height="2" fill="#C084FC"/>
<rect x="7" y="14" width="1" height="2" fill="#C084FC"/>
<rect x="2" y="15" width="1" height="2" fill="#C084FC"/>
<rect x="3" y="16" width="1" height="1" fill="#C084FC"/>
<rect x="15" y="16" width="1" height="1" fill="#C084FC"/>
<rect x="8" y="14" width="1" height="1" fill="#C084FC"/>
<rect x="10" y="14" width="1" height="1" fill="#C084FC"/>
<rect x="16" y="15" width="1" height="2" fill="#C084FC"/>
<rect x="4" y="14" width="1" height="3" fill="#C084FC"/>
<rect x="6" y="14" width="1" height="3" fill="#C084FC"/>
<rect x="9" y="14" width="1" height="3" fill="white"/>
<rect x="8" y="15" width="1" height="2" fill="white"/>
<rect x="10" y="15" width="1" height="2" fill="white"/>
<rect x="4" y="6" width="1" height="2" fill="white"/>
<rect x="4" y="3" width="2" height="3" fill="white"/>
<rect x="13" y="3" width="2" height="3" fill="white"/>
<rect x="3" y="4" width="1" height="3" fill="white"/>
<rect x="11" y="4" width="1" height="3" fill="white"/>
<rect x="7" y="4" width="1" height="3" fill="white"/>
<rect x="15" y="4" width="1" height="3" fill="white"/>
<rect x="5" y="6" width="1" height="2" fill="white"/>
<rect x="13" y="6" width="1" height="2" fill="white"/>
<rect x="14" y="6" width="1" height="2" fill="white"/>
<rect x="6" y="3" width="1" height="5" fill="white"/>
<rect x="12" y="3" width="1" height="5" fill="white"/>
<rect x="11" y="7" width="1" height="3" fill="#C084FC"/>
<rect x="12" y="8" width="2" height="2" fill="#C084FC"/>
<rect x="5" y="8" width="2" height="2" fill="#C084FC"/>
<rect x="14" y="8" width="2" height="1" fill="#C084FC"/>
<rect x="3" y="8" width="2" height="1" fill="#C084FC"/>
<rect x="2" y="9" width="3" height="1" fill="#C084FC"/>
<rect x="2" y="10" width="3" height="1" fill="#C084FC"/>
<rect x="6" y="12" width="7" height="2" fill="#C084FC"/>
<rect x="14" y="9" width="3" height="1" fill="#C084FC"/>
<rect x="14" y="10" width="3" height="1" fill="#C084FC"/>
<rect x="3" y="11" width="13" height="1" fill="#C084FC"/>
<rect x="5" y="10" width="9" height="1" fill="#C084FC"/>
<rect x="4" y="10" width="1" height="1" fill="black"/>
<rect x="14" y="10" width="1" height="1" fill="black"/>
<rect x="5" y="9" width="9" height="1" fill="black"/>
<rect x="14" y="4" width="2" height="2" fill="black"/>
<rect x="6" y="4" width="2" height="2" fill="black"/>
</svg>
