<svg width="20" height="20" viewBox="0 0 20 20" fill="none" xmlns="http://www.w3.org/2000/svg">
<path fill-rule="evenodd" clip-rule="evenodd" d="M11.5 2H8.5V3H7.5V5H3.5V6H2.5V8H3.5V9H2.5V11H3.5V12H6.5V13H5.5V14H4.5V16H3.5V15H2.5V17H5.5V16H6.5V17H7.5V16H8.5V15H9.5V14H10.5V15H11.5V16H12.5V17H13.5V16H14.5V17H17.5V15H16.5V16H15.5V14H14.5V13H13.5V12H16.5V11H17.5V9H16.5V8H17.5V6H16.5V5H12.5V3H11.5V2ZM12.5 5V6H13.5V7H14.5V8H12.5V7H11.5V5H12.5ZM7.5 5H8.5V7H7.5V8H5.5V7H6.5V6H7.5V5ZM13.5 11V10H6.5V11H13.5Z" fill="#C084FC"/>
<path fill-rule="evenodd" clip-rule="evenodd" d="M3.5 1V2H2.5V5H7.5V2H6.5V1H3.5ZM5.5 3V4H3.5V3H5.5Z" fill="white"/>
<path d="M9.5 14H10.5V15H11.5V17H8.5V15H9.5V14Z" fill="white"/>
<path fill-rule="evenodd" clip-rule="evenodd" d="M16.5 1H13.5V2H12.5V5H17.5V2H16.5V1ZM14.5 4V3H16.5V4H14.5Z" fill="white"/>
<path d="M7.5 10V11H12.5V10H13.5V9H14.5V8H13.5V7H12.5V6H7.5V7H6.5V8H5.5V9H6.5V10H7.5Z" fill="white"/>
<path d="M3.5 0H6.5V1H3.5V0Z" fill="black"/>
<path d="M2.5 2H3.5V1H2.5V2Z" fill="black"/>
<path d="M2.5 5V2H1.5V5H2.5Z" fill="black"/>
<path d="M2.5 6H3.5V5H2.5V6Z" fill="black"/>
<path d="M2.5 8V6H1.5V8H2.5Z" fill="black"/>
<path d="M2.5 9H3.5V8H2.5V9Z" fill="black"/>
<path d="M2.5 11V9H1.5V11H2.5Z" fill="black"/>
<path d="M3.5 12V11H2.5V12H3.5Z" fill="black"/>
<path d="M4.5 14H5.5V13H6.5V12H3.5V13H4.5V14Z" fill="black"/>
<path d="M2.5 15H3.5V16H4.5V14H2.5V15Z" fill="black"/>
<path d="M2.5 17V15H1.5V17H2.5Z" fill="black"/>
<path d="M5.5 17H2.5V18H5.5V17Z" fill="black"/>
<path d="M6.5 17V16H5.5V17H6.5Z" fill="black"/>
<path d="M7.5 17H6.5V18H7.5V17Z" fill="black"/>
<path d="M8.5 17V16H7.5V17H8.5Z" fill="black"/>
<path d="M11.5 17H8.5V18H11.5V17Z" fill="black"/>
<path d="M12.5 17V16H11.5V17H12.5Z" fill="black"/>
<path d="M13.5 17H12.5V18H13.5V17Z" fill="black"/>
<path d="M14.5 17V16H13.5V17H14.5Z" fill="black"/>
<path d="M17.5 17H14.5V18H17.5V17Z" fill="black"/>
<path d="M17.5 15V17H18.5V15H17.5Z" fill="black"/>
<path d="M15.5 14V16H16.5V15H17.5V14H15.5Z" fill="black"/>
<path d="M16.5 12H13.5V13H14.5V14H15.5V13H16.5V12Z" fill="black"/>
<path d="M17.5 11H16.5V12H17.5V11Z" fill="black"/>
<path d="M17.5 9V11H18.5V9H17.5Z" fill="black"/>
<path d="M17.5 8H16.5V9H17.5V8Z" fill="black"/>
<path d="M17.5 6V8H18.5V6H17.5Z" fill="black"/>
<path d="M17.5 5H16.5V6H17.5V5Z" fill="black"/>
<path d="M17.5 2V5H18.5V2H17.5Z" fill="black"/>
<path d="M16.5 1V2H17.5V1H16.5Z" fill="black"/>
<path d="M13.5 1H16.5V0H13.5V1Z" fill="black"/>
<path d="M12.5 2H13.5V1H12.5V2Z" fill="black"/>
<path d="M11.5 2V3H12.5V2H11.5Z" fill="black"/>
<path d="M8.5 2H11.5V1H8.5V2Z" fill="black"/>
<path d="M7.5 2V3H8.5V2H7.5Z" fill="black"/>
<path d="M7.5 2V1H6.5V2H7.5Z" fill="black"/>
<path d="M6.5 3H3.5V4H6.5V3Z" fill="black"/>
<path d="M16.5 4H13.5V3H16.5V4Z" fill="black"/>
<path d="M7.5 5H12.5V6H7.5V5Z" fill="black"/>
<path d="M6.5 7H7.5V6H6.5V7Z" fill="black"/>
<path d="M5.5 8H6.5V7H5.5V8Z" fill="black"/>
<path d="M5.5 9V8H4.5V9H5.5Z" fill="black"/>
<path d="M6.5 10V9H5.5V10H6.5Z" fill="black"/>
<path d="M7.5 11V10H6.5V11H7.5Z" fill="black"/>
<path d="M8.5 12V11H7.5V12H8.5Z" fill="black"/>
<path d="M11.5 12H8.5V13H11.5V12Z" fill="black"/>
<path d="M12.5 11H11.5V12H12.5V11Z" fill="black"/>
<path d="M13.5 10H12.5V11H13.5V10Z" fill="black"/>
<path d="M14.5 9H13.5V10H14.5V9Z" fill="black"/>
<path d="M14.5 8V9H15.5V8H14.5Z" fill="black"/>
<path d="M13.5 7V8H14.5V7H13.5Z" fill="black"/>
<path d="M13.5 7V6H12.5V7H13.5Z" fill="black"/>
<path fill-rule="evenodd" clip-rule="evenodd" d="M12.5 10H7.5V11H8.5V12H11.5V11H12.5V10Z" fill="#A03A3A"/>
</svg>
