<svg width="20" height="20" viewBox="0 0 20 20" fill="none" xmlns="http://www.w3.org/2000/svg">
<rect x="2.5" y="17" width="3" height="1" fill="black"/>
<rect x="8.5" y="17" width="3" height="1" fill="black"/>
<rect x="14.5" y="17" width="3" height="1" fill="black"/>
<rect x="12.5" y="17" width="1" height="1" fill="black"/>
<rect x="6.5" y="17" width="1" height="1" fill="black"/>
<rect x="5.5" y="16" width="1" height="1" fill="black"/>
<rect x="2.5" y="14" width="1" height="1" fill="black"/>
<rect x="4.5" y="13" width="1" height="1" fill="black"/>
<rect x="2.5" y="11" width="1" height="1" fill="black"/>
<rect x="2.5" y="8" width="1" height="1" fill="black"/>
<rect x="16.5" y="8" width="1" height="1" fill="black"/>
<rect x="16.5" y="11" width="1" height="1" fill="black"/>
<rect x="14.5" y="13" width="1" height="1" fill="black"/>
<rect x="13.5" y="12" width="3" height="1" fill="black"/>
<rect x="17.5" y="9" width="1" height="2" fill="black"/>
<rect x="8.5" y="1" width="3" height="1" fill="black"/>
<rect x="11.5" y="2" width="1" height="1" fill="black"/>
<rect x="7.5" y="2" width="1" height="1" fill="black"/>
<rect x="1.5" y="9" width="1" height="2" fill="black"/>
<rect x="3.5" y="12" width="3" height="1" fill="black"/>
<rect x="1.5" y="15" width="1" height="2" fill="black"/>
<rect x="3.5" y="14" width="1" height="2" fill="black"/>
<rect x="7.5" y="16" width="1" height="1" fill="black"/>
<rect x="11.5" y="16" width="1" height="1" fill="black"/>
<rect x="13.5" y="16" width="1" height="1" fill="black"/>
<rect x="15.5" y="15" width="1" height="1" fill="black"/>
<rect x="15.5" y="14" width="2" height="1" fill="black"/>
<rect x="17.5" y="15" width="1" height="2" fill="black"/>
<rect x="8.5" y="5" width="3" height="5" fill="#C084FC"/>
<rect x="7.5" y="7" width="1" height="3" fill="#C084FC"/>
<rect x="5.5" y="13" width="1" height="3" fill="#C084FC"/>
<rect x="13.5" y="13" width="1" height="3" fill="#C084FC"/>
<rect x="13.5" y="13" width="1" height="3" fill="#C084FC"/>
<rect x="14.5" y="14" width="1" height="3" fill="#C084FC"/>
<rect x="12.5" y="14" width="1" height="3" fill="#C084FC"/>
<rect x="11.5" y="14" width="1" height="2" fill="#C084FC"/>
<rect x="7.5" y="14" width="1" height="2" fill="#C084FC"/>
<rect x="2.5" y="15" width="1" height="2" fill="#C084FC"/>
<rect x="3.5" y="16" width="1" height="1" fill="#C084FC"/>
<rect x="15.5" y="16" width="1" height="1" fill="#C084FC"/>
<rect x="8.5" y="14" width="1" height="1" fill="#C084FC"/>
<rect x="10.5" y="14" width="1" height="1" fill="#C084FC"/>
<rect x="16.5" y="15" width="1" height="2" fill="#C084FC"/>
<rect x="4.5" y="14" width="1" height="3" fill="#C084FC"/>
<rect x="6.5" y="14" width="1" height="3" fill="#C084FC"/>
<rect x="9.5" y="14" width="1" height="3" fill="white"/>
<rect x="8.5" y="15" width="1" height="2" fill="white"/>
<rect x="10.5" y="15" width="1" height="2" fill="white"/>
<rect x="6.5" y="1" width="1" height="1" fill="black"/>
<rect x="2.5" y="1" width="1" height="1" fill="black"/>
<rect x="3.5" width="3" height="1" fill="black"/>
<rect x="1.5" y="2" width="1" height="3" fill="black"/>
<rect x="2.5" y="5" width="1" height="1" fill="black"/>
<rect x="3.5" y="4" width="1" height="1" fill="white"/>
<rect x="3.5" y="1" width="2" height="1" fill="white"/>
<rect x="3.5" y="2" width="2" height="1" fill="white"/>
<rect x="2.5" y="2" width="1" height="3" fill="white"/>
<rect x="6.5" y="2" width="1" height="3" fill="white"/>
<rect x="4.5" y="4" width="1" height="1" fill="white"/>
<rect x="5.5" y="1" width="1" height="4" fill="white"/>
<rect x="3.5" y="3" width="3" height="1" fill="black"/>
<rect x="16.5" y="5" width="1" height="1" fill="black"/>
<rect x="17.5" y="6" width="1" height="1" fill="black"/>
<rect x="1.5" y="6" width="1" height="1" fill="black"/>
<rect x="17.5" y="7" width="1" height="1" fill="black"/>
<rect x="1.5" y="7" width="1" height="1" fill="black"/>
<rect x="12.5" y="1" width="1" height="1" fill="black"/>
<rect x="16.5" y="1" width="1" height="1" fill="black"/>
<rect x="17.5" y="2" width="1" height="3" fill="black"/>
<rect x="13.5" width="3" height="1" fill="black"/>
<rect x="14.5" y="1" width="2" height="2" fill="white"/>
<rect x="12.5" y="2" width="1" height="3" fill="white"/>
<rect x="16.5" y="2" width="1" height="3" fill="white"/>
<rect x="14.5" y="4" width="1" height="1" fill="white"/>
<rect x="15.5" y="4" width="1" height="1" fill="white"/>
<rect x="13.5" y="1" width="1" height="4" fill="white"/>
<rect width="3" height="1" transform="matrix(1 0 0 -1 13.5 4)" fill="black"/>
<rect x="11.5" y="7" width="1" height="3" fill="#C084FC"/>
<rect x="12.5" y="8" width="2" height="2" fill="#C084FC"/>
<rect x="5.5" y="8" width="2" height="2" fill="#C084FC"/>
<rect x="14.5" y="8" width="2" height="1" fill="#C084FC"/>
<rect x="3.5" y="8" width="2" height="1" fill="#C084FC"/>
<rect x="2.5" y="7" width="3" height="1" fill="#C084FC"/>
<rect x="14.5" y="7" width="3" height="1" fill="#C084FC"/>
<rect x="7.5" y="4" width="5" height="1" fill="#C084FC"/>
<rect x="7.5" y="3" width="5" height="1" fill="#C084FC"/>
<rect x="8.5" y="2" width="3" height="1" fill="#C084FC"/>
<rect x="2.5" y="6" width="4" height="1" fill="#C084FC"/>
<rect x="13.5" y="6" width="4" height="1" fill="#C084FC"/>
<rect x="3.5" y="5" width="4" height="1" fill="#C084FC"/>
<rect x="12.5" y="5" width="4" height="1" fill="#C084FC"/>
<rect x="2.5" y="9" width="3" height="1" fill="#C084FC"/>
<rect x="2.5" y="10" width="4" height="1" fill="#C084FC"/>
<rect x="6.5" y="12" width="7" height="2" fill="#C084FC"/>
<rect x="14.5" y="9" width="3" height="1" fill="#C084FC"/>
<rect x="13.5" y="10" width="4" height="1" fill="#C084FC"/>
<rect x="3.5" y="11" width="13" height="1" fill="#C084FC"/>
<rect x="7.5" y="5" width="5" height="1" fill="black"/>
<rect x="8.5" y="12" width="3" height="1" fill="black"/>
<rect x="8.5" y="11" width="3" height="1" fill="#A03A3A"/>
<rect x="7.5" y="10" width="5" height="1" fill="white"/>
<rect x="6.5" y="9" width="7" height="1" fill="white"/>
<rect x="5.5" y="8" width="9" height="1" fill="white"/>
<rect x="6.5" y="7" width="7" height="1" fill="white"/>
<rect x="7.5" y="6" width="5" height="1" fill="white"/>
<rect x="4.5" y="8" width="1" height="1" fill="black"/>
<rect x="14.5" y="8" width="1" height="1" fill="black"/>
<rect x="13.5" y="7" width="1" height="1" fill="black"/>
<rect x="5.5" y="7" width="1" height="1" fill="black"/>
<rect x="6.5" y="6" width="1" height="1" fill="black"/>
<rect x="12.5" y="6" width="1" height="1" fill="black"/>
<rect x="11.5" y="11" width="1" height="1" fill="black"/>
<rect x="7.5" y="11" width="1" height="1" fill="black"/>
<rect x="6.5" y="10" width="1" height="1" fill="black"/>
<rect x="5.5" y="9" width="1" height="1" fill="black"/>
<rect x="12.5" y="10" width="1" height="1" fill="black"/>
<rect x="13.5" y="9" width="1" height="1" fill="black"/>
<rect x="7.5" y="10" width="5" height="1" fill="#A03A3A"/>
</svg>
