<svg width="40" height="41" viewBox="0 0 40 41" fill="none" xmlns="http://www.w3.org/2000/svg">
<path fill-rule="evenodd" clip-rule="evenodd" d="M9.14258 4.21448V6.21448H7.14258V12.2145H9.14258V14.2145H15.1426V12.2145H17.1426V6.21448H15.1426V4.21448H9.14258ZM9.14258 6.21448H13.1426V10.2145H9.14258V6.21448Z" fill="white"/>
<path d="M19.1426 26.2145H21.1426V28.2145H23.1426V32.2145H17.1426V28.2145H19.1426V26.2145Z" fill="white"/>
<path d="M31.1426 4.21448V6.21448H27.1426V10.2145H31.1426V6.21448H33.1426V12.2145H31.1426V14.2145H25.1426V12.2145H23.1426V6.21448H25.1426V4.21448H31.1426Z" fill="white"/>
<path fill-rule="evenodd" clip-rule="evenodd" d="M23.1416 8.21423H17.1416V12.2142H15.1416V14.2142H7.1416V16.2142H5.1416V20.2142H7.1416V22.2142H13.1416V24.2142H11.1416V26.2142H9.1416V30.2142H7.1416V28.2142H5.1416V32.2142H11.1416V30.2142H13.1416V32.2142H15.1416V30.2142H17.1416V28.2142H19.1416V26.2142H21.1416V28.2142H23.1416V30.2142H25.1416V32.2142H27.1416V30.2142H29.1416V32.2142H35.1416V28.2142H33.1416V30.2142H31.1416V26.2142H29.1416V24.2142H27.1416V22.2142H33.1416V20.2142H35.1416V16.2142H33.1416V14.2142H25.1416V12.2142H23.1416V8.21423Z" fill="#C084FC"/>
<path d="M5.14355 32.2142H11.1436V34.2142H5.14355V32.2142Z" fill="black"/>
<path d="M17.1436 32.2142H23.1436V34.2142H17.1436V32.2142Z" fill="black"/>
<path d="M29.1436 32.2142H35.1436V34.2142H29.1436V32.2142Z" fill="black"/>
<path d="M25.1436 32.2142H27.1436V34.2142H25.1436V32.2142Z" fill="black"/>
<path d="M13.1436 32.2142H15.1436V34.2142H13.1436V32.2142Z" fill="black"/>
<path d="M11.1436 30.2142H13.1436V32.2142H11.1436V30.2142Z" fill="black"/>
<path d="M5.14355 26.2142H7.14355V28.2142H5.14355V26.2142Z" fill="black"/>
<path d="M9.14355 24.2142H11.1436V26.2142H9.14355V24.2142Z" fill="black"/>
<path d="M5.14355 20.2142H7.14355V22.2142H5.14355V20.2142Z" fill="black"/>
<path d="M5.14355 14.2142H7.14355V16.2142H5.14355V14.2142Z" fill="black"/>
<path d="M15.1436 4.21423H17.1436V6.21423H15.1436V4.21423Z" fill="black"/>
<path d="M23.1436 4.21423H25.1436V6.21423H23.1436V4.21423Z" fill="black"/>
<path d="M31.1436 4.21423H33.1436V6.21423H31.1436V4.21423Z" fill="black"/>
<path d="M31.1436 12.2142H33.1436V14.2142H31.1436V12.2142Z" fill="black"/>
<path d="M33.1436 14.2142H35.1436V16.2142H33.1436V14.2142Z" fill="black"/>
<path d="M33.1436 20.2142H35.1436V22.2142H33.1436V20.2142Z" fill="black"/>
<path d="M29.1436 24.2142H31.1436V26.2142H29.1436V24.2142Z" fill="black"/>
<path d="M27.1436 22.2142H33.1436V24.2142H27.1436V22.2142Z" fill="black"/>
<path d="M35.1436 16.2142H37.1436V20.2142H35.1436V16.2142Z" fill="black"/>
<path d="M33.1436 6.21423H35.1436V12.2142H33.1436V6.21423Z" fill="black"/>
<path d="M17.1436 6.21423H23.1436V8.21423H17.1436V6.21423Z" fill="black"/>
<path d="M25.1436 2.21423H31.1436V4.21423H25.1436V2.21423Z" fill="black"/>
<path d="M7.14355 4.21423H9.14355V6.21423H7.14355V4.21423Z" fill="black"/>
<path d="M9.14355 2.21423H15.1436V4.21423H9.14355V2.21423Z" fill="black"/>
<path d="M5.14355 6.21423H7.14355V12.2142H5.14355V6.21423Z" fill="black"/>
<path d="M3.14355 16.2142H5.14355V20.2142H3.14355V16.2142Z" fill="black"/>
<path d="M7.14355 22.2142H13.1436V24.2142H7.14355V22.2142Z" fill="black"/>
<path d="M3.14355 28.2142H5.14355V32.2142H3.14355V28.2142Z" fill="black"/>
<path d="M7.14355 26.2142H9.14355V30.2142H7.14355V26.2142Z" fill="black"/>
<path d="M15.1436 30.2142H17.1436V32.2142H15.1436V30.2142Z" fill="black"/>
<path d="M23.1436 30.2142H25.1436V32.2142H23.1436V30.2142Z" fill="black"/>
<path d="M27.1436 30.2142H29.1436V32.2142H27.1436V30.2142Z" fill="black"/>
<path d="M31.1436 28.2142H33.1436V30.2142H31.1436V28.2142Z" fill="black"/>
<path d="M31.1436 26.2142H35.1436V28.2142H31.1436V26.2142Z" fill="black"/>
<path d="M35.1436 28.2142H37.1436V32.2142H35.1436V28.2142Z" fill="black"/>
<path d="M7.14355 12.2142H9.14355V14.2142H7.14355V12.2142Z" fill="black"/>
<path d="M12.001 16.5H14.001V18.5H12.001V16.5Z" fill="black"/>
<path d="M26.001 16.5H28.001V18.5H26.001V16.5Z" fill="black"/>
<path d="M14.001 18.5H26.001V20.5H14.001V18.5Z" fill="black"/>
<path d="M9.14355 6.21423H13.1436V10.2142H9.14355V6.21423Z" fill="black"/>
<path d="M27.1436 6.21423H31.1436V10.2142H27.1436V6.21423Z" fill="black"/>
<path d="M13.9045 35.4523H13.1426V36.2142H13.9045V35.4523Z" fill="black"/>
<path d="M14.6662 36.2144H13.9043V36.9763H14.6662V36.2144Z" fill="black"/>
<path d="M15.4279 36.9761H14.666V37.738H15.4279V36.9761Z" fill="black"/>
<path d="M14.6662 24.7856H13.9043V25.5475H14.6662V24.7856Z" fill="black"/>
<path d="M13.1428 33.9285H12.3809V35.4523H13.1428V33.9285Z" fill="black"/>
<path d="M13.9045 25.5477H13.1426V26.3096H13.9045V25.5477Z" fill="black"/>
<path d="M16.9515 37.7382H15.4277V38.5001H16.9515V37.7382Z" fill="black"/>
<path d="M12.381 27.8333H11.6191V33.9285H12.381V27.8333Z" fill="black"/>
<path d="M23.0464 22.5001H16.9512V23.262H23.0464V22.5001Z" fill="black"/>
<path d="M13.1428 26.3094H12.3809V27.8333H13.1428V26.3094Z" fill="black"/>
<path d="M23.0464 38.4999H16.9512V39.2618H23.0464V38.4999Z" fill="black"/>
<path d="M24.5717 37.7382H23.0479V38.5001H24.5717V37.7382Z" fill="black"/>
<path d="M24.5717 23.2618H23.0479V24.0237H24.5717V23.2618Z" fill="black"/>
<path d="M15.4279 24.0239H14.666V24.7858H15.4279V24.0239Z" fill="black"/>
<path d="M16.9515 23.2618H15.4277V24.0237H16.9515V23.2618Z" fill="black"/>
<path d="M25.3332 24.0239H24.5713V24.7858H25.3332V24.0239Z" fill="black"/>
<path d="M25.3332 36.9761H24.5713V37.738H25.3332V36.9761Z" fill="black"/>
<path d="M26.0949 24.7856H25.333V25.5475H26.0949V24.7856Z" fill="black"/>
<path d="M26.0949 36.2144H25.333V36.9763H26.0949V36.2144Z" fill="black"/>
<path d="M27.6183 33.9285H26.8564V35.4523H27.6183V33.9285Z" fill="black"/>
<path d="M26.8566 25.5477H26.0947V26.3096H26.8566V25.5477Z" fill="black"/>
<path d="M27.6183 26.3094H26.8564V27.8333H27.6183V26.3094Z" fill="black"/>
<path d="M26.8566 35.4523H26.0947V36.2142H26.8566V35.4523Z" fill="black"/>
<path d="M28.3801 27.8333H27.6182V33.9285H28.3801V27.8333Z" fill="black"/>
<path d="M22.2843 36.2144H17.7129V36.9763H22.2843V36.2144Z" fill="black"/>
<path d="M27.6182 27.8333V33.9285H26.8563V35.4523H26.0944V36.2142H25.3325V36.9761H24.5706V37.738H23.0468V38.4999H16.9515V37.738H15.4277V36.9761H16.9515V36.2142H17.7134V36.9761H22.2849V36.2142H23.8087V35.4523H24.5706V34.6904H25.3325V33.1666H26.0944V28.5952H25.3325V27.8333H26.0944V26.3094H26.8563V27.8333H27.6182Z" fill="#CBA600"/>
<path d="M26.0949 28.5953H25.333V33.1668H26.0949V28.5953Z" fill="black"/>
<path d="M26.0951 25.5476V27.8333H25.3332V27.0714H24.5713V26.3095H23.8094V25.5476H22.2856V24.7857H17.7142V25.5476H16.1904V26.3095H15.4285V27.0714H14.6666V28.5952H13.9047V33.1666H14.6666V34.6904H15.4285V35.4523H16.1904V36.2142H16.9523V36.9761H14.6666V36.2142H13.9047V35.4523H13.1428V33.9285H12.3809V27.8333H13.1428V26.3095H13.9047V25.5476H14.6666V24.7857H15.4285V24.0237H16.9523V23.2618H23.0475V24.0237H24.5713V24.7857H25.3332V25.5476H26.0951Z" fill="#FFD100"/>
<path d="M25.3332 33.1667H24.5713V34.6906H25.3332V33.1667Z" fill="black"/>
<path d="M25.3332 27.0715H24.5713V28.5953H25.3332V27.0715Z" fill="black"/>
<path d="M24.5715 34.6906H23.8096V35.4525H24.5715V34.6906Z" fill="black"/>
<path d="M24.5715 26.3094H23.8096V27.0714H24.5715V26.3094Z" fill="black"/>
<path d="M23.8099 25.5477H22.2861V26.3096H23.8099V25.5477Z" fill="black"/>
<path d="M23.8099 35.4523H22.2861V36.2142H23.8099V35.4523Z" fill="black"/>
<path d="M22.2843 24.7856H17.7129V25.5475H22.2843V24.7856Z" fill="black"/>
<path d="M21.5248 30.8809V32.4047H20.001V31.6428H20.7629V30.8809H21.5248Z" fill="#CB7419"/>
<path d="M21.5246 29.3571H20.7627V30.119H21.5246V29.3571Z" fill="#CB7419"/>
<path d="M20.7633 29.3571H18.4775V30.119H20.7633V29.3571Z" fill="#FFA33E"/>
<path d="M25.3323 28.5952V33.1666H24.5704V34.6904H23.8085V35.4523H22.2847V36.2142H17.7133V35.4523H16.1895V34.6904H17.7133V33.9285H19.2371V33.1666H19.999V33.9285H20.7609V33.1666H21.5228V32.4047H22.2847V30.8809H21.5228V30.119H22.2847V29.3571H21.5228V28.5952H22.2847V27.0714H23.0466V26.3094H23.8085V27.0714H24.5704V28.5952H25.3323Z" fill="#CB7419"/>
<path d="M20.7633 30.8809V31.6428H20.0013V32.4047H18.4775V30.8809H20.7633Z" fill="#FFA33E"/>
<path d="M17.7133 25.5477H16.1895V26.3096H17.7133V25.5477Z" fill="black"/>
<path d="M17.7133 35.4523H16.1895V36.2142H17.7133V35.4523Z" fill="black"/>
<path d="M16.1896 34.6906H15.4277V35.4525H16.1896V34.6906Z" fill="black"/>
<path d="M16.1896 26.3094H15.4277V27.0714H16.1896V26.3094Z" fill="black"/>
<path d="M15.4279 33.1667H14.666V34.6906H15.4279V33.1667Z" fill="black"/>
<path d="M23.047 26.3096V27.0715H22.2851V28.5953H21.632V29.2484H22.6116V30.228H21.632V30.8811H22.6116V32.5137H21.632V33.1668L21.1126 33.1668V33.9287H19.9994V33.1668L19.3463 33.1668V33.9287H17.7136V34.6906H15.4279V33.1668H14.666V28.5953H15.4279V27.0715H16.1898V26.3096H17.7136V25.5477H22.2851V26.3096H23.047Z" fill="#FFAA4D"/>
<path d="M15.4279 27.0715H14.666V28.5953H15.4279V27.0715Z" fill="black"/>
<path d="M14.6662 28.5953H13.9043V33.1668H14.6662V28.5953Z" fill="black"/>
<path d="M5.71582 11.6617V8.80457H18.0968V12.6141H17.1444V13.5665H16.192V14.5189H15.2396V15.4712H14.2872H8.57296H7.62058V14.5189V13.5665H6.6682V12.6141V11.6617H5.71582Z" fill="#2C3232"/>
<rect x="4.76074" y="8.80457" width="0.952381" height="3.80952" fill="#222625"/>
<rect x="3.80859" y="8.80457" width="0.952381" height="0.952381" fill="#222625"/>
<rect x="5.71582" y="11.6617" width="0.952381" height="1.90476" fill="#222625"/>
<rect x="5.71582" y="12.6143" width="0.952381" height="1.90476" fill="#222625"/>
<rect x="6.66797" y="13.5664" width="0.952381" height="1.90476" fill="#222625"/>
<rect x="7.62012" y="15.4714" width="0.952381" height="0.952382" fill="#222625"/>
<rect width="5.71429" height="0.952382" transform="matrix(1 0 0 -1 8.57227 16.4236)" fill="#222625"/>
<rect x="10.4766" y="13.5664" width="0.952381" height="0.952382" fill="white"/>
<rect x="13.333" y="13.5664" width="0.95238" height="0.952382" fill="white"/>
<rect x="11.4287" y="12.6143" width="0.952382" height="0.95238" fill="white"/>
<rect x="14.2852" y="12.6143" width="0.952382" height="0.95238" fill="white"/>
<rect x="12.3809" y="11.6617" width="0.95238" height="0.952382" fill="white"/>
<rect x="15.2373" y="11.6617" width="0.95238" height="0.952382" fill="white"/>
<rect x="13.333" y="10.7092" width="0.95238" height="0.952381" fill="white"/>
<rect x="16.1895" y="10.7092" width="0.952382" height="0.952381" fill="white"/>
<rect x="2.85645" y="6.8999" width="1.90476" height="1.90476" fill="#222625"/>
<path d="M21.9053 11.6617V8.80457H34.2862V12.6141H33.3338V13.5665H32.3815V14.5189H31.4291V15.4712H30.4767H24.7624H23.81V14.5189V13.5665H22.8577V12.6141V11.6617H21.9053Z" fill="#2C3232"/>
<rect x="20.9531" y="8.80457" width="0.95238" height="3.80952" fill="#222625"/>
<rect x="20.001" y="8.80457" width="0.952382" height="0.952381" fill="#222625"/>
<rect x="21.9053" y="11.6617" width="0.952382" height="1.90476" fill="#222625"/>
<rect x="21.9053" y="12.6143" width="0.952382" height="1.90476" fill="#222625"/>
<rect x="22.8574" y="13.5664" width="0.952382" height="1.90476" fill="#222625"/>
<rect x="23.8125" y="15.4714" width="0.95238" height="0.95238" fill="#222625"/>
<rect width="5.71429" height="0.95238" transform="matrix(1 0 0 -1 24.7646 16.4236)" fill="#222625"/>
<rect x="26.6689" y="13.5664" width="0.95238" height="0.95238" fill="white"/>
<rect x="29.5254" y="13.5664" width="0.95238" height="0.95238" fill="white"/>
<rect x="27.6211" y="12.6143" width="0.95238" height="0.95238" fill="white"/>
<rect x="30.4775" y="12.6143" width="0.95238" height="0.95238" fill="white"/>
<rect x="28.5732" y="11.6617" width="0.95238" height="0.95238" fill="white"/>
<rect x="31.4297" y="11.6617" width="0.95238" height="0.95238" fill="white"/>
<rect x="29.5254" y="10.7092" width="0.95238" height="0.952381" fill="white"/>
<rect x="32.3818" y="10.7092" width="0.952383" height="0.952381" fill="white"/>
<rect x="19.0488" y="6.8999" width="1.90476" height="1.90476" fill="#222625"/>
<rect x="4.76074" y="6.8999" width="31.4286" height="1.90476" fill="#222625"/>
</svg>
