<svg width="20" height="20" viewBox="0 0 20 20" fill="none" xmlns="http://www.w3.org/2000/svg">
<path fill-rule="evenodd" clip-rule="evenodd" d="M4 3V4H3V7H4V8H7V7H8V4H7V3H4ZM4 4H6V6H4V4Z" fill="white"/>
<path d="M9 14H10V15H11V17H8V15H9V14Z" fill="white"/>
<path d="M15 3V4H13V6H15V4H16V7H15V8H12V7H11V4H12V3H15Z" fill="white"/>
<path fill-rule="evenodd" clip-rule="evenodd" d="M11 5H8V7H7V8H3V9H2V11H3V12H6V13H5V14H4V16H3V15H2V17H5V16H6V17H7V16H8V15H9V14H10V15H11V16H12V17H13V16H14V17H17V15H16V16H15V14H14V13H13V12H16V11H17V9H16V8H12V7H11V5Z" fill="#C084FC"/>
<path d="M2 17H5V18H2V17Z" fill="black"/>
<path d="M8 17H11V18H8V17Z" fill="black"/>
<path d="M14 17H17V18H14V17Z" fill="black"/>
<path d="M12 17H13V18H12V17Z" fill="black"/>
<path d="M6 17H7V18H6V17Z" fill="black"/>
<path d="M5 16H6V17H5V16Z" fill="black"/>
<path d="M2 14H3V15H2V14Z" fill="black"/>
<path d="M4 13H5V14H4V13Z" fill="black"/>
<path d="M2 11H3V12H2V11Z" fill="black"/>
<path d="M2 8H3V9H2V8Z" fill="black"/>
<path d="M7 3H8V4H7V3Z" fill="black"/>
<path d="M11 3H12V4H11V3Z" fill="black"/>
<path d="M15 3H16V4H15V3Z" fill="black"/>
<path d="M15 7H16V8H15V7Z" fill="black"/>
<path d="M16 8H17V9H16V8Z" fill="black"/>
<path d="M16 11H17V12H16V11Z" fill="black"/>
<path d="M14 13H15V14H14V13Z" fill="black"/>
<path d="M13 12H16V13H13V12Z" fill="black"/>
<path d="M17 9H18V11H17V9Z" fill="black"/>
<path d="M16 4H17V7H16V4Z" fill="black"/>
<path d="M8 4H11V5H8V4Z" fill="black"/>
<path d="M12 2H15V3H12V2Z" fill="black"/>
<path d="M3 3H4V4H3V3Z" fill="black"/>
<path d="M4 2H7V3H4V2Z" fill="black"/>
<path d="M2 4H3V7H2V4Z" fill="black"/>
<path d="M1 9H2V11H1V9Z" fill="black"/>
<path d="M3 12H6V13H3V12Z" fill="black"/>
<path d="M1 15H2V17H1V15Z" fill="black"/>
<path d="M3 14H4V16H3V14Z" fill="black"/>
<path d="M7 16H8V17H7V16Z" fill="black"/>
<path d="M11 16H12V17H11V16Z" fill="black"/>
<path d="M13 16H14V17H13V16Z" fill="black"/>
<path d="M15 15H16V16H15V15Z" fill="black"/>
<path d="M15 14H17V15H15V14Z" fill="black"/>
<path d="M17 15H18V17H17V15Z" fill="black"/>
<path d="M3 7H4V8H3V7Z" fill="black"/>
<path d="M5 9H6V10H5V9Z" fill="black"/>
<path d="M13 9H14V10H13V9Z" fill="black"/>
<path d="M6 10H13V11H6V10Z" fill="black"/>
<path d="M4 4H6V6H4V4Z" fill="black"/>
<path d="M13 4H15V6H13V4Z" fill="black"/>
</svg>
