<svg width="20" height="20" viewBox="0 0 20 20" fill="none" xmlns="http://www.w3.org/2000/svg">
<path fill-rule="evenodd" clip-rule="evenodd" d="M4.57129 1.85712V2.85712H3.57129V5.85712H4.57129V6.85712H7.57129V5.85712H8.57129V2.85712H7.57129V1.85712H4.57129ZM4.57129 2.85712H6.57129V4.85712H4.57129V2.85712Z" fill="white"/>
<path d="M9.57129 12.8571H10.5713V13.8571H11.5713V15.8571H8.57129V13.8571H9.57129V12.8571Z" fill="white"/>
<path d="M15.5713 1.85712V2.85712H13.5713V4.85712H15.5713V2.85712H16.5713V5.85712H15.5713V6.85712H12.5713V5.85712H11.5713V2.85712H12.5713V1.85712H15.5713Z" fill="white"/>
<path fill-rule="evenodd" clip-rule="evenodd" d="M11.5713 3.85712H8.57129V5.85712H7.57129V6.85712H3.57129V7.85712H2.57129V9.85712H3.57129V10.8571H6.57129V11.8571H5.57129V12.8571H4.57129V14.8571H3.57129V13.8571H2.57129V15.8571H5.57129V14.8571H6.57129V15.8571H7.57129V14.8571H8.57129V13.8571H9.57129V12.8571H10.5713V13.8571H11.5713V14.8571H12.5713V15.8571H13.5713V14.8571H14.5713V15.8571H17.5713V13.8571H16.5713V14.8571H15.5713V12.8571H14.5713V11.8571H13.5713V10.8571H16.5713V9.85712H17.5713V7.85712H16.5713V6.85712H12.5713V5.85712H11.5713V3.85712Z" fill="#C084FC"/>
<path d="M2.57129 15.8571H5.57129V16.8571H2.57129V15.8571Z" fill="black"/>
<path d="M8.57129 15.8571H11.5713V16.8571H8.57129V15.8571Z" fill="black"/>
<path d="M14.5713 15.8571H17.5713V16.8571H14.5713V15.8571Z" fill="black"/>
<path d="M12.5713 15.8571H13.5713V16.8571H12.5713V15.8571Z" fill="black"/>
<path d="M6.57129 15.8571H7.57129V16.8571H6.57129V15.8571Z" fill="black"/>
<path d="M5.57129 14.8571H6.57129V15.8571H5.57129V14.8571Z" fill="black"/>
<path d="M2.57129 12.8571H3.57129V13.8571H2.57129V12.8571Z" fill="black"/>
<path d="M4.57129 11.8571H5.57129V12.8571H4.57129V11.8571Z" fill="black"/>
<path d="M2.57129 9.85712H3.57129V10.8571H2.57129V9.85712Z" fill="black"/>
<path d="M2.57129 6.85712H3.57129V7.85712H2.57129V6.85712Z" fill="black"/>
<path d="M7.57129 1.85712H8.57129V2.85712H7.57129V1.85712Z" fill="black"/>
<path d="M11.5713 1.85712H12.5713V2.85712H11.5713V1.85712Z" fill="black"/>
<path d="M15.5713 1.85712H16.5713V2.85712H15.5713V1.85712Z" fill="black"/>
<path d="M15.5713 5.85712H16.5713V6.85712H15.5713V5.85712Z" fill="black"/>
<path d="M16.5713 6.85712H17.5713V7.85712H16.5713V6.85712Z" fill="black"/>
<path d="M16.5713 9.85712H17.5713V10.8571H16.5713V9.85712Z" fill="black"/>
<path d="M14.5713 11.8571H15.5713V12.8571H14.5713V11.8571Z" fill="black"/>
<path d="M13.5713 10.8571H16.5713V11.8571H13.5713V10.8571Z" fill="black"/>
<path d="M17.5713 7.85712H18.5713V9.85712H17.5713V7.85712Z" fill="black"/>
<path d="M16.5713 2.85712H17.5713V5.85712H16.5713V2.85712Z" fill="black"/>
<path d="M8.57129 2.85712H11.5713V3.85712H8.57129V2.85712Z" fill="black"/>
<path d="M12.5713 0.857117H15.5713V1.85712H12.5713V0.857117Z" fill="black"/>
<path d="M3.57129 1.85712H4.57129V2.85712H3.57129V1.85712Z" fill="black"/>
<path d="M4.57129 0.857117H7.57129V1.85712H4.57129V0.857117Z" fill="black"/>
<path d="M2.57129 2.85712H3.57129V5.85712H2.57129V2.85712Z" fill="black"/>
<path d="M1.57129 7.85712H2.57129V9.85712H1.57129V7.85712Z" fill="black"/>
<path d="M3.57129 10.8571H6.57129V11.8571H3.57129V10.8571Z" fill="black"/>
<path d="M1.57129 13.8571H2.57129V15.8571H1.57129V13.8571Z" fill="black"/>
<path d="M3.57129 12.8571H4.57129V14.8571H3.57129V12.8571Z" fill="black"/>
<path d="M7.57129 14.8571H8.57129V15.8571H7.57129V14.8571Z" fill="black"/>
<path d="M11.5713 14.8571H12.5713V15.8571H11.5713V14.8571Z" fill="black"/>
<path d="M13.5713 14.8571H14.5713V15.8571H13.5713V14.8571Z" fill="black"/>
<path d="M15.5713 13.8571H16.5713V14.8571H15.5713V13.8571Z" fill="black"/>
<path d="M15.5713 12.8571H17.5713V13.8571H15.5713V12.8571Z" fill="black"/>
<path d="M17.5713 13.8571H18.5713V15.8571H17.5713V13.8571Z" fill="black"/>
<path d="M3.57129 5.85712H4.57129V6.85712H3.57129V5.85712Z" fill="black"/>
<path d="M6 8H7V9H6V8Z" fill="black"/>
<path d="M13 8H14V9H13V8Z" fill="black"/>
<path d="M7 9H13V10H7V9Z" fill="black"/>
<path d="M4.57129 2.85712H6.57129V4.85712H4.57129V2.85712Z" fill="black"/>
<path d="M13.5713 2.85712H15.5713V4.85712H13.5713V2.85712Z" fill="black"/>
<path d="M6.95224 17.4762H6.57129V17.8571H6.95224V17.4762Z" fill="black"/>
<path d="M7.33359 17.8571H6.95264V18.2381H7.33359V17.8571Z" fill="black"/>
<path d="M7.71445 18.2381H7.3335V18.6191H7.71445V18.2381Z" fill="black"/>
<path d="M7.33359 12.1429H6.95264V12.5238H7.33359V12.1429Z" fill="black"/>
<path d="M6.57138 16.7143H6.19043V17.4762H6.57138V16.7143Z" fill="black"/>
<path d="M6.95224 12.5238H6.57129V12.9048H6.95224V12.5238Z" fill="black"/>
<path d="M8.47626 18.6191H7.71436V19H8.47626V18.6191Z" fill="black"/>
<path d="M6.19052 13.6667H5.80957V16.7143H6.19052V13.6667Z" fill="black"/>
<path d="M11.5237 11H8.47607V11.381H11.5237V11Z" fill="black"/>
<path d="M6.57138 12.9048H6.19043V13.6667H6.57138V12.9048Z" fill="black"/>
<path d="M11.5237 19H8.47607V19.381H11.5237V19Z" fill="black"/>
<path d="M12.2858 18.6191H11.5239V19H12.2858V18.6191Z" fill="black"/>
<path d="M12.2858 11.381H11.5239V11.7619H12.2858V11.381Z" fill="black"/>
<path d="M7.71445 11.7619H7.3335V12.1429H7.71445V11.7619Z" fill="black"/>
<path d="M8.47626 11.381H7.71436V11.7619H8.47626V11.381Z" fill="black"/>
<path d="M12.6666 11.7619H12.2856V12.1429H12.6666V11.7619Z" fill="black"/>
<path d="M12.6666 18.2381H12.2856V18.6191H12.6666V18.2381Z" fill="black"/>
<path d="M13.0475 12.1429H12.6665V12.5238H13.0475V12.1429Z" fill="black"/>
<path d="M13.0475 17.8571H12.6665V18.2381H13.0475V17.8571Z" fill="black"/>
<path d="M13.8097 16.7143H13.4287V17.4762H13.8097V16.7143Z" fill="black"/>
<path d="M13.4288 12.5238H13.0479V12.9048H13.4288V12.5238Z" fill="black"/>
<path d="M13.8097 12.9048H13.4287V13.6667H13.8097V12.9048Z" fill="black"/>
<path d="M13.4288 17.4762H13.0479V17.8571H13.4288V17.4762Z" fill="black"/>
<path d="M14.1905 13.6667H13.8096V16.7143H14.1905V13.6667Z" fill="black"/>
<path d="M11.1431 17.8571H8.85742V18.2381H11.1431V17.8571Z" fill="black"/>
<path d="M13.8096 13.6667V16.7143H13.4286V17.4762H13.0477V17.8572H12.6667V18.2381H12.2858V18.6191H11.5239V19H8.47626V18.6191H7.71436V18.2381H8.47626V17.8572H8.85721V18.2381H11.1429V17.8572H11.9048V17.4762H12.2858V17.0953H12.6667V16.3334H13.0477V14.0476H12.6667V13.6667H13.0477V12.9048H13.4286V13.6667H13.8096Z" fill="#CBA600"/>
<path d="M13.0475 14.0476H12.6665V16.3333H13.0475V14.0476Z" fill="black"/>
<path d="M13.0476 12.5238V13.6667H12.6666V13.2857H12.2857V12.9048H11.9047V12.5238H11.1428V12.1429H8.8571V12.5238H8.09519V12.9048H7.71424V13.2857H7.33329V14.0476H6.95233V16.3334H7.33329V17.0953H7.71424V17.4762H8.09519V17.8572H8.47614V18.2381H7.33329V17.8572H6.95233V17.4762H6.57138V16.7143H6.19043V13.6667H6.57138V12.9048H6.95233V12.5238H7.33329V12.1429H7.71424V11.7619H8.47614V11.381H11.5238V11.7619H12.2857V12.1429H12.6666V12.5238H13.0476Z" fill="#FFD100"/>
<path d="M12.6666 16.3333H12.2856V17.0952H12.6666V16.3333Z" fill="black"/>
<path d="M12.6666 13.2857H12.2856V14.0476H12.6666V13.2857Z" fill="black"/>
<path d="M12.2857 17.0953H11.9048V17.4762H12.2857V17.0953Z" fill="black"/>
<path d="M12.2857 12.9048H11.9048V13.2857H12.2857V12.9048Z" fill="black"/>
<path d="M11.905 12.5238H11.1431V12.9048H11.905V12.5238Z" fill="black"/>
<path d="M11.905 17.4762H11.1431V17.8571H11.905V17.4762Z" fill="black"/>
<path d="M11.1431 12.1429H8.85742V12.5238H11.1431V12.1429Z" fill="black"/>
<path d="M10.7619 15.1905V15.9524H10V15.5714H10.381V15.1905H10.7619Z" fill="#CB7419"/>
<path d="M10.7618 14.4286H10.3809V14.8095H10.7618V14.4286Z" fill="#CB7419"/>
<path d="M10.3811 14.4286H9.23828V14.8095H10.3811V14.4286Z" fill="#FFA33E"/>
<path d="M12.6666 14.0476V16.3334H12.2857V17.0953H11.9047V17.4762H11.1428V17.8572H8.85712V17.4762H8.09521V17.0953H8.85712V16.7143H9.61902V16.3334H9.99998V16.7143H10.3809V16.3334H10.7619V15.9524H11.1428V15.1905H10.7619V14.8095H11.1428V14.4286H10.7619V14.0476H11.1428V13.2857H11.5238V12.9048H11.9047V13.2857H12.2857V14.0476H12.6666Z" fill="#CB7419"/>
<path d="M10.3811 15.1905V15.5714H10.0002V15.9524H9.23828V15.1905H10.3811Z" fill="#FFA33E"/>
<path d="M8.85712 12.5238H8.09521V12.9048H8.85712V12.5238Z" fill="black"/>
<path d="M8.85712 17.4762H8.09521V17.8571H8.85712V17.4762Z" fill="black"/>
<path d="M8.09531 17.0953H7.71436V17.4762H8.09531V17.0953Z" fill="black"/>
<path d="M8.09531 12.9048H7.71436V13.2857H8.09531V12.9048Z" fill="black"/>
<path d="M7.71445 16.3333H7.3335V17.0952H7.71445V16.3333Z" fill="black"/>
<path d="M11.524 12.9048V13.2857H11.143V14.0476H10.8165V14.3742H11.3063V14.8639H10.8165V15.1905H11.3063V16.0068H10.8165V16.3333L10.5568 16.3333V16.7143H10.0002V16.3333L9.67364 16.3333V16.7143H8.85731V17.0952H7.71445V16.3333H7.3335V14.0476H7.71445V13.2857H8.0954V12.9048H8.85731V12.5238H11.143V12.9048H11.524Z" fill="#FFAA4D"/>
<path d="M7.71445 13.2857H7.3335V14.0476H7.71445V13.2857Z" fill="black"/>
<path d="M7.33359 14.0476H6.95264V16.3333H7.33359V14.0476Z" fill="black"/>
<path d="M2.85742 5.58098V4.1524H9.0479V6.05717H8.57171V6.53336H8.09552V7.00955H7.61933V7.48574H7.14314H4.28599H3.8098V7.00955V6.53336H3.33361V6.05717V5.58098H2.85742Z" fill="#2C3232"/>
<rect x="2.38086" y="4.1524" width="0.476191" height="1.90476" fill="#222625"/>
<rect x="1.90479" y="4.1524" width="0.476191" height="0.476191" fill="#222625"/>
<rect x="2.85742" y="5.58093" width="0.476191" height="0.952381" fill="#222625"/>
<rect x="2.85742" y="6.05713" width="0.476191" height="0.952381" fill="#222625"/>
<rect x="3.3335" y="6.53333" width="0.476191" height="0.952381" fill="#222625"/>
<rect x="3.80957" y="7.48572" width="0.476191" height="0.476191" fill="#222625"/>
<rect width="2.85714" height="0.476191" transform="matrix(1 0 0 -1 4.28564 7.96191)" fill="#222625"/>
<rect x="5.23828" y="6.53333" width="0.476191" height="0.476191" fill="white"/>
<rect x="6.66699" y="6.53333" width="0.476191" height="0.476191" fill="white"/>
<rect x="5.71436" y="6.05713" width="0.476191" height="0.476191" fill="white"/>
<rect x="7.14307" y="6.05713" width="0.476191" height="0.476191" fill="white"/>
<rect x="6.19043" y="5.58093" width="0.476191" height="0.476191" fill="white"/>
<rect x="7.61914" y="5.58093" width="0.476191" height="0.476191" fill="white"/>
<rect x="6.66699" y="5.1048" width="0.476191" height="0.476191" fill="white"/>
<rect x="8.09521" y="5.1048" width="0.476191" height="0.476191" fill="white"/>
<rect x="1.42871" y="3.20001" width="0.952381" height="0.952381" fill="#222625"/>
<path d="M10.9526 5.58098V4.1524H17.1431V6.05717H16.6669V6.53336H16.1907V7.00955H15.7145V7.48574H15.2384H12.3812H11.905V7.00955V6.53336H11.4288V6.05717V5.58098H10.9526Z" fill="#2C3232"/>
<rect x="10.4766" y="4.1524" width="0.476191" height="1.90476" fill="#222625"/>
<rect x="10" y="4.1524" width="0.476191" height="0.476191" fill="#222625"/>
<rect x="10.9526" y="5.58093" width="0.476191" height="0.952381" fill="#222625"/>
<rect x="10.9526" y="6.05719" width="0.476191" height="0.952381" fill="#222625"/>
<rect x="11.4287" y="6.53333" width="0.476191" height="0.952381" fill="#222625"/>
<rect x="11.9048" y="7.48572" width="0.476191" height="0.476191" fill="#222625"/>
<rect width="2.85714" height="0.476191" transform="matrix(1 0 0 -1 12.3809 7.96191)" fill="#222625"/>
<rect x="13.3335" y="6.53333" width="0.476191" height="0.476191" fill="white"/>
<rect x="14.7622" y="6.53333" width="0.476191" height="0.476191" fill="white"/>
<rect x="13.8096" y="6.05719" width="0.476191" height="0.476191" fill="white"/>
<rect x="15.2383" y="6.05719" width="0.476191" height="0.476191" fill="white"/>
<rect x="14.2856" y="5.58093" width="0.476191" height="0.476191" fill="white"/>
<rect x="15.7144" y="5.58093" width="0.476191" height="0.476191" fill="white"/>
<rect x="14.7622" y="5.1048" width="0.476191" height="0.476191" fill="white"/>
<rect x="16.1904" y="5.1048" width="0.476191" height="0.476191" fill="white"/>
<rect x="9.52393" y="3.20001" width="0.952381" height="0.952381" fill="#222625"/>
<rect x="2.38086" y="3.20001" width="15.7143" height="0.952381" fill="#222625"/>
</svg>
