<svg width="32" height="32" viewBox="0 0 32 32" fill="none" xmlns="http://www.w3.org/2000/svg">
<g id="Property 1=instagram">
<path id="bg" d="M16.0084 0.242432C9.42848 0.242432 7.50412 0.24922 7.13006 0.28025C5.77975 0.392492 4.93951 0.605098 4.02412 1.06086C3.31866 1.41116 2.7623 1.81722 2.21321 2.38643C1.21321 3.42449 0.607147 4.70158 0.387753 6.21964C0.281087 6.95661 0.250056 7.10692 0.243753 10.8713C0.241329 12.1261 0.243753 13.7775 0.243753 15.9925C0.243753 22.567 0.251026 24.4895 0.282541 24.8628C0.391632 26.1767 0.597693 27.0034 1.03406 27.9076C1.868 29.6386 3.46072 30.9379 5.33709 31.4228C5.98678 31.5901 6.70436 31.6822 7.62557 31.7258C8.01587 31.7428 11.9941 31.7549 15.9747 31.7549C19.9553 31.7549 23.9359 31.7501 24.3165 31.7307C25.3831 31.6805 26.0025 31.5973 26.6874 31.4204C28.5759 30.9331 30.1395 29.6531 30.9904 27.8979C31.4183 27.0155 31.6353 26.1573 31.7334 24.912C31.7548 24.6405 31.7638 20.3115 31.7638 15.9884C31.7638 11.6645 31.7541 7.34352 31.7327 7.07201C31.6333 5.80655 31.4164 4.95564 30.9747 4.05625C30.6122 3.32001 30.2098 2.77019 29.6256 2.20801C28.5829 1.21213 27.3078 0.606068 25.7882 0.386916C25.052 0.280492 24.9053 0.248977 21.1381 0.242432H16.0084Z" fill="url(#paint0_radial_1020_59123)"/>
<path id="bg_2" d="M16.0084 0.242432C9.42848 0.242432 7.50412 0.24922 7.13006 0.28025C5.77975 0.392492 4.93951 0.605098 4.02412 1.06086C3.31866 1.41116 2.7623 1.81722 2.21321 2.38643C1.21321 3.42449 0.607147 4.70158 0.387753 6.21964C0.281087 6.95661 0.250056 7.10692 0.243753 10.8713C0.241329 12.1261 0.243753 13.7775 0.243753 15.9925C0.243753 22.567 0.251026 24.4895 0.282541 24.8628C0.391632 26.1767 0.597693 27.0034 1.03406 27.9076C1.868 29.6386 3.46072 30.9379 5.33709 31.4228C5.98678 31.5901 6.70436 31.6822 7.62557 31.7258C8.01587 31.7428 11.9941 31.7549 15.9747 31.7549C19.9553 31.7549 23.9359 31.7501 24.3165 31.7307C25.3831 31.6805 26.0025 31.5973 26.6874 31.4204C28.5759 30.9331 30.1395 29.6531 30.9904 27.8979C31.4183 27.0155 31.6353 26.1573 31.7334 24.912C31.7548 24.6405 31.7638 20.3115 31.7638 15.9884C31.7638 11.6645 31.7541 7.34352 31.7327 7.07201C31.6333 5.80655 31.4164 4.95564 30.9747 4.05625C30.6122 3.32001 30.2098 2.77019 29.6256 2.20801C28.5829 1.21213 27.3078 0.606068 25.7882 0.386916C25.052 0.280492 24.9053 0.248977 21.1381 0.242432H16.0084Z" fill="url(#paint1_radial_1020_59123)"/>
<path id="icon" d="M16.0009 4.36365C12.8406 4.36365 12.444 4.37747 11.2028 4.43395C9.96401 4.49068 9.11843 4.6868 8.37856 4.97456C7.61322 5.27177 6.96401 5.66934 6.31722 6.31637C5.66995 6.96316 5.27237 7.61237 4.97419 8.37747C4.68571 9.11759 4.48934 9.96341 4.43359 11.2017C4.37807 12.4429 4.36353 12.8398 4.36353 16C4.36353 19.1603 4.37759 19.5556 4.43383 20.7969C4.4908 22.0356 4.68692 22.8812 4.97443 23.6211C5.27189 24.3864 5.66946 25.0356 6.31649 25.6824C6.96304 26.3297 7.61225 26.7283 8.3771 27.0255C9.11746 27.3132 9.96328 27.5093 11.2018 27.5661C12.443 27.6226 12.8394 27.6364 15.9994 27.6364C19.1599 27.6364 19.5553 27.6226 20.7965 27.5661C22.0353 27.5093 22.8818 27.3132 23.6222 27.0255C24.3873 26.7283 25.0355 26.3297 25.6821 25.6824C26.3293 25.0356 26.7269 24.3864 27.0251 23.6213C27.3112 22.8812 27.5075 22.0354 27.5657 20.7971C27.6215 19.5559 27.636 19.1603 27.636 16C27.636 12.8398 27.6215 12.4432 27.5657 11.202C27.5075 9.96316 27.3112 9.11759 27.0251 8.37771C26.7269 7.61237 26.3293 6.96316 25.6821 6.31637C25.0348 5.6691 24.3875 5.27153 23.6215 4.97456C22.8796 4.6868 22.0336 4.49068 20.7948 4.43395C19.5536 4.37747 19.1584 4.36365 15.9972 4.36365H16.0009ZM14.957 6.46062C15.2668 6.46013 15.6125 6.46062 16.0009 6.46062C19.1078 6.46062 19.476 6.47177 20.7029 6.52753C21.8375 6.57941 22.4532 6.76898 22.8634 6.92825C23.4064 7.13916 23.7936 7.39128 24.2006 7.79856C24.6079 8.20583 24.86 8.59371 25.0714 9.13674C25.2307 9.54644 25.4205 10.1622 25.4721 11.2967C25.5279 12.5234 25.54 12.8919 25.54 15.9973C25.54 19.1028 25.5279 19.4713 25.4721 20.698C25.4202 21.8325 25.2307 22.4483 25.0714 22.858C24.8605 23.401 24.6079 23.7876 24.2006 24.1947C23.7933 24.602 23.4067 24.8541 22.8634 25.065C22.4537 25.225 21.8375 25.4141 20.7029 25.466C19.4763 25.5217 19.1078 25.5338 16.0009 25.5338C12.8937 25.5338 12.5255 25.5217 11.2988 25.466C10.1643 25.4136 9.54849 25.224 9.13807 25.0647C8.59504 24.8538 8.20716 24.6017 7.79989 24.1944C7.39262 23.7872 7.14049 23.4003 6.9291 22.857C6.76983 22.4473 6.58001 21.8315 6.52837 20.697C6.47262 19.4703 6.46146 19.1018 6.46146 15.9944C6.46146 12.887 6.47262 12.5205 6.52837 11.2938C6.58025 10.1593 6.76983 9.54353 6.9291 9.13334C7.14001 8.59031 7.39262 8.20244 7.79989 7.79516C8.20716 7.38789 8.59504 7.13577 9.13807 6.92437C9.54825 6.76437 10.1643 6.57528 11.2988 6.52316C12.3723 6.47468 12.7883 6.46013 14.957 6.45771V6.46062ZM22.2122 8.39274C21.4413 8.39274 20.8159 9.01747 20.8159 9.78862C20.8159 10.5595 21.4413 11.185 22.2122 11.185C22.9832 11.185 23.6086 10.5595 23.6086 9.78862C23.6086 9.01771 22.9832 8.39225 22.2122 8.39225V8.39274ZM16.0009 10.0243C12.7007 10.0243 10.0251 12.6999 10.0251 16C10.0251 19.3001 12.7007 21.9746 16.0009 21.9746C19.301 21.9746 21.9756 19.3001 21.9756 16C21.9756 12.6999 19.301 10.0243 16.0009 10.0243ZM16.0009 12.1212C18.1429 12.1212 19.8796 13.8577 19.8796 16C19.8796 18.1421 18.1429 19.8788 16.0009 19.8788C13.8586 19.8788 12.1221 18.1421 12.1221 16C12.1221 13.8577 13.8586 12.1212 16.0009 12.1212Z" fill="white"/>
</g>
<defs>
<radialGradient id="paint0_radial_1020_59123" cx="0" cy="0" r="1" gradientUnits="userSpaceOnUse" gradientTransform="translate(8.6155 34.182) rotate(-90) scale(31.2312 29.0554)">
<stop stop-color="#FFDD55"/>
<stop offset="0.1" stop-color="#FFDD55"/>
<stop offset="0.5" stop-color="#FF543E"/>
<stop offset="1" stop-color="#C837AB"/>
</radialGradient>
<radialGradient id="paint1_radial_1020_59123" cx="0" cy="0" r="1" gradientUnits="userSpaceOnUse" gradientTransform="translate(-5.03727 2.51254) rotate(78.6776) scale(13.9606 57.5608)">
<stop stop-color="#3771C8"/>
<stop offset="0.128" stop-color="#3771C8"/>
<stop offset="1" stop-color="#6600FF" stop-opacity="0"/>
</radialGradient>
</defs>
</svg>
