<svg width="23" height="23" viewBox="0 0 23 23" fill="none" xmlns="http://www.w3.org/2000/svg">
<g id="Group 48097873">
<rect id="Rectangle 4612" y="1.27777" width="1.27778" height="15.3333" fill="black"/>
<rect id="Rectangle 4614" x="6.38867" y="1.27777" width="1.27778" height="12.7778" fill="black"/>
<rect id="Rectangle 4615" x="15.333" y="1.27777" width="1.27778" height="12.7778" fill="black"/>
<rect id="Rectangle 4616" x="6.38867" width="1.27778" height="5.11111" transform="rotate(90 6.38867 0)" fill="black"/>
<rect id="Rectangle 4617" x="21.7227" width="1.27778" height="5.11111" transform="rotate(90 21.7227 0)" fill="black"/>
<rect id="Rectangle 4613" x="21.7227" y="1.27777" width="1.27778" height="15.3333" fill="black"/>
<rect id="Rectangle 4618" x="14.0557" y="14.0555" width="1.27778" height="1.27778" fill="black"/>
<rect id="Rectangle 4619" x="7.66699" y="14.0555" width="1.27778" height="1.27778" fill="black"/>
<rect id="Rectangle 4625" x="2.55566" y="19.1667" width="1.27778" height="1.27778" fill="black"/>
<rect id="Rectangle 4626" x="19.167" y="19.1667" width="1.27778" height="1.27778" fill="black"/>
<rect id="Rectangle 4627" x="20.4443" y="16.6111" width="1.27778" height="2.55556" fill="black"/>
<rect id="Rectangle 4628" x="1.27734" y="16.6111" width="1.27778" height="2.55556" fill="black"/>
<rect id="Rectangle 4621" x="8.94434" y="15.3333" width="5.11111" height="1.27778" fill="black"/>
<rect id="Rectangle 4623" x="16.6113" y="20.4445" width="2.55556" height="1.27778" fill="black"/>
<rect id="Rectangle 4624" x="3.83301" y="20.4445" width="2.55556" height="1.27778" fill="black"/>
<rect id="Rectangle 4622" x="6.38867" y="21.7222" width="10.2222" height="1.27778" fill="black"/>
<rect id="Rectangle 4629" x="1.27734" y="1.27777" width="5.11111" height="5.11111" fill="white"/>
<rect id="Rectangle 4630" x="16.6113" y="1.27777" width="5.11111" height="5.11111" fill="white"/>
<path id="Union" d="M1.27734 6.38892H6.38845V14.0556H7.66623V15.3334H8.94401V16.6111H14.0551V15.3334H15.3329V14.0556H16.6107V6.38892H21.7218V16.6111H20.444V19.1667H19.1662V20.4445H16.6107V21.7222H6.38845V20.4445H3.8329V19.1667H2.55512V16.6111H1.27734V6.38892Z" fill="#E11D48"/>
<rect id="Rectangle 4631" x="20.4443" y="7.66669" width="1.27778" height="1.27778" fill="#BE123C"/>
<rect id="Rectangle 4648" x="20.4443" y="6.38892" width="1.27778" height="1.27778" fill="#BE123C"/>
<rect id="Rectangle 4632" x="20.4443" y="8.94446" width="1.27778" height="1.27778" fill="#BE123C"/>
<rect id="Rectangle 4633" x="20.4443" y="10.2222" width="1.27778" height="1.27778" fill="#BE123C"/>
<rect id="Rectangle 4634" x="20.4443" y="11.5" width="1.27778" height="1.27778" fill="#BE123C"/>
<rect id="Rectangle 4635" x="20.4443" y="12.7778" width="1.27778" height="1.27778" fill="#BE123C"/>
<rect id="Rectangle 4636" x="20.4443" y="14.0555" width="1.27778" height="1.27778" fill="#BE123C"/>
<rect id="Rectangle 4637" x="20.4443" y="15.3333" width="1.27778" height="1.27778" fill="#BE123C"/>
<rect id="Rectangle 4638" x="19.167" y="15.3333" width="1.27778" height="1.27778" fill="#BE123C"/>
<rect id="Rectangle 4639" x="17.8887" y="16.6111" width="1.27778" height="1.27778" fill="#BE123C"/>
<rect id="Rectangle 4640" x="19.167" y="16.6111" width="1.27778" height="1.27778" fill="#BE123C"/>
<rect id="Rectangle 4641" x="19.167" y="17.8889" width="1.27778" height="1.27778" fill="#BE123C"/>
<rect id="Rectangle 4642" x="17.8887" y="17.8889" width="1.27778" height="1.27778" fill="#BE123C"/>
<rect id="Rectangle 4643" x="17.8887" y="19.1667" width="1.27778" height="1.27778" fill="#BE123C"/>
<rect id="Rectangle 4644" x="16.6113" y="19.1667" width="1.27778" height="1.27778" fill="#BE123C"/>
<rect id="Rectangle 4645" x="15.333" y="19.1667" width="1.27778" height="1.27778" fill="#BE123C"/>
<rect id="Rectangle 4649" x="6.38867" y="20.4445" width="1.27778" height="1.27778" fill="#BE123C"/>
<rect id="Rectangle 4650" x="3.83301" y="19.1667" width="3.83333" height="1.27778" fill="#BE123C"/>
<rect id="Rectangle 4651" x="2.55566" y="17.8889" width="2.55556" height="1.27778" fill="#BE123C"/>
<rect id="Rectangle 4652" x="2.55566" y="16.6111" width="1.27778" height="1.27778" fill="#BE123C"/>
<rect id="Rectangle 4653" x="1.27734" y="6.38892" width="1.27778" height="10.2222" fill="#BE123C"/>
<rect id="Rectangle 4655" x="1.27734" y="1.27777" width="1.27778" height="5.11111" fill="#DEDEDE"/>
<rect id="Rectangle 4656" x="20.4443" y="1.27777" width="1.27778" height="5.11111" fill="#DEDEDE"/>
<rect id="Rectangle 4654" x="2.55566" y="15.3333" width="1.27778" height="1.27778" fill="#BE123C"/>
<rect id="Rectangle 4646" x="15.333" y="20.4445" width="1.27778" height="1.27778" fill="#BE123C"/>
<rect id="Rectangle 4647" x="7.66699" y="20.4445" width="7.66667" height="1.27778" fill="#BE123C"/>
</g>
</svg>
