<svg width="28" height="28" viewBox="0 0 28 28" fill="none" xmlns="http://www.w3.org/2000/svg">
<g id="Group 48097872">
<path id="Vector" d="M12.7276 20.3637L13.3639 21.0001L14.0003 20.3637L14.6367 21.0001L15.273 20.3637L15.9094 21.0001L17.1821 19.7273L16.5458 19.091L17.1821 18.4546L16.5458 17.8182L17.1821 17.1819L16.5458 16.5455L17.1821 15.9091L16.5458 15.2728L17.1821 14.6364L16.5458 14L17.1821 13.3637L16.5458 12.7273L17.1821 12.0909L16.5458 11.4546L17.1821 10.8182L15.273 8.90909L14.6367 9.54546L15.273 10.1818L14.6367 10.8182L15.273 11.4546L14.0003 12.7273L12.7276 11.4546L13.3639 10.8182L12.7276 10.1818L13.3639 9.54546L12.7276 8.90909L10.8185 10.8182L11.4548 11.4546L10.8185 12.0909L11.4548 12.7273L10.8185 13.3637L11.4548 14L10.8185 14.6364L11.4548 15.2728L10.8185 15.9091L11.4548 16.5455L10.8185 17.1819L11.4548 17.8182L10.8185 18.4546L11.4548 19.091L10.8185 19.7273L12.0912 21.0001L12.7276 20.3637ZM12.0912 18.4546L12.7276 17.8182L12.0912 17.1819L13.3639 15.9091L14.0003 16.5455L14.6367 15.9091L15.9094 17.1819L15.273 17.8182L15.9094 18.4546L14.6367 19.7273L14.0003 19.091L13.3639 19.7273L12.0912 18.4546Z" fill="#D0EDF4"/>
<path id="Vector_2" d="M15.2728 8.90907L15.9092 8.27271L15.2728 7.63634L14.6364 8.27271L15.2728 8.90907Z" fill="#FFD100"/>
<path id="Vector_3" d="M12.7271 7.6364L11.4543 6.36366L12.7271 5.09093L12.0907 4.45456L13.9998 2.54546L15.9089 4.45456L15.2725 5.09093L16.5453 6.36366L15.2725 7.6364L14.6362 7.00003L15.2725 6.36366L13.9998 5.09093L12.7271 6.36366L13.3634 7.00003L12.7271 7.6364Z" fill="#FFD100"/>
<path id="Vector_4" d="M12.7269 8.90907L13.3633 8.27271L12.7269 7.63634L12.0905 8.27271L12.7269 8.90907Z" fill="#FFD100"/>
<path id="Vector_5" d="M13.3641 19.7273L12.0913 18.4546L12.7277 17.8182L12.0913 17.1819L13.3641 15.9091L14.0004 16.5455L14.6368 15.9091L15.9095 17.1819L15.2732 17.8182L15.9095 18.4546L14.6368 19.7273L14.0004 19.091L13.3641 19.7273Z" fill="#1A6A8A"/>
<path id="Vector_6" d="M11.4548 10.1818L10.182 8.9091L10.8184 8.27273L10.182 7.63637L10.8184 7L10.182 6.36363L11.4548 5.0909L10.8184 4.45453L14.0002 1.27269L17.1821 4.45453L16.5457 5.0909L17.8184 6.36363L17.1821 7L17.8184 7.63637L17.1821 8.27273L17.8184 8.9091L16.5457 10.1818L15.273 8.9091L15.9093 8.27273L15.273 7.63637L16.5457 6.36363L15.273 5.0909L15.9093 4.45453L14.0002 2.54543L12.0911 4.45453L12.7275 5.0909L11.4548 6.36363L12.7275 7.63637L12.0911 8.27273L12.7275 8.9091L11.4548 10.1818Z" fill="#EF9520"/>
<path id="Vector_7" d="M17.1821 13.3636L16.5458 12.7273L17.1821 12.0909L16.5458 11.4545L17.1821 10.8182L16.5458 10.1818L17.8185 8.90906L17.1821 8.27269L19.0912 6.36359L20.364 7.63632L19.7276 8.27269L20.364 8.90906L19.7276 9.54543L20.364 10.1818L17.1821 13.3636Z" fill="#BC131A"/>
<path id="Vector_8" d="M10.8178 13.3637L7.63598 10.1819L8.27234 9.5455L7.63598 8.90913L8.27234 8.27277L7.63598 7.6364L8.90871 6.36367L10.8178 8.27277L10.1814 8.90914L11.4542 10.1819L10.8178 10.8182L11.4542 11.4546L10.8178 12.091L11.4542 12.7273L10.8178 13.3637Z" fill="#BC131A"/>
<path id="Vector_9" d="M14.0002 12.7273L12.7274 11.4545L13.3638 10.8182L12.7274 10.1818L13.3638 9.54542L12.7274 8.90906L13.3638 8.27269L12.7274 7.63632L13.3638 6.99996L12.7274 6.36359L14.0002 5.09085L15.2729 6.36359L14.6365 6.99996L15.2729 7.63632L14.6365 8.27269L15.2729 8.90906L14.6365 9.54542L15.2729 10.1818L14.6365 10.8182L15.2729 11.4545L14.0002 12.7273Z" fill="#BC131A"/>
<path id="Vector_10" d="M13.9995 26.7274L10.8177 23.5456L11.4541 22.9092L10.8177 22.2728L11.4541 21.6365L10.8177 21.0001L11.4541 20.3637L12.0904 21.0001L12.7268 20.3637L13.3632 21.0001L13.9995 20.3637L14.6359 21.0001L15.2723 20.3637L15.9086 21.0001L16.545 20.3637L17.1814 21.0001L16.545 21.6365L17.1814 22.2728L16.545 22.9092L17.1814 23.5456L13.9995 26.7274Z" fill="#BC131A"/>
<path id="Vector_11" d="M17.182 17.1818L17.8184 16.5455L17.182 15.9091L16.5456 16.5455L17.182 17.1818Z" fill="black"/>
<path id="Vector_12" d="M17.182 18.4546L17.8184 17.8182L17.182 17.1819L16.5456 17.8182L17.182 18.4546Z" fill="black"/>
<path id="Vector_13" d="M10.8177 23.5455L11.4541 22.9092L10.8177 22.2728L10.1814 22.9092L10.8177 23.5455Z" fill="black"/>
<path id="Vector_14" d="M10.8177 22.2728L11.4541 21.6364L10.8177 21L10.1814 21.6364L10.8177 22.2728Z" fill="black"/>
<path id="Vector_15" d="M10.8177 21.0001L11.4541 20.3637L10.8177 19.7273L10.1814 20.3637L10.8177 21.0001Z" fill="black"/>
<path id="Vector_16" d="M10.8177 19.7273L11.4541 19.0909L10.8177 18.4546L10.1814 19.0909L10.8177 19.7273Z" fill="black"/>
<path id="Vector_17" d="M10.8177 18.4546L11.4541 17.8182L10.8177 17.1819L10.1814 17.8182L10.8177 18.4546Z" fill="black"/>
<path id="Vector_18" d="M10.8177 17.1819L11.4541 16.5455L10.8177 15.9092L10.1814 16.5455L10.8177 17.1819Z" fill="black"/>
<path id="Vector_19" d="M10.8177 15.9091L11.4541 15.2728L10.8177 14.6364L10.1814 15.2728L10.8177 15.9091Z" fill="black"/>
<path id="Vector_20" d="M20.3636 8.90907L21 8.27271L20.3636 7.63634L19.7273 8.27271L20.3636 8.90907Z" fill="black"/>
<path id="Vector_21" d="M20.3636 10.1818L21 9.54547L20.3636 8.9091L19.7273 9.54547L20.3636 10.1818Z" fill="black"/>
<path id="Vector_22" d="M20.3636 7.63637L21 7L19.7273 5.72727L19.0909 6.36363L20.3636 7.63637Z" fill="black"/>
<path id="Vector_23" d="M17.8181 7.63632L17.1817 6.99995L17.8181 6.36359L16.5454 5.09085L17.1817 4.45448L19.0908 6.36359L17.8181 7.63632Z" fill="black"/>
<path id="Vector_24" d="M10.8183 4.45454L10.182 3.81818L14.0002 -2.73803e-05L17.8184 3.81818L17.182 4.45454L14.0002 1.27271L10.8183 4.45454Z" fill="black"/>
<path id="Vector_25" d="M17.1818 14.6364L21 10.8182L20.3636 10.1819L16.5454 14.0001L17.1818 14.6364Z" fill="black"/>
<path id="Vector_26" d="M7.63645 7.63638L8.90918 6.36365L8.27281 5.72728L7.00008 7.00001L7.63645 7.63638Z" fill="black"/>
<path id="Vector_27" d="M10.1817 7.6364L8.90898 6.36366L10.8181 4.45456L11.4545 5.09093L10.1817 6.36366L10.8181 7.00003L10.1817 7.6364Z" fill="black"/>
<path id="Vector_28" d="M17.182 15.9091L17.8184 15.2728L17.182 14.6364L16.5456 15.2728L17.182 15.9091Z" fill="black"/>
<path id="Vector_29" d="M7.63609 8.90907L8.27246 8.27271L7.63609 7.63634L6.99973 8.27271L7.63609 8.90907Z" fill="black"/>
<path id="Vector_30" d="M17.182 19.7273L17.8184 19.0909L17.182 18.4546L16.5456 19.0909L17.182 19.7273Z" fill="black"/>
<path id="Vector_31" d="M7.63609 10.1818L8.27246 9.54547L7.63609 8.9091L6.99973 9.54547L7.63609 10.1818Z" fill="black"/>
<path id="Vector_32" d="M17.182 22.2728L17.8184 21.6365L17.182 21.0001L16.5456 21.6365L17.182 22.2728Z" fill="black"/>
<path id="Vector_33" d="M17.182 21.0001L17.8184 20.3637L17.182 19.7273L16.5456 20.3637L17.182 21.0001Z" fill="black"/>
<path id="Vector_34" d="M10.8177 14.6364L11.4541 14L7.6359 10.1818L6.99953 10.8182L10.8177 14.6364Z" fill="black"/>
<path id="Vector_35" d="M17.182 23.5455L17.8184 22.9092L17.182 22.2728L16.5456 22.9092L17.182 23.5455Z" fill="black"/>
<path id="Vector_36" d="M14.0002 28.0001L10.182 24.1819L10.8183 23.5456L14.0002 26.7274L17.182 23.5456L17.8184 24.1819L14.0002 28.0001Z" fill="black"/>
</g>
</svg>
