<svg width="169" height="48" viewBox="0 0 169 48" fill="none" xmlns="http://www.w3.org/2000/svg">
<rect width="12" height="12" transform="translate(0.5)" fill="#1D2734"/>
<rect width="12" height="12" transform="translate(12.5)" fill="#111217"/>
<rect width="12" height="12" transform="translate(24.5)" fill="#111217"/>
<rect width="12" height="12" transform="translate(36.5)" fill="#111217"/>
<rect width="12" height="12" transform="translate(48.5)" fill="#111217"/>
<rect width="12" height="12" transform="translate(60.5)" fill="#111217"/>
<rect width="12" height="12" transform="translate(72.5)" fill="#1D2734"/>
<rect width="12" height="12" transform="translate(84.5)" fill="#111217"/>
<rect width="12" height="12" transform="translate(96.5)" fill="#111217"/>
<rect width="12" height="12" transform="translate(108.5)" fill="#111217"/>
<rect width="12" height="12" transform="translate(120.5)" fill="#1D2734"/>
<rect width="12" height="12" transform="translate(132.5)" fill="#111217"/>
<rect width="12" height="12" transform="translate(144.5)" fill="#1D2734"/>
<rect width="12" height="12" transform="translate(156.5)" fill="#1D2734"/>
<rect width="12" height="12" transform="translate(0.5 12)" fill="#111217"/>
<rect width="12" height="12" transform="translate(12.5 12)" fill="#1D2734"/>
<rect width="12" height="12" transform="translate(24.5 12)" fill="#1D2734"/>
<rect width="12" height="12" transform="translate(36.5 12)" fill="#111217"/>
<rect width="12" height="12" transform="translate(48.5 12)" fill="#1D2734"/>
<rect width="12" height="12" transform="translate(60.5 12)" fill="#111217"/>
<rect width="12" height="12" transform="translate(72.5 12)" fill="#111217"/>
<rect width="12" height="12" transform="translate(84.5 12)" fill="#111217"/>
<rect width="12" height="12" transform="translate(96.5 12)" fill="#1D2734"/>
<rect width="12" height="12" transform="translate(108.5 12)" fill="#111217"/>
<rect width="12" height="12" transform="translate(120.5 12)" fill="#111217"/>
<rect width="12" height="12" transform="translate(132.5 12)" fill="#1D2734"/>
<rect width="12" height="12" transform="translate(144.5 12)" fill="#111217"/>
<rect width="12" height="12" transform="translate(156.5 12)" fill="#111217"/>
<rect width="12" height="12" transform="translate(0.5 24)" fill="#111217"/>
<rect width="12" height="12" transform="translate(12.5 24)" fill="#1D2734"/>
<rect width="12" height="12" transform="translate(24.5 24)" fill="#111217"/>
<rect width="12" height="12" transform="translate(36.5 24)" fill="#111217"/>
<rect width="12" height="12" transform="translate(48.5 24)" fill="#111217"/>
<rect width="12" height="12" transform="translate(60.5 24)" fill="#111217"/>
<rect width="12" height="12" transform="translate(72.5 24)" fill="#111217"/>
<rect width="12" height="12" transform="translate(84.5 24)" fill="#1D2734"/>
<rect width="12" height="12" transform="translate(96.5 24)" fill="#111217"/>
<rect width="12" height="12" transform="translate(108.5 24)" fill="#111217"/>
<rect width="12" height="12" transform="translate(120.5 24)" fill="#1D2734"/>
<rect width="12" height="12" transform="translate(132.5 24)" fill="#111217"/>
<rect width="12" height="12" transform="translate(144.5 24)" fill="#111217"/>
<rect width="12" height="12" transform="translate(156.5 24)" fill="#111217"/>
<rect width="12" height="12" transform="translate(0.5 36)" fill="#111217"/>
<rect width="12" height="12" transform="translate(12.5 36)" fill="#111217"/>
<rect width="12" height="12" transform="translate(24.5 36)" fill="#111217"/>
<rect width="12" height="12" transform="translate(36.5 36)" fill="#1D2734"/>
<rect width="12" height="12" transform="translate(48.5 36)" fill="#111217"/>
<rect width="12" height="12" transform="translate(60.5 36)" fill="#111217"/>
<rect width="12" height="12" transform="translate(72.5 36)" fill="#1D2734"/>
<rect width="12" height="12" transform="translate(84.5 36)" fill="#111217"/>
<rect width="12" height="12" transform="translate(96.5 36)" fill="#111217"/>
<rect width="12" height="12" transform="translate(108.5 36)" fill="#111217"/>
<rect width="12" height="12" transform="translate(120.5 36)" fill="#111217"/>
<rect width="12" height="12" transform="translate(132.5 36)" fill="#111217"/>
<rect width="12" height="12" transform="translate(144.5 36)" fill="#111217"/>
<rect width="12" height="12" transform="translate(156.5 36)" fill="#1D2734"/>
</svg>
