<svg width="32" height="32" viewBox="0 0 32 32" fill="none" xmlns="http://www.w3.org/2000/svg">
<g id="Property 1=Default" clip-path="url(#clip0_1020_59121)">
<path id="BG" fill-rule="evenodd" clip-rule="evenodd" d="M6.8024 0H25.1996C28.9404 0 32.001 3.06054 32.001 6.80142V25.1986C32.001 28.9395 28.9404 32 25.1996 32H6.8024C3.06152 32 0.000976562 28.9395 0.000976562 25.1986V6.80142C0.000976562 3.06054 3.06152 0 6.8024 0Z" fill="black"/>
<path id="@" d="M16.1083 28.0513C13.6715 28.0513 12.5509 27.7509 10.6894 26.7487C9.0765 25.8804 7.68597 24.7181 6.94163 23.05C4.27459 17.0747 5.08483 8.13792 10.7844 5.16793C13.6786 3.66006 18.2695 3.49436 21.2099 4.9892C24.0303 6.42311 25.395 8.66014 26.5238 11.5303L24.2197 12.1886C23.1556 8.32282 20.5916 6.18108 16.43 6.18108C14.7854 6.18108 13.2929 6.3463 12.0387 6.96808C9.03857 8.45462 7.80923 11.9419 7.68834 15.4741C7.60039 18.0409 8.01523 20.6318 9.16065 22.496C10.4708 24.628 13.1933 25.9764 15.7454 25.9764C18.1358 25.9764 20.0592 25.5608 21.5427 24.1693C23.5628 22.2741 23.9838 19.252 21.4088 17.4094C20.6156 24.1788 11.4361 23.7927 11.4361 18.4121C11.4361 17.2949 11.8706 16.3199 12.7394 15.4874C14.4649 13.834 17.061 14.3225 19.2262 14.2898C18.998 13.2679 18.1292 11.7873 16.4615 11.7873C15.1765 11.7873 14.0692 12.1104 13.474 13.1055L11.6802 11.9419C12.44 10.5153 13.9718 9.57847 16.3219 9.57847C18.672 9.57847 20.9726 11.1162 21.354 14.0324L21.4718 14.9329C22.8002 15.4689 23.7565 16.4688 24.4205 17.4762C26.2872 20.309 25.258 23.9427 22.5921 26.2018C21.1376 27.4344 18.9759 28.051 16.1086 28.051L16.1083 28.0513ZM13.5778 18.3666C13.5778 19.475 14.7538 20.304 15.8924 20.304C17.1625 20.304 18.0358 19.9458 18.512 19.2295C18.9882 18.5131 19.2265 17.6502 19.2265 16.6414C17.9218 16.3097 15.6518 16.072 14.4487 16.8682C13.8822 17.2432 13.5781 17.7209 13.5781 18.3666H13.5778Z" fill="white"/>
</g>
<defs>
<clipPath id="clip0_1020_59121">
<rect width="32" height="32" fill="white" transform="translate(0.000976562)"/>
</clipPath>
</defs>
</svg>
