<svg width="513" height="513" viewBox="0 0 513 513" fill="none" xmlns="http://www.w3.org/2000/svg">
<g clip-path="url(#clip0_1275_72738)">
<mask id="mask0_1275_72738" style="mask-type:luminance" maskUnits="userSpaceOnUse" x="0" y="0" width="513" height="513">
<path d="M512.74 0.91748H0.740234V512.917H512.74V0.91748Z" fill="white"/>
</mask>
<g mask="url(#mask0_1275_72738)">
<path d="M463.86 321.73H461.203C459.493 321.73 458.106 320.312 458.106 318.562V310.54C458.106 308.79 459.493 307.372 461.203 307.372H463.177C465.391 307.372 467.166 305.506 467.098 303.243C466.987 299.557 466.871 295.751 466.755 291.854C466.691 289.687 464.953 287.961 462.834 287.961H461.203C459.493 287.961 458.106 286.543 458.106 284.793V276.77C458.106 275.02 459.493 273.602 461.203 273.602H462.174C464.386 273.602 466.161 271.74 466.095 269.479C465.982 265.616 465.869 261.72 465.756 257.814C465.694 255.645 463.957 253.917 461.836 253.917H461.203C459.493 253.917 458.106 252.499 458.106 250.749V242.726C458.106 240.977 459.493 239.558 461.203 239.558C463.414 239.558 465.187 237.69 465.124 235.43C464.984 230.348 464.847 225.327 464.716 220.422H461.203C459.493 220.422 458.106 219.004 458.106 217.254V209.231C458.106 207.482 459.493 206.063 461.203 206.063C462.923 206.063 464.305 204.612 464.261 202.854C464.148 198.366 464.043 194.055 463.948 189.975C463.909 188.277 462.552 186.927 460.892 186.927H459.726C458.015 186.927 456.629 185.509 456.629 183.759V175.737C456.629 173.987 458.015 172.569 459.726 172.569H460.465C462.175 172.569 463.551 171.135 463.522 169.386C463.46 165.755 463.419 162.606 463.4 160.035C463.388 158.5 462.296 157.197 460.811 156.978C447.851 155.067 431.585 139.331 429.076 118.867C428.694 115.749 426.025 113.452 422.953 113.452H87.5801C84.5043 113.452 81.924 115.803 81.5449 118.925C79.0436 139.536 62.8853 154.715 51.0445 156.902C49.4138 157.203 48.1993 158.598 48.1739 160.293C48.1397 162.515 48.0899 165.858 48.0264 170.119C47.9971 172.082 49.5457 173.697 51.4646 173.697L52.6859 173.697C54.3899 173.697 55.7392 175.122 55.6854 176.864L55.4382 184.888C55.3845 186.63 53.9463 188.056 52.2423 188.056H51.1383C49.2672 188.056 47.743 189.584 47.7157 191.497C47.661 195.322 47.6043 199.384 47.5447 203.636C47.5173 205.589 49.0582 207.192 50.9673 207.192H53.1314C54.8354 207.192 56.1847 208.616 56.131 210.358L55.8838 218.384C55.83 220.126 54.3918 221.551 52.6888 221.551H50.6771C48.8051 221.551 47.2799 223.087 47.2545 225.002C47.2018 228.971 47.148 233.026 47.0953 237.138C47.0699 239.09 48.6097 240.687 50.5178 240.687H52.0997C53.8027 240.687 55.1529 242.111 55.0992 243.853L54.852 251.879C54.7983 253.621 53.3601 255.045 51.6571 255.045H50.2502C48.3762 255.045 46.851 256.582 46.8276 258.499C46.7768 262.725 46.7259 266.963 46.6771 271.192C46.6546 273.142 48.1944 274.731 50.1007 274.731H51.0484C52.7524 274.731 54.1036 276.156 54.0499 277.899L53.8027 285.922C53.7489 287.664 52.3098 289.09 50.6058 289.09H49.8662C47.9902 289.09 46.4631 290.637 46.4436 292.555C46.4006 296.761 46.3586 300.907 46.3205 304.968C46.3019 306.914 47.8408 308.5 49.744 308.5H50.0098C51.7138 308.5 53.063 309.925 53.0093 311.666L52.7621 319.692C52.7084 321.434 51.2702 322.858 49.5672 322.858C47.6864 322.858 46.1573 324.416 46.1436 326.339C46.1133 330.692 46.0889 334.847 46.0703 338.76C46.0616 340.699 47.5965 342.269 49.4939 342.269H51.1295C52.8334 342.269 54.1837 343.694 54.13 345.437L53.8828 353.46C53.8662 353.995 53.7098 354.491 53.4676 354.932C62.0313 358.689 75.2703 368.358 77.9415 392.637C78.2864 395.771 80.899 398.132 83.9826 398.132H430.205C433.485 398.132 436.164 395.481 436.285 392.128C436.646 382.101 440.019 362.391 460.253 355.704L460.268 344.309C460.268 342.559 461.655 341.141 463.366 341.141L464.213 341.142C466.428 341.142 468.203 339.268 468.133 337.004C468.027 333.615 467.909 329.795 467.78 325.623C467.713 323.457 465.978 321.73 463.86 321.73Z" fill="url(#paint0_linear_1275_72738)"/>
<path d="M463.86 321.73H461.203C459.493 321.73 458.106 320.312 458.106 318.562V310.54C458.106 308.79 459.493 307.372 461.203 307.372H463.177C465.391 307.372 467.166 305.506 467.098 303.243C466.987 299.557 466.871 295.751 466.755 291.854C466.691 289.687 464.953 287.961 462.834 287.961H461.203C459.493 287.961 458.106 286.543 458.106 284.793V276.77C458.106 275.02 459.493 273.602 461.203 273.602H462.174C464.386 273.602 466.161 271.74 466.095 269.479C465.982 265.616 465.869 261.72 465.756 257.814C465.694 255.645 463.957 253.917 461.836 253.917H461.203C459.493 253.917 458.106 252.499 458.106 250.749V242.726C458.106 240.977 459.493 239.558 461.203 239.558C463.414 239.558 465.187 237.69 465.124 235.43C464.984 230.348 464.847 225.327 464.716 220.422H461.203C459.493 220.422 458.106 219.004 458.106 217.254V209.231C458.106 207.482 459.493 206.063 461.203 206.063C462.923 206.063 464.305 204.612 464.261 202.854C464.148 198.366 464.043 194.055 463.948 189.975C463.909 188.277 462.552 186.927 460.892 186.927H459.726C458.015 186.927 456.629 185.509 456.629 183.759V175.737C456.629 173.987 458.015 172.569 459.726 172.569H460.465C462.175 172.569 463.551 171.135 463.522 169.386C463.46 165.755 463.419 162.606 463.4 160.035C463.388 158.5 462.296 157.197 460.811 156.978C447.851 155.067 431.585 139.331 429.076 118.867C428.694 115.749 426.025 113.452 422.953 113.452H87.5801C84.5043 113.452 81.924 115.803 81.5449 118.925C79.0436 139.536 62.8853 154.715 51.0445 156.902C49.4138 157.203 48.1993 158.598 48.1739 160.293C48.1397 162.515 48.0899 165.858 48.0264 170.119C47.9971 172.082 49.5457 173.697 51.4646 173.697L52.6859 173.697C54.3899 173.697 55.7392 175.122 55.6854 176.864L55.4382 184.888C55.3845 186.63 53.9463 188.056 52.2423 188.056H51.1383C49.2672 188.056 47.743 189.584 47.7157 191.497C47.661 195.322 47.6043 199.384 47.5447 203.636C47.5173 205.589 49.0582 207.192 50.9673 207.192H53.1314C54.8354 207.192 56.1847 208.616 56.131 210.358L55.8838 218.384C55.83 220.126 54.3918 221.551 52.6888 221.551H50.6771C48.8051 221.551 47.2799 223.087 47.2545 225.002C47.2018 228.971 47.148 233.026 47.0953 237.138C47.0699 239.09 48.6097 240.687 50.5178 240.687H52.0997C53.8027 240.687 55.1529 242.111 55.0992 243.853L54.852 251.879C54.7983 253.621 53.3601 255.045 51.6571 255.045H50.2502C48.3762 255.045 46.851 256.582 46.8276 258.499C46.7768 262.725 46.7259 266.963 46.6771 271.192C46.6546 273.142 48.1944 274.731 50.1007 274.731H51.0484C52.7524 274.731 54.1036 276.156 54.0499 277.899L53.8027 285.922C53.7489 287.664 52.3098 289.09 50.6058 289.09H49.8662C47.9902 289.09 46.4631 290.637 46.4436 292.555C46.4006 296.761 46.3586 300.907 46.3205 304.968C46.3019 306.914 47.8408 308.5 49.744 308.5H50.0098C51.7138 308.5 53.063 309.925 53.0093 311.666L52.7621 319.692C52.7084 321.434 51.2702 322.858 49.5672 322.858C47.6864 322.858 46.1573 324.416 46.1436 326.339C46.1133 330.692 46.0889 334.847 46.0703 338.76C46.0616 340.699 47.5965 342.269 49.4939 342.269H51.1295C52.8334 342.269 54.1837 343.694 54.13 345.437L53.8828 353.46C53.8662 353.995 53.7098 354.491 53.4676 354.932C62.0313 358.689 75.2703 368.358 77.9415 392.637C78.2864 395.771 80.899 398.132 83.9826 398.132H430.205C433.485 398.132 436.164 395.481 436.285 392.128C436.646 382.101 440.019 362.391 460.253 355.704L460.268 344.309C460.268 342.559 461.655 341.141 463.366 341.141L464.213 341.142C466.428 341.142 468.203 339.268 468.133 337.004C468.027 333.615 467.909 329.795 467.78 325.623C467.713 323.457 465.978 321.73 463.86 321.73Z" stroke="#BD394E" stroke-width="5.194" stroke-linecap="round" stroke-linejoin="round"/>
<path d="M464.406 321.746H461.732C460.01 321.746 458.614 320.328 458.614 318.578V310.556C458.614 308.806 460.01 307.388 461.732 307.388H463.719C465.947 307.388 467.734 305.522 467.665 303.259C467.553 299.573 467.437 295.767 467.32 291.87C467.255 289.703 465.507 287.977 463.373 287.977H461.732C460.01 287.977 458.614 286.559 458.614 284.809V276.786C458.614 275.036 460.01 273.618 461.732 273.618H462.709C464.935 273.618 466.722 271.756 466.655 269.495C466.542 265.632 466.428 261.736 466.315 257.83C466.252 255.662 464.503 253.934 462.368 253.934H461.732C460.01 253.934 458.614 252.515 458.614 250.766V242.743C458.614 240.993 460.01 239.575 461.732 239.575C463.957 239.575 465.742 237.706 465.679 235.446C465.537 230.364 465.399 225.343 465.268 220.439H461.732C460.01 220.439 458.614 219.02 458.614 217.27V209.247C458.614 207.498 460.01 206.079 461.732 206.079C463.463 206.079 464.854 204.628 464.809 202.87C464.696 198.382 464.59 194.071 464.495 189.992C464.455 188.294 463.089 186.943 461.418 186.943H460.245C458.523 186.943 457.127 185.525 457.127 183.775V175.753C457.127 174.003 458.523 172.585 460.245 172.585H460.988C462.71 172.585 464.095 171.151 464.066 169.402C464.004 165.771 463.963 162.623 463.943 160.051C463.931 158.516 462.831 157.213 461.337 156.994C448.291 155.083 431.918 139.347 429.392 118.883C429.007 115.765 426.32 113.468 423.228 113.468H86.0737C82.9776 113.468 80.3801 115.819 79.9985 118.941C77.4807 139.552 61.2154 154.732 49.2962 156.918C47.6547 157.219 46.4322 158.614 46.4066 160.309C46.3722 162.531 46.322 165.875 46.2581 170.135C46.2286 172.098 47.7875 173.713 49.7191 173.713H50.9485C52.6637 173.713 54.022 175.138 53.9679 176.88L53.719 184.904C53.6649 186.647 52.2172 188.072 50.502 188.072H49.3906C47.5072 188.072 45.9729 189.6 45.9453 191.514C45.8903 195.338 45.8332 199.4 45.7732 203.652C45.7457 205.605 47.2967 207.208 49.2185 207.208H51.397C53.1122 207.208 54.4704 208.632 54.4163 210.374L54.1675 218.4C54.1134 220.142 52.6657 221.567 50.9514 221.567H48.9264C47.042 221.567 45.5067 223.103 45.4811 225.018C45.428 228.987 45.3739 233.042 45.3208 237.154C45.2952 239.106 46.8453 240.703 48.7661 240.703H50.3584C52.0726 240.703 53.4319 242.127 53.3778 243.869L53.1289 251.895C53.0748 253.637 51.6271 255.061 49.9128 255.061H48.4966C46.6102 255.061 45.0749 256.598 45.0513 258.515C45.0002 262.741 44.949 266.979 44.8999 271.208C44.8772 273.158 46.4273 274.747 48.3461 274.747H49.3001C51.0154 274.747 52.3756 276.172 52.3215 277.915L52.0726 285.938C52.0185 287.681 50.5698 289.106 48.8546 289.106H48.1101C46.2217 289.106 44.6845 290.653 44.6648 292.571C44.6215 296.777 44.5792 300.923 44.5409 304.984C44.5222 306.931 46.0712 308.517 47.9871 308.517H48.2546C49.9699 308.517 51.3281 309.941 51.274 311.683L51.0252 319.709C50.9711 321.45 49.5234 322.875 47.8091 322.875C45.9158 322.875 44.3766 324.432 44.3629 326.355C44.3324 330.708 44.3078 334.863 44.2891 338.776C44.2802 340.715 45.8254 342.285 47.7353 342.285H49.3817C51.097 342.285 52.4562 343.711 52.4021 345.453L52.1533 353.476C52.1366 354.011 51.9792 354.507 51.7353 354.949C60.3558 358.705 73.6824 368.374 76.3713 392.653C76.7185 395.787 79.3484 398.149 82.4524 398.149H430.528C433.83 398.149 436.526 395.497 436.648 392.144C437.012 382.118 440.407 362.407 460.775 355.72L460.791 344.325C460.791 342.575 462.186 341.157 463.908 341.157L464.761 341.158C466.991 341.158 468.778 339.284 468.707 337.02C468.601 333.631 468.482 329.811 468.352 325.639C468.285 323.473 466.538 321.746 464.406 321.746Z" fill="url(#paint1_linear_1275_72738)"/>
<path d="M464.406 321.746H461.732C460.01 321.746 458.614 320.328 458.614 318.578V310.556C458.614 308.806 460.01 307.388 461.732 307.388H463.719C465.947 307.388 467.734 305.522 467.665 303.259C467.553 299.573 467.437 295.767 467.32 291.87C467.255 289.703 465.507 287.977 463.373 287.977H461.732C460.01 287.977 458.614 286.559 458.614 284.809V276.786C458.614 275.036 460.01 273.618 461.732 273.618H462.709C464.935 273.618 466.722 271.756 466.655 269.495C466.542 265.632 466.428 261.736 466.315 257.83C466.252 255.662 464.503 253.934 462.368 253.934H461.732C460.01 253.934 458.614 252.515 458.614 250.766V242.743C458.614 240.993 460.01 239.575 461.732 239.575C463.957 239.575 465.742 237.706 465.679 235.446C465.537 230.364 465.399 225.343 465.268 220.439H461.732C460.01 220.439 458.614 219.02 458.614 217.27V209.247C458.614 207.498 460.01 206.079 461.732 206.079C463.463 206.079 464.854 204.628 464.809 202.87C464.696 198.382 464.59 194.071 464.495 189.992C464.455 188.294 463.089 186.943 461.418 186.943H460.245C458.523 186.943 457.127 185.525 457.127 183.775V175.753C457.127 174.003 458.523 172.585 460.245 172.585H460.988C462.71 172.585 464.095 171.151 464.066 169.402C464.004 165.771 463.963 162.623 463.943 160.051C463.931 158.516 462.831 157.213 461.337 156.994C448.291 155.083 431.918 139.347 429.392 118.883C429.007 115.765 426.32 113.468 423.228 113.468H86.0737C82.9776 113.468 80.3801 115.819 79.9985 118.941C77.4807 139.552 61.2154 154.732 49.2962 156.918C47.6547 157.219 46.4322 158.614 46.4066 160.309C46.3722 162.531 46.322 165.875 46.2581 170.135C46.2286 172.098 47.7875 173.713 49.7191 173.713H50.9485C52.6637 173.713 54.022 175.138 53.9679 176.88L53.719 184.904C53.6649 186.647 52.2172 188.072 50.502 188.072H49.3906C47.5072 188.072 45.9729 189.6 45.9453 191.514C45.8903 195.338 45.8332 199.4 45.7732 203.652C45.7457 205.605 47.2967 207.208 49.2185 207.208H51.397C53.1122 207.208 54.4704 208.632 54.4163 210.374L54.1675 218.4C54.1134 220.142 52.6657 221.567 50.9514 221.567H48.9264C47.042 221.567 45.5067 223.103 45.4811 225.018C45.428 228.987 45.3739 233.042 45.3208 237.154C45.2952 239.106 46.8453 240.703 48.7661 240.703H50.3584C52.0726 240.703 53.4319 242.127 53.3778 243.869L53.1289 251.895C53.0748 253.637 51.6271 255.061 49.9128 255.061H48.4966C46.6102 255.061 45.0749 256.598 45.0513 258.515C45.0002 262.741 44.949 266.979 44.8999 271.208C44.8772 273.158 46.4273 274.747 48.3461 274.747H49.3001C51.0154 274.747 52.3756 276.172 52.3215 277.915L52.0726 285.938C52.0185 287.681 50.5698 289.106 48.8546 289.106H48.1101C46.2217 289.106 44.6845 290.653 44.6648 292.571C44.6215 296.777 44.5792 300.923 44.5409 304.984C44.5222 306.931 46.0712 308.517 47.9871 308.517H48.2546C49.9699 308.517 51.3281 309.941 51.274 311.683L51.0252 319.709C50.9711 321.45 49.5234 322.875 47.8091 322.875C45.9158 322.875 44.3766 324.432 44.3629 326.355C44.3324 330.708 44.3078 334.863 44.2891 338.776C44.2802 340.715 45.8254 342.285 47.7353 342.285H49.3817C51.097 342.285 52.4562 343.711 52.4021 345.453L52.1533 353.476C52.1366 354.011 51.9792 354.507 51.7353 354.949C60.3558 358.705 73.6824 368.374 76.3713 392.653C76.7185 395.787 79.3484 398.149 82.4524 398.149H430.528C433.83 398.149 436.526 395.497 436.648 392.144C437.012 382.118 440.407 362.407 460.775 355.72L460.791 344.325C460.791 342.575 462.186 341.157 463.908 341.157L464.761 341.158C466.991 341.158 468.778 339.284 468.707 337.02C468.601 333.631 468.482 329.811 468.352 325.639C468.285 323.473 466.538 321.746 464.406 321.746Z" stroke="#BD394E" stroke-width="5.194" stroke-linecap="round" stroke-linejoin="round"/>
<g opacity="0.2">
<path d="M51.4551 161.757C69.0124 157.682 82.9096 136.964 85.0333 119.581C85.0972 119.055 85.5311 118.658 86.0396 118.658H423.244C423.789 118.658 424.28 119.049 424.34 119.53C426.534 137.297 440.796 158.026 458.872 161.819" stroke="white" stroke-width="6.18514" stroke-linecap="round" stroke-linejoin="round"/>
</g>
<g opacity="0.25">
<path d="M403.362 362.983H109.152C92.7441 362.983 79.4434 349.469 79.4434 332.797V181.562C79.4434 164.89 92.7441 151.375 109.152 151.375H403.362C419.77 151.375 433.071 164.89 433.071 181.562V332.797C433.071 349.469 419.77 362.983 403.362 362.983Z" stroke="white" stroke-width="6.324" stroke-linecap="round" stroke-linejoin="round"/>
<path d="M127.844 151.375V362.983" stroke="white" stroke-width="6.324" stroke-linecap="round" stroke-linejoin="round"/>
<path d="M381.707 151.375V362.983" stroke="white" stroke-width="6.324" stroke-linecap="round" stroke-linejoin="round"/>
</g>
<path d="M401.383 357.793H111.128C94.9575 357.793 81.8477 344.473 81.8477 328.043V179.16C81.8477 162.73 94.9575 149.411 111.128 149.411H401.383C417.554 149.411 430.664 162.73 430.664 179.16V328.043C430.664 344.473 417.554 357.793 401.383 357.793Z" stroke="#BD394E" stroke-width="4.155" stroke-linecap="round" stroke-linejoin="round"/>
<path d="M129.59 149.411V357.793" stroke="#BD394E" stroke-width="4.155" stroke-linecap="round" stroke-linejoin="round"/>
<path d="M379.998 149.411V357.793" stroke="#BD394E" stroke-width="4.155" stroke-linecap="round" stroke-linejoin="round"/>
<g opacity="0.8">
<path d="M160.338 249.333L171.714 176.73H188.145L199.521 249.333H188.304L186.348 236.169H172.601L170.657 249.333H160.338ZM174.059 226.297H184.883L179.456 189.747L174.059 226.297Z" fill="#2D0000"/>
<path d="M204.805 249.333V176.73H222.552C228.201 176.73 232.405 178.258 235.164 181.312C237.922 184.367 239.302 188.831 239.302 194.704V231.41C239.302 237.283 237.922 241.738 235.164 244.776C232.405 247.814 228.201 249.333 222.552 249.333H204.805ZM216.022 238.954H222.352C224.114 238.954 225.509 238.439 226.54 237.409C227.569 236.38 228.085 234.549 228.085 231.917V194.147C228.085 191.515 227.569 189.684 226.54 188.654C225.509 187.624 224.114 187.11 222.352 187.11H216.022V238.954Z" fill="#2D0000"/>
<path d="M246.328 249.333V176.73H261.908L270.212 228.443L277.914 176.73H293.487V249.333H282.869V197.285L275.115 249.333H264.474L256.099 198.118V249.333H246.328Z" fill="#2D0000"/>
<path d="M301.613 249.333V176.73H312.831V249.333H301.613Z" fill="#2D0000"/>
<path d="M317.914 187.11V176.73H352.659V187.11H340.895V249.333H329.678V187.11H317.914Z" fill="#2D0000"/>
<path d="M198.797 316.662V278.892C198.797 273.019 200.265 268.514 203.201 265.374C206.137 262.236 210.361 260.665 215.87 260.665C221.379 260.665 225.592 262.236 228.514 265.374C231.433 268.514 232.894 273.019 232.894 278.892V316.662C232.894 322.534 231.425 327.04 228.489 330.179C225.553 333.318 221.346 334.888 215.87 334.888C210.361 334.888 206.137 333.318 203.201 330.179C200.265 327.04 198.797 322.534 198.797 316.662ZM210.013 317.37C210.013 320.003 210.539 321.859 211.59 322.939C212.642 324.019 214.068 324.56 215.87 324.56C217.638 324.56 219.05 324.019 220.1 322.939C221.152 321.859 221.678 320.003 221.678 317.37V278.184C221.678 275.551 221.152 273.702 220.1 272.639C219.05 271.576 217.638 271.045 215.87 271.045C214.102 271.045 212.683 271.576 211.615 272.639C210.547 273.702 210.013 275.551 210.013 278.184V317.37Z" fill="#2D0000"/>
<path d="M240.074 334.078V261.475H254.132L265.698 304.966V261.475H275.817V334.078H264.152L250.194 281.525V334.078H240.074Z" fill="#2D0000"/>
<path d="M283.74 334.078V261.475H314.348V271.855H294.958V292.106H310.36V302.435H294.958V323.699H314.348V334.078H283.74Z" fill="#2D0000"/>
</g>
<path d="M95.2227 192.443C95.2227 190.473 96.1374 188.909 97.9679 187.752C99.7974 186.595 102.307 186.017 105.492 186.017C108.668 186.017 111.17 186.595 113 187.752C114.83 188.909 115.745 190.473 115.745 192.443C115.745 194.413 114.827 195.978 112.992 197.141C111.158 198.302 108.658 198.885 105.492 198.885C102.326 198.885 99.824 198.302 97.9827 197.141C96.1433 195.978 95.2227 194.413 95.2227 192.443ZM113.532 192.443C113.532 191.239 112.831 190.301 111.428 189.63C110.025 188.959 108.044 188.624 105.485 188.624C102.914 188.624 100.926 188.959 99.5171 189.63C98.1086 190.301 97.4033 191.239 97.4033 192.443C97.4033 193.658 98.1086 194.601 99.5171 195.271C100.926 195.942 102.914 196.277 105.485 196.277C108.044 196.277 110.025 195.942 111.428 195.271C112.831 194.601 113.532 193.658 113.532 192.443Z" fill="#FA8A95"/>
<path d="M95.2227 192.443C95.2227 190.473 96.1374 188.909 97.9679 187.752C99.7974 186.595 102.307 186.017 105.492 186.017C108.668 186.017 111.17 186.595 113 187.752C114.83 188.909 115.745 190.473 115.745 192.443C115.745 194.413 114.827 195.978 112.992 197.141C111.158 198.302 108.658 198.885 105.492 198.885C102.326 198.885 99.824 198.302 97.9827 197.141C96.1433 195.978 95.2227 194.413 95.2227 192.443ZM113.532 192.443C113.532 191.239 112.831 190.301 111.428 189.63C110.025 188.959 108.044 188.624 105.485 188.624C102.914 188.624 100.926 188.959 99.5171 189.63C98.1086 190.301 97.4033 191.239 97.4033 192.443C97.4033 193.658 98.1086 194.601 99.5171 195.271C100.926 195.942 102.914 196.277 105.485 196.277C108.044 196.277 110.025 195.942 111.428 195.271C112.831 194.601 113.532 193.658 113.532 192.443Z" stroke="#FA8A95" stroke-width="2.077" stroke-linecap="round" stroke-linejoin="round"/>
<path d="M112.327 206.712C112.306 206.576 112.289 206.473 112.28 206.405C112.27 206.337 112.265 206.278 112.265 206.225C112.265 205.901 112.354 205.637 112.535 205.432C112.715 205.228 112.955 205.125 113.254 205.125C113.502 205.125 113.717 205.214 113.903 205.392C114.088 205.571 114.228 205.827 114.321 206.162L115.558 210.83C115.588 210.945 115.612 211.056 115.628 211.167C115.643 211.277 115.65 211.389 115.65 211.505C115.65 211.704 115.561 211.86 115.381 211.976C115.2 212.092 114.954 212.15 114.645 212.15H97.9131V214.663C97.9131 215.595 97.8373 216.187 97.6888 216.439C97.5393 216.691 97.258 216.816 96.8459 216.816C96.4751 216.816 96.1967 216.711 96.0108 216.501C95.8249 216.291 95.7324 215.977 95.7324 215.559V206.162C95.7324 205.744 95.8249 205.43 96.0108 205.22C96.1967 205.01 96.4751 204.905 96.8459 204.905C97.258 204.905 97.5393 205.03 97.6888 205.282C97.8373 205.534 97.9131 206.127 97.9131 207.059V209.666H113.022L112.327 206.712Z" fill="#FA8A95"/>
<path d="M112.327 206.712C112.306 206.576 112.289 206.473 112.28 206.405C112.27 206.337 112.265 206.278 112.265 206.225C112.265 205.901 112.354 205.637 112.535 205.432C112.715 205.228 112.955 205.125 113.254 205.125C113.502 205.125 113.717 205.214 113.903 205.392C114.088 205.571 114.228 205.827 114.321 206.162L115.558 210.83C115.588 210.945 115.612 211.056 115.628 211.167C115.643 211.277 115.65 211.389 115.65 211.505C115.65 211.704 115.561 211.86 115.381 211.976C115.2 212.092 114.954 212.15 114.645 212.15H97.9131V214.663C97.9131 215.595 97.8373 216.187 97.6888 216.439C97.5393 216.691 97.258 216.816 96.8459 216.816C96.4751 216.816 96.1967 216.711 96.0108 216.501C95.8249 216.291 95.7324 215.977 95.7324 215.559V206.162C95.7324 205.744 95.8249 205.43 96.0108 205.22C96.1967 205.01 96.4751 204.905 96.8459 204.905C97.258 204.905 97.5393 205.03 97.6888 205.282C97.8373 205.534 97.9131 206.127 97.9131 207.059V209.666H113.022L112.327 206.712Z" stroke="#FA8A95" stroke-width="2.077" stroke-linecap="round" stroke-linejoin="round"/>
<path d="M95.2227 228.49C95.2227 226.521 96.1374 224.957 97.9679 223.799C99.7974 222.642 102.307 222.064 105.492 222.064C108.668 222.064 111.17 222.642 113 223.799C114.83 224.957 115.745 226.521 115.745 228.49C115.745 230.46 114.827 232.025 112.992 233.189C111.158 234.35 108.658 234.932 105.492 234.932C102.326 234.932 99.824 234.35 97.9827 233.189C96.1433 232.025 95.2227 230.46 95.2227 228.49ZM113.532 228.49C113.532 227.286 112.831 226.349 111.428 225.677C110.025 225.007 108.044 224.672 105.485 224.672C102.914 224.672 100.926 225.007 99.5171 225.677C98.1086 226.349 97.4033 227.286 97.4033 228.49C97.4033 229.706 98.1086 230.648 99.5171 231.319C100.926 231.989 102.914 232.324 105.485 232.324C108.044 232.324 110.025 231.989 111.428 231.319C112.831 230.648 113.532 229.706 113.532 228.49Z" fill="#FA8A95"/>
<path d="M95.2227 228.49C95.2227 226.521 96.1374 224.957 97.9679 223.799C99.7974 222.642 102.307 222.064 105.492 222.064C108.668 222.064 111.17 222.642 113 223.799C114.83 224.957 115.745 226.521 115.745 228.49C115.745 230.46 114.827 232.025 112.992 233.189C111.158 234.35 108.658 234.932 105.492 234.932C102.326 234.932 99.824 234.35 97.9827 233.189C96.1433 232.025 95.2227 230.46 95.2227 228.49ZM113.532 228.49C113.532 227.286 112.831 226.349 111.428 225.677C110.025 225.007 108.044 224.672 105.485 224.672C102.914 224.672 100.926 225.007 99.5171 225.677C98.1086 226.349 97.4033 227.286 97.4033 228.49C97.4033 229.706 98.1086 230.648 99.5171 231.319C100.926 231.989 102.914 232.324 105.485 232.324C108.044 232.324 110.025 231.989 111.428 231.319C112.831 230.648 113.532 229.706 113.532 228.49Z" stroke="#FA8A95" stroke-width="2.077" stroke-linecap="round" stroke-linejoin="round"/>
<path d="M96.0413 246.751C95.7934 246.667 95.6341 246.588 95.5623 246.515C95.4895 246.442 95.4531 246.305 95.4531 246.106V245.839V244.724C95.4531 244.514 95.4944 244.349 95.5771 244.229C95.6597 244.108 95.7728 244.049 95.9174 244.049C96 244.049 96.0807 244.056 96.1574 244.072C96.2351 244.087 96.3246 244.112 96.4279 244.142L112.929 250.318V242.336C112.444 242.305 112.086 242.194 111.855 242.005C111.623 241.816 111.507 241.539 111.507 241.172C111.507 240.817 111.593 240.552 111.769 240.379C111.944 240.207 112.218 240.119 112.589 240.119C112.691 240.119 112.77 240.122 112.822 240.127C112.873 240.132 112.919 240.141 112.96 240.152L114.352 240.308C114.64 240.34 114.863 240.446 115.016 240.63C115.171 240.814 115.249 241.063 115.249 241.376V251.763C115.249 252.067 115.184 252.29 115.055 252.431C114.927 252.572 114.723 252.643 114.445 252.643H113.918C113.794 252.643 113.632 252.617 113.431 252.564C113.23 252.512 112.96 252.428 112.62 252.313L96.0413 246.751Z" fill="#FA8A95"/>
<path d="M96.0413 246.751C95.7934 246.667 95.6341 246.588 95.5623 246.515C95.4895 246.442 95.4531 246.305 95.4531 246.106V245.839V244.724C95.4531 244.514 95.4944 244.349 95.5771 244.229C95.6597 244.108 95.7728 244.049 95.9174 244.049C96 244.049 96.0807 244.056 96.1574 244.072C96.2351 244.087 96.3246 244.112 96.4279 244.142L112.929 250.318V242.336C112.444 242.305 112.086 242.194 111.855 242.005C111.623 241.816 111.507 241.539 111.507 241.172C111.507 240.817 111.593 240.552 111.769 240.379C111.944 240.207 112.218 240.119 112.589 240.119C112.691 240.119 112.77 240.122 112.822 240.127C112.873 240.132 112.919 240.141 112.96 240.152L114.352 240.308C114.64 240.34 114.863 240.446 115.016 240.63C115.171 240.814 115.249 241.063 115.249 241.376V251.763C115.249 252.067 115.184 252.29 115.055 252.431C114.927 252.572 114.723 252.643 114.445 252.643H113.918C113.794 252.643 113.632 252.617 113.431 252.564C113.23 252.512 112.96 252.428 112.62 252.313L96.0413 246.751Z" stroke="#FA8A95" stroke-width="2.077" stroke-linecap="round" stroke-linejoin="round"/>
<path d="M112.327 260.783C112.306 260.648 112.289 260.545 112.28 260.477C112.27 260.409 112.265 260.35 112.265 260.297C112.265 259.972 112.354 259.708 112.535 259.503C112.715 259.299 112.955 259.196 113.254 259.196C113.502 259.196 113.717 259.285 113.903 259.463C114.088 259.642 114.228 259.898 114.321 260.234L115.558 264.901C115.588 265.016 115.612 265.128 115.628 265.239C115.643 265.349 115.65 265.461 115.65 265.576C115.65 265.775 115.561 265.931 115.381 266.047C115.2 266.163 114.954 266.221 114.645 266.221H97.9131V268.734C97.9131 269.666 97.8373 270.259 97.6888 270.51C97.5393 270.762 97.258 270.887 96.8459 270.887C96.4751 270.887 96.1967 270.782 96.0108 270.572C95.8249 270.362 95.7324 270.049 95.7324 269.63V260.234C95.7324 259.815 95.8249 259.501 96.0108 259.291C96.1967 259.081 96.4751 258.977 96.8459 258.977C97.258 258.977 97.5393 259.101 97.6888 259.353C97.8373 259.605 97.9131 260.198 97.9131 261.13V263.738H113.022L112.327 260.783Z" fill="#FA8A95"/>
<path d="M112.327 260.783C112.306 260.648 112.289 260.545 112.28 260.477C112.27 260.409 112.265 260.35 112.265 260.297C112.265 259.972 112.354 259.708 112.535 259.503C112.715 259.299 112.955 259.196 113.254 259.196C113.502 259.196 113.717 259.285 113.903 259.463C114.088 259.642 114.228 259.898 114.321 260.234L115.558 264.901C115.588 265.016 115.612 265.128 115.628 265.239C115.643 265.349 115.65 265.461 115.65 265.576C115.65 265.775 115.561 265.931 115.381 266.047C115.2 266.163 114.954 266.221 114.645 266.221H97.9131V268.734C97.9131 269.666 97.8373 270.259 97.6888 270.51C97.5393 270.762 97.258 270.887 96.8459 270.887C96.4751 270.887 96.1967 270.782 96.0108 270.572C95.8249 270.362 95.7324 270.049 95.7324 269.63V260.234C95.7324 259.815 95.8249 259.501 96.0108 259.291C96.1967 259.081 96.4751 258.977 96.8459 258.977C97.258 258.977 97.5393 259.101 97.6888 259.353C97.8373 259.605 97.9131 260.198 97.9131 261.13V263.738H113.022L112.327 260.783Z" stroke="#FA8A95" stroke-width="2.077" stroke-linecap="round" stroke-linejoin="round"/>
<path d="M105.074 286.145C104.363 285.58 103.832 284.956 103.482 284.275C103.131 283.594 102.955 282.847 102.955 282.029C102.955 280.374 103.566 278.967 104.787 277.81C106.01 276.652 107.512 276.074 109.296 276.074C111.172 276.074 112.716 276.631 113.928 277.747C115.139 278.863 115.745 280.29 115.745 282.029C115.745 284.082 114.932 285.737 113.309 286.994C111.685 288.251 109.533 288.88 106.852 288.88C103.316 288.88 100.493 287.96 98.3849 286.122C96.2771 284.284 95.2227 281.824 95.2227 278.744C95.2227 277.771 95.2954 277.124 95.44 276.804C95.5836 276.484 95.8512 276.326 96.2436 276.326C96.9036 276.326 97.2489 276.947 97.2794 278.194C97.3 279.022 97.358 279.676 97.4495 280.159C97.7486 281.813 98.5581 283.156 99.8781 284.189C101.198 285.221 102.93 285.873 105.074 286.145ZM109.218 285.816C110.496 285.816 111.535 285.473 112.334 284.786C113.134 284.1 113.532 283.222 113.532 282.154C113.532 281.139 113.157 280.315 112.404 279.686C111.652 279.058 110.668 278.744 109.451 278.744C108.193 278.744 107.169 279.075 106.381 279.734C105.592 280.394 105.197 281.243 105.197 282.28C105.197 283.295 105.577 284.139 106.334 284.81C107.093 285.48 108.053 285.816 109.218 285.816Z" fill="#FA8A95"/>
<path d="M105.074 286.145C104.363 285.58 103.832 284.956 103.482 284.275C103.131 283.594 102.955 282.847 102.955 282.029C102.955 280.374 103.566 278.967 104.787 277.81C106.01 276.652 107.512 276.074 109.296 276.074C111.172 276.074 112.716 276.631 113.928 277.747C115.139 278.863 115.745 280.29 115.745 282.029C115.745 284.082 114.932 285.737 113.309 286.994C111.685 288.251 109.533 288.88 106.852 288.88C103.316 288.88 100.493 287.96 98.3849 286.122C96.2771 284.284 95.2227 281.824 95.2227 278.744C95.2227 277.771 95.2954 277.124 95.44 276.804C95.5836 276.484 95.8512 276.326 96.2436 276.326C96.9036 276.326 97.2489 276.947 97.2794 278.194C97.3 279.022 97.358 279.676 97.4495 280.159C97.7486 281.813 98.5581 283.156 99.8781 284.189C101.198 285.221 102.93 285.873 105.074 286.145ZM109.218 285.816C110.496 285.816 111.535 285.473 112.334 284.786C113.134 284.1 113.532 283.222 113.532 282.154C113.532 281.139 113.157 280.315 112.404 279.686C111.652 279.058 110.668 278.744 109.451 278.744C108.193 278.744 107.169 279.075 106.381 279.734C105.592 280.394 105.197 281.243 105.197 282.28C105.197 283.295 105.577 284.139 106.334 284.81C107.093 285.48 108.053 285.816 109.218 285.816Z" stroke="#FA8A95" stroke-width="2.077" stroke-linecap="round" stroke-linejoin="round"/>
<path d="M105.732 297.444C106.226 296.429 106.853 295.662 107.611 295.15C108.37 294.637 109.254 294.379 110.266 294.379C111.864 294.379 113.177 294.961 114.205 296.124C115.231 297.286 115.745 298.774 115.745 300.586C115.745 302.367 115.229 303.849 114.197 305.034C113.166 306.217 111.907 306.81 110.421 306.81C109.317 306.81 108.382 306.558 107.619 306.055C106.856 305.552 106.226 304.772 105.732 303.714C105.309 304.772 104.688 305.583 103.869 306.149C103.049 306.715 102.089 306.997 100.988 306.997C99.2879 306.997 97.901 306.403 96.8299 305.215C95.7587 304.025 95.2227 302.482 95.2227 300.586C95.2227 298.691 95.7636 297.152 96.8456 295.967C97.9276 294.783 99.3282 294.191 101.05 294.191C102.1 294.191 103.034 294.475 103.854 295.041C104.672 295.607 105.299 296.407 105.732 297.444ZM101.053 296.768C99.9607 296.768 99.0735 297.117 98.3928 297.813C97.7122 298.51 97.3728 299.434 97.3728 300.586C97.3728 301.75 97.7023 302.679 98.3623 303.376C99.0223 304.072 99.8987 304.421 100.992 304.421C102.064 304.421 102.931 304.065 103.597 303.353C104.262 302.64 104.595 301.718 104.595 300.586C104.595 299.465 104.267 298.549 103.613 297.836C102.959 297.125 102.105 296.768 101.053 296.768ZM110.262 296.927C109.239 296.927 108.402 297.268 107.752 297.955C107.101 298.641 106.775 299.518 106.775 300.586C106.775 301.665 107.104 302.548 107.759 303.235C108.415 303.92 109.261 304.264 110.293 304.264C111.285 304.264 112.104 303.92 112.751 303.235C113.396 302.548 113.718 301.665 113.718 300.586C113.718 299.508 113.396 298.629 112.751 297.947C112.104 297.265 111.275 296.927 110.262 296.927Z" fill="#FA8A95"/>
<path d="M105.732 297.444C106.226 296.429 106.853 295.662 107.611 295.15C108.37 294.637 109.254 294.379 110.266 294.379C111.864 294.379 113.177 294.961 114.205 296.124C115.231 297.286 115.745 298.774 115.745 300.586C115.745 302.367 115.229 303.849 114.197 305.034C113.166 306.217 111.907 306.81 110.421 306.81C109.317 306.81 108.382 306.558 107.619 306.055C106.856 305.552 106.226 304.772 105.732 303.714C105.309 304.772 104.688 305.583 103.869 306.149C103.049 306.715 102.089 306.997 100.988 306.997C99.2879 306.997 97.901 306.403 96.8299 305.215C95.7587 304.025 95.2227 302.482 95.2227 300.586C95.2227 298.691 95.7636 297.152 96.8456 295.967C97.9276 294.783 99.3282 294.191 101.05 294.191C102.1 294.191 103.034 294.475 103.854 295.041C104.672 295.607 105.299 296.407 105.732 297.444ZM101.053 296.768C99.9607 296.768 99.0735 297.117 98.3928 297.813C97.7122 298.51 97.3728 299.434 97.3728 300.586C97.3728 301.75 97.7023 302.679 98.3623 303.376C99.0223 304.072 99.8987 304.421 100.992 304.421C102.064 304.421 102.931 304.065 103.597 303.353C104.262 302.64 104.595 301.718 104.595 300.586C104.595 299.465 104.267 298.549 103.613 297.836C102.959 297.125 102.105 296.768 101.053 296.768ZM110.262 296.927C109.239 296.927 108.402 297.268 107.752 297.955C107.101 298.641 106.775 299.518 106.775 300.586C106.775 301.665 107.104 302.548 107.759 303.235C108.415 303.92 109.261 304.264 110.293 304.264C111.285 304.264 112.104 303.92 112.751 303.235C113.396 302.548 113.718 301.665 113.718 300.586C113.718 299.508 113.396 298.629 112.751 297.947C112.104 297.265 111.275 296.927 110.262 296.927Z" stroke="#FA8A95" stroke-width="2.077" stroke-linecap="round" stroke-linejoin="round"/>
<path d="M95.7324 313.143C95.7324 312.587 95.8436 312.176 96.0649 311.909C96.2862 311.642 96.6295 311.509 97.0937 311.509C97.7646 311.509 99.0206 312.514 100.867 314.526L101.301 314.981C101.589 315.284 102.001 315.725 102.537 316.301C105.898 319.926 108.347 321.738 109.883 321.738C110.986 321.738 111.88 321.418 112.567 320.779C113.252 320.14 113.595 319.312 113.595 318.297C113.595 317.637 113.461 317.005 113.193 316.403C112.925 315.8 112.564 315.316 112.109 314.951C112.028 314.888 111.888 314.787 111.692 314.651C111.002 314.264 110.657 313.829 110.657 313.347C110.657 312.97 110.77 312.702 110.996 312.545C111.223 312.388 111.657 312.31 112.295 312.31C112.666 312.31 112.939 312.347 113.108 312.42C113.278 312.493 113.461 312.629 113.657 312.828C114.296 313.499 114.804 314.329 115.179 315.319C115.555 316.309 115.745 317.322 115.745 318.36C115.745 320.098 115.193 321.552 114.088 322.72C112.984 323.888 111.627 324.471 110.017 324.471C107.995 324.471 105.306 322.691 101.953 319.129C101.117 318.219 100.463 317.521 99.9875 317.039L98.1609 315.107V322.288C98.6085 322.33 98.9508 322.453 99.1849 322.657C99.419 322.862 99.537 323.136 99.537 323.481C99.537 323.827 99.4229 324.1 99.1967 324.299C98.9705 324.498 98.6616 324.597 98.2691 324.597C98.2387 324.597 98.1846 324.592 98.1069 324.582C98.0301 324.572 97.975 324.567 97.9436 324.567L96.7534 324.441C96.4337 324.409 96.1839 324.315 96.0029 324.157C95.8219 324.001 95.7324 323.796 95.7324 323.544V313.143Z" fill="#FA8A95"/>
<path d="M95.7324 313.143C95.7324 312.587 95.8436 312.176 96.0649 311.909C96.2862 311.642 96.6295 311.509 97.0937 311.509C97.7646 311.509 99.0206 312.514 100.867 314.526L101.301 314.981C101.589 315.284 102.001 315.725 102.537 316.301C105.898 319.926 108.347 321.738 109.883 321.738C110.986 321.738 111.88 321.418 112.567 320.779C113.252 320.14 113.595 319.312 113.595 318.297C113.595 317.637 113.461 317.005 113.193 316.403C112.925 315.8 112.564 315.316 112.109 314.951C112.028 314.888 111.888 314.787 111.692 314.651C111.002 314.264 110.657 313.829 110.657 313.347C110.657 312.97 110.77 312.702 110.996 312.545C111.223 312.388 111.657 312.31 112.295 312.31C112.666 312.31 112.939 312.347 113.108 312.42C113.278 312.493 113.461 312.629 113.657 312.828C114.296 313.499 114.804 314.329 115.179 315.319C115.555 316.309 115.745 317.322 115.745 318.36C115.745 320.098 115.193 321.552 114.088 322.72C112.984 323.888 111.627 324.471 110.017 324.471C107.995 324.471 105.306 322.691 101.953 319.129C101.117 318.219 100.463 317.521 99.9875 317.039L98.1609 315.107V322.288C98.6085 322.33 98.9508 322.453 99.1849 322.657C99.419 322.862 99.537 323.136 99.537 323.481C99.537 323.827 99.4229 324.1 99.1967 324.299C98.9705 324.498 98.6616 324.597 98.2691 324.597C98.2387 324.597 98.1846 324.592 98.1069 324.582C98.0301 324.572 97.975 324.567 97.9436 324.567L96.7534 324.441C96.4337 324.409 96.1839 324.315 96.0029 324.157C95.8219 324.001 95.7324 323.796 95.7324 323.544V313.143Z" stroke="#FA8A95" stroke-width="2.077" stroke-linecap="round" stroke-linejoin="round"/>
<path d="M414.608 318.628C414.608 320.598 413.693 322.162 411.863 323.319C410.033 324.476 407.524 325.054 404.339 325.054C401.163 325.054 398.661 324.476 396.83 323.319C395.001 322.162 394.086 320.598 394.086 318.628C394.086 316.658 395.004 315.093 396.838 313.93C398.672 312.769 401.173 312.186 404.339 312.186C407.504 312.186 410.007 312.769 411.848 313.93C413.687 315.093 414.608 316.658 414.608 318.628ZM396.298 318.628C396.298 319.832 396.999 320.77 398.403 321.441C399.806 322.112 401.787 322.447 404.346 322.447C406.916 322.447 408.905 322.112 410.313 321.441C411.722 320.77 412.427 319.832 412.427 318.628C412.427 317.413 411.722 316.47 410.313 315.8C408.905 315.129 406.916 314.794 404.346 314.794C401.787 314.794 399.806 315.129 398.403 315.8C396.999 316.47 396.298 317.413 396.298 318.628Z" fill="#FA8A95"/>
<path d="M414.608 318.628C414.608 320.598 413.693 322.162 411.863 323.319C410.033 324.476 407.524 325.054 404.339 325.054C401.163 325.054 398.661 324.476 396.83 323.319C395.001 322.162 394.086 320.598 394.086 318.628C394.086 316.658 395.004 315.093 396.838 313.93C398.672 312.769 401.173 312.186 404.339 312.186C407.504 312.186 410.007 312.769 411.848 313.93C413.687 315.093 414.608 316.658 414.608 318.628ZM396.298 318.628C396.298 319.832 396.999 320.77 398.403 321.441C399.806 322.112 401.787 322.447 404.346 322.447C406.916 322.447 408.905 322.112 410.313 321.441C411.722 320.77 412.427 319.832 412.427 318.628C412.427 317.413 411.722 316.47 410.313 315.8C408.905 315.129 406.916 314.794 404.346 314.794C401.787 314.794 399.806 315.129 398.403 315.8C396.999 316.47 396.298 317.413 396.298 318.628Z" stroke="#FA8A95" stroke-width="2.077" stroke-linecap="round" stroke-linejoin="round"/>
<path d="M397.501 304.359C397.522 304.495 397.539 304.598 397.549 304.666C397.558 304.734 397.563 304.793 397.563 304.846C397.563 305.171 397.474 305.434 397.293 305.639C397.113 305.843 396.873 305.946 396.574 305.946C396.326 305.946 396.112 305.857 395.926 305.679C395.74 305.5 395.6 305.245 395.508 304.909L394.27 300.242C394.24 300.127 394.216 300.015 394.2 299.904C394.186 299.794 394.178 299.682 394.178 299.566C394.178 299.367 394.267 299.211 394.447 299.095C394.628 298.979 394.874 298.921 395.183 298.921H411.915V296.408C411.915 295.477 411.991 294.884 412.139 294.632C412.289 294.38 412.57 294.255 412.982 294.255C413.353 294.255 413.631 294.36 413.817 294.57C414.003 294.78 414.096 295.094 414.096 295.513V304.909C414.096 305.327 414.003 305.641 413.817 305.851C413.631 306.061 413.353 306.166 412.982 306.166C412.57 306.166 412.289 306.041 412.139 305.789C411.991 305.537 411.915 304.945 411.915 304.012V301.405H396.806L397.501 304.359Z" fill="#FA8A95"/>
<path d="M397.501 304.359C397.522 304.495 397.539 304.598 397.549 304.666C397.558 304.734 397.563 304.793 397.563 304.846C397.563 305.171 397.474 305.434 397.293 305.639C397.113 305.843 396.873 305.946 396.574 305.946C396.326 305.946 396.112 305.857 395.926 305.679C395.74 305.5 395.6 305.245 395.508 304.909L394.27 300.242C394.24 300.127 394.216 300.015 394.2 299.904C394.186 299.794 394.178 299.682 394.178 299.566C394.178 299.367 394.267 299.211 394.447 299.095C394.628 298.979 394.874 298.921 395.183 298.921H411.915V296.408C411.915 295.477 411.991 294.884 412.139 294.632C412.289 294.38 412.57 294.255 412.982 294.255C413.353 294.255 413.631 294.36 413.817 294.57C414.003 294.78 414.096 295.094 414.096 295.513V304.909C414.096 305.327 414.003 305.641 413.817 305.851C413.631 306.061 413.353 306.166 412.982 306.166C412.57 306.166 412.289 306.041 412.139 305.789C411.991 305.537 411.915 304.945 411.915 304.012V301.405H396.806L397.501 304.359Z" stroke="#FA8A95" stroke-width="2.077" stroke-linecap="round" stroke-linejoin="round"/>
<path d="M414.608 282.581C414.608 284.55 413.693 286.114 411.863 287.272C410.033 288.429 407.524 289.007 404.339 289.007C401.163 289.007 398.661 288.429 396.83 287.272C395.001 286.114 394.086 284.55 394.086 282.581C394.086 280.611 395.004 279.046 396.838 277.883C398.672 276.721 401.173 276.139 404.339 276.139C407.504 276.139 410.007 276.721 411.848 277.883C413.687 279.046 414.608 280.611 414.608 282.581ZM396.298 282.581C396.298 283.785 396.999 284.722 398.403 285.394C399.806 286.064 401.787 286.399 404.346 286.399C406.916 286.399 408.905 286.064 410.313 285.394C411.722 284.722 412.427 283.785 412.427 282.581C412.427 281.365 411.722 280.423 410.313 279.752C408.905 279.082 406.916 278.747 404.346 278.747C401.787 278.747 399.806 279.082 398.403 279.752C396.999 280.423 396.298 281.365 396.298 282.581Z" fill="#FA8A95"/>
<path d="M414.608 282.581C414.608 284.55 413.693 286.114 411.863 287.272C410.033 288.429 407.524 289.007 404.339 289.007C401.163 289.007 398.661 288.429 396.83 287.272C395.001 286.114 394.086 284.55 394.086 282.581C394.086 280.611 395.004 279.046 396.838 277.883C398.672 276.721 401.173 276.139 404.339 276.139C407.504 276.139 410.007 276.721 411.848 277.883C413.687 279.046 414.608 280.611 414.608 282.581ZM396.298 282.581C396.298 283.785 396.999 284.722 398.403 285.394C399.806 286.064 401.787 286.399 404.346 286.399C406.916 286.399 408.905 286.064 410.313 285.394C411.722 284.722 412.427 283.785 412.427 282.581C412.427 281.365 411.722 280.423 410.313 279.752C408.905 279.082 406.916 278.747 404.346 278.747C401.787 278.747 399.806 279.082 398.403 279.752C396.999 280.423 396.298 281.365 396.298 282.581Z" stroke="#FA8A95" stroke-width="2.077" stroke-linecap="round" stroke-linejoin="round"/>
<path d="M413.786 264.32C414.034 264.404 414.193 264.483 414.265 264.556C414.338 264.629 414.374 264.766 414.374 264.965V265.232V266.347C414.374 266.557 414.333 266.723 414.25 266.842C414.168 266.963 414.055 267.022 413.91 267.022C413.827 267.022 413.747 267.015 413.67 266.999C413.592 266.984 413.503 266.959 413.399 266.929L396.898 260.753V268.735C397.383 268.766 397.741 268.877 397.973 269.066C398.205 269.255 398.321 269.532 398.321 269.899C398.321 270.254 398.234 270.519 398.058 270.692C397.884 270.864 397.61 270.952 397.239 270.952C397.136 270.952 397.058 270.949 397.006 270.944C396.955 270.939 396.908 270.93 396.867 270.919L395.475 270.763C395.187 270.731 394.965 270.625 394.811 270.441C394.656 270.257 394.578 270.009 394.578 269.695V259.308C394.578 259.004 394.643 258.782 394.772 258.64C394.901 258.499 395.104 258.428 395.383 258.428H395.909C396.033 258.428 396.195 258.454 396.396 258.507C396.597 258.559 396.867 258.643 397.207 258.759L413.786 264.32Z" fill="#FA8A95"/>
<path d="M413.786 264.32C414.034 264.404 414.193 264.483 414.265 264.556C414.338 264.629 414.374 264.766 414.374 264.965V265.232V266.347C414.374 266.557 414.333 266.723 414.25 266.842C414.168 266.963 414.055 267.022 413.91 267.022C413.827 267.022 413.747 267.015 413.67 266.999C413.592 266.984 413.503 266.959 413.399 266.929L396.898 260.753V268.735C397.383 268.766 397.741 268.877 397.973 269.066C398.205 269.255 398.321 269.532 398.321 269.899C398.321 270.254 398.234 270.519 398.058 270.692C397.884 270.864 397.61 270.952 397.239 270.952C397.136 270.952 397.058 270.949 397.006 270.944C396.955 270.939 396.908 270.93 396.867 270.919L395.475 270.763C395.187 270.731 394.965 270.625 394.811 270.441C394.656 270.257 394.578 270.009 394.578 269.695V259.308C394.578 259.004 394.643 258.782 394.772 258.64C394.901 258.499 395.104 258.428 395.383 258.428H395.909C396.033 258.428 396.195 258.454 396.396 258.507C396.597 258.559 396.867 258.643 397.207 258.759L413.786 264.32Z" stroke="#FA8A95" stroke-width="2.077" stroke-linecap="round" stroke-linejoin="round"/>
<path d="M397.501 250.288C397.522 250.424 397.539 250.527 397.549 250.595C397.558 250.663 397.563 250.722 397.563 250.774C397.563 251.099 397.474 251.363 397.293 251.568C397.113 251.772 396.873 251.875 396.574 251.875C396.326 251.875 396.112 251.786 395.926 251.608C395.74 251.429 395.6 251.173 395.508 250.837L394.27 246.17C394.24 246.055 394.216 245.943 394.2 245.833C394.186 245.723 394.178 245.611 394.178 245.495C394.178 245.296 394.267 245.14 394.447 245.024C394.628 244.908 394.874 244.85 395.183 244.85H411.915V242.337C411.915 241.405 411.991 240.813 412.139 240.561C412.289 240.309 412.57 240.184 412.982 240.184C413.353 240.184 413.631 240.289 413.817 240.499C414.003 240.709 414.096 241.023 414.096 241.441V250.837C414.096 251.256 414.003 251.57 413.817 251.78C413.631 251.99 413.353 252.095 412.982 252.095C412.57 252.095 412.289 251.97 412.139 251.718C411.991 251.466 411.915 250.873 411.915 249.941V247.334H396.806L397.501 250.288Z" fill="#FA8A95"/>
<path d="M397.501 250.288C397.522 250.424 397.539 250.527 397.549 250.595C397.558 250.663 397.563 250.722 397.563 250.774C397.563 251.099 397.474 251.363 397.293 251.568C397.113 251.772 396.873 251.875 396.574 251.875C396.326 251.875 396.112 251.786 395.926 251.608C395.74 251.429 395.6 251.173 395.508 250.837L394.27 246.17C394.24 246.055 394.216 245.943 394.2 245.833C394.186 245.723 394.178 245.611 394.178 245.495C394.178 245.296 394.267 245.14 394.447 245.024C394.628 244.908 394.874 244.85 395.183 244.85H411.915V242.337C411.915 241.405 411.991 240.813 412.139 240.561C412.289 240.309 412.57 240.184 412.982 240.184C413.353 240.184 413.631 240.289 413.817 240.499C414.003 240.709 414.096 241.023 414.096 241.441V250.837C414.096 251.256 414.003 251.57 413.817 251.78C413.631 251.99 413.353 252.095 412.982 252.095C412.57 252.095 412.289 251.97 412.139 251.718C411.991 251.466 411.915 250.873 411.915 249.941V247.334H396.806L397.501 250.288Z" stroke="#FA8A95" stroke-width="2.077" stroke-linecap="round" stroke-linejoin="round"/>
<path d="M404.756 224.926C405.467 225.491 405.998 226.115 406.349 226.797C406.7 227.477 406.876 228.225 406.876 229.042C406.876 230.697 406.265 232.104 405.043 233.261C403.821 234.419 402.319 234.997 400.534 234.997C398.659 234.997 397.114 234.44 395.903 233.324C394.692 232.208 394.086 230.781 394.086 229.042C394.086 226.989 394.898 225.334 396.521 224.077C398.145 222.82 400.297 222.191 402.979 222.191C406.515 222.191 409.338 223.111 411.446 224.949C413.553 226.788 414.608 229.247 414.608 232.327C414.608 233.3 414.535 233.947 414.391 234.267C414.247 234.587 413.979 234.746 413.587 234.746C412.927 234.746 412.582 234.124 412.551 232.877C412.531 232.049 412.473 231.395 412.381 230.912C412.082 229.258 411.272 227.915 409.952 226.882C408.632 225.85 406.9 225.199 404.756 224.926ZM400.612 225.255C399.334 225.255 398.296 225.598 397.496 226.285C396.697 226.971 396.298 227.849 396.298 228.917C396.298 229.933 396.674 230.756 397.426 231.385C398.179 232.013 399.162 232.327 400.38 232.327C401.637 232.327 402.662 231.996 403.45 231.337C404.239 230.677 404.633 229.829 404.633 228.791C404.633 227.776 404.253 226.932 403.496 226.261C402.738 225.59 401.778 225.255 400.612 225.255Z" fill="#FA8A95"/>
<path d="M404.756 224.926C405.467 225.491 405.998 226.115 406.349 226.797C406.7 227.477 406.876 228.225 406.876 229.042C406.876 230.697 406.265 232.104 405.043 233.261C403.821 234.419 402.319 234.997 400.534 234.997C398.659 234.997 397.114 234.44 395.903 233.324C394.692 232.208 394.086 230.781 394.086 229.042C394.086 226.989 394.898 225.334 396.521 224.077C398.145 222.82 400.297 222.191 402.979 222.191C406.515 222.191 409.338 223.111 411.446 224.949C413.553 226.788 414.608 229.247 414.608 232.327C414.608 233.3 414.535 233.947 414.391 234.267C414.247 234.587 413.979 234.746 413.587 234.746C412.927 234.746 412.582 234.124 412.551 232.877C412.531 232.049 412.473 231.395 412.381 230.912C412.082 229.258 411.272 227.915 409.952 226.882C408.632 225.85 406.9 225.199 404.756 224.926ZM400.612 225.255C399.334 225.255 398.296 225.598 397.496 226.285C396.697 226.971 396.298 227.849 396.298 228.917C396.298 229.933 396.674 230.756 397.426 231.385C398.179 232.013 399.162 232.327 400.38 232.327C401.637 232.327 402.662 231.996 403.45 231.337C404.239 230.677 404.633 229.829 404.633 228.791C404.633 227.776 404.253 226.932 403.496 226.261C402.738 225.59 401.778 225.255 400.612 225.255Z" stroke="#FA8A95" stroke-width="2.077" stroke-linecap="round" stroke-linejoin="round"/>
<path d="M404.099 213.627C403.604 214.642 402.978 215.409 402.219 215.921C401.461 216.434 400.577 216.692 399.565 216.692C397.966 216.692 396.653 216.109 395.625 214.947C394.599 213.785 394.086 212.298 394.086 210.485C394.086 208.704 394.601 207.222 395.633 206.038C396.665 204.854 397.924 204.262 399.409 204.262C400.514 204.262 401.448 204.513 402.212 205.016C402.975 205.519 403.604 206.299 404.099 207.357C404.522 206.299 405.143 205.488 405.962 204.922C406.781 204.357 407.741 204.074 408.843 204.074C410.543 204.074 411.93 204.668 413.001 205.857C414.072 207.046 414.608 208.589 414.608 210.485C414.608 212.381 414.067 213.92 412.985 215.104C411.903 216.288 410.502 216.88 408.781 216.88C407.731 216.88 406.796 216.596 405.977 216.03C405.158 215.465 404.532 214.664 404.099 213.627ZM399.569 214.144C400.592 214.144 401.429 213.803 402.079 213.116C402.73 212.431 403.055 211.553 403.055 210.485C403.055 209.406 402.727 208.523 402.072 207.836C401.416 207.151 400.57 206.807 399.537 206.807C398.546 206.807 397.726 207.151 397.08 207.836C396.435 208.523 396.112 209.406 396.112 210.485C396.112 211.563 396.435 212.443 397.08 213.124C397.726 213.806 398.555 214.144 399.569 214.144ZM408.777 214.303C409.87 214.303 410.757 213.955 411.438 213.258C412.118 212.561 412.458 211.637 412.458 210.485C412.458 209.322 412.128 208.392 411.468 207.695C410.808 206.999 409.932 206.65 408.839 206.65C407.767 206.65 406.899 207.006 406.233 207.718C405.569 208.431 405.235 209.353 405.235 210.485C405.235 211.606 405.564 212.522 406.218 213.235C406.872 213.947 407.726 214.303 408.777 214.303Z" fill="#FA8A95"/>
<path d="M404.099 213.627C403.604 214.642 402.978 215.409 402.219 215.921C401.461 216.434 400.577 216.692 399.565 216.692C397.966 216.692 396.653 216.109 395.625 214.947C394.599 213.785 394.086 212.298 394.086 210.485C394.086 208.704 394.601 207.222 395.633 206.038C396.665 204.854 397.924 204.262 399.409 204.262C400.514 204.262 401.448 204.513 402.212 205.016C402.975 205.519 403.604 206.299 404.099 207.357C404.522 206.299 405.143 205.488 405.962 204.922C406.781 204.357 407.741 204.074 408.843 204.074C410.543 204.074 411.93 204.668 413.001 205.857C414.072 207.046 414.608 208.589 414.608 210.485C414.608 212.381 414.067 213.92 412.985 215.104C411.903 216.288 410.502 216.88 408.781 216.88C407.731 216.88 406.796 216.596 405.977 216.03C405.158 215.465 404.532 214.664 404.099 213.627ZM399.569 214.144C400.592 214.144 401.429 213.803 402.079 213.116C402.73 212.431 403.055 211.553 403.055 210.485C403.055 209.406 402.727 208.523 402.072 207.836C401.416 207.151 400.57 206.807 399.537 206.807C398.546 206.807 397.726 207.151 397.08 207.836C396.435 208.523 396.112 209.406 396.112 210.485C396.112 211.563 396.435 212.443 397.08 213.124C397.726 213.806 398.555 214.144 399.569 214.144ZM408.777 214.303C409.87 214.303 410.757 213.955 411.438 213.258C412.118 212.561 412.458 211.637 412.458 210.485C412.458 209.322 412.128 208.392 411.468 207.695C410.808 206.999 409.932 206.65 408.839 206.65C407.767 206.65 406.899 207.006 406.233 207.718C405.569 208.431 405.235 209.353 405.235 210.485C405.235 211.606 405.564 212.522 406.218 213.235C406.872 213.947 407.726 214.303 408.777 214.303Z" stroke="#FA8A95" stroke-width="2.077" stroke-linecap="round" stroke-linejoin="round"/>
<path d="M414.096 197.928C414.096 198.484 413.985 198.895 413.764 199.163C413.543 199.43 413.199 199.562 412.735 199.562C412.064 199.562 410.808 198.557 408.962 196.545L408.528 196.091C408.24 195.787 407.828 195.346 407.292 194.77C403.931 191.146 401.482 189.333 399.946 189.333C398.843 189.333 397.949 189.654 397.262 190.292C396.576 190.931 396.234 191.759 396.234 192.775C396.234 193.434 396.368 194.066 396.635 194.668C396.904 195.271 397.265 195.755 397.719 196.121C397.801 196.184 397.941 196.284 398.136 196.42C398.827 196.807 399.172 197.242 399.172 197.725C399.172 198.101 399.059 198.369 398.833 198.526C398.606 198.683 398.172 198.761 397.533 198.761C397.163 198.761 396.89 198.724 396.721 198.651C396.551 198.578 396.368 198.442 396.172 198.243C395.533 197.573 395.025 196.742 394.65 195.752C394.274 194.762 394.084 193.749 394.084 192.712C394.084 190.973 394.636 189.52 395.74 188.351C396.845 187.183 398.202 186.601 399.812 186.601C401.834 186.601 404.523 188.38 407.876 191.942C408.712 192.853 409.366 193.55 409.841 194.032L411.668 195.965V188.783C411.22 188.741 410.878 188.618 410.644 188.414C410.41 188.21 410.292 187.936 410.292 187.59C410.292 187.244 410.406 186.971 410.632 186.772C410.858 186.574 411.167 186.475 411.56 186.475C411.59 186.475 411.644 186.48 411.722 186.49C411.799 186.5 411.854 186.505 411.885 186.505L413.075 186.631C413.395 186.662 413.645 186.756 413.826 186.914C414.007 187.07 414.096 187.275 414.096 187.527V197.928Z" fill="#FA8A95"/>
<path d="M414.096 197.928C414.096 198.484 413.985 198.895 413.764 199.163C413.543 199.43 413.199 199.562 412.735 199.562C412.064 199.562 410.808 198.557 408.962 196.545L408.528 196.091C408.24 195.787 407.828 195.346 407.292 194.77C403.931 191.146 401.482 189.333 399.946 189.333C398.843 189.333 397.949 189.654 397.262 190.292C396.576 190.931 396.234 191.759 396.234 192.775C396.234 193.434 396.368 194.066 396.635 194.668C396.904 195.271 397.265 195.755 397.719 196.121C397.801 196.184 397.941 196.284 398.136 196.42C398.827 196.807 399.172 197.242 399.172 197.725C399.172 198.101 399.059 198.369 398.833 198.526C398.606 198.683 398.172 198.761 397.533 198.761C397.163 198.761 396.89 198.724 396.721 198.651C396.551 198.578 396.368 198.442 396.172 198.243C395.533 197.573 395.025 196.742 394.65 195.752C394.274 194.762 394.084 193.749 394.084 192.712C394.084 190.973 394.636 189.52 395.74 188.351C396.845 187.183 398.202 186.601 399.812 186.601C401.834 186.601 404.523 188.38 407.876 191.942C408.712 192.853 409.366 193.55 409.841 194.032L411.668 195.965V188.783C411.22 188.741 410.878 188.618 410.644 188.414C410.41 188.21 410.292 187.936 410.292 187.59C410.292 187.244 410.406 186.971 410.632 186.772C410.858 186.574 411.167 186.475 411.56 186.475C411.59 186.475 411.644 186.48 411.722 186.49C411.799 186.5 411.854 186.505 411.885 186.505L413.075 186.631C413.395 186.662 413.645 186.756 413.826 186.914C414.007 187.07 414.096 187.275 414.096 187.527V197.928Z" stroke="#FA8A95" stroke-width="2.077" stroke-linecap="round" stroke-linejoin="round"/>
<path d="M95.2148 190.366C95.2148 188.397 96.1296 186.833 97.9602 185.675C99.7898 184.518 102.299 183.94 105.484 183.94C108.66 183.94 111.163 184.518 112.994 185.675C114.823 186.833 115.738 188.397 115.738 190.366C115.738 192.336 114.82 193.901 112.986 195.064C111.151 196.226 108.651 196.808 105.484 196.808C102.319 196.808 99.8164 196.226 97.975 195.064C96.1356 193.901 95.2148 192.336 95.2148 190.366ZM113.526 190.366C113.526 189.162 112.824 188.225 111.421 187.553C110.018 186.883 108.037 186.548 105.477 186.548C102.907 186.548 100.918 186.883 99.5095 187.553C98.1009 188.225 97.3956 189.162 97.3956 190.366C97.3956 191.582 98.1009 192.524 99.5095 193.195C100.918 193.865 102.907 194.2 105.477 194.2C108.037 194.2 110.018 193.865 111.421 193.195C112.824 192.524 113.526 191.582 113.526 190.366Z" fill="#2D0000"/>
<path d="M112.32 204.635C112.299 204.499 112.283 204.396 112.273 204.328C112.263 204.26 112.258 204.201 112.258 204.148C112.258 203.823 112.347 203.559 112.528 203.354C112.708 203.15 112.948 203.047 113.248 203.047C113.495 203.047 113.71 203.136 113.896 203.314C114.082 203.493 114.221 203.749 114.314 204.085L115.551 208.752C115.582 208.867 115.605 208.979 115.621 209.09C115.636 209.2 115.644 209.312 115.644 209.428C115.644 209.626 115.554 209.782 115.374 209.898C115.193 210.014 114.947 210.072 114.638 210.072H97.9054V212.586C97.9054 213.517 97.8296 214.11 97.6811 214.361C97.5316 214.613 97.2503 214.738 96.8381 214.738C96.4673 214.738 96.1889 214.633 96.003 214.423C95.8171 214.214 95.7246 213.9 95.7246 213.481V204.085C95.7246 203.666 95.8171 203.352 96.003 203.142C96.1889 202.933 96.4673 202.828 96.8381 202.828C97.2503 202.828 97.5316 202.953 97.6811 203.204C97.8296 203.456 97.9054 204.049 97.9054 204.981V207.589H113.015L112.32 204.635Z" fill="#2D0000"/>
<path d="M95.2148 226.414C95.2148 224.444 96.1296 222.88 97.9602 221.723C99.7898 220.565 102.299 219.988 105.484 219.988C108.66 219.988 111.163 220.565 112.994 221.723C114.823 222.88 115.738 224.444 115.738 226.414C115.738 228.384 114.82 229.949 112.986 231.112C111.151 232.273 108.651 232.856 105.484 232.856C102.319 232.856 99.8164 232.273 97.975 231.112C96.1356 229.949 95.2148 228.384 95.2148 226.414ZM113.526 226.414C113.526 225.21 112.824 224.272 111.421 223.601C110.018 222.93 108.037 222.595 105.477 222.595C102.907 222.595 100.918 222.93 99.5095 223.601C98.1009 224.272 97.3956 225.21 97.3956 226.414C97.3956 227.629 98.1009 228.571 99.5095 229.242C100.918 229.913 102.907 230.247 105.477 230.247C108.037 230.247 110.018 229.913 111.421 229.242C112.824 228.571 113.526 227.629 113.526 226.414Z" fill="#2D0000"/>
<path d="M96.0336 244.673C95.7857 244.589 95.6263 244.51 95.5545 244.438C95.4817 244.365 95.4453 244.228 95.4453 244.029V243.761V242.647C95.4453 242.437 95.4866 242.271 95.5693 242.151C95.6519 242.03 95.765 241.971 95.9096 241.971C95.9922 241.971 96.0729 241.978 96.1496 241.994C96.2273 242.009 96.3168 242.034 96.4201 242.064L112.922 248.24V240.258C112.437 240.227 112.079 240.116 111.848 239.927C111.616 239.738 111.5 239.462 111.5 239.095C111.5 238.739 111.586 238.474 111.762 238.301C111.937 238.129 112.211 238.042 112.582 238.042C112.684 238.042 112.763 238.045 112.815 238.049C112.866 238.054 112.912 238.063 112.953 238.074L114.345 238.23C114.634 238.262 114.856 238.368 115.009 238.552C115.165 238.736 115.242 238.985 115.242 239.299V249.685C115.242 249.989 115.178 250.212 115.049 250.354C114.92 250.495 114.716 250.566 114.438 250.566H113.912C113.788 250.566 113.625 250.54 113.425 250.487C113.223 250.435 112.953 250.351 112.613 250.235L96.0336 244.673Z" fill="#2D0000"/>
<path d="M112.32 258.707C112.299 258.571 112.283 258.468 112.273 258.4C112.263 258.332 112.258 258.273 112.258 258.22C112.258 257.895 112.347 257.631 112.528 257.427C112.708 257.223 112.948 257.12 113.248 257.12C113.495 257.12 113.71 257.209 113.896 257.387C114.082 257.565 114.221 257.821 114.314 258.157L115.551 262.824C115.582 262.939 115.605 263.051 115.621 263.162C115.636 263.272 115.644 263.384 115.644 263.5C115.644 263.699 115.554 263.855 115.374 263.97C115.193 264.086 114.947 264.144 114.638 264.144H97.9054V266.658C97.9054 267.589 97.8296 268.182 97.6811 268.434C97.5316 268.686 97.2503 268.81 96.8381 268.81C96.4673 268.81 96.1889 268.706 96.003 268.496C95.8171 268.286 95.7246 267.972 95.7246 267.553V258.157C95.7246 257.738 95.8171 257.425 96.003 257.215C96.1889 257.005 96.4673 256.9 96.8381 256.9C97.2503 256.9 97.5316 257.025 97.6811 257.277C97.8296 257.529 97.9054 258.121 97.9054 259.054V261.661H113.015L112.32 258.707Z" fill="#2D0000"/>
<path d="M105.067 284.069C104.356 283.503 103.825 282.88 103.475 282.198C103.123 281.517 102.947 280.77 102.947 279.952C102.947 278.297 103.558 276.89 104.78 275.733C106.003 274.576 107.505 273.997 109.289 273.997C111.165 273.997 112.709 274.555 113.921 275.67C115.132 276.786 115.738 278.213 115.738 279.952C115.738 282.005 114.925 283.66 113.302 284.917C111.678 286.174 109.526 286.803 106.845 286.803C103.308 286.803 100.485 285.884 98.3773 284.046C96.2693 282.207 95.2148 279.747 95.2148 276.667C95.2148 275.694 95.2876 275.047 95.4322 274.728C95.5758 274.408 95.8434 274.249 96.2359 274.249C96.8959 274.249 97.2412 274.871 97.2717 276.118C97.2923 276.945 97.3503 277.6 97.4418 278.083C97.7409 279.736 98.5504 281.08 99.8705 282.112C101.191 283.144 102.923 283.796 105.067 284.069ZM109.211 283.739C110.489 283.739 111.528 283.396 112.328 282.71C113.127 282.023 113.526 281.146 113.526 280.077C113.526 279.062 113.15 278.238 112.397 277.61C111.645 276.981 110.661 276.667 109.443 276.667C108.186 276.667 107.161 276.998 106.373 277.658C105.585 278.317 105.19 279.166 105.19 280.203C105.19 281.219 105.57 282.062 106.327 282.734C107.086 283.403 108.046 283.739 109.211 283.739Z" fill="#2D0000"/>
<path d="M105.724 295.367C106.219 294.351 106.846 293.585 107.604 293.072C108.362 292.559 109.247 292.302 110.259 292.302C111.857 292.302 113.171 292.884 114.198 294.047C115.224 295.21 115.738 296.696 115.738 298.509C115.738 300.29 115.222 301.772 114.191 302.956C113.159 304.139 111.9 304.732 110.414 304.732C109.31 304.732 108.375 304.48 107.612 303.977C106.849 303.475 106.219 302.694 105.724 301.637C105.301 302.694 104.681 303.506 103.861 304.071C103.042 304.637 102.082 304.92 100.98 304.92C99.2803 304.92 97.8934 304.325 96.8221 303.137C95.7509 301.948 95.2148 300.405 95.2148 298.509C95.2148 296.613 95.7559 295.074 96.8379 293.89C97.9199 292.705 99.3206 292.114 101.042 292.114C102.093 292.114 103.027 292.398 103.846 292.963C104.665 293.529 105.291 294.329 105.724 295.367ZM101.046 294.69C99.9531 294.69 99.0659 295.039 98.3852 295.736C97.7045 296.432 97.3651 297.356 97.3651 298.509C97.3651 299.671 97.6946 300.601 98.3547 301.298C99.0147 301.995 99.8912 302.343 100.984 302.343C102.056 302.343 102.924 301.988 103.59 301.275C104.255 300.562 104.588 299.64 104.588 298.509C104.588 297.387 104.26 296.471 103.605 295.758C102.951 295.047 102.098 294.69 101.046 294.69ZM110.255 294.848C109.232 294.848 108.395 295.191 107.745 295.877C107.094 296.563 106.768 297.44 106.768 298.509C106.768 299.587 107.096 300.471 107.752 301.157C108.408 301.843 109.254 302.186 110.286 302.186C111.278 302.186 112.097 301.843 112.744 301.157C113.389 300.471 113.712 299.587 113.712 298.509C113.712 297.43 113.389 296.551 112.744 295.869C112.097 295.188 111.268 294.848 110.255 294.848Z" fill="#2D0000"/>
<path d="M95.7246 311.066C95.7246 310.51 95.8358 310.1 96.0571 309.832C96.2784 309.565 96.6217 309.432 97.086 309.432C97.7569 309.432 99.013 310.437 100.859 312.448L101.293 312.904C101.581 313.208 101.993 313.648 102.53 314.224C105.891 317.849 108.34 319.662 109.876 319.662C110.979 319.662 111.873 319.341 112.56 318.702C113.246 318.064 113.588 317.235 113.588 316.22C113.588 315.56 113.454 314.929 113.187 314.326C112.918 313.723 112.557 313.24 112.103 312.874C112.021 312.811 111.881 312.71 111.685 312.574C110.995 312.187 110.65 311.753 110.65 311.27C110.65 310.893 110.763 310.625 110.989 310.468C111.216 310.312 111.65 310.234 112.288 310.234C112.659 310.234 112.932 310.271 113.101 310.344C113.271 310.417 113.454 310.552 113.65 310.751C114.289 311.422 114.797 312.252 115.173 313.243C115.548 314.232 115.738 315.246 115.738 316.283C115.738 318.022 115.186 319.475 114.082 320.643C112.977 321.811 111.62 322.394 110.01 322.394C107.988 322.394 105.299 320.615 101.945 317.052C101.109 316.142 100.455 315.444 99.9799 314.963L98.1533 313.03V320.211C98.6008 320.253 98.9431 320.376 99.1772 320.58C99.4114 320.785 99.5294 321.059 99.5294 321.405C99.5294 321.75 99.4153 322.023 99.1891 322.222C98.9628 322.421 98.6539 322.52 98.2615 322.52C98.231 322.52 98.1769 322.515 98.0992 322.505C98.0224 322.495 97.9673 322.49 97.9359 322.49L96.7456 322.364C96.426 322.332 96.1761 322.238 95.9951 322.08C95.8141 321.924 95.7246 321.719 95.7246 321.468V311.066Z" fill="#2D0000"/>
<path d="M414.619 316.55C414.619 318.52 413.704 320.084 411.873 321.241C410.044 322.399 407.534 322.976 404.349 322.976C401.173 322.976 398.671 322.399 396.84 321.241C395.011 320.084 394.096 318.52 394.096 316.55C394.096 314.581 395.013 313.016 396.848 311.852C398.682 310.691 401.183 310.108 404.349 310.108C407.515 310.108 410.017 310.691 411.859 311.852C413.698 313.016 414.619 314.581 414.619 316.55ZM396.308 316.55C396.308 317.755 397.009 318.692 398.413 319.364C399.816 320.034 401.797 320.369 404.356 320.369C406.927 320.369 408.916 320.034 410.324 319.364C411.733 318.692 412.438 317.755 412.438 316.55C412.438 315.335 411.733 314.393 410.324 313.722C408.916 313.052 406.927 312.717 404.356 312.717C401.797 312.717 399.816 313.052 398.413 313.722C397.009 314.393 396.308 315.335 396.308 316.55Z" fill="#2D0000"/>
<path d="M397.511 302.282C397.532 302.418 397.549 302.521 397.558 302.589C397.568 302.657 397.573 302.716 397.573 302.769C397.573 303.094 397.484 303.358 397.303 303.563C397.123 303.766 396.883 303.869 396.584 303.869C396.336 303.869 396.121 303.78 395.935 303.603C395.75 303.424 395.61 303.168 395.517 302.832L394.28 298.165C394.249 298.05 394.226 297.938 394.21 297.827C394.195 297.717 394.188 297.605 394.188 297.489C394.188 297.291 394.277 297.135 394.457 297.019C394.638 296.903 394.884 296.845 395.193 296.845H411.926V294.331C411.926 293.4 412.002 292.807 412.15 292.555C412.3 292.304 412.581 292.179 412.993 292.179C413.364 292.179 413.642 292.284 413.828 292.494C414.014 292.703 414.107 293.017 414.107 293.436V302.832C414.107 303.251 414.014 303.565 413.828 303.774C413.642 303.984 413.364 304.089 412.993 304.089C412.581 304.089 412.3 303.964 412.15 303.713C412.002 303.461 411.926 302.868 411.926 301.936V299.328H396.816L397.511 302.282Z" fill="#2D0000"/>
<path d="M414.619 280.503C414.619 282.473 413.704 284.037 411.873 285.194C410.044 286.351 407.534 286.929 404.349 286.929C401.173 286.929 398.671 286.351 396.84 285.194C395.011 284.037 394.096 282.473 394.096 280.503C394.096 278.533 395.013 276.968 396.848 275.805C398.682 274.644 401.183 274.061 404.349 274.061C407.515 274.061 410.017 274.644 411.859 275.805C413.698 276.968 414.619 278.533 414.619 280.503ZM396.308 280.503C396.308 281.707 397.009 282.645 398.413 283.316C399.816 283.987 401.797 284.322 404.356 284.322C406.927 284.322 408.916 283.987 410.324 283.316C411.733 282.645 412.438 281.707 412.438 280.503C412.438 279.288 411.733 278.345 410.324 277.675C408.916 277.004 406.927 276.669 404.356 276.669C401.797 276.669 399.816 277.004 398.413 277.675C397.009 278.345 396.308 279.288 396.308 280.503Z" fill="#2D0000"/>
<path d="M413.797 262.243C414.045 262.327 414.204 262.406 414.276 262.479C414.349 262.552 414.385 262.689 414.385 262.888V263.156V264.27C414.385 264.48 414.344 264.646 414.261 264.766C414.178 264.887 414.065 264.946 413.921 264.946C413.838 264.946 413.757 264.939 413.681 264.923C413.603 264.908 413.514 264.883 413.41 264.853L396.908 258.677V266.659C397.393 266.69 397.751 266.801 397.982 266.989C398.215 267.178 398.331 267.455 398.331 267.822C398.331 268.178 398.244 268.443 398.068 268.615C397.894 268.787 397.62 268.875 397.249 268.875C397.146 268.875 397.068 268.872 397.016 268.867C396.964 268.862 396.918 268.853 396.877 268.842L395.485 268.686C395.197 268.654 394.974 268.548 394.821 268.365C394.666 268.181 394.588 267.932 394.588 267.618V257.232C394.588 256.928 394.653 256.705 394.782 256.563C394.911 256.422 395.114 256.351 395.393 256.351H395.919C396.043 256.351 396.205 256.377 396.406 256.43C396.607 256.482 396.877 256.566 397.217 256.682L413.797 262.243Z" fill="#2D0000"/>
<path d="M397.511 248.21C397.532 248.346 397.549 248.449 397.558 248.517C397.568 248.585 397.573 248.644 397.573 248.697C397.573 249.022 397.484 249.285 397.303 249.49C397.123 249.694 396.883 249.797 396.584 249.797C396.336 249.797 396.121 249.708 395.935 249.53C395.75 249.351 395.61 249.096 395.517 248.76L394.28 244.093C394.249 243.978 394.226 243.866 394.21 243.755C394.195 243.645 394.188 243.533 394.188 243.417C394.188 243.218 394.277 243.062 394.457 242.946C394.638 242.83 394.884 242.773 395.193 242.773H411.926V240.259C411.926 239.328 412.002 238.735 412.15 238.483C412.3 238.231 412.581 238.106 412.993 238.106C413.364 238.106 413.642 238.211 413.828 238.421C414.014 238.631 414.107 238.945 414.107 239.364V248.76C414.107 249.179 414.014 249.492 413.828 249.702C413.642 249.912 413.364 250.017 412.993 250.017C412.581 250.017 412.3 249.892 412.15 249.64C412.002 249.388 411.926 248.796 411.926 247.863V245.256H396.816L397.511 248.21Z" fill="#2D0000"/>
<path d="M404.766 222.848C405.478 223.414 406.009 224.037 406.359 224.719C406.71 225.399 406.886 226.147 406.886 226.964C406.886 228.619 406.275 230.027 405.054 231.184C403.831 232.341 402.329 232.92 400.545 232.92C398.669 232.92 397.124 232.362 395.913 231.247C394.702 230.131 394.096 228.703 394.096 226.964C394.096 224.912 394.908 223.257 396.531 222C398.155 220.742 400.308 220.114 402.989 220.114C406.525 220.114 409.348 221.033 411.456 222.871C413.564 224.71 414.619 227.169 414.619 230.249C414.619 231.223 414.546 231.869 414.401 232.189C414.258 232.509 413.99 232.668 413.598 232.668C412.938 232.668 412.592 232.046 412.562 230.799C412.541 229.972 412.483 229.317 412.392 228.834C412.093 227.18 411.283 225.837 409.963 224.805C408.643 223.772 406.911 223.121 404.766 222.848ZM400.622 223.178C399.345 223.178 398.306 223.521 397.506 224.207C396.707 224.894 396.308 225.771 396.308 226.84C396.308 227.855 396.684 228.678 397.436 229.307C398.189 229.936 399.172 230.249 400.39 230.249C401.647 230.249 402.672 229.919 403.46 229.259C404.249 228.599 404.643 227.751 404.643 226.714C404.643 225.698 404.264 224.855 403.506 224.183C402.748 223.513 401.788 223.178 400.622 223.178Z" fill="#2D0000"/>
<path d="M404.109 211.55C403.615 212.565 402.988 213.332 402.23 213.845C401.471 214.357 400.587 214.615 399.575 214.615C397.976 214.615 396.663 214.033 395.635 212.87C394.609 211.708 394.096 210.221 394.096 208.408C394.096 206.627 394.611 205.145 395.643 203.961C396.675 202.778 397.934 202.185 399.419 202.185C400.524 202.185 401.458 202.437 402.222 202.939C402.985 203.442 403.615 204.223 404.109 205.28C404.532 204.223 405.153 203.411 405.972 202.846C406.792 202.28 407.752 201.997 408.854 201.997C410.553 201.997 411.94 202.592 413.011 203.78C414.083 204.969 414.619 206.512 414.619 208.408C414.619 210.304 414.078 211.843 412.996 213.027C411.914 214.211 410.513 214.803 408.792 214.803C407.741 214.803 406.807 214.519 405.987 213.954C405.169 213.388 404.542 212.587 404.109 211.55ZM399.579 212.068C400.602 212.068 401.439 211.726 402.089 211.039C402.74 210.354 403.066 209.476 403.066 208.408C403.066 207.33 402.737 206.446 402.082 205.76C401.426 205.074 400.58 204.73 399.547 204.73C398.556 204.73 397.736 205.074 397.09 205.76C396.445 206.446 396.122 207.33 396.122 208.408C396.122 209.486 396.445 210.366 397.09 211.047C397.736 211.729 398.565 212.068 399.579 212.068ZM408.788 212.227C409.88 212.227 410.768 211.878 411.448 211.181C412.129 210.485 412.468 209.56 412.468 208.408C412.468 207.246 412.139 206.315 411.479 205.619C410.819 204.922 409.942 204.573 408.85 204.573C407.777 204.573 406.91 204.929 406.244 205.642C405.579 206.354 405.245 207.277 405.245 208.408C405.245 209.529 405.574 210.446 406.228 211.158C406.882 211.87 407.736 212.227 408.788 212.227Z" fill="#2D0000"/>
<path d="M414.107 195.851C414.107 196.406 413.996 196.817 413.775 197.085C413.553 197.352 413.21 197.485 412.746 197.485C412.075 197.485 410.819 196.479 408.973 194.468L408.539 194.013C408.251 193.709 407.838 193.268 407.302 192.693C403.941 189.068 401.492 187.255 399.956 187.255C398.853 187.255 397.959 187.576 397.272 188.215C396.586 188.853 396.244 189.682 396.244 190.697C396.244 191.357 396.378 191.988 396.645 192.591C396.914 193.193 397.275 193.677 397.729 194.043C397.811 194.106 397.951 194.207 398.146 194.343C398.837 194.73 399.182 195.164 399.182 195.647C399.182 196.024 399.069 196.292 398.843 196.448C398.616 196.605 398.182 196.683 397.543 196.683C397.173 196.683 396.9 196.646 396.731 196.573C396.561 196.5 396.378 196.365 396.182 196.166C395.543 195.495 395.035 194.665 394.659 193.674C394.284 192.685 394.094 191.671 394.094 190.634C394.094 188.895 394.646 187.442 395.75 186.274C396.855 185.106 398.212 184.523 399.822 184.523C401.844 184.523 404.533 186.302 407.887 189.865C408.723 190.775 409.377 191.473 409.852 191.954L411.679 193.887V186.706C411.231 186.664 410.889 186.541 410.655 186.337C410.421 186.132 410.303 185.858 410.303 185.512C410.303 185.166 410.417 184.894 410.643 184.695C410.869 184.496 411.178 184.397 411.57 184.397C411.601 184.397 411.655 184.402 411.733 184.412C411.809 184.422 411.865 184.427 411.896 184.427L413.086 184.553C413.406 184.585 413.656 184.679 413.837 184.837C414.018 184.993 414.107 185.197 414.107 185.449V195.851Z" fill="#2D0000"/>
</g>
</g>
<defs>
<linearGradient id="paint0_linear_1275_72738" x1="448.865" y1="159.753" x2="448.865" y2="391.845" gradientUnits="userSpaceOnUse">
<stop stop-color="#FF8C99"/>
<stop offset="0.5" stop-color="#F17884"/>
<stop offset="1" stop-color="#E3636E"/>
</linearGradient>
<linearGradient id="paint1_linear_1275_72738" x1="448.866" y1="159.753" x2="448.866" y2="391.846" gradientUnits="userSpaceOnUse">
<stop stop-color="#FF8C99"/>
<stop offset="0.5" stop-color="#F17884"/>
<stop offset="1" stop-color="#E3636E"/>
</linearGradient>
<clipPath id="clip0_1275_72738">
<rect width="512" height="512" fill="white" transform="translate(0.740234 0.91748)"/>
</clipPath>
</defs>
</svg>
