<svg width="28" height="28" viewBox="0 0 28 28" fill="none" xmlns="http://www.w3.org/2000/svg">
<g id="Property 1=nlo">
<path id="Vector" d="M8.16667 12.8333H7V14H8.16667V12.8333Z" fill="#E1BF28"/>
<path id="Vector_2" d="M20.9997 12.8333H19.833V14H20.9997V12.8333Z" fill="#E1BF28"/>
<path id="Vector_3" d="M23.3337 10.5H22.167V11.6667H23.3337V10.5Z" fill="#FFFC00"/>
<path id="Vector_4" d="M20.9997 11.6667H19.833V12.8334H20.9997V11.6667Z" fill="#FFFC00"/>
<path id="Vector_5" d="M19.8337 12.8333H18.667V14H19.8337V12.8333Z" fill="#FFFC00"/>
<path id="Vector_6" d="M5.83366 10.5H4.66699V11.6667H5.83366V10.5Z" fill="#FFFC00"/>
<path id="Vector_7" d="M8.16667 11.6667H7V12.8334H8.16667V11.6667Z" fill="#FFFC00"/>
<path id="Vector_8" d="M9.33366 12.8333H8.16699V14H9.33366V12.8333Z" fill="#FFFC00"/>
<path id="Vector_9" d="M6.99967 11.6667H5.83301V14H6.99967V11.6667Z" fill="#A6A6A6"/>
<path id="Vector_10" d="M15.1663 14H12.833V15.1667H15.1663V14Z" fill="#E1BF28"/>
<path id="Vector_11" d="M22.1667 11.6667H21V14H22.1667V11.6667Z" fill="#A6A6A6"/>
<path id="Vector_12" d="M19.8337 14V15.1666H17.5003V16.3333H10.5003V15.1666H8.16699V14H9.33366V12.8333H12.8337V15.1666H15.167V12.8333H18.667V14H19.8337Z" fill="#A6A6A6"/>
<path id="Vector_13" d="M15.1663 12.8333H12.833V14H15.1663V12.8333Z" fill="#FFFC00"/>
<path id="Vector_14" d="M19.8337 24.5V25.6667H8.16699V24.5H9.33366V23.3334H10.5003V21H11.667V19.8334H12.8337V18.6667H15.167V19.8334H16.3337V21H17.5003V23.3334H18.667V24.5H19.8337Z" fill="#FFFC00"/>
<path id="Vector_15" d="M22.1663 23.3333V25.6667H19.833V24.5H18.6663V23.3333H17.4997V21H16.333V19.8333H15.1663V18.6667H12.833V19.8333H11.6663V21H10.4997V23.3333H9.33301V24.5H8.16634V25.6667H5.83301V23.3333H6.99967V21H8.16634V18.6667H9.33301V17.5H18.6663V18.6667H19.833V21H20.9997V23.3333H22.1663Z" fill="#E1BF28"/>
<path id="Vector_16" d="M19.8337 11.6667H8.16699V12.8334H19.8337V11.6667Z" fill="#6D6D6D"/>
<path id="Vector_17" d="M22.1663 9.33331H19.833V11.6666H22.1663V9.33331Z" fill="#6D6D6D"/>
<path id="Vector_18" d="M25.6663 11.6667V12.8333H24.4997V14H23.333V15.1667H20.9997V16.3333H18.6663V17.5H9.33301V16.3333H6.99967V15.1667H4.66634V14H3.49967V12.8333H2.33301V11.6667H3.49967V10.5H4.66634V11.6667H5.83301V14H8.16634V15.1667H10.4997V16.3333H17.4997V15.1667H19.833V14H22.1663V11.6667H23.333V10.5H24.4997V11.6667H25.6663Z" fill="#6D6D6D"/>
<path id="Vector_19" d="M8.16634 9.33331H5.83301V11.6666H8.16634V9.33331Z" fill="#6D6D6D"/>
<path id="Vector_20" d="M14.0003 8.16665V10.5H12.8337V11.6666H8.16699V8.16665H9.33366V6.99998H10.5003V5.83331H11.667V6.99998H12.8337V8.16665H14.0003Z" fill="#7DC2F9"/>
<path id="Vector_21" d="M17.5003 9.33331V10.5H15.167V11.6666H12.8337V10.5H14.0003V8.16665H12.8337V6.99998H11.667V5.83331H15.167V6.99998H16.3337V9.33331H17.5003Z" fill="#3F9EEC"/>
<path id="Vector_22" d="M19.8337 8.16665V11.6666H15.167V10.5H17.5003V9.33331H16.3337V6.99998H15.167V5.83331H17.5003V6.99998H18.667V8.16665H19.8337Z" fill="#2B6DA3"/>
</g>
</svg>
