<svg width="39" height="41" viewBox="0 0 39 41" fill="none" xmlns="http://www.w3.org/2000/svg">
<rect x="29.5" width="1" height="1" fill="#111217"/>
<rect x="28.5" width="1" height="1" fill="#111217"/>
<rect x="27.5" width="1" height="1" fill="#111217"/>
<rect x="26.5" width="1" height="1" fill="#111217"/>
<rect x="25.5" y="1" width="1" height="1" fill="#111217"/>
<rect x="24.5" y="1" width="1" height="1" fill="#111217"/>
<rect x="23.5" y="2" width="1" height="1" fill="#111217"/>
<rect x="22.5" y="3" width="1" height="1" fill="#111217"/>
<rect x="21.5" y="4" width="1" height="1" fill="#111217"/>
<rect x="21.5" y="5" width="1" height="1" fill="#111217"/>
<rect x="20.5" y="6" width="1" height="1" fill="#111217"/>
<rect x="20.5" y="7" width="1" height="1" fill="#111217"/>
<rect width="1" height="1" transform="matrix(1 0 0 -1 20.5 9)" fill="#111217"/>
<rect width="1" height="4" transform="matrix(1 0 0 -1 19.5 13)" fill="#111217"/>
<rect width="1" height="4" transform="matrix(1 0 0 -1 18.5 17)" fill="#111217"/>
<rect width="1" height="1" transform="matrix(1 0 0 -1 17.5 18)" fill="#111217"/>
<rect width="1" height="1" transform="matrix(1 0 0 -1 16.5 19)" fill="#111217"/>
<rect width="1" height="1" transform="matrix(1 0 0 -1 15.5 20)" fill="#795999"/>
<rect width="1" height="1" transform="matrix(1 0 0 -1 14.5 21)" fill="#795999"/>
<rect width="1" height="1" transform="matrix(1 0 0 -1 13.5 22)" fill="#795999"/>
<rect width="1" height="1" transform="matrix(1 0 0 -1 12.5 23)" fill="#111217"/>
<rect width="1" height="1" transform="matrix(1 0 0 -1 11.5 24)" fill="#111217"/>
<rect width="1" height="1" transform="matrix(1 0 0 -1 10.5 25)" fill="#111217"/>
<rect width="1" height="1" transform="matrix(1 0 0 -1 9.5 26)" fill="#111217"/>
<rect width="1" height="1" transform="matrix(1 0 0 -1 8.5 27)" fill="#111217"/>
<rect width="1" height="1" transform="matrix(1 0 0 -1 7.5 28)" fill="#111217"/>
<rect width="1" height="1" transform="matrix(1 0 0 -1 6.5 29)" fill="#111217"/>
<rect width="1" height="1" transform="matrix(1 0 0 -1 5.5 30)" fill="#111217"/>
<rect width="1" height="1" transform="matrix(1 0 0 -1 4.5 31)" fill="#111217"/>
<rect width="1" height="1" transform="matrix(1 0 0 -1 3.5 32)" fill="#111217"/>
<rect width="1" height="1" transform="matrix(1 0 0 -1 2.5 33)" fill="#111217"/>
<rect width="1" height="1" transform="matrix(1 0 0 -1 1.5 34)" fill="#111217"/>
<rect x="30.5" width="1" height="1" fill="#111217"/>
<rect x="31.5" width="1" height="1" fill="#111217"/>
<rect x="32.5" y="1" width="1" height="1" fill="#111217"/>
<rect x="35.5" y="9" width="1" height="1" fill="#B7B7B7"/>
<rect x="35.5" y="10" width="1" height="2" fill="#B7B7B7"/>
<rect x="33.5" y="11" width="1" height="4" fill="#B7B7B7"/>
<rect x="32.5" y="12" width="1" height="5" fill="#B7B7B7"/>
<rect x="31.5" y="13" width="1" height="3" fill="#B7B7B7"/>
<rect x="34.5" y="10" width="1" height="4" fill="#B7B7B7"/>
<rect x="26.5" y="2" width="5" height="1" fill="#B7B7B7"/>
<rect x="24.5" y="3" width="7" height="1" fill="#B7B7B7"/>
<rect x="24.5" y="2" width="2" height="1" fill="#B7B7B7"/>
<rect x="23.5" y="3" width="1" height="1" fill="#B7B7B7"/>
<rect x="19.5" y="13" width="1" height="7" fill="#B7B7B7"/>
<rect x="18.5" y="17" width="1" height="1" fill="#B7B7B7"/>
<rect x="17.5" y="18" width="1" height="1" fill="#B7B7B7"/>
<rect x="16.5" y="19" width="1" height="1" fill="#B7B7B7"/>
<rect x="15.5" y="20" width="1" height="1" fill="#C084FC"/>
<rect x="14.5" y="21" width="1" height="1" fill="#C084FC"/>
<rect x="13.5" y="22" width="1" height="1" fill="#C084FC"/>
<rect x="12.5" y="23" width="1" height="1" fill="#B7B7B7"/>
<rect x="11.5" y="24" width="1" height="1" fill="#B7B7B7"/>
<rect x="10.5" y="25" width="1" height="1" fill="#B7B7B7"/>
<rect x="9.5" y="26" width="1" height="1" fill="#B7B7B7"/>
<rect x="8.5" y="27" width="1" height="1" fill="#B7B7B7"/>
<rect x="7.5" y="28" width="1" height="1" fill="#B7B7B7"/>
<rect x="6.5" y="29" width="1" height="1" fill="#B7B7B7"/>
<rect x="5.5" y="30" width="1" height="1" fill="#B7B7B7"/>
<rect x="4.5" y="31" width="1" height="1" fill="#B7B7B7"/>
<rect x="3.5" y="32" width="1" height="1" fill="#B7B7B7"/>
<rect x="6.5" y="33" width="1" height="1" fill="#B7B7B7"/>
<rect x="6.5" y="34" width="1" height="1" fill="#B7B7B7"/>
<rect x="7.5" y="34" width="1" height="1" fill="#B7B7B7"/>
<rect x="7.5" y="35" width="1" height="1" fill="#B7B7B7"/>
<rect x="8.5" y="35" width="1" height="1" fill="#B7B7B7"/>
<rect x="2.5" y="33" width="1" height="1" fill="#B7B7B7"/>
<rect x="4.5" y="35" width="2" height="3" fill="#B7B7B7"/>
<rect x="2.5" y="38" width="1" height="1" fill="#B7B7B7"/>
<rect x="3.5" y="36" width="4" height="1" fill="#B7B7B7"/>
<rect x="1.5" y="34" width="1" height="4" fill="#B7B7B7"/>
<rect x="22.5" y="4" width="7" height="2" fill="#B7B7B7"/>
<rect x="22.5" y="6" width="5" height="2" fill="#B7B7B7"/>
<rect x="21.5" y="8" width="5" height="2" fill="#B7B7B7"/>
<rect x="20.5" y="10" width="5" height="10" fill="#B7B7B7"/>
<rect x="22.5" y="20" width="4" height="2" fill="#B7B7B7"/>
<rect x="25.5" y="18" width="6" height="2" fill="#B7B7B7"/>
<rect x="25.5" y="17" width="5" height="1" fill="#B7B7B7"/>
<rect x="25.5" y="16" width="4" height="1" fill="#B7B7B7"/>
<rect x="25.5" y="15" width="3" height="1" fill="#B7B7B7"/>
<rect x="25.5" y="14" width="2" height="1" fill="#B7B7B7"/>
<rect x="31.5" y="19" width="1" height="1" fill="#B7B7B7"/>
<rect x="21.5" y="6" width="1" height="3" fill="#B7B7B7"/>
<rect x="20.5" y="9" width="1" height="5" fill="#B7B7B7"/>
<rect x="31.5" y="2" width="1" height="1" fill="#8B8B8B"/>
<rect x="31.5" y="3" width="1" height="1" fill="#8B8B8B"/>
<rect x="29.5" y="5" width="1" height="1" fill="#8B8B8B"/>
<rect x="27.5" y="6" width="2" height="1" fill="#8B8B8B"/>
<rect x="27.5" y="7" width="1" height="1" fill="#8B8B8B"/>
<rect x="26.5" y="8" width="1" height="1" fill="#8B8B8B"/>
<rect x="25.5" y="11" width="1" height="3" fill="#8B8B8B"/>
<rect x="26.5" y="13" width="1" height="1" fill="#8B8B8B"/>
<rect x="27.5" y="14" width="1" height="1" fill="#8B8B8B"/>
<rect x="28.5" y="15" width="1" height="1" fill="#8B8B8B"/>
<rect x="29.5" y="16" width="1" height="1" fill="#8B8B8B"/>
<rect x="30.5" y="14" width="1" height="1" fill="#8B8B8B"/>
<rect x="30.5" y="17" width="1" height="1" fill="#8B8B8B"/>
<rect x="31.5" y="18" width="1" height="1" fill="#8B8B8B"/>
<rect x="26.5" y="20" width="5" height="1" fill="#8B8B8B"/>
<rect x="2.5" y="34" width="2" height="1" fill="#8B8B8B"/>
<rect x="2.5" y="35" width="1" height="1" fill="#8B8B8B"/>
<rect x="2.5" y="37" width="1" height="1" fill="#8B8B8B"/>
<rect x="3.5" y="38" width="1" height="2" fill="#8B8B8B"/>
<rect x="4.5" y="39" width="3" height="1" fill="#8B8B8B"/>
<rect x="6.5" y="38" width="2" height="1" fill="#8B8B8B"/>
<rect x="7.5" y="37" width="2" height="1" fill="#8B8B8B"/>
<rect x="8.5" y="36" width="2" height="1" fill="#8B8B8B"/>
<rect x="9.5" y="35" width="2" height="1" fill="#8B8B8B"/>
<rect x="9.5" y="34" width="2" height="1" fill="#8B8B8B"/>
<rect x="10.5" y="33" width="2" height="1" fill="#8B8B8B"/>
<rect x="11.5" y="32" width="2" height="1" fill="#8B8B8B"/>
<rect x="12.5" y="31" width="2" height="1" fill="#8B8B8B"/>
<rect x="13.5" y="30" width="2" height="1" fill="#8B8B8B"/>
<rect x="14.5" y="29" width="2" height="1" fill="#8B8B8B"/>
<rect width="2" height="1" transform="matrix(1 0 0 -1 15.5 29)" fill="#8B8B8B"/>
<rect width="2" height="1" transform="matrix(1 0 0 -1 16.5 28)" fill="#8B8B8B"/>
<rect width="2" height="1" transform="matrix(1 0 0 -1 17.5 27)" fill="#8B8B8B"/>
<rect width="2" height="1" transform="matrix(1 0 0 -1 18.5 26)" fill="#8B8B8B"/>
<rect width="2" height="1" transform="matrix(1 0 0 -1 19.5 25)" fill="#8B8B8B"/>
<rect x="3.5" y="33" width="3" height="1" fill="#8B8B8B"/>
<rect x="4.5" y="32" width="2" height="1" fill="#8B8B8B"/>
<rect x="5.5" y="31" width="1" height="1" fill="#8B8B8B"/>
<rect x="6.5" y="30" width="1" height="1" fill="#8B8B8B"/>
<rect x="7.5" y="29" width="1" height="1" fill="#8B8B8B"/>
<rect x="8.5" y="28" width="1" height="1" fill="#8B8B8B"/>
<rect x="9.5" y="27" width="1" height="1" fill="#8B8B8B"/>
<rect x="10.5" y="26" width="1" height="1" fill="#8B8B8B"/>
<rect x="11.5" y="25" width="1" height="1" fill="#8B8B8B"/>
<rect x="12.5" y="24" width="1" height="1" fill="#8B8B8B"/>
<rect x="13.5" y="23" width="1" height="1" fill="#8B8B8B"/>
<rect x="14.5" y="22" width="1" height="1" fill="#C084FC"/>
<rect x="15.5" y="21" width="1" height="1" fill="#C084FC"/>
<rect x="16.5" y="21" width="1" height="1" fill="#C084FC"/>
<rect x="15.5" y="22" width="1" height="1" fill="#C084FC"/>
<rect x="14.5" y="23" width="1" height="1" fill="#C084FC"/>
<rect x="13.5" y="24" width="1" height="1" fill="#8B8B8B"/>
<rect x="12.5" y="25" width="1" height="1" fill="#8B8B8B"/>
<rect x="11.5" y="26" width="1" height="1" fill="#8B8B8B"/>
<rect x="10.5" y="27" width="1" height="1" fill="#8B8B8B"/>
<rect x="9.5" y="28" width="1" height="1" fill="#8B8B8B"/>
<rect x="8.5" y="29" width="1" height="1" fill="#8B8B8B"/>
<rect x="7.5" y="30" width="1" height="1" fill="#8B8B8B"/>
<rect x="6.5" y="31" width="1" height="1" fill="#8B8B8B"/>
<rect x="16.5" y="20" width="2" height="1" fill="#C084FC"/>
<rect x="17.5" y="19" width="1" height="1" fill="#8B8B8B"/>
<rect x="21.5" y="21" width="1" height="1" fill="#8B8B8B"/>
<rect x="21.5" y="22" width="1" height="2" fill="#8B8B8B"/>
<rect x="22.5" y="22" width="1" height="1" fill="#8B8B8B"/>
<rect x="18.5" y="20" width="4" height="1" fill="#8B8B8B"/>
<rect x="18.5" y="18" width="1" height="2" fill="#8B8B8B"/>
<rect x="29.5" y="4" width="2" height="1" fill="#8B8B8B"/>
<rect x="32.5" y="2" width="1" height="1" fill="#474747"/>
<rect x="26.5" y="1" width="6" height="1" fill="#474747"/>
<rect x="33.5" y="2" width="1" height="1" fill="#474747"/>
<rect x="32.5" y="3" width="1" height="1" fill="#474747"/>
<rect x="31.5" y="4" width="1" height="1" fill="#474747"/>
<rect x="30.5" y="5" width="1" height="1" fill="#474747"/>
<rect x="29.5" y="6" width="1" height="1" fill="#474747"/>
<rect x="28.5" y="7" width="1" height="1" fill="#474747"/>
<rect x="27.5" y="8" width="1" height="1" fill="#474747"/>
<rect x="26.5" y="9" width="1" height="1" fill="#474747"/>
<rect x="25.5" y="10" width="1" height="1" fill="#474747"/>
<rect x="26.5" y="11" width="1" height="1" fill="#474747"/>
<rect x="26.5" y="12" width="1" height="1" fill="#474747"/>
<rect x="27.5" y="13" width="1" height="1" fill="#474747"/>
<rect x="28.5" y="14" width="1" height="1" fill="#474747"/>
<rect x="29.5" y="15" width="1" height="1" fill="#474747"/>
<rect x="30.5" y="16" width="1" height="1" fill="#474747"/>
<rect x="31.5" y="17" width="1" height="1" fill="#474747"/>
<rect x="34.5" y="14" width="2" height="1" fill="#474747"/>
<rect x="35.5" y="13" width="2" height="1" fill="#474747"/>
<rect x="35.5" y="12" width="2" height="1" fill="#474747"/>
<rect x="36.5" y="10" width="1" height="2" fill="#474747"/>
<rect x="36.5" y="8" width="1" height="2" fill="#474747"/>
<rect x="32.5" y="18" width="1" height="1" fill="#474747"/>
<rect x="33.5" y="19" width="1" height="1" fill="#474747"/>
<rect x="32.5" y="19" width="1" height="1" fill="#474747"/>
<rect x="31.5" y="20" width="1" height="1" fill="#474747"/>
<rect x="32.5" y="20" width="1" height="1" fill="#474747"/>
<rect x="23.5" y="23" width="1" height="1" fill="#474747"/>
<rect x="25.5" y="21" width="1" height="1" fill="#474747"/>
<rect x="22.5" y="23" width="1" height="1" fill="#474747"/>
<rect x="23.5" y="22" width="3" height="1" fill="#474747"/>
<rect x="17.5" y="21" width="1" height="1" fill="#C084FC"/>
<rect x="18.5" y="21" width="1" height="1" fill="#474747"/>
<rect x="19.5" y="21" width="1" height="1" fill="#474747"/>
<rect x="19.5" y="22" width="1" height="1" fill="#474747"/>
<rect x="19.5" y="23" width="1" height="1" fill="#474747"/>
<rect x="18.5" y="24" width="1" height="1" fill="#474747"/>
<rect x="17.5" y="25" width="1" height="1" fill="#474747"/>
<rect x="16.5" y="26" width="1" height="1" fill="#474747"/>
<rect x="15.5" y="27" width="1" height="1" fill="#474747"/>
<rect x="14.5" y="28" width="1" height="1" fill="#474747"/>
<rect x="13.5" y="29" width="1" height="1" fill="#474747"/>
<rect x="12.5" y="30" width="1" height="1" fill="#474747"/>
<rect x="11.5" y="31" width="1" height="1" fill="#474747"/>
<rect x="10.5" y="32" width="1" height="1" fill="#474747"/>
<rect x="9.5" y="33" width="1" height="1" fill="#474747"/>
<rect x="8.5" y="34" width="1" height="1" fill="#474747"/>
<rect x="8.5" y="33" width="1" height="1" fill="#474747"/>
<rect x="7.5" y="33" width="1" height="1" fill="#474747"/>
<rect x="7.5" y="32" width="1" height="1" fill="#474747"/>
<rect x="7.5" y="32" width="1" height="1" fill="#474747"/>
<rect x="6.5" y="32" width="1" height="1" fill="#474747"/>
<rect x="7.5" y="31" width="1" height="1" fill="#474747"/>
<rect x="8.5" y="30" width="1" height="1" fill="#474747"/>
<rect x="9.5" y="29" width="1" height="1" fill="#474747"/>
<rect x="10.5" y="28" width="1" height="1" fill="#474747"/>
<rect x="11.5" y="27" width="1" height="1" fill="#474747"/>
<rect x="12.5" y="26" width="1" height="1" fill="#474747"/>
<rect x="13.5" y="25" width="1" height="1" fill="#474747"/>
<rect x="14.5" y="24" width="1" height="1" fill="#474747"/>
<rect x="15.5" y="23" width="1" height="1" fill="#C084FC"/>
<rect x="16.5" y="22" width="2" height="1" fill="#C084FC"/>
<rect x="16.5" y="23" width="3" height="1" fill="#474747"/>
<rect x="16.5" y="23" width="1" height="1" fill="#C084FC"/>
<rect x="15.5" y="24" width="3" height="1" fill="#474747"/>
<rect x="15.5" y="24" width="1" height="1" fill="#C084FC"/>
<rect x="14.5" y="25" width="3" height="1" fill="#474747"/>
<rect x="13.5" y="26" width="3" height="1" fill="#474747"/>
<rect x="13.5" y="26" width="3" height="1" fill="#474747"/>
<rect x="12.5" y="27" width="3" height="1" fill="#474747"/>
<rect x="11.5" y="28" width="3" height="1" fill="#474747"/>
<rect x="10.5" y="29" width="3" height="1" fill="#474747"/>
<rect x="9.5" y="30" width="3" height="1" fill="#474747"/>
<rect x="8.5" y="31" width="3" height="1" fill="#474747"/>
<rect x="8.5" y="32" width="2" height="1" fill="#474747"/>
<rect x="21.5" y="24" width="1" height="1" fill="#8B8B8B"/>
<rect x="20.5" y="21" width="1" height="3" fill="#8B8B8B"/>
<rect x="20.5" y="25" width="1" height="1" fill="#8B8B8B"/>
<rect x="19.5" y="26" width="1" height="1" fill="#8B8B8B"/>
<rect x="18.5" y="27" width="1" height="1" fill="#8B8B8B"/>
<rect x="17.5" y="28" width="1" height="1" fill="#8B8B8B"/>
<rect x="16.5" y="29" width="1" height="1" fill="#8B8B8B"/>
<rect x="15.5" y="30" width="1" height="1" fill="#8B8B8B"/>
<rect x="14.5" y="31" width="1" height="1" fill="#8B8B8B"/>
<rect x="13.5" y="32" width="1" height="1" fill="#8B8B8B"/>
<rect x="12.5" y="33" width="1" height="1" fill="#8B8B8B"/>
<rect x="11.5" y="34" width="1" height="1" fill="#8B8B8B"/>
<rect x="20.5" y="26" width="1" height="1" fill="#8B8B8B"/>
<rect x="26.5" y="21" width="6" height="1" fill="#474747"/>
<rect x="34.5" y="18" width="1" height="1" fill="#474747"/>
<rect x="33.5" y="15" width="3" height="3" fill="#474747"/>
<rect x="33.5" y="1" width="1" height="1" fill="#111217"/>
<rect x="34.5" y="2" width="1" height="1" fill="#111217"/>
<rect x="33.5" y="3" width="1" height="1" fill="#111217"/>
<rect x="32.5" y="4" width="1" height="1" fill="#111217"/>
<rect x="31.5" y="5" width="1" height="1" fill="#111217"/>
<rect x="30.5" y="6" width="1" height="1" fill="#111217"/>
<rect x="29.5" y="7" width="1" height="1" fill="#111217"/>
<rect x="28.5" y="8" width="1" height="1" fill="#111217"/>
<rect x="27.5" y="9" width="1" height="1" fill="#111217"/>
<rect x="26.5" y="10" width="1" height="1" fill="#111217"/>
<rect x="27.5" y="11" width="1" height="1" fill="#111217"/>
<rect x="27.5" y="12" width="1" height="1" fill="#111217"/>
<rect x="28.5" y="13" width="1" height="1" fill="#111217"/>
<rect x="29.5" y="13" width="1" height="1" fill="#111217"/>
<rect x="29.5" y="14" width="1" height="1" fill="#111217"/>
<rect x="30.5" y="15" width="1" height="1" fill="#111217"/>
<rect x="31.5" y="16" width="1" height="1" fill="#111217"/>
<rect x="32.5" y="17" width="1" height="1" fill="#111217"/>
<rect x="33.5" y="18" width="1" height="1" fill="#111217"/>
<rect x="34.5" y="19" width="1" height="1" fill="#111217"/>
<rect x="33.5" y="20" width="1" height="1" fill="#111217"/>
<rect x="32.5" y="21" width="1" height="1" fill="#111217"/>
<rect x="21.5" y="25" width="1" height="1" fill="#111217"/>
<rect x="20.5" y="26" width="1" height="1" fill="#111217"/>
<rect x="19.5" y="27" width="1" height="1" fill="#111217"/>
<rect x="18.5" y="28" width="1" height="1" fill="#111217"/>
<rect x="17.5" y="29" width="1" height="1" fill="#111217"/>
<rect x="16.5" y="30" width="1" height="1" fill="#111217"/>
<rect x="12.5" y="34" width="1" height="1" fill="#111217"/>
<rect x="11.5" y="35" width="1" height="1" fill="#111217"/>
<rect x="10.5" y="36" width="1" height="1" fill="#111217"/>
<rect x="9.5" y="37" width="1" height="1" fill="#111217"/>
<rect x="8.5" y="38" width="1" height="1" fill="#111217"/>
<rect x="7.5" y="39" width="1" height="1" fill="#111217"/>
<rect x="6.5" y="40" width="1" height="1" fill="#111217"/>
<rect x="5.5" y="40" width="1" height="1" fill="#111217"/>
<rect x="4.5" y="40" width="1" height="1" fill="#111217"/>
<rect x="3.5" y="40" width="1" height="1" fill="#111217"/>
<rect x="2.5" y="39" width="1" height="1" fill="#111217"/>
<rect x="1.5" y="38" width="1" height="1" fill="#111217"/>
<rect x="2.5" y="36" width="1" height="1" fill="#111217"/>
<rect x="3.5" y="35" width="1" height="1" fill="#111217"/>
<rect x="4.5" y="34" width="1" height="1" fill="#111217"/>
<rect x="5.5" y="34" width="1" height="1" fill="#111217"/>
<rect x="6.5" y="35" width="1" height="1" fill="#111217"/>
<rect x="7.5" y="36" width="1" height="1" fill="#111217"/>
<rect x="6.5" y="37" width="1" height="1" fill="#111217"/>
<rect x="5.5" y="38" width="1" height="1" fill="#111217"/>
<rect x="4.5" y="38" width="1" height="1" fill="#111217"/>
<rect x="3.5" y="37" width="1" height="1" fill="#111217"/>
<rect x="0.5" y="34" width="1" height="4" fill="#111217"/>
<rect x="31.5" y="22" width="1" height="1" fill="#111217"/>
<rect x="26.5" y="22" width="5" height="1" fill="#111217"/>
<rect x="24.5" y="23" width="2" height="1" fill="#111217"/>
<rect x="22.5" y="24" width="2" height="1" fill="#111217"/>
<rect x="35.5" y="18" width="1" height="1" fill="#111217"/>
<rect x="30.5" y="13" width="1" height="1" fill="#111217"/>
<rect x="31.5" y="12" width="1" height="1" fill="#111217"/>
<rect x="32.5" y="11" width="1" height="1" fill="#111217"/>
<rect x="33.5" y="10" width="1" height="1" fill="#111217"/>
<rect x="34.5" y="9" width="1" height="1" fill="#111217"/>
<rect x="35.5" y="8" width="1" height="1" fill="#111217"/>
<rect x="36.5" y="7" width="1" height="1" fill="#111217"/>
<rect x="37.5" y="8" width="1" height="6" fill="#111217"/>
<rect x="36.5" y="14" width="1" height="4" fill="#111217"/>
<rect width="1" height="1" transform="matrix(1 0 0 -1 13.5 24)" fill="#111217"/>
<rect width="1" height="1" transform="matrix(1 0 0 -1 14.5 25)" fill="#111217"/>
<rect width="1" height="1" transform="matrix(1 0 0 -1 15.5 26)" fill="#111217"/>
<rect width="1" height="1" transform="matrix(1 0 0 -1 16.5 25)" fill="#111217"/>
<rect width="1" height="1" transform="matrix(1 0 0 -1 16.5 28)" fill="#111217"/>
<rect width="1" height="1" transform="matrix(1 0 0 -1 16.5 29)" fill="#111217"/>
<rect width="1" height="1" transform="matrix(1 0 0 -1 17.5 24)" fill="#111217"/>
<rect width="1" height="1" transform="matrix(1 0 0 -1 17.5 27)" fill="#111217"/>
<rect width="1" height="1" transform="matrix(1 0 0 -1 18.5 26)" fill="#111217"/>
<rect width="1" height="1" transform="matrix(1 0 0 -1 19.5 27)" fill="#111217"/>
<rect width="1" height="1" transform="matrix(1 0 0 -1 16.5 31)" fill="#111217"/>
<rect width="1" height="1" transform="matrix(1 0 0 -1 15.5 32)" fill="#111217"/>
<rect width="1" height="1" transform="matrix(1 0 0 -1 14.5 33)" fill="#111217"/>
<rect width="1" height="1" transform="matrix(1 0 0 -1 13.5 34)" fill="#111217"/>
<rect width="1" height="1" transform="matrix(1 0 0 -1 11.5 35)" fill="#111217"/>
<rect width="1" height="1" transform="matrix(1 0 0 -1 17.5 28)" fill="#C084FC"/>
<rect width="1" height="1" transform="matrix(1 0 0 -1 18.5 27)" fill="#C084FC"/>
<rect width="1" height="1" transform="matrix(1 0 0 -1 18.5 28)" fill="#C084FC"/>
<rect width="1" height="1" transform="matrix(1 0 0 -1 17.5 29)" fill="#C084FC"/>
<rect width="1" height="1" transform="matrix(1 0 0 -1 18.5 23)" fill="#111217"/>
<rect width="1" height="1" transform="matrix(1 0 0 -1 18.5 22)" fill="#111217"/>
<rect width="1" height="1" transform="matrix(1 0 0 -1 17.5 21)" fill="#111217"/>
<rect width="1" height="1" transform="matrix(1 0 0 -1 16.5 20)" fill="#111217"/>
</svg>
