<svg width="121" height="120" viewBox="0 0 121 120" fill="none" xmlns="http://www.w3.org/2000/svg">
<path fill-rule="evenodd" clip-rule="evenodd" d="M33 41.0001V46.0001H28V61H33V66H48V61H53V46.0001H48V41.0001H33ZM33 46.0001H43V56H33V46.0001Z" fill="white"/>
<path d="M58 96H64V101H69V111H53V101H58V96Z" fill="white"/>
<path d="M89 41.0001V46.0001H79V56H89V46.0001H94V61H89V66H74V61H69V46.0001H74V41.0001H89Z" fill="white"/>
<path fill-rule="evenodd" clip-rule="evenodd" d="M69 51H53L53 61H48V66L28 66V71H23V81H28V86H43V91H38V96H33V106H28V101H23V111H38V106H43V111H48V106H53L53 101H58V96H64V101H69L69 106H74V111H79V106H84V111H99V101H94V106H89V96H84V91H79V86H94V81H99V71H94V66L74 66V61H69L69 51Z" fill="#CCBD98"/>
<path d="M74 36H89L89 41.0001H74L74 36Z" fill="black"/>
<path d="M69 46.0001H74V41.0001L69 41L69 46.0001Z" fill="black"/>
<path d="M53 46.0001L53 51H69L69 46.0001H53Z" fill="black"/>
<path d="M48 41.0001V46.0001H53L53 41L48 41.0001Z" fill="black"/>
<path d="M33 41.0001H48L48 36H33L33 41.0001Z" fill="black"/>
<path d="M33 46.0001V41.0001L28 41L28 46.0001L23 46V61L28 61L28 66L23 66L23 71L18 71V81L23 81L23 86L28 86L28 91H33L33 96L23 96L23 101L18 101V111L23 111L23 116H38L38 111H43L43 116H48L48 111L53 111L53 116H69L69 111L74 111L74 116H79L79 111H84L84 116H99L99 111L104 111V101L99 101L99 96L89 96L89 91H94L94 86L99 86L99 81L104 81V71L99 71L99 66L94 66L94 61L99 61V46L94 46.0001L94 41L89 41.0001V46.0001H79V56H89V46.0001H94V61H89V66L94 66V71H99V81H94V86H79V91H84V96H89V106H94V101H99V111H84V106H79V111H74V106H69L69 111H53L53 106H48V111H43V106H38V111H23V101H28V106H33V96H38V91H43V86H28V81H23V71H28V66L33 66V61H28V46.0001H33Z" fill="black"/>
<path d="M33 46.0001H43V56H33V46.0001Z" fill="black"/>
<path d="M43 71H38V76H43V81H79V76H84V71H79V76H43V71Z" fill="black"/>
<path fill-rule="evenodd" clip-rule="evenodd" d="M33 41.0001V46.0001H28V61H33V66H48V61H53V46.0001H48V41.0001H33ZM33 46.0001H43V56H33V46.0001Z" fill="white"/>
<path d="M58 96H64V101H69V111H53V101H58V96Z" fill="white"/>
<path d="M89 41.0001V46.0001H79V56H89V46.0001H94V61H89V66H74V61H69V46.0001H74V41.0001H89Z" fill="white"/>
<path d="M74 36H89L89 41.0001H74L74 36Z" fill="black"/>
<path d="M69 46.0001H74V41.0001L69 41L69 46.0001Z" fill="black"/>
<path d="M53 46.0001L53 51H69L69 46.0001H53Z" fill="black"/>
<path d="M48 41.0001V46.0001H53L53 41L48 41.0001Z" fill="black"/>
<path d="M33 41.0001H48L48 36H33L33 41.0001Z" fill="black"/>
<path d="M33 46.0001V41.0001L28 41L28 46.0001L23 46V61L28 61L28 66L23 66L23 71L18 71V81L23 81L23 86L28 86L28 91H33L33 96L23 96L23 101L18 101V111L23 111L23 116H38L38 111H43L43 116H48L48 111L53 111L53 116H69L69 111L74 111L74 116H79L79 111H84L84 116H99L99 111L104 111V101L99 101L99 96L89 96L89 91H94L94 86L99 86L99 81L104 81V71L99 71L99 66L94 66L94 61L99 61V46L94 46.0001L94 41L89 41.0001V46.0001H79V56H89V46.0001H94V61H89V66L94 66V71H99V81H94V86H79V91H84V96H89V106H94V101H99V111H84V106H79V111H74V106H69L69 111H53L53 106H48V111H43V106H38V111H23V101H28V106H33V96H38V91H43V86H28V81H23V71H28V66L33 66V61H28V46.0001H33Z" fill="black"/>
<path d="M33 46.0001H43V56H33V46.0001Z" fill="black"/>
<path d="M43 71H38V76H43V81H79V76H84V71H79V76H43V71Z" fill="black"/>
<path d="M41.9998 95H46.9998V100H41.9998V95Z" fill="#CCBD98"/>
<path d="M71.9998 95H74.9998V98H71.9998V95Z" fill="#CCBD98"/>
<path d="M81.9998 80H85.9998V84H81.9998V80Z" fill="#CCBD98"/>
<path d="M47.9998 90H50.9998V93H47.9998V90Z" fill="#CCBD98"/>
<path d="M41.9998 95H46.9998V100H41.9998V95Z" fill="#CCBD98"/>
<path d="M71.9998 95H74.9998V98H71.9998V95Z" fill="#CCBD98"/>
<path d="M81.9998 80H85.9998V84H81.9998V80Z" fill="#CCBD98"/>
<path d="M47.9998 90H50.9998V93H47.9998V90Z" fill="#CCBD98"/>
<path d="M50 102H56V105H53V108H50V102Z" fill="#C13B39"/>
<path d="M65 102H68V105H65V102Z" fill="#B21715"/>
<path d="M62 105H65V111H62V105Z" fill="#B21715"/>
<path d="M59 111H62V117H59V111Z" fill="#B21715"/>
<path d="M71 99H68V105H65V111H62V117H65V111H68V105H71V99Z" fill="#8F0B0C"/>
<path d="M71 99H74V105H71V99Z" fill="#BA2B1E"/>
<path d="M71 105V117H65V111H68V105H71Z" fill="#BA2B1E"/>
<path d="M50 99H53V102H50V99Z" fill="#BB2D2C"/>
<path d="M56 102H65V105H62V111H59V117H53V105H56V102Z" fill="#BB2D2C"/>
<path fill-rule="evenodd" clip-rule="evenodd" d="M53 87H50V90H53V96H56V99H53V102H56V99H59V102H62V99H65V102H68V99H65V96H62V93H65V90H68V87H65V90H62V93H59V96H56V90H53V87ZM59 96H62V99H59V96Z" fill="#E49C19"/>
<path d="M50 90H53V96H50V90Z" fill="#D29B36"/>
<path d="M62 93H65V96H62V93Z" fill="#D29B36"/>
<path d="M65 90H68V93H65V90Z" fill="#D29B36"/>
<path d="M68 93H71V96H68V93Z" fill="#D29B36"/>
<path d="M71 96H74V99H71V96Z" fill="#D29B36"/>
<path d="M65 96H68V99H65V96Z" fill="#D29B36"/>
<path d="M56 87H59V96H56V87Z" fill="#E4CF5D"/>
<path d="M56 96V99H53V96H56Z" fill="#E4CF5D"/>
<path d="M62 99V96H59V99H62Z" fill="#E4CF5D"/>
<path d="M62 99H65V102H62V99Z" fill="#E4CF5D"/>
<path d="M68 93H65V96H68V93Z" fill="#E4CF5D"/>
<path d="M71 90H68V93H71V90Z" fill="#E4CF5D"/>
<path d="M71 90H74V87H71V90Z" fill="#E4CF5D"/>
<path d="M50 90H47V96H50V99H53V96H50V90Z" fill="#DDCF4B"/>
<path d="M74 93H71V96H68V99H71V96H74V93Z" fill="#DDCF4B"/>
<path d="M56 99H59V102H56V99Z" fill="#DDCF4B"/>
<path d="M50 99H47V108H50V117H53V120H71V117H74V105H77V99H74V105H71V117H53V108H50V99Z" fill="#361A0A"/>
<path d="M50 102H56V105H53V108H50V102Z" fill="#C13B39"/>
<path d="M65 102H68V105H65V102Z" fill="#B21715"/>
<path d="M62 105H65V111H62V105Z" fill="#B21715"/>
<path d="M59 111H62V117H59V111Z" fill="#B21715"/>
<path d="M71 99H68V105H65V111H62V117H65V111H68V105H71V99Z" fill="#8F0B0C"/>
<path d="M71 99H74V105H71V99Z" fill="#BA2B1E"/>
<path d="M71 105V117H65V111H68V105H71Z" fill="#BA2B1E"/>
<path d="M50 99H53V102H50V99Z" fill="#BB2D2C"/>
<path d="M56 102H65V105H62V111H59V117H53V105H56V102Z" fill="#BB2D2C"/>
<path fill-rule="evenodd" clip-rule="evenodd" d="M53 87H50V90H53V96H56V99H53V102H56V99H59V102H62V99H65V102H68V99H65V96H62V93H65V90H68V87H65V90H62V93H59V96H56V90H53V87ZM59 96H62V99H59V96Z" fill="#E49C19"/>
<path d="M50 90H53V96H50V90Z" fill="#D29B36"/>
<path d="M62 93H65V96H62V93Z" fill="#D29B36"/>
<path d="M65 90H68V93H65V90Z" fill="#D29B36"/>
<path d="M68 93H71V96H68V93Z" fill="#D29B36"/>
<path d="M71 96H74V99H71V96Z" fill="#D29B36"/>
<path d="M65 96H68V99H65V96Z" fill="#D29B36"/>
<path d="M56 87H59V96H56V87Z" fill="#E4CF5D"/>
<path d="M56 96V99H53V96H56Z" fill="#E4CF5D"/>
<path d="M62 99V96H59V99H62Z" fill="#E4CF5D"/>
<path d="M62 99H65V102H62V99Z" fill="#E4CF5D"/>
<path d="M68 93H65V96H68V93Z" fill="#E4CF5D"/>
<path d="M71 90H68V93H71V90Z" fill="#E4CF5D"/>
<path d="M71 90H74V87H71V90Z" fill="#E4CF5D"/>
<path d="M50 90H47V96H50V99H53V96H50V90Z" fill="#DDCF4B"/>
<path d="M74 93H71V96H68V99H71V96H74V93Z" fill="#DDCF4B"/>
<path d="M56 99H59V102H56V99Z" fill="#DDCF4B"/>
<path d="M50 99H47V108H50V117H53V120H71V117H74V105H77V99H74V105H71V117H53V108H50V99Z" fill="#361A0A"/>
<path d="M17.6267 49H51.6267V52H48.6267V55H45.6267V58H42.6267V61H39.6267V64H23.6267V61H20.6267V58H17.6267V49Z" fill="#2B3131"/>
<path d="M75.6267 49H109.627V52H106.627V55H103.627V58H100.627V61H97.6267V64H81.6267V61H78.6267V58H75.6267V49Z" fill="#2B3131"/>
<path d="M20.6267 61H23.6267V64H20.6267V61Z" fill="#1B2527"/>
<path d="M17.6267 58V61H20.6267V58H17.6267Z" fill="#1B2527"/>
<path d="M17.6267 58H14.6267V49H17.6267V58Z" fill="#1B2527"/>
<path d="M23.6267 64H36.6267V67H23.6267V64Z" fill="#1B2527"/>
<path d="M72.6267 55V58H75.6267V61H78.6267V64H81.6267V67H94.6267V64H81.6267V61H78.6267V58H75.6267V49H66.6267V52H69.6267V55H72.6267Z" fill="#1B2527"/>
<path d="M11.6267 46H54.6267V49H63.6267V46H109.627V55H106.627V49H66.6267V52H51.6267V49H11.6267V46Z" fill="#FE991D"/>
<path d="M48.6267 55H51.6267V52H48.6267V55Z" fill="#FE991D"/>
<path d="M48.6267 55V58H45.6267V55H48.6267Z" fill="#FE991D"/>
<path d="M106.627 55V58H103.627V55H106.627Z" fill="#FE991D"/>
<path d="M11.6267 49H14.6267V58H11.6267V49Z" fill="#CA5C00"/>
<path d="M14.6267 58H17.6267V61H14.6267V58Z" fill="#CA5C00"/>
<path d="M72.6267 58H75.6267V61H72.6267V58Z" fill="#CA5C00"/>
<path d="M69.6267 55H72.6267V58H69.6267V55Z" fill="#CA5C00"/>
<path d="M66.6267 52H69.6267V55H66.6267V52Z" fill="#CA5C00"/>
<path d="M17.6267 61H20.6267V64H17.6267V61Z" fill="#CA5C00"/>
<path d="M75.6267 61H78.6267V64H75.6267V61Z" fill="#CA5C00"/>
<path d="M20.6267 64H23.6267V67H20.6267V64Z" fill="#CA5C00"/>
<path d="M78.6267 64H81.6267V67H78.6267V64Z" fill="#CA5C00"/>
<path d="M36.6267 64H39.6267V67H36.6267V64Z" fill="#CA5C00"/>
<path d="M94.6267 64H97.6267V67H94.6267V64Z" fill="#CA5C00"/>
<path d="M39.6267 61H42.6267V64H39.6267V61Z" fill="#CA5C00"/>
<path d="M97.6267 61H100.627V64H97.6267V61Z" fill="#CA5C00"/>
<path d="M42.6267 58H45.6267V61H42.6267V58Z" fill="#CA5C00"/>
<path d="M100.627 58H103.627V61H100.627V58Z" fill="#CA5C00"/>
<path d="M23.6267 67H36.6267V70H23.6267V67Z" fill="#CA5C00"/>
<path d="M81.6267 67H94.6267V70H81.6267V67Z" fill="#CA5C00"/>
<path d="M33.6267 58H36.6267V61H33.6267V58Z" fill="white"/>
<path d="M36.6267 55H39.6267V58H36.6267V55Z" fill="white"/>
<path d="M39.6267 52H42.6267V55H39.6267V52Z" fill="white"/>
<path d="M91.6267 58H94.6267V61H91.6267V58Z" fill="white"/>
<path d="M94.6267 55H97.6267V58H94.6267V55Z" fill="white"/>
<path d="M97.6267 52H100.627V55H97.6267V52Z" fill="white"/>
<path d="M30.6267 61H33.6267V64H30.6267V61Z" fill="white"/>
<path d="M88.6267 61H91.6267V64H88.6267V61Z" fill="white"/>
<path d="M17.6267 49H51.6267V52H48.6267V55H45.6267V58H42.6267V61H39.6267V64H23.6267V61H20.6267V58H17.6267V49Z" fill="#2B3131"/>
<path d="M75.6267 49H109.627V52H106.627V55H103.627V58H100.627V61H97.6267V64H81.6267V61H78.6267V58H75.6267V49Z" fill="#2B3131"/>
<path d="M20.6267 61H23.6267V64H20.6267V61Z" fill="#1B2527"/>
<path d="M17.6267 58V61H20.6267V58H17.6267Z" fill="#1B2527"/>
<path d="M17.6267 58H14.6267V49H17.6267V58Z" fill="#1B2527"/>
<path d="M23.6267 64H36.6267V67H23.6267V64Z" fill="#1B2527"/>
<path d="M72.6267 55V58H75.6267V61H78.6267V64H81.6267V67H94.6267V64H81.6267V61H78.6267V58H75.6267V49H66.6267V52H69.6267V55H72.6267Z" fill="#1B2527"/>
<path d="M11.6267 46H54.6267V49H63.6267V46H109.627V55H106.627V49H66.6267V52H51.6267V49H11.6267V46Z" fill="#FE991D"/>
<path d="M48.6267 55H51.6267V52H48.6267V55Z" fill="#FE991D"/>
<path d="M48.6267 55V58H45.6267V55H48.6267Z" fill="#FE991D"/>
<path d="M106.627 55V58H103.627V55H106.627Z" fill="#FE991D"/>
<path d="M11.6267 49H14.6267V58H11.6267V49Z" fill="#CA5C00"/>
<path d="M14.6267 58H17.6267V61H14.6267V58Z" fill="#CA5C00"/>
<path d="M72.6267 58H75.6267V61H72.6267V58Z" fill="#CA5C00"/>
<path d="M69.6267 55H72.6267V58H69.6267V55Z" fill="#CA5C00"/>
<path d="M66.6267 52H69.6267V55H66.6267V52Z" fill="#CA5C00"/>
<path d="M17.6267 61H20.6267V64H17.6267V61Z" fill="#CA5C00"/>
<path d="M75.6267 61H78.6267V64H75.6267V61Z" fill="#CA5C00"/>
<path d="M20.6267 64H23.6267V67H20.6267V64Z" fill="#CA5C00"/>
<path d="M78.6267 64H81.6267V67H78.6267V64Z" fill="#CA5C00"/>
<path d="M36.6267 64H39.6267V67H36.6267V64Z" fill="#CA5C00"/>
<path d="M94.6267 64H97.6267V67H94.6267V64Z" fill="#CA5C00"/>
<path d="M39.6267 61H42.6267V64H39.6267V61Z" fill="#CA5C00"/>
<path d="M97.6267 61H100.627V64H97.6267V61Z" fill="#CA5C00"/>
<path d="M42.6267 58H45.6267V61H42.6267V58Z" fill="#CA5C00"/>
<path d="M100.627 58H103.627V61H100.627V58Z" fill="#CA5C00"/>
<path d="M23.6267 67H36.6267V70H23.6267V67Z" fill="#CA5C00"/>
<path d="M81.6267 67H94.6267V70H81.6267V67Z" fill="#CA5C00"/>
<path d="M33.6267 58H36.6267V61H33.6267V58Z" fill="white"/>
<path d="M36.6267 55H39.6267V58H36.6267V55Z" fill="white"/>
<path d="M39.6267 52H42.6267V55H39.6267V52Z" fill="white"/>
<path d="M91.6267 58H94.6267V61H91.6267V58Z" fill="white"/>
<path d="M94.6267 55H97.6267V58H94.6267V55Z" fill="white"/>
<path d="M97.6267 52H100.627V55H97.6267V52Z" fill="white"/>
<path d="M30.6267 61H33.6267V64H30.6267V61Z" fill="white"/>
<path d="M88.6267 61H91.6267V64H88.6267V61Z" fill="white"/>
<path d="M30 44H92V47H30V44Z" fill="black"/>
<path d="M30 30H92V33H30V30Z" fill="black"/>
<path d="M92 33H96V44H92V33Z" fill="black"/>
<path d="M26 33H30V44H26V33Z" fill="black"/>
<path d="M34 25H38V30H34V25Z" fill="black"/>
<path d="M83 25H87V30H83V25Z" fill="black"/>
<path d="M38 20H42V25H38V20Z" fill="black"/>
<path d="M79 20H83V25H79V20Z" fill="black"/>
<path d="M42 17H46V20H42V17Z" fill="black"/>
<path d="M75 17H79V20H75V17Z" fill="black"/>
<path d="M71 14H75V17H71V14Z" fill="black"/>
<path d="M71 6H75V11H71V6Z" fill="black"/>
<path d="M46 6H50V11H46V6Z" fill="black"/>
<path d="M46 14H50V17H46V14Z" fill="black"/>
<path d="M50 3H54V6H50V3Z" fill="black"/>
<path d="M67 3H71V6H67V3Z" fill="black"/>
<path d="M50 11H71V14H50V11Z" fill="black"/>
<path d="M54 0H67V3H54V0Z" fill="black"/>
<path d="M54 3H67V6H54V3Z" fill="#FFD298"/>
<path d="M50 14H71V17H50V14Z" fill="#1C78BE"/>
<path d="M38 27H83V30H38V27Z" fill="#1C78BE"/>
<path d="M50 8H71V11H50V8Z" fill="#CB7400"/>
<path d="M30 41H92V44H30V41Z" fill="#CB7400"/>
<path d="M34 33H38V38H34V33Z" fill="#CB7400"/>
<path d="M42 33H46V38H42V33Z" fill="#CB7400"/>
<path d="M50 33H54V38H50V33Z" fill="#CB7400"/>
<path d="M72 33H76V38H72V33Z" fill="#CB7400"/>
<path d="M80 33H84V38H80V33Z" fill="#CB7400"/>
<path d="M88 33H92V38H88V33Z" fill="#CB7400"/>
<path d="M58 33H61V38H58V33Z" fill="#CB7400"/>
<path d="M65 33H68V38H65V33Z" fill="#CB7400"/>
<path d="M50 6H71V8H50V6Z" fill="#FF9000"/>
<path d="M30 38H92V41H30V38Z" fill="#FF9000"/>
<path d="M30 33H34V38H30V33Z" fill="#FF9000"/>
<path d="M38 33H42V38H38V33Z" fill="#FF9000"/>
<path d="M46 33H50V38H46V33Z" fill="#FF9000"/>
<path d="M54 33H58V38H54V33Z" fill="#FF9000"/>
<path d="M61 33H65V38H61V33Z" fill="#FF9000"/>
<path d="M68 33H72V38H68V33Z" fill="#FF9000"/>
<path d="M76 33H80V38H76V33Z" fill="#FF9000"/>
<path d="M84 33H88V38H84V33Z" fill="#FF9000"/>
<path d="M42 22H47V25H42V22Z" fill="#145382"/>
<path d="M74 22H79V25H74V22Z" fill="#145382"/>
<path d="M69 19H74V22H69V19Z" fill="#145382"/>
<path d="M63 22H69V25H63V22Z" fill="#145382"/>
<path d="M58 19H63V22H58V19Z" fill="#145382"/>
<path d="M52 22H58V25H52V22Z" fill="#145382"/>
<path d="M47 19H52V22H47V19Z" fill="#145382"/>
<path d="M38 25H83V27H38V25Z" fill="#3D99E1"/>
<path d="M46 17H75V19H46V17Z" fill="#3D99E1"/>
<path d="M42 20H47V22H42V20Z" fill="#3D99E1"/>
<path d="M47 22H52V25H47V22Z" fill="#3D99E1"/>
<path d="M58 22H63V25H58V22Z" fill="#3D99E1"/>
<path d="M52 19H58V22H52V19Z" fill="#3D99E1"/>
<path d="M63 19H69V22H63V19Z" fill="#3D99E1"/>
<path d="M69 22H74V25H69V22Z" fill="#3D99E1"/>
<path d="M74 20H79V22H74V20Z" fill="#3D99E1"/>
<path d="M74 19H75V20H74V19Z" fill="#3D99E1"/>
<path d="M46 19H47V20H46V19Z" fill="#3D99E1"/>
<path d="M38 25H83V27H38V25Z" fill="#3D99E1"/>
<path d="M30 44H92V47H30V44Z" fill="black"/>
<path d="M30 30H92V33H30V30Z" fill="black"/>
<path d="M92 33H96V44H92V33Z" fill="black"/>
<path d="M26 33H30V44H26V33Z" fill="black"/>
<path d="M34 25H38V30H34V25Z" fill="black"/>
<path d="M83 25H87V30H83V25Z" fill="black"/>
<path d="M38 20H42V25H38V20Z" fill="black"/>
<path d="M79 20H83V25H79V20Z" fill="black"/>
<path d="M42 17H46V20H42V17Z" fill="black"/>
<path d="M75 17H79V20H75V17Z" fill="black"/>
<path d="M71 14H75V17H71V14Z" fill="black"/>
<path d="M71 6H75V11H71V6Z" fill="black"/>
<path d="M46 6H50V11H46V6Z" fill="black"/>
<path d="M46 14H50V17H46V14Z" fill="black"/>
<path d="M50 3H54V6H50V3Z" fill="black"/>
<path d="M67 3H71V6H67V3Z" fill="black"/>
<path d="M50 11H71V14H50V11Z" fill="black"/>
<path d="M54 0H67V3H54V0Z" fill="black"/>
<path d="M54 3H67V6H54V3Z" fill="#FFD298"/>
<path d="M50 14H71V17H50V14Z" fill="#1C78BE"/>
<path d="M38 27H83V30H38V27Z" fill="#1C78BE"/>
<path d="M50 8H71V11H50V8Z" fill="#CB7400"/>
<path d="M30 41H92V44H30V41Z" fill="#CB7400"/>
<path d="M34 33H38V38H34V33Z" fill="#CB7400"/>
<path d="M42 33H46V38H42V33Z" fill="#CB7400"/>
<path d="M50 33H54V38H50V33Z" fill="#CB7400"/>
<path d="M72 33H76V38H72V33Z" fill="#CB7400"/>
<path d="M80 33H84V38H80V33Z" fill="#CB7400"/>
<path d="M88 33H92V38H88V33Z" fill="#CB7400"/>
<path d="M58 33H61V38H58V33Z" fill="#CB7400"/>
<path d="M65 33H68V38H65V33Z" fill="#CB7400"/>
<path d="M50 6H71V8H50V6Z" fill="#FF9000"/>
<path d="M30 38H92V41H30V38Z" fill="#FF9000"/>
<path d="M30 33H34V38H30V33Z" fill="#FF9000"/>
<path d="M38 33H42V38H38V33Z" fill="#FF9000"/>
<path d="M46 33H50V38H46V33Z" fill="#FF9000"/>
<path d="M54 33H58V38H54V33Z" fill="#FF9000"/>
<path d="M61 33H65V38H61V33Z" fill="#FF9000"/>
<path d="M68 33H72V38H68V33Z" fill="#FF9000"/>
<path d="M76 33H80V38H76V33Z" fill="#FF9000"/>
<path d="M84 33H88V38H84V33Z" fill="#FF9000"/>
<path d="M42 22H47V25H42V22Z" fill="#145382"/>
<path d="M74 22H79V25H74V22Z" fill="#145382"/>
<path d="M69 19H74V22H69V19Z" fill="#145382"/>
<path d="M63 22H69V25H63V22Z" fill="#145382"/>
<path d="M58 19H63V22H58V19Z" fill="#145382"/>
<path d="M52 22H58V25H52V22Z" fill="#145382"/>
<path d="M47 19H52V22H47V19Z" fill="#145382"/>
<path d="M38 25H83V27H38V25Z" fill="#3D99E1"/>
<path d="M46 17H75V19H46V17Z" fill="#3D99E1"/>
<path d="M42 20H47V22H42V20Z" fill="#3D99E1"/>
<path d="M47 22H52V25H47V22Z" fill="#3D99E1"/>
<path d="M58 22H63V25H58V22Z" fill="#3D99E1"/>
<path d="M52 19H58V22H52V19Z" fill="#3D99E1"/>
<path d="M63 19H69V22H63V19Z" fill="#3D99E1"/>
<path d="M69 22H74V25H69V22Z" fill="#3D99E1"/>
<path d="M74 20H79V22H74V20Z" fill="#3D99E1"/>
<path d="M74 19H75V20H74V19Z" fill="#3D99E1"/>
<path d="M46 19H47V20H46V19Z" fill="#3D99E1"/>
<path d="M38 25H83V27H38V25Z" fill="#3D99E1"/>
<path d="M30 44H92V47H30V44Z" fill="black"/>
<path d="M30 30H92V33H30V30Z" fill="black"/>
<path d="M92 33H96V44H92V33Z" fill="black"/>
<path d="M26 33H30V44H26V33Z" fill="black"/>
<path d="M34 25H38V30H34V25Z" fill="black"/>
<path d="M83 25H87V30H83V25Z" fill="black"/>
<path d="M38 20H42V25H38V20Z" fill="black"/>
<path d="M79 20H83V25H79V20Z" fill="black"/>
<path d="M42 17H46V20H42V17Z" fill="black"/>
<path d="M75 17H79V20H75V17Z" fill="black"/>
<path d="M71 14H75V17H71V14Z" fill="black"/>
<path d="M71 6H75V11H71V6Z" fill="black"/>
<path d="M46 6H50V11H46V6Z" fill="black"/>
<path d="M46 14H50V17H46V14Z" fill="black"/>
<path d="M50 3H54V6H50V3Z" fill="black"/>
<path d="M67 3H71V6H67V3Z" fill="black"/>
<path d="M50 11H71V14H50V11Z" fill="black"/>
<path d="M54 0H67V3H54V0Z" fill="black"/>
<path d="M54 3H67V6H54V3Z" fill="#FFD298"/>
<path d="M50 14H71V17H50V14Z" fill="#1C78BE"/>
<path d="M38 27H83V30H38V27Z" fill="#1C78BE"/>
<path d="M50 8H71V11H50V8Z" fill="#CB7400"/>
<path d="M30 41H92V44H30V41Z" fill="#CB7400"/>
<path d="M34 33H38V38H34V33Z" fill="#CB7400"/>
<path d="M42 33H46V38H42V33Z" fill="#CB7400"/>
<path d="M50 33H54V38H50V33Z" fill="#CB7400"/>
<path d="M72 33H76V38H72V33Z" fill="#CB7400"/>
<path d="M80 33H84V38H80V33Z" fill="#CB7400"/>
<path d="M88 33H92V38H88V33Z" fill="#CB7400"/>
<path d="M58 33H61V38H58V33Z" fill="#CB7400"/>
<path d="M65 33H68V38H65V33Z" fill="#CB7400"/>
<path d="M50 6H71V8H50V6Z" fill="#FF9000"/>
<path d="M30 38H92V41H30V38Z" fill="#FF9000"/>
<path d="M30 33H34V38H30V33Z" fill="#FF9000"/>
<path d="M38 33H42V38H38V33Z" fill="#FF9000"/>
<path d="M46 33H50V38H46V33Z" fill="#FF9000"/>
<path d="M54 33H58V38H54V33Z" fill="#FF9000"/>
<path d="M61 33H65V38H61V33Z" fill="#FF9000"/>
<path d="M68 33H72V38H68V33Z" fill="#FF9000"/>
<path d="M76 33H80V38H76V33Z" fill="#FF9000"/>
<path d="M84 33H88V38H84V33Z" fill="#FF9000"/>
<path d="M42 22H47V25H42V22Z" fill="#145382"/>
<path d="M74 22H79V25H74V22Z" fill="#145382"/>
<path d="M69 19H74V22H69V19Z" fill="#145382"/>
<path d="M63 22H69V25H63V22Z" fill="#145382"/>
<path d="M58 19H63V22H58V19Z" fill="#145382"/>
<path d="M52 22H58V25H52V22Z" fill="#145382"/>
<path d="M47 19H52V22H47V19Z" fill="#145382"/>
<path d="M38 25H83V27H38V25Z" fill="#3D99E1"/>
<path d="M46 17H75V19H46V17Z" fill="#3D99E1"/>
<path d="M42 20H47V22H42V20Z" fill="#3D99E1"/>
<path d="M47 22H52V25H47V22Z" fill="#3D99E1"/>
<path d="M58 22H63V25H58V22Z" fill="#3D99E1"/>
<path d="M52 19H58V22H52V19Z" fill="#3D99E1"/>
<path d="M63 19H69V22H63V19Z" fill="#3D99E1"/>
<path d="M69 22H74V25H69V22Z" fill="#3D99E1"/>
<path d="M74 20H79V22H74V20Z" fill="#3D99E1"/>
<path d="M74 19H75V20H74V19Z" fill="#3D99E1"/>
<path d="M46 19H47V20H46V19Z" fill="#3D99E1"/>
<path d="M38 25H83V27H38V25Z" fill="#3D99E1"/>
<path d="M30 44H92V47H30V44Z" fill="black"/>
<path d="M30 30H92V33H30V30Z" fill="black"/>
<path d="M92 33H96V44H92V33Z" fill="black"/>
<path d="M26 33H30V44H26V33Z" fill="black"/>
<path d="M34 25H38V30H34V25Z" fill="black"/>
<path d="M83 25H87V30H83V25Z" fill="black"/>
<path d="M38 20H42V25H38V20Z" fill="black"/>
<path d="M79 20H83V25H79V20Z" fill="black"/>
<path d="M42 17H46V20H42V17Z" fill="black"/>
<path d="M75 17H79V20H75V17Z" fill="black"/>
<path d="M71 14H75V17H71V14Z" fill="black"/>
<path d="M71 6H75V11H71V6Z" fill="black"/>
<path d="M46 6H50V11H46V6Z" fill="black"/>
<path d="M46 14H50V17H46V14Z" fill="black"/>
<path d="M50 3H54V6H50V3Z" fill="black"/>
<path d="M67 3H71V6H67V3Z" fill="black"/>
<path d="M50 11H71V14H50V11Z" fill="black"/>
<path d="M54 0H67V3H54V0Z" fill="black"/>
<path d="M54 3H67V6H54V3Z" fill="#FFD298"/>
<path d="M50 14H71V17H50V14Z" fill="#1C78BE"/>
<path d="M38 27H83V30H38V27Z" fill="#1C78BE"/>
<path d="M50 8H71V11H50V8Z" fill="#CB7400"/>
<path d="M30 41H92V44H30V41Z" fill="#CB7400"/>
<path d="M34 33H38V38H34V33Z" fill="#CB7400"/>
<path d="M42 33H46V38H42V33Z" fill="#CB7400"/>
<path d="M50 33H54V38H50V33Z" fill="#CB7400"/>
<path d="M72 33H76V38H72V33Z" fill="#CB7400"/>
<path d="M80 33H84V38H80V33Z" fill="#CB7400"/>
<path d="M88 33H92V38H88V33Z" fill="#CB7400"/>
<path d="M58 33H61V38H58V33Z" fill="#CB7400"/>
<path d="M65 33H68V38H65V33Z" fill="#CB7400"/>
<path d="M50 6H71V8H50V6Z" fill="#FF9000"/>
<path d="M30 38H92V41H30V38Z" fill="#FF9000"/>
<path d="M30 33H34V38H30V33Z" fill="#FF9000"/>
<path d="M38 33H42V38H38V33Z" fill="#FF9000"/>
<path d="M46 33H50V38H46V33Z" fill="#FF9000"/>
<path d="M54 33H58V38H54V33Z" fill="#FF9000"/>
<path d="M61 33H65V38H61V33Z" fill="#FF9000"/>
<path d="M68 33H72V38H68V33Z" fill="#FF9000"/>
<path d="M76 33H80V38H76V33Z" fill="#FF9000"/>
<path d="M84 33H88V38H84V33Z" fill="#FF9000"/>
<path d="M42 22H47V25H42V22Z" fill="#145382"/>
<path d="M74 22H79V25H74V22Z" fill="#145382"/>
<path d="M69 19H74V22H69V19Z" fill="#145382"/>
<path d="M63 22H69V25H63V22Z" fill="#145382"/>
<path d="M58 19H63V22H58V19Z" fill="#145382"/>
<path d="M52 22H58V25H52V22Z" fill="#145382"/>
<path d="M47 19H52V22H47V19Z" fill="#145382"/>
<path d="M38 25H83V27H38V25Z" fill="#3D99E1"/>
<path d="M46 17H75V19H46V17Z" fill="#3D99E1"/>
<path d="M42 20H47V22H42V20Z" fill="#3D99E1"/>
<path d="M47 22H52V25H47V22Z" fill="#3D99E1"/>
<path d="M58 22H63V25H58V22Z" fill="#3D99E1"/>
<path d="M52 19H58V22H52V19Z" fill="#3D99E1"/>
<path d="M63 19H69V22H63V19Z" fill="#3D99E1"/>
<path d="M69 22H74V25H69V22Z" fill="#3D99E1"/>
<path d="M74 20H79V22H74V20Z" fill="#3D99E1"/>
<path d="M74 19H75V20H74V19Z" fill="#3D99E1"/>
<path d="M46 19H47V20H46V19Z" fill="#3D99E1"/>
<path d="M38 25H83V27H38V25Z" fill="#3D99E1"/>
</svg>
