<svg width="121" height="120" viewBox="0 0 121 120" fill="none" xmlns="http://www.w3.org/2000/svg">
<path d="M78 5H84V16H81V19H74V22H84V25H90V31H93V34H96V37H99V40H102V43H96V46H29V29H32V22H35V20H38V17H66V14H69V11H75V8H78V5Z" fill="#F5E511"/>
<path d="M78 5H84V16H81V8H78V5Z" fill="#E0C605"/>
<path d="M78 8V11H75V8H78Z" fill="#E0C605"/>
<path d="M81 16V19H78V16H81Z" fill="#E0C605"/>
<path d="M38 23V20H41V17H38V20H35V23H38Z" fill="#E0C605"/>
<path d="M54 20H51V17H54V20Z" fill="#E0C605"/>
<path d="M51 20H48V23H46V26H49V23H51V20Z" fill="#E0C605"/>
<path d="M43 33H46V27H43V33Z" fill="#E0C605"/>
<path d="M61 24H58V27H64V21H67V18H64V21H61V24Z" fill="#E0C605"/>
<path d="M58 30H61V37H58V30Z" fill="#E0C605"/>
<path d="M87 25H90V31H87V25Z" fill="#E0C605"/>
<path d="M93 34V31H90V34H93Z" fill="#E0C605"/>
<path d="M96 37V34H93V37H96Z" fill="#E0C605"/>
<path d="M96 37H99V40H96V37Z" fill="#E0C605"/>
<path d="M29 38H32V29H29V38Z" fill="#E0C605"/>
<path d="M61 40H58V43H61V40Z" fill="#E0C605"/>
<path d="M66 14H69V17H66V14Z" fill="#E0C605"/>
<path d="M74 19H77V22H74V19Z" fill="#E0C605"/>
<path d="M68 34H65V37H68V34Z" fill="#E0C605"/>
<path d="M71 31H74V34H71V31Z" fill="#E0C605"/>
<path d="M84 22H81V25H84V22Z" fill="#E0C605"/>
<path d="M102 40H105V43H102V40Z" fill="#E0C605"/>
<path d="M57 17H54V20H57V17Z" fill="#B8870D"/>
<path d="M67 20H70V23H67V20Z" fill="#B8870D"/>
<path d="M58 27H61V30H58V27Z" fill="#B8870D"/>
<path d="M58 30V37H61V40H58V43H55V30H58Z" fill="#B8870D"/>
<path d="M74 34H68V37H65V43H68V37H74V34Z" fill="#B8870D"/>
<path d="M35 23H38V33H35V23Z" fill="#B8870D"/>
<path d="M46 26H49V33H46V26Z" fill="#B8870D"/>
<path d="M78 2H84V5H78V2Z" fill="#332A3D"/>
<path d="M75 8H78V5H75V8Z" fill="#332A3D"/>
<path d="M69 11H75V8H69V11Z" fill="#332A3D"/>
<path d="M66 14H69V11H66V14Z" fill="#332A3D"/>
<path d="M38 17H66V14H38V17Z" fill="#332A3D"/>
<path d="M35 20H38V17H35V20Z" fill="#332A3D"/>
<path d="M32 23H35V20H32V23Z" fill="#332A3D"/>
<path d="M29 29H32V23H29V29Z" fill="#332A3D"/>
<path d="M29 29V41H26V29H29Z" fill="#332A3D"/>
<path d="M84 16H87V5H84V16Z" fill="#332A3D"/>
<path d="M90 25V22H87V19H84V16H81V19H77V22H84V25H90Z" fill="#332A3D"/>
<path d="M93 31V25H90V31H93Z" fill="#332A3D"/>
<path d="M96 34V31H93V34H96Z" fill="#332A3D"/>
<path d="M99 37V34H96V37H99Z" fill="#332A3D"/>
<path d="M105 40V37H99V40H105Z" fill="#332A3D"/>
<path d="M105 43H108V40H105V43Z" fill="#332A3D"/>
<path d="M105 43V46H96V43H105Z" fill="#332A3D"/>
<path d="M78 5H84V16H81V19H74V22H84V25H90V31H93V34H96V37H99V40H102V43H96V46H29V29H32V22H35V20H38V17H66V14H69V11H75V8H78V5Z" fill="#F5E511"/>
<path d="M78 5H84V16H81V8H78V5Z" fill="#E0C605"/>
<path d="M78 8V11H75V8H78Z" fill="#E0C605"/>
<path d="M81 16V19H78V16H81Z" fill="#E0C605"/>
<path d="M38 23V20H41V17H38V20H35V23H38Z" fill="#E0C605"/>
<path d="M54 20H51V17H54V20Z" fill="#E0C605"/>
<path d="M51 20H48V23H46V26H49V23H51V20Z" fill="#E0C605"/>
<path d="M43 33H46V27H43V33Z" fill="#E0C605"/>
<path d="M61 24H58V27H64V21H67V18H64V21H61V24Z" fill="#E0C605"/>
<path d="M58 30H61V37H58V30Z" fill="#E0C605"/>
<path d="M87 25H90V31H87V25Z" fill="#E0C605"/>
<path d="M93 34V31H90V34H93Z" fill="#E0C605"/>
<path d="M96 37V34H93V37H96Z" fill="#E0C605"/>
<path d="M96 37H99V40H96V37Z" fill="#E0C605"/>
<path d="M29 38H32V29H29V38Z" fill="#E0C605"/>
<path d="M61 40H58V43H61V40Z" fill="#E0C605"/>
<path d="M66 14H69V17H66V14Z" fill="#E0C605"/>
<path d="M74 19H77V22H74V19Z" fill="#E0C605"/>
<path d="M68 34H65V37H68V34Z" fill="#E0C605"/>
<path d="M71 31H74V34H71V31Z" fill="#E0C605"/>
<path d="M84 22H81V25H84V22Z" fill="#E0C605"/>
<path d="M102 40H105V43H102V40Z" fill="#E0C605"/>
<path d="M57 17H54V20H57V17Z" fill="#B8870D"/>
<path d="M67 20H70V23H67V20Z" fill="#B8870D"/>
<path d="M58 27H61V30H58V27Z" fill="#B8870D"/>
<path d="M58 30V37H61V40H58V43H55V30H58Z" fill="#B8870D"/>
<path d="M74 34H68V37H65V43H68V37H74V34Z" fill="#B8870D"/>
<path d="M35 23H38V33H35V23Z" fill="#B8870D"/>
<path d="M46 26H49V33H46V26Z" fill="#B8870D"/>
<path d="M78 2H84V5H78V2Z" fill="#332A3D"/>
<path d="M75 8H78V5H75V8Z" fill="#332A3D"/>
<path d="M69 11H75V8H69V11Z" fill="#332A3D"/>
<path d="M66 14H69V11H66V14Z" fill="#332A3D"/>
<path d="M38 17H66V14H38V17Z" fill="#332A3D"/>
<path d="M35 20H38V17H35V20Z" fill="#332A3D"/>
<path d="M32 23H35V20H32V23Z" fill="#332A3D"/>
<path d="M29 29H32V23H29V29Z" fill="#332A3D"/>
<path d="M29 29V41H26V29H29Z" fill="#332A3D"/>
<path d="M84 16H87V5H84V16Z" fill="#332A3D"/>
<path d="M90 25V22H87V19H84V16H81V19H77V22H84V25H90Z" fill="#332A3D"/>
<path d="M93 31V25H90V31H93Z" fill="#332A3D"/>
<path d="M96 34V31H93V34H96Z" fill="#332A3D"/>
<path d="M99 37V34H96V37H99Z" fill="#332A3D"/>
<path d="M105 40V37H99V40H105Z" fill="#332A3D"/>
<path d="M105 43H108V40H105V43Z" fill="#332A3D"/>
<path d="M105 43V46H96V43H105Z" fill="#332A3D"/>
<path fill-rule="evenodd" clip-rule="evenodd" d="M33 41.0001V46.0001H28V61H33V66H48V61H53V46.0001H48V41.0001H33ZM33 46.0001H43V56H33V46.0001Z" fill="white"/>
<path d="M58 96H64V101H69V111H53V101H58V96Z" fill="white"/>
<path d="M89 41.0001V46.0001H79V56H89V46.0001H94V61H89V66H74V61H69V46.0001H74V41.0001H89Z" fill="white"/>
<path fill-rule="evenodd" clip-rule="evenodd" d="M69 51H53L53 61H48V66L28 66V71H23V81H28V86H43V91H38V96H33V106H28V101H23V111H38V106H43V111H48V106H53L53 101H58V96H64V101H69L69 106H74V111H79V106H84V111H99V101H94V106H89V96H84V91H79V86H94V81H99V71H94V66L74 66V61H69L69 51Z" fill="#57D3EE"/>
<path d="M74 36H89L89 41.0001H74L74 36Z" fill="black"/>
<path d="M69 46.0001H74V41.0001L69 41L69 46.0001Z" fill="black"/>
<path d="M53 46.0001L53 51H69L69 46.0001H53Z" fill="black"/>
<path d="M48 41.0001V46.0001H53L53 41L48 41.0001Z" fill="black"/>
<path d="M33 41.0001H48L48 36H33L33 41.0001Z" fill="black"/>
<path d="M33 46.0001V41.0001L28 41L28 46.0001L23 46V61L28 61L28 66L23 66L23 71L18 71V81L23 81L23 86L28 86L28 91H33L33 96L23 96L23 101L18 101V111L23 111L23 116H38L38 111H43L43 116H48L48 111L53 111L53 116H69L69 111L74 111L74 116H79L79 111H84L84 116H99L99 111L104 111V101L99 101L99 96L89 96L89 91H94L94 86L99 86L99 81L104 81V71L99 71L99 66L94 66L94 61L99 61V46L94 46.0001L94 41L89 41.0001V46.0001H79V56H89V46.0001H94V61H89V66L94 66V71H99V81H94V86H79V91H84V96H89V106H94V101H99V111H84V106H79V111H74V106H69L69 111H53L53 106H48V111H43V106H38V111H23V101H28V106H33V96H38V91H43V86H28V81H23V71H28V66L33 66V61H28V46.0001H33Z" fill="black"/>
<path d="M33 46.0001H43V56H33V46.0001Z" fill="black"/>
<path d="M43 71H38V76H43V81H79V76H84V71H79V76H43V71Z" fill="black"/>
<path fill-rule="evenodd" clip-rule="evenodd" d="M33 41.0001V46.0001H28V61H33V66H48V61H53V46.0001H48V41.0001H33ZM33 46.0001H43V56H33V46.0001Z" fill="white"/>
<path d="M58 96H64V101H69V111H53V101H58V96Z" fill="white"/>
<path d="M89 41.0001V46.0001H79V56H89V46.0001H94V61H89V66H74V61H69V46.0001H74V41.0001H89Z" fill="white"/>
<path d="M74 36H89L89 41.0001H74L74 36Z" fill="black"/>
<path d="M69 46.0001H74V41.0001L69 41L69 46.0001Z" fill="black"/>
<path d="M53 46.0001L53 51H69L69 46.0001H53Z" fill="black"/>
<path d="M48 41.0001V46.0001H53L53 41L48 41.0001Z" fill="black"/>
<path d="M33 41.0001H48L48 36H33L33 41.0001Z" fill="black"/>
<path d="M33 46.0001V41.0001L28 41L28 46.0001L23 46V61L28 61L28 66L23 66L23 71L18 71V81L23 81L23 86L28 86L28 91H33L33 96L23 96L23 101L18 101V111L23 111L23 116H38L38 111H43L43 116H48L48 111L53 111L53 116H69L69 111L74 111L74 116H79L79 111H84L84 116H99L99 111L104 111V101L99 101L99 96L89 96L89 91H94L94 86L99 86L99 81L104 81V71L99 71L99 66L94 66L94 61L99 61V46L94 46.0001L94 41L89 41.0001V46.0001H79V56H89V46.0001H94V61H89V66L94 66V71H99V81H94V86H79V91H84V96H89V106H94V101H99V111H84V106H79V111H74V106H69L69 111H53L53 106H48V111H43V106H38V111H23V101H28V106H33V96H38V91H43V86H28V81H23V71H28V66L33 66V61H28V46.0001H33Z" fill="black"/>
<path d="M33 46.0001H43V56H33V46.0001Z" fill="black"/>
<path d="M43 71H38V76H43V81H79V76H84V71H79V76H43V71Z" fill="black"/>
<path d="M41.9998 95H46.9998V100H41.9998V95Z" fill="#2189A1"/>
<path d="M71.9998 95H74.9998V98H71.9998V95Z" fill="#2189A1"/>
<path d="M81.9998 80H85.9998V84H81.9998V80Z" fill="#2189A1"/>
<path d="M47.9998 90H50.9998V93H47.9998V90Z" fill="#2189A1"/>
<path d="M41.9998 95H46.9998V100H41.9998V95Z" fill="#2189A1"/>
<path d="M71.9998 95H74.9998V98H71.9998V95Z" fill="#2189A1"/>
<path d="M81.9998 80H85.9998V84H81.9998V80Z" fill="#2189A1"/>
<path d="M47.9998 90H50.9998V93H47.9998V90Z" fill="#2189A1"/>
</svg>
