<svg width="121" height="120" viewBox="0 0 121 120" fill="none" xmlns="http://www.w3.org/2000/svg">
<path d="M73 6V14H82V27H88V31H99V46H26V31H29V27H32V14H35V12H41V14H57V6H73Z" fill="#971F3B"/>
<path d="M44 24V27H50V24H44Z" fill="#71152A"/>
<path d="M62 30H65V33H62V30Z" fill="#71152A"/>
<path d="M59 33V42H56V48H65V42H62V33H59Z" fill="#71152A"/>
<path d="M59 33H56V30H59V33Z" fill="#71152A"/>
<path d="M71 24H74V25H77V28H74V27H71V24Z" fill="#71152A"/>
<path d="M71 37H74V40H71V37Z" fill="#71152A"/>
<path d="M51 37H48V40H51V37Z" fill="#71152A"/>
<path d="M59 30H62V33H59V30Z" fill="#B23E59"/>
<path d="M65 27H68V30H65V27Z" fill="#B23E59"/>
<path d="M68 40H71V43H68V40Z" fill="#B23E59"/>
<path d="M65 40H68V43H65V40Z" fill="#B23E59"/>
<path d="M74 35H77V38H74V35Z" fill="#B23E59"/>
<path d="M45 34H48V37H45V34Z" fill="#B23E59"/>
<path d="M42 32H45V35H42V32Z" fill="#B23E59"/>
<path d="M39 30H42V33H39V30Z" fill="#B23E59"/>
<path d="M41 27H44V30H41V27Z" fill="#B23E59"/>
<path d="M77 32H80V35H77V32Z" fill="#B23E59"/>
<path d="M80 28H83V32H80V28Z" fill="#B23E59"/>
<path d="M53 27H56V30H53V27Z" fill="#B23E59"/>
<path d="M50 24H53V27H50V24Z" fill="#B23E59"/>
<path d="M47 21H50V24H47V21Z" fill="#B23E59"/>
<path d="M50 18H53V21H50V18Z" fill="#B23E59"/>
<path d="M51 15H54V18H51V15Z" fill="#B23E59"/>
<path d="M68 24H71V27H68V24Z" fill="#B23E59"/>
<path d="M71 21H74V24H71V21Z" fill="#B23E59"/>
<path d="M68 18H71V21H68V18Z" fill="#B23E59"/>
<path d="M67 15H70V18H67V15Z" fill="#B23E59"/>
<path d="M67 12H70V15H67V12Z" fill="#B23E59"/>
<path d="M70 11H73V14H70V11Z" fill="#B23E59"/>
<path d="M70 8H73V11H70V8Z" fill="#B23E59"/>
<path d="M67 6H70V14H67V6Z" fill="#B23E59"/>
<path d="M75 17H78V20H75V17Z" fill="#B23E59"/>
<path d="M44 27H47V30H44V27Z" fill="#B23E59"/>
<path d="M99 42H102V45H99V42Z" fill="#B23E59"/>
<path d="M96 39H99V42H96V39Z" fill="#B23E59"/>
<path d="M86 28H89V31H86V28Z" fill="#B23E59"/>
<path d="M90 31H93V34H90V31Z" fill="#B23E59"/>
<path d="M79 22H82V25H79V22Z" fill="#B23E59"/>
<path d="M57 9H60V12H57V9Z" fill="#B23E59"/>
<path d="M54 12H57V15H54V12Z" fill="#B23E59"/>
<path d="M35 9H38V12H35V9Z" fill="#B23E59"/>
<path d="M32 12H35V15H32V12Z" fill="#B23E59"/>
<path d="M32 18H35V21H32V18Z" fill="#B23E59"/>
<path d="M35 21H38V24H35V21Z" fill="#B23E59"/>
<path d="M29 27H32V30H29V27Z" fill="#B23E59"/>
<path d="M26 30H29V33H26V30Z" fill="#B23E59"/>
<path d="M23 38H26V41H23V38Z" fill="#B23E59"/>
<path d="M20 41H23V44H20V41Z" fill="#B23E59"/>
<path d="M22 41H28V46H22V41Z" fill="#B23E59"/>
<path d="M57 3H70V6H57V3Z" fill="#B23E59"/>
<path d="M82 11H85V22H82V11Z" fill="#B23E59"/>
<path d="M93 31H96V39H93V31Z" fill="#B23E59"/>
<path d="M56 33H59V42H56V33Z" fill="#B23E59"/>
<path d="M62 33H65V42H62V33Z" fill="#B23E59"/>
<path d="M57 0H70V3H57V0Z" fill="#1A1111"/>
<path d="M57 6V3H54V6H57Z" fill="#1A1111"/>
<path d="M57 9H63V6H57V9Z" fill="#1A1111"/>
<path d="M54 12H57V9H54V12Z" fill="#1A1111"/>
<path d="M41 12V15H54V12H41Z" fill="#1A1111"/>
<path d="M38 9V12H41V9H38Z" fill="#1A1111"/>
<path d="M35 9H38V6H35V9Z" fill="#1A1111"/>
<path d="M32 12H35V9H32V12Z" fill="#1A1111"/>
<path d="M32 21V12H29V21H32Z" fill="#1A1111"/>
<path d="M29 27H44V24H35V21H32V24H29V27Z" fill="#1A1111"/>
<path d="M26 30H29V27H26V30Z" fill="#1A1111"/>
<path d="M23 38H26V30H23V38Z" fill="#1A1111"/>
<path d="M20 41H23V38H20V41Z" fill="#1A1111"/>
<path d="M20 41V44H22V47H19V44H17V41H20Z" fill="#1A1111"/>
<path d="M79 14H76V5H73V3H70V6H73V17H79V14Z" fill="#1A1111"/>
<path d="M82 11H79V14H82V11Z" fill="#1A1111"/>
<path d="M85 11V8H82V11H85Z" fill="#1A1111"/>
<path d="M85 22H88V11H85V22Z" fill="#1A1111"/>
<path d="M89 28V25H85V22H82V25H77V28H89Z" fill="#1A1111"/>
<path d="M96 31V28H89V31H96Z" fill="#1A1111"/>
<path d="M99 39V31H96V39H99Z" fill="#1A1111"/>
<path d="M102 42V39H99V42H102Z" fill="#1A1111"/>
<path d="M102 45H105V42H102V45Z" fill="#1A1111"/>
<path d="M102 45V48H96V45H102Z" fill="#1A1111"/>
<path d="M73 6V14H82V27H88V31H99V46H26V31H29V27H32V14H35V12H41V14H57V6H73Z" fill="#971F3B"/>
<path d="M44 24V27H50V24H44Z" fill="#71152A"/>
<path d="M62 30H65V33H62V30Z" fill="#71152A"/>
<path d="M59 33V42H56V48H65V42H62V33H59Z" fill="#71152A"/>
<path d="M59 33H56V30H59V33Z" fill="#71152A"/>
<path d="M71 24H74V25H77V28H74V27H71V24Z" fill="#71152A"/>
<path d="M71 37H74V40H71V37Z" fill="#71152A"/>
<path d="M51 37H48V40H51V37Z" fill="#71152A"/>
<path d="M59 30H62V33H59V30Z" fill="#B23E59"/>
<path d="M65 27H68V30H65V27Z" fill="#B23E59"/>
<path d="M68 40H71V43H68V40Z" fill="#B23E59"/>
<path d="M65 40H68V43H65V40Z" fill="#B23E59"/>
<path d="M74 35H77V38H74V35Z" fill="#B23E59"/>
<path d="M45 34H48V37H45V34Z" fill="#B23E59"/>
<path d="M42 32H45V35H42V32Z" fill="#B23E59"/>
<path d="M39 30H42V33H39V30Z" fill="#B23E59"/>
<path d="M41 27H44V30H41V27Z" fill="#B23E59"/>
<path d="M77 32H80V35H77V32Z" fill="#B23E59"/>
<path d="M80 28H83V32H80V28Z" fill="#B23E59"/>
<path d="M53 27H56V30H53V27Z" fill="#B23E59"/>
<path d="M50 24H53V27H50V24Z" fill="#B23E59"/>
<path d="M47 21H50V24H47V21Z" fill="#B23E59"/>
<path d="M50 18H53V21H50V18Z" fill="#B23E59"/>
<path d="M51 15H54V18H51V15Z" fill="#B23E59"/>
<path d="M68 24H71V27H68V24Z" fill="#B23E59"/>
<path d="M71 21H74V24H71V21Z" fill="#B23E59"/>
<path d="M68 18H71V21H68V18Z" fill="#B23E59"/>
<path d="M67 15H70V18H67V15Z" fill="#B23E59"/>
<path d="M67 12H70V15H67V12Z" fill="#B23E59"/>
<path d="M70 11H73V14H70V11Z" fill="#B23E59"/>
<path d="M70 8H73V11H70V8Z" fill="#B23E59"/>
<path d="M67 6H70V14H67V6Z" fill="#B23E59"/>
<path d="M75 17H78V20H75V17Z" fill="#B23E59"/>
<path d="M44 27H47V30H44V27Z" fill="#B23E59"/>
<path d="M99 42H102V45H99V42Z" fill="#B23E59"/>
<path d="M96 39H99V42H96V39Z" fill="#B23E59"/>
<path d="M86 28H89V31H86V28Z" fill="#B23E59"/>
<path d="M90 31H93V34H90V31Z" fill="#B23E59"/>
<path d="M79 22H82V25H79V22Z" fill="#B23E59"/>
<path d="M57 9H60V12H57V9Z" fill="#B23E59"/>
<path d="M54 12H57V15H54V12Z" fill="#B23E59"/>
<path d="M35 9H38V12H35V9Z" fill="#B23E59"/>
<path d="M32 12H35V15H32V12Z" fill="#B23E59"/>
<path d="M32 18H35V21H32V18Z" fill="#B23E59"/>
<path d="M35 21H38V24H35V21Z" fill="#B23E59"/>
<path d="M29 27H32V30H29V27Z" fill="#B23E59"/>
<path d="M26 30H29V33H26V30Z" fill="#B23E59"/>
<path d="M23 38H26V41H23V38Z" fill="#B23E59"/>
<path d="M20 41H23V44H20V41Z" fill="#B23E59"/>
<path d="M22 41H28V46H22V41Z" fill="#B23E59"/>
<path d="M57 3H70V6H57V3Z" fill="#B23E59"/>
<path d="M82 11H85V22H82V11Z" fill="#B23E59"/>
<path d="M93 31H96V39H93V31Z" fill="#B23E59"/>
<path d="M56 33H59V42H56V33Z" fill="#B23E59"/>
<path d="M62 33H65V42H62V33Z" fill="#B23E59"/>
<path d="M57 0H70V3H57V0Z" fill="#1A1111"/>
<path d="M57 6V3H54V6H57Z" fill="#1A1111"/>
<path d="M57 9H63V6H57V9Z" fill="#1A1111"/>
<path d="M54 12H57V9H54V12Z" fill="#1A1111"/>
<path d="M41 12V15H54V12H41Z" fill="#1A1111"/>
<path d="M38 9V12H41V9H38Z" fill="#1A1111"/>
<path d="M35 9H38V6H35V9Z" fill="#1A1111"/>
<path d="M32 12H35V9H32V12Z" fill="#1A1111"/>
<path d="M32 21V12H29V21H32Z" fill="#1A1111"/>
<path d="M29 27H44V24H35V21H32V24H29V27Z" fill="#1A1111"/>
<path d="M26 30H29V27H26V30Z" fill="#1A1111"/>
<path d="M23 38H26V30H23V38Z" fill="#1A1111"/>
<path d="M20 41H23V38H20V41Z" fill="#1A1111"/>
<path d="M20 41V44H22V47H19V44H17V41H20Z" fill="#1A1111"/>
<path d="M79 14H76V5H73V3H70V6H73V17H79V14Z" fill="#1A1111"/>
<path d="M82 11H79V14H82V11Z" fill="#1A1111"/>
<path d="M85 11V8H82V11H85Z" fill="#1A1111"/>
<path d="M85 22H88V11H85V22Z" fill="#1A1111"/>
<path d="M89 28V25H85V22H82V25H77V28H89Z" fill="#1A1111"/>
<path d="M96 31V28H89V31H96Z" fill="#1A1111"/>
<path d="M99 39V31H96V39H99Z" fill="#1A1111"/>
<path d="M102 42V39H99V42H102Z" fill="#1A1111"/>
<path d="M102 45H105V42H102V45Z" fill="#1A1111"/>
<path d="M102 45V48H96V45H102Z" fill="#1A1111"/>
<path fill-rule="evenodd" clip-rule="evenodd" d="M33 41.0001V46.0001H28V61H33V66H48V61H53V46.0001H48V41.0001H33ZM33 46.0001H43V56H33V46.0001Z" fill="white"/>
<path d="M58 96H64V101H69V111H53V101H58V96Z" fill="white"/>
<path d="M89 41.0001V46.0001H79V56H89V46.0001H94V61H89V66H74V61H69V46.0001H74V41.0001H89Z" fill="white"/>
<path fill-rule="evenodd" clip-rule="evenodd" d="M69 51H53L53 61H48V66L28 66V71H23V81H28V86H43V91H38V96H33V106H28V101H23V111H38V106H43V111H48V106H53L53 101H58V96H64V101H69L69 106H74V111H79V106H84V111H99V101H94V106H89V96H84V91H79V86H94V81H99V71H94V66L74 66V61H69L69 51Z" fill="#43D890"/>
<path d="M74 36H89L89 41.0001H74L74 36Z" fill="black"/>
<path d="M69 46.0001H74V41.0001L69 41L69 46.0001Z" fill="black"/>
<path d="M53 46.0001L53 51H69L69 46.0001H53Z" fill="black"/>
<path d="M48 41.0001V46.0001H53L53 41L48 41.0001Z" fill="black"/>
<path d="M33 41.0001H48L48 36H33L33 41.0001Z" fill="black"/>
<path d="M33 46.0001V41.0001L28 41L28 46.0001L23 46V61L28 61L28 66L23 66L23 71L18 71V81L23 81L23 86L28 86L28 91H33L33 96L23 96L23 101L18 101V111L23 111L23 116H38L38 111H43L43 116H48L48 111L53 111L53 116H69L69 111L74 111L74 116H79L79 111H84L84 116H99L99 111L104 111V101L99 101L99 96L89 96L89 91H94L94 86L99 86L99 81L104 81V71L99 71L99 66L94 66L94 61L99 61V46L94 46.0001L94 41L89 41.0001V46.0001H79V56H89V46.0001H94V61H89V66L94 66V71H99V81H94V86H79V91H84V96H89V106H94V101H99V111H84V106H79V111H74V106H69L69 111H53L53 106H48V111H43V106H38V111H23V101H28V106H33V96H38V91H43V86H28V81H23V71H28V66L33 66V61H28V46.0001H33Z" fill="black"/>
<path d="M33 46.0001H43V56H33V46.0001Z" fill="black"/>
<path d="M43 71H38V76H43V81H79V76H84V71H79V76H43V71Z" fill="black"/>
<path fill-rule="evenodd" clip-rule="evenodd" d="M33 41.0001V46.0001H28V61H33V66H48V61H53V46.0001H48V41.0001H33ZM33 46.0001H43V56H33V46.0001Z" fill="white"/>
<path d="M58 96H64V101H69V111H53V101H58V96Z" fill="white"/>
<path d="M89 41.0001V46.0001H79V56H89V46.0001H94V61H89V66H74V61H69V46.0001H74V41.0001H89Z" fill="white"/>
<path d="M74 36H89L89 41.0001H74L74 36Z" fill="black"/>
<path d="M69 46.0001H74V41.0001L69 41L69 46.0001Z" fill="black"/>
<path d="M53 46.0001L53 51H69L69 46.0001H53Z" fill="black"/>
<path d="M48 41.0001V46.0001H53L53 41L48 41.0001Z" fill="black"/>
<path d="M33 41.0001H48L48 36H33L33 41.0001Z" fill="black"/>
<path d="M33 46.0001V41.0001L28 41L28 46.0001L23 46V61L28 61L28 66L23 66L23 71L18 71V81L23 81L23 86L28 86L28 91H33L33 96L23 96L23 101L18 101V111L23 111L23 116H38L38 111H43L43 116H48L48 111L53 111L53 116H69L69 111L74 111L74 116H79L79 111H84L84 116H99L99 111L104 111V101L99 101L99 96L89 96L89 91H94L94 86L99 86L99 81L104 81V71L99 71L99 66L94 66L94 61L99 61V46L94 46.0001L94 41L89 41.0001V46.0001H79V56H89V46.0001H94V61H89V66L94 66V71H99V81H94V86H79V91H84V96H89V106H94V101H99V111H84V106H79V111H74V106H69L69 111H53L53 106H48V111H43V106H38V111H23V101H28V106H33V96H38V91H43V86H28V81H23V71H28V66L33 66V61H28V46.0001H33Z" fill="black"/>
<path d="M33 46.0001H43V56H33V46.0001Z" fill="black"/>
<path d="M43 71H38V76H43V81H79V76H84V71H79V76H43V71Z" fill="black"/>
<path d="M41.9998 95H46.9998V100H41.9998V95Z" fill="#21A163"/>
<path d="M71.9998 95H74.9998V98H71.9998V95Z" fill="#21A163"/>
<path d="M81.9998 80H85.9998V84H81.9998V80Z" fill="#21A163"/>
<path d="M47.9998 90H50.9998V93H47.9998V90Z" fill="#21A163"/>
<path d="M41.9998 95H46.9998V100H41.9998V95Z" fill="#21A163"/>
<path d="M71.9998 95H74.9998V98H71.9998V95Z" fill="#21A163"/>
<path d="M81.9998 80H85.9998V84H81.9998V80Z" fill="#21A163"/>
<path d="M47.9998 90H50.9998V93H47.9998V90Z" fill="#21A163"/>
<path d="M33.6267 49H48.6267V52H51.6267V64H33.6267V49Z" fill="#0B84C8"/>
<path d="M72.6267 49H87.6267V52H90.6267V64H72.6267V49Z" fill="#0B84C8"/>
<path d="M45.6267 61H42.6267V64H45.6267V61Z" fill="white"/>
<path d="M48.6267 55H45.6267V61H48.6267V55Z" fill="white"/>
<path d="M84.6267 61H81.6267V64H84.6267V61Z" fill="white"/>
<path d="M87.6267 55H84.6267V61H87.6267V55Z" fill="white"/>
<path d="M30.6267 52H33.6267V64H30.6267V52Z" fill="#0C568C"/>
<path d="M69.6267 52H72.6267V64H69.6267V52Z" fill="#0C568C"/>
<path d="M33.6267 64H48.6267V67H33.6267V64Z" fill="#0C568C"/>
<path d="M72.6267 64H87.6267V67H72.6267V64Z" fill="#0C568C"/>
<path d="M30.6267 64H33.6267V67H30.6267V64Z" fill="#27282C"/>
<path d="M69.6267 64H72.6267V67H69.6267V64Z" fill="#27282C"/>
<path d="M51.6267 64H48.6267V67H51.6267V64Z" fill="#27282C"/>
<path d="M90.6267 64H87.6267V67H90.6267V64Z" fill="#27282C"/>
<path d="M30.6267 49H33.6267V52H30.6267V49Z" fill="#27282C"/>
<path d="M69.6267 49H72.6267V52H69.6267V49Z" fill="#27282C"/>
<path d="M51.6267 49H48.6267V52H51.6267V49Z" fill="#27282C"/>
<path d="M90.6267 49H87.6267V52H90.6267V49Z" fill="#27282C"/>
<path d="M66.6267 54H54.6267V57H66.6267V54Z" fill="#27282C"/>
<path d="M33.6267 46H48.6267V49H33.6267V46Z" fill="#27282C"/>
<path d="M72.6267 46H87.6267V49H72.6267V46Z" fill="#27282C"/>
<path d="M33.6267 67H48.6267V70H33.6267V67Z" fill="#27282C"/>
<path d="M72.6267 67H87.6267V70H72.6267V67Z" fill="#27282C"/>
<path d="M27.6267 52H30.6267V64H27.6267V52Z" fill="#27282C"/>
<path d="M66.6267 52H69.6267V64H66.6267V52Z" fill="#27282C"/>
<path d="M54.6267 52H51.6267V64H54.6267V52Z" fill="#27282C"/>
<path d="M93.6267 52H90.6267V64H93.6267V52Z" fill="#27282C"/>
<path d="M33.6267 49H48.6267V52H51.6267V64H33.6267V49Z" fill="#0B84C8"/>
<path d="M72.6267 49H87.6267V52H90.6267V64H72.6267V49Z" fill="#0B84C8"/>
<path d="M45.6267 61H42.6267V64H45.6267V61Z" fill="white"/>
<path d="M48.6267 55H45.6267V61H48.6267V55Z" fill="white"/>
<path d="M84.6267 61H81.6267V64H84.6267V61Z" fill="white"/>
<path d="M87.6267 55H84.6267V61H87.6267V55Z" fill="white"/>
<path d="M30.6267 52H33.6267V64H30.6267V52Z" fill="#0C568C"/>
<path d="M69.6267 52H72.6267V64H69.6267V52Z" fill="#0C568C"/>
<path d="M33.6267 64H48.6267V67H33.6267V64Z" fill="#0C568C"/>
<path d="M72.6267 64H87.6267V67H72.6267V64Z" fill="#0C568C"/>
<path d="M30.6267 64H33.6267V67H30.6267V64Z" fill="#27282C"/>
<path d="M69.6267 64H72.6267V67H69.6267V64Z" fill="#27282C"/>
<path d="M51.6267 64H48.6267V67H51.6267V64Z" fill="#27282C"/>
<path d="M90.6267 64H87.6267V67H90.6267V64Z" fill="#27282C"/>
<path d="M30.6267 49H33.6267V52H30.6267V49Z" fill="#27282C"/>
<path d="M69.6267 49H72.6267V52H69.6267V49Z" fill="#27282C"/>
<path d="M51.6267 49H48.6267V52H51.6267V49Z" fill="#27282C"/>
<path d="M90.6267 49H87.6267V52H90.6267V49Z" fill="#27282C"/>
<path d="M66.6267 54H54.6267V57H66.6267V54Z" fill="#27282C"/>
<path d="M33.6267 46H48.6267V49H33.6267V46Z" fill="#27282C"/>
<path d="M72.6267 46H87.6267V49H72.6267V46Z" fill="#27282C"/>
<path d="M33.6267 67H48.6267V70H33.6267V67Z" fill="#27282C"/>
<path d="M72.6267 67H87.6267V70H72.6267V67Z" fill="#27282C"/>
<path d="M27.6267 52H30.6267V64H27.6267V52Z" fill="#27282C"/>
<path d="M66.6267 52H69.6267V64H66.6267V52Z" fill="#27282C"/>
<path d="M54.6267 52H51.6267V64H54.6267V52Z" fill="#27282C"/>
<path d="M93.6267 52H90.6267V64H93.6267V52Z" fill="#27282C"/>
<path d="M55 90H58V93H81V90H78V87H55V90Z" fill="#CC863C"/>
<path d="M81 96H84V99H81V96Z" fill="#FFE855"/>
<path d="M39 96H52V99H39V96Z" fill="#FFE855"/>
<path d="M52 99H81V102H52V99Z" fill="#FFE855"/>
<path d="M42 99H52V102H42V99Z" fill="#C41F1B"/>
<path d="M67 102H78V105H67V102Z" fill="#C41F1B"/>
<path d="M51 102H54V105H51V102Z" fill="#8FB536"/>
<path d="M67 105H73V108H67V105Z" fill="#8FB536"/>
<path d="M42 99H39V102H42V105H51V102H42V99Z" fill="#758E3D"/>
<path d="M81 99H84V102H81V99Z" fill="#758E3D"/>
<path d="M78 105H81V102H78V105Z" fill="#758E3D"/>
<path d="M78 105V108H73V105H78Z" fill="#758E3D"/>
<path d="M67 102H54V105H64V108H67V102Z" fill="#758E3D"/>
<path d="M39 102H42V105H39V102Z" fill="#69251A"/>
<path d="M78 108H64V105H42V108H45V111H78V108Z" fill="#69251A"/>
<path d="M81 105H78V108H81V105Z" fill="#69251A"/>
<path d="M81 105V102H84V105H81Z" fill="#69251A"/>
<path d="M55 87H72V84H51V87H45V90H42V93H39V96H55V93H58V90H55V87Z" fill="#E1AB5B"/>
<path d="M51 111H72V114H51V111Z" fill="#E1AB5B"/>
<path d="M51 117H72V120H51V117Z" fill="#361A0A"/>
<path d="M72 114H78V117H72V114Z" fill="#361A0A"/>
<path d="M51 114H45V117H51V114Z" fill="#361A0A"/>
<path d="M78 111H81V114H78V111Z" fill="#361A0A"/>
<path d="M45 111H42V114H45V111Z" fill="#361A0A"/>
<path d="M81 108H84V111H81V108Z" fill="#361A0A"/>
<path d="M42 108H39V111H42V108Z" fill="#361A0A"/>
<path d="M81 87H84V90H81V87Z" fill="#361A0A"/>
<path d="M42 87H39V90H42V87Z" fill="#361A0A"/>
<path d="M78 84H81V87H78V84Z" fill="#361A0A"/>
<path d="M45 84H42V87H45V84Z" fill="#361A0A"/>
<path d="M51 78H72V81H51V78Z" fill="#361A0A"/>
<path d="M72 81H78V84H72V81Z" fill="#361A0A"/>
<path d="M51 81H45V84H51V81Z" fill="#361A0A"/>
<path d="M84 90H87V108H84V90Z" fill="#361A0A"/>
<path d="M39 90H36V108H39V90Z" fill="#361A0A"/>
<path d="M51 84H72V87H78V90H81V93H55V96H52V99H81V96H84V90H81V87H78V84H72V81H51V84Z" fill="#C77D39"/>
<path d="M45 87V84H51V87H45Z" fill="#C77D39"/>
<path d="M42 90V87H45V90H42Z" fill="#C77D39"/>
<path d="M42 90V93H39V90H42Z" fill="#C77D39"/>
<path d="M78 108H81V111H78V108Z" fill="#C77D39"/>
<path d="M72 114H78V111H72V114Z" fill="#C77D39"/>
<path d="M51 114V117H72V114H51Z" fill="#C77D39"/>
<path d="M45 111V114H51V111H45Z" fill="#C77D39"/>
<path d="M42 108V111H45V108H42Z" fill="#C77D39"/>
<path d="M42 108H39V105H42V108Z" fill="#C77D39"/>
<path d="M81 108H84V105H81V108Z" fill="#C77D39"/>
<path d="M48 90H51V93H48V90Z" fill="#F0D5D5"/>
<path d="M54 84H57V87H54V84Z" fill="#F0D5D5"/>
<path d="M63 93H66V96H63V93Z" fill="#F0D5D5"/>
<path d="M60 87H63V90H60V87Z" fill="#F0D5D5"/>
<path d="M72 90H75V93H72V90Z" fill="#F0D5D5"/>
<path d="M66 84H69V87H66V84Z" fill="#F0D5D5"/>
<path d="M55 90H58V93H81V90H78V87H55V90Z" fill="#CC863C"/>
<path d="M81 96H84V99H81V96Z" fill="#FFE855"/>
<path d="M39 96H52V99H39V96Z" fill="#FFE855"/>
<path d="M52 99H81V102H52V99Z" fill="#FFE855"/>
<path d="M42 99H52V102H42V99Z" fill="#C41F1B"/>
<path d="M67 102H78V105H67V102Z" fill="#C41F1B"/>
<path d="M51 102H54V105H51V102Z" fill="#8FB536"/>
<path d="M67 105H73V108H67V105Z" fill="#8FB536"/>
<path d="M42 99H39V102H42V105H51V102H42V99Z" fill="#758E3D"/>
<path d="M81 99H84V102H81V99Z" fill="#758E3D"/>
<path d="M78 105H81V102H78V105Z" fill="#758E3D"/>
<path d="M78 105V108H73V105H78Z" fill="#758E3D"/>
<path d="M67 102H54V105H64V108H67V102Z" fill="#758E3D"/>
<path d="M39 102H42V105H39V102Z" fill="#69251A"/>
<path d="M78 108H64V105H42V108H45V111H78V108Z" fill="#69251A"/>
<path d="M81 105H78V108H81V105Z" fill="#69251A"/>
<path d="M81 105V102H84V105H81Z" fill="#69251A"/>
<path d="M55 87H72V84H51V87H45V90H42V93H39V96H55V93H58V90H55V87Z" fill="#E1AB5B"/>
<path d="M51 111H72V114H51V111Z" fill="#E1AB5B"/>
<path d="M51 117H72V120H51V117Z" fill="#361A0A"/>
<path d="M72 114H78V117H72V114Z" fill="#361A0A"/>
<path d="M51 114H45V117H51V114Z" fill="#361A0A"/>
<path d="M78 111H81V114H78V111Z" fill="#361A0A"/>
<path d="M45 111H42V114H45V111Z" fill="#361A0A"/>
<path d="M81 108H84V111H81V108Z" fill="#361A0A"/>
<path d="M42 108H39V111H42V108Z" fill="#361A0A"/>
<path d="M81 87H84V90H81V87Z" fill="#361A0A"/>
<path d="M42 87H39V90H42V87Z" fill="#361A0A"/>
<path d="M78 84H81V87H78V84Z" fill="#361A0A"/>
<path d="M45 84H42V87H45V84Z" fill="#361A0A"/>
<path d="M51 78H72V81H51V78Z" fill="#361A0A"/>
<path d="M72 81H78V84H72V81Z" fill="#361A0A"/>
<path d="M51 81H45V84H51V81Z" fill="#361A0A"/>
<path d="M84 90H87V108H84V90Z" fill="#361A0A"/>
<path d="M39 90H36V108H39V90Z" fill="#361A0A"/>
<path d="M51 84H72V87H78V90H81V93H55V96H52V99H81V96H84V90H81V87H78V84H72V81H51V84Z" fill="#C77D39"/>
<path d="M45 87V84H51V87H45Z" fill="#C77D39"/>
<path d="M42 90V87H45V90H42Z" fill="#C77D39"/>
<path d="M42 90V93H39V90H42Z" fill="#C77D39"/>
<path d="M78 108H81V111H78V108Z" fill="#C77D39"/>
<path d="M72 114H78V111H72V114Z" fill="#C77D39"/>
<path d="M51 114V117H72V114H51Z" fill="#C77D39"/>
<path d="M45 111V114H51V111H45Z" fill="#C77D39"/>
<path d="M42 108V111H45V108H42Z" fill="#C77D39"/>
<path d="M42 108H39V105H42V108Z" fill="#C77D39"/>
<path d="M81 108H84V105H81V108Z" fill="#C77D39"/>
<path d="M48 90H51V93H48V90Z" fill="#F0D5D5"/>
<path d="M54 84H57V87H54V84Z" fill="#F0D5D5"/>
<path d="M63 93H66V96H63V93Z" fill="#F0D5D5"/>
<path d="M60 87H63V90H60V87Z" fill="#F0D5D5"/>
<path d="M72 90H75V93H72V90Z" fill="#F0D5D5"/>
<path d="M66 84H69V87H66V84Z" fill="#F0D5D5"/>
</svg>
