<svg width="121" height="120" viewBox="0 0 121 120" fill="none" xmlns="http://www.w3.org/2000/svg">
<path fill-rule="evenodd" clip-rule="evenodd" d="M33 41.0001V46.0001H28V61H33V66H48V61H53V46.0001H48V41.0001H33ZM33 46.0001H43V56H33V46.0001Z" fill="white"/>
<path d="M58 96H64V101H69V111H53V101H58V96Z" fill="white"/>
<path d="M89 41.0001V46.0001H79V56H89V46.0001H94V61H89V66H74V61H69V46.0001H74V41.0001H89Z" fill="white"/>
<path fill-rule="evenodd" clip-rule="evenodd" d="M69 51H53L53 61H48V66L28 66V71H23V81H28V86H43V91H38V96H33V106H28V101H23V111H38V106H43V111H48V106H53L53 101H58V96H64V101H69L69 106H74V111H79V106H84V111H99V101H94V106H89V96H84V91H79V86H94V81H99V71H94V66L74 66V61H69L69 51Z" fill="#EEB357"/>
<path d="M74 36H89L89 41.0001H74L74 36Z" fill="black"/>
<path d="M69 46.0001H74V41.0001L69 41L69 46.0001Z" fill="black"/>
<path d="M53 46.0001L53 51H69L69 46.0001H53Z" fill="black"/>
<path d="M48 41.0001V46.0001H53L53 41L48 41.0001Z" fill="black"/>
<path d="M33 41.0001H48L48 36H33L33 41.0001Z" fill="black"/>
<path d="M33 46.0001V41.0001L28 41L28 46.0001L23 46V61L28 61L28 66L23 66L23 71L18 71V81L23 81L23 86L28 86L28 91H33L33 96L23 96L23 101L18 101V111L23 111L23 116H38L38 111H43L43 116H48L48 111L53 111L53 116H69L69 111L74 111L74 116H79L79 111H84L84 116H99L99 111L104 111V101L99 101L99 96L89 96L89 91H94L94 86L99 86L99 81L104 81V71L99 71L99 66L94 66L94 61L99 61V46L94 46.0001L94 41L89 41.0001V46.0001H79V56H89V46.0001H94V61H89V66L94 66V71H99V81H94V86H79V91H84V96H89V106H94V101H99V111H84V106H79V111H74V106H69L69 111H53L53 106H48V111H43V106H38V111H23V101H28V106H33V96H38V91H43V86H28V81H23V71H28V66L33 66V61H28V46.0001H33Z" fill="black"/>
<path d="M33 46.0001H43V56H33V46.0001Z" fill="black"/>
<path d="M43 71H38V76H43V81H79V76H84V71H79V76H43V71Z" fill="black"/>
<path fill-rule="evenodd" clip-rule="evenodd" d="M33 41.0001V46.0001H28V61H33V66H48V61H53V46.0001H48V41.0001H33ZM33 46.0001H43V56H33V46.0001Z" fill="white"/>
<path d="M58 96H64V101H69V111H53V101H58V96Z" fill="white"/>
<path d="M89 41.0001V46.0001H79V56H89V46.0001H94V61H89V66H74V61H69V46.0001H74V41.0001H89Z" fill="white"/>
<path d="M74 36H89L89 41.0001H74L74 36Z" fill="black"/>
<path d="M69 46.0001H74V41.0001L69 41L69 46.0001Z" fill="black"/>
<path d="M53 46.0001L53 51H69L69 46.0001H53Z" fill="black"/>
<path d="M48 41.0001V46.0001H53L53 41L48 41.0001Z" fill="black"/>
<path d="M33 41.0001H48L48 36H33L33 41.0001Z" fill="black"/>
<path d="M33 46.0001V41.0001L28 41L28 46.0001L23 46V61L28 61L28 66L23 66L23 71L18 71V81L23 81L23 86L28 86L28 91H33L33 96L23 96L23 101L18 101V111L23 111L23 116H38L38 111H43L43 116H48L48 111L53 111L53 116H69L69 111L74 111L74 116H79L79 111H84L84 116H99L99 111L104 111V101L99 101L99 96L89 96L89 91H94L94 86L99 86L99 81L104 81V71L99 71L99 66L94 66L94 61L99 61V46L94 46.0001L94 41L89 41.0001V46.0001H79V56H89V46.0001H94V61H89V66L94 66V71H99V81H94V86H79V91H84V96H89V106H94V101H99V111H84V106H79V111H74V106H69L69 111H53L53 106H48V111H43V106H38V111H23V101H28V106H33V96H38V91H43V86H28V81H23V71H28V66L33 66V61H28V46.0001H33Z" fill="black"/>
<path d="M33 46.0001H43V56H33V46.0001Z" fill="black"/>
<path d="M43 71H38V76H43V81H79V76H84V71H79V76H43V71Z" fill="black"/>
<path d="M41.9998 95H46.9998V100H41.9998V95Z" fill="#EEB357"/>
<path d="M71.9998 95H74.9998V98H71.9998V95Z" fill="#EEB357"/>
<path d="M81.9998 80H85.9998V84H81.9998V80Z" fill="#EEB357"/>
<path d="M47.9998 90H50.9998V93H47.9998V90Z" fill="#EEB357"/>
<path d="M41.9998 95H46.9998V100H41.9998V95Z" fill="#EEB357"/>
<path d="M71.9998 95H74.9998V98H71.9998V95Z" fill="#EEB357"/>
<path d="M81.9998 80H85.9998V84H81.9998V80Z" fill="#EEB357"/>
<path d="M47.9998 90H50.9998V93H47.9998V90Z" fill="#EEB357"/>
<path d="M52 113H49V116H52V113Z" fill="#D9DFE3"/>
<path d="M58 107H55V110H58V107Z" fill="#D9DFE3"/>
<path d="M64 101H61V104H64V101Z" fill="#D9DFE3"/>
<path d="M70 95H67V98H70V95Z" fill="#D9DFE3"/>
<path d="M73 86H70V89H73V86Z" fill="#D9DFE3"/>
<path d="M70 80H67V83H70V80Z" fill="#D9DFE3"/>
<path d="M61 83H58V86H61V83Z" fill="#D9DFE3"/>
<path d="M52 110H49V113H52V110Z" fill="white"/>
<path d="M58 104H55V107H58V104Z" fill="white"/>
<path d="M64 98H61V101H64V98Z" fill="white"/>
<path d="M70 92H67V95H70V92Z" fill="white"/>
<path d="M70 86H67V89H70V86Z" fill="white"/>
<path d="M67 80H64V83H67V80Z" fill="white"/>
<path d="M58 83H55V86H58V83Z" fill="white"/>
<path d="M61 80H64V83H61V80Z" fill="#B72D42"/>
<path d="M73 83H70V86H73V83Z" fill="#B72D42"/>
<path d="M70 92H73V95H70V92Z" fill="#B72D42"/>
<path d="M67 98H64V101H67V98Z" fill="#B72D42"/>
<path d="M58 104H61V107H58V104Z" fill="#B72D42"/>
<path d="M52 110H55V113H52V110Z" fill="#B72D42"/>
<path d="M58 80H61V83H58V80Z" fill="#D23841"/>
<path d="M70 83V86H64V83H70Z" fill="#D23841"/>
<path d="M58 86H55V89H58V86Z" fill="#D23841"/>
<path d="M55 107H52V110H55V107Z" fill="#D23841"/>
<path d="M58 101H61V104H58V101Z" fill="#D23841"/>
<path d="M67 95H64V98H67V95Z" fill="#D23841"/>
<path d="M73 89V92H67V89H73Z" fill="#D23841"/>
<path fill-rule="evenodd" clip-rule="evenodd" d="M58 77V80H55V83H52V89H55V92H58V89H61V86H64V95H61V98H58V101H55V104H52V107H49V110H46V116H49V119H52V116H55V113H58V110H61V107H64V104H67V101H70V98H73V95H76V83H73V80H70V77H58ZM70 80V83H73V95H70V98H67V101H64V104H61V107H58V110H55V113H52V116H49V110H52V107H55V104H58V101H61V98H64V95H67V86H64V83H61V86H58V89H55V83H58V80H70Z" fill="#262121"/>
<path d="M52 113H49V116H52V113Z" fill="#D9DFE3"/>
<path d="M58 107H55V110H58V107Z" fill="#D9DFE3"/>
<path d="M64 101H61V104H64V101Z" fill="#D9DFE3"/>
<path d="M70 95H67V98H70V95Z" fill="#D9DFE3"/>
<path d="M73 86H70V89H73V86Z" fill="#D9DFE3"/>
<path d="M70 80H67V83H70V80Z" fill="#D9DFE3"/>
<path d="M61 83H58V86H61V83Z" fill="#D9DFE3"/>
<path d="M52 110H49V113H52V110Z" fill="white"/>
<path d="M58 104H55V107H58V104Z" fill="white"/>
<path d="M64 98H61V101H64V98Z" fill="white"/>
<path d="M70 92H67V95H70V92Z" fill="white"/>
<path d="M70 86H67V89H70V86Z" fill="white"/>
<path d="M67 80H64V83H67V80Z" fill="white"/>
<path d="M58 83H55V86H58V83Z" fill="white"/>
<path d="M61 80H64V83H61V80Z" fill="#B72D42"/>
<path d="M73 83H70V86H73V83Z" fill="#B72D42"/>
<path d="M70 92H73V95H70V92Z" fill="#B72D42"/>
<path d="M67 98H64V101H67V98Z" fill="#B72D42"/>
<path d="M58 104H61V107H58V104Z" fill="#B72D42"/>
<path d="M52 110H55V113H52V110Z" fill="#B72D42"/>
<path d="M58 80H61V83H58V80Z" fill="#D23841"/>
<path d="M70 83V86H64V83H70Z" fill="#D23841"/>
<path d="M58 86H55V89H58V86Z" fill="#D23841"/>
<path d="M55 107H52V110H55V107Z" fill="#D23841"/>
<path d="M58 101H61V104H58V101Z" fill="#D23841"/>
<path d="M67 95H64V98H67V95Z" fill="#D23841"/>
<path d="M73 89V92H67V89H73Z" fill="#D23841"/>
<path fill-rule="evenodd" clip-rule="evenodd" d="M58 77V80H55V83H52V89H55V92H58V89H61V86H64V95H61V98H58V101H55V104H52V107H49V110H46V116H49V119H52V116H55V113H58V110H61V107H64V104H67V101H70V98H73V95H76V83H73V80H70V77H58ZM70 80V83H73V95H70V98H67V101H64V104H61V107H58V110H55V113H52V116H49V110H52V107H55V104H58V101H61V98H64V95H67V86H64V83H61V86H58V89H55V83H58V80H70Z" fill="#262121"/>
<path d="M28 33H90V43H28V33Z" fill="white"/>
<path d="M117 36H107V45H117V36Z" fill="white"/>
<path fill-rule="evenodd" clip-rule="evenodd" d="M74 0H55V3H49V6H46V9H43V15H40V18H37V21H34V24H31V30H28V33H25V43H28V46H93V39H100V36H104V45H107V48H117V45H120V36H117V33H110V27H107V24H101V27H98V21H95V18H92V15H89V12H86V9H83V6H80V3H74V0ZM74 3V6H80V9H83V12H86V15H89V18H92V21H95V27H98V30H101V27H107V33H97V36H93V33H90V30H34V24H37V21H40V18H43V15H46V9H49V6H55V3H74ZM90 33V43H28V33H90ZM117 36V45H107V36H117Z" fill="black"/>
<path d="M34 24V30H90V33H93V36H97V33H107V27H101V30H98V27H95V21H92V18H89V15H86V12H83V9H80V6H74V3H55V6H49V9H46V15H43V18H40V21H37V24H34Z" fill="#E11D48"/>
<path d="M28 33H90V43H28V33Z" fill="white"/>
<path d="M117 36H107V45H117V36Z" fill="white"/>
<path fill-rule="evenodd" clip-rule="evenodd" d="M74 0H55V3H49V6H46V9H43V15H40V18H37V21H34V24H31V30H28V33H25V43H28V46H93V39H100V36H104V45H107V48H117V45H120V36H117V33H110V27H107V24H101V27H98V21H95V18H92V15H89V12H86V9H83V6H80V3H74V0ZM74 3V6H80V9H83V12H86V15H89V18H92V21H95V27H98V30H101V27H107V33H97V36H93V33H90V30H34V24H37V21H40V18H43V15H46V9H49V6H55V3H74ZM90 33V43H28V33H90ZM117 36V45H107V36H117Z" fill="black"/>
<path d="M34 24V30H90V33H93V36H97V33H107V27H101V30H98V27H95V21H92V18H89V15H86V12H83V9H80V6H74V3H55V6H49V9H46V15H43V18H40V21H37V24H34Z" fill="#E11D48"/>
</svg>
