<svg width="121" height="120" viewBox="0 0 121 120" fill="none" xmlns="http://www.w3.org/2000/svg">
<path fill-rule="evenodd" clip-rule="evenodd" d="M33 41.0001V46.0001H28V61H33V66H48V61H53V46.0001H48V41.0001H33ZM33 46.0001H43V56H33V46.0001Z" fill="white"/>
<path d="M58 96H64V101H69V111H53V101H58V96Z" fill="white"/>
<path d="M89 41.0001V46.0001H79V56H89V46.0001H94V61H89V66H74V61H69V46.0001H74V41.0001H89Z" fill="white"/>
<path fill-rule="evenodd" clip-rule="evenodd" d="M69 51H53L53 61H48V66L28 66V71H23V81H28V86H43V91H38V96H33V106H28V101H23V111H38V106H43V111H48V106H53L53 101H58V96H64V101H69L69 106H74V111H79V106H84V111H99V101H94V106H89V96H84V91H79V86H94V81H99V71H94V66L74 66V61H69L69 51Z" fill="#624232"/>
<path d="M74 36H89L89 41.0001H74L74 36Z" fill="black"/>
<path d="M69 46.0001H74V41.0001L69 41L69 46.0001Z" fill="black"/>
<path d="M53 46.0001L53 51H69L69 46.0001H53Z" fill="black"/>
<path d="M48 41.0001V46.0001H53L53 41L48 41.0001Z" fill="black"/>
<path d="M33 41.0001H48L48 36H33L33 41.0001Z" fill="black"/>
<path d="M33 46.0001V41.0001L28 41L28 46.0001L23 46V61L28 61L28 66L23 66L23 71L18 71V81L23 81L23 86L28 86L28 91H33L33 96L23 96L23 101L18 101V111L23 111L23 116H38L38 111H43L43 116H48L48 111L53 111L53 116H69L69 111L74 111L74 116H79L79 111H84L84 116H99L99 111L104 111V101L99 101L99 96L89 96L89 91H94L94 86L99 86L99 81L104 81V71L99 71L99 66L94 66L94 61L99 61V46L94 46.0001L94 41L89 41.0001V46.0001H79V56H89V46.0001H94V61H89V66L94 66V71H99V81H94V86H79V91H84V96H89V106H94V101H99V111H84V106H79V111H74V106H69L69 111H53L53 106H48V111H43V106H38V111H23V101H28V106H33V96H38V91H43V86H28V81H23V71H28V66L33 66V61H28V46.0001H33Z" fill="black"/>
<path d="M33 46.0001H43V56H33V46.0001Z" fill="black"/>
<path d="M43 71H38V76H43V81H79V76H84V71H79V76H43V71Z" fill="black"/>
<path fill-rule="evenodd" clip-rule="evenodd" d="M33 41.0001V46.0001H28V61H33V66H48V61H53V46.0001H48V41.0001H33ZM33 46.0001H43V56H33V46.0001Z" fill="white"/>
<path d="M58 96H64V101H69V111H53V101H58V96Z" fill="white"/>
<path d="M89 41.0001V46.0001H79V56H89V46.0001H94V61H89V66H74V61H69V46.0001H74V41.0001H89Z" fill="white"/>
<path d="M74 36H89L89 41.0001H74L74 36Z" fill="black"/>
<path d="M69 46.0001H74V41.0001L69 41L69 46.0001Z" fill="black"/>
<path d="M53 46.0001L53 51H69L69 46.0001H53Z" fill="black"/>
<path d="M48 41.0001V46.0001H53L53 41L48 41.0001Z" fill="black"/>
<path d="M33 41.0001H48L48 36H33L33 41.0001Z" fill="black"/>
<path d="M33 46.0001V41.0001L28 41L28 46.0001L23 46V61L28 61L28 66L23 66L23 71L18 71V81L23 81L23 86L28 86L28 91H33L33 96L23 96L23 101L18 101V111L23 111L23 116H38L38 111H43L43 116H48L48 111L53 111L53 116H69L69 111L74 111L74 116H79L79 111H84L84 116H99L99 111L104 111V101L99 101L99 96L89 96L89 91H94L94 86L99 86L99 81L104 81V71L99 71L99 66L94 66L94 61L99 61V46L94 46.0001L94 41L89 41.0001V46.0001H79V56H89V46.0001H94V61H89V66L94 66V71H99V81H94V86H79V91H84V96H89V106H94V101H99V111H84V106H79V111H74V106H69L69 111H53L53 106H48V111H43V106H38V111H23V101H28V106H33V96H38V91H43V86H28V81H23V71H28V66L33 66V61H28V46.0001H33Z" fill="black"/>
<path d="M33 46.0001H43V56H33V46.0001Z" fill="black"/>
<path d="M43 71H38V76H43V81H79V76H84V71H79V76H43V71Z" fill="black"/>
<path d="M41.9998 95H46.9998V100H41.9998V95Z" fill="#251C0D"/>
<path d="M71.9998 95H74.9998V98H71.9998V95Z" fill="#251C0D"/>
<path d="M81.9998 80H85.9998V84H81.9998V80Z" fill="#251C0D"/>
<path d="M47.9998 90H50.9998V93H47.9998V90Z" fill="#251C0D"/>
<path d="M41.9998 95H46.9998V100H41.9998V95Z" fill="#251C0D"/>
<path d="M71.9998 95H74.9998V98H71.9998V95Z" fill="#251C0D"/>
<path d="M81.9998 80H85.9998V84H81.9998V80Z" fill="#251C0D"/>
<path d="M47.9998 90H50.9998V93H47.9998V90Z" fill="#251C0D"/>
<path d="M54 93H69V96H72V99H66V96H57V99H51V96H54V93Z" fill="#DB3D71"/>
<path d="M54 90H63V93H54V90Z" fill="#FF6A94"/>
<path d="M54 93V96H51V93H54Z" fill="#FF6A94"/>
<path d="M48 99H57V102H66V99H72V105H51V102H48V99Z" fill="#FF6A94"/>
<path d="M75 99H78V102H75V99Z" fill="#FF6A94"/>
<path d="M78 90H72V93H75V96H78V99H81V102H78V105H72V108H81V105H84V96H81V93H78V90Z" fill="#F64C87"/>
<path d="M48 96H51V99H48V96Z" fill="#E4202C"/>
<path d="M60 93H63V96H60V93Z" fill="#E4202C"/>
<path d="M51 102H54V105H51V102Z" fill="#47B9B4"/>
<path d="M72 102H75V105H72V102Z" fill="#47B9B4"/>
<path d="M69 96H72V99H69V96Z" fill="#47B9B4"/>
<path d="M75 96H78V99H75V96Z" fill="#47B9B4"/>
<path fill-rule="evenodd" clip-rule="evenodd" d="M72 87H51V90H48V96H45V105H51V108H57V111H69V108H72V105H78V102H81V99H78V96H75V93H72V87ZM72 93V96H75V99H78V102H72V105H51V102H48V96H51V93H54V90H69V93H72Z" fill="#FF8BAF"/>
<path d="M48 90H45V93H42V96H39V108H51V111H57V108H51V105H45V96H48V90Z" fill="#FFBEC9"/>
<path d="M69 93H72V96H69V93Z" fill="#FFBEC9"/>
<path d="M69 93H63V90H69V93Z" fill="#FFBEC9"/>
<path d="M72 96H75V102H72V96Z" fill="#FFBEC9"/>
<path d="M66 96H57V102H66V96Z" fill="#6A301B"/>
<path d="M48 105H42V108H45V111H54V108H48V105Z" fill="#CB9757"/>
<path d="M69 108H78V111H69V108Z" fill="#CB9757"/>
<path d="M51 111H72V114H51V111Z" fill="#E1AB5B"/>
<path d="M51 117H72V120H51V117Z" fill="#361A0A"/>
<path d="M72 114H78V117H72V114Z" fill="#361A0A"/>
<path d="M51 114H45V117H51V114Z" fill="#361A0A"/>
<path d="M78 111H81V114H78V111Z" fill="#361A0A"/>
<path d="M45 111H42V114H45V111Z" fill="#361A0A"/>
<path d="M81 108H84V111H81V108Z" fill="#361A0A"/>
<path d="M42 108H39V111H42V108Z" fill="#361A0A"/>
<path d="M81 93H84V96H81V93Z" fill="#361A0A"/>
<path d="M42 93H39V96H42V93Z" fill="#361A0A"/>
<path d="M78 90H81V93H78V90Z" fill="#361A0A"/>
<path d="M45 90H42V93H45V90Z" fill="#361A0A"/>
<path d="M51 84H72V87H51V84Z" fill="#361A0A"/>
<path d="M72 87H78V90H72V87Z" fill="#361A0A"/>
<path d="M51 87H45V90H51V87Z" fill="#361A0A"/>
<path d="M84 96H87V108H84V96Z" fill="#361A0A"/>
<path d="M39 96H36V108H39V96Z" fill="#361A0A"/>
<path d="M39 96H42V108H39V96Z" fill="#C77D39"/>
<path d="M45 111V108H42V111H45Z" fill="#C77D39"/>
<path d="M51 114V111H45V114H51Z" fill="#C77D39"/>
<path d="M72 114H51V117H72V114Z" fill="#C77D39"/>
<path d="M78 111H72V114H78V111Z" fill="#C77D39"/>
<path d="M81 108H78V111H81V108Z" fill="#C77D39"/>
<path d="M81 108V105H84V108H81Z" fill="#C77D39"/>
<path d="M54 90H57V93H54V90Z" fill="#E2E535"/>
<path d="M66 105H69V108H66V105Z" fill="#E2E535"/>
<path d="M66 90H69V93H66V90Z" fill="#E2E535"/>
<path d="M57 105H60V108H57V105Z" fill="white"/>
<path d="M45 99H48V102H45V99Z" fill="white"/>
<path d="M54 93H69V96H72V99H66V96H57V99H51V96H54V93Z" fill="#DB3D71"/>
<path d="M54 90H63V93H54V90Z" fill="#FF6A94"/>
<path d="M54 93V96H51V93H54Z" fill="#FF6A94"/>
<path d="M48 99H57V102H66V99H72V105H51V102H48V99Z" fill="#FF6A94"/>
<path d="M75 99H78V102H75V99Z" fill="#FF6A94"/>
<path d="M78 90H72V93H75V96H78V99H81V102H78V105H72V108H81V105H84V96H81V93H78V90Z" fill="#F64C87"/>
<path d="M48 96H51V99H48V96Z" fill="#E4202C"/>
<path d="M60 93H63V96H60V93Z" fill="#E4202C"/>
<path d="M51 102H54V105H51V102Z" fill="#47B9B4"/>
<path d="M72 102H75V105H72V102Z" fill="#47B9B4"/>
<path d="M69 96H72V99H69V96Z" fill="#47B9B4"/>
<path d="M75 96H78V99H75V96Z" fill="#47B9B4"/>
<path fill-rule="evenodd" clip-rule="evenodd" d="M72 87H51V90H48V96H45V105H51V108H57V111H69V108H72V105H78V102H81V99H78V96H75V93H72V87ZM72 93V96H75V99H78V102H72V105H51V102H48V96H51V93H54V90H69V93H72Z" fill="#FF8BAF"/>
<path d="M48 90H45V93H42V96H39V108H51V111H57V108H51V105H45V96H48V90Z" fill="#FFBEC9"/>
<path d="M69 93H72V96H69V93Z" fill="#FFBEC9"/>
<path d="M69 93H63V90H69V93Z" fill="#FFBEC9"/>
<path d="M72 96H75V102H72V96Z" fill="#FFBEC9"/>
<path d="M66 96H57V102H66V96Z" fill="#6A301B"/>
<path d="M48 105H42V108H45V111H54V108H48V105Z" fill="#CB9757"/>
<path d="M69 108H78V111H69V108Z" fill="#CB9757"/>
<path d="M51 111H72V114H51V111Z" fill="#E1AB5B"/>
<path d="M51 117H72V120H51V117Z" fill="#361A0A"/>
<path d="M72 114H78V117H72V114Z" fill="#361A0A"/>
<path d="M51 114H45V117H51V114Z" fill="#361A0A"/>
<path d="M78 111H81V114H78V111Z" fill="#361A0A"/>
<path d="M45 111H42V114H45V111Z" fill="#361A0A"/>
<path d="M81 108H84V111H81V108Z" fill="#361A0A"/>
<path d="M42 108H39V111H42V108Z" fill="#361A0A"/>
<path d="M81 93H84V96H81V93Z" fill="#361A0A"/>
<path d="M42 93H39V96H42V93Z" fill="#361A0A"/>
<path d="M78 90H81V93H78V90Z" fill="#361A0A"/>
<path d="M45 90H42V93H45V90Z" fill="#361A0A"/>
<path d="M51 84H72V87H51V84Z" fill="#361A0A"/>
<path d="M72 87H78V90H72V87Z" fill="#361A0A"/>
<path d="M51 87H45V90H51V87Z" fill="#361A0A"/>
<path d="M84 96H87V108H84V96Z" fill="#361A0A"/>
<path d="M39 96H36V108H39V96Z" fill="#361A0A"/>
<path d="M39 96H42V108H39V96Z" fill="#C77D39"/>
<path d="M45 111V108H42V111H45Z" fill="#C77D39"/>
<path d="M51 114V111H45V114H51Z" fill="#C77D39"/>
<path d="M72 114H51V117H72V114Z" fill="#C77D39"/>
<path d="M78 111H72V114H78V111Z" fill="#C77D39"/>
<path d="M81 108H78V111H81V108Z" fill="#C77D39"/>
<path d="M81 108V105H84V108H81Z" fill="#C77D39"/>
<path d="M54 90H57V93H54V90Z" fill="#E2E535"/>
<path d="M66 105H69V108H66V105Z" fill="#E2E535"/>
<path d="M66 90H69V93H66V90Z" fill="#E2E535"/>
<path d="M57 105H60V108H57V105Z" fill="white"/>
<path d="M45 99H48V102H45V99Z" fill="white"/>
<path d="M70 13V8H55V13H52V16H49V23H64V20H67V13H70Z" fill="#E6B17F"/>
<path d="M63 35V32H48V35H45V39H41V44H57V38H60V35H63Z" fill="#E6B17F"/>
<path d="M73 8H70V13H67V20H64V23H76V20H79V14H76V11H73V8Z" fill="#F3C395"/>
<path d="M77 32H63V35H60V38H57V44H70V39H77V32Z" fill="#F3C395"/>
<path d="M40 20V23H49V16H52V13H55V8H49V11H46V14H43V20H40Z" fill="#F3C395"/>
<path d="M25 38V44H41V39H45V35H48V32H37V35H34V38H25Z" fill="#F3C395"/>
<path d="M46 8H49V11H46V8Z" fill="#2B1905"/>
<path d="M49 5H73V8H49V5Z" fill="#2B1905"/>
<path d="M76 8H73V11H76V8Z" fill="#2B1905"/>
<path d="M19 44H103V47H19V44Z" fill="#2B1905"/>
<path d="M16 41H19V44H16V41Z" fill="#2B1905"/>
<path d="M106 41H103V44H106V41Z" fill="#2B1905"/>
<path d="M19 38H22V41H19V38Z" fill="#2B1905"/>
<path d="M103 38H100V41H103V38Z" fill="#2B1905"/>
<path d="M22 35H25V38H22V35Z" fill="#2B1905"/>
<path d="M100 35H97V38H100V35Z" fill="#2B1905"/>
<path d="M34 29H37V32H34V29Z" fill="#2B1905"/>
<path d="M88 29H85V32H88V29Z" fill="#2B1905"/>
<path d="M43 11H46V14H43V11Z" fill="#2B1905"/>
<path d="M79 11H76V14H79V11Z" fill="#2B1905"/>
<path d="M40 14H43V20H40V14Z" fill="#2B1905"/>
<path d="M82 14H79V20H82V14Z" fill="#2B1905"/>
<path d="M37 20H40V29H37V20Z" fill="#2B1905"/>
<path d="M85 20H82V29H85V20Z" fill="#2B1905"/>
<path d="M25 32H34V35H25V32Z" fill="#2B1905"/>
<path d="M97 32H88V35H97V32Z" fill="#2B1905"/>
<path d="M19 41H25V44H19V41Z" fill="#E6B17F"/>
<path d="M22 38H25V41H22V38Z" fill="#E6B17F"/>
<path d="M34 32H37V35H34V32Z" fill="#E6B17F"/>
<path d="M25 35H34V38H25V35Z" fill="#E6B17F"/>
<path d="M48 23H61V32H48V23Z" fill="#BC1C1C"/>
<path d="M48 23H43V26H40V29H37V32H48V23Z" fill="#D15354"/>
<path d="M40 23H43V26H40V23Z" fill="#BC1C1C"/>
<path d="M82 23H61V32H85V29H82V23Z" fill="#AE1C1C"/>
<path d="M76 20H82V23H76V20Z" fill="#C79C72"/>
<path d="M70 39V44H103V41H100V38H97V35H88V32H77V39H70Z" fill="#C79C72"/>
<path d="M70 13V8H55V13H52V16H49V23H64V20H67V13H70Z" fill="#E6B17F"/>
<path d="M63 35V32H48V35H45V39H41V44H57V38H60V35H63Z" fill="#E6B17F"/>
<path d="M73 8H70V13H67V20H64V23H76V20H79V14H76V11H73V8Z" fill="#F3C395"/>
<path d="M77 32H63V35H60V38H57V44H70V39H77V32Z" fill="#F3C395"/>
<path d="M40 20V23H49V16H52V13H55V8H49V11H46V14H43V20H40Z" fill="#F3C395"/>
<path d="M25 38V44H41V39H45V35H48V32H37V35H34V38H25Z" fill="#F3C395"/>
<path d="M46 8H49V11H46V8Z" fill="#2B1905"/>
<path d="M49 5H73V8H49V5Z" fill="#2B1905"/>
<path d="M76 8H73V11H76V8Z" fill="#2B1905"/>
<path d="M19 44H103V47H19V44Z" fill="#2B1905"/>
<path d="M16 41H19V44H16V41Z" fill="#2B1905"/>
<path d="M106 41H103V44H106V41Z" fill="#2B1905"/>
<path d="M19 38H22V41H19V38Z" fill="#2B1905"/>
<path d="M103 38H100V41H103V38Z" fill="#2B1905"/>
<path d="M22 35H25V38H22V35Z" fill="#2B1905"/>
<path d="M100 35H97V38H100V35Z" fill="#2B1905"/>
<path d="M34 29H37V32H34V29Z" fill="#2B1905"/>
<path d="M88 29H85V32H88V29Z" fill="#2B1905"/>
<path d="M43 11H46V14H43V11Z" fill="#2B1905"/>
<path d="M79 11H76V14H79V11Z" fill="#2B1905"/>
<path d="M40 14H43V20H40V14Z" fill="#2B1905"/>
<path d="M82 14H79V20H82V14Z" fill="#2B1905"/>
<path d="M37 20H40V29H37V20Z" fill="#2B1905"/>
<path d="M85 20H82V29H85V20Z" fill="#2B1905"/>
<path d="M25 32H34V35H25V32Z" fill="#2B1905"/>
<path d="M97 32H88V35H97V32Z" fill="#2B1905"/>
<path d="M19 41H25V44H19V41Z" fill="#E6B17F"/>
<path d="M22 38H25V41H22V38Z" fill="#E6B17F"/>
<path d="M34 32H37V35H34V32Z" fill="#E6B17F"/>
<path d="M25 35H34V38H25V35Z" fill="#E6B17F"/>
<path d="M48 23H61V32H48V23Z" fill="#BC1C1C"/>
<path d="M48 23H43V26H40V29H37V32H48V23Z" fill="#D15354"/>
<path d="M40 23H43V26H40V23Z" fill="#BC1C1C"/>
<path d="M82 23H61V32H85V29H82V23Z" fill="#AE1C1C"/>
<path d="M76 20H82V23H76V20Z" fill="#C79C72"/>
<path d="M70 39V44H103V41H100V38H97V35H88V32H77V39H70Z" fill="#C79C72"/>
</svg>
