<svg width="121" height="120" viewBox="0 0 121 120" fill="none" xmlns="http://www.w3.org/2000/svg">
<path fill-rule="evenodd" clip-rule="evenodd" d="M33 41.0001V46.0001H28V61H33V66H48V61H53V46.0001H48V41.0001H33ZM33 46.0001H43V56H33V46.0001Z" fill="white"/>
<path d="M58 96H64V101H69V111H53V101H58V96Z" fill="white"/>
<path d="M89 41.0001V46.0001H79V56H89V46.0001H94V61H89V66H74V61H69V46.0001H74V41.0001H89Z" fill="white"/>
<path fill-rule="evenodd" clip-rule="evenodd" d="M69 51H53L53 61H48V66L28 66V71H23V81H28V86H43V91H38V96H33V106H28V101H23V111H38V106H43V111H48V106H53L53 101H58V96H64V101H69L69 106H74V111H79V106H84V111H99V101H94V106H89V96H84V91H79V86H94V81H99V71H94V66L74 66V61H69L69 51Z" fill="#EE5797"/>
<path d="M74 36H89L89 41.0001H74L74 36Z" fill="black"/>
<path d="M69 46.0001H74V41.0001L69 41L69 46.0001Z" fill="black"/>
<path d="M53 46.0001L53 51H69L69 46.0001H53Z" fill="black"/>
<path d="M48 41.0001V46.0001H53L53 41L48 41.0001Z" fill="black"/>
<path d="M33 41.0001H48L48 36H33L33 41.0001Z" fill="black"/>
<path d="M33 46.0001V41.0001L28 41L28 46.0001L23 46V61L28 61L28 66L23 66L23 71L18 71V81L23 81L23 86L28 86L28 91H33L33 96L23 96L23 101L18 101V111L23 111L23 116H38L38 111H43L43 116H48L48 111L53 111L53 116H69L69 111L74 111L74 116H79L79 111H84L84 116H99L99 111L104 111V101L99 101L99 96L89 96L89 91H94L94 86L99 86L99 81L104 81V71L99 71L99 66L94 66L94 61L99 61V46L94 46.0001L94 41L89 41.0001V46.0001H79V56H89V46.0001H94V61H89V66L94 66V71H99V81H94V86H79V91H84V96H89V106H94V101H99V111H84V106H79V111H74V106H69L69 111H53L53 106H48V111H43V106H38V111H23V101H28V106H33V96H38V91H43V86H28V81H23V71H28V66L33 66V61H28V46.0001H33Z" fill="black"/>
<path d="M33 46.0001H43V56H33V46.0001Z" fill="black"/>
<path d="M43 71H38V76H43V81H79V76H84V71H79V76H43V71Z" fill="black"/>
<path fill-rule="evenodd" clip-rule="evenodd" d="M33 41.0001V46.0001H28V61H33V66H48V61H53V46.0001H48V41.0001H33ZM33 46.0001H43V56H33V46.0001Z" fill="white"/>
<path d="M58 96H64V101H69V111H53V101H58V96Z" fill="white"/>
<path d="M89 41.0001V46.0001H79V56H89V46.0001H94V61H89V66H74V61H69V46.0001H74V41.0001H89Z" fill="white"/>
<path d="M74 36H89L89 41.0001H74L74 36Z" fill="black"/>
<path d="M69 46.0001H74V41.0001L69 41L69 46.0001Z" fill="black"/>
<path d="M53 46.0001L53 51H69L69 46.0001H53Z" fill="black"/>
<path d="M48 41.0001V46.0001H53L53 41L48 41.0001Z" fill="black"/>
<path d="M33 41.0001H48L48 36H33L33 41.0001Z" fill="black"/>
<path d="M33 46.0001V41.0001L28 41L28 46.0001L23 46V61L28 61L28 66L23 66L23 71L18 71V81L23 81L23 86L28 86L28 91H33L33 96L23 96L23 101L18 101V111L23 111L23 116H38L38 111H43L43 116H48L48 111L53 111L53 116H69L69 111L74 111L74 116H79L79 111H84L84 116H99L99 111L104 111V101L99 101L99 96L89 96L89 91H94L94 86L99 86L99 81L104 81V71L99 71L99 66L94 66L94 61L99 61V46L94 46.0001L94 41L89 41.0001V46.0001H79V56H89V46.0001H94V61H89V66L94 66V71H99V81H94V86H79V91H84V96H89V106H94V101H99V111H84V106H79V111H74V106H69L69 111H53L53 106H48V111H43V106H38V111H23V101H28V106H33V96H38V91H43V86H28V81H23V71H28V66L33 66V61H28V46.0001H33Z" fill="black"/>
<path d="M33 46.0001H43V56H33V46.0001Z" fill="black"/>
<path d="M43 71H38V76H43V81H79V76H84V71H79V76H43V71Z" fill="black"/>
<path d="M41.9998 95H46.9998V100H41.9998V95Z" fill="#EE5797"/>
<path d="M71.9998 95H74.9998V98H71.9998V95Z" fill="#EE5797"/>
<path d="M81.9998 80H85.9998V84H81.9998V80Z" fill="#EE5797"/>
<path d="M47.9998 90H50.9998V93H47.9998V90Z" fill="#EE5797"/>
<path d="M41.9998 95H46.9998V100H41.9998V95Z" fill="#EE5797"/>
<path d="M71.9998 95H74.9998V98H71.9998V95Z" fill="#EE5797"/>
<path d="M81.9998 80H85.9998V84H81.9998V80Z" fill="#EE5797"/>
<path d="M47.9998 90H50.9998V93H47.9998V90Z" fill="#EE5797"/>
<path d="M51 79H48V82H45V85H42V88H39V91H36V88H33V79H21V91H24V94H42V91H45V88H48V82H51V79Z" fill="#3078AC"/>
<path fill-rule="evenodd" clip-rule="evenodd" d="M48 76V79H45V82H42V85H39V88H36V79H33V76H21V79H18V91H21V94H24V97H42V94H45V91H48V88H51V82H54V79H60V76H48ZM48 82H45V85H42V88H39V91H36V88H33V79H21V91H24V94H42V91H45V88H48V82ZM48 82H51V79H48V82Z" fill="black"/>
<path d="M24 82H27V88H24V82Z" fill="white"/>
<path d="M27 88H30V91H27V88Z" fill="white"/>
<path d="M51 79H48V82H45V85H42V88H39V91H36V88H33V79H21V91H24V94H42V91H45V88H48V82H51V79Z" fill="#3078AC"/>
<path fill-rule="evenodd" clip-rule="evenodd" d="M48 76V79H45V82H42V85H39V88H36V79H33V76H21V79H18V91H21V94H24V97H42V94H45V91H48V88H51V82H54V79H60V76H48ZM48 82H45V85H42V88H39V91H36V88H33V79H21V91H24V94H42V91H45V88H48V82ZM48 82H51V79H48V82Z" fill="black"/>
<path d="M24 82H27V88H24V82Z" fill="white"/>
<path d="M27 88H30V91H27V88Z" fill="white"/>
<path d="M22 40V43H71V40H74V37H77V34H80V31H83V16H80V13H76V10H61V7H45V12H42V15H39V18H36V34H39V37H57V40H22Z" fill="#4E5085"/>
<path d="M41 28H56V31H41V28Z" fill="#95C8DD"/>
<path d="M61 7H85V10H88V16H91V43H71V40H74V37H77V34H80V31H83V16H80V13H76V10H61V7Z" fill="#2D3470"/>
<path d="M70 4H61V7H70V4Z" fill="#121717"/>
<path d="M85 7H88V10H85V7Z" fill="#121717"/>
<path d="M91 16V10H88V16H91Z" fill="#121717"/>
<path d="M91 43V46H94V16H91V43Z" fill="#121717"/>
<path d="M22 43V46H91V43H22Z" fill="#121717"/>
<path d="M22 43H19V40H22V43Z" fill="#121717"/>
<path d="M36 34H39V37H57V40H36V34Z" fill="#121717"/>
<path d="M63 37H60V40H63V37Z" fill="#121717"/>
<path d="M22 40V43H71V40H74V37H77V34H80V31H83V16H80V13H76V10H61V7H45V12H42V15H39V18H36V34H39V37H57V40H22Z" fill="#4E5085"/>
<path d="M41 28H56V31H41V28Z" fill="#95C8DD"/>
<path d="M61 7H85V10H88V16H91V43H71V40H74V37H77V34H80V31H83V16H80V13H76V10H61V7Z" fill="#2D3470"/>
<path d="M70 4H61V7H70V4Z" fill="#121717"/>
<path d="M85 7H88V10H85V7Z" fill="#121717"/>
<path d="M91 16V10H88V16H91Z" fill="#121717"/>
<path d="M91 43V46H94V16H91V43Z" fill="#121717"/>
<path d="M22 43V46H91V43H22Z" fill="#121717"/>
<path d="M22 43H19V40H22V43Z" fill="#121717"/>
<path d="M36 34H39V37H57V40H36V34Z" fill="#121717"/>
<path d="M63 37H60V40H63V37Z" fill="#121717"/>
<path d="M22 40V43H71V40H74V37H77V34H80V31H83V16H80V13H76V10H61V7H45V12H42V15H39V18H36V34H39V37H57V40H22Z" fill="#4E5085"/>
<path d="M41 28H56V31H41V28Z" fill="#95C8DD"/>
<path d="M61 7H85V10H88V16H91V43H71V40H74V37H77V34H80V31H83V16H80V13H76V10H61V7Z" fill="#2D3470"/>
<path d="M70 4H61V7H70V4Z" fill="#121717"/>
<path d="M85 7H88V10H85V7Z" fill="#121717"/>
<path d="M91 16V10H88V16H91Z" fill="#121717"/>
<path d="M91 43V46H94V16H91V43Z" fill="#121717"/>
<path d="M22 43V46H91V43H22Z" fill="#121717"/>
<path d="M22 43H19V40H22V43Z" fill="#121717"/>
<path d="M36 34H39V37H57V40H36V34Z" fill="#121717"/>
<path d="M63 37H60V40H63V37Z" fill="#121717"/>
<path d="M22 40V43H71V40H74V37H77V34H80V31H83V16H80V13H76V10H61V7H45V12H42V15H39V18H36V34H39V37H57V40H22Z" fill="#4E5085"/>
<path d="M41 28H56V31H41V28Z" fill="#95C8DD"/>
<path d="M61 7H85V10H88V16H91V43H71V40H74V37H77V34H80V31H83V16H80V13H76V10H61V7Z" fill="#2D3470"/>
<path d="M70 4H61V7H70V4Z" fill="#121717"/>
<path d="M85 7H88V10H85V7Z" fill="#121717"/>
<path d="M91 16V10H88V16H91Z" fill="#121717"/>
<path d="M22 43V46H91V43H22Z" fill="#121717"/>
<path d="M22 43H19V40H22V43Z" fill="#121717"/>
<path d="M36 34H39V37H57V40H36V34Z" fill="#121717"/>
<path d="M63 37H60V40H63V37Z" fill="#121717"/>
<path d="M22 40V43H71V40H74V37H77V34H80V31H83V16H80V13H76V10H61V7H45V12H42V15H39V18H36V34H39V37H57V40H22Z" fill="#4E5085"/>
<path d="M41 28H56V31H41V28Z" fill="#95C8DD"/>
<path d="M61 7H85V10H88V16H91V43H71V40H74V37H77V34H80V31H83V16H80V13H76V10H61V7Z" fill="#2D3470"/>
<path d="M70 4H61V7H70V4Z" fill="#121717"/>
<path d="M85 7H88V10H85V7Z" fill="#121717"/>
<path d="M91 16V10H88V16H91Z" fill="#121717"/>
<path d="M91 43V46H94V16H91V43Z" fill="#121717"/>
<path d="M22 43V46H91V43H22Z" fill="#121717"/>
<path d="M22 43H19V40H22V43Z" fill="#121717"/>
<path d="M36 34H39V37H57V40H36V34Z" fill="#121717"/>
<path d="M63 37H60V40H63V37Z" fill="#121717"/>
<path d="M22 40V43H71V40H74V37H77V34H80V31H83V16H80V13H76V10H61V7H45V12H42V15H39V18H36V34H39V37H57V40H22Z" fill="#4E5085"/>
<path d="M41 28H56V31H41V28Z" fill="#95C8DD"/>
<path d="M61 7H85V10H88V16H91V43H71V40H74V37H77V34H80V31H83V16H80V13H76V10H61V7Z" fill="#2D3470"/>
<path d="M70 4H61V7H70V4Z" fill="#121717"/>
<path d="M85 7H88V10H85V7Z" fill="#121717"/>
<path d="M91 16V10H88V16H91Z" fill="#121717"/>
<path d="M91 43V46H94V16H91V43Z" fill="#121717"/>
<path d="M22 43V46H91V43H22Z" fill="#121717"/>
<path d="M22 43H19V40H22V43Z" fill="#121717"/>
<path d="M36 34H39V37H57V40H36V34Z" fill="#121717"/>
<path d="M63 37H60V40H63V37Z" fill="#121717"/>
<path d="M22 40V43H71V40H74V37H77V34H80V31H83V16H80V13H76V10H61V7H45V12H42V15H39V18H36V34H39V37H57V40H22Z" fill="#4E5085"/>
<path d="M41 28H56V31H41V28Z" fill="#95C8DD"/>
<path d="M61 7H85V10H88V16H91V43H71V40H74V37H77V34H80V31H83V16H80V13H76V10H61V7Z" fill="#2D3470"/>
<path d="M70 4H61V7H70V4Z" fill="#121717"/>
<path d="M85 7H88V10H85V7Z" fill="#121717"/>
<path d="M91 16V10H88V16H91Z" fill="#121717"/>
<path d="M91 43V46H94V16H91V43Z" fill="#121717"/>
<path d="M22 43V46H91V43H22Z" fill="#121717"/>
<path d="M22 43H19V40H22V43Z" fill="#121717"/>
<path d="M36 34H39V37H57V40H36V34Z" fill="#121717"/>
<path d="M63 37H60V40H63V37Z" fill="#121717"/>
<path d="M22 40V43H71V40H74V37H77V34H80V31H83V16H80V13H76V10H61V7H45V12H42V15H39V18H36V34H39V37H57V40H22Z" fill="#4E5085"/>
<path d="M41 28H56V31H41V28Z" fill="#95C8DD"/>
<path d="M61 7H85V10H88V16H91V43H71V40H74V37H77V34H80V31H83V16H80V13H76V10H61V7Z" fill="#2D3470"/>
<path d="M70 4H61V7H70V4Z" fill="#121717"/>
<path d="M85 7H88V10H85V7Z" fill="#121717"/>
<path d="M91 16V10H88V16H91Z" fill="#121717"/>
<path d="M22 43V46H91V43H22Z" fill="#121717"/>
<path d="M22 43H19V40H22V43Z" fill="#121717"/>
<path d="M36 34H39V37H57V40H36V34Z" fill="#121717"/>
<path d="M63 37H60V40H63V37Z" fill="#121717"/>
</svg>
