<svg width="121" height="121" viewBox="0 0 121 121" fill="none" xmlns="http://www.w3.org/2000/svg">
<path d="M25 39H22V48H100V39H97V30H94V24H91V15H85V12H82V9H76V6H64V3H58V6H46V9H40V12H37V15H31V24H28V30H25V39Z" fill="#43D890"/>
<path d="M56 13H59V16H56V13Z" fill="#2EA66C"/>
<path d="M25 42H28V45H25V42Z" fill="#2EA66C"/>
<path d="M22 39H25V42H22V39Z" fill="#2EA66C"/>
<path d="M61 35H64V38H61V35Z" fill="#2EA66C"/>
<path d="M94 42H97V45H94V42Z" fill="#2EA66C"/>
<path d="M97 39H100V42H97V39Z" fill="#2EA66C"/>
<path d="M77 32H80V35H77V32Z" fill="#2EA66C"/>
<path d="M84 26H87V32H84V26Z" fill="#2EA66C"/>
<path d="M67 19H73V25H67V19Z" fill="#2EA66C"/>
<path d="M100 39H103V48H100V39Z" fill="#222222"/>
<path d="M22 39H19V48H22V39Z" fill="#222222"/>
<path d="M97 30H100V39H97V30Z" fill="#222222"/>
<path d="M25 30H22V39H25V30Z" fill="#222222"/>
<path d="M94 24H97V30H94V24Z" fill="#222222"/>
<path d="M28 24H25V30H28V24Z" fill="#222222"/>
<path d="M85 12H91V15H85V12Z" fill="#222222"/>
<path d="M37 12H31V15H37V12Z" fill="#222222"/>
<path d="M82 9H85V12H82V9Z" fill="#222222"/>
<path d="M40 9H37V12H40V9Z" fill="#222222"/>
<path d="M76 6H82V9H76V6Z" fill="#222222"/>
<path d="M46 6H40V9H46V6Z" fill="#222222"/>
<path d="M58 0H64V3H58V0Z" fill="#222222"/>
<path d="M64 3H76V6H64V3Z" fill="#222222"/>
<path d="M58 3H46V6H58V3Z" fill="#222222"/>
<path d="M91 15H94V24H91V15Z" fill="#222222"/>
<path d="M31 15H28V24H31V15Z" fill="#222222"/>
<path d="M25 39H22V48H100V39H97V30H94V24H91V15H85V12H82V9H76V6H64V3H58V6H46V9H40V12H37V15H31V24H28V30H25V39Z" fill="#43D890"/>
<path d="M56 13H59V16H56V13Z" fill="#2EA66C"/>
<path d="M25 42H28V45H25V42Z" fill="#2EA66C"/>
<path d="M22 39H25V42H22V39Z" fill="#2EA66C"/>
<path d="M61 35H64V38H61V35Z" fill="#2EA66C"/>
<path d="M94 42H97V45H94V42Z" fill="#2EA66C"/>
<path d="M97 39H100V42H97V39Z" fill="#2EA66C"/>
<path d="M77 32H80V35H77V32Z" fill="#2EA66C"/>
<path d="M84 26H87V32H84V26Z" fill="#2EA66C"/>
<path d="M67 19H73V25H67V19Z" fill="#2EA66C"/>
<path d="M100 39H103V48H100V39Z" fill="#222222"/>
<path d="M22 39H19V48H22V39Z" fill="#222222"/>
<path d="M97 30H100V39H97V30Z" fill="#222222"/>
<path d="M25 30H22V39H25V30Z" fill="#222222"/>
<path d="M94 24H97V30H94V24Z" fill="#222222"/>
<path d="M28 24H25V30H28V24Z" fill="#222222"/>
<path d="M85 12H91V15H85V12Z" fill="#222222"/>
<path d="M37 12H31V15H37V12Z" fill="#222222"/>
<path d="M82 9H85V12H82V9Z" fill="#222222"/>
<path d="M40 9H37V12H40V9Z" fill="#222222"/>
<path d="M76 6H82V9H76V6Z" fill="#222222"/>
<path d="M46 6H40V9H46V6Z" fill="#222222"/>
<path d="M58 0H64V3H58V0Z" fill="#222222"/>
<path d="M64 3H76V6H64V3Z" fill="#222222"/>
<path d="M58 3H46V6H58V3Z" fill="#222222"/>
<path d="M91 15H94V24H91V15Z" fill="#222222"/>
<path d="M31 15H28V24H31V15Z" fill="#222222"/>
<path fill-rule="evenodd" clip-rule="evenodd" d="M33 42.0001V47.0001H28V62H33V67H48V62H53V47.0001H48V42.0001H33ZM33 47.0001H43V57H33V47.0001Z" fill="white"/>
<path d="M58 97H64V102H69V112H53V102H58V97Z" fill="white"/>
<path d="M89 42.0001V47.0001H79V57H89V47.0001H94V62H89V67H74V62H69V47.0001H74V42.0001H89Z" fill="white"/>
<path fill-rule="evenodd" clip-rule="evenodd" d="M69 52H53L53 62H48V67L28 67V72H23V82H28V87H43V92H38V97H33V107H28V102H23V112H38V107H43V112H48V107H53L53 102H58V97H64V102H69L69 107H74V112H79V107H84V112H99V102H94V107H89V97H84V92H79V87H94V82H99V72H94V67L74 67V62H69L69 52Z" fill="#624232"/>
<path d="M74 37H89L89 42.0001H74L74 37Z" fill="black"/>
<path d="M69 47.0001H74V42.0001L69 42L69 47.0001Z" fill="black"/>
<path d="M53 47.0001L53 52H69L69 47.0001H53Z" fill="black"/>
<path d="M48 42.0001V47.0001H53L53 42L48 42.0001Z" fill="black"/>
<path d="M33 42.0001H48L48 37H33L33 42.0001Z" fill="black"/>
<path d="M33 47.0001V42.0001L28 42L28 47.0001L23 47V62L28 62L28 67L23 67L23 72L18 72V82L23 82L23 87L28 87L28 92H33L33 97L23 97L23 102L18 102V112L23 112L23 117H38L38 112H43L43 117H48L48 112L53 112L53 117H69L69 112L74 112L74 117H79L79 112H84L84 117H99L99 112L104 112V102L99 102L99 97L89 97L89 92H94L94 87L99 87L99 82L104 82V72L99 72L99 67L94 67L94 62L99 62V47L94 47.0001L94 42L89 42.0001V47.0001H79V57H89V47.0001H94V62H89V67L94 67V72H99V82H94V87H79V92H84V97H89V107H94V102H99V112H84V107H79V112H74V107H69L69 112H53L53 107H48V112H43V107H38V112H23V102H28V107H33V97H38V92H43V87H28V82H23V72H28V67L33 67V62H28V47.0001H33Z" fill="black"/>
<path d="M33 47.0001H43V57H33V47.0001Z" fill="black"/>
<path d="M43 72H38V77H43V82H79V77H84V72H79V77H43V72Z" fill="black"/>
<path fill-rule="evenodd" clip-rule="evenodd" d="M33 42.0001V47.0001H28V62H33V67H48V62H53V47.0001H48V42.0001H33ZM33 47.0001H43V57H33V47.0001Z" fill="white"/>
<path d="M58 97H64V102H69V112H53V102H58V97Z" fill="white"/>
<path d="M89 42.0001V47.0001H79V57H89V47.0001H94V62H89V67H74V62H69V47.0001H74V42.0001H89Z" fill="white"/>
<path d="M74 37H89L89 42.0001H74L74 37Z" fill="black"/>
<path d="M69 47.0001H74V42.0001L69 42L69 47.0001Z" fill="black"/>
<path d="M53 47.0001L53 52H69L69 47.0001H53Z" fill="black"/>
<path d="M48 42.0001V47.0001H53L53 42L48 42.0001Z" fill="black"/>
<path d="M33 42.0001H48L48 37H33L33 42.0001Z" fill="black"/>
<path d="M33 47.0001V42.0001L28 42L28 47.0001L23 47V62L28 62L28 67L23 67L23 72L18 72V82L23 82L23 87L28 87L28 92H33L33 97L23 97L23 102L18 102V112L23 112L23 117H38L38 112H43L43 117H48L48 112L53 112L53 117H69L69 112L74 112L74 117H79L79 112H84L84 117H99L99 112L104 112V102L99 102L99 97L89 97L89 92H94L94 87L99 87L99 82L104 82V72L99 72L99 67L94 67L94 62L99 62V47L94 47.0001L94 42L89 42.0001V47.0001H79V57H89V47.0001H94V62H89V67L94 67V72H99V82H94V87H79V92H84V97H89V107H94V102H99V112H84V107H79V112H74V107H69L69 112H53L53 107H48V112H43V107H38V112H23V102H28V107H33V97H38V92H43V87H28V82H23V72H28V67L33 67V62H28V47.0001H33Z" fill="black"/>
<path d="M33 47.0001H43V57H33V47.0001Z" fill="black"/>
<path d="M43 72H38V77H43V82H79V77H84V72H79V77H43V72Z" fill="black"/>
<path d="M41.9998 96H46.9998V101H41.9998V96Z" fill="#251C0D"/>
<path d="M71.9998 96H74.9998V99H71.9998V96Z" fill="#251C0D"/>
<path d="M81.9998 81H85.9998V85H81.9998V81Z" fill="#251C0D"/>
<path d="M47.9998 91H50.9998V94H47.9998V91Z" fill="#251C0D"/>
<path d="M41.9998 96H46.9998V101H41.9998V96Z" fill="#251C0D"/>
<path d="M71.9998 96H74.9998V99H71.9998V96Z" fill="#251C0D"/>
<path d="M81.9998 81H85.9998V85H81.9998V81Z" fill="#251C0D"/>
<path d="M47.9998 91H50.9998V94H47.9998V91Z" fill="#251C0D"/>
<path d="M46 115H52V118H46V115Z" fill="#CB8D35"/>
<path d="M63 84H76V87H63V84Z" fill="#CB8D35"/>
<path d="M55 97H52V115H79V112H55V97Z" fill="#F7C444"/>
<path d="M70 84H55V112H73V99H76V90H73V87H70V84Z" fill="#FFE855"/>
<path d="M52 84H55V97H52V84Z" fill="#FFD15F"/>
<path d="M73 99H76V112H73V99Z" fill="#FFD15F"/>
<path d="M79 112H82V115H79V112Z" fill="#361A0A"/>
<path d="M79 87H82V90H79V87Z" fill="#361A0A"/>
<path d="M82 84H85V87H82V84Z" fill="#361A0A"/>
<path d="M60 81H82V84H60V81Z" fill="#361A0A"/>
<path d="M76 90H79V112H76V90Z" fill="#361A0A"/>
<path d="M43 115H46V118H43V115Z" fill="#361A0A"/>
<path d="M43 90H46V93H43V90Z" fill="#361A0A"/>
<path d="M49 78H60V81H49V78Z" fill="#361A0A"/>
<path d="M46 81H49V90H46V81Z" fill="#361A0A"/>
<path d="M46 93H49V115H46V93Z" fill="#361A0A"/>
<path d="M52 115H79V118H52V115Z" fill="#361A0A"/>
<path d="M46 118H52V121H46V118Z" fill="#361A0A"/>
<path d="M60 87H57V90H60V93H57V96H60V93H63V99H60V102H63V99H66V90H60V87Z" fill="#FBF397"/>
<path fill-rule="evenodd" clip-rule="evenodd" d="M68 103H60V106H57V109H60V112H68V109H71V106H68V103ZM68 106V109H60V106H68Z" fill="#EB2823"/>
<path d="M60 106H68V109H60V106Z" fill="#F25340"/>
<path d="M65 100H68V103H65V100Z" fill="#758E3D"/>
<path d="M62 103H65V106H62V103Z" fill="#758E3D"/>
<path d="M73 86H64V90H57V99H66V95H73V86Z" fill="#4067F2"/>
<path d="M60 81H49V90H46V93H49V115H52V84H55V88H61V84H60V81Z" fill="#E5AE33"/>
<path d="M76 84H82V87H79V90H73V87H76V84Z" fill="#E5AE33"/>
<path d="M65 87H62V96H68V93H65V87Z" fill="white"/>
<path d="M46 115H52V118H46V115Z" fill="#CB8D35"/>
<path d="M63 84H76V87H63V84Z" fill="#CB8D35"/>
<path d="M55 97H52V115H79V112H55V97Z" fill="#F7C444"/>
<path d="M70 84H55V112H73V99H76V90H73V87H70V84Z" fill="#FFE855"/>
<path d="M52 84H55V97H52V84Z" fill="#FFD15F"/>
<path d="M73 99H76V112H73V99Z" fill="#FFD15F"/>
<path d="M79 112H82V115H79V112Z" fill="#361A0A"/>
<path d="M79 87H82V90H79V87Z" fill="#361A0A"/>
<path d="M82 84H85V87H82V84Z" fill="#361A0A"/>
<path d="M60 81H82V84H60V81Z" fill="#361A0A"/>
<path d="M76 90H79V112H76V90Z" fill="#361A0A"/>
<path d="M43 115H46V118H43V115Z" fill="#361A0A"/>
<path d="M43 90H46V93H43V90Z" fill="#361A0A"/>
<path d="M49 78H60V81H49V78Z" fill="#361A0A"/>
<path d="M46 81H49V90H46V81Z" fill="#361A0A"/>
<path d="M46 93H49V115H46V93Z" fill="#361A0A"/>
<path d="M52 115H79V118H52V115Z" fill="#361A0A"/>
<path d="M46 118H52V121H46V118Z" fill="#361A0A"/>
<path d="M60 87H57V90H60V93H57V96H60V93H63V99H60V102H63V99H66V90H60V87Z" fill="#FBF397"/>
<path fill-rule="evenodd" clip-rule="evenodd" d="M68 103H60V106H57V109H60V112H68V109H71V106H68V103ZM68 106V109H60V106H68Z" fill="#EB2823"/>
<path d="M60 106H68V109H60V106Z" fill="#F25340"/>
<path d="M65 100H68V103H65V100Z" fill="#758E3D"/>
<path d="M62 103H65V106H62V103Z" fill="#758E3D"/>
<path d="M73 86H64V90H57V99H66V95H73V86Z" fill="#4067F2"/>
<path d="M60 81H49V90H46V93H49V115H52V84H55V88H61V84H60V81Z" fill="#E5AE33"/>
<path d="M76 84H82V87H79V90H73V87H76V84Z" fill="#E5AE33"/>
<path d="M65 87H62V96H68V93H65V87Z" fill="white"/>
<path d="M29.627 68H48.627V67H51.627V64H54.627V61H57.627V50H23.627V62H26.627V65H29.627V68Z" fill="#1F353F"/>
<path d="M73.627 68H92.627V67H95.627V64H98.627V61H101.627V50H67.627V62H70.627V65H73.627V68Z" fill="#1F353F"/>
<path d="M17.627 47H103.627V50H67.627V62H64.627V53H61.627V50H23.627V62H20.627V53H17.627V47Z" fill="#43ABD8"/>
<path d="M26.627 65V62H23.627V65H26.627Z" fill="#43ABD8"/>
<path d="M29.627 68V65H26.627V68H29.627Z" fill="#43ABD8"/>
<path d="M29.627 68H47.627V71H29.627V68Z" fill="#43ABD8"/>
<path d="M70.627 65V62H67.627V65H70.627Z" fill="#43ABD8"/>
<path d="M73.627 68V65H70.627V68H73.627Z" fill="#43ABD8"/>
<path d="M73.627 68H91.627V71H73.627V68Z" fill="#43ABD8"/>
<path d="M35.627 63H38.627V66H35.627V63Z" fill="white"/>
<path d="M43.627 63H46.627V66H43.627V63Z" fill="white"/>
<path d="M38.627 60H41.627V63H38.627V60Z" fill="white"/>
<path d="M46.627 60H49.627V63H46.627V60Z" fill="white"/>
<path d="M41.627 57H44.627V60H41.627V57Z" fill="white"/>
<path d="M49.627 57H52.627V60H49.627V57Z" fill="white"/>
<path d="M79.627 63H82.627V66H79.627V63Z" fill="white"/>
<path d="M87.627 63H90.627V66H87.627V63Z" fill="white"/>
<path d="M82.627 60H85.627V63H82.627V60Z" fill="white"/>
<path d="M90.627 60H93.627V63H90.627V60Z" fill="white"/>
<path d="M85.627 57H88.627V60H85.627V57Z" fill="white"/>
<path d="M93.627 57H96.627V60H93.627V57Z" fill="white"/>
<path d="M29.627 68H48.627V67H51.627V64H54.627V61H57.627V50H23.627V62H26.627V65H29.627V68Z" fill="#1F353F"/>
<path d="M73.627 68H92.627V67H95.627V64H98.627V61H101.627V50H67.627V62H70.627V65H73.627V68Z" fill="#1F353F"/>
<path d="M17.627 47H103.627V50H67.627V62H64.627V53H61.627V50H23.627V62H20.627V53H17.627V47Z" fill="#43ABD8"/>
<path d="M26.627 65V62H23.627V65H26.627Z" fill="#43ABD8"/>
<path d="M29.627 68V65H26.627V68H29.627Z" fill="#43ABD8"/>
<path d="M29.627 68H47.627V71H29.627V68Z" fill="#43ABD8"/>
<path d="M70.627 65V62H67.627V65H70.627Z" fill="#43ABD8"/>
<path d="M73.627 68V65H70.627V68H73.627Z" fill="#43ABD8"/>
<path d="M73.627 68H91.627V71H73.627V68Z" fill="#43ABD8"/>
<path d="M35.627 63H38.627V66H35.627V63Z" fill="white"/>
<path d="M43.627 63H46.627V66H43.627V63Z" fill="white"/>
<path d="M38.627 60H41.627V63H38.627V60Z" fill="white"/>
<path d="M46.627 60H49.627V63H46.627V60Z" fill="white"/>
<path d="M41.627 57H44.627V60H41.627V57Z" fill="white"/>
<path d="M49.627 57H52.627V60H49.627V57Z" fill="white"/>
<path d="M79.627 63H82.627V66H79.627V63Z" fill="white"/>
<path d="M87.627 63H90.627V66H87.627V63Z" fill="white"/>
<path d="M82.627 60H85.627V63H82.627V60Z" fill="white"/>
<path d="M90.627 60H93.627V63H90.627V60Z" fill="white"/>
<path d="M85.627 57H88.627V60H85.627V57Z" fill="white"/>
<path d="M93.627 57H96.627V60H93.627V57Z" fill="white"/>
</svg>
