<svg width="121" height="120" viewBox="0 0 121 120" fill="none" xmlns="http://www.w3.org/2000/svg">
<path d="M78 5H84V16H81V19H74V22H84V25H90V31H93V34H96V37H99V40H102V43H96V46H29V29H32V22H35V20H38V17H66V14H69V11H75V8H78V5Z" fill="#F5E511"/>
<path d="M78 5H84V16H81V8H78V5Z" fill="#E0C605"/>
<path d="M78 8V11H75V8H78Z" fill="#E0C605"/>
<path d="M81 16V19H78V16H81Z" fill="#E0C605"/>
<path d="M38 23V20H41V17H38V20H35V23H38Z" fill="#E0C605"/>
<path d="M54 20H51V17H54V20Z" fill="#E0C605"/>
<path d="M51 20H48V23H46V26H49V23H51V20Z" fill="#E0C605"/>
<path d="M43 33H46V27H43V33Z" fill="#E0C605"/>
<path d="M61 24H58V27H64V21H67V18H64V21H61V24Z" fill="#E0C605"/>
<path d="M58 30H61V37H58V30Z" fill="#E0C605"/>
<path d="M87 25H90V31H87V25Z" fill="#E0C605"/>
<path d="M93 34V31H90V34H93Z" fill="#E0C605"/>
<path d="M96 37V34H93V37H96Z" fill="#E0C605"/>
<path d="M96 37H99V40H96V37Z" fill="#E0C605"/>
<path d="M29 38H32V29H29V38Z" fill="#E0C605"/>
<path d="M61 40H58V44H61V40Z" fill="#E0C605"/>
<path d="M66 14H69V17H66V14Z" fill="#E0C605"/>
<path d="M74 19H77V22H74V19Z" fill="#E0C605"/>
<path d="M68 34H65V37H68V34Z" fill="#E0C605"/>
<path d="M71 31H74V34H71V31Z" fill="#E0C605"/>
<path d="M84 22H81V25H84V22Z" fill="#E0C605"/>
<path d="M102 40H105V43H102V40Z" fill="#E0C605"/>
<path d="M96 43H93V46H96V43Z" fill="#E0C605"/>
<path d="M57 17H54V20H57V17Z" fill="#B8870D"/>
<path d="M67 20H70V23H67V20Z" fill="#B8870D"/>
<path d="M58 27H61V30H58V27Z" fill="#B8870D"/>
<path d="M58 30V37H61V40H58V44H55V30H58Z" fill="#B8870D"/>
<path d="M74 34H68V37H65V44H68V37H74V34Z" fill="#B8870D"/>
<path d="M35 23H38V33H35V23Z" fill="#B8870D"/>
<path d="M46 26H49V33H46V26Z" fill="#B8870D"/>
<path d="M78 2H84V5H78V2Z" fill="#332A3D"/>
<path d="M75 8H78V5H75V8Z" fill="#332A3D"/>
<path d="M69 11H75V8H69V11Z" fill="#332A3D"/>
<path d="M66 14H69V11H66V14Z" fill="#332A3D"/>
<path d="M38 17H66V14H38V17Z" fill="#332A3D"/>
<path d="M35 20H38V17H35V20Z" fill="#332A3D"/>
<path d="M32 23H35V20H32V23Z" fill="#332A3D"/>
<path d="M29 29H32V23H29V29Z" fill="#332A3D"/>
<path d="M29 29V41H26V29H29Z" fill="#332A3D"/>
<path d="M84 16H87V5H84V16Z" fill="#332A3D"/>
<path d="M90 25V22H87V19H84V16H81V19H77V22H84V25H90Z" fill="#332A3D"/>
<path d="M93 31V25H90V31H93Z" fill="#332A3D"/>
<path d="M96 34V31H93V34H96Z" fill="#332A3D"/>
<path d="M99 37V34H96V37H99Z" fill="#332A3D"/>
<path d="M105 40V37H99V40H105Z" fill="#332A3D"/>
<path d="M105 43H108V40H105V43Z" fill="#332A3D"/>
<path d="M105 43V46H96V43H105Z" fill="#332A3D"/>
<path d="M78 5H84V16H81V19H74V22H84V25H90V31H93V34H96V37H99V40H102V43H96V46H29V29H32V22H35V20H38V17H66V14H69V11H75V8H78V5Z" fill="#F5E511"/>
<path d="M78 5H84V16H81V8H78V5Z" fill="#E0C605"/>
<path d="M78 8V11H75V8H78Z" fill="#E0C605"/>
<path d="M81 16V19H78V16H81Z" fill="#E0C605"/>
<path d="M38 23V20H41V17H38V20H35V23H38Z" fill="#E0C605"/>
<path d="M54 20H51V17H54V20Z" fill="#E0C605"/>
<path d="M51 20H48V23H46V26H49V23H51V20Z" fill="#E0C605"/>
<path d="M43 33H46V27H43V33Z" fill="#E0C605"/>
<path d="M61 24H58V27H64V21H67V18H64V21H61V24Z" fill="#E0C605"/>
<path d="M58 30H61V37H58V30Z" fill="#E0C605"/>
<path d="M87 25H90V31H87V25Z" fill="#E0C605"/>
<path d="M93 34V31H90V34H93Z" fill="#E0C605"/>
<path d="M96 37V34H93V37H96Z" fill="#E0C605"/>
<path d="M96 37H99V40H96V37Z" fill="#E0C605"/>
<path d="M29 38H32V29H29V38Z" fill="#E0C605"/>
<path d="M61 40H58V44H61V40Z" fill="#E0C605"/>
<path d="M66 14H69V17H66V14Z" fill="#E0C605"/>
<path d="M74 19H77V22H74V19Z" fill="#E0C605"/>
<path d="M68 34H65V37H68V34Z" fill="#E0C605"/>
<path d="M71 31H74V34H71V31Z" fill="#E0C605"/>
<path d="M84 22H81V25H84V22Z" fill="#E0C605"/>
<path d="M102 40H105V43H102V40Z" fill="#E0C605"/>
<path d="M96 43H93V46H96V43Z" fill="#E0C605"/>
<path d="M57 17H54V20H57V17Z" fill="#B8870D"/>
<path d="M67 20H70V23H67V20Z" fill="#B8870D"/>
<path d="M58 27H61V30H58V27Z" fill="#B8870D"/>
<path d="M58 30V37H61V40H58V44H55V30H58Z" fill="#B8870D"/>
<path d="M74 34H68V37H65V44H68V37H74V34Z" fill="#B8870D"/>
<path d="M35 23H38V33H35V23Z" fill="#B8870D"/>
<path d="M46 26H49V33H46V26Z" fill="#B8870D"/>
<path d="M78 2H84V5H78V2Z" fill="#332A3D"/>
<path d="M75 8H78V5H75V8Z" fill="#332A3D"/>
<path d="M69 11H75V8H69V11Z" fill="#332A3D"/>
<path d="M66 14H69V11H66V14Z" fill="#332A3D"/>
<path d="M38 17H66V14H38V17Z" fill="#332A3D"/>
<path d="M35 20H38V17H35V20Z" fill="#332A3D"/>
<path d="M32 23H35V20H32V23Z" fill="#332A3D"/>
<path d="M29 29H32V23H29V29Z" fill="#332A3D"/>
<path d="M29 29V41H26V29H29Z" fill="#332A3D"/>
<path d="M84 16H87V5H84V16Z" fill="#332A3D"/>
<path d="M90 25V22H87V19H84V16H81V19H77V22H84V25H90Z" fill="#332A3D"/>
<path d="M93 31V25H90V31H93Z" fill="#332A3D"/>
<path d="M96 34V31H93V34H96Z" fill="#332A3D"/>
<path d="M99 37V34H96V37H99Z" fill="#332A3D"/>
<path d="M105 40V37H99V40H105Z" fill="#332A3D"/>
<path d="M105 43H108V40H105V43Z" fill="#332A3D"/>
<path d="M105 43V46H96V43H105Z" fill="#332A3D"/>
<path fill-rule="evenodd" clip-rule="evenodd" d="M32.5294 38.1876V43.3751H27.3529V58.9376H32.5294V64.1251H48.0588V58.9376H53.2353V43.3751H48.0588V38.1876H32.5294ZM32.5294 43.3751H42.8823V53.7501H32.5294V43.3751Z" fill="white"/>
<path d="M58.4117 95.25H63.5882V100.438H68.7647V110.813H53.2353V100.438H58.4117V95.25Z" fill="white"/>
<path d="M89.4706 38.1876V43.3751H79.1176V53.7501H89.4706V43.3751H94.647V58.9376H89.4706V64.1251H73.9411V58.9376H68.7647V43.3751H73.9411V38.1876H89.4706Z" fill="white"/>
<path fill-rule="evenodd" clip-rule="evenodd" d="M68.7647 48.5625H53.2353L53.2353 58.9376H48.0588V64.1251L27.353 64.125V69.3125H22.1765V79.6875H27.353V84.875H42.8824V90.0625H37.7059V95.25H32.5295V105.625H27.353V100.438H22.1765V110.813H37.7059V105.625H42.8824V110.813H48.0589V105.625H53.2353L53.2353 100.438H58.4117V95.25H63.5882V100.438H68.7647L68.7647 105.625H73.9412V110.813H79.1177V105.625H84.2942V110.813H99.8236V100.438H94.6471V105.625H89.4706V95.25H84.2942V90.0625H79.1177V84.875H94.6471V79.6875H99.8236V69.3125H94.6471V64.125L73.9411 64.1251V58.9376H68.7647L68.7647 48.5625Z" fill="#EEB357"/>
<path d="M73.9412 33H89.4706L89.4706 38.1876H73.9411L73.9412 33Z" fill="black"/>
<path d="M68.7647 43.3751H73.9411V38.1876L68.7647 38.1875L68.7647 43.3751Z" fill="black"/>
<path d="M53.2353 43.3751L53.2353 48.5625H68.7647L68.7647 43.3751H53.2353Z" fill="black"/>
<path d="M48.0588 38.1876V43.3751H53.2353L53.2353 38.1875L48.0588 38.1876Z" fill="black"/>
<path d="M32.5294 38.1876H48.0588L48.0588 33H32.5294L32.5294 38.1876Z" fill="black"/>
<path d="M32.5294 43.3751V38.1876L27.3529 38.1875L27.3529 43.3751L22.1765 43.375V58.9375L27.3529 58.9376L27.353 64.125L22.1765 64.125L22.1765 69.3125L17 69.3125V79.6875L22.1765 79.6875L22.1765 84.875L27.353 84.875L27.3529 90.0625H32.5294L32.5295 95.25L22.1765 95.25L22.1765 100.438L17 100.438V110.812L22.1765 110.813L22.1765 116H37.7059L37.7059 110.813H42.8824L42.8824 116H48.0588L48.0589 110.813L53.2353 110.813L53.2353 116H68.7647L68.7647 110.813L73.9412 110.813L73.9412 116H79.1176L79.1177 110.813H84.2942L84.2941 116H99.8235L99.8236 110.813L105 110.812V100.438L99.8236 100.438L99.8235 95.25L89.4706 95.25L89.4706 90.0625H94.6471L94.6471 84.875L99.8235 84.875L99.8236 79.6875L105 79.6875V69.3125L99.8236 69.3125L99.8235 64.125L94.6471 64.125L94.647 58.9376L99.8235 58.9375V43.375L94.647 43.3751L94.6471 38.1875L89.4706 38.1876V43.3751H79.1176V53.7501H89.4706V43.3751H94.647V58.9376H89.4706V64.1251L94.6471 64.125V69.3125H99.8236V79.6875H94.6471V84.875H79.1177V90.0625H84.2942V95.25H89.4706V105.625H94.6471V100.438H99.8236V110.813H84.2942V105.625H79.1177V110.813H73.9412V105.625H68.7647L68.7647 110.813H53.2353L53.2353 105.625H48.0589V110.813H42.8824V105.625H37.7059V110.813H22.1765V100.438H27.353V105.625H32.5295V95.25H37.7059V90.0625H42.8824V84.875H27.353V79.6875H22.1765V69.3125H27.353V64.125L32.5294 64.1251V58.9376H27.3529V43.3751H32.5294Z" fill="black"/>
<path d="M32.5294 43.3751H42.8823V53.7501H32.5294V43.3751Z" fill="black"/>
<path d="M42.8824 69.3125H37.7059V74.5H42.8824V79.6875H79.1176V74.5H84.2941V69.3125H79.1176V74.5H42.8824V69.3125Z" fill="black"/>
<path fill-rule="evenodd" clip-rule="evenodd" d="M32.5294 38.1876V43.3751H27.3529V58.9376H32.5294V64.1251H48.0588V58.9376H53.2353V43.3751H48.0588V38.1876H32.5294ZM32.5294 43.3751H42.8823V53.7501H32.5294V43.3751Z" fill="white"/>
<path d="M58.4117 95.25H63.5882V100.438H68.7647V110.813H53.2353V100.438H58.4117V95.25Z" fill="white"/>
<path d="M89.4706 38.1876V43.3751H79.1176V53.7501H89.4706V43.3751H94.647V58.9376H89.4706V64.1251H73.9411V58.9376H68.7647V43.3751H73.9411V38.1876H89.4706Z" fill="white"/>
<path fill-rule="evenodd" clip-rule="evenodd" d="M68.7647 48.5625H53.2353L53.2353 58.9376H48.0588V64.1251L27.353 64.125V69.3125H22.1765V79.6875H27.353V84.875H42.8824V90.0625H37.7059V95.25H32.5295V105.625H27.353V100.438H22.1765V110.813H37.7059V105.625H42.8824V110.813H48.0589V105.625H53.2353L53.2353 100.438H58.4117V95.25H63.5882V100.438H68.7647L68.7647 105.625H73.9412V110.813H79.1177V105.625H84.2942V110.813H99.8236V100.438H94.6471V105.625H89.4706V95.25H84.2942V90.0625H79.1177V84.875H94.6471V79.6875H99.8236V69.3125H94.6471V64.125L73.9411 64.1251V58.9376H68.7647L68.7647 48.5625Z" fill="#EEB357"/>
<path d="M73.9412 33H89.4706L89.4706 38.1876H73.9411L73.9412 33Z" fill="black"/>
<path d="M68.7647 43.3751H73.9411V38.1876L68.7647 38.1875L68.7647 43.3751Z" fill="black"/>
<path d="M53.2353 43.3751L53.2353 48.5625H68.7647L68.7647 43.3751H53.2353Z" fill="black"/>
<path d="M48.0588 38.1876V43.3751H53.2353L53.2353 38.1875L48.0588 38.1876Z" fill="black"/>
<path d="M32.5294 38.1876H48.0588L48.0588 33H32.5294L32.5294 38.1876Z" fill="black"/>
<path d="M32.5294 43.3751V38.1876L27.3529 38.1875L27.3529 43.3751L22.1765 43.375V58.9375L27.3529 58.9376L27.353 64.125L22.1765 64.125L22.1765 69.3125L17 69.3125V79.6875L22.1765 79.6875L22.1765 84.875L27.353 84.875L27.3529 90.0625H32.5294L32.5295 95.25L22.1765 95.25L22.1765 100.438L17 100.438V110.812L22.1765 110.813L22.1765 116H37.7059L37.7059 110.813H42.8824L42.8824 116H48.0588L48.0589 110.813L53.2353 110.813L53.2353 116H68.7647L68.7647 110.813L73.9412 110.813L73.9412 116H79.1176L79.1177 110.813H84.2942L84.2941 116H99.8235L99.8236 110.813L105 110.812V100.438L99.8236 100.438L99.8235 95.25L89.4706 95.25L89.4706 90.0625H94.6471L94.6471 84.875L99.8235 84.875L99.8236 79.6875L105 79.6875V69.3125L99.8236 69.3125L99.8235 64.125L94.6471 64.125L94.647 58.9376L99.8235 58.9375V43.375L94.647 43.3751L94.6471 38.1875L89.4706 38.1876V43.3751H79.1176V53.7501H89.4706V43.3751H94.647V58.9376H89.4706V64.1251L94.6471 64.125V69.3125H99.8236V79.6875H94.6471V84.875H79.1177V90.0625H84.2942V95.25H89.4706V105.625H94.6471V100.438H99.8236V110.813H84.2942V105.625H79.1177V110.813H73.9412V105.625H68.7647L68.7647 110.813H53.2353L53.2353 105.625H48.0589V110.813H42.8824V105.625H37.7059V110.813H22.1765V100.438H27.353V105.625H32.5295V95.25H37.7059V90.0625H42.8824V84.875H27.353V79.6875H22.1765V69.3125H27.353V64.125L32.5294 64.1251V58.9376H27.3529V43.3751H32.5294Z" fill="black"/>
<path d="M32.5294 43.3751H42.8823V53.7501H32.5294V43.3751Z" fill="black"/>
<path d="M42.8824 69.3125H37.7059V74.5H42.8824V79.6875H79.1176V74.5H84.2941V69.3125H79.1176V74.5H42.8824V69.3125Z" fill="black"/>
</svg>
