<svg width="122" height="120" viewBox="0 0 122 120" fill="none" xmlns="http://www.w3.org/2000/svg">
<path d="M51 6H86V12H92V18H98V33H104V39H110V55H116V85H110V91H104V106H98V91H104V85H110V60H104V45H98V35H92V29H86V27H80V21H51V23H39V30H25V33H19V52H13V81H19V87H25V99H19V87H13V81H7V46H13V30H19V24H33V18H39V12H51V6Z" fill="#504A53"/>
<path d="M86 0H51V6H86V0Z" fill="black"/>
<path d="M92 12H86V6H92V12Z" fill="black"/>
<path d="M98 18H92V12H98V18Z" fill="black"/>
<path d="M104 33H98V18H104V33Z" fill="black"/>
<path d="M110 39H104V33H110V39Z" fill="black"/>
<path d="M116 55H110V39H116V55Z" fill="black"/>
<path d="M116 85V55H122V85H116Z" fill="black"/>
<path fill-rule="evenodd" clip-rule="evenodd" d="M110 85H116V91H110V106H104V91H98V106H19V99H13V87H7V81H1V46H7V30H13V24H19V18H33V12H39V6H51V12H39V18H33V24H19V30H13V46H7V81H13V52H19V33H25V29H39V23H51V21H80V27H86V29H92V35H98V45H104V60H110V85ZM19 87V99H25V87H19ZM19 87V81H13V87H19ZM110 85H104V91H110V85Z" fill="black"/>
<path d="M51 6H86V12H92V18H98V33H104V39H110V55H116V85H110V91H104V106H98V91H104V85H110V60H104V45H98V35H92V29H86V27H80V21H51V23H39V30H25V33H19V52H13V81H19V87H25V99H19V87H13V81H7V46H13V30H19V24H33V18H39V12H51V6Z" fill="#504A53"/>
<path d="M86 0H51V6H86V0Z" fill="black"/>
<path d="M92 12H86V6H92V12Z" fill="black"/>
<path d="M98 18H92V12H98V18Z" fill="black"/>
<path d="M104 33H98V18H104V33Z" fill="black"/>
<path d="M110 39H104V33H110V39Z" fill="black"/>
<path d="M116 55H110V39H116V55Z" fill="black"/>
<path d="M116 85V55H122V85H116Z" fill="black"/>
<path fill-rule="evenodd" clip-rule="evenodd" d="M110 85H116V91H110V106H104V91H98V106H19V99H13V87H7V81H1V46H7V30H13V24H19V18H33V12H39V6H51V12H39V18H33V24H19V30H13V46H7V81H13V52H19V33H25V29H39V23H51V21H80V27H86V29H92V35H98V45H104V60H110V85ZM19 87V99H25V87H19ZM19 87V81H13V87H19ZM110 85H104V91H110V85Z" fill="black"/>
<path d="M51 6H86V12H92V18H98V33H104V39H110V55H116V85H110V91H104V106H98V91H104V85H110V60H104V45H98V35H92V29H86V27H80V21H51V23H39V30H25V33H19V52H13V81H19V87H25V99H19V87H13V81H7V46H13V30H19V24H33V18H39V12H51V6Z" fill="#504A53"/>
<path d="M86 0H51V6H86V0Z" fill="black"/>
<path d="M92 12H86V6H92V12Z" fill="black"/>
<path d="M98 18H92V12H98V18Z" fill="black"/>
<path d="M104 33H98V18H104V33Z" fill="black"/>
<path d="M110 39H104V33H110V39Z" fill="black"/>
<path d="M116 55H110V39H116V55Z" fill="black"/>
<path d="M116 85V55H122V85H116Z" fill="black"/>
<path fill-rule="evenodd" clip-rule="evenodd" d="M110 85H116V91H110V106H104V91H98V106H19V99H13V87H7V81H1V46H7V30H13V24H19V18H33V12H39V6H51V12H39V18H33V24H19V30H13V46H7V81H13V52H19V33H25V29H39V23H51V21H80V27H86V29H92V35H98V45H104V60H110V85ZM19 87V99H25V87H19ZM19 87V81H13V87H19ZM110 85H104V91H110V85Z" fill="black"/>
<path d="M51 6H86V12H92V18H98V33H104V39H110V55H116V85H110V91H104V106H98V91H104V85H110V60H104V45H98V35H92V29H86V27H80V21H51V23H39V30H25V33H19V52H13V81H19V87H25V99H19V87H13V81H7V46H13V30H19V24H33V18H39V12H51V6Z" fill="#504A53"/>
<path d="M86 0H51V6H86V0Z" fill="black"/>
<path d="M92 12H86V6H92V12Z" fill="black"/>
<path d="M98 18H92V12H98V18Z" fill="black"/>
<path d="M104 33H98V18H104V33Z" fill="black"/>
<path d="M110 39H104V33H110V39Z" fill="black"/>
<path d="M116 55H110V39H116V55Z" fill="black"/>
<path d="M116 85V55H122V85H116Z" fill="black"/>
<path fill-rule="evenodd" clip-rule="evenodd" d="M110 85H116V91H110V106H104V91H98V106H19V99H13V87H7V81H1V46H7V30H13V24H19V18H33V12H39V6H51V12H39V18H33V24H19V30H13V46H7V81H13V52H19V33H25V29H39V23H51V21H80V27H86V29H92V35H98V45H104V60H110V85ZM19 87V99H25V87H19ZM19 87V81H13V87H19ZM110 85H104V91H110V85Z" fill="black"/>
<path fill-rule="evenodd" clip-rule="evenodd" d="M31.5294 38.1876V43.3751H26.3529V58.9376H31.5294V64.1251H47.0588V58.9376H52.2353V43.3751H47.0588V38.1876H31.5294ZM31.5294 43.3751H41.8823V53.7501H31.5294V43.3751Z" fill="white"/>
<path d="M57.4117 95.25H62.5882V100.438H67.7647V110.813H52.2353V100.438H57.4117V95.25Z" fill="white"/>
<path d="M88.4706 38.1876V43.3751H78.1176V53.7501H88.4706V43.3751H93.647V58.9376H88.4706V64.1251H72.9411V58.9376H67.7647V43.3751H72.9411V38.1876H88.4706Z" fill="white"/>
<path fill-rule="evenodd" clip-rule="evenodd" d="M67.7647 48.5625H52.2353L52.2353 58.9376H47.0588V64.1251L26.353 64.125V69.3125H21.1765V79.6875H26.353V84.875H41.8824V90.0625H36.7059V95.25H31.5295V105.625H26.353V100.438H21.1765V110.813H36.7059V105.625H41.8824V110.813H47.0589V105.625H52.2353L52.2353 100.438H57.4117V95.25H62.5882V100.438H67.7647L67.7647 105.625H72.9412V110.813H78.1177V105.625H83.2942V110.813H98.8236V100.438H93.6471V105.625H88.4706V95.25H83.2942V90.0625H78.1177V84.875H93.6471V79.6875H98.8236V69.3125H93.6471V64.125L72.9411 64.1251V58.9376H67.7647L67.7647 48.5625Z" fill="#EEB357"/>
<path d="M72.9412 33H88.4706L88.4706 38.1876H72.9411L72.9412 33Z" fill="black"/>
<path d="M67.7647 43.3751H72.9411V38.1876L67.7647 38.1875L67.7647 43.3751Z" fill="black"/>
<path d="M52.2353 43.3751L52.2353 48.5625H67.7647L67.7647 43.3751H52.2353Z" fill="black"/>
<path d="M47.0588 38.1876V43.3751H52.2353L52.2353 38.1875L47.0588 38.1876Z" fill="black"/>
<path d="M31.5294 38.1876H47.0588L47.0588 33H31.5294L31.5294 38.1876Z" fill="black"/>
<path d="M31.5294 43.3751V38.1876L26.3529 38.1875L26.3529 43.3751L21.1765 43.375V58.9375L26.3529 58.9376L26.353 64.125L21.1765 64.125L21.1765 69.3125L16 69.3125V79.6875L21.1765 79.6875L21.1765 84.875L26.353 84.875L26.3529 90.0625H31.5294L31.5295 95.25L21.1765 95.25L21.1765 100.438L16 100.438V110.812L21.1765 110.813L21.1765 116H36.7059L36.7059 110.813H41.8824L41.8824 116H47.0588L47.0589 110.813L52.2353 110.813L52.2353 116H67.7647L67.7647 110.813L72.9412 110.813L72.9412 116H78.1176L78.1177 110.813H83.2942L83.2941 116H98.8235L98.8236 110.813L104 110.812V100.438L98.8236 100.438L98.8235 95.25L88.4706 95.25L88.4706 90.0625H93.6471L93.6471 84.875L98.8235 84.875L98.8236 79.6875L104 79.6875V69.3125L98.8236 69.3125L98.8235 64.125L93.6471 64.125L93.647 58.9376L98.8235 58.9375V43.375L93.647 43.3751L93.6471 38.1875L88.4706 38.1876V43.3751H78.1176V53.7501H88.4706V43.3751H93.647V58.9376H88.4706V64.1251L93.6471 64.125V69.3125H98.8236V79.6875H93.6471V84.875H78.1177V90.0625H83.2942V95.25H88.4706V105.625H93.6471V100.438H98.8236V110.813H83.2942V105.625H78.1177V110.813H72.9412V105.625H67.7647L67.7647 110.813H52.2353L52.2353 105.625H47.0589V110.813H41.8824V105.625H36.7059V110.813H21.1765V100.438H26.353V105.625H31.5295V95.25H36.7059V90.0625H41.8824V84.875H26.353V79.6875H21.1765V69.3125H26.353V64.125L31.5294 64.1251V58.9376H26.3529V43.3751H31.5294Z" fill="black"/>
<path d="M31.5294 43.3751H41.8823V53.7501H31.5294V43.3751Z" fill="black"/>
<path d="M41.8824 69.3125H36.7059V74.5H41.8824V79.6875H78.1176V74.5H83.2941V69.3125H78.1176V74.5H41.8824V69.3125Z" fill="black"/>
<path fill-rule="evenodd" clip-rule="evenodd" d="M31.5294 38.1876V43.3751H26.3529V58.9376H31.5294V64.1251H47.0588V58.9376H52.2353V43.3751H47.0588V38.1876H31.5294ZM31.5294 43.3751H41.8823V53.7501H31.5294V43.3751Z" fill="white"/>
<path d="M57.4117 95.25H62.5882V100.438H67.7647V110.813H52.2353V100.438H57.4117V95.25Z" fill="white"/>
<path d="M88.4706 38.1876V43.3751H78.1176V53.7501H88.4706V43.3751H93.647V58.9376H88.4706V64.1251H72.9411V58.9376H67.7647V43.3751H72.9411V38.1876H88.4706Z" fill="white"/>
<path fill-rule="evenodd" clip-rule="evenodd" d="M67.7647 48.5625H52.2353L52.2353 58.9376H47.0588V64.1251L26.353 64.125V69.3125H21.1765V79.6875H26.353V84.875H41.8824V90.0625H36.7059V95.25H31.5295V105.625H26.353V100.438H21.1765V110.813H36.7059V105.625H41.8824V110.813H47.0589V105.625H52.2353L52.2353 100.438H57.4117V95.25H62.5882V100.438H67.7647L67.7647 105.625H72.9412V110.813H78.1177V105.625H83.2942V110.813H98.8236V100.438H93.6471V105.625H88.4706V95.25H83.2942V90.0625H78.1177V84.875H93.6471V79.6875H98.8236V69.3125H93.6471V64.125L72.9411 64.1251V58.9376H67.7647L67.7647 48.5625Z" fill="#EEB357"/>
<path d="M72.9412 33H88.4706L88.4706 38.1876H72.9411L72.9412 33Z" fill="black"/>
<path d="M67.7647 43.3751H72.9411V38.1876L67.7647 38.1875L67.7647 43.3751Z" fill="black"/>
<path d="M52.2353 43.3751L52.2353 48.5625H67.7647L67.7647 43.3751H52.2353Z" fill="black"/>
<path d="M47.0588 38.1876V43.3751H52.2353L52.2353 38.1875L47.0588 38.1876Z" fill="black"/>
<path d="M31.5294 38.1876H47.0588L47.0588 33H31.5294L31.5294 38.1876Z" fill="black"/>
<path d="M31.5294 43.3751V38.1876L26.3529 38.1875L26.3529 43.3751L21.1765 43.375V58.9375L26.3529 58.9376L26.353 64.125L21.1765 64.125L21.1765 69.3125L16 69.3125V79.6875L21.1765 79.6875L21.1765 84.875L26.353 84.875L26.3529 90.0625H31.5294L31.5295 95.25L21.1765 95.25L21.1765 100.438L16 100.438V110.812L21.1765 110.813L21.1765 116H36.7059L36.7059 110.813H41.8824L41.8824 116H47.0588L47.0589 110.813L52.2353 110.813L52.2353 116H67.7647L67.7647 110.813L72.9412 110.813L72.9412 116H78.1176L78.1177 110.813H83.2942L83.2941 116H98.8235L98.8236 110.813L104 110.812V100.438L98.8236 100.438L98.8235 95.25L88.4706 95.25L88.4706 90.0625H93.6471L93.6471 84.875L98.8235 84.875L98.8236 79.6875L104 79.6875V69.3125L98.8236 69.3125L98.8235 64.125L93.6471 64.125L93.647 58.9376L98.8235 58.9375V43.375L93.647 43.3751L93.6471 38.1875L88.4706 38.1876V43.3751H78.1176V53.7501H88.4706V43.3751H93.647V58.9376H88.4706V64.1251L93.6471 64.125V69.3125H98.8236V79.6875H93.6471V84.875H78.1177V90.0625H83.2942V95.25H88.4706V105.625H93.6471V100.438H98.8236V110.813H83.2942V105.625H78.1177V110.813H72.9412V105.625H67.7647L67.7647 110.813H52.2353L52.2353 105.625H47.0589V110.813H41.8824V105.625H36.7059V110.813H21.1765V100.438H26.353V105.625H31.5295V95.25H36.7059V90.0625H41.8824V84.875H26.353V79.6875H21.1765V69.3125H26.353V64.125L31.5294 64.1251V58.9376H26.3529V43.3751H31.5294Z" fill="black"/>
<path d="M31.5294 43.3751H41.8823V53.7501H31.5294V43.3751Z" fill="black"/>
<path d="M41.8824 69.3125H36.7059V74.5H41.8824V79.6875H78.1176V74.5H83.2941V69.3125H78.1176V74.5H41.8824V69.3125Z" fill="black"/>
<path d="M61 77H62V79H61V77Z" fill="#773D31"/>
<path fill-rule="evenodd" clip-rule="evenodd" d="M63 79H62V80H63V81H64V82H65V81H66V83H68V84H67V85H68V86H69V87H70V88H71V89H72V88H73V89H74V90H73V91H76V92H75V93H76V94H77V93H76V92H77V91H76V90H77V89H78V88H77V87H76V86H75V85H74V84H73V83H72V82H71V83H70V82H69V81H68V80H67V81H66V80H65V79H64V78H63V79ZM63 79V80H64V79H63ZM71 84V83H72V84H71ZM70 85H71V84H70V85ZM70 86V85H69V86H70ZM71 87V86H70V87H71ZM72 87H71V88H72V87ZM73 87V86H72V87H73ZM74 87H73V88H74V87ZM75 87H74V86H75V87ZM76 88H75V87H76V88ZM76 89H75V90H76V89ZM76 89V88H77V89H76ZM72 84V85H73V84H72ZM69 82H68V83H69V82Z" fill="#773D31"/>
<path d="M62 77H63V79H62V77Z" fill="#5B2C24"/>
<path d="M64 79H63V80H64V79Z" fill="#5B2C24"/>
<path d="M65 79V78H64V79H65Z" fill="#5B2C24"/>
<path d="M66 80V79H65V80H66Z" fill="#5B2C24"/>
<path d="M66 81H67V80H66V81Z" fill="#5B2C24"/>
<path d="M66 83V81H65V83H66Z" fill="#5B2C24"/>
<path d="M68 83H66V84H68V83Z" fill="#5B2C24"/>
<path d="M69 82H68V83H69V82Z" fill="#5B2C24"/>
<path fill-rule="evenodd" clip-rule="evenodd" d="M69 81V82H70V83H71V84H69V86H70V87H71V88H72V90H74V89H73V88H76V89H75V90H76V91H74V92H76V93H77V92H76V91H77V90H78V89H79V88H78V87H77V86H76V85H75V86H74V87H73V84H72V83H71V82H70V81H69ZM76 87V86H75V87H76ZM77 88V87H76V88H77ZM77 89H76V90H77V89ZM77 89V88H78V89H77ZM73 87V88H72V87H73ZM72 84V86H70V85H71V84H72Z" fill="#5B2C24"/>
<path d="M69 81H68V80H69V81Z" fill="#5B2C24"/>
<path d="M77 94H78V95H77V94Z" fill="#D23524"/>
<path d="M78 93H79V94H78V93Z" fill="#D23524"/>
<path d="M79 94H80V95H79V94Z" fill="#D23524"/>
<path d="M80 93H81V94H80V93Z" fill="#D23524"/>
<path d="M81 94H82V95H81V94Z" fill="#D23524"/>
<path d="M82 93H83V94H82V93Z" fill="#D23524"/>
<path d="M81 92H82V93H81V92Z" fill="#D23524"/>
<path d="M79 92H80V93H79V92Z" fill="#D23524"/>
<path d="M82 91H83V92H82V91Z" fill="#D23524"/>
<path d="M81 90H82V91H81V90Z" fill="#D23524"/>
<path d="M80 91H81V92H80V91Z" fill="#D23524"/>
<path d="M79 90H80V91H79V90Z" fill="#D23524"/>
<path d="M78 91H79V92H78V91Z" fill="#D23524"/>
<path d="M78 94H79V95H78V94Z" fill="#EF4F2B"/>
<path d="M79 93H80V94H79V93Z" fill="#EF4F2B"/>
<path d="M80 94H81V95H80V94Z" fill="#EF4F2B"/>
<path d="M82 94H83V95H82V94Z" fill="#EF4F2B"/>
<path d="M81 93H82V94H81V93Z" fill="#EF4F2B"/>
<path d="M82 92H83V93H82V92Z" fill="#EF4F2B"/>
<path d="M80 92H81V93H80V92Z" fill="#EF4F2B"/>
<path d="M78 92H79V93H78V92Z" fill="#EF4F2B"/>
<path d="M79 91H80V92H79V91Z" fill="#EF4F2B"/>
<path d="M81 91H82V92H81V91Z" fill="#EF4F2B"/>
<path d="M82 90H83V91H82V90Z" fill="#EF4F2B"/>
<path d="M80 90H81V91H80V90Z" fill="#EF4F2B"/>
<path d="M78 90H79V91H78V90Z" fill="#EF4F2B"/>
<path d="M60 76H63V77H61V79H60V76Z" fill="black"/>
<path d="M62 80V79H61V80H62Z" fill="black"/>
<path d="M63 81V80H62V81H63Z" fill="black"/>
<path d="M64 82V81H63V82H64Z" fill="black"/>
<path d="M65 83V82H64V83H65Z" fill="black"/>
<path d="M66 84V83H65V84H66Z" fill="black"/>
<path d="M67 85V84H66V85H67Z" fill="black"/>
<path d="M68 86V85H67V86H68Z" fill="black"/>
<path d="M69 87V86H68V87H69Z" fill="black"/>
<path d="M70 88V87H69V88H70Z" fill="black"/>
<path d="M71 89V88H70V89H71Z" fill="black"/>
<path d="M72 90V89H71V90H72Z" fill="black"/>
<path d="M73 91V90H72V91H73Z" fill="black"/>
<path d="M74 92V91H73V92H74Z" fill="black"/>
<path d="M75 93V92H74V93H75Z" fill="black"/>
<path d="M76 94V93H75V94H76Z" fill="black"/>
<path fill-rule="evenodd" clip-rule="evenodd" d="M77 94H76V95H77V96H83V95H84V90H83V89H80V88H79V87H78V86H77V85H76V84H74V83H73V82H72V81H70V80H69V79H66V78H65V77H63V78H65V79H66V80H69V81H70V82H72V83H73V84H74V85H76V86H77V87H78V88H79V89H78V90H77V94ZM77 94H78V90H83V95H77V94Z" fill="black"/>
<path d="M91.373 78H93.373V80H91.373V78Z" fill="#D9D9D9"/>
<path d="M86.373 86H83.373V89H86.373V86Z" fill="#D9D9D9"/>
<path d="M90.373 89H88.373V91H90.373V89Z" fill="#D9D9D9"/>
<path d="M87.373 83H85.373V85H87.373V83Z" fill="#D9D9D9"/>
<path d="M91.373 83H95.373V87H91.373V83Z" fill="#D9D9D9"/>
<path d="M61 77H62V79H61V77Z" fill="#773D31"/>
<path fill-rule="evenodd" clip-rule="evenodd" d="M63 79H62V80H63V81H64V82H65V81H66V83H68V84H67V85H68V86H69V87H70V88H71V89H72V88H73V89H74V90H73V91H76V92H75V93H76V94H77V93H76V92H77V91H76V90H77V89H78V88H77V87H76V86H75V85H74V84H73V83H72V82H71V83H70V82H69V81H68V80H67V81H66V80H65V79H64V78H63V79ZM63 79V80H64V79H63ZM71 84V83H72V84H71ZM70 85H71V84H70V85ZM70 86V85H69V86H70ZM71 87V86H70V87H71ZM72 87H71V88H72V87ZM73 87V86H72V87H73ZM74 87H73V88H74V87ZM75 87H74V86H75V87ZM76 88H75V87H76V88ZM76 89H75V90H76V89ZM76 89V88H77V89H76ZM72 84V85H73V84H72ZM69 82H68V83H69V82Z" fill="#773D31"/>
<path d="M62 77H63V79H62V77Z" fill="#5B2C24"/>
<path d="M64 79H63V80H64V79Z" fill="#5B2C24"/>
<path d="M65 79V78H64V79H65Z" fill="#5B2C24"/>
<path d="M66 80V79H65V80H66Z" fill="#5B2C24"/>
<path d="M66 81H67V80H66V81Z" fill="#5B2C24"/>
<path d="M66 83V81H65V83H66Z" fill="#5B2C24"/>
<path d="M68 83H66V84H68V83Z" fill="#5B2C24"/>
<path d="M69 82H68V83H69V82Z" fill="#5B2C24"/>
<path fill-rule="evenodd" clip-rule="evenodd" d="M69 81V82H70V83H71V84H69V86H70V87H71V88H72V90H74V89H73V88H76V89H75V90H76V91H74V92H76V93H77V92H76V91H77V90H78V89H79V88H78V87H77V86H76V85H75V86H74V87H73V84H72V83H71V82H70V81H69ZM76 87V86H75V87H76ZM77 88V87H76V88H77ZM77 89H76V90H77V89ZM77 89V88H78V89H77ZM73 87V88H72V87H73ZM72 84V86H70V85H71V84H72Z" fill="#5B2C24"/>
<path d="M69 81H68V80H69V81Z" fill="#5B2C24"/>
<path d="M77 94H78V95H77V94Z" fill="#D23524"/>
<path d="M78 93H79V94H78V93Z" fill="#D23524"/>
<path d="M79 94H80V95H79V94Z" fill="#D23524"/>
<path d="M80 93H81V94H80V93Z" fill="#D23524"/>
<path d="M81 94H82V95H81V94Z" fill="#D23524"/>
<path d="M82 93H83V94H82V93Z" fill="#D23524"/>
<path d="M81 92H82V93H81V92Z" fill="#D23524"/>
<path d="M79 92H80V93H79V92Z" fill="#D23524"/>
<path d="M82 91H83V92H82V91Z" fill="#D23524"/>
<path d="M81 90H82V91H81V90Z" fill="#D23524"/>
<path d="M80 91H81V92H80V91Z" fill="#D23524"/>
<path d="M79 90H80V91H79V90Z" fill="#D23524"/>
<path d="M78 91H79V92H78V91Z" fill="#D23524"/>
<path d="M78 94H79V95H78V94Z" fill="#EF4F2B"/>
<path d="M79 93H80V94H79V93Z" fill="#EF4F2B"/>
<path d="M80 94H81V95H80V94Z" fill="#EF4F2B"/>
<path d="M82 94H83V95H82V94Z" fill="#EF4F2B"/>
<path d="M81 93H82V94H81V93Z" fill="#EF4F2B"/>
<path d="M82 92H83V93H82V92Z" fill="#EF4F2B"/>
<path d="M80 92H81V93H80V92Z" fill="#EF4F2B"/>
<path d="M78 92H79V93H78V92Z" fill="#EF4F2B"/>
<path d="M79 91H80V92H79V91Z" fill="#EF4F2B"/>
<path d="M81 91H82V92H81V91Z" fill="#EF4F2B"/>
<path d="M82 90H83V91H82V90Z" fill="#EF4F2B"/>
<path d="M80 90H81V91H80V90Z" fill="#EF4F2B"/>
<path d="M78 90H79V91H78V90Z" fill="#EF4F2B"/>
<path d="M60 76H63V77H61V79H60V76Z" fill="black"/>
<path d="M62 80V79H61V80H62Z" fill="black"/>
<path d="M63 81V80H62V81H63Z" fill="black"/>
<path d="M64 82V81H63V82H64Z" fill="black"/>
<path d="M65 83V82H64V83H65Z" fill="black"/>
<path d="M66 84V83H65V84H66Z" fill="black"/>
<path d="M67 85V84H66V85H67Z" fill="black"/>
<path d="M68 86V85H67V86H68Z" fill="black"/>
<path d="M69 87V86H68V87H69Z" fill="black"/>
<path d="M70 88V87H69V88H70Z" fill="black"/>
<path d="M71 89V88H70V89H71Z" fill="black"/>
<path d="M72 90V89H71V90H72Z" fill="black"/>
<path d="M73 91V90H72V91H73Z" fill="black"/>
<path d="M74 92V91H73V92H74Z" fill="black"/>
<path d="M75 93V92H74V93H75Z" fill="black"/>
<path d="M76 94V93H75V94H76Z" fill="black"/>
<path fill-rule="evenodd" clip-rule="evenodd" d="M77 94H76V95H77V96H83V95H84V90H83V89H80V88H79V87H78V86H77V85H76V84H74V83H73V82H72V81H70V80H69V79H66V78H65V77H63V78H65V79H66V80H69V81H70V82H72V83H73V84H74V85H76V86H77V87H78V88H79V89H78V90H77V94ZM77 94H78V90H83V95H77V94Z" fill="black"/>
<path d="M91.373 78H93.373V80H91.373V78Z" fill="#D9D9D9"/>
<path d="M86.373 86H83.373V89H86.373V86Z" fill="#D9D9D9"/>
<path d="M90.373 89H88.373V91H90.373V89Z" fill="#D9D9D9"/>
<path d="M87.373 83H85.373V85H87.373V83Z" fill="#D9D9D9"/>
<path d="M91.373 83H95.373V87H91.373V83Z" fill="#D9D9D9"/>
<path d="M68 52V64H71V67H93V64H96V52H93V49H71V52H68Z" fill="#83195F"/>
<path d="M51 64V52H48V49H26V52H23V64H26V67H48V64H51Z" fill="#83195F"/>
<path d="M46 53.5H49V56.5H46V53.5Z" fill="white"/>
<path d="M37 62.5H43V65.5H37V62.5Z" fill="white"/>
<path d="M82 62.5H88V65.5H82V62.5Z" fill="white"/>
<path d="M43 56.5H46V62.5H43V56.5Z" fill="white"/>
<path d="M88 56.5H91V62.5H88V56.5Z" fill="white"/>
<path d="M48 49H26V46H48V49Z" fill="#27282C"/>
<path d="M51 52H48V49H51V52Z" fill="#27282C"/>
<path fill-rule="evenodd" clip-rule="evenodd" d="M68 52H51V64H48V67H26V64H23V52H26V49H23V52H20V64H23V67H26V70H48V67H51V64H54V55H65V64H68V67H71V70H93V67H96V64H99V52H96V49H93V46H71V49H68V52ZM68 52V64H71V67H93V64H96V52H93V49H71V52H68Z" fill="#27282C"/>
<path d="M68 52V64H71V67H93V64H96V52H93V49H71V52H68Z" fill="#83195F"/>
<path d="M51 64V52H48V49H26V52H23V64H26V67H48V64H51Z" fill="#83195F"/>
<path d="M46 53.5H49V56.5H46V53.5Z" fill="white"/>
<path d="M37 62.5H43V65.5H37V62.5Z" fill="white"/>
<path d="M82 62.5H88V65.5H82V62.5Z" fill="white"/>
<path d="M43 56.5H46V62.5H43V56.5Z" fill="white"/>
<path d="M88 56.5H91V62.5H88V56.5Z" fill="white"/>
<path d="M48 49H26V46H48V49Z" fill="#27282C"/>
<path d="M51 52H48V49H51V52Z" fill="#27282C"/>
<path fill-rule="evenodd" clip-rule="evenodd" d="M68 52H51V64H48V67H26V64H23V52H26V49H23V52H20V64H23V67H26V70H48V67H51V64H54V55H65V64H68V67H71V70H93V67H96V64H99V52H96V49H93V46H71V49H68V52ZM68 52V64H71V67H93V64H96V52H93V49H71V52H68Z" fill="#27282C"/>
</svg>
