<svg width="120" height="120" viewBox="0 0 120 120" fill="none" xmlns="http://www.w3.org/2000/svg">
<path fill-rule="evenodd" clip-rule="evenodd" d="M31.5295 38.1876V43.3751H26.353V58.9376H31.5295V64.1251H47.0589V58.9376H52.2354V43.3751H47.0589V38.1876H31.5295ZM31.5295 43.3751H41.8824V53.7501H31.5295V43.3751Z" fill="white"/>
<path d="M57.4118 95.2501H62.5883V100.438H67.7648V110.813H52.2354V100.438H57.4118V95.2501Z" fill="white"/>
<path d="M88.4707 38.1876V43.3751H78.1177V53.7501H88.4707V43.3751H93.6471V58.9376H88.4707V64.1251H72.9413V58.9376H67.7648V43.3751H72.9413V38.1876H88.4707Z" fill="white"/>
<path fill-rule="evenodd" clip-rule="evenodd" d="M67.765 48.5626H52.2356V58.9376H47.0591V64.1251H26.3532V69.3126H21.1768V79.6876H26.3532V84.8751H41.8826V90.0626H36.7062V95.2501H31.5297V105.625H26.3532V100.438H21.1768V110.813H36.7062V105.625H41.8826V110.813H47.0591V105.625H52.2356V100.438H57.412V95.2501H62.5885V100.438H67.765V105.625H72.9415V110.813H78.1179V105.625H83.2944V110.813H98.8238V100.438H93.6473V105.625H88.4709V95.2501H83.2944V90.0626H78.1179V84.8751H93.6473V79.6876H98.8238V69.3126H93.6473V64.1251H72.9415V58.9376H67.765V48.5626Z" fill="#C084FC"/>
<path d="M21.1765 110.812H36.7059V116H21.1765V110.812Z" fill="black"/>
<path d="M52.2353 110.812H67.7647V116H52.2353V110.812Z" fill="black"/>
<path d="M83.2941 110.812H98.8235V116H83.2941V110.812Z" fill="black"/>
<path d="M72.9412 110.812H78.1176V116H72.9412V110.812Z" fill="black"/>
<path d="M41.8824 110.812H47.0588V116H41.8824V110.812Z" fill="black"/>
<path d="M36.7059 105.625H41.8824V110.812H36.7059V105.625Z" fill="black"/>
<path d="M21.1765 95.25H26.3529V100.438H21.1765V95.25Z" fill="black"/>
<path d="M31.5294 90.0625H36.7059V95.25H31.5294V90.0625Z" fill="black"/>
<path d="M21.1765 79.6875H26.3529V84.875H21.1765V79.6875Z" fill="black"/>
<path d="M21.1765 64.125H26.3529V69.3125H21.1765V64.125Z" fill="black"/>
<path d="M47.0588 38.1875H52.2353V43.375H47.0588V38.1875Z" fill="black"/>
<path d="M67.7647 38.1875H72.9412V43.375H67.7647V38.1875Z" fill="black"/>
<path d="M88.4706 38.1875H93.6471V43.375H88.4706V38.1875Z" fill="black"/>
<path d="M88.4706 58.9375H93.6471V64.125H88.4706V58.9375Z" fill="black"/>
<path d="M93.6471 64.125H98.8235V69.3125H93.6471V64.125Z" fill="black"/>
<path d="M93.6471 79.6875H98.8235V84.875H93.6471V79.6875Z" fill="black"/>
<path d="M83.2941 90.0625H88.4706V95.25H83.2941V90.0625Z" fill="black"/>
<path d="M78.1176 84.875H93.6471V90.0625H78.1176V84.875Z" fill="black"/>
<path d="M98.8235 69.3125H104V79.6875H98.8235V69.3125Z" fill="black"/>
<path d="M93.6471 43.375H98.8235V58.9375H93.6471V43.375Z" fill="black"/>
<path d="M52.2353 43.375H67.7647V48.5625H52.2353V43.375Z" fill="black"/>
<path d="M72.9412 33H88.4706V38.1875H72.9412V33Z" fill="black"/>
<path d="M26.3529 38.1875H31.5294V43.375H26.3529V38.1875Z" fill="black"/>
<path d="M31.5294 33H47.0588V38.1875H31.5294V33Z" fill="black"/>
<path d="M21.1765 43.375H26.3529V58.9375H21.1765V43.375Z" fill="black"/>
<path d="M16 69.3125H21.1765V79.6875H16V69.3125Z" fill="black"/>
<path d="M26.3529 84.875H41.8824V90.0625H26.3529V84.875Z" fill="black"/>
<path d="M16 100.438H21.1765V110.812H16V100.438Z" fill="black"/>
<path d="M26.3529 95.25H31.5294V105.625H26.3529V95.25Z" fill="black"/>
<path d="M47.0588 105.625H52.2353V110.812H47.0588V105.625Z" fill="black"/>
<path d="M67.7647 105.625H72.9412V110.812H67.7647V105.625Z" fill="black"/>
<path d="M78.1176 105.625H83.2941V110.812H78.1176V105.625Z" fill="black"/>
<path d="M88.4706 100.438H93.6471V105.625H88.4706V100.438Z" fill="black"/>
<path d="M88.4706 95.25H98.8235V100.438H88.4706V95.25Z" fill="black"/>
<path d="M98.8235 100.438H104V110.812H98.8235V100.438Z" fill="black"/>
<path d="M26.3529 58.9375H31.5294V64.125H26.3529V58.9375Z" fill="black"/>
<path d="M36.7059 69.3125H41.8824V74.5H36.7059V69.3125Z" fill="black"/>
<path d="M78.1176 69.3125H83.2941V74.5H78.1176V69.3125Z" fill="black"/>
<path d="M41.8824 74.5H78.1176V79.6875H41.8824V74.5Z" fill="black"/>
<path d="M31.5294 43.375H41.8824V53.75H31.5294V43.375Z" fill="black"/>
<path d="M78.1176 43.375H88.4706V53.75H78.1176V43.375Z" fill="black"/>
</svg>
