<svg width="121" height="120" viewBox="0 0 121 120" fill="none" xmlns="http://www.w3.org/2000/svg">
<path d="M78 5H84V16H81V19H74V22H84V25H90V31H93V34H96V37H99V40H102V43H96V46H29V29H32V22H35V20H38V17H66V14H69V11H75V8H78V5Z" fill="#F5E511"/>
<path d="M78 5H84V16H81V8H78V5Z" fill="#E0C605"/>
<path d="M78 8V11H75V8H78Z" fill="#E0C605"/>
<path d="M81 16V19H78V16H81Z" fill="#E0C605"/>
<path d="M38 23V20H41V17H38V20H35V23H38Z" fill="#E0C605"/>
<path d="M54 20H51V17H54V20Z" fill="#E0C605"/>
<path d="M51 20H48V23H46V26H49V23H51V20Z" fill="#E0C605"/>
<path d="M43 33H46V27H43V33Z" fill="#E0C605"/>
<path d="M61 24H58V27H64V21H67V18H64V21H61V24Z" fill="#E0C605"/>
<path d="M58 30H61V37H58V30Z" fill="#E0C605"/>
<path d="M87 25H90V31H87V25Z" fill="#E0C605"/>
<path d="M93 34V31H90V34H93Z" fill="#E0C605"/>
<path d="M96 37V34H93V37H96Z" fill="#E0C605"/>
<path d="M96 37H99V40H96V37Z" fill="#E0C605"/>
<path d="M29 38H32V29H29V38Z" fill="#E0C605"/>
<path d="M61 40H58V44H61V40Z" fill="#E0C605"/>
<path d="M66 14H69V17H66V14Z" fill="#E0C605"/>
<path d="M74 19H77V22H74V19Z" fill="#E0C605"/>
<path d="M68 34H65V37H68V34Z" fill="#E0C605"/>
<path d="M71 31H74V34H71V31Z" fill="#E0C605"/>
<path d="M84 22H81V25H84V22Z" fill="#E0C605"/>
<path d="M102 40H105V43H102V40Z" fill="#E0C605"/>
<path d="M96 43H93V46H96V43Z" fill="#E0C605"/>
<path d="M57 17H54V20H57V17Z" fill="#B8870D"/>
<path d="M67 20H70V23H67V20Z" fill="#B8870D"/>
<path d="M58 27H61V30H58V27Z" fill="#B8870D"/>
<path d="M58 30V37H61V40H58V44H55V30H58Z" fill="#B8870D"/>
<path d="M74 34H68V37H65V44H68V37H74V34Z" fill="#B8870D"/>
<path d="M35 23H38V33H35V23Z" fill="#B8870D"/>
<path d="M46 26H49V33H46V26Z" fill="#B8870D"/>
<path d="M78 2H84V5H78V2Z" fill="#332A3D"/>
<path d="M75 8H78V5H75V8Z" fill="#332A3D"/>
<path d="M69 11H75V8H69V11Z" fill="#332A3D"/>
<path d="M66 14H69V11H66V14Z" fill="#332A3D"/>
<path d="M38 17H66V14H38V17Z" fill="#332A3D"/>
<path d="M35 20H38V17H35V20Z" fill="#332A3D"/>
<path d="M32 23H35V20H32V23Z" fill="#332A3D"/>
<path d="M29 29H32V23H29V29Z" fill="#332A3D"/>
<path d="M29 29V41H26V29H29Z" fill="#332A3D"/>
<path d="M84 16H87V5H84V16Z" fill="#332A3D"/>
<path d="M90 25V22H87V19H84V16H81V19H77V22H84V25H90Z" fill="#332A3D"/>
<path d="M93 31V25H90V31H93Z" fill="#332A3D"/>
<path d="M96 34V31H93V34H96Z" fill="#332A3D"/>
<path d="M99 37V34H96V37H99Z" fill="#332A3D"/>
<path d="M105 40V37H99V40H105Z" fill="#332A3D"/>
<path d="M105 43H108V40H105V43Z" fill="#332A3D"/>
<path d="M105 43V46H96V43H105Z" fill="#332A3D"/>
<path fill-rule="evenodd" clip-rule="evenodd" d="M32.5295 38.1876V43.3751H27.353V58.9376H32.5295V64.1251H48.0589V58.9376H53.2354V43.3751H48.0589V38.1876H32.5295ZM32.5295 43.3751H42.8824V53.7501H32.5295V43.3751Z" fill="white"/>
<path d="M58.4118 95.2501H63.5883V100.438H68.7648V110.813H53.2354V100.438H58.4118V95.2501Z" fill="white"/>
<path d="M89.4707 38.1876V43.3751H79.1177V53.7501H89.4707V43.3751H94.6471V58.9376H89.4707V64.1251H73.9413V58.9376H68.7648V43.3751H73.9413V38.1876H89.4707Z" fill="white"/>
<path fill-rule="evenodd" clip-rule="evenodd" d="M68.7647 48.5626H53.2353V58.9376H48.0589V64.1251H27.353V69.3126H22.1765V79.6876H27.353V84.8751H42.8824V90.0626H37.7059V95.2501H32.5295V105.625H27.353V100.438H22.1765V110.813H37.7059V105.625H42.8824V110.813H48.0589V105.625H53.2353V100.438H58.4118V95.2501H63.5883V100.438H68.7647V105.625H73.9412V110.813H79.1177V105.625H84.2942V110.813H99.8236V100.438H94.6471V105.625H89.4706V95.2501H84.2942V90.0626H79.1177V84.8751H94.6471V79.6876H99.8236V69.3126H94.6471V64.1251H73.9412V58.9376H68.7647V48.5626Z" fill="#EEB357"/>
<path d="M22.1765 110.812H37.7059V116H22.1765V110.812Z" fill="black"/>
<path d="M53.2353 110.812H68.7647V116H53.2353V110.812Z" fill="black"/>
<path d="M84.2941 110.812H99.8235V116H84.2941V110.812Z" fill="black"/>
<path d="M73.9412 110.812H79.1176V116H73.9412V110.812Z" fill="black"/>
<path d="M42.8824 110.812H48.0588V116H42.8824V110.812Z" fill="black"/>
<path d="M37.7059 105.625H42.8824V110.812H37.7059V105.625Z" fill="black"/>
<path d="M22.1765 95.25H27.3529V100.438H22.1765V95.25Z" fill="black"/>
<path d="M32.5294 90.0625H37.7059V95.25H32.5294V90.0625Z" fill="black"/>
<path d="M22.1765 79.6875H27.3529V84.875H22.1765V79.6875Z" fill="black"/>
<path d="M22.1765 64.125H27.3529V69.3125H22.1765V64.125Z" fill="black"/>
<path d="M48.0588 38.1875H53.2353V43.375H48.0588V38.1875Z" fill="black"/>
<path d="M68.7647 38.1875H73.9412V43.375H68.7647V38.1875Z" fill="black"/>
<path d="M89.4706 38.1875H94.6471V43.375H89.4706V38.1875Z" fill="black"/>
<path d="M89.4706 58.9375H94.6471V64.125H89.4706V58.9375Z" fill="black"/>
<path d="M94.6471 64.125H99.8235V69.3125H94.6471V64.125Z" fill="black"/>
<path d="M94.6471 79.6875H99.8235V84.875H94.6471V79.6875Z" fill="black"/>
<path d="M84.2941 90.0625H89.4706V95.25H84.2941V90.0625Z" fill="black"/>
<path d="M79.1176 84.875H94.6471V90.0625H79.1176V84.875Z" fill="black"/>
<path d="M99.8235 69.3125H105V79.6875H99.8235V69.3125Z" fill="black"/>
<path d="M94.6471 43.375H99.8235V58.9375H94.6471V43.375Z" fill="black"/>
<path d="M53.2353 43.375H68.7647V48.5625H53.2353V43.375Z" fill="black"/>
<path d="M73.9412 33H89.4706V38.1875H73.9412V33Z" fill="black"/>
<path d="M27.3529 38.1875H32.5294V43.375H27.3529V38.1875Z" fill="black"/>
<path d="M32.5294 33H48.0588V38.1875H32.5294V33Z" fill="black"/>
<path d="M22.1765 43.375H27.3529V58.9375H22.1765V43.375Z" fill="black"/>
<path d="M17 69.3125H22.1765V79.6875H17V69.3125Z" fill="black"/>
<path d="M27.3529 84.875H42.8824V90.0625H27.3529V84.875Z" fill="black"/>
<path d="M17 100.438H22.1765V110.812H17V100.438Z" fill="black"/>
<path d="M27.3529 95.25H32.5294V105.625H27.3529V95.25Z" fill="black"/>
<path d="M48.0588 105.625H53.2353V110.812H48.0588V105.625Z" fill="black"/>
<path d="M68.7647 105.625H73.9412V110.812H68.7647V105.625Z" fill="black"/>
<path d="M79.1176 105.625H84.2941V110.812H79.1176V105.625Z" fill="black"/>
<path d="M89.4706 100.438H94.6471V105.625H89.4706V100.438Z" fill="black"/>
<path d="M89.4706 95.25H99.8235V100.438H89.4706V95.25Z" fill="black"/>
<path d="M99.8235 100.438H105V110.812H99.8235V100.438Z" fill="black"/>
<path d="M27.3529 58.9375H32.5294V64.125H27.3529V58.9375Z" fill="black"/>
<path d="M37.7059 69.3125H42.8824V74.5H37.7059V69.3125Z" fill="black"/>
<path d="M79.1176 69.3125H84.2941V74.5H79.1176V69.3125Z" fill="black"/>
<path d="M42.8824 74.5H79.1176V79.6875H42.8824V74.5Z" fill="black"/>
<path d="M32.5294 43.375H42.8824V53.75H32.5294V43.375Z" fill="black"/>
<path d="M79.1176 43.375H89.4706V53.75H79.1176V43.375Z" fill="black"/>
</svg>
