<svg width="122" height="120" viewBox="0 0 122 120" fill="none" xmlns="http://www.w3.org/2000/svg">
<path d="M51 6H86V12H92V18H98V33H104V39H110V55H116V85H110V91H104V106H98V91H104V85H110V60H104V45H98V35H92V29H86V27H80V21H51V23H39V30H25V33H19V52H13V81H19V87H25V99H19V87H13V81H7V46H13V30H19V24H33V18H39V12H51V6Z" fill="#504A53"/>
<path d="M86 0H51V6H86V0Z" fill="black"/>
<path d="M92 12H86V6H92V12Z" fill="black"/>
<path d="M98 18H92V12H98V18Z" fill="black"/>
<path d="M104 33H98V18H104V33Z" fill="black"/>
<path d="M110 39H104V33H110V39Z" fill="black"/>
<path d="M116 55H110V39H116V55Z" fill="black"/>
<path d="M116 85V55H122V85H116Z" fill="black"/>
<path fill-rule="evenodd" clip-rule="evenodd" d="M110 85H116V91H110V106H104V91H98V106H25V105H19V99H13V87H7V81H1V46H7V30H13V24H19V18H33V12H39V6H51V12H39V18H33V24H19V30H13V46H7V81H13V52H19V33H25V29H39V23H51V21H79V27H86V29H92V35H98V45H104V60H110V85ZM19 87V99H25V87H19ZM19 87V81H13V87H19ZM110 85H104V91H110V85Z" fill="black"/>
<path fill-rule="evenodd" clip-rule="evenodd" d="M31.5295 38.1875V43.375H26.353V58.9375H31.5295V64.125H47.0589V58.9375H52.2354V43.375H47.0589V38.1875H31.5295ZM31.5295 43.375H41.8824V53.75H31.5295V43.375Z" fill="white"/>
<path d="M57.4118 95.25H62.5883V100.437H67.7648V110.812H52.2354V100.437H57.4118V95.25Z" fill="white"/>
<path d="M88.4707 38.1875V43.375H78.1177V53.75H88.4707V43.375H93.6471V58.9375H88.4707V64.125H72.9413V58.9375H67.7648V43.375H72.9413V38.1875H88.4707Z" fill="white"/>
<path fill-rule="evenodd" clip-rule="evenodd" d="M67.765 48.5625H52.2356V58.9375H47.0591V64.125H26.3532V69.3125H21.1768V79.6875H26.3532V84.875H41.8826V90.0625H36.7062V95.25H31.5297V105.625H26.3532V100.437H21.1768V110.812H36.7062V105.625H41.8826V110.812H47.0591V105.625H52.2356V100.437H57.412V95.25H62.5885V100.437H67.765V105.625H72.9415V110.812H78.1179V105.625H83.2944V110.812H98.8238V100.437H93.6473V105.625H88.4709V95.25H83.2944V90.0625H78.1179V84.875H93.6473V79.6875H98.8238V69.3125H93.6473V64.125H72.9415V58.9375H67.765V48.5625Z" fill="#EEB357"/>
<path d="M21.1765 110.812H36.7059V116H21.1765V110.812Z" fill="black"/>
<path d="M52.2353 110.812H67.7647V116H52.2353V110.812Z" fill="black"/>
<path d="M83.2941 110.812H98.8235V116H83.2941V110.812Z" fill="black"/>
<path d="M72.9412 110.812H78.1176V116H72.9412V110.812Z" fill="black"/>
<path d="M41.8824 110.812H47.0588V116H41.8824V110.812Z" fill="black"/>
<path d="M36.7059 105.625H41.8824V110.812H36.7059V105.625Z" fill="black"/>
<path d="M21.1765 95.25H26.3529V100.438H21.1765V95.25Z" fill="black"/>
<path d="M31.5294 90.0625H36.7059V95.25H31.5294V90.0625Z" fill="black"/>
<path d="M21.1765 79.6875H26.3529V84.875H21.1765V79.6875Z" fill="black"/>
<path d="M21.1765 64.125H26.3529V69.3125H21.1765V64.125Z" fill="black"/>
<path d="M47.0588 38.1875H52.2353V43.375H47.0588V38.1875Z" fill="black"/>
<path d="M67.7647 38.1875H72.9412V43.375H67.7647V38.1875Z" fill="black"/>
<path d="M88.4706 38.1875H93.6471V43.375H88.4706V38.1875Z" fill="black"/>
<path d="M88.4706 58.9375H93.6471V64.125H88.4706V58.9375Z" fill="black"/>
<path d="M93.6471 64.125H98.8235V69.3125H93.6471V64.125Z" fill="black"/>
<path d="M93.6471 79.6875H98.8235V84.875H93.6471V79.6875Z" fill="black"/>
<path d="M83.2941 90.0625H88.4706V95.25H83.2941V90.0625Z" fill="black"/>
<path d="M78.1176 84.875H93.6471V90.0625H78.1176V84.875Z" fill="black"/>
<path d="M98.8235 69.3125H104V79.6875H98.8235V69.3125Z" fill="black"/>
<path d="M93.6471 43.375H98.8235V58.9375H93.6471V43.375Z" fill="black"/>
<path d="M52.2353 43.375H67.7647V48.5625H52.2353V43.375Z" fill="black"/>
<path d="M72.9412 33H88.4706V38.1875H72.9412V33Z" fill="black"/>
<path d="M26.3529 38.1875H31.5294V43.375H26.3529V38.1875Z" fill="black"/>
<path d="M31.5294 33H47.0588V38.1875H31.5294V33Z" fill="black"/>
<path d="M21.1765 43.375H26.3529V58.9375H21.1765V43.375Z" fill="black"/>
<path d="M16 69.3125H21.1765V79.6875H16V69.3125Z" fill="black"/>
<path d="M26.3529 84.875H41.8824V90.0625H26.3529V84.875Z" fill="black"/>
<path d="M16 100.438H21.1765V110.812H16V100.438Z" fill="black"/>
<path d="M26.3529 95.25H31.5294V105.625H26.3529V95.25Z" fill="black"/>
<path d="M47.0588 105.625H52.2353V110.812H47.0588V105.625Z" fill="black"/>
<path d="M67.7647 105.625H72.9412V110.812H67.7647V105.625Z" fill="black"/>
<path d="M78.1176 105.625H83.2941V110.812H78.1176V105.625Z" fill="black"/>
<path d="M88.4706 100.438H93.6471V105.625H88.4706V100.438Z" fill="black"/>
<path d="M88.4706 95.25H98.8235V100.438H88.4706V95.25Z" fill="black"/>
<path d="M98.8235 100.438H104V110.812H98.8235V100.438Z" fill="black"/>
<path d="M26.3529 58.9375H31.5294V64.125H26.3529V58.9375Z" fill="black"/>
<path d="M36.7059 69.3125H41.8824V74.5H36.7059V69.3125Z" fill="black"/>
<path d="M78.1176 69.3125H83.2941V74.5H78.1176V69.3125Z" fill="black"/>
<path d="M41.8824 74.5H78.1176V79.6875H41.8824V74.5Z" fill="black"/>
<path d="M31.5294 43.375H41.8824V53.75H31.5294V43.375Z" fill="black"/>
<path d="M78.1176 43.375H88.4706V53.75H78.1176V43.375Z" fill="black"/>
<path d="M76 93H77V94H76V93Z" fill="#773D31"/>
<path d="M75 92H76V93H75V92Z" fill="#773D31"/>
<path d="M73 90H74V91H73V90Z" fill="#773D31"/>
<path d="M75 90H76V91H75V90Z" fill="#773D31"/>
<path d="M76 91H77V92H76V91Z" fill="#773D31"/>
<path d="M71 88H72V89H71V88Z" fill="#773D31"/>
<path d="M70 87H71V88H70V87Z" fill="#773D31"/>
<path d="M69 86H70V87H69V86Z" fill="#773D31"/>
<path d="M68 85H69V86H68V85Z" fill="#773D31"/>
<path d="M67 84H68V85H67V84Z" fill="#773D31"/>
<path d="M64 81H65V82H64V81Z" fill="#773D31"/>
<path d="M63 80H64V81H63V80Z" fill="#773D31"/>
<path d="M62 79H63V80H62V79Z" fill="#773D31"/>
<path d="M61 78H62V79H61V78Z" fill="#773D31"/>
<path d="M61 77H62V78H61V77Z" fill="#773D31"/>
<path d="M74 89H75V90H74V89Z" fill="#773D31"/>
<path d="M73 88H74V89H73V88Z" fill="#773D31"/>
<path d="M72 87H73V88H72V87Z" fill="#773D31"/>
<path d="M71 86H72V87H71V86Z" fill="#773D31"/>
<path d="M70 85H71V86H70V85Z" fill="#773D31"/>
<path d="M69 84H70V85H69V84Z" fill="#773D31"/>
<path d="M68 83H69V84H68V83Z" fill="#773D31"/>
<path d="M67 82H68V83H67V82Z" fill="#773D31"/>
<path d="M66 81H67V82H66V81Z" fill="#773D31"/>
<path d="M65 80H66V81H65V80Z" fill="#773D31"/>
<path d="M64 79H65V80H64V79Z" fill="#773D31"/>
<path d="M63 78H64V79H63V78Z" fill="#773D31"/>
<path d="M76 89H77V90H76V89Z" fill="#773D31"/>
<path d="M75 88H76V89H75V88Z" fill="#773D31"/>
<path d="M74 87H75V88H74V87Z" fill="#773D31"/>
<path d="M73 86H74V87H73V86Z" fill="#773D31"/>
<path d="M72 85H73V86H72V85Z" fill="#773D31"/>
<path d="M71 84H72V86H71V84Z" fill="#773D31"/>
<path d="M70 83H71V84H70V83Z" fill="#773D31"/>
<path d="M69 82H70V83H69V82Z" fill="#773D31"/>
<path d="M71 82H72V83H71V82Z" fill="#773D31"/>
<path d="M72 83H73V84H72V83Z" fill="#773D31"/>
<path d="M73 84H74V85H73V84Z" fill="#773D31"/>
<path d="M74 85H75V86H74V85Z" fill="#773D31"/>
<path d="M75 86H76V87H75V86Z" fill="#773D31"/>
<path d="M76 87H77V88H76V87Z" fill="#773D31"/>
<path d="M77 88H78V89H77V88Z" fill="#773D31"/>
<path d="M68 81H69V82H68V81Z" fill="#773D31"/>
<path d="M67 80H68V81H67V80Z" fill="#773D31"/>
<path d="M74 90H75V91H74V90Z" fill="#773D31"/>
<path d="M68 84H69V85H68V84Z" fill="#773D31"/>
<path d="M66 82H67V83H66V82Z" fill="#773D31"/>
<path d="M64 80H65V81H64V80Z" fill="#773D31"/>
<path d="M74 88H75V89H74V88Z" fill="#773D31"/>
<path d="M69 83H70V84H69V83Z" fill="#773D31"/>
<path d="M67 81H68V82H67V81Z" fill="#773D31"/>
<path d="M73 85H74V86H73V85Z" fill="#773D31"/>
<path d="M74 91H75V92H74V91Z" fill="#5B2C24"/>
<path d="M72 89H73V90H72V89Z" fill="#5B2C24"/>
<path d="M66 83H67V84H66V83Z" fill="#5B2C24"/>
<path d="M65 82H66V83H65V82Z" fill="#5B2C24"/>
<path d="M76 92H77V93H76V92Z" fill="#5B2C24"/>
<path d="M75 91H76V92H75V91Z" fill="#5B2C24"/>
<path d="M73 89H74V90H73V89Z" fill="#5B2C24"/>
<path d="M72 88H73V89H72V88Z" fill="#5B2C24"/>
<path d="M71 87H72V88H71V87Z" fill="#5B2C24"/>
<path d="M70 86H72V87H70V86Z" fill="#5B2C24"/>
<path d="M69 84H70V86H69V84Z" fill="#5B2C24"/>
<path d="M67 83H68V84H67V83Z" fill="#5B2C24"/>
<path d="M65 81H66V82H65V81Z" fill="#5B2C24"/>
<path d="M63 79H64V80H63V79Z" fill="#5B2C24"/>
<path d="M62 78H63V79H62V78Z" fill="#5B2C24"/>
<path d="M62 77H63V78H62V77Z" fill="#5B2C24"/>
<path d="M75 89H76V90H75V89Z" fill="#5B2C24"/>
<path d="M76 90H77V91H76V90Z" fill="#5B2C24"/>
<path d="M77 89H78V90H77V89Z" fill="#5B2C24"/>
<path d="M73 87H75V88H73V87Z" fill="#5B2C24"/>
<path d="M72 86H73V87H72V86Z" fill="#5B2C24"/>
<path d="M72 85H73V86H72V85Z" fill="#5B2C24"/>
<path d="M70 84H71V85H70V84Z" fill="#5B2C24"/>
<path d="M68 82H69V83H68V82Z" fill="#5B2C24"/>
<path d="M69 81H70V82H69V81Z" fill="#5B2C24"/>
<path d="M70 82H71V83H70V82Z" fill="#5B2C24"/>
<path d="M71 83H72V84H71V83Z" fill="#5B2C24"/>
<path d="M72 84H73V85H72V84Z" fill="#5B2C24"/>
<path d="M74 86H75V87H74V86Z" fill="#5B2C24"/>
<path d="M75 87H76V88H75V87Z" fill="#5B2C24"/>
<path d="M76 88H77V89H76V88Z" fill="#5B2C24"/>
<path d="M75 85H76V86H75V85Z" fill="#5B2C24"/>
<path d="M76 86H77V87H76V86Z" fill="#5B2C24"/>
<path d="M77 87H78V88H77V87Z" fill="#5B2C24"/>
<path d="M78 88H79V89H78V88Z" fill="#5B2C24"/>
<path d="M66 80H67V81H66V80Z" fill="#5B2C24"/>
<path d="M68 80H69V81H68V80Z" fill="#5B2C24"/>
<path d="M65 79H66V80H65V79Z" fill="#5B2C24"/>
<path d="M64 78H65V79H64V78Z" fill="#5B2C24"/>
<path d="M77 94H78V95H77V94Z" fill="#D23524"/>
<path d="M78 93H79V94H78V93Z" fill="#D23524"/>
<path d="M79 94H80V95H79V94Z" fill="#D23524"/>
<path d="M80 93H81V94H80V93Z" fill="#D23524"/>
<path d="M81 94H82V95H81V94Z" fill="#D23524"/>
<path d="M82 93H83V94H82V93Z" fill="#D23524"/>
<path d="M81 92H82V93H81V92Z" fill="#D23524"/>
<path d="M79 92H80V93H79V92Z" fill="#D23524"/>
<path d="M82 91H83V92H82V91Z" fill="#D23524"/>
<path d="M81 90H82V91H81V90Z" fill="#D23524"/>
<path d="M80 91H81V92H80V91Z" fill="#D23524"/>
<path d="M79 90H80V91H79V90Z" fill="#D23524"/>
<path d="M78 91H79V92H78V91Z" fill="#D23524"/>
<path d="M78 94H79V95H78V94Z" fill="#EF4F2B"/>
<path d="M79 93H80V94H79V93Z" fill="#EF4F2B"/>
<path d="M80 94H81V95H80V94Z" fill="#EF4F2B"/>
<path d="M82 94H83V95H82V94Z" fill="#EF4F2B"/>
<path d="M81 93H82V94H81V93Z" fill="#EF4F2B"/>
<path d="M82 92H83V93H82V92Z" fill="#EF4F2B"/>
<path d="M80 92H81V93H80V92Z" fill="#EF4F2B"/>
<path d="M78 92H79V93H78V92Z" fill="#EF4F2B"/>
<path d="M79 91H80V92H79V91Z" fill="#EF4F2B"/>
<path d="M81 91H82V92H81V91Z" fill="#EF4F2B"/>
<path d="M82 90H83V91H82V90Z" fill="#EF4F2B"/>
<path d="M80 90H81V91H80V90Z" fill="#EF4F2B"/>
<path d="M78 90H79V91H78V90Z" fill="#EF4F2B"/>
<path d="M61 76H63V77H61V76Z" fill="black"/>
<path d="M63 77H65V78H63V77Z" fill="black"/>
<path d="M65 78H66V79H65V78Z" fill="black"/>
<path d="M61 79H62V80H61V79Z" fill="black"/>
<path d="M62 80H63V81H62V80Z" fill="black"/>
<path d="M63 81H64V82H63V81Z" fill="black"/>
<path d="M64 82H65V83H64V82Z" fill="black"/>
<path d="M65 83H66V84H65V83Z" fill="black"/>
<path d="M66 84H67V85H66V84Z" fill="black"/>
<path d="M67 85H68V86H67V85Z" fill="black"/>
<path d="M68 86H69V87H68V86Z" fill="black"/>
<path d="M69 87H70V88H69V87Z" fill="black"/>
<path d="M70 88H71V89H70V88Z" fill="black"/>
<path d="M71 89H72V90H71V89Z" fill="black"/>
<path d="M72 90H73V91H72V90Z" fill="black"/>
<path d="M73 91H74V92H73V91Z" fill="black"/>
<path d="M74 92H75V93H74V92Z" fill="black"/>
<path d="M75 93H76V94H75V93Z" fill="black"/>
<path d="M79 88H80V89H79V88Z" fill="black"/>
<path d="M78 87H79V88H78V87Z" fill="black"/>
<path d="M77 86H78V87H77V86Z" fill="black"/>
<path d="M76 85H77V86H76V85Z" fill="black"/>
<path d="M73 83H74V84H73V83Z" fill="black"/>
<path d="M72 82H73V83H72V82Z" fill="black"/>
<path d="M69 80H70V81H69V80Z" fill="black"/>
<path d="M70 81H72V82H70V81Z" fill="black"/>
<path d="M74 84H76V85H74V84Z" fill="black"/>
<path d="M78 89H83V90H78V89Z" fill="black"/>
<path d="M76 94H77V95H76V94Z" fill="black"/>
<path d="M77 90H78V94H77V90Z" fill="black"/>
<path d="M83 90H84V95H83V90Z" fill="black"/>
<path d="M77 95H83V96H77V95Z" fill="black"/>
<path d="M60 76H61V79H60V76Z" fill="black"/>
<path d="M66 79H69V80H66V79Z" fill="black"/>
<path d="M83.373 86H86.373V89H83.373V86Z" fill="#D9D9D9"/>
<path d="M88.373 89H90.373V91H88.373V89Z" fill="#D9D9D9"/>
<path d="M91.373 78H93.373V80H91.373V78Z" fill="#D9D9D9"/>
<path d="M85.373 83H87.373V85H85.373V83Z" fill="#D9D9D9"/>
<path d="M91.373 83H95.373V87H91.373V83Z" fill="#D9D9D9"/>
<path d="M88.9998 90H89.9998V91H88.9998V90Z" fill="#D9D9D9"/>
<path d="M65 52H99V64H65V52Z" fill="#83195F"/>
<path d="M23 49H51V52H23V49Z" fill="#83195F"/>
<path d="M54 52H65V55H54V52Z" fill="#83195F"/>
<path d="M68 49H96V52H68V49Z" fill="#83195F"/>
<path d="M23 64H51V67H23V64Z" fill="#83195F"/>
<path d="M68 64H96V67H68V64Z" fill="#83195F"/>
<path d="M26 67H48V70H26V67Z" fill="#83195F"/>
<path d="M96 61H99V64H96V61Z" fill="#83195F"/>
<path d="M96 58H99V61H96V58Z" fill="#83195F"/>
<path d="M26 46H48V49H26V46Z" fill="#83195F"/>
<path d="M71 46H93V49H71V46Z" fill="#83195F"/>
<path d="M20 52H54V64H20V52Z" fill="#83195F"/>
<path d="M46 53.5H49V56.5H46V53.5Z" fill="white"/>
<path d="M37 62.5H43V65.5H37V62.5Z" fill="white"/>
<path d="M82 62.5H88V65.5H82V62.5Z" fill="white"/>
<path d="M43 56.5H46V62.5H43V56.5Z" fill="white"/>
<path d="M88 56.5H91V62.5H88V56.5Z" fill="white"/>
<path d="M71 67H93V70H71V67Z" fill="#621347"/>
<path d="M93 64H96V67H93V64Z" fill="#621347"/>
<path d="M96 61H99V64H96V61Z" fill="#621347"/>
<path d="M96 58H99V61H96V58Z" fill="#621347"/>
<path d="M48 67H26V70H48V67Z" fill="#621347"/>
<path d="M26 64H23V67H26V64Z" fill="#621347"/>
<path d="M23 61H20V64H23V61Z" fill="#621347"/>
<path d="M23 58H20V61H23V58Z" fill="#621347"/>
<path d="M23 49H26V52H23V49Z" fill="#27282C"/>
<path d="M48 49H51V52H48V49Z" fill="#27282C"/>
<path d="M48 64H51V67H48V64Z" fill="#27282C"/>
<path d="M51 55H54V64H51V55Z" fill="#27282C"/>
<path d="M68 49H71V52H68V49Z" fill="#27282C"/>
<path d="M65 55H68V64H65V55Z" fill="#27282C"/>
<path d="M68 64H71V67H68V64Z" fill="#27282C"/>
<path d="M93 49H96V52H93V49Z" fill="#27282C"/>
<path d="M93 64H96V67H93V64Z" fill="#27282C"/>
<path d="M96 52H99V55H96V52Z" fill="#27282C"/>
<path d="M96 55H99V64H96V55Z" fill="#27282C"/>
<path d="M71 46H93V49H71V46Z" fill="#27282C"/>
<path d="M71 67H93V70H71V67Z" fill="#27282C"/>
<path d="M51 52H68V55H51V52Z" fill="#27282C"/>
<path d="M26 46H48V49H26V46Z" fill="#27282C"/>
<path d="M20 52H23V55H20V52Z" fill="#27282C"/>
<path d="M20 55H23V64H20V55Z" fill="#27282C"/>
<path d="M23 64H26V67H23V64Z" fill="#27282C"/>
<path d="M26 67H48V70H26V67Z" fill="#27282C"/>
</svg>
