<svg width="121" height="120" viewBox="0 0 121 120" fill="none" xmlns="http://www.w3.org/2000/svg">
<path d="M32 25H90V29H32V25Z" fill="#F5E511"/>
<path d="M29 29H90V46H29V29Z" fill="#F5E511"/>
<path d="M90 31H93V46H90V31Z" fill="#F5E511"/>
<path d="M32 22H84V25H32V22Z" fill="#F5E511"/>
<path d="M35 20H74V22H35V20Z" fill="#F5E511"/>
<path d="M38 17H74V20H38V17Z" fill="#F5E511"/>
<path d="M66 14H81V19H66V14Z" fill="#F5E511"/>
<path d="M69 11H84V16H69V11Z" fill="#F5E511"/>
<path d="M75 8H84V11H75V8Z" fill="#F5E511"/>
<path d="M78 5H84V8H78V5Z" fill="#F5E511"/>
<path d="M93 34H96V46H93V34Z" fill="#F5E511"/>
<path d="M96 37H99V43H96V37Z" fill="#F5E511"/>
<path d="M99 40H102V43H99V40Z" fill="#F5E511"/>
<path d="M35 20H38V23H35V20Z" fill="#E0C605"/>
<path d="M38 17H41V20H38V17Z" fill="#E0C605"/>
<path d="M51 17H54V20H51V17Z" fill="#E0C605"/>
<path d="M48 20H51V23H48V20Z" fill="#E0C605"/>
<path d="M46 23H49V26H46V23Z" fill="#E0C605"/>
<path d="M43 30H46V33H43V30Z" fill="#E0C605"/>
<path d="M43 27H46V30H43V27Z" fill="#E0C605"/>
<path d="M58 24H61V27H58V24Z" fill="#E0C605"/>
<path d="M58 30H61V33H58V30Z" fill="#E0C605"/>
<path d="M58 40H61V44H58V40Z" fill="#E0C605"/>
<path d="M58 33H61V37H58V33Z" fill="#E0C605"/>
<path d="M61 24H64V27H61V24Z" fill="#E0C605"/>
<path d="M61 21H64V24H61V21Z" fill="#E0C605"/>
<path d="M64 18H67V21H64V18Z" fill="#E0C605"/>
<path d="M78 5H81V8H78V5Z" fill="#E0C605"/>
<path d="M81 5H84V8H81V5Z" fill="#E0C605"/>
<path d="M81 8H84V11H81V8Z" fill="#E0C605"/>
<path d="M81 10H84V13H81V10Z" fill="#E0C605"/>
<path d="M66 14H69V17H66V14Z" fill="#E0C605"/>
<path d="M75 8H78V11H75V8Z" fill="#E0C605"/>
<path d="M81 13H84V16H81V13Z" fill="#E0C605"/>
<path d="M78 16H81V19H78V16Z" fill="#E0C605"/>
<path d="M74 19H77V22H74V19Z" fill="#E0C605"/>
<path d="M65 34H68V37H65V34Z" fill="#E0C605"/>
<path d="M71 31H74V34H71V31Z" fill="#E0C605"/>
<path d="M81 22H84V25H81V22Z" fill="#E0C605"/>
<path d="M87 25H90V28H87V25Z" fill="#E0C605"/>
<path d="M90 31H93V34H90V31Z" fill="#E0C605"/>
<path d="M102 40H105V43H102V40Z" fill="#E0C605"/>
<path d="M96 37H99V40H96V37Z" fill="#E0C605"/>
<path d="M93 34H96V37H93V34Z" fill="#E0C605"/>
<path d="M93 43H96V46H93V43Z" fill="#E0C605"/>
<path d="M87 28H90V31H87V28Z" fill="#E0C605"/>
<path d="M29 35H32V38H29V35Z" fill="#E0C605"/>
<path d="M29 32H32V35H29V32Z" fill="#E0C605"/>
<path d="M29 29H32V32H29V29Z" fill="#E0C605"/>
<path d="M58 27H61V30H58V27Z" fill="#B8870D"/>
<path d="M67 20H70V23H67V20Z" fill="#B8870D"/>
<path d="M71 34H74V37H71V34Z" fill="#B8870D"/>
<path d="M68 34H71V37H68V34Z" fill="#B8870D"/>
<path d="M65 37H68V40H65V37Z" fill="#B8870D"/>
<path d="M65 40H68V44H65V40Z" fill="#B8870D"/>
<path d="M54 17H57V20H54V17Z" fill="#B8870D"/>
<path d="M35 23H38V33H35V23Z" fill="#B8870D"/>
<path d="M58 37H61V40H58V37Z" fill="#B8870D"/>
<path d="M46 26H49V33H46V26Z" fill="#B8870D"/>
<path d="M55 30H58V44H55V30Z" fill="#B8870D"/>
<path d="M26 35H29V41H26V35Z" fill="#332A3D"/>
<path d="M26 32H29V35H26V32Z" fill="#332A3D"/>
<path d="M26 29H29V32H26V29Z" fill="#332A3D"/>
<path d="M29 26H32V29H29V26Z" fill="#332A3D"/>
<path d="M29 23H32V26H29V23Z" fill="#332A3D"/>
<path d="M32 20H35V23H32V20Z" fill="#332A3D"/>
<path d="M35 17H38V20H35V17Z" fill="#332A3D"/>
<path d="M66 11H69V14H66V11Z" fill="#332A3D"/>
<path d="M84 22H87V25H84V22Z" fill="#332A3D"/>
<path d="M75 5H78V8H75V5Z" fill="#332A3D"/>
<path d="M78 2H81V5H78V2Z" fill="#332A3D"/>
<path d="M81 2H84V5H81V2Z" fill="#332A3D"/>
<path d="M84 5H87V8H84V5Z" fill="#332A3D"/>
<path d="M81 16H84V19H81V16Z" fill="#332A3D"/>
<path d="M87 22H90V25H87V22Z" fill="#332A3D"/>
<path d="M93 31H96V34H93V31Z" fill="#332A3D"/>
<path d="M96 34H99V37H96V34Z" fill="#332A3D"/>
<path d="M99 37H102V40H99V37Z" fill="#332A3D"/>
<path d="M102 37H105V40H102V37Z" fill="#332A3D"/>
<path d="M105 40H108V43H105V40Z" fill="#332A3D"/>
<path d="M96 43H105V46H96V43Z" fill="#332A3D"/>
<path d="M90 25H93V31H90V25Z" fill="#332A3D"/>
<path d="M77 19H87V22H77V19Z" fill="#332A3D"/>
<path d="M84 8H87V16H84V8Z" fill="#332A3D"/>
<path d="M69 8H75V11H69V8Z" fill="#332A3D"/>
<path d="M38 14H66V17H38V14Z" fill="#332A3D"/>
<path fill-rule="evenodd" clip-rule="evenodd" d="M32.5295 38.1876V43.3751H27.353V58.9376H32.5295V64.1251H48.0589V58.9376H53.2354V43.3751H48.0589V38.1876H32.5295ZM32.5295 43.3751H42.8824V53.7501H32.5295V43.3751Z" fill="white"/>
<path d="M58.4118 95.2501H63.5883V100.438H68.7648V110.813H53.2354V100.438H58.4118V95.2501Z" fill="white"/>
<path d="M89.4707 38.1876V43.3751H79.1177V53.7501H89.4707V43.3751H94.6471V58.9376H89.4707V64.1251H73.9413V58.9376H68.7648V43.3751H73.9413V38.1876H89.4707Z" fill="white"/>
<path fill-rule="evenodd" clip-rule="evenodd" d="M68.765 48.5626H53.2356V58.9376H48.0591V64.1251H27.3532V69.3126H22.1768V79.6876H27.3532V84.8751H42.8826V90.0626H37.7062V95.2501H32.5297V105.625H27.3532V100.438H22.1768V110.813H37.7062V105.625H42.8826V110.813H48.0591V105.625H53.2356V100.438H58.412V95.2501H63.5885V100.438H68.765V105.625H73.9415V110.813H79.1179V105.625H84.2944V110.813H99.8238V100.438H94.6473V105.625H89.4709V95.2501H84.2944V90.0626H79.1179V84.8751H94.6473V79.6876H99.8238V69.3126H94.6473V64.1251H73.9415V58.9376H68.765V48.5626Z" fill="#EEB357"/>
<path d="M22.1765 110.812H37.7059V116H22.1765V110.812Z" fill="black"/>
<path d="M53.2353 110.812H68.7647V116H53.2353V110.812Z" fill="black"/>
<path d="M84.2941 110.812H99.8235V116H84.2941V110.812Z" fill="black"/>
<path d="M73.9412 110.812H79.1176V116H73.9412V110.812Z" fill="black"/>
<path d="M42.8824 110.812H48.0588V116H42.8824V110.812Z" fill="black"/>
<path d="M37.7059 105.625H42.8824V110.812H37.7059V105.625Z" fill="black"/>
<path d="M22.1765 95.25H27.3529V100.438H22.1765V95.25Z" fill="black"/>
<path d="M32.5294 90.0625H37.7059V95.25H32.5294V90.0625Z" fill="black"/>
<path d="M22.1765 79.6875H27.3529V84.875H22.1765V79.6875Z" fill="black"/>
<path d="M22.1765 64.125H27.3529V69.3125H22.1765V64.125Z" fill="black"/>
<path d="M48.0588 38.1875H53.2353V43.375H48.0588V38.1875Z" fill="black"/>
<path d="M68.7647 38.1875H73.9412V43.375H68.7647V38.1875Z" fill="black"/>
<path d="M89.4706 38.1875H94.6471V43.375H89.4706V38.1875Z" fill="black"/>
<path d="M89.4706 58.9375H94.6471V64.125H89.4706V58.9375Z" fill="black"/>
<path d="M94.6471 64.125H99.8235V69.3125H94.6471V64.125Z" fill="black"/>
<path d="M94.6471 79.6875H99.8235V84.875H94.6471V79.6875Z" fill="black"/>
<path d="M84.2941 90.0625H89.4706V95.25H84.2941V90.0625Z" fill="black"/>
<path d="M79.1176 84.875H94.6471V90.0625H79.1176V84.875Z" fill="black"/>
<path d="M99.8235 69.3125H105V79.6875H99.8235V69.3125Z" fill="black"/>
<path d="M94.6471 43.375H99.8235V58.9375H94.6471V43.375Z" fill="black"/>
<path d="M53.2353 43.375H68.7647V48.5625H53.2353V43.375Z" fill="black"/>
<path d="M73.9412 33H89.4706V38.1875H73.9412V33Z" fill="black"/>
<path d="M27.3529 38.1875H32.5294V43.375H27.3529V38.1875Z" fill="black"/>
<path d="M32.5294 33H48.0588V38.1875H32.5294V33Z" fill="black"/>
<path d="M22.1765 43.375H27.3529V58.9375H22.1765V43.375Z" fill="black"/>
<path d="M17 69.3125H22.1765V79.6875H17V69.3125Z" fill="black"/>
<path d="M27.3529 84.875H42.8824V90.0625H27.3529V84.875Z" fill="black"/>
<path d="M17 100.438H22.1765V110.812H17V100.438Z" fill="black"/>
<path d="M27.3529 95.25H32.5294V105.625H27.3529V95.25Z" fill="black"/>
<path d="M48.0588 105.625H53.2353V110.812H48.0588V105.625Z" fill="black"/>
<path d="M68.7647 105.625H73.9412V110.812H68.7647V105.625Z" fill="black"/>
<path d="M79.1176 105.625H84.2941V110.812H79.1176V105.625Z" fill="black"/>
<path d="M89.4706 100.438H94.6471V105.625H89.4706V100.438Z" fill="black"/>
<path d="M89.4706 95.25H99.8235V100.438H89.4706V95.25Z" fill="black"/>
<path d="M99.8235 100.438H105V110.812H99.8235V100.438Z" fill="black"/>
<path d="M27.3529 58.9375H32.5294V64.125H27.3529V58.9375Z" fill="black"/>
<path d="M37.7059 69.3125H42.8824V74.5H37.7059V69.3125Z" fill="black"/>
<path d="M79.1176 69.3125H84.2941V74.5H79.1176V69.3125Z" fill="black"/>
<path d="M42.8824 74.5H79.1176V79.6875H42.8824V74.5Z" fill="black"/>
<path d="M32.5294 43.375H42.8824V53.75H32.5294V43.375Z" fill="black"/>
<path d="M79.1176 43.375H89.4706V53.75H79.1176V43.375Z" fill="black"/>
</svg>
