<svg width="122" height="120" viewBox="0 0 122 120" fill="none" xmlns="http://www.w3.org/2000/svg">
<path fill-rule="evenodd" clip-rule="evenodd" d="M32.5295 38.1875V43.375H27.353V58.9375H32.5295V64.125H48.0589V58.9375H53.2354V43.375H48.0589V38.1875H32.5295ZM32.5295 43.375H42.8824V53.75H32.5295V43.375Z" fill="white"/>
<path d="M58.4118 95.25H63.5883V100.437H68.7648V110.812H53.2354V100.437H58.4118V95.25Z" fill="white"/>
<path d="M89.4707 38.1875V43.375H79.1177V53.75H89.4707V43.375H94.6471V58.9375H89.4707V64.125H73.9413V58.9375H68.7648V43.375H73.9413V38.1875H89.4707Z" fill="white"/>
<path fill-rule="evenodd" clip-rule="evenodd" d="M68.765 48.5625H53.2356V58.9375H48.0591V64.125H27.3532V69.3125H22.1768V79.6875H27.3532V84.875H42.8826V90.0625H37.7062V95.25H32.5297V105.625H27.3532V100.437H22.1768V110.812H37.7062V105.625H42.8826V110.812H48.0591V105.625H53.2356V100.437H58.412V95.25H63.5885V100.437H68.765V105.625H73.9415V110.812H79.1179V105.625H84.2944V110.812H99.8238V100.437H94.6473V105.625H89.4709V95.25H84.2944V90.0625H79.1179V84.875H94.6473V79.6875H99.8238V69.3125H94.6473V64.125H73.9415V58.9375H68.765V48.5625Z" fill="#EEB357"/>
<path d="M22.1765 110.812H37.7059V116H22.1765V110.812Z" fill="black"/>
<path d="M53.2353 110.812H68.7647V116H53.2353V110.812Z" fill="black"/>
<path d="M84.2941 110.812H99.8235V116H84.2941V110.812Z" fill="black"/>
<path d="M73.9412 110.812H79.1176V116H73.9412V110.812Z" fill="black"/>
<path d="M42.8824 110.812H48.0588V116H42.8824V110.812Z" fill="black"/>
<path d="M37.7059 105.625H42.8824V110.812H37.7059V105.625Z" fill="black"/>
<path d="M22.1765 95.25H27.3529V100.438H22.1765V95.25Z" fill="black"/>
<path d="M32.5294 90.0625H37.7059V95.25H32.5294V90.0625Z" fill="black"/>
<path d="M22.1765 79.6875H27.3529V84.875H22.1765V79.6875Z" fill="black"/>
<path d="M22.1765 64.125H27.3529V69.3125H22.1765V64.125Z" fill="black"/>
<path d="M48.0588 38.1875H53.2353V43.375H48.0588V38.1875Z" fill="black"/>
<path d="M68.7647 38.1875H73.9412V43.375H68.7647V38.1875Z" fill="black"/>
<path d="M89.4706 38.1875H94.6471V43.375H89.4706V38.1875Z" fill="black"/>
<path d="M89.4706 58.9375H94.6471V64.125H89.4706V58.9375Z" fill="black"/>
<path d="M94.6471 64.125H99.8235V69.3125H94.6471V64.125Z" fill="black"/>
<path d="M94.6471 79.6875H99.8235V84.875H94.6471V79.6875Z" fill="black"/>
<path d="M84.2941 90.0625H89.4706V95.25H84.2941V90.0625Z" fill="black"/>
<path d="M79.1176 84.875H94.6471V90.0625H79.1176V84.875Z" fill="black"/>
<path d="M99.8235 69.3125H105V79.6875H99.8235V69.3125Z" fill="black"/>
<path d="M94.6471 43.375H99.8235V58.9375H94.6471V43.375Z" fill="black"/>
<path d="M53.2353 43.375H68.7647V48.5625H53.2353V43.375Z" fill="black"/>
<path d="M73.9412 33H89.4706V38.1875H73.9412V33Z" fill="black"/>
<path d="M27.3529 38.1875H32.5294V43.375H27.3529V38.1875Z" fill="black"/>
<path d="M32.5294 33H48.0588V38.1875H32.5294V33Z" fill="black"/>
<path d="M22.1765 43.375H27.3529V58.9375H22.1765V43.375Z" fill="black"/>
<path d="M17 69.3125H22.1765V79.6875H17V69.3125Z" fill="black"/>
<path d="M27.3529 84.875H42.8824V90.0625H27.3529V84.875Z" fill="black"/>
<path d="M17 100.438H22.1765V110.812H17V100.438Z" fill="black"/>
<path d="M27.3529 95.25H32.5294V105.625H27.3529V95.25Z" fill="black"/>
<path d="M48.0588 105.625H53.2353V110.812H48.0588V105.625Z" fill="black"/>
<path d="M68.7647 105.625H73.9412V110.812H68.7647V105.625Z" fill="black"/>
<path d="M79.1176 105.625H84.2941V110.812H79.1176V105.625Z" fill="black"/>
<path d="M89.4706 100.438H94.6471V105.625H89.4706V100.438Z" fill="black"/>
<path d="M89.4706 95.25H99.8235V100.438H89.4706V95.25Z" fill="black"/>
<path d="M99.8235 100.438H105V110.812H99.8235V100.438Z" fill="black"/>
<path d="M27.3529 58.9375H32.5294V64.125H27.3529V58.9375Z" fill="black"/>
<path d="M37.7059 69.3125H42.8824V74.5H37.7059V69.3125Z" fill="black"/>
<path d="M79.1176 69.3125H84.2941V74.5H79.1176V69.3125Z" fill="black"/>
<path d="M42.8824 74.5H79.1176V79.6875H42.8824V74.5Z" fill="black"/>
<path d="M32.5294 43.375H42.8824V53.75H32.5294V43.375Z" fill="black"/>
<path d="M79.1176 43.375H89.4706V53.75H79.1176V43.375Z" fill="black"/>
<path d="M77 93H78V94H77V93Z" fill="#773D31"/>
<path d="M76 92H77V93H76V92Z" fill="#773D31"/>
<path d="M74 90H75V91H74V90Z" fill="#773D31"/>
<path d="M76 90H77V91H76V90Z" fill="#773D31"/>
<path d="M77 91H78V92H77V91Z" fill="#773D31"/>
<path d="M72 88H73V89H72V88Z" fill="#773D31"/>
<path d="M71 87H72V88H71V87Z" fill="#773D31"/>
<path d="M70 86H71V87H70V86Z" fill="#773D31"/>
<path d="M69 85H70V86H69V85Z" fill="#773D31"/>
<path d="M68 84H69V85H68V84Z" fill="#773D31"/>
<path d="M65 81H66V82H65V81Z" fill="#773D31"/>
<path d="M64 80H65V81H64V80Z" fill="#773D31"/>
<path d="M63 79H64V80H63V79Z" fill="#773D31"/>
<path d="M62 78H63V79H62V78Z" fill="#773D31"/>
<path d="M62 77H63V78H62V77Z" fill="#773D31"/>
<path d="M75 89H76V90H75V89Z" fill="#773D31"/>
<path d="M74 88H75V89H74V88Z" fill="#773D31"/>
<path d="M73 87H74V88H73V87Z" fill="#773D31"/>
<path d="M72 86H73V87H72V86Z" fill="#773D31"/>
<path d="M71 85H72V86H71V85Z" fill="#773D31"/>
<path d="M70 84H71V85H70V84Z" fill="#773D31"/>
<path d="M69 83H70V84H69V83Z" fill="#773D31"/>
<path d="M68 82H69V83H68V82Z" fill="#773D31"/>
<path d="M67 81H68V82H67V81Z" fill="#773D31"/>
<path d="M66 80H67V81H66V80Z" fill="#773D31"/>
<path d="M65 79H66V80H65V79Z" fill="#773D31"/>
<path d="M64 78H65V79H64V78Z" fill="#773D31"/>
<path d="M77 89H78V90H77V89Z" fill="#773D31"/>
<path d="M76 88H77V89H76V88Z" fill="#773D31"/>
<path d="M75 87H76V88H75V87Z" fill="#773D31"/>
<path d="M74 86H75V87H74V86Z" fill="#773D31"/>
<path d="M73 85H74V86H73V85Z" fill="#773D31"/>
<path d="M72 84H73V86H72V84Z" fill="#773D31"/>
<path d="M71 83H72V84H71V83Z" fill="#773D31"/>
<path d="M70 82H71V83H70V82Z" fill="#773D31"/>
<path d="M72 82H73V83H72V82Z" fill="#773D31"/>
<path d="M73 83H74V84H73V83Z" fill="#773D31"/>
<path d="M74 84H75V85H74V84Z" fill="#773D31"/>
<path d="M75 85H76V86H75V85Z" fill="#773D31"/>
<path d="M76 86H77V87H76V86Z" fill="#773D31"/>
<path d="M77 87H78V88H77V87Z" fill="#773D31"/>
<path d="M78 88H79V89H78V88Z" fill="#773D31"/>
<path d="M69 81H70V82H69V81Z" fill="#773D31"/>
<path d="M68 80H69V81H68V80Z" fill="#773D31"/>
<path d="M75 90H76V91H75V90Z" fill="#773D31"/>
<path d="M69 84H70V85H69V84Z" fill="#773D31"/>
<path d="M67 82H68V83H67V82Z" fill="#773D31"/>
<path d="M65 80H66V81H65V80Z" fill="#773D31"/>
<path d="M75 88H76V89H75V88Z" fill="#773D31"/>
<path d="M70 83H71V84H70V83Z" fill="#773D31"/>
<path d="M68 81H69V82H68V81Z" fill="#773D31"/>
<path d="M74 85H75V86H74V85Z" fill="#773D31"/>
<path d="M75 91H76V92H75V91Z" fill="#5B2C24"/>
<path d="M73 89H74V90H73V89Z" fill="#5B2C24"/>
<path d="M67 83H68V84H67V83Z" fill="#5B2C24"/>
<path d="M66 82H67V83H66V82Z" fill="#5B2C24"/>
<path d="M77 92H78V93H77V92Z" fill="#5B2C24"/>
<path d="M76 91H77V92H76V91Z" fill="#5B2C24"/>
<path d="M74 89H75V90H74V89Z" fill="#5B2C24"/>
<path d="M73 88H74V89H73V88Z" fill="#5B2C24"/>
<path d="M72 87H73V88H72V87Z" fill="#5B2C24"/>
<path d="M71 86H73V87H71V86Z" fill="#5B2C24"/>
<path d="M70 84H71V86H70V84Z" fill="#5B2C24"/>
<path d="M68 83H69V84H68V83Z" fill="#5B2C24"/>
<path d="M66 81H67V82H66V81Z" fill="#5B2C24"/>
<path d="M64 79H65V80H64V79Z" fill="#5B2C24"/>
<path d="M63 78H64V79H63V78Z" fill="#5B2C24"/>
<path d="M63 77H64V78H63V77Z" fill="#5B2C24"/>
<path d="M76 89H77V90H76V89Z" fill="#5B2C24"/>
<path d="M77 90H78V91H77V90Z" fill="#5B2C24"/>
<path d="M78 89H79V90H78V89Z" fill="#5B2C24"/>
<path d="M74 87H76V88H74V87Z" fill="#5B2C24"/>
<path d="M73 86H74V87H73V86Z" fill="#5B2C24"/>
<path d="M73 85H74V86H73V85Z" fill="#5B2C24"/>
<path d="M71 84H72V85H71V84Z" fill="#5B2C24"/>
<path d="M69 82H70V83H69V82Z" fill="#5B2C24"/>
<path d="M70 81H71V82H70V81Z" fill="#5B2C24"/>
<path d="M71 82H72V83H71V82Z" fill="#5B2C24"/>
<path d="M72 83H73V84H72V83Z" fill="#5B2C24"/>
<path d="M73 84H74V85H73V84Z" fill="#5B2C24"/>
<path d="M75 86H76V87H75V86Z" fill="#5B2C24"/>
<path d="M76 87H77V88H76V87Z" fill="#5B2C24"/>
<path d="M77 88H78V89H77V88Z" fill="#5B2C24"/>
<path d="M76 85H77V86H76V85Z" fill="#5B2C24"/>
<path d="M77 86H78V87H77V86Z" fill="#5B2C24"/>
<path d="M78 87H79V88H78V87Z" fill="#5B2C24"/>
<path d="M79 88H80V89H79V88Z" fill="#5B2C24"/>
<path d="M67 80H68V81H67V80Z" fill="#5B2C24"/>
<path d="M69 80H70V81H69V80Z" fill="#5B2C24"/>
<path d="M66 79H67V80H66V79Z" fill="#5B2C24"/>
<path d="M65 78H66V79H65V78Z" fill="#5B2C24"/>
<path d="M78 94H79V95H78V94Z" fill="#D23524"/>
<path d="M79 93H80V94H79V93Z" fill="#D23524"/>
<path d="M80 94H81V95H80V94Z" fill="#D23524"/>
<path d="M81 93H82V94H81V93Z" fill="#D23524"/>
<path d="M82 94H83V95H82V94Z" fill="#D23524"/>
<path d="M83 93H84V94H83V93Z" fill="#D23524"/>
<path d="M82 92H83V93H82V92Z" fill="#D23524"/>
<path d="M80 92H81V93H80V92Z" fill="#D23524"/>
<path d="M83 91H84V92H83V91Z" fill="#D23524"/>
<path d="M82 90H83V91H82V90Z" fill="#D23524"/>
<path d="M81 91H82V92H81V91Z" fill="#D23524"/>
<path d="M80 90H81V91H80V90Z" fill="#D23524"/>
<path d="M79 91H80V92H79V91Z" fill="#D23524"/>
<path d="M79 94H80V95H79V94Z" fill="#EF4F2B"/>
<path d="M80 93H81V94H80V93Z" fill="#EF4F2B"/>
<path d="M81 94H82V95H81V94Z" fill="#EF4F2B"/>
<path d="M83 94H84V95H83V94Z" fill="#EF4F2B"/>
<path d="M82 93H83V94H82V93Z" fill="#EF4F2B"/>
<path d="M83 92H84V93H83V92Z" fill="#EF4F2B"/>
<path d="M81 92H82V93H81V92Z" fill="#EF4F2B"/>
<path d="M79 92H80V93H79V92Z" fill="#EF4F2B"/>
<path d="M80 91H81V92H80V91Z" fill="#EF4F2B"/>
<path d="M82 91H83V92H82V91Z" fill="#EF4F2B"/>
<path d="M83 90H84V91H83V90Z" fill="#EF4F2B"/>
<path d="M81 90H82V91H81V90Z" fill="#EF4F2B"/>
<path d="M79 90H80V91H79V90Z" fill="#EF4F2B"/>
<path d="M62 76H64V77H62V76Z" fill="black"/>
<path d="M64 77H66V78H64V77Z" fill="black"/>
<path d="M66 78H67V79H66V78Z" fill="black"/>
<path d="M62 79H63V80H62V79Z" fill="black"/>
<path d="M63 80H64V81H63V80Z" fill="black"/>
<path d="M64 81H65V82H64V81Z" fill="black"/>
<path d="M65 82H66V83H65V82Z" fill="black"/>
<path d="M66 83H67V84H66V83Z" fill="black"/>
<path d="M67 84H68V85H67V84Z" fill="black"/>
<path d="M68 85H69V86H68V85Z" fill="black"/>
<path d="M69 86H70V87H69V86Z" fill="black"/>
<path d="M70 87H71V88H70V87Z" fill="black"/>
<path d="M71 88H72V89H71V88Z" fill="black"/>
<path d="M72 89H73V90H72V89Z" fill="black"/>
<path d="M73 90H74V91H73V90Z" fill="black"/>
<path d="M74 91H75V92H74V91Z" fill="black"/>
<path d="M75 92H76V93H75V92Z" fill="black"/>
<path d="M76 93H77V94H76V93Z" fill="black"/>
<path d="M80 88H81V89H80V88Z" fill="black"/>
<path d="M79 87H80V88H79V87Z" fill="black"/>
<path d="M78 86H79V87H78V86Z" fill="black"/>
<path d="M77 85H78V86H77V85Z" fill="black"/>
<path d="M74 83H75V84H74V83Z" fill="black"/>
<path d="M73 82H74V83H73V82Z" fill="black"/>
<path d="M70 80H71V81H70V80Z" fill="black"/>
<path d="M71 81H73V82H71V81Z" fill="black"/>
<path d="M75 84H77V85H75V84Z" fill="black"/>
<path d="M79 89H84V90H79V89Z" fill="black"/>
<path d="M77 94H78V95H77V94Z" fill="black"/>
<path d="M78 90H79V94H78V90Z" fill="black"/>
<path d="M84 90H85V95H84V90Z" fill="black"/>
<path d="M78 95H84V96H78V95Z" fill="black"/>
<path d="M61 76H62V79H61V76Z" fill="black"/>
<path d="M67 79H70V80H67V79Z" fill="black"/>
<path d="M84.373 86H87.373V89H84.373V86Z" fill="#D9D9D9"/>
<path d="M89.373 89H91.373V91H89.373V89Z" fill="#D9D9D9"/>
<path d="M92.373 78H94.373V80H92.373V78Z" fill="#D9D9D9"/>
<path d="M86.373 83H88.373V85H86.373V83Z" fill="#D9D9D9"/>
<path d="M92.373 83H96.373V87H92.373V83Z" fill="#D9D9D9"/>
<path d="M89.9998 90H90.9998V91H89.9998V90Z" fill="#D9D9D9"/>
<path d="M81.373 28H87.373V32H81.373V28Z" fill="#E51110"/>
<path d="M104.373 28H107.373V33H104.373V28Z" fill="#E51110"/>
<path d="M37.373 23H95.373V29H37.373V23Z" fill="#E51110"/>
<path d="M40.373 20H95.373V24H40.373V20Z" fill="#E51110"/>
<path d="M44.0431 17.1558H92.9282V20.0152H44.0431V17.1558Z" fill="#E51110"/>
<path d="M46.9026 14.2966H90.0691V17.1559H46.9026V14.2966Z" fill="#E51110"/>
<path d="M49.7617 11.4371H87.2095V14.2964H49.7617V11.4371Z" fill="#E51110"/>
<path d="M49.7617 8.57796H84.3502V11.4373L49.7617 11.4371V8.57796Z" fill="#E51110"/>
<path d="M52.6211 5.71855H81.491V8.57786H52.6211V5.71855Z" fill="#E51110"/>
<path d="M58.432 2.85925H75.6801V5.71857H58.432V2.85925Z" fill="#E51110"/>
<path d="M87.2096 28.6854H95.7876V31.4525H87.2096V28.6854Z" fill="#E51110"/>
<path d="M90.373 31H98.373V37H90.373V31Z" fill="#E51110"/>
<path d="M90.373 27H98.373V33H90.373V27Z" fill="#E51110"/>
<path d="M94.373 27H102.373V31H94.373V27Z" fill="#E51110"/>
<path d="M101.373 25H106.373V31H101.373V25Z" fill="#E51110"/>
<path d="M29.3735 31.4524H32.2329V41.5H29.3735V31.4524Z" fill="black"/>
<path d="M87.4916 31.4524H90.3509V41.5H87.4916V31.4524Z" fill="black"/>
<path d="M87.3735 31H90.3735V37H87.3735V31Z" fill="black"/>
<path d="M98.3735 31H101.374V37H98.3735V31Z" fill="black"/>
<path d="M104.351 33.0741H107.21V44.6036H104.351V33.0741Z" fill="black"/>
<path d="M118.647 33.0741H121.507V44.6036H118.647V33.0741Z" fill="black"/>
<path d="M95.3735 20H98.3735V27H95.3735V20Z" fill="black"/>
<path d="M92.9286 17.1559H95.7879V20.0152H92.9286V17.1559Z" fill="black"/>
<path d="M98.3735 25H101.374V28H98.3735V25Z" fill="black"/>
<path d="M106.374 27H110.374V31H106.374V27Z" fill="black"/>
<path d="M101.374 31H104.374V34H101.374V31Z" fill="black"/>
<path d="M90.0694 14.2966H92.9287L92.9286 17.1559L90.0694 17.1559V14.2966Z" fill="black"/>
<path d="M87.2101 11.4372H90.0695L90.0694 14.2966L87.2101 14.2965V11.4372Z" fill="black"/>
<path d="M84.3507 8.578H87.21L87.2101 11.4372L84.3507 11.4373V8.578Z" fill="black"/>
<path d="M81.4916 5.71859H84.3509L84.3507 8.578L81.4916 8.5779V5.71859Z" fill="black"/>
<path d="M49.7622 5.71859H52.6215V8.5779H49.7622V5.71859Z" fill="black"/>
<path d="M44.0436 14.2966H46.9029V17.1559H44.0436V14.2966Z" fill="black"/>
<path d="M46.9031 8.578L49.7622 8.5779L49.7624 14.2966L46.9029 14.2966L46.9031 8.578Z" fill="black"/>
<path d="M40.3735 17H44.3735V20H40.3735V17Z" fill="black"/>
<path d="M37.3735 20H40.3735V23H37.3735V20Z" fill="black"/>
<path d="M34.3735 22.8746H37.2329V28.6855H34.3735V22.8746Z" fill="black"/>
<path d="M75.6808 2.85929H81.4917L81.4916 5.71859L75.6808 5.71861V2.85929Z" fill="black"/>
<path d="M52.6216 2.85929H58.4325V5.71861L52.6215 5.71859L52.6216 2.85929Z" fill="black"/>
<path d="M58.4325 0H75.6806L75.6808 2.85929H58.4325L58.4325 0Z" fill="black"/>
<path d="M90.3735 34H98.3735V37H90.3735V34Z" fill="black"/>
<path d="M107.21 30.2148H118.647L118.647 33.0741H107.21L107.21 30.2148Z" fill="black"/>
<path d="M107.21 44.6036H118.647L118.647 47.4631H107.21L107.21 44.6036Z" fill="black"/>
<path d="M31.8735 41.3556H90.3735V44.2149H31.8735V41.3556Z" fill="black"/>
<path d="M32.1358 28.6855L87.4914 28.6855V31.5448L32.1358 31.5449V28.6855Z" fill="black"/>
<path d="M104.374 24H107.374V27H104.374V24Z" fill="black"/>
<path d="M101.374 24H104.374V27H101.374V24Z" fill="black"/>
<path d="M81.3735 31H90.3735V34H81.3735V31Z" fill="black"/>
<path d="M107.21 33.0741H118.647V44.6036H107.21V33.0741Z" fill="white"/>
<path d="M32.2324 31.5448H87.4911V41.5H32.2324V31.5448Z" fill="white"/>
</svg>
